<?xml version="1.0" encoding="UTF-8" standalone="no"?>

<svg
   width="97.824219mm"
   height="82.150421mm"
   viewBox="0 0 97.824219 82.150421"
   version="1.1"
   id="svg1"
   xmlns="http://www.w3.org/2000/svg"
   xmlns:svg="http://www.w3.org/2000/svg">
  <defs
     id="defs1" />
  <g
     id="layer1"
     transform="translate(-55.5625,-107.42083)">
    <path
       style="display:inline;fill:#000000;fill-opacity:1;stroke-width:1.57989"
       d="m 110.25831,189.43295 c -9.42405,-0.75203 -18.431003,-3.15979 -24.213403,-6.46966 l -0.766247,-0.43763 -0.218024,0.12166 a 2.0854555,2.0854555 0 0 1 -0.534003,0.17852 c -0.173788,0.0316 -0.556122,0.13903 -0.849982,0.23699 l -0.532423,0.18168 -1.135941,0.0679 c -0.624057,0.0379 -1.306569,0.0948 -1.515115,0.12481 -1.232315,0.18011 -5.48538,0.2749 -6.445953,0.14219 a 56.218824,56.218824 0 0 0 -1.074326,-0.13113 c -1.497736,-0.16905 -1.72682,-0.20223 -3.538954,-0.52768 -0.590879,-0.10586 -1.244954,-0.22119 -1.4535,-0.25279 a 23.903743,23.903743 0 0 1 -1.327108,-0.30017 42.593848,42.593848 0 0 0 -1.263912,-0.30018 c -0.173788,-0.0332 -1.055367,-0.26543 -1.959064,-0.51347 -2.181829,-0.60036 -2.053858,-0.56718 -2.31296,-0.62405 a 6.1647327,6.1647327 0 0 1 -0.72675,-0.26069 5.1551827,5.1551827 0 0 0 -0.530843,-0.20222 c -0.04424,0.008 -1.557772,-0.73149 -1.908508,-0.93214 -0.799424,-0.45817 -1.900608,-1.80581 -2.210266,-2.70635 l -0.178528,-0.5182 v -1.42981 l 0.157989,-0.58456 c 0.281221,-1.03008 0.941615,-2.03805 1.887969,-2.88172 l 0.707791,-0.63195 0.789945,-0.39497 0.791526,-0.39814 0.673033,-0.12797 0.671453,-0.12639 0.5893,0.0632 c 0.979532,0.10743 2.777447,0.37601 3.478918,0.5182 l 0.363375,0.0743 -0.09637,-0.15799 a 27.594367,27.594367 0 0 0 -0.71727,-0.97322 l -0.617738,-0.81838 -0.748868,-1.53565 -0.748868,-1.53408 -0.262262,-0.94793 a 22.955809,22.955809 0 0 1 -0.445529,-2.14865 l -0.186427,-1.20072 0.0016,-1.20072 c 0.01106,-7.64983 5.389007,-14.12106 12.99144,-15.63301 l 1.098024,-0.21803 1.895868,0.005 1.895869,0.006 1.319208,0.27964 1.317629,0.28122 1.137521,0.43921 c 2.982833,1.15174 6.145774,3.66693 7.495001,5.96093 a 107.43255,107.43255 0 0 0 0.680933,1.12804 c 1.112242,1.82162 2.003301,4.89924 2.01278,6.95468 l 0.0032,0.52926 1.105923,-0.0521 c 1.399783,-0.0679 2.301901,-0.22119 3.32725,-0.56402 0.447109,-0.15009 0.960573,-0.29228 1.14068,-0.31756 0.494506,-0.0695 1.726817,-0.40129 2.578377,-0.69515 l 0.75835,-0.26069 0.66671,-0.44237 c 2.07282,-1.3745 4.054,-3.75539 7.84258,-9.42562 2.8596,-4.28151 2.98125,-4.41422 4.6354,-5.03037 l 0.75835,-0.2828 1.14858,-0.0695 1.15016,-0.0695 0.68251,0.16114 c 0.89264,0.21013 1.77264,0.65882 2.39037,1.21652 l 0.49767,0.44869 0.34599,0.70621 0.34442,0.70463 0.0506,1.08539 0.049,1.0838 -0.1959,0.83892 c -0.5419,2.31138 -3.76962,8.25967 -6.63396,12.2252 a 118.30378,118.30378 0 0 0 -1.4377,2.0191 2.7537491,2.7537491 0 0 1 -0.45501,0.52294 c -0.13113,0.10585 -0.69515,0.70463 -1.24811,1.33027 -0.55771,0.62563 -1.50406,1.56409 -2.10442,2.08545 l -1.09328,0.94794 0.22118,0.0932 c 0.35864,0.14851 4.33206,0.98427 4.97982,1.04589 0.32703,0.0316 1.09644,0.17695 1.70944,0.3223 0.613,0.14535 1.25759,0.28912 1.43138,0.31597 0.17379,0.0284 0.57192,0.11218 0.88474,0.18801 0.31282,0.0743 0.8247,0.16273 1.13752,0.19749 0.31282,0.0316 1.49931,0.20538 2.63684,0.37917 l 2.06649,0.3223 0.27174,-0.0695 0.27016,-0.0695 1.08065,-0.9353 1.07907,-0.93529 0.70779,-0.93214 c 0.38865,-0.51346 0.81206,-1.13278 0.94161,-1.37608 l 0.2354,-0.44237 0.0632,-4.30362 0.0632,-4.30205 0.2275,-0.34757 c 0.12639,-0.19275 0.41077,-0.45817 0.63196,-0.59562 l 0.40445,-0.24488 h 3.06973 l 3.06814,-0.002 0.46765,0.1959 c 1.22758,0.51189 1.81055,1.74894 2.24344,4.76179 l 0.18801,1.29867 0.0822,1.97961 0.0837,1.9796 0.16905,-0.0664 0.17063,-0.0648 v -8.57565 l 0.17378,-0.41867 0.17537,-0.41709 0.42657,-0.40129 0.42499,-0.39971 0.9511,-0.49609 0.95109,-0.49766 0.94478,-0.26385 0.94477,-0.26384 1.89587,-0.15009 c 1.04273,-0.0821 2.37931,-0.15167 2.97019,-0.15483 l 1.07433,-0.005 0.42657,0.30492 0.42657,0.30334 0.25752,0.5814 0.25752,0.57982 0.0948,3.15978 c 0.0553,1.73788 0.16589,3.87073 0.24804,4.73967 l 0.15009,1.57989 v 1.76948 l 0.002,1.76948 -0.20697,0.8721 c -0.27332,1.147 -0.60983,1.88955 -1.16911,2.57206 l -0.45659,0.55612 -0.71095,0.45343 c -1.68733,1.07433 -2.18815,1.44718 -4.07296,3.02707 -10.64372,8.9169 -17.50993,12.23941 -26.97031,13.0499 l -1.5167,0.13113 -3.34936,-0.0158 c -1.84216,-0.009 -3.94657,-0.0632 -4.67648,-0.12165 z"
       id="path1" />
    <path
       style="display:inline;fill:#ffffff;fill-opacity:1;stroke-width:1.57989"
       d="m 141.68233,129.53456 a 2.0001414,2.0001414 0 0 1 -0.66355,-0.39024 l -0.30018,-0.28122 -0.12639,-0.45184 -0.12639,-0.45185 v -14.15582 l 0.12797,-0.45817 0.12797,-0.45817 0.32861,-0.32862 0.32862,-0.32861 0.42657,-0.079 0.42657,-0.0821 0.3381,0.0853 0.33652,0.0837 0.42341,0.42341 0.42183,0.42183 v 15.55244 l -0.32388,0.38549 -0.32388,0.38392 -0.46607,0.12955 c -0.5261,0.14693 -0.46922,0.14693 -0.95583,0 z"
       id="path15" />
    <path
       style="display:inline;fill:#ffffff;fill-opacity:1;stroke-width:1.57989"
       d="m 72.167149,129.53456 a 2.0001414,2.0001414 0 0 1 -0.663554,-0.39024 l -0.300179,-0.28122 -0.126391,-0.45184 -0.126392,-0.45185 v -14.15582 l 0.127972,-0.45817 0.127971,-0.45817 0.328617,-0.32862 0.328617,-0.32861 0.426571,-0.079 0.42657,-0.0821 0.338097,0.0853 0.336516,0.0837 0.423411,0.42341 0.421831,0.42183 v 15.55244 l -0.323878,0.38549 -0.323877,0.38392 -0.466068,0.12955 c -0.526104,0.14693 -0.469228,0.14693 -0.955834,0 z"
       id="path14" />
    <path
       style="display:inline;fill:#ffffff;fill-opacity:1;stroke-width:1.57989"
       d="m 95.600085,137.33922 -0.311238,-0.15799 -0.28912,-0.42657 -0.28754,-0.42657 v -15.03108 l 0.191166,-0.40287 0.192747,-0.40446 0.363375,-0.21644 0.366534,-0.21487 h 1.16438 l 0.473967,0.43289 0.470807,0.43289 0.03476,7.65615 0.03476,7.65773 -0.199066,0.38392 -0.199066,0.38391 -0.404452,0.24646 -0.404452,0.24647 h -0.442369 l -0.44237,-0.002 z"
       id="path13" />
    <path
       style="display:inline;fill:#ffffff;fill-opacity:1;stroke-width:1.57989"
       d="m 151.16167,139.0139 a 2.0001414,2.0001414 0 0 1 -0.66355,-0.39023 l -0.30018,-0.28122 -0.12639,-0.45185 -0.12639,-0.45185 0.003,-14.15582 0.003,-14.15582 0.11691,-0.50556 0.11691,-0.50557 0.38707,-0.34757 0.38866,-0.34758 h 1.14542 l 0.37127,0.19117 0.3697,0.19274 0.19274,0.3697 0.19117,0.37127 v 29.56923 l -0.32388,0.3855 -0.32387,0.38391 -0.46607,0.12955 c -0.52611,0.14693 -0.46923,0.14693 -0.95584,0 z"
       id="path12" />
    <path
       style="display:inline;fill:#ffffff;fill-opacity:1;stroke-width:1.57989"
       d="m 116.40408,139.0139 a 2.0001414,2.0001414 0 0 1 -0.66355,-0.39023 l -0.30018,-0.28122 -0.12639,-0.45185 -0.12639,-0.45185 0.003,-14.15582 0.003,-14.15582 0.11691,-0.50556 0.11691,-0.50557 0.38707,-0.34757 0.38866,-0.34758 h 1.14542 l 0.37127,0.19117 0.3697,0.19274 0.19274,0.3697 0.19117,0.37127 v 29.56923 l -0.32388,0.3855 -0.32388,0.38391 -0.46606,0.12955 c -0.52611,0.14693 -0.46923,0.14693 -0.95584,0 z"
       id="path11" />
    <path
       style="display:inline;fill:#ffffff;fill-opacity:1;stroke-width:1.57989"
       d="m 62.687806,139.0139 a 2.0001414,2.0001414 0 0 1 -0.663554,-0.39023 l -0.300179,-0.28122 -0.126391,-0.45185 -0.126392,-0.45185 0.0032,-14.15582 0.0032,-14.15582 0.116912,-0.50556 0.116912,-0.50557 0.387073,-0.34757 0.388653,-0.34758 h 1.145421 l 0.371274,0.19117 0.369694,0.19274 0.192747,0.3697 0.191167,0.37127 v 29.56923 l -0.323878,0.3855 -0.323877,0.38391 -0.466068,0.12955 c -0.526104,0.14693 -0.469228,0.14693 -0.955834,0 z"
       id="path10" />
    <path
       style="display:inline;fill:#ffffff;fill-opacity:1;stroke-width:1.57989"
       d="m 70.824242,168.64001 1.074326,-0.95742 1.390303,-0.91475 c 0.764667,-0.50241 2.014361,-1.30499 2.779028,-1.78528 l 1.388724,-0.8721 0.473967,-0.47397 0.477127,-0.47712 v -0.47397 l -0.0032,-0.47397 -0.29544,-0.63195 c -0.161149,-0.34758 -0.638275,-1.08697 -1.058526,-1.64309 l -0.764667,-1.01113 -1.244954,-1.20704 -1.246534,-1.20703 -0.597198,-0.28754 -0.597199,-0.28754 -0.249623,0.079 -0.251202,0.079 -0.541903,0.60825 -0.543482,0.60826 -1.259173,2.06018 c -1.338167,2.19289 -2.265563,3.4805 -3.204018,4.44897 l -0.578239,0.59878 0.372854,0.78679 c 0.203806,0.43289 0.635116,1.19439 0.958993,1.69206 l 0.58614,0.90528 0.849981,0.90053 c 1.023769,1.08539 0.788365,1.09171 2.083875,-0.0632 z"
       id="path9" />
    <path
       style="display:inline;fill:#ffffff;fill-opacity:1;stroke-width:1.57989"
       d="m 132.88234,170.59275 c 0.45185,-0.13745 1.57515,-0.6209 2.49623,-1.07432 l 1.67468,-0.82155 -0.002,-0.5893 c 0,-0.32387 -0.0569,-1.68416 -0.12639,-3.02549 l -0.12165,-2.43777 -0.19749,-1.33185 c -0.10901,-0.73148 -0.2512,-1.46929 -0.31598,-1.63834 l -0.11533,-0.3065 h -3.1661 v 6.5913 l -0.31282,0.93214 c -0.37917,1.12646 -0.8721,1.96854 -1.88007,3.2056 l -0.75834,0.93213 1.00007,-0.0932 1.00165,-0.0948 z"
       id="path8" />
    <path
       style="display:inline;fill:#ffffff;fill-opacity:1;stroke-width:1.57989"
       d="m 78.903802,172.50758 1.279712,-0.13113 1.075905,-0.31282 1.075905,-0.31124 0.911597,-0.45817 c 1.352386,-0.67935 2.191308,-1.26707 3.270374,-2.294 l 0.965313,-0.92107 0.654074,-0.94636 c 0.819963,-1.18492 1.545133,-2.72531 1.902188,-4.03662 l 0.276481,-1.01113 0.0632,-1.70628 0.06004,-1.70628 -0.248043,-1.20072 -0.248043,-1.20072 -0.350736,-0.88473 a 13.786125,13.786125 0 0 0 -2.096514,-3.53422 l -0.763087,-0.94793 -1.034829,-0.82945 -1.033248,-0.82786 -1.263912,-0.62722 -1.263913,-0.62721 -1.263912,-0.33494 -1.263913,-0.33494 h -3.665346 l -1.200716,0.32072 a 12.424259,12.424259 0 0 0 -3.967105,1.7916 l -1.025349,0.68251 -0.962154,0.99217 -0.962153,0.99059 -0.635116,0.9748 -0.635116,0.97479 -0.401292,0.96215 c -0.221185,0.52926 -0.513465,1.3982 -0.649335,1.93221 l -0.249623,0.97005 -0.06794,1.20072 -0.06793,1.20071 0.205385,-0.25278 c 0.113753,-0.13903 0.559282,-0.8089 0.989012,-1.48984 0.42973,-0.67935 1.1549,-1.81687 1.611488,-2.52782 l 0.827863,-1.29235 0.679353,-0.67935 0.677773,-0.67936 0.633536,-0.29228 0.635116,-0.29386 0.658814,-0.0821 0.658814,-0.0837 0.652495,0.14219 c 0.360215,0.0758 0.960574,0.28912 1.336588,0.47396 l 0.682512,0.33336 0.992172,0.79468 0.993751,0.79311 1.126462,1.28287 c 0.620897,0.70463 1.453499,1.7679 1.851631,2.36194 l 0.72201,1.07906 0.28754,0.71095 0.28596,0.71253 0.0016,1.32711 0.0016,1.32711 -0.293859,0.5972 -0.29544,0.59878 -0.57824,0.64301 -0.57982,0.6446 -1.489836,0.97005 c -0.819964,0.534 -2.132853,1.37924 -2.918058,1.87849 -0.785206,0.49925 -1.741039,1.18966 -2.123373,1.53249 l -0.695152,0.62564 0.505565,0.21171 c 0.846821,0.35705 2.267143,0.70779 3.308291,0.81838 0.543482,0.0569 1.026929,0.11059 1.071166,0.12007 0.04424,0.009 0.657234,-0.0411 1.361865,-0.11375 z"
       id="path7" />
    <path
       style="display:inline;fill:#ffffff;fill-opacity:1;stroke-width:1.57989"
       d="m 100.30342,175.86327 1.07432,-0.18643 1.12173,-0.39023 c 1.88007,-0.6525 5.54067,-2.50729 7.34649,-3.72223 l 0.41077,-0.2749 -2.07914,-0.47712 -2.07913,-0.47713 -0.92266,0.37917 c -1.33185,0.54507 -2.41723,0.87526 -3.62111,1.09645 l -1.05694,0.1959 h -2.354041 l -0.379174,-0.32071 -0.380754,-0.31914 -0.150089,-0.45501 -0.15009,-0.45501 0.14219,-0.47871 0.14535,-0.48028 0.372854,-0.31598 0.374435,-0.31282 0.982691,-0.079 c 1.579888,-0.12797 2.549948,-0.31282 3.763298,-0.71569 l 1.13752,-0.3776 1.15016,-0.63511 a 23.429776,23.429776 0 0 0 2.25925,-1.46772 l 1.10908,-0.8326 1.29077,-1.29077 c 3.42836,-3.42679 8.82369,-11.76703 9.84904,-15.21909 l 0.2038,-0.68409 v -1.10277 l -0.30176,-0.30176 -0.30175,-0.30175 -0.46449,-0.0869 a 4.2372663,4.2372663 0 0 0 -2.10916,0.22909 l -0.46132,0.1959 -2.3098,3.45522 c -1.27024,1.90219 -2.82643,4.13932 -3.4568,4.97192 l -1.14859,1.51353 -1.30182,1.35081 c -2.89278,3.00179 -5.17573,4.08402 -10.364087,4.91662 l -1.050627,0.16747 -1.210196,1.56093 -1.210196,1.55935 -1.45034,1.51354 -1.451919,1.51511 0.08373,0.44237 c 0.116912,0.62248 0.73149,2.09336 1.229155,2.94334 l 0.421831,0.71885 1.01113,1.02693 1.01113,1.02534 0.794685,0.39972 c 1.489836,0.75044 2.654216,0.90053 4.480574,0.58456 z"
       id="path6" />
    <path
       style="display:inline;fill:#ffffff;fill-opacity:1;stroke-width:1.57989"
       d="m 86.127062,177.73544 0.928975,-0.46449 1.505636,-1.4851 1.507215,-1.4851 -0.262261,-0.42341 c -0.14377,-0.23382 -0.467648,-0.83734 -0.717271,-1.3429 l -0.453428,-0.91792 -0.658815,0.55928 c -1.358705,1.15332 -3.235615,2.20869 -4.971915,2.79325 -1.01113,0.34125 -0.995331,0.26226 -0.236984,1.20861 1.556193,1.94327 2.093355,2.19131 3.358848,1.55778 z"
       id="path5" />
    <path
       style="display:inline;fill:#ffffff;fill-opacity:1;stroke-width:1.57989"
       d="m 80.300425,179.98204 c 0.5893,-0.0758 1.121723,-0.13903 1.180179,-0.13903 0.06162,0 -0.265422,-0.40603 -0.72359,-0.90054 l -0.834182,-0.90053 -0.696732,-1.10119 -0.698312,-1.10118 -1.238634,-0.019 -1.240214,-0.0205 -1.085385,-0.18959 a 19.633299,19.633299 0 0 1 -2.101254,-0.50872 c -0.556121,-0.17695 -1.257593,-0.34284 -1.556192,-0.3697 -0.968473,-0.0853 -2.057018,-0.21328 -2.251344,-0.267 a 32.683195,32.683195 0 0 0 -1.516695,-0.24804 c -1.633607,-0.24172 -2.031739,-0.30808 -2.275042,-0.37759 a 9.0164351,9.0164351 0 0 0 -0.821543,-0.13587 14.397542,14.397542 0 0 1 -0.884739,-0.13745 c -0.5814,-0.12956 -0.932135,-0.17379 -1.790016,-0.22751 l -0.905277,-0.0569 -0.485027,0.35705 c -0.600358,0.44237 -1.090124,0.98585 -1.265492,1.40136 l -0.132711,0.31598 0.115332,0.31598 c 0.208546,0.56402 1.390304,1.52617 1.665205,1.35397 0.0237,-0.0158 0.129551,0.0474 0.236983,0.13587 a 1.2639124,1.2639124 0 0 0 0.431311,0.21802 c 0.127971,0.0316 0.631956,0.17379 1.118562,0.31914 0.486606,0.14377 0.984272,0.28754 1.105923,0.31914 l 0.473968,0.11849 0.505564,0.12639 0.505565,0.12639 0.505565,0.12639 0.505565,0.12639 0.505565,0.12639 0.505565,0.1264 c 0.535583,0.13429 1.73788,0.37601 2.591021,0.52136 l 0.695152,0.12007 c 0.173787,0.0316 0.723589,0.11533 1.222835,0.18643 0.497665,0.0727 1.023769,0.15325 1.165959,0.18169 0.14377,0.0268 0.816803,0.0869 1.496156,0.13271 0.679353,0.0442 1.243374,0.0916 1.254433,0.10111 0.01264,0.0111 0.837342,0.0126 1.832673,0.002 l 1.812135,-0.019 z"
       id="path4" />
    <path
       style="display:inline;fill:#ffffff;fill-opacity:1;stroke-width:1.57989"
       d="m 120.36961,186.10412 a 44.616108,44.616108 0 0 0 3.06973,-0.44711 l 1.36502,-0.26384 1.76316,-0.56876 c 5.84559,-1.88007 10.37356,-4.58801 17.28716,-10.33091 2.87856,-2.39037 3.61163,-2.95439 4.68912,-3.61005 0.8484,-0.51504 1.08222,-0.78994 1.35554,-1.59411 l 0.21487,-0.63195 -0.0158,-1.57989 a 68.526171,68.526171 0 0 0 -0.21013,-3.95921 l -0.1959,-2.3809 v -3.27037 l -1.42191,0.0743 -1.4219,0.0727 -0.88474,0.18643 -0.88473,0.18643 -0.56876,0.28912 -0.56877,0.2907 -0.0632,4.5011 -0.0632,4.50269 -0.44237,0.45975 c -0.70779,0.73623 -2.23238,1.93063 -3.66534,2.8675 l -1.32711,0.86894 -1.51669,0.74097 c -0.83419,0.40603 -2.01595,0.91476 -2.62736,1.12804 l -1.10909,0.38865 -1.16596,0.14535 -1.16437,0.14219 -1.89587,-0.079 a 65.718705,65.718705 0 0 1 -6.94046,-0.71569 c -1.96223,-0.29702 -1.62413,-0.71095 -2.34456,2.87066 -0.83418,4.14405 -1.90851,8.36394 -2.46463,9.67999 l -0.0948,0.22118 h 0.80258 c 0.44237,-0.002 1.57199,-0.0853 2.51045,-0.18484 z"
       id="path3" />
    <path
       style="display:inline;fill:#ffffff;fill-opacity:1;stroke-width:1.57989"
       d="m 113.96631,185.09931 c 0.77415,-2.0191 1.57515,-5.13939 2.47885,-9.64208 a 88.15789,88.15789 0 0 0 0.51188,-2.67001 v -0.11375 l -1.07748,-0.21487 -1.07749,-0.21328 -1.86111,1.25127 c -2.38563,1.60517 -3.86441,2.46779 -6.07626,3.54843 l -1.77895,0.86894 -1.37451,0.45659 c -0.75834,0.25121 -1.79791,0.55296 -2.31296,0.6683 l -0.93529,0.21012 -1.643088,0.006 -1.643086,0.008 -0.821543,-0.22434 c -1.056947,-0.28754 -2.670015,-1.07433 -3.475759,-1.69049 l -0.631957,-0.4866 -1.265492,1.27023 -1.265492,1.26865 -0.658815,0.44237 c -0.845241,0.56876 -0.900537,0.47871 0.819964,1.29551 5.777659,2.74427 15.871578,5.03037 22.671428,5.13464 l 0.96215,0.0158 z"
       id="path2" />
  </g>
</svg>
