<?xml version="1.0" encoding="UTF-8" standalone="no"?>
<!-- Created with Inkscape (http://www.inkscape.org/) -->

<svg
   width="33.92313mm"
   height="35.828403mm"
   viewBox="0 0 33.92313 35.828403"
   version="1.1"
   id="svg1"
   xmlns="http://www.w3.org/2000/svg"
   xmlns:svg="http://www.w3.org/2000/svg">
  <defs
     id="defs1" />
  <g
     id="layer1"
     transform="translate(-16.855965,-13.019724)">
    <path
       id="path2003"
       style="fill:#000000;stroke-width:0.264583"
       d="m 18.971261,45.968057 c -0.166132,-0.166116 -0.08083,-0.775456 0.150231,-1.073478 0.129249,-0.166663 0.272864,-0.546031 0.319166,-0.843039 l 0.08419,-0.540012 -0.541496,7.94e-4 c -0.326523,5.29e-4 -0.692892,0.101076 -0.922709,0.253288 -0.414787,0.274704 -0.781975,0.318572 -1.080029,0.129038 -0.365363,-0.232331 0.378064,-0.764773 1.536171,-1.100207 1.285849,-0.372435 1.513311,-0.556127 1.513311,-1.222057 0,-0.366157 0.103188,-0.632299 0.381185,-0.983324 0.209656,-0.264708 0.381186,-0.563153 0.381186,-0.66321 0,-0.325157 0.589862,-0.746974 1.394962,-0.997545 0.433256,-0.134845 0.887042,-0.245174 1.00838,-0.245174 0.381794,0 0.773219,-0.541647 0.773219,-1.06993 0,-0.34708 0.110093,-0.620794 0.393832,-0.979022 0.216588,-0.273486 0.36367,-0.575812 0.326813,-0.671835 -0.108823,-0.283599 0.465402,-0.710213 1.309608,-0.97296 0.433256,-0.134845 0.887042,-0.245174 1.008407,-0.245174 0.369967,0 0.773192,-0.541845 0.773192,-1.038976 0,-0.309616 0.119406,-0.601062 0.381185,-0.930481 0.209656,-0.263814 0.381185,-0.546868 0.381185,-0.62901 0,-0.449374 1.660287,-1.333696 2.520791,-1.342647 0.392007,-0.0041 0.782823,-0.564782 0.782823,-1.123085 0,-0.396219 0.09117,-0.621532 0.38862,-0.960294 0.21373,-0.243436 0.370972,-0.476687 0.349409,-0.518338 -0.09144,-0.176643 1.095269,-0.809487 1.8923,-1.009131 1.097941,-0.275013 1.435655,-0.575831 1.435655,-1.278842 0,-0.393431 0.078,-0.600753 0.306891,-0.815803 0.168804,-0.158576 0.340121,-0.420619 0.380708,-0.582317 0.08996,-0.35847 1.061112,-0.87068 2.085393,-1.099909 0.902177,-0.201896 1.283335,-0.593958 1.288971,-1.325902 0.0029,-0.362225 0.0844,-0.593079 0.268631,-0.75979 0.145548,-0.13171 0.341154,-0.422664 0.434711,-0.646565 0.199284,-0.476949 0.595392,-0.706208 1.720479,-0.995754 1.060133,-0.272833 1.392053,-0.576371 1.392053,-1.27307 0,-0.381156 0.07628,-0.597892 0.271647,-0.771988 0.149437,-0.133127 0.349859,-0.426757 0.4454,-0.652507 0.22479,-0.531164 0.536548,-0.723511 1.686586,-1.040604 1.152499,-0.317772 1.503522,-0.607451 1.436079,-1.185113 -0.03717,-0.31841 0.04321,-0.531337 0.34298,-0.908548 0.215344,-0.27097 0.39153,-0.570579 0.39153,-0.665795 0,-0.201448 0.328771,-0.233682 0.446167,-0.04374 0.04397,0.07116 -0.03842,0.320913 -0.183118,0.555008 -0.401955,0.650383 -0.352187,0.837988 0.213439,0.804788 0.469027,-0.02753 0.476488,-0.02066 0.476488,0.43773 0,0.25613 0.03733,0.503123 0.08297,0.548875 0.04564,0.04575 0.31496,-0.03516 0.598487,-0.179803 0.642938,-0.328004 0.779754,-0.329557 0.779754,-0.0089 0,0.148611 -0.08472,0.254124 -0.204021,0.254124 -0.112209,0 -0.373909,0.142944 -0.581527,0.317654 -0.267679,0.225226 -0.531813,0.318883 -0.907786,0.321881 -0.68072,0.0054 -1.018381,0.291587 -1.201314,1.018106 -0.275696,1.094928 -0.798592,2.027153 -1.13702,2.027153 -0.06953,0 -0.346128,0.174585 -0.614627,0.387964 -0.408252,0.324437 -0.562531,0.375399 -0.942261,0.311245 -0.618754,-0.104537 -0.915405,0.234289 -1.319027,1.506524 -0.295275,0.930815 -0.720857,1.606127 -1.01219,1.606127 -0.06858,0 -0.312103,0.142944 -0.541152,0.317653 -0.281041,0.214358 -0.578935,0.317657 -0.916041,0.317657 -0.570785,0 -1.169194,0.392472 -1.169194,0.766825 0,0.410771 -0.523319,1.696522 -0.813593,1.99892 -0.152083,0.158419 -0.405659,0.312909 -0.56351,0.34331 -0.15785,0.0304 -0.46728,0.206954 -0.687599,0.39234 -0.323533,0.272245 -0.491569,0.324863 -0.873681,0.273611 -0.619416,-0.08308 -0.907335,0.219329 -1.247854,1.310669 -0.341392,1.094189 -0.681831,1.622202 -1.114637,1.728875 -0.194363,0.0479 -0.530304,0.220964 -0.746548,0.384595 -0.252465,0.191037 -0.570786,0.299022 -0.889423,0.301736 -0.716016,0.0061 -1.014519,0.324202 -1.384803,1.475687 -0.316627,0.984586 -0.89064,1.823697 -1.24759,1.823697 -0.09361,0 -0.304509,0.142943 -0.468656,0.317653 -0.232278,0.247251 -0.427276,0.318593 -0.879793,0.321882 -0.559329,0.0041 -1.153186,0.312382 -1.153186,0.598699 0,0.605708 -1.005311,2.700684 -1.295982,2.700684 -0.06525,0 -0.30607,0.142946 -0.53512,0.317656 -0.275881,0.21042 -0.583988,0.319082 -0.912733,0.321881 -0.690695,0.0059 -0.96946,0.294564 -1.310931,1.35762 -0.27395,0.852876 -0.94152,1.941764 -1.19044,1.941764 -0.05958,0 -0.295751,0.142943 -0.524827,0.317656 -0.275855,0.210418 -0.583989,0.319082 -0.912707,0.321881 -0.69559,0.0059 -0.982901,0.30525 -1.302253,1.356593 -0.33864,1.11493 -0.92067,1.889117 -1.205812,1.603957 z m 0.877041,-1.21917 c 0.120359,-0.36607 0.245189,-0.737053 0.277442,-0.824408 0.03416,-0.09254 -0.04403,-0.158826 -0.187298,-0.158826 -0.191294,0 -0.278924,0.143189 -0.394759,0.645001 -0.29583,1.28152 -0.08313,1.517671 0.304615,0.338233 z m -0.802931,-1.513375 c 0.12229,-0.06276 0.222356,-0.192691 0.222356,-0.288732 0,-0.146468 -0.107553,-0.14437 -0.667068,0.01302 -1.161574,0.326732 -1.150938,0.321892 -0.963718,0.438269 0.187616,0.116621 1.06082,0.01585 1.40843,-0.162555 z m 0.857673,-0.04164 c -0.08699,-0.104825 -0.173646,-0.190592 -0.192563,-0.190592 -0.01905,0 -0.06728,0.08577 -0.107501,0.190592 -0.05064,0.131969 0.0085,0.190593 0.192538,0.190593 0.221773,0 0.239553,-0.03151 0.107526,-0.190593 z m 0.938504,-0.302564 0.350731,-0.366096 -0.342053,-0.342059 -0.342053,-0.342061 -0.366104,0.350742 c -0.423201,0.405469 -0.443706,0.515075 -0.155813,0.833208 0.287761,0.317973 0.446272,0.29319 0.855292,-0.133734 z m 1.412134,-0.348602 c 0.302445,-0.257371 0.319193,-0.293296 0.08107,-0.173932 -0.165073,0.08274 -0.438044,0.124077 -0.606583,0.09186 -0.323136,-0.06177 -0.495803,0.07512 -0.363908,0.288523 0.13335,0.215763 0.490749,0.132802 0.889423,-0.206449 z m 0.158829,-0.427466 c 0.279691,-0.170527 0.412962,-0.349369 0.412962,-0.55417 0,-0.166312 0.108426,-0.440221 0.24093,-0.608687 0.132503,-0.168465 0.26117,-0.533537 0.285882,-0.811273 0.04384,-0.492443 0.03416,-0.506 -0.389917,-0.546423 -0.653838,-0.06232 -1.743022,0.531744 -2.032132,1.108371 -0.298476,0.595307 -0.230822,0.812433 0.192987,0.619329 0.254503,-0.115954 0.353431,-0.103571 0.522394,0.06539 0.167878,0.167894 0.180975,0.268661 0.06734,0.518105 -0.237966,0.522276 0.04665,0.607451 0.699558,0.209356 z m -1.810623,-0.944957 c 0,-0.331599 -0.03707,-0.401754 -0.158829,-0.300693 -0.08737,0.0725 -0.158829,0.294552 -0.158829,0.493456 0,0.237109 0.05469,0.340651 0.158829,0.300691 0.08734,-0.03352 0.158829,-0.255575 0.158829,-0.493454 z m 3.185345,-0.360317 c 0.120333,-0.366067 0.24519,-0.737053 0.277416,-0.824407 0.03416,-0.09254 -0.044,-0.158827 -0.187272,-0.158827 -0.191294,0 -0.27895,0.143192 -0.394785,0.645004 -0.295804,1.28152 -0.08313,1.517668 0.304641,0.33823 z m -0.941731,-1.443882 c 0.115835,-0.0315 0.242676,-0.140864 0.281887,-0.24303 0.09517,-0.248007 -0.231854,-0.239998 -1.054973,0.02585 -1.027271,0.331769 -0.349012,0.522314 0.773086,0.217188 z m 0.996447,-0.11113 c -0.08699,-0.104828 -0.173646,-0.190595 -0.192537,-0.190595 -0.01905,0 -0.06731,0.08577 -0.107527,0.190595 -0.05064,0.131969 0.0085,0.190593 0.192564,0.190593 0.221774,0 0.239527,-0.03151 0.1075,-0.190593 z m 0.93853,-0.302567 0.350732,-0.366093 -0.342053,-0.342062 -0.34208,-0.342058 -0.366078,0.350739 c -0.423227,0.405469 -0.443732,0.515075 -0.155813,0.833208 0.287761,0.317973 0.446273,0.29319 0.855292,-0.133734 z M 26.0944,38.683174 c 0.323374,-0.254371 0.260482,-0.352897 -0.08554,-0.133983 -0.113241,0.07165 -0.275854,0.06696 -0.423836,-0.01225 -0.283765,-0.151865 -0.406347,-0.06883 -0.301545,0.204274 0.103161,0.268812 0.424629,0.245798 0.810921,-0.05805 z m 0.168037,-0.44798 c 0.284533,-0.147127 0.374888,-0.282765 0.374888,-0.562702 0,-0.202867 0.09234,-0.461201 0.205237,-0.574075 0.185394,-0.185412 0.419312,-0.900681 0.427038,-1.305901 0.0048,-0.254222 -1.054074,-0.198869 -1.409277,0.07367 -0.166661,0.127873 -0.4005,0.268031 -0.519641,0.311465 -0.251064,0.09152 -0.726917,0.971872 -0.646774,1.196586 0.04114,0.115419 0.13028,0.117652 0.368247,0.0092 0.254476,-0.115957 0.353404,-0.103571 0.522367,0.06539 0.167904,0.167894 0.181001,0.26866 0.06734,0.518104 -0.224525,0.492792 -0.0077,0.588008 0.610579,0.268232 z m -1.721644,-1.003832 c 0,-0.331599 -0.03704,-0.401754 -0.158829,-0.300693 -0.08734,0.0725 -0.15883,0.294555 -0.15883,0.493456 0,0.237109 0.05472,0.340653 0.15883,0.300693 0.08736,-0.03352 0.158829,-0.255577 0.158829,-0.493456 z m 3.307636,-0.994129 c 0.07218,-0.289658 0.04554,-0.349422 -0.155734,-0.349422 -0.190817,0 -0.272045,0.142647 -0.379227,0.665935 -0.184018,0.898337 -0.05773,1.196205 0.228229,0.538305 0.120809,-0.277968 0.258842,-0.662638 0.306732,-0.854818 z m -1.115801,-0.803881 c 0.328798,-0.06743 0.391927,-0.434975 0.07469,-0.434975 -0.116152,0 -0.516917,0.09637 -0.890561,0.214156 -1.087782,0.342887 -0.523716,0.495546 0.815869,0.220819 z m 1.048253,0.02529 c 0,-0.02638 -0.08578,-0.119152 -0.19058,-0.20615 -0.156104,-0.129548 -0.190606,-0.120864 -0.190606,0.04797 0,0.113382 0.08578,0.20615 0.190606,0.20615 0.104802,0 0.19058,-0.02159 0.19058,-0.04797 z m 0.81145,-0.445182 0.350732,-0.366097 -0.342053,-0.342061 -0.342054,-0.342058 -0.366104,0.350742 c -0.436165,0.417877 -0.438097,0.432109 -0.107024,0.787485 0.332687,0.357094 0.385604,0.351319 0.806503,-0.08801 z m 1.348608,-0.274143 0.317659,-0.253402 -0.324353,0.116485 c -0.195712,0.07028 -0.406506,0.0705 -0.531548,5.29e-4 -0.22733,-0.12723 -0.420687,0.05315 -0.287655,0.268378 0.124037,0.2007 0.480192,0.14378 0.825897,-0.13199 z m 0.259186,-0.505902 c 0.389228,-0.198575 0.503184,-0.330711 0.503184,-0.583504 0,-0.179737 0.114353,-0.472176 0.254133,-0.649862 0.154569,-0.196503 0.254105,-0.515464 0.254105,-0.814178 0,-0.47793 -0.01217,-0.491112 -0.451299,-0.491112 -0.248232,0 -0.662755,0.111519 -0.9212,0.247825 -0.258445,0.136302 -0.567373,0.276463 -0.686514,0.311462 -0.250296,0.07354 -0.728134,0.952876 -0.644922,1.186799 0.0413,0.116115 0.12184,0.122648 0.304826,0.02471 0.136763,-0.0732 0.367215,-0.09545 0.512128,-0.04946 0.227092,0.07207 0.252544,0.152051 0.184308,0.578818 -0.092,0.575207 -0.01852,0.600565 0.691251,0.238488 z m -1.87923,-0.750409 c -0.01746,-0.154143 0.03376,-0.40514 0.113798,-0.557773 0.144488,-0.2755 0.143562,-0.275757 -0.12708,-0.03546 -0.298741,0.265253 -0.392165,1.028637 -0.113771,0.929855 0.08734,-0.031 0.144542,-0.182478 0.127053,-0.336622 z m 3.163544,-0.104677 c 0.07675,-0.192183 0.215556,-0.592426 0.308425,-0.889434 0.158829,-0.507801 0.154199,-0.540014 -0.07763,-0.540014 -0.189627,0 -0.26543,0.118025 -0.328269,0.511064 -0.04495,0.281085 -0.123719,0.537022 -0.175075,0.568748 -0.09266,0.05727 -0.01826,0.699056 0.08115,0.699056 0.02852,0 0.114671,-0.15724 0.1914,-0.34942 z m -1.069393,-1.810633 c 0.264319,0 0.451564,-0.07365 0.498528,-0.196073 0.128825,-0.335706 -0.05493,-0.360971 -0.857674,-0.117919 -0.69424,0.210196 -0.751998,0.252606 -0.547661,0.402026 0.152877,0.111776 0.270643,0.124847 0.355971,0.03951 0.07017,-0.07015 0.318029,-0.127539 0.550836,-0.127539 z m 1.305904,-0.189193 c -0.158697,-0.191228 -0.382323,-0.150501 -0.382323,0.06963 0,0.06576 0.121338,0.119563 0.269663,0.119563 0.22442,0 0.243337,-0.03175 0.11266,-0.189193 z m 0.807614,-0.201216 c 0.409998,-0.322495 0.41365,-0.400857 0.03757,-0.806643 l -0.297233,-0.320712 -0.338085,0.352883 c -0.39579,0.413131 -0.408781,0.494966 -0.127793,0.805455 0.265086,0.29292 0.316573,0.290721 0.72554,-0.03098 z m 1.443672,-0.371962 c 0.34798,-0.273714 0.29718,-0.335542 -0.100726,-0.122592 -0.17063,0.09132 -0.32348,0.08995 -0.499904,-0.0045 -0.215424,-0.115295 -0.254132,-0.09663 -0.254132,0.122592 0,0.340402 0.424867,0.342625 0.854762,0.0045 z m 0.303266,-0.531646 c 0.271595,-0.152635 0.493792,-0.36255 0.493792,-0.466476 0,-0.103926 0.09409,-0.292941 0.209126,-0.420034 0.115015,-0.12709 0.237093,-0.522205 0.271278,-0.87803 l 0.06215,-0.646957 -0.620686,0.08943 c -0.341392,0.04919 -0.710988,0.168206 -0.821319,0.264483 -0.110332,0.09628 -0.348668,0.175051 -0.529643,0.175051 -0.239448,0 -0.404442,0.121975 -0.605896,0.447942 -0.327792,0.530373 -0.264134,0.906039 0.118824,0.701096 0.31922,-0.170852 0.336894,-0.168916 0.568167,0.06235 0.142134,0.14215 0.163988,0.276151 0.0807,0.495181 -0.200845,0.528277 0.04654,0.584551 0.77351,0.175963 z M 32.319464,29.54639 c -0.02567,-0.111252 0.03379,-0.373811 0.131974,-0.583464 l 0.178541,-0.381186 -0.323453,0.381186 c -0.366395,0.431786 -0.482071,1.235188 -0.136552,0.948444 0.107818,-0.08949 0.175101,-0.253728 0.14949,-0.36498 z m 3.547533,-0.894207 c 0.06077,-0.303869 0.03334,-0.388096 -0.126444,-0.388096 -0.119777,0 -0.234924,0.144314 -0.278792,0.349419 -0.04112,0.19218 -0.115914,0.463775 -0.166211,0.603544 -0.0503,0.139769 -0.06691,0.397068 -0.03691,0.571778 0.0503,0.292973 0.07303,0.276233 0.292629,-0.215448 0.130968,-0.293206 0.273023,-0.707744 0.315728,-0.921197 z M 35.0234,27.476621 c 0,-0.280765 0.07493,-0.28429 -0.971339,0.04567 -0.725805,0.228899 -0.819017,0.287896 -0.559011,0.35382 0.171608,0.04352 0.586131,0.02296 0.921199,-0.04567 0.456063,-0.09342 0.609151,-0.182354 0.609151,-0.353822 z m 0.644842,0.244274 c -0.01561,-0.151927 -0.189997,-0.122505 -0.244581,0.0413 -0.02797,0.08386 0.01773,0.129603 0.101653,0.10165 0.08385,-0.02795 0.148167,-0.09228 0.142928,-0.142946 z m 1.016688,-0.41909 0.341286,-0.326969 -0.308345,-0.30834 c -0.38362,-0.383625 -0.436431,-0.383043 -0.804598,0.0089 -0.267865,0.285142 -0.280776,0.349346 -0.127741,0.63531 0.216799,0.405085 0.469953,0.402592 0.899398,-0.0089 z m 1.405652,-0.315513 0.299958,-0.261297 -0.297709,0.145039 c -0.163751,0.07977 -0.429393,0.111996 -0.590312,0.07161 -0.193913,-0.04867 -0.317103,-0.0095 -0.365363,0.116258 -0.112819,0.294055 0.594651,0.240916 0.953426,-0.07161 z m 0.724614,-0.947488 c 0.0254,-0.138835 0.132927,-0.350166 0.238813,-0.469628 0.105886,-0.119462 0.221774,-0.476824 0.257519,-0.794136 l 0.06503,-0.576937 -0.492999,7.93e-4 c -0.27805,5.3e-4 -0.659209,0.110908 -0.874209,0.253286 -0.20963,0.138848 -0.527818,0.252828 -0.707073,0.253288 -0.248126,5.29e-4 -0.377454,0.109001 -0.542105,0.454279 -0.265615,0.557009 -0.210026,0.664459 0.304721,0.588912 0.482388,-0.0708 0.638889,0.12432 0.496861,0.619501 -0.06866,0.23943 -0.05366,0.375462 0.04553,0.412583 0.24384,0.09128 1.158081,-0.47031 1.207902,-0.741986 z M 36.4136,25.835884 c -0.088,-0.164428 -0.0848,-0.3302 0.01032,-0.525989 0.13642,-0.281178 0.134409,-0.280948 -0.122581,0.01408 -0.349964,0.401767 -0.356288,0.908174 -0.01032,0.817668 0.202221,-0.05288 0.226087,-0.112395 0.122608,-0.305758 z m 3.519381,-0.995561 c 0.05927,-0.296399 0.03204,-0.388096 -0.115279,-0.388096 -0.218307,0 -0.347133,0.260411 -0.347133,0.701736 0,0.16487 -0.0495,0.330361 -0.110014,0.36776 -0.06051,0.0374 -0.07916,0.2266 -0.04146,0.420449 0.06784,0.348716 0.07107,0.3468 0.302419,-0.180649 0.128614,-0.293206 0.268764,-0.707745 0.311467,-0.9212 z m -1.065953,-0.850657 c 0.257942,-0.07286 0.303398,-0.426873 0.05482,-0.426873 -0.398357,0 -1.485715,0.403103 -1.411447,0.523256 0.07371,0.119287 0.767689,0.06999 1.356625,-0.09638 z m 0.960385,-0.05522 c -0.02514,-0.07513 -0.09985,-0.136592 -0.166238,-0.136592 -0.06638,0 -0.141208,0.06147 -0.166238,0.136592 -0.02513,0.07512 0.04977,0.136591 0.166238,0.136591 0.116469,0 0.191267,-0.06147 0.166238,-0.136591 z m 0.835077,-0.355825 0.350044,-0.365355 -0.30398,-0.327986 -0.303953,-0.327983 -0.41902,0.382717 -0.419021,0.382718 0.291809,0.31062 c 0.160496,0.170842 0.328321,0.310624 0.372957,0.310624 0.04464,0 0.238654,-0.16441 0.431164,-0.365355 z m 1.42494,-0.288444 c 0.240745,-0.271153 0.240507,-0.271809 -0.04384,-0.122592 -0.199734,0.104815 -0.358643,0.111086 -0.527315,0.02082 -0.17981,-0.09623 -0.258656,-0.08432 -0.308901,0.04664 -0.158697,0.413544 0.523849,0.456308 0.880057,0.05514 z m 0.184812,-0.429493 c 0.22696,-0.117356 0.374888,-0.29488 0.374888,-0.44986 0,-0.140803 0.111866,-0.41093 0.248576,-0.600281 0.13671,-0.189352 0.265351,-0.572987 0.285882,-0.852525 l 0.03731,-0.508246 -0.556181,0.03589 c -0.305911,0.01974 -0.675984,0.1198 -0.822404,0.222358 -0.146421,0.102558 -0.368697,0.186468 -0.493951,0.186468 -0.231669,0 -0.730885,0.682643 -0.731758,1.000612 0,0.123595 0.103531,0.153913 0.354938,0.103629 0.481727,-0.09635 0.688711,0.06024 0.659025,0.498568 -0.04416,0.651383 0.01852,0.686718 0.643678,0.363386 z m -1.836261,-0.837112 c 0.0069,-0.171159 0.08176,-0.45234 0.166502,-0.624845 0.146103,-0.297445 0.137239,-0.29523 -0.171265,0.04286 -0.178937,0.196081 -0.325331,0.501029 -0.325331,0.677665 0,0.418816 0.31316,0.328048 0.330094,-0.09568 z m 3.294591,-0.672002 c 0.204179,-0.687552 0.193331,-0.754351 -0.104007,-0.640255 -0.185844,0.07132 -0.47678,1.039982 -0.467149,1.555343 0.0069,0.36563 0.357823,-0.19671 0.571156,-0.915088 z m -1.232455,-1.092391 c 0.339434,0 0.646297,-0.307445 0.476408,-0.477329 -0.03289,-0.03288 -0.477361,0.06998 -0.987716,0.228558 -0.788326,0.244946 -0.880162,0.301471 -0.610287,0.375663 0.174704,0.04804 0.41394,0.03913 0.531653,-0.01976 0.117687,-0.05891 0.38317,-0.107114 0.589942,-0.107114 z m 1.292569,-0.04797 c 0,-0.02638 -0.08578,-0.119152 -0.190606,-0.20615 -0.156078,-0.129548 -0.19058,-0.120867 -0.19058,0.04797 0,0.113384 0.08578,0.206152 0.19058,0.206152 0.104828,0 0.190606,-0.02159 0.190606,-0.04797 z m 0.822298,-0.45652 c 0.320649,-0.334666 0.336524,-0.387059 0.140203,-0.462391 -0.121761,-0.04673 -0.262811,-0.196911 -0.313426,-0.333737 -0.08795,-0.237713 -0.110066,-0.233598 -0.497601,0.0925 -0.461248,0.388112 -0.491834,0.52103 -0.195316,0.848696 0.28919,0.319537 0.44622,0.293235 0.86614,-0.145068 z m 1.413351,-0.276368 c 0.240613,-0.270994 0.240374,-0.271729 -0.04122,-0.123986 -0.155813,0.08175 -0.419655,0.1144 -0.586316,0.07257 -0.209471,-0.05257 -0.326761,-0.01429 -0.37981,0.123987 -0.124433,0.324273 0.708263,0.264287 1.007348,-0.07257 z m 0.09774,-0.377952 c 0.207618,-0.0946 0.339142,-0.28517 0.392271,-0.568325 0.04395,-0.234304 0.158062,-0.470445 0.25355,-0.524756 0.09549,-0.05431 0.214048,-0.370345 0.263446,-0.702297 l 0.0898,-0.603543 h -0.510937 c -0.676116,0 -1.763368,0.567401 -2.013267,1.050644 -0.233892,0.452292 -0.160629,0.541145 0.405897,0.492337 0.51226,-0.04414 0.677519,0.204891 0.457094,0.688705 -0.122978,0.269867 -0.10959,0.309552 0.104378,0.309552 0.134964,0 0.385975,-0.06404 0.557768,-0.142317 z m -1.769984,-0.798811 c -0.04223,-0.168201 -0.0063,-0.439796 0.07959,-0.603544 0.155919,-0.296868 0.155575,-0.297029 -0.116258,-0.05567 -0.321839,0.285771 -0.377878,0.965035 -0.07959,0.965035 0.140441,0 0.172112,-0.0833 0.116258,-0.305818 z m 3.168042,-0.510953 c 0.262969,-0.793692 0.260667,-0.835033 -0.04665,-0.835033 -0.184547,0 -0.254133,0.08471 -0.254133,0.309383 0,0.170161 -0.05556,0.455554 -0.123481,0.634206 -0.129275,0.33999 -0.0377,0.800836 0.123481,0.621461 0.0513,-0.05711 0.186664,-0.385617 0.300779,-0.730017 z m -1.158452,-1.274413 c 0.357585,-0.06032 0.476488,-0.141367 0.476488,-0.32476 0,-0.137912 -0.06919,-0.222229 -0.158829,-0.193535 -0.08734,0.02796 -0.501888,0.147643 -0.9212,0.265954 -0.612325,0.172775 -0.712364,0.235005 -0.508238,0.316201 0.139753,0.0556 0.339884,0.08206 0.444712,0.05881 0.104828,-0.02326 0.405024,-0.07846 0.667067,-0.12267 z m 1.209755,-0.09269 c -0.07856,-0.235601 -0.352082,-0.274677 -0.352082,-0.05029 0,0.110648 0.09054,0.201181 0.20119,0.201181 0.110648,0 0.17854,-0.0679 0.150892,-0.150887 z m 0.840554,-0.34227 0.350732,-0.366096 -0.344514,-0.344519 -0.344514,-0.344519 -0.389255,0.389263 -0.389255,0.38926 0.30189,0.321352 c 0.166052,0.176744 0.338402,0.321352 0.383037,0.321352 0.04463,0 0.238972,-0.164742 0.431879,-0.366093 z m 1.493362,-0.403452 0.299958,-0.261298 -0.300117,0.146328 c -0.165074,0.08048 -0.433811,0.120772 -0.597191,0.08954 -0.176451,-0.03373 -0.323797,0.01294 -0.362956,0.114972 -0.10623,0.276818 0.617167,0.209365 0.960306,-0.08954 z m -1.736276,-1.146631 c -0.0409,-0.128852 -0.0056,-0.365087 0.07824,-0.524965 0.151923,-0.28943 0.151394,-0.289642 -0.120042,-0.04864 -0.325358,0.288899 -0.38854,1.001551 -0.07821,0.88247 0.120915,-0.04641 0.166265,-0.16311 0.120015,-0.308867 z" />
    <path
       style="fill:#ff0000;stroke:#000000;stroke-width:0.00192705"
       d="m 182.70175,52.096406 c -0.42296,0.265644 -0.77269,0.644105 -1.11431,1.006995 -0.53231,0.717069 -0.83518,1.646248 -0.70329,2.540817 0.0547,0.255755 0.26715,0.581614 0.57172,0.484323 0.48964,-0.05967 0.7846,-0.604726 0.64933,-1.061461 -0.16485,-0.679403 -0.0805,-1.423726 0.24351,-2.048323 0.12348,-0.302317 0.30839,-0.589096 0.39023,-0.903833 -0.006,-0.01485 -0.0226,-0.021 -0.0372,-0.01852 z"
       id="path2382"
       transform="scale(0.26458333)"
       class="OC" />
    <path
       style="fill:#ff0000;stroke:#000000;stroke-width:0.00192705"
       d="m 180.23061,58.243408 c -0.47843,0.500975 -1.00389,0.967167 -1.43362,1.509651 0.30766,0.408539 0.70608,0.76165 1.05599,1.14093 0.44812,0.433108 0.86043,0.933308 1.41334,1.236423 0.20536,0.08438 0.37494,-0.155689 0.53371,-0.247431 0.90414,-0.750165 1.6812,-1.636584 2.50186,-2.473705 -0.24818,-0.333812 -0.6082,-0.620777 -0.89948,-0.936531 -0.56045,-0.560643 -1.1209,-1.121286 -1.68135,-1.68193 -0.32512,0.237788 -0.60284,0.590046 -0.90968,0.871973 -0.19359,0.19354 -0.38718,0.38708 -0.58077,0.58062 z"
       id="path2383"
       transform="scale(0.26458333)"
       class="OC" />
    <path
       style="fill:#ff0000;stroke:#000000;stroke-width:0.00192705"
       d="m 189.48679,58.414961 c -0.74192,0.316545 -1.47359,0.742792 -2.30268,0.745679 -0.6027,0.0395 -1.23182,-0.13817 -1.81685,0.06 -0.27428,0.120335 -0.55686,0.49949 -0.32978,0.780833 0.3538,0.349816 0.90873,0.271623 1.35856,0.215019 0.92712,-0.152872 1.82793,-0.540161 2.50894,-1.19898 0.20057,-0.193731 0.45833,-0.355497 0.61471,-0.581845 -0.004,-0.01643 -0.0192,-0.02274 -0.0329,-0.0207 z"
       id="path2384"
       transform="scale(0.26458333)"
       class="OC" />
    <path
       style="fill:#ff0000;stroke:#000000;stroke-width:0.00192705"
       d="m 178.90312,61.333319 c -0.29525,-0.02936 -0.43052,0.308893 -0.44442,0.550189 0.0265,0.452659 0.46404,0.870331 0.93153,0.750723 0.24597,-0.03131 0.50108,-0.237867 0.42117,-0.510745 -0.11708,-0.384061 -0.45664,-0.839872 -0.90828,-0.790167 z"
       id="path2385"
       transform="scale(0.26458333)"
       class="OC" />
    <path
       style="fill:#ff0000;stroke:#000000;stroke-width:0.00192705"
       d="m 176.53902,60.451014 c -1.62375,0.422967 -3.23184,0.912712 -4.84084,1.390822 -0.34176,0.12722 -0.73985,0.203933 -1.00197,0.4727 -0.0937,0.190922 0.19132,0.281166 0.31879,0.341675 0.68114,0.293702 1.44925,0.325681 2.16507,0.147164 1.00361,-0.213825 2.03421,-0.317153 3.02059,-0.607624 0.42618,-0.127878 0.85507,-0.470339 0.83736,-0.956 -0.004,-0.277636 -0.0636,-0.649719 -0.34747,-0.773531 -0.0493,-0.01302 -0.10069,-0.01784 -0.15153,-0.01521 z"
       id="path2386"
       transform="scale(0.26458333)"
       class="OC" />
    <path
       style="fill:#ff0000;stroke:#000000;stroke-width:0.00192705"
       d="m 179.4159,64.088329 c -0.39654,-0.04297 -0.81068,0.20616 -0.88825,0.612216 -0.11703,0.493918 -0.0404,1.010241 -0.16142,1.503377 -0.0918,0.677252 -0.34616,1.311405 -0.51282,1.969687 -0.0859,0.546384 -0.12733,1.130466 0.0461,1.663589 0.0704,0.14391 0.22747,0.422383 0.41861,0.285972 0.29973,-0.197221 0.39057,-0.586412 0.5505,-0.888455 0.54056,-1.310113 0.99518,-2.657474 1.36871,-4.024368 0.0609,-0.315823 0.17607,-0.698455 -0.0245,-0.98449 -0.21422,-0.179529 -0.53989,-0.121477 -0.79687,-0.137528 z"
       id="path2387"
       transform="scale(0.26458333)"
       class="OC" />
    <path
       style="fill:#ff6600;fill-opacity:1;stroke:#000000;stroke-width:0.0101374;stroke-opacity:0"
       d="m 167.3569,71.067886 c -0.98832,0.803457 -2.36465,1.569756 -2.69552,2.88203 0.18323,0.942493 1.09547,1.974998 2.10786,1.967288 1.26998,-0.384698 2.00693,-1.653751 2.98103,-2.467426 -0.71437,-0.578002 -1.59402,-1.230271 -2.06351,-2.141921 -0.0897,-0.09085 -0.17976,-0.25475 -0.32986,-0.239971 z"
       id="path1"
       transform="scale(0.26458333)"
       class="OR" />
    <path
       style="fill:#ff6600;fill-opacity:1;stroke:#000000;stroke-width:0.0101374;stroke-opacity:0"
       d="m 162.29137,74.754175 c -2.08623,0.435831 -4.2635,0.88139 -6.1557,1.877002 -0.16515,0.676338 1.05824,0.346596 1.42637,0.388468 1.54768,-0.259976 3.35357,-0.185744 4.65726,-1.14798 0.22257,-0.223602 0.67269,-1.094566 0.0721,-1.11749 z"
       id="path2"
       transform="scale(0.26458333)"
       class="OR" />
    <path
       style="fill:#ff6600;fill-opacity:1;stroke:#000000;stroke-width:0.0101374;stroke-opacity:0"
       d="m 174.00758,73.095365 c -1.1491,0.60402 -2.67014,-0.117633 -3.72391,0.652991 -0.60648,0.750448 0.70081,1.084725 1.245,0.912761 0.98347,-0.150322 2.16222,-0.519655 2.62147,-1.471506 -0.009,-0.06879 -0.081,-0.103634 -0.14256,-0.09425 z"
       id="path3"
       transform="scale(0.26458333)"
       class="OR" />
    <path
       style="fill:#ff6600;fill-opacity:1;stroke:#000000;stroke-width:0.0101374;stroke-opacity:0"
       d="m 167.2187,67.093315 c -0.64286,0.771275 -1.21492,2.391224 -0.26255,3.118832 0.92495,0.277403 0.69864,-1.081043 0.72031,-1.590699 -0.0933,-0.694037 0.29788,-1.577307 0.0562,-2.086482 -0.17133,0.186116 -0.34266,0.372233 -0.51399,0.558349 z"
       id="path4"
       transform="scale(0.26458333)"
       class="OR" />
    <path
       style="fill:#ff6600;fill-opacity:1;stroke:#000000;stroke-width:0.0101374;stroke-opacity:0"
       d="m 165.46366,78.150202 c -1.3731,0.249394 -1.47368,2.003157 -1.87819,3.06973 -0.15904,0.992923 -0.58682,2.139763 -0.22136,3.107745 0.67153,-0.04759 0.81896,-1.107614 1.14758,-1.597431 0.47942,-1.445335 1.20839,-2.916693 1.29807,-4.434319 -0.0683,-0.119294 -0.21847,-0.153967 -0.3461,-0.145725 z"
       id="path5"
       transform="scale(0.26458333)"
       class="OR" />
    <path
       style="fill:#ff6600;fill-opacity:1;stroke:#000000;stroke-width:0.00387499;stroke-opacity:0"
       d="m 164.25432,75.260247 c -0.37481,0.129731 -0.26431,0.705536 -0.10974,0.978435 0.26109,0.433558 0.89427,0.425612 1.30781,0.265347 0.18705,-0.326575 -0.32192,-0.565019 -0.48531,-0.788236 -0.21152,-0.169143 -0.42209,-0.437887 -0.71276,-0.455546 z"
       id="path6"
       transform="scale(0.26458333)"
       class="OR" />
    <path
       style="fill:#ffff00;fill-opacity:1;stroke:#000000;stroke-width:0.00341821;stroke-opacity:0"
       d="m 153.68791,80.102669 c -0.94045,0.757311 -1.70781,1.790129 -2.07069,2.952478 -0.15347,0.51848 -0.20625,1.319005 0.374,1.588934 0.52244,0.08627 0.78305,-0.559063 0.84227,-0.981 0.11049,-1.125104 0.39534,-2.230504 0.90756,-3.247699 0.0515,-0.09372 0.15167,-0.328419 -0.0531,-0.312713 z"
       id="path7"
       transform="scale(0.26458333)"
       class="T" />
    <path
       style="fill:#ffff00;fill-opacity:1;stroke:#000000;stroke-width:0.00341821;stroke-opacity:0"
       d="m 152.73241,85.288333 c -0.54928,0.2413 -0.92935,0.769057 -1.39662,1.136411 -0.59719,0.579037 -1.27775,1.100497 -1.8221,1.716325 0.64549,0.837 1.43649,1.572816 2.23278,2.270172 0.344,0.339844 0.71653,-0.10682 0.98728,-0.311244 0.82522,-0.739289 1.62897,-1.537725 2.3177,-2.391679 -0.72414,-0.815655 -1.46872,-1.642566 -2.24266,-2.410104 -0.0243,-0.0091 -0.0506,-0.01169 -0.0764,-0.0099 z"
       id="path8"
       transform="scale(0.26458333)"
       class="T" />
    <path
       style="fill:#ffff00;fill-opacity:1;stroke:#000000;stroke-width:0.00341821;stroke-opacity:0"
       d="m 159.5484,87.224962 c -0.7068,0.249673 -1.39676,0.754256 -2.18725,0.505388 -0.45269,-0.07856 -0.90592,-0.532004 -1.36956,-0.308707 -0.53513,0.375665 -0.53214,1.393287 0.16384,1.596277 1.2463,0.360336 2.54303,-0.330449 3.28722,-1.319616 0.0733,-0.116001 0.41746,-0.41929 0.10575,-0.473342 z"
       id="path9"
       transform="scale(0.26458333)"
       class="T" />
    <path
       style="fill:#ffff00;fill-opacity:1;stroke:#000000;stroke-width:0.00341821;stroke-opacity:0"
       d="m 149.87674,89.888228 c -0.43379,0.01804 -0.92254,0.635304 -0.51594,0.986474 0.35578,0.212108 1.03528,0.248692 1.22014,-0.204825 0.0967,-0.38171 -0.34135,-0.788468 -0.7042,-0.781649 z"
       id="path10"
       transform="scale(0.26458333)"
       class="T" />
    <path
       style="fill:#ffff00;fill-opacity:1;stroke:#000000;stroke-width:0.00341821;stroke-opacity:0"
       d="m 147.00998,89.003633 c -1.54752,0.159139 -3.04893,0.673068 -4.45907,1.315363 -0.28706,0.188423 -0.78163,0.312298 -0.82099,0.70365 0.22639,0.367761 0.78113,0.284998 1.15444,0.313915 1.4117,-0.06795 2.85071,-0.205402 4.19145,-0.673628 0.55607,-0.221282 0.99058,-1.092539 0.44664,-1.535791 -0.14473,-0.114596 -0.33457,-0.131336 -0.51247,-0.123509 z"
       id="path11"
       transform="scale(0.26458333)"
       class="T" />
    <path
       style="fill:#ffff00;fill-opacity:1;stroke:#000000;stroke-width:0.00341821;stroke-opacity:0"
       d="m 150.48454,92.368967 c -0.79773,-0.0033 -1.1545,0.892425 -1.26262,1.554752 -0.19259,0.811356 0.019,1.754719 -0.47439,2.473394 -0.38536,0.494278 -0.25325,1.193389 -0.18133,1.772529 0.0937,0.265016 0.0547,0.633871 0.27266,0.826913 0.33651,-0.03395 0.408,-0.501156 0.57616,-0.737032 0.72297,-1.623299 1.44717,-3.296206 1.65902,-5.07526 0.0584,-0.34451 -0.0612,-0.862458 -0.50699,-0.81543 -0.0274,0.0036 -0.055,-9.56e-4 -0.0825,1.34e-4 z"
       id="path12"
       transform="scale(0.26458333)"
       class="T" />
    <path
       style="fill:#00ff00;fill-opacity:1;stroke:#000000;stroke-width:0.00341821;stroke-opacity:0"
       d="m 137.78709,95.015676 c -0.80935,0.74371 -1.53936,1.722614 -1.64635,2.853671 -0.0719,0.452992 0.18139,1.04436 0.71542,1.011309 0.417,0.02017 1.13047,-0.169921 1.01866,-0.720494 -0.17559,-0.618204 -0.56999,-1.232768 -0.34062,-1.892967 0.086,-0.405676 0.32612,-0.769213 0.39082,-1.176345 -0.0182,-0.0592 -0.0784,-0.09773 -0.13793,-0.07517 z"
       id="path13"
       transform="scale(0.26458333)"
       class="IR" />
    <path
       style="fill:#00ff00;fill-opacity:1;stroke:#000000;stroke-width:0.00341821;stroke-opacity:0"
       d="m 137.21174,99.644145 c -0.71752,0.148336 -1.16884,0.828525 -1.67069,1.306295 -0.39085,0.44186 -0.94514,1.042 -0.62275,1.67407 0.30506,0.74944 0.76064,1.71436 1.67816,1.79645 0.93032,-0.0196 1.60733,-0.79773 2.2674,-1.35853 0.37042,-0.38059 0.81438,-0.71488 1.12864,-1.13329 -0.7159,-0.73907 -1.43499,-1.51914 -2.28219,-2.120894 -0.14989,-0.09093 -0.3186,-0.173342 -0.49857,-0.164101 z"
       id="path14"
       transform="scale(0.26458333)"
       class="IR" />
    <path
       style="fill:#00ff00;fill-opacity:1;stroke:#000000;stroke-width:0.00341821;stroke-opacity:0"
       d="m 144.57998,101.2447 c -0.84996,0.33179 -1.74282,0.71312 -2.67542,0.53316 -0.53699,-0.10207 -1.31944,-0.20524 -1.57304,0.4238 -0.29941,0.42123 0.26585,0.89644 0.68685,0.82798 1.24293,0.0745 2.46706,-0.44188 3.3494,-1.30725 0.0893,-0.10585 0.56135,-0.38956 0.21221,-0.47769 z"
       id="path15"
       transform="scale(0.26458333)"
       class="IR" />
    <path
       style="fill:#00ff00;fill-opacity:1;stroke:#000000;stroke-width:0.00341821;stroke-opacity:0"
       d="m 135.11795,106.7611 c -0.78376,0.0599 -1.01912,0.94882 -1.19683,1.57403 -0.20964,0.90168 -0.53874,1.77467 -0.71029,2.68418 -0.0686,0.78668 -0.14611,1.66467 0.23746,2.37717 0.30973,-0.0736 0.4385,-0.50787 0.5969,-0.77923 0.72743,-1.63016 1.45563,-3.30759 1.68844,-5.09106 0.0632,-0.38317 -0.19436,-0.79803 -0.61568,-0.76509 z"
       id="path16"
       transform="scale(0.26458333)"
       class="IR" />
    <path
       style="fill:#00ff00;fill-opacity:1;stroke:#000000;stroke-width:0.00341821;stroke-opacity:0"
       d="m 134.42069,104.36488 c -0.39973,0.0325 -0.75027,0.57472 -0.55359,0.93373 0.355,0.2264 0.9177,-0.0935 0.99408,-0.48896 0.0435,-0.25449 -0.1944,-0.46784 -0.44049,-0.44477 z"
       id="path17"
       transform="scale(0.26458333)"
       class="IR" />
    <path
       style="fill:#00ff00;fill-opacity:1;stroke:#000000;stroke-width:0.00341821;stroke-opacity:0"
       d="m 132.0469,103.01415 c -1.3637,0.22702 -2.66048,0.75312 -3.98197,1.14814 -0.66665,0.26831 -1.43826,0.38682 -2.00657,0.84444 -0.14568,0.32234 0.36303,0.35676 0.56574,0.42073 1.38171,0.17083 2.79538,-0.0193 4.14324,-0.33955 0.55106,-0.18593 1.26675,-0.30526 1.56958,-0.85963 0.0721,-0.36105 0.17484,-0.80428 -0.0146,-1.13722 -0.0759,-0.0614 -0.18011,-0.0794 -0.27546,-0.0769 z"
       id="path18"
       transform="scale(0.26458333)"
       class="IR" />
    <path
       style="fill:#0000ff;fill-opacity:1;stroke:#000000;stroke-width:0.00341821;stroke-opacity:0"
       d="m 116.22834,117.4681 c -1.52293,0.16189 -2.98272,0.68826 -4.42138,1.1889 -0.28313,0.11938 -0.84976,0.33266 -0.64879,0.73211 0.31928,0.35343 0.79321,0.65218 1.27929,0.67416 0.47099,-0.14285 0.86619,-0.51526 1.37359,-0.55138 0.92332,-0.21901 1.99619,0.0103 2.80464,-0.57622 0.31852,-0.32318 0.61722,-0.94877 0.26544,-1.34085 -0.18514,-0.13547 -0.43454,-0.13176 -0.65279,-0.12672 z"
       id="path19"
       transform="scale(0.26458333)"
       class="IC" />
    <path
       style="fill:#0000ff;fill-opacity:1;stroke:#000000;stroke-width:0.00341821;stroke-opacity:0"
       d="m 121.89135,113.54651 c -0.79885,0.90051 -1.75068,1.69497 -2.37793,2.7323 -0.3214,0.79534 0.41432,1.45691 0.89581,1.9883 0.32622,0.34384 0.83837,0.75792 1.32523,0.45692 0.86992,-0.49286 1.71634,-1.1067 2.31664,-1.91487 0.36199,-0.51496 -0.10763,-1.101 -0.42755,-1.5004 -0.54522,-0.60349 -1.06823,-1.2563 -1.66584,-1.79323 l -0.062,0.0289 z"
       id="path20"
       transform="scale(0.26458333)"
       class="IC" />
    <path
       style="fill:#0000ff;fill-opacity:1;stroke:#000000;stroke-width:0.00341821;stroke-opacity:0"
       d="m 122.99626,108.42721 c -0.50287,0.37759 -0.86475,0.93983 -1.25708,1.43294 -0.57179,0.89822 -1.04223,1.95733 -0.97611,3.04264 -0.006,0.33656 0.38177,0.53224 0.64452,0.31752 0.59732,-0.33214 0.88352,-1.01979 0.82358,-1.68413 -0.047,-1.07149 0.51252,-2.00685 0.87818,-2.97732 0.016,-0.0674 -0.0418,-0.14049 -0.11309,-0.13165 z"
       id="path21"
       transform="scale(0.26458333)"
       class="IC" />
    <path
       style="fill:#0000ff;fill-opacity:1;stroke:#000000;stroke-width:0.00341821;stroke-opacity:0"
       d="m 129.14169,115.44495 c -0.78555,0.1517 -1.45384,0.83908 -2.2938,0.64786 -0.52617,-0.006 -0.951,-0.46351 -1.46877,-0.43609 -0.37693,0.21837 -0.27946,0.78046 -0.21363,1.14243 0.2292,0.72844 1.18091,0.7389 1.77546,0.49898 0.89512,-0.33589 1.7245,-0.89641 2.35323,-1.61564 0.0848,-0.11609 -0.011,-0.26515 -0.15249,-0.23754 z"
       id="path22"
       transform="scale(0.26458333)"
       class="IC" />
    <path
       style="fill:#0000ff;fill-opacity:1;stroke:#000000;stroke-width:0.00341821;stroke-opacity:0"
       d="m 119.06999,118.10234 c -0.51911,-0.0479 -0.84238,0.61351 -0.54317,1.00984 0.46967,0.26688 1.12047,0.39953 1.62004,0.1398 0.28828,-0.27793 -0.1782,-0.58435 -0.33617,-0.79465 -0.19241,-0.22414 -0.42874,-0.39852 -0.7407,-0.35499 z"
       id="path23"
       transform="scale(0.26458333)"
       class="IC" />
    <path
       style="fill:#0000ff;fill-opacity:1;stroke:#000000;stroke-width:0.00341821;stroke-opacity:0"
       d="m 119.89183,120.70072 c -0.47538,-0.04 -0.87413,0.29043 -1.00851,0.73264 -0.41129,1.1375 -0.40017,2.40985 -1.01745,3.4799 -0.27989,0.6117 -0.0589,1.30876 0.0247,1.9429 0.0413,0.23165 0.19959,0.79201 0.52302,0.58137 0.62045,-0.99181 0.93844,-2.14406 1.35026,-3.23273 0.30943,-1.01884 0.74368,-2.02096 0.87491,-3.08228 0.0119,-0.39896 -0.45408,-0.43337 -0.74693,-0.4218 z"
       id="path24"
       transform="scale(0.26458333)"
       class="IC" />
    <path
       style="fill:#ff00ff;fill-opacity:1;stroke:#000000;stroke-width:0.00341821;stroke-opacity:0"
       d="m 107.69283,123.64345 c -1.06778,0.7288 -1.83327,1.95854 -1.79381,3.27974 -0.0384,0.36887 0.0536,0.99286 0.52613,1.00317 0.6524,-0.20311 0.72543,-0.98471 0.6986,-1.5605 -0.0366,-0.91066 0.33175,-1.75345 0.69713,-2.56258 0.0302,-0.0812 -0.0313,-0.18845 -0.12805,-0.15983 z"
       id="path25"
       transform="scale(0.26458333)"
       class="IF" />
    <path
       style="fill:#ff00ff;fill-opacity:1;stroke:#000000;stroke-width:0.00341821;stroke-opacity:0"
       d="m 106.76564,128.35791 c -0.90452,0.78387 -1.77592,1.62184 -2.53856,2.54509 -0.40507,0.47244 0.0438,1.03455 0.3781,1.38957 0.44901,0.45842 0.84968,1.01109 1.41446,1.32911 0.73233,0.23252 1.28936,-0.48545 1.77109,-0.91475 0.55272,-0.58612 1.16432,-1.14671 1.64899,-1.77789 -0.81261,-0.87937 -1.69834,-1.70623 -2.53909,-2.56539 -0.0449,0.003 -0.092,-0.0657 -0.13499,-0.006 z"
       id="path26"
       transform="scale(0.26458333)"
       class="IF" />
    <path
       style="fill:#ff00ff;fill-opacity:1;stroke:#000000;stroke-width:0.00341821;stroke-opacity:0"
       d="m 101.21946,132.24679 c -1.44638,0.163 -2.84444,0.63018 -4.211319,1.11464 -0.426413,0.21381 -1.034369,0.31343 -1.254078,0.78206 0.03843,0.38224 0.579098,0.33006 0.854133,0.35091 1.623277,0.0192 3.249463,-0.22351 4.816624,-0.63318 0.47841,-0.22497 0.98608,-0.90651 0.56507,-1.39839 -0.19542,-0.20668 -0.50388,-0.22603 -0.77043,-0.21604 z"
       id="path27"
       transform="scale(0.26458333)"
       class="IF" />
    <path
       style="fill:#ff00ff;fill-opacity:1;stroke:#000000;stroke-width:0.00341821;stroke-opacity:0"
       d="m 103.72704,132.88743 c -0.32776,0.11296 -0.22236,0.58863 -0.17706,0.85402 0.16703,0.42339 0.64541,0.55844 1.06205,0.48389 0.23773,0.0519 0.54992,-0.16767 0.327,-0.40057 -0.32987,-0.36161 -0.7057,-0.84588 -1.21199,-0.93734 z"
       id="path28"
       transform="scale(0.26458333)"
       class="IF" />
    <path
       style="fill:#ff00ff;fill-opacity:1;stroke:#000000;stroke-width:0.00341821;stroke-opacity:0"
       d="m 104.60696,135.60451 c -0.67936,-0.032 -0.95647,0.7026 -1.1172,1.23817 -0.38059,1.39323 -0.66216,2.84177 -0.61834,4.29118 -0.0387,0.28069 0.3111,0.66279 0.53756,0.34383 0.6734,-0.834 0.98204,-1.89578 1.37769,-2.87756 0.26334,-0.85017 0.66969,-1.70652 0.64213,-2.61134 -0.056,-0.39274 -0.51907,-0.39298 -0.82184,-0.38428 z"
       id="path29"
       transform="scale(0.26458333)"
       class="IF" />
    <path
       style="fill:#ff00ff;fill-opacity:1;stroke:#000000;stroke-width:0.00341821;stroke-opacity:0"
       d="m 114.02092,130.42993 c -0.9476,0.26497 -1.97863,0.73306 -2.94246,0.25703 -0.4453,-0.2831 -1.16773,-0.0948 -1.23991,0.47655 -0.11683,0.69391 0.59615,1.26146 1.25606,1.13682 1.19854,-0.11173 2.13805,-0.97076 3.02418,-1.70136 0.068,-0.0749 -0.0173,-0.17166 -0.0979,-0.16904 z"
       id="path30"
       transform="scale(0.26458333)"
       class="IF" />
    <path
       style="fill:#808080;fill-opacity:1;stroke:#000000;stroke-width:0.00409193;stroke-opacity:0"
       d="m 77.49007,154.28276 c -0.509846,0.17853 -0.6886,0.82258 -0.797286,1.29902 -0.0084,0.59588 -0.128908,1.25091 0.112049,1.80988 0.27655,0.37212 0.733133,-0.0149 0.827016,-0.34062 0.337521,-0.75183 0.250908,-1.62069 0.214827,-2.42335 -0.02361,-0.17583 -0.160981,-0.36347 -0.356606,-0.34493 z"
       id="path31"
       transform="scale(0.26458333)"
       class="OF" />
    <path
       style="fill:#808080;fill-opacity:1;stroke:#000000;stroke-width:0.00409193;stroke-opacity:0"
       d="m 77.431089,158.12549 c -0.878319,0.9522 -1.995474,1.74073 -2.62203,2.8968 -0.237266,0.61612 0.346945,1.1507 0.68332,1.604 0.415059,0.52075 1.081947,1.04373 1.778869,0.73607 0.849263,-0.38327 1.413097,-1.19141 2.100117,-1.79397 0.213467,-0.29632 0.66076,-0.51791 0.710845,-0.88976 -0.83236,-0.8862 -1.690259,-1.78493 -2.593738,-2.58111 z"
       id="path32"
       transform="scale(0.26458333)"
       class="OF" />
    <path
       style="fill:#808080;fill-opacity:1;stroke:#000000;stroke-width:0.00409193;stroke-opacity:0"
       d="m 84.853941,159.91954 c -0.71811,0.25811 -1.444898,0.55176 -2.229243,0.49794 -0.606221,0.0772 -1.321517,-0.14385 -1.869717,0.19258 -0.520576,0.4848 0.04313,1.37359 0.637605,1.4464 1.43397,0.0145 2.562125,-1.05051 3.555341,-1.95118 0.07541,-0.0741 0.009,-0.20108 -0.09399,-0.18574 z"
       id="path33"
       transform="scale(0.26458333)"
       class="OF" />
    <path
       style="fill:#808080;fill-opacity:1;stroke:#000000;stroke-width:0.00409193;stroke-opacity:0"
       d="m 74.470516,162.51664 c -0.316792,0.24592 -0.468488,0.7357 -0.450751,1.13151 0.125957,0.49981 0.79207,0.33896 1.172752,0.36028 0.315282,0.0632 0.49257,-0.26031 0.287874,-0.49998 -0.288625,-0.35636 -0.572843,-0.81035 -0.999166,-0.99373 z"
       id="path34"
       transform="scale(0.26458333)"
       class="OF" />
    <path
       style="fill:#808080;fill-opacity:1;stroke:#000000;stroke-width:0.00409193;stroke-opacity:0"
       d="m 75.303287,165.37843 c -0.84957,0.0271 -1.077351,1.01933 -1.284322,1.67401 -0.381233,1.49678 -0.745481,3.03417 -0.719443,4.58616 -0.03179,0.30293 0.332768,0.55287 0.538504,0.2655 0.684221,-0.96936 0.969966,-2.16256 1.396791,-3.25806 0.302241,-0.97002 0.716831,-1.94143 0.931637,-2.91479 -0.195478,-0.26654 -0.539559,-0.37089 -0.863167,-0.35282 z"
       id="path35"
       transform="scale(0.26458333)"
       class="OF" />
    <path
       style="fill:#808080;fill-opacity:1;stroke:#000000;stroke-width:0.00481972;stroke-opacity:0"
       d="m 72.224027,161.91482 c -1.83064,0.26272 -3.590023,0.89454 -5.357417,1.42219 -0.220383,0.0585 -0.857118,0.27125 -0.480089,0.55352 0.964585,0.58228 2.173072,0.31306 3.232976,0.21783 1.037742,-0.22078 2.31106,-0.30522 3.006298,-1.21246 0.260484,-0.27474 0.37472,-0.93494 -0.153063,-0.97242 -0.08233,-0.0115 -0.165786,-0.0123 -0.248705,-0.009 z"
       id="path36"
       transform="scale(0.26458333)"
       class="OF" />
    <path
       style="fill:#ffffff;fill-opacity:1;stroke:#000000;stroke-width:0.0054187;stroke-opacity:0"
       d="m 92.436731,139.43128 c -0.793054,0.36906 -0.960342,1.43081 -0.941288,2.22315 -0.02661,0.38518 0.257613,1.24579 0.76518,0.8526 0.660728,-0.78335 0.528244,-1.93998 0.410213,-2.88376 -0.0326,-0.1017 -0.117021,-0.20242 -0.234105,-0.19199 z"
       id="path37"
       transform="scale(0.26458333)"
       class="P" />
    <path
       style="fill:#ffffff;fill-opacity:1;stroke:#000000;stroke-width:0.0054187;stroke-opacity:0"
       d="m 91.850622,143.72518 c -0.773734,0.74722 -1.702422,1.45404 -2.143351,2.46022 -0.181734,0.90029 0.763493,1.50006 1.285672,2.07922 0.6408,0.68306 1.584026,0.0779 2.08187,-0.45906 0.628438,-0.63653 1.389009,-1.24702 1.865492,-1.96284 -0.74858,-0.8881 -1.614815,-1.71412 -2.454255,-2.53346 -0.263776,-0.039 -0.4205,0.30367 -0.635428,0.41592 z"
       id="path38"
       transform="scale(0.26458333)"
       class="P" />
    <path
       style="fill:#ffffff;fill-opacity:1;stroke:#000000;stroke-width:0.0054187;stroke-opacity:0"
       d="m 99.242284,145.24898 c -0.734118,0.22337 -1.473323,0.78609 -2.276279,0.44514 -0.454259,-0.13171 -1.213024,-0.64713 -1.542849,-0.0694 -0.197424,0.84409 0.661702,1.76582 1.529303,1.48083 0.97694,-0.22634 1.847155,-0.89086 2.440109,-1.67853 0.03602,-0.0975 -0.0485,-0.19372 -0.150284,-0.17801 z"
       id="path39"
       transform="scale(0.26458333)"
       class="P" />
    <path
       style="fill:#ffffff;fill-opacity:1;stroke:#000000;stroke-width:0.0054187;stroke-opacity:0"
       d="m 89.397812,147.61628 c -0.298741,0.26342 -0.600381,0.77028 -0.472655,1.18322 0.282923,0.44766 0.994146,0.34306 1.430665,0.22352 0.192998,-0.35854 -0.340853,-0.71271 -0.497208,-1.01833 -0.137349,-0.13189 -0.25039,-0.37576 -0.460802,-0.38841 z"
       id="path40"
       transform="scale(0.26458333)"
       class="P" />
    <path
       style="fill:#ffffff;fill-opacity:1;stroke:#000000;stroke-width:0.0054187;stroke-opacity:0"
       d="m 90.24385,150.48883 c -1.017985,0.10038 -1.209816,1.32344 -1.446117,2.11477 -0.301012,1.42912 -0.735279,2.92089 -0.492552,4.38619 0.283232,0.40935 0.60939,-0.27702 0.725599,-0.49954 0.805411,-1.79024 1.455001,-3.6651 1.948193,-5.56391 -0.03539,-0.29854 -0.473664,-0.44207 -0.735123,-0.43751 z"
       id="path41"
       transform="scale(0.26458333)"
       class="P" />
    <path
       style="fill:#ffffff;fill-opacity:1;stroke:#000000;stroke-width:0.0054187;stroke-opacity:0"
       d="m 86.692482,147.16796 c -1.593464,0.15332 -3.162615,0.63919 -4.610978,1.31298 -0.316696,0.094 -0.807574,0.61471 -0.304379,0.81387 1.310142,0.28934 2.678538,-0.0637 3.971122,-0.31702 0.755808,-0.12474 1.819048,-0.60408 1.722115,-1.51857 -0.127387,-0.28623 -0.51269,-0.28934 -0.77788,-0.29126 z"
       id="path42"
       transform="scale(0.26458333)"
       class="P" />
  </g>
</svg>
