<?xml version="1.0" encoding="UTF-8" standalone="no"?>
<!-- Created with Inkscape (http://www.inkscape.org/) -->

<svg
   width="34.750515mm"
   height="35.812916mm"
   viewBox="0 0 34.750515 35.812916"
   version="1.1"
   id="svg1"
   xmlns="http://www.w3.org/2000/svg"
   xmlns:svg="http://www.w3.org/2000/svg">
  <defs
     id="defs1" />
  <g
     id="layer1"
     transform="translate(-53.955631,-13.270787)">
    <g
       id="g2936">
      <path
         id="path2078"
         style="fill:#000000;stroke-width:0.264583"
         d="m 75.135264,49.020188 c -0.04802,-0.04805 -0.08734,-0.585936 -0.08734,-1.195309 v -1.107953 l 0.588672,-0.08828 c 0.762661,-0.114363 0.999596,0.099 0.999596,0.90011 0,0.648213 -0.300303,0.991793 -0.787506,0.900959 -0.220901,-0.04118 -0.287311,0.01498 -0.317659,0.268669 -0.03874,0.323646 -0.234633,0.482933 -0.395764,0.321805 z m -9.076981,-0.637399 c -0.09906,-0.03998 -0.158829,-0.317908 -0.158829,-0.738746 0,-0.525187 -0.04926,-0.69364 -0.222356,-0.760328 -0.211772,-0.08159 -0.211772,-0.09161 0,-0.210502 0.122291,-0.06866 0.222356,-0.207756 0.222356,-0.30911 0,-0.101354 0.08578,-0.18428 0.190606,-0.18428 0.104828,0 0.190579,0.07965 0.190579,0.177001 0,0.09735 0.08578,0.20991 0.190606,0.250134 0.104828,0.04023 0.190579,0.132109 0.190579,0.204187 0,0.07208 -0.08575,0.131051 -0.190579,0.131051 -0.141182,0 -0.190606,0.148238 -0.190606,0.571778 0,0.42354 0.04942,0.57178 0.190606,0.57178 0.104828,0 0.190579,0.08577 0.190579,0.190593 0,0.185671 -0.283342,0.235643 -0.603541,0.106442 z m 19.11768,-8.840961 c -0.38346,-0.410519 -0.782346,-1.352489 -1.106857,-2.613882 -0.08541,-0.331978 -0.30107,-0.693666 -0.546894,-0.917178 -0.359437,-0.32684 -0.488606,-0.365874 -1.129321,-0.341299 -0.669608,0.02566 -0.757132,-0.0049 -1.175332,-0.410133 -0.342503,-0.331912 -0.451856,-0.384961 -0.451856,-0.219213 0,0.50709 -1.072409,0.543499 -1.611286,0.05471 -0.367823,-0.333627 -1.946433,-0.491556 -1.946433,-0.194728 0,0.556815 0.289533,1.580793 0.514746,1.820539 0.345837,0.368121 0.446988,1.064451 0.202036,1.390748 -0.187192,0.249344 -0.199099,0.246095 -0.63291,-0.17264 -0.33221,-0.320654 -0.539749,-0.721183 -0.834786,-1.610897 -0.215953,-0.651275 -0.392642,-1.269212 -0.392642,-1.373193 0,-0.103981 -0.216085,-0.360196 -0.480192,-0.569365 -0.404231,-0.320167 -0.58293,-0.377113 -1.129956,-0.360098 -0.483262,0.01503 -0.719138,-0.04251 -0.920486,-0.224557 -0.207565,-0.187645 -0.30562,-0.209886 -0.420211,-0.0953 -0.261091,0.261081 -1.062699,0.177168 -1.454811,-0.152291 -0.253392,-0.212894 -0.598647,-0.329478 -1.172369,-0.395872 l -0.813197,-0.09411 0.08819,0.860663 c 0.06591,0.643202 0.167031,0.954365 0.400235,1.231524 0.369702,0.439346 0.440002,1.326743 0.115014,1.451454 -0.482415,0.185119 -1.249548,-1.056867 -1.658593,-2.685237 -0.168752,-0.67177 -0.288317,-0.88351 -0.658337,-1.165744 -0.371977,-0.28371 -0.562874,-0.338997 -1.076325,-0.311745 -0.444076,0.02357 -0.692811,-0.02897 -0.862012,-0.182102 -0.218943,-0.198144 -0.254132,-0.198938 -0.443071,-0.01 -0.306996,0.307012 -1.135883,0.267282 -1.449626,-0.06948 -0.274955,-0.29514 -1.740561,-0.584869 -1.941592,-0.383831 -0.188806,0.188809 0.04717,1.567587 0.313955,1.834375 0.498422,0.498406 0.570971,1.619543 0.104801,1.619543 -0.444262,0 -0.885401,-0.687191 -1.347364,-2.098981 -0.59227,-1.810007 -0.846534,-2.094061 -1.87452,-2.094061 -0.671407,0 -0.803857,-0.04596 -1.261665,-0.437822 -0.281305,-0.240803 -0.632884,-0.455218 -0.781262,-0.476483 -0.328375,-0.04706 -0.43479,-0.453408 -0.147585,-0.563615 0.116179,-0.04459 0.476462,0.06714 0.820711,0.254508 0.337503,0.183687 0.731176,0.333978 0.874819,0.333978 0.297947,0 0.471302,-0.19708 0.278288,-0.316376 -0.07104,-0.04389 -0.129143,-0.300952 -0.129143,-0.57124 0,-0.549624 0.182536,-0.659667 0.812218,-0.489617 0.706041,0.190669 0.775494,-0.17929 0.203121,-1.081815 -0.288899,-0.455541 -0.352663,-0.658307 -0.260906,-0.829712 0.0861,-0.160872 0.03098,-0.511506 -0.189468,-1.205712 -0.170974,-0.538379 -0.310832,-1.034679 -0.310832,-1.102886 0,-0.06821 -0.184918,-0.289227 -0.410925,-0.49116 -0.367533,-0.328382 -0.478181,-0.360298 -1.048253,-0.302289 -0.599545,0.061 -0.676804,0.03336 -1.302093,-0.465912 -0.365602,-0.29192 -0.716492,-0.49878 -0.779728,-0.459687 -0.06326,0.03909 -0.180657,-0.008 -0.260852,-0.104656 -0.111998,-0.134948 -0.09851,-0.223089 0.05821,-0.379786 0.256619,-0.256619 0.214948,-0.2629 0.774515,0.116822 0.930566,0.631496 1.434888,0.557342 1.160118,-0.170585 -0.11422,-0.302623 -0.118163,-0.468614 -0.01508,-0.630008 0.143378,-0.22426 0.691224,-0.278127 1.07696,-0.105888 0.394573,0.176175 0.378725,-0.30761 -0.03556,-1.084893 -0.366157,-0.686958 -0.384783,-0.774342 -0.203597,-0.955521 0.228574,-0.228582 0.477917,-0.129506 0.477917,0.189905 0,0.119454 0.232384,0.498406 0.516414,0.842115 0.465799,0.563666 0.513212,0.685348 0.483685,1.241293 -0.04842,0.91226 0.364728,1.27612 1.926563,1.696739 0.87085,0.234529 1.261084,0.288305 1.413801,0.194839 0.159597,-0.09767 0.383593,-0.0356 0.920062,0.254963 0.801291,0.434001 1.325272,0.419814 1.084871,-0.02937 -0.07403,-0.138305 -0.116866,-0.434649 -0.0952,-0.658542 0.03247,-0.335767 0.09948,-0.414018 0.382508,-0.44668 0.188728,-0.02178 0.461169,0.02357 0.60542,0.100777 0.468947,0.250973 0.47961,-0.218541 0.02408,-1.054135 -0.319431,-0.585732 -0.376846,-0.788646 -0.262229,-0.926748 0.224103,-0.270026 0.349859,-0.215336 0.543005,0.236133 0.09716,0.227124 0.355203,0.58089 0.573484,0.786146 0.350785,0.329893 0.397246,0.4552 0.400553,1.080026 0.0056,1.067697 0.381899,1.419188 1.972548,1.842551 0.943187,0.251042 1.275477,0.294201 1.409382,0.183065 0.135864,-0.112768 0.343244,-0.05586 0.923555,0.253428 0.769435,0.410115 1.249548,0.424085 1.080241,0.03143 -0.368644,-0.855017 -0.08065,-1.286671 0.716544,-1.073894 0.430689,0.114957 0.505037,0.103098 0.566447,-0.09034 0.04032,-0.127069 -0.09755,-0.507963 -0.321151,-0.887177 -0.215503,-0.365482 -0.373936,-0.757317 -0.352081,-0.870744 0.05601,-0.29084 0.53041,-0.26126 0.587771,0.03665 0.02567,0.133586 0.275908,0.532765 0.555969,0.887064 0.469662,0.594169 0.503794,0.68989 0.439473,1.232942 -0.06379,0.538446 -0.03514,0.621975 0.335201,0.977464 0.27649,0.265419 0.666882,0.45398 1.230842,0.59451 0.454236,0.113194 1.042696,0.289555 1.307676,0.391912 0.26498,0.102359 0.610712,0.153744 0.768324,0.114189 0.18116,-0.04547 0.494638,0.04703 0.852355,0.251502 0.568643,0.325027 1.137629,0.428903 1.137629,0.20769 0,-0.06533 -0.05866,-0.273008 -0.130307,-0.4615 -0.258339,-0.679447 0.147214,-1.076653 0.83304,-0.815906 0.624549,0.237451 0.683234,-0.03398 0.206243,-0.95395 -0.232463,-0.44836 -0.385763,-0.874897 -0.340678,-0.947861 0.142717,-0.230908 0.575258,-0.153033 0.575258,0.103571 0,0.129929 0.228705,0.496064 0.508238,0.813633 0.455744,0.517747 0.508635,0.647586 0.511968,1.256744 0.005,0.929762 0.415793,1.388079 1.451531,1.619867 1.678411,0.375616 2.864855,0.990118 2.864855,1.483831 0,0.410638 -1.121674,0.415687 -1.61028,0.0072 -0.405262,-0.33874 -1.733074,-0.579149 -1.880579,-0.340484 -0.177536,0.287232 0.08644,1.545392 0.393806,1.877049 0.322209,0.34766 0.425132,1.257703 0.170973,1.511848 -0.08956,0.08957 -0.04956,0.233847 0.12708,0.458404 0.186769,0.237442 0.257757,0.516858 0.257757,1.014492 0,0.58352 0.05255,0.737034 0.349435,1.020916 0.202724,0.193865 0.616082,0.392221 0.984726,0.472527 1.334823,0.290796 2.176569,0.641506 2.607945,1.086588 0.511546,0.527767 0.405792,0.730197 -0.381423,0.730197 -0.365628,0 -0.612246,-0.08528 -0.825235,-0.285379 -0.230453,-0.216493 -0.50972,-0.301911 -1.15697,-0.353867 l -0.853202,-0.06848 0.09112,0.805426 c 0.06575,0.581067 0.178832,0.909667 0.406003,1.179632 0.252545,0.300148 0.30734,0.488275 0.276834,0.950626 -0.0217,0.329007 -0.1084,0.599604 -0.202009,0.630428 -0.0902,0.0297 -0.347478,-0.142454 -0.571765,-0.382569 z m 0.04945,-1.430382 C 85.154033,37.831879 85.060287,37.417314 85.01708,37.190191 84.95424,36.85966 84.877169,36.777239 84.631,36.777239 c -0.170603,0 -0.307551,0.07496 -0.307551,0.168339 0,0.192699 0.573219,1.915525 0.712099,2.140246 0.180631,0.292254 0.324617,-0.446682 0.189865,-0.974378 z m -7.89551,-1.527977 c -0.05808,-0.07163 -0.14523,-0.428993 -0.193649,-0.794136 -0.08303,-0.625888 -0.108955,-0.663898 -0.452887,-0.663898 -0.20066,0 -0.364834,0.0182 -0.364834,0.04047 0,0.16051 0.442119,1.473605 0.661246,1.963849 l 0.268367,0.600453 0.09366,-0.508249 c 0.05151,-0.279537 0.04614,-0.566853 -0.01191,-0.638487 z m 10.791613,-0.265737 c 0.08369,-0.07125 -1.093576,-0.539609 -1.858275,-0.739301 -0.397034,-0.103682 -0.733584,-0.176549 -0.747845,-0.161928 -0.01429,0.01463 0.0037,0.181248 0.04009,0.370279 0.0576,0.299937 0.141102,0.353322 0.655849,0.419354 0.324406,0.04161 0.675587,0.123135 0.780415,0.181158 0.16846,0.09324 0.998564,0.04214 1.129771,-0.06956 z m -3.035697,-0.165409 c 0,-0.06417 -0.03567,-0.209582 -0.07924,-0.323141 -0.07271,-0.189503 -0.09858,-0.18896 -0.314642,0.0066 -0.129487,0.117184 -0.204814,0.262596 -0.167402,0.323141 0.09086,0.147 0.561287,0.141478 0.561287,-0.0066 z m -15.287651,-1.1235 c -0.06609,-0.08808 -0.170339,-0.428792 -0.231669,-0.757137 -0.12962,-0.693801 -0.237596,-0.835478 -0.592191,-0.77705 -0.256937,0.04234 -0.256804,0.04642 0.03241,0.931958 0.159755,0.489188 0.360494,1.060966 0.446061,1.270619 l 0.155601,0.381185 0.154967,-0.444717 c 0.09932,-0.285006 0.111812,-0.502227 0.03482,-0.604858 z m 14.770734,0.617011 c 0.144542,-0.20297 0.262785,-0.414976 0.262785,-0.471125 0,-0.170186 -0.929243,-1.065771 -1.1058,-1.065771 -0.09065,0 -0.164809,0.08661 -0.164809,0.19246 0,0.105855 -0.183277,0.303919 -0.407299,0.440145 l -0.407274,0.247682 0.555493,0.512821 c 0.659977,0.609298 0.91485,0.638222 1.266904,0.143788 z m -1.845309,-0.247558 c 0.03683,-0.05959 -0.0071,-0.209772 -0.09784,-0.33374 -0.129752,-0.177419 -0.218149,-0.196855 -0.415396,-0.0913 -0.190976,0.102216 -0.384943,0.07522 -0.815843,-0.113562 l -0.565282,-0.247661 0.508264,0.442534 c 0.494507,0.430586 1.221079,0.610759 1.3861,0.343731 z m -2.613158,-0.72644 c 0.09705,-0.07998 -0.765677,-0.441391 -1.616392,-0.677137 l -0.904875,-0.250757 v 0.36117 c 0,0.339603 0.03982,0.366519 0.667067,0.450802 0.366898,0.0493 0.752502,0.136216 0.85688,0.193143 0.161634,0.08814 0.862542,0.03387 0.99732,-0.07722 z m 2.017448,0.09704 c 0.119089,-0.07567 0.121894,-0.206748 0.01191,-0.564766 -0.111178,-0.362225 -0.106865,-0.509874 0.01932,-0.661887 0.185208,-0.22316 0.670825,-0.255847 1.020524,-0.06869 0.426403,0.228206 0.449078,-0.308544 0.04175,-0.98852 -0.197591,-0.329811 -0.367904,-0.79978 -0.378487,-1.044374 -0.03299,-0.762291 -0.661696,-2.5722 -1.02534,-2.951753 -0.294957,-0.307866 -0.432382,-0.351859 -1.099264,-0.351859 -0.588619,0 -0.824098,-0.05817 -1.034097,-0.255444 -0.256249,-0.240726 -0.295196,-0.243819 -0.676355,-0.05368 -0.478922,0.238911 -1.066562,0.14964 -1.404779,-0.213405 -0.162242,-0.174133 -0.47535,-0.268761 -1.074446,-0.324705 l -0.84545,-0.07895 0.0029,0.431326 c 0.0048,0.693719 0.196215,1.329404 0.487944,1.621136 0.322422,0.322435 0.371502,1.169655 0.08435,1.456796 -0.164704,0.164693 -0.164704,0.205605 0,0.342289 0.123163,0.102211 0.18833,0.399489 0.190764,0.870286 0.0053,0.995312 0.425318,1.458095 1.563317,1.722014 0.448495,0.104013 1.097016,0.296098 1.441133,0.426855 0.40378,0.153427 0.691038,0.197398 0.809995,0.123981 0.126048,-0.07781 0.40513,0.0087 0.883126,0.273709 0.77732,0.43098 0.764514,0.427196 0.980996,0.289642 z M 62.21304,33.662254 c -0.06001,-0.0723 -0.14814,-0.425704 -0.195845,-0.78535 -0.074,-0.557911 -0.133376,-0.665602 -0.404336,-0.733613 -0.174704,-0.04384 -0.348641,-0.04869 -0.386556,-0.01077 -0.08956,0.08957 0.571897,2.098479 0.769276,2.336294 0.124671,0.150223 0.166608,0.106966 0.238892,-0.246448 0.04821,-0.235757 0.03858,-0.487805 -0.02143,-0.560102 z m 14.898978,0.637275 c -0.07276,-0.380555 -0.173805,-0.397264 -0.463894,-0.07671 -0.228415,0.252397 -0.137239,0.361937 0.319881,0.384334 0.151395,0.0074 0.188913,-0.07271 0.144013,-0.307623 z m -0.477811,-0.338452 0.338243,-0.401984 -0.559673,-0.559676 -0.559673,-0.559676 -0.47289,0.472887 -0.472889,0.472887 0.477255,0.488773 c 0.26252,0.268825 0.574966,0.48877 0.69432,0.48877 0.11938,0 0.369252,-0.18089 0.555307,-0.401981 z m 7.55695,-0.392155 c -0.0042,-0.451419 -0.09094,-0.63382 -0.527791,-1.111793 l -0.522605,-0.571777 0.353986,0.611531 c 0.305805,0.528344 0.333745,0.655892 0.205396,0.93762 -0.08173,0.179348 -0.132159,0.338852 -0.112051,0.354457 0.06252,0.04857 0.543031,0.312036 0.576527,0.316111 0.01746,0.0021 0.02942,-0.239141 0.02654,-0.536149 z m -9.352598,0.18919 c 0.03286,-0.05318 -0.01349,-0.197003 -0.103213,-0.319601 -0.125016,-0.170947 -0.233442,-0.1964 -0.465217,-0.109193 -0.208915,0.0786 -0.413756,0.0567 -0.66347,-0.07095 -0.508476,-0.259948 -0.54729,-0.130969 -0.07911,0.262977 0.382852,0.322133 1.170358,0.46436 1.31101,0.236767 z m -2.756905,-0.734684 c 0.04138,-0.107839 0.05358,-0.217721 0.02712,-0.244179 -0.111204,-0.111204 -2.015675,-0.619188 -2.080048,-0.554815 -0.03871,0.03871 -0.01297,0.221265 0.05707,0.405667 0.105648,0.277826 0.209656,0.336806 0.607113,0.344207 0.26379,0.0049 0.59399,0.05807 0.733743,0.118131 0.386847,0.166235 0.572214,0.146706 0.655002,-0.06901 z m 2.127647,0.11984 c 0.154093,-0.05913 0.168963,-0.131704 0.0663,-0.323524 -0.07279,-0.136012 -0.114618,-0.43048 -0.09297,-0.654376 0.03627,-0.374914 0.07453,-0.406421 0.484108,-0.398753 0.244581,0.0046 0.529114,0.03316 0.632301,0.06353 0.345096,0.101571 0.289243,-0.499798 -0.106098,-1.142328 -0.323797,-0.526222 -0.357028,-0.653886 -0.219286,-0.842275 0.134091,-0.183353 0.122264,-0.327631 -0.06787,-0.827984 -0.126629,-0.333269 -0.299191,-0.87978 -0.383461,-1.214467 -0.222593,-0.88401 -0.708554,-1.254286 -1.646396,-1.254519 -0.533426,-1.32e-4 -0.794543,-0.06388 -0.99142,-0.242051 -0.225637,-0.20419 -0.267256,-0.210686 -0.267256,-0.04168 0,0.238371 -0.627274,0.405641 -1.045421,0.278778 -0.158803,-0.04818 -0.408146,-0.196678 -0.554091,-0.329988 -0.179758,-0.164177 -0.54221,-0.268235 -1.123368,-0.322506 l -0.858017,-0.08012 0.08856,0.750059 c 0.04871,0.412536 0.182589,0.886275 0.297471,1.052759 0.460137,0.666729 0.530966,0.854318 0.461328,1.222047 -0.03971,0.209653 -0.0657,0.49554 -0.05778,0.635309 0.0079,0.139769 0.02786,0.552329 0.04429,0.9168 0.03929,0.871027 0.55962,1.491017 1.365673,1.627198 0.297736,0.0503 0.85516,0.199432 1.238753,0.331407 0.383593,0.131974 0.805418,0.205684 0.937366,0.163798 0.135625,-0.04304 0.334301,0.0093 0.456988,0.120261 0.162745,0.147283 0.903764,0.533514 1.120272,0.58389 0.01164,0.0027 0.110755,-0.02933 0.220028,-0.07126 z M 69.51165,32.656826 c -0.08091,-0.322439 -0.09631,-0.328258 -0.323823,-0.122361 -0.313717,0.283895 -0.301493,0.40324 0.04702,0.458898 0.374253,0.05978 0.375814,0.05788 0.276807,-0.336537 z m -0.537898,-0.159938 c 0.196004,-0.187785 0.356394,-0.409215 0.356394,-0.492064 0,-0.08285 -0.2667,-0.39647 -0.592666,-0.696928 -0.562134,-0.518152 -0.597774,-0.532456 -0.692018,-0.277715 -0.05464,0.147717 -0.248682,0.366427 -0.431192,0.486021 l -0.331866,0.217443 0.542078,0.552336 c 0.298132,0.303784 0.598514,0.552334 0.667491,0.552334 0.06898,0 0.285776,-0.153641 0.481779,-0.341427 z m 7.245086,-0.389178 c 0.08633,-0.417412 -0.05477,-0.783529 -0.487733,-1.265441 l -0.432726,-0.481661 0.269716,0.478528 c 0.197617,0.350629 0.2481,0.593693 0.188886,0.909426 -0.05522,0.294291 -0.02937,0.451594 0.08152,0.496173 0.278289,0.111858 0.332925,0.09217 0.380339,-0.137025 z m -8.921697,0.02342 c 0,-0.03953 -0.05665,-0.177716 -0.125862,-0.307068 -0.10586,-0.197813 -0.182113,-0.213958 -0.479769,-0.1016 -0.29001,0.109461 -0.456565,0.08194 -0.922391,-0.1524 l -0.56851,-0.285988 0.508265,0.454181 c 0.410051,0.366448 0.612563,0.455203 1.048252,0.45947 0.297021,0.0029 0.540015,-0.02706 0.540015,-0.0666 z m -2.45327,-0.590272 c -0.177297,-0.112716 -1.515639,-0.550445 -2.03454,-0.66543 -0.332237,-0.07362 -0.355362,-0.05368 -0.317658,0.274121 0.03715,0.323184 0.100621,0.362765 0.739484,0.461272 0.38436,0.05926 0.743928,0.15035 0.799068,0.202415 0.05511,0.05206 0.294825,0.03375 0.532659,-0.0407 0.274531,-0.08592 0.377137,-0.170543 0.280987,-0.231678 z M 61.908055,31.09168 c -0.04016,-0.04016 -0.193173,0.03573 -0.340043,0.168645 l -0.267044,0.241663 0.298027,0.07178 c 0.225372,0.05429 0.308266,0.01318 0.340042,-0.168643 0.02302,-0.132236 0.0093,-0.273288 -0.03098,-0.313449 z m 4.776575,0.158308 c -0.02249,-0.139735 -0.07104,-0.406215 -0.108055,-0.59218 -0.09168,-0.460407 0.316335,-0.692034 0.875585,-0.497075 0.483024,0.168381 0.438997,0.173135 0.527262,-0.05692 0.07945,-0.207032 -0.410819,-1.331466 -0.580549,-1.331466 -0.135176,0 -0.131127,-0.475075 0.0048,-0.559064 0.05858,-0.0362 -0.0272,-0.475893 -0.190606,-0.977096 -0.16338,-0.501205 -0.298106,-1.003858 -0.299376,-1.117007 0,-0.113149 -0.225531,-0.391068 -0.498396,-0.617593 -0.441695,-0.366684 -0.556604,-0.40358 -1.047459,-0.336302 -0.433573,0.05943 -0.616453,0.02283 -0.856165,-0.171259 -0.30189,-0.244454 -0.307208,-0.244438 -0.55327,0.0016 -0.195342,0.195342 -0.359807,0.233524 -0.76925,0.178605 -0.286464,-0.03842 -0.591555,-0.16659 -0.677995,-0.284822 -0.155813,-0.213066 -0.925988,-0.42101 -1.59885,-0.431665 -0.31123,-0.0049 -0.349065,0.03958 -0.346366,0.407416 0.005,0.683961 0.214101,1.376098 0.494638,1.637467 0.29091,0.271015 0.380127,1.293908 0.126551,1.450628 -0.09946,0.06148 -0.09946,0.124034 0,0.223504 0.07599,0.07597 0.139805,0.45547 0.141869,0.843328 0.0048,0.907669 0.44323,1.45547 1.277726,1.596459 0.300752,0.05081 0.863917,0.201483 1.251506,0.33483 0.439658,0.151265 0.721068,0.193283 0.748241,0.11172 0.073,-0.21895 0.475933,-0.14732 1.057699,0.188024 0.651906,0.37578 1.080849,0.37529 1.020497,-0.0011 z m -5.290079,-0.121224 c 0.17153,-0.171532 0.311865,-0.411816 0.311865,-0.533964 0,-0.22524 -0.723424,-1.060085 -0.918581,-1.060085 -0.05853,0 -0.311414,0.205029 -0.562001,0.455621 l -0.455613,0.45562 0.485643,0.497343 c 0.567769,0.581475 0.718159,0.60597 1.138687,0.185465 z m 22.150573,0.03365 c 0.06482,-0.175231 0.04008,-0.398661 -0.06683,-0.603544 -0.09337,-0.178922 -0.170127,-0.509127 -0.17055,-0.733793 0,-0.273261 -0.08215,-0.452022 -0.246566,-0.540012 -0.593434,-0.317605 -0.641932,-0.115096 -0.25093,1.047798 0.242781,0.722032 0.444711,1.107784 0.579887,1.107784 0.02863,0 0.09837,-0.125206 0.154993,-0.278233 z M 59.636342,30.5082 c -0.12356,-0.261832 -0.181927,-0.281395 -0.491225,-0.164645 -0.273553,0.103256 -0.457253,0.08432 -0.832538,-0.0858 l -0.481542,-0.218292 0.439896,0.382937 c 0.338985,0.295069 0.562214,0.382939 0.972794,0.382939 0.513821,0 0.527844,-0.01061 0.392615,-0.297137 z m 9.056582,-0.179345 c -0.0026,-0.362887 -0.108718,-0.597652 -0.45003,-0.984729 l -0.448151,-0.508249 0.258762,0.53358 c 0.19812,0.408567 0.230188,0.608634 0.136949,0.853914 -0.09663,0.254137 -0.07678,0.346567 0.09599,0.447286 0.35351,0.206073 0.408491,0.159861 0.40648,-0.341802 z m 6.997832,-1.302385 c -0.06551,-0.17471 -0.156184,-0.56066 -0.201533,-0.857668 -0.07482,-0.490123 -0.115994,-0.540012 -0.445611,-0.540012 h -0.363167 l 0.189574,0.6384 c 0.104273,0.35112 0.30861,0.908603 0.454078,1.238853 l 0.264478,0.600453 0.110622,-0.381185 c 0.06522,-0.224687 0.06175,-0.511604 -0.0085,-0.698841 z m -15.065507,-1.133094 -0.462545,-0.455182 0.271013,0.467747 c 0.202353,0.349279 0.250005,0.579652 0.188119,0.909579 -0.06871,0.366236 -0.04281,0.449688 0.151421,0.487751 0.19095,0.03742 0.24175,-0.04671 0.274426,-0.454398 0.03474,-0.433197 -0.02196,-0.561379 -0.422434,-0.955497 z m 25.526576,0.729239 c -0.06165,-0.09974 -2.042371,-0.739704 -2.289413,-0.739704 -0.07165,0 -0.106071,0.164772 -0.07652,0.366157 0.05046,0.343858 0.09916,0.371298 0.80002,0.450588 0.410448,0.04644 0.77687,0.133909 0.814229,0.194379 0.03739,0.06047 0.235691,0.04663 0.440716,-0.03075 0.205,-0.07738 0.344938,-0.185685 0.310965,-0.240665 z m -17.964466,-0.36331 c 0.0069,-0.241959 -0.06411,-0.782995 -0.157559,-1.202299 -0.152506,-0.684318 -0.205211,-0.766487 -0.5148,-0.802576 -0.189707,-0.02212 -0.344911,0.0024 -0.344911,0.05452 0,0.248142 0.57068,1.828086 0.660321,1.828086 0.05612,0 0.102049,0.104825 0.102049,0.232947 0,0.220268 0.12663,0.445153 0.205978,0.365805 0.02011,-0.02011 0.04212,-0.234522 0.04892,-0.47648 z m 15.119588,0.266414 c 0,-0.357428 -0.187616,-0.418658 -0.43733,-0.14273 -0.205264,0.226812 -0.204443,0.24325 0.01482,0.299919 0.40042,0.103507 0.422539,0.09528 0.422539,-0.157189 z m -0.6105,-0.348927 c 0.196004,-0.187786 0.356368,-0.404591 0.356368,-0.481793 0,-0.0772 -0.25527,-0.390909 -0.567294,-0.69713 -0.506491,-0.497094 -0.576262,-0.530569 -0.65098,-0.312343 -0.04601,0.134429 -0.232754,0.371443 -0.414973,0.526693 l -0.331311,0.282273 0.499824,0.511863 c 0.274902,0.281525 0.556551,0.511863 0.625899,0.511863 0.06935,0 0.286464,-0.153641 0.482467,-0.341426 z m -1.707303,-0.554779 c -0.127079,-0.207335 -0.243761,-0.245456 -0.568299,-0.18569 -0.284189,0.05233 -0.574066,-0.0083 -0.952976,-0.199437 -0.616744,-0.31105 -0.611002,-0.292021 0.07646,0.253825 0.381688,0.303067 0.620157,0.392197 1.049337,0.392197 0.527394,0 0.547317,-0.01315 0.395473,-0.260895 z M 60.601675,26.298128 c -0.09123,-0.137848 -0.166661,-0.395147 -0.167613,-0.571778 -0.0034,-0.635717 -0.139383,-0.892929 -0.471937,-0.892929 -0.297339,0 -0.311494,0.02952 -0.228336,0.476483 0.04876,0.262067 0.192617,0.733782 0.31967,1.048261 0.127079,0.314478 0.270351,0.686136 0.318399,0.825905 0.07551,0.21962 0.108294,0.193743 0.241512,-0.190596 0.123402,-0.355981 0.121073,-0.494723 -0.01164,-0.695346 z m 17.741398,0.865947 c 0.135995,-0.118007 -0.262097,-0.305633 -1.262169,-0.594881 -0.594016,-0.171805 -1.097095,-0.296315 -1.11797,-0.276693 -0.0209,0.01963 0,0.182694 0.04405,0.362384 0.06884,0.274285 0.176847,0.340386 0.673259,0.411985 0.325199,0.0469 0.677015,0.132167 0.781843,0.189471 0.169678,0.09274 0.736124,0.03342 0.880984,-0.09227 z m -2.836836,-0.244522 c -0.04241,-0.110543 -0.07713,-0.262348 -0.07713,-0.33735 0,-0.075 -0.113003,-0.03409 -0.251142,0.09091 -0.289692,0.26217 -0.229579,0.447429 0.145177,0.447429 0.185076,0 0.23794,-0.05803 0.183092,-0.200985 z m -0.578221,-0.335579 c 0.205714,-0.225227 0.374042,-0.475875 0.374042,-0.556996 0,-0.172932 -0.958454,-1.066493 -1.143926,-1.066493 -0.06969,0 -0.126709,0.08661 -0.126709,0.192461 0,0.105851 -0.181928,0.303098 -0.404284,0.438327 l -0.40431,0.245864 0.578168,0.57817 c 0.318003,0.317992 0.617511,0.578167 0.665586,0.578167 0.04807,0 0.25572,-0.184274 0.461433,-0.4095 z m 7.489508,-0.585825 c 0,-0.379174 -0.09959,-0.597323 -0.449554,-0.984729 l -0.449554,-0.497652 0.27096,0.558456 c 0.218758,0.4509 0.244158,0.617236 0.131895,0.863648 -0.07649,0.167854 -0.139065,0.326895 -0.139065,0.353425 0,0.04348 0.294587,0.141232 0.540015,0.179191 0.05241,0.0081 0.0953,-0.204446 0.0953,-0.472339 z m -9.148472,0.257241 c 0,-0.05653 -0.07599,-0.206711 -0.168883,-0.333743 -0.139542,-0.190817 -0.216509,-0.205472 -0.442913,-0.08431 -0.222514,0.119084 -0.375893,0.09731 -0.815843,-0.1158 l -0.541813,-0.262456 0.497654,0.449543 c 0.387403,0.349956 0.605552,0.449543 0.984727,0.449543 0.26789,0 0.487071,-0.04625 0.487071,-0.102775 z M 70.969691,25.7712 c 0.12319,-0.108146 -1.917621,-0.80491 -2.370164,-0.809207 -0.08737,-7.94e-4 -0.15883,0.134768 -0.15883,0.301326 0,0.329369 0.267679,0.454766 0.977239,0.457803 0.222991,0.0011 0.441881,0.06067 0.486384,0.132694 0.07083,0.114612 0.915273,0.04913 1.065371,-0.08262 z m -3.037232,-0.302466 c 0,-0.288013 -0.131762,-0.32566 -0.355785,-0.101651 -0.223996,0.22401 -0.186346,0.355772 0.101653,0.355772 0.169413,0 0.254132,-0.08471 0.254132,-0.254121 z m -0.509402,-0.335749 0.406347,-0.462806 -0.589836,-0.585454 c -0.515831,-0.511974 -0.605393,-0.558332 -0.71366,-0.369367 -0.162983,0.28448 -0.455374,0.572609 -0.655955,0.646388 -0.102791,0.03782 0.04387,0.271788 0.405394,0.646655 0.311547,0.323067 0.605817,0.587393 0.653892,0.587393 0.0481,0 0.270324,-0.208264 0.493818,-0.462809 z m -1.790462,-0.45839 c -0.08181,-0.15724 -0.162189,-0.302324 -0.178646,-0.322411 -0.0164,-0.02008 -0.171927,0.02819 -0.34552,0.107289 -0.260853,0.118845 -0.412591,0.09505 -0.874104,-0.13706 l -0.558456,-0.280868 0.508265,0.454181 c 0.411506,0.367728 0.611875,0.455186 1.052724,0.45947 0.524563,0.0051 0.539036,-0.0052 0.395737,-0.280601 z m 8.585438,-1.228389 -0.465428,-0.455181 0.250957,0.508248 c 0.184547,0.373719 0.220715,0.588801 0.136684,0.812583 -0.06284,0.167386 -0.09874,0.316193 -0.07977,0.330682 0.01905,0.0145 0.148828,0.08835 0.288607,0.164145 0.233125,0.126412 0.25744,0.0947 0.294243,-0.383749 0.03522,-0.458068 -0.0164,-0.576948 -0.425291,-0.976728 z m -10.929699,1.007766 c 0.149093,-0.0011 0.199707,-0.0461 0.127079,-0.113131 -0.159014,-0.146735 -1.514607,-0.603594 -2.135822,-0.719799 -0.473446,-0.08856 -0.487098,-0.08129 -0.395817,0.210908 0.122899,0.39343 0.281437,0.488489 0.822643,0.493225 0.244607,0.0021 0.530489,0.06094 0.635317,0.13066 0.104828,0.06972 0.304932,0.09822 0.444712,0.06332 0.139779,-0.0349 0.365628,-0.06423 0.501888,-0.06518 z m -2.852526,-0.245467 c 0,-0.06417 -0.03567,-0.209582 -0.07924,-0.323141 -0.07255,-0.189074 -0.09932,-0.188291 -0.317658,0.0093 -0.324538,0.293719 -0.299376,0.430509 0.07924,0.430509 0.174705,0 0.317659,-0.0525 0.317659,-0.116671 z m -0.610499,-0.351819 c 0.196003,-0.187786 0.356367,-0.441257 0.356367,-0.563272 0,-0.19568 -1.105747,-1.241308 -1.17856,-1.114478 -0.01561,0.02735 -0.09131,0.164074 -0.168063,0.30384 -0.07676,0.139769 -0.269082,0.319818 -0.427408,0.400111 -0.286915,0.145494 -0.286068,0.147947 0.25101,0.730604 0.296386,0.321543 0.599943,0.584621 0.674582,0.584621 0.07464,0 0.296068,-0.153641 0.492072,-0.341426 z m -1.747097,-0.604311 c -0.171265,-0.261353 -0.248682,-0.289801 -0.489797,-0.179949 -0.212301,0.09674 -0.415131,0.07888 -0.784251,-0.06907 l -0.497867,-0.199554 0.439897,0.379503 c 0.341471,0.294571 0.562504,0.379499 0.987663,0.379499 h 0.54774 z m 8.960035,-0.229585 c -0.004,-0.433591 -0.09316,-0.640175 -0.453337,-1.04826 l -0.448575,-0.508249 0.27985,0.568489 c 0.223785,0.45456 0.254132,0.636685 0.151421,0.908796 -0.109961,0.291283 -0.08953,0.359159 0.141711,0.471173 0.14859,0.07198 0.284454,0.134736 0.301943,0.139464 0.01746,0.0047 0.02961,-0.234405 0.02699,-0.531413 z m -7.491889,-1.367782 c 0,-0.410855 -0.08792,-0.602464 -0.451881,-0.984729 l -0.451909,-0.474617 0.264822,0.541819 c 0.20058,0.410443 0.23315,0.600975 0.134223,0.785783 -0.07181,0.134181 -0.130546,0.278157 -0.130546,0.319945 0,0.05867 0.383382,0.25804 0.603541,0.313859 0.01746,0.0044 0.03175,-0.221498 0.03175,-0.50206 z m -5.590725,-6.668886 v -1.715336 h 0.806212 c 0.619681,0 0.854869,0.05376 1.016503,0.232365 0.232886,0.257326 0.283421,1.041363 0.08022,1.244555 -0.08871,0.08871 -0.04831,0.204049 0.127053,0.362762 0.354119,0.320469 0.329539,0.894829 -0.05474,1.279112 -0.267599,0.2676 -0.429974,0.311878 -1.143556,0.311878 h -0.831691 z m 1.630178,0.984732 c 0.234897,-0.45674 -0.06257,-0.789147 -0.708978,-0.792192 -0.397378,-0.0019 -0.412935,0.0172 -0.412935,0.506301 0,0.507495 0,0.508249 0.503766,0.508249 0.351526,0 0.538348,-0.06721 0.618147,-0.222358 z m -0.152639,-1.639811 c 0.09753,-0.388602 -0.191584,-0.679072 -0.675904,-0.679072 -0.257572,0 -0.29337,0.06204 -0.29337,0.508249 0,0.495617 0.01085,0.508249 0.442277,0.508249 0.372745,0 0.455639,-0.05308 0.526997,-0.337426 z m 20.803473,33.464989 c 0.121338,-0.4835 -0.04178,-0.872382 -0.347609,-0.828739 -0.275696,0.03934 -0.430583,0.553466 -0.282787,0.938599 0.111495,0.290576 0.549037,0.214329 0.630396,-0.10986 z m -12.020761,0.533667 c -0.370629,-0.215868 -0.257202,-0.389064 0.198755,-0.303525 0.293476,0.05506 0.468206,0.02222 0.576553,-0.10832 0.127556,-0.153696 0.09189,-0.235019 -0.198728,-0.453046 -0.623888,-0.468035 -0.671857,-0.527291 -0.671857,-0.82972 0,-0.404072 0.282602,-0.607722 0.77605,-0.559231 0.56896,0.05591 0.658759,0.37339 0.09287,0.328334 -0.57859,-0.04607 -0.56843,0.296574 0.02037,0.692193 0.555652,0.373255 0.655214,0.872016 0.233098,1.167675 -0.329538,0.230814 -0.702707,0.254658 -1.027245,0.06564 z m 2.858902,-0.0068 c -0.370893,-0.375769 -0.09731,-0.999527 0.438362,-0.999527 0.185473,0 0.292232,-0.0757 0.292232,-0.207219 0,-0.165856 -0.08874,-0.192812 -0.444712,-0.135048 -0.321521,0.05218 -0.444711,0.02535 -0.444711,-0.09684 0,-0.353666 0.877411,-0.444186 1.198006,-0.123593 0.263234,0.263229 0.284031,1.579198 0.02487,1.579198 -0.0961,0 -0.339116,0.03239 -0.540014,0.07197 -0.216906,0.04273 -0.429842,0.0066 -0.52414,-0.08894 z m 0.730594,-0.500597 c 0,-0.325612 -0.420529,-0.288673 -0.48432,0.04254 -0.02937,0.152474 0.03905,0.2209 0.220901,0.2209 0.181821,0 0.263419,-0.0816 0.263419,-0.263443 z m 2.947855,0.492154 c -0.252148,-0.252132 -0.173725,-0.353671 0.213307,-0.276264 0.513212,0.102645 0.60915,-0.155824 0.146606,-0.395015 -0.639366,-0.330631 -0.431615,-1.162362 0.264795,-1.060164 0.411903,0.06045 0.461221,0.359174 0.05929,0.359174 -0.404336,0 -0.425106,0.194167 -0.04233,0.395737 0.510407,0.268791 0.608383,0.597755 0.276807,0.929336 -0.236988,0.236977 -0.704665,0.261009 -0.918475,0.0472 z m 1.658144,0.06832 c -0.09906,-0.03998 -0.15883,-0.317908 -0.15883,-0.738746 0,-0.525187 -0.04926,-0.69364 -0.222355,-0.760328 -0.211773,-0.08159 -0.211773,-0.09161 0,-0.210502 0.122317,-0.06866 0.222355,-0.207756 0.222355,-0.30911 0,-0.101354 0.08578,-0.18428 0.190606,-0.18428 0.104828,0 0.19058,0.07965 0.19058,0.177001 0,0.09735 0.08578,0.20991 0.190606,0.250134 0.104827,0.04023 0.190579,0.132109 0.190579,0.204187 0,0.07208 -0.08575,0.131051 -0.190579,0.131051 -0.141182,0 -0.190606,0.148238 -0.190606,0.571778 0,0.42354 0.04942,0.57178 0.190606,0.57178 0.104827,0 0.190579,0.08577 0.190579,0.190593 0,0.185671 -0.283342,0.235643 -0.603541,0.106442 z m 1.140063,-0.113647 c -0.218837,-0.153283 -0.28239,-0.323238 -0.28239,-0.755168 0,-0.587351 0.303345,-0.952963 0.790655,-0.952963 0.303265,0 0.734086,0.447408 0.734086,0.76237 0,0.21708 -0.08469,0.254125 -0.581078,0.254125 -0.48477,0 -0.574119,0.03686 -0.538956,0.222358 0.02945,0.1554 0.185288,0.234233 0.517551,0.261795 0.493739,0.04095 0.6223,0.194672 0.274453,0.328154 -0.329751,0.12653 -0.615157,0.08886 -0.914321,-0.120671 z m 0.777478,-1.143071 c -0.08739,-0.227727 -0.569304,-0.199086 -0.647541,0.03848 -0.03418,0.103793 0.08205,0.158827 0.335465,0.158827 0.298371,0 0.370337,-0.0455 0.312076,-0.197311 z m -5.608135,0.356137 c 0.04786,-1.092391 0.279215,-1.070877 0.329274,0.03061 0.03122,0.687297 0.0034,0.827053 -0.16465,0.827053 -0.168619,0 -0.19595,-0.142375 -0.164624,-0.857668 z m 0.863468,0.04765 c 0,-0.804331 0.0026,-0.810572 0.394229,-0.888868 0.216853,-0.04337 0.445559,-0.04714 0.508265,-0.0084 0.20492,0.126656 0.119935,0.291071 -0.171874,0.332518 -0.249078,0.03537 -0.290856,0.126534 -0.324299,0.707675 -0.02762,0.479862 -0.09004,0.667076 -0.222356,0.667076 -0.141341,0 -0.183965,-0.187703 -0.183965,-0.810019 z M 68.69483,46.243354 c 0,-0.104826 0.08575,-0.190593 0.190579,-0.190593 0.104828,0 0.190606,0.08577 0.190606,0.190593 0,0.104825 -0.08578,0.190592 -0.190606,0.190592 -0.104828,0 -0.190579,-0.08577 -0.190579,-0.190592 z" />
      <path
         style="fill:#ff0000;stroke:#000000;stroke-width:0.00623928"
         d="m 257.58265,116.70907 c -0.45608,0.41413 -0.53691,1.17702 -1.05482,1.58516 -0.60284,0.68568 -1.45907,1.11499 -2.13939,1.6712 1.47109,1.37491 2.74396,3.03345 4.47448,4.09453 0.96167,-0.34329 1.65619,-1.21983 2.37605,-1.91955 0.4177,-0.42659 1.00266,-1.09682 0.48037,-1.67608 -1.16257,-1.36261 -2.43083,-2.69432 -3.92416,-3.69555 -0.0667,-0.0304 -0.13749,-0.0629 -0.21253,-0.0597 z"
         id="path2289"
         transform="scale(0.26458333)" class="OC" />
      <path
         style="fill:#ff0000;stroke:#000000;stroke-width:0.00251393"
         d="m 256.40442,109.27864 c 0.45344,1.14641 1.15206,2.2042 1.43952,3.41237 0.19974,0.80744 -0.16473,1.57954 -0.33938,2.35209 -0.0429,0.51724 0.44063,0.82726 0.84756,1.02184 0.28857,0.11543 0.61388,0.38202 0.93517,0.25811 0.37824,-0.23706 0.25673,-0.7719 0.30039,-1.1463 0.007,-0.783 0.0596,-1.60704 -0.31892,-2.32403 -0.5542,-1.19791 -1.54039,-2.11201 -2.37079,-3.1145 -0.15667,-0.15761 -0.28654,-0.35427 -0.46517,-0.48482 z"
         id="path2290"
         transform="scale(0.26458333)" class="OC" />
      <path
         style="fill:#ff0000;stroke:#000000;stroke-width:0.00251393"
         d="m 246.66617,118.42061 c 0.81566,0.80031 1.69904,1.54185 2.57835,2.2754 0.92342,0.70598 2.0965,1.08892 3.26123,0.98106 0.58216,-0.0463 1.19968,0.0267 1.75584,-0.17297 0.1345,-0.23536 -0.0974,-0.51134 -0.16184,-0.73866 -0.22169,-0.41869 -0.38764,-1.05904 -0.94567,-1.11831 -0.88839,0.0203 -1.7018,0.65196 -2.60752,0.4306 -1.16794,-0.24527 -2.1818,-0.92385 -3.25652,-1.41034 -0.19922,-0.0918 -0.39244,-0.20214 -0.59784,-0.27801 z"
         id="path2291"
         transform="scale(0.26458333)" class="OC" />
      <path
         style="fill:#ff0000;stroke:#000000;stroke-width:0.00251393"
         d="m 262.23026,122.45311 c -0.49415,0.18361 -0.83076,0.64155 -1.19834,1.00017 -0.21727,0.22648 -0.53938,0.64463 -0.24393,0.93595 0.48215,0.31219 1.09065,0.33192 1.64436,0.41696 0.2437,0.0562 0.56262,-0.10505 0.49199,-0.39319 -0.10436,-0.61776 -0.2366,-1.24443 -0.47922,-1.82359 -0.0423,-0.0788 -0.11939,-0.1482 -0.21486,-0.1363 z"
         id="path2292"
         transform="scale(0.26458333)" class="OC" />
      <path
         style="fill:#ff0000;stroke:#000000;stroke-width:0.00251393"
         d="m 261.05107,126.56624 c -0.36569,0.035 -0.89959,0.0228 -1.07383,0.41774 0.009,0.77194 0.34553,1.49889 0.54603,2.23493 0.77322,2.38736 1.57251,4.76857 2.53423,7.08783 0.17982,-0.18918 0.21754,-0.57395 0.34223,-0.83902 0.28003,-0.818 0.63263,-1.64575 0.56179,-2.53071 0.0335,-0.41685 -0.31202,-0.74169 -0.41921,-1.1306 -0.57523,-1.4489 -0.61326,-3.05335 -1.22593,-4.48825 -0.18819,-0.49575 -0.69805,-0.813 -1.22622,-0.75248 z"
         id="path2293"
         transform="scale(0.26458333)" class="OC" />
      <path
         style="fill:#ff0000;stroke:#000000;stroke-width:0.00251393"
         d="m 264.76894,121.76492 c -0.23631,0.0926 -0.14278,0.4386 -0.12816,0.63241 0.16229,0.71701 0.34575,1.56914 1.02649,1.97491 0.7186,0.32461 1.54096,0.20258 2.30398,0.311 1.03731,0.0628 2.0215,0.40857 2.99963,0.73327 0.48985,0.12447 1.16586,0.0852 1.38836,-0.45477 0.12639,-0.32687 0.34811,-0.73988 0.14769,-1.07657 -0.50105,-0.32624 -1.11818,-0.43362 -1.67692,-0.63467 -1.9603,-0.57208 -3.9313,-1.13827 -5.94685,-1.4799 -0.0378,-0.005 -0.0761,-0.009 -0.11422,-0.006 z"
         id="path2294"
         transform="scale(0.26458333)" class="OC" />
      <path
         style="fill:#ff0000;stroke:#000000;stroke-width:0.0103651"
         d="m 257.67436,116.89278 c -0.83458,0.95188 -1.58734,2.06295 -2.70968,2.75864 -0.93202,0.72143 1.29766,1.57572 1.65616,2.34295 0.77267,0.64377 1.44925,1.55895 2.34835,1.98962 1.09099,-0.80185 2.2246,-1.78489 2.87754,-2.96864 -0.96217,-1.6376 -2.44567,-3.01137 -4.00879,-4.08167 -0.052,-0.0207 -0.10651,-0.0429 -0.16358,-0.0409 z"
         id="path2299"
         transform="scale(0.26458333)" class="OC" />
      <path
         style="fill:#808080;stroke:#000000;stroke-width:0.00351168"
         d="m 229.78908,111.61455 c -1.03131,0.54502 -1.80745,1.45669 -2.66038,2.23307 -0.40006,0.41764 -0.85954,0.81573 -1.2107,1.2557 1.15123,1.08254 2.19477,2.29043 3.44104,3.26627 0.51109,0.36737 1.23982,0.4837 1.75488,0.0546 0.9039,-0.65429 1.72229,-1.53813 2.06763,-2.61689 0.0747,-0.59399 -0.41001,-1.08437 -0.69768,-1.55599 -0.71546,-0.93354 -1.50376,-1.84873 -2.46755,-2.53069 -0.077,-0.0263 -0.14545,-0.10094 -0.22724,-0.10607 z"
         id="path2394"
         transform="scale(0.26458333)" class="OF" />
      <path
         style="fill:#808080;stroke:#000000;stroke-width:0.00351168"
         d="m 218.96241,113.75352 c -0.006,0.19138 0.32816,0.32259 0.43924,0.48176 1.09895,0.94401 2.25914,2.11685 3.81072,2.12991 0.74587,0.0135 1.51522,0.10349 2.24884,-0.0498 0.40488,-0.14617 0.0673,-0.60325 -0.0126,-0.85735 -0.19917,-0.44243 -0.50082,-1.12158 -1.10686,-0.98615 -0.77676,0.18234 -1.54233,0.55186 -2.35955,0.40961 -1.06885,-0.1547 -2.0098,-0.78258 -3.01977,-1.12799 z"
         id="path2395"
         transform="scale(0.26458333)" class="OF" />
      <path
         style="fill:#808080;stroke:#000000;stroke-width:0.00351168"
         d="m 227.69072,104.10532 c 0.54279,1.23153 1.50873,2.37341 1.52469,3.7863 0.0659,0.8345 -0.39383,1.68843 -0.099,2.50482 0.22782,0.34895 0.80028,0.50092 1.15996,0.27709 0.43735,-0.50834 0.37693,-1.25889 0.45308,-1.88794 0.0602,-0.81199 -0.0501,-1.69216 -0.64855,-2.29939 -0.74165,-0.8406 -1.52757,-1.65762 -2.36422,-2.39816 z"
         id="path2396"
         transform="scale(0.26458333)" class="OF" />
      <path
         style="fill:#808080;stroke:#000000;stroke-width:0.00351168"
         d="m 231.78031,121.35616 c -0.33942,-0.0306 -0.49861,0.15189 -0.36365,0.48972 0.40905,2.08565 1.14383,4.09415 1.85831,6.09139 0.36147,0.85231 0.62211,1.78912 1.21907,2.5129 0.11939,0.18659 0.36133,0.17323 0.41221,-0.0578 0.33282,-0.85295 0.43081,-1.79789 0.37518,-2.7066 -0.37736,-0.93634 -0.6628,-1.91204 -0.80934,-2.91373 -0.1946,-0.92411 -0.17847,-1.95355 -0.7085,-2.76928 -0.48533,-0.53675 -1.3063,-0.59376 -1.98328,-0.64665 z"
         id="path2397"
         transform="scale(0.26458333)" class="OF" />
      <path
         style="fill:#808080;stroke:#000000;stroke-width:0.00351168"
         d="m 233.83931,117.48865 c -0.85024,0.23834 -1.42563,0.99151 -2.08397,1.53293 0.47323,0.20293 1.07176,0.34546 1.62073,0.38821 0.57422,0.0441 0.74804,-0.62814 0.73429,-1.07957 -0.0254,-0.24446 0.0785,-0.78546 -0.27105,-0.84157 z"
         id="path2398"
         transform="scale(0.26458333)" class="OF" />
      <path
         style="fill:#808080;stroke:#000000;stroke-width:0.00351168"
         d="m 236.54467,116.57905 c -0.23942,0.0175 -0.50638,0.14837 -0.38031,0.4373 0.0402,0.70745 0.001,1.69727 0.80514,2.00345 1.58875,0.51962 3.31807,0.51436 4.87808,1.13471 0.61474,0.34125 1.36201,0.0869 2.00489,-0.035 0.4578,-0.15783 1.03718,-0.26818 1.32805,-0.68706 -0.005,-0.31859 -0.47979,-0.33222 -0.68514,-0.47449 -2.40677,-0.90494 -4.8593,-1.71068 -7.36237,-2.30398 -0.19425,-0.0343 -0.38979,-0.0814 -0.58834,-0.0749 z"
         id="path2399"
         transform="scale(0.26458333)" class="OF" />
      <path
         style="fill:#ff00ff;stroke:#000000;stroke-width:0.00351168"
         d="m 251.86368,89.260804 c -0.3766,0.134917 -0.51575,0.608514 -0.76885,0.895852 -0.5714,0.802853 -1.30475,1.478731 -2.14626,1.983998 -0.26183,0.240458 0.14052,0.56869 0.23622,0.798358 0.95119,1.308958 2.14248,2.428086 3.34761,3.499469 0.19099,0.114371 0.44749,0.465769 0.65131,0.172565 1.12721,-1.04036 2.17126,-2.202783 3.13719,-3.373405 -1.32059,-1.271914 -2.52656,-2.681497 -3.9911,-3.793571 -0.14062,-0.08777 -0.29436,-0.185097 -0.46612,-0.183266 z"
         id="path2400"
         transform="scale(0.26458333)" class="IF" />
      <path
         style="fill:#ff00ff;stroke:#000000;stroke-width:0.00351168"
         d="m 250.2376,81.562274 c 0.49635,1.338259 1.40475,2.559606 1.5578,4.0094 0.0788,0.781054 -0.47875,1.478051 -0.40347,2.253046 0.22477,0.574653 0.94997,0.697783 1.42374,0.990677 0.16472,0.128335 0.50436,0.180661 0.50302,-0.115639 0.0365,-1.126427 0.13009,-2.295302 -0.19451,-3.390826 -0.5058,-1.358961 -1.62989,-2.356019 -2.5376,-3.446382 -0.11097,-0.05442 -0.21801,-0.354752 -0.34898,-0.300276 z"
         id="path2401"
         transform="scale(0.26458333)" class="IF" />
      <path
         style="fill:#ff00ff;stroke:#000000;stroke-width:0.00351168"
         d="m 241.13454,91.157796 c -0.0291,0.169254 0.2869,0.300639 0.38057,0.444888 1.19949,1.039643 2.36708,2.359309 4.01122,2.636883 0.90371,-8.59e-4 1.82857,0.08533 2.72018,-0.06667 0.26362,-0.253419 -0.11354,-0.631749 -0.19566,-0.890353 -0.25485,-0.374153 -0.36427,-0.891344 -0.73137,-1.173169 -0.73067,-0.03346 -1.34223,0.551263 -2.07792,0.547876 -1.18278,0.106767 -2.206,-0.665839 -3.24363,-1.113695 -0.28595,-0.128766 -0.5641,-0.293805 -0.86339,-0.385763 z"
         id="path2402"
         transform="scale(0.26458333)" class="IF" />
      <path
         style="fill:#ff00ff;stroke:#000000;stroke-width:0.00351168"
         d="m 256.25478,95.361932 c -0.60978,0.139471 -1.06284,0.695496 -1.33444,1.23087 -0.18241,0.403641 0.30601,0.624964 0.63499,0.619345 0.49132,0.08337 1.1261,-0.161856 1.15062,-0.729771 0.0355,-0.362357 0.0908,-1.122779 -0.45117,-1.120444 z"
         id="path2403"
         transform="scale(0.26458333)" class="IF" />
      <path
         style="fill:#ff00ff;stroke:#000000;stroke-width:0.00351168"
         d="m 254.58056,99.227109 c -0.22135,0.03819 -0.74963,-0.05054 -0.67874,0.326065 0.29991,1.588386 0.90927,3.102676 1.45437,4.619816 0.32192,0.72973 0.53535,1.54647 1.03357,2.17734 0.31794,0.12873 0.29193,0.59807 0.36369,0.88081 0.0846,0.49469 0.13467,1.17007 0.6296,1.431 0.28528,-0.0998 0.1927,-0.54059 0.25775,-0.77847 0.19047,-2.32847 -0.27096,-4.65775 -0.84939,-6.90264 -0.18882,-0.69097 -0.47362,-1.586609 -1.30549,-1.695485 -0.2976,-0.05737 -0.60314,-0.06583 -0.90536,-0.05844 z"
         id="path2404"
         transform="scale(0.26458333)" class="IF" />
      <path
         style="fill:#ff00ff;stroke:#000000;stroke-width:0.00351168"
         d="m 259.21762,94.371255 c -0.45845,0.146179 -0.50054,0.760012 -0.50165,1.168867 -0.0668,0.795259 0.68844,1.332601 1.39864,1.445823 1.19028,0.292258 2.4497,0.133345 3.62786,0.440058 0.43484,0.214015 0.8401,0.552338 1.36086,0.498175 0.99789,-0.0053 2.03449,-0.07145 2.96825,-0.446186 0.30335,-0.1655 -0.1265,-0.376123 -0.27573,-0.449934 -2.11037,-0.998498 -4.35732,-1.683172 -6.60195,-2.309481 -0.64843,-0.158201 -1.30415,-0.343333 -1.97628,-0.347322 z"
         id="path2405"
         transform="scale(0.26458333)" class="IF" />
      <path
         style="fill:#0000ff;stroke:#000000;stroke-width:0.00351168"
         d="m 280.23241,94.368648 c -0.5063,0.132656 -0.33793,0.833233 -0.62045,1.170102 -0.70515,0.990928 -1.91704,1.461921 -2.84336,2.155018 1.46482,1.392688 2.83544,2.896892 4.42142,4.155032 0.16751,0.21403 0.41814,0.16782 0.58327,-0.0188 1.06053,-0.92693 2.05451,-1.978738 2.74652,-3.213594 0.20242,-0.488747 -0.33743,-0.869091 -0.57744,-1.228093 -1.01957,-1.107834 -2.1246,-2.18279 -3.43342,-2.94271 -0.0869,-0.0387 -0.17919,-0.08091 -0.27654,-0.07696 z"
         id="path2406"
         transform="scale(0.26458333)" class="IC" />
      <path
         style="fill:#0000ff;stroke:#000000;stroke-width:0.00351168"
         d="m 278.9789,87.161205 c 0.0439,0.361857 0.31413,0.724961 0.44747,1.079792 0.51595,1.123542 1.23924,2.365274 0.79568,3.63335 -0.0715,0.39256 -0.3503,0.797444 -0.26427,1.196627 0.42999,0.394283 0.98462,0.659313 1.51729,0.889716 0.46726,0.0768 0.49422,-0.555845 0.5507,-0.876994 0.11253,-1.015925 0.29041,-2.128912 -0.28828,-3.048128 -0.8296,-1.017504 -1.75473,-1.9659 -2.71264,-2.863389 -0.0132,-0.0086 -0.0298,-0.01803 -0.046,-0.01097 z"
         id="path2407"
         transform="scale(0.26458333)" class="IC" />
      <path
         style="fill:#0000ff;stroke:#000000;stroke-width:0.00351168"
         d="m 269.93386,96.495545 c -0.0516,0.164881 0.28813,0.313395 0.37614,0.45693 1.17703,1.018822 2.31235,2.309215 3.91565,2.605363 0.82917,0.03526 1.70173,0.09219 2.49906,-0.174212 0.29189,-0.221545 -0.0184,-0.644878 -0.12813,-0.890266 -0.29185,-0.435162 -0.61405,-1.102077 -1.22332,-1.093969 -0.73501,0.145942 -1.41739,0.728899 -2.1951,0.463729 -1.13738,-0.302177 -2.15767,-0.939363 -3.2443,-1.367575 z"
         id="path2408"
         transform="scale(0.26458333)" class="IC" />
      <path
         style="fill:#0000ff;stroke:#000000;stroke-width:0.00351168"
         d="m 284.89402,100.36319 c -0.60378,0.16981 -1.02914,0.72722 -1.36119,1.23073 -0.27483,0.44516 0.27149,0.83329 0.67394,0.85762 0.37455,0.0183 0.90922,0.15864 1.17491,-0.1845 0.11204,-0.58468 -0.29091,-1.13755 -0.28423,-1.7258 -0.009,-0.10362 -0.0949,-0.19367 -0.20343,-0.17805 z"
         id="path2409"
         transform="scale(0.26458333)" class="IC" />
      <path
         style="fill:#0000ff;stroke:#000000;stroke-width:0.00351168"
         d="m 287.21598,99.391444 c -0.26677,0.05446 -0.0625,0.444856 -0.0779,0.623596 0.11588,0.71604 0.28062,1.62987 1.07011,1.89576 1.46136,0.47819 3.04104,0.49913 4.4815,1.0653 0.94421,0.37545 1.99958,0.18022 2.94377,-0.0878 0.22805,-0.0842 0.46941,-0.2246 0.59603,-0.4236 -0.58113,-0.67026 -1.50985,-0.86266 -2.29437,-1.19946 -2.1778,-0.7614 -4.40615,-1.389684 -6.66123,-1.872297 -0.0192,-0.0025 -0.0386,-0.0013 -0.0579,-0.0015 z"
         id="path2410"
         transform="scale(0.26458333)" class="IC" />
      <path
         style="fill:#0000ff;stroke:#000000;stroke-width:0.00351168"
         d="m 282.6984,104.41561 c -0.15417,-0.002 -0.51078,-0.0205 -0.35295,0.2417 0.84008,3.08016 1.92179,6.10229 3.3221,8.97234 0.16943,-0.12962 0.16539,-0.49231 0.26547,-0.70332 0.41873,-1.18685 0.43513,-2.50787 -0.008,-3.6908 -0.40836,-1.36078 -0.53926,-2.78707 -0.94459,-4.14598 -0.15293,-0.57088 -0.8024,-0.67239 -1.30517,-0.65527 -0.3255,-0.0101 -0.65115,-0.0223 -0.97687,-0.0187 z"
         id="path2411"
         transform="scale(0.26458333)" class="IC" />
      <path
         style="fill:#ff6600;stroke:#000000;stroke-width:0.00351168"
         d="m 284.91803,124.40117 c -0.5766,0.60157 -1.22295,1.17364 -1.7568,1.79329 1.24149,1.26608 2.41447,2.67903 3.98421,3.55258 0.67645,0.3339 1.30849,-0.31505 1.79689,-0.70085 0.6701,-0.695 1.3608,-1.40173 1.90247,-2.19672 -1.31964,-1.45388 -2.7569,-2.80251 -4.13308,-4.20455 -0.61856,0.5316 -1.19332,1.18071 -1.79369,1.75625 z"
         id="path2412"
         transform="scale(0.26458333)" class="OR" />
      <path
         style="fill:#ff6600;stroke:#000000;stroke-width:0.00351168"
         d="m 285.02187,115.32335 c 0.0149,0.30361 0.29735,0.61011 0.41229,0.90512 0.49922,0.87584 1.00557,1.80956 0.91295,2.85265 0.0419,0.78975 -0.15524,1.58288 -0.0454,2.36654 0.17593,0.51784 0.84329,0.62594 1.32086,0.6321 0.39919,-0.0631 0.37529,-0.60982 0.45281,-0.91633 0.14405,-0.96448 -0.0205,-1.96869 -0.54993,-2.79795 -0.6527,-1.13722 -1.56691,-2.1041 -2.47436,-3.03843 -0.009,-0.005 -0.0196,-0.007 -0.0292,-0.004 z"
         id="path2413"
         transform="scale(0.26458333)" class="OR" />
      <path
         style="fill:#ff6600;stroke:#000000;stroke-width:0.00351168"
         d="m 276.81798,125.20845 c -0.29118,0.0598 0.0236,0.41846 0.11605,0.53662 1.02756,1.23689 2.54989,2.01753 4.13597,2.21826 0.54795,-0.0311 1.23173,0.12119 1.67202,-0.28766 0.29698,-0.52284 -0.13925,-1.13028 -0.48656,-1.51317 -0.3125,-0.36267 -0.82949,-0.45648 -1.25817,-0.25378 -0.86484,0.22932 -1.83149,0.32697 -2.64441,-0.13327 -0.50433,-0.19599 -0.98879,-0.50864 -1.5349,-0.567 z"
         id="path2414"
         transform="scale(0.26458333)" class="OR" />
      <path
         style="fill:#ff6600;stroke:#000000;stroke-width:0.00351168"
         d="m 290.8267,128.50202 c -0.64138,0.22665 -1.11269,0.80448 -1.47902,1.3572 -0.23164,0.31106 0.0385,0.67799 0.37243,0.74075 0.49474,0.13614 1.06695,0.29818 1.56256,0.10905 0.39789,-0.36421 0.14172,-0.98232 0.0615,-1.43434 -0.10007,-0.25911 -0.17832,-0.73307 -0.51749,-0.77266 z"
         id="path2415"
         transform="scale(0.26458333)" class="OR" />
      <path
         style="fill:#ff6600;stroke:#000000;stroke-width:0.00351168"
         d="m 289.77388,132.78955 c -0.41034,0.0379 -0.87679,-0.0384 -1.25721,0.11098 0.001,0.82968 0.40632,1.60652 0.61273,2.40016 0.78021,2.42563 1.65781,4.82975 2.78331,7.1169 0.15039,-0.0217 0.0949,-0.36734 0.16254,-0.49963 0.18857,-1.17646 0.54395,-2.41972 0.19562,-3.5993 -0.6982,-1.57051 -0.62272,-3.34646 -1.14019,-4.96792 -0.18536,-0.6194 -0.83787,-0.57381 -1.3568,-0.56119 z"
         id="path2416"
         transform="scale(0.26458333)" class="OR" />
      <path
         style="fill:#ff6600;stroke:#000000;stroke-width:0.00351168"
         d="m 293.34482,127.58898 c -0.15605,0.37477 -0.0469,0.8481 -0.0699,1.25524 0.0125,0.49042 -0.0189,1.17404 0.5634,1.35712 1.2729,0.41816 2.64015,0.4188 3.93211,0.76352 0.83731,0.1344 1.60517,0.64166 2.47794,0.50946 0.84761,-0.0609 1.7709,-0.0264 2.53472,-0.44362 0.0488,-0.23728 -0.33681,-0.32392 -0.48327,-0.44651 -2.82295,-1.41693 -5.91323,-2.16817 -8.9438,-2.99603 z"
         id="path2417"
         transform="scale(0.26458333)" class="OR" />
      <path
         style="fill:#00ff00;stroke:#000000;stroke-width:0.00351168"
         d="m 309.71568,100.41587 c -0.43426,0.12927 -0.46681,0.71425 -0.72593,1.02853 -0.68622,0.95693 -1.65909,1.69929 -2.47409,2.5136 1.2406,1.18977 2.38887,2.49171 3.74602,3.5516 0.23376,0.18157 0.55513,0.37085 0.81807,0.124 0.99264,-0.6862 1.9145,-1.51708 2.61236,-2.50591 0.20058,-0.24889 0.25002,-0.58727 0.0178,-0.83554 -1.01073,-1.38684 -2.253,-2.60075 -3.56984,-3.69549 -0.1261,-0.0854 -0.26464,-0.18633 -0.42442,-0.18079 z"
         id="path2418"
         transform="scale(0.26458333)" class="IR" />
      <path
         style="fill:#00ff00;stroke:#000000;stroke-width:0.00351168"
         d="m 298.79875,102.23453 c -0.11506,0.13938 0.22582,0.28479 0.29707,0.39528 1.14407,0.89067 2.21661,1.96312 3.59967,2.47524 1.10517,0.35214 2.29374,0.25274 3.43416,0.1963 0.33376,-0.0138 0.28426,-0.44354 0.11592,-0.62373 -0.30428,-0.49936 -0.72895,-1.17503 -1.41798,-1.02209 -1.27216,0.10885 -2.60669,0.18648 -3.78397,-0.4011 -0.75726,-0.31566 -1.48123,-0.7255 -2.24487,-1.0199 z"
         id="path2419"
         transform="scale(0.26458333)" class="IR" />
      <path
         style="fill:#00ff00;stroke:#000000;stroke-width:0.00351168"
         d="m 308.31869,93.013635 c 0.49835,1.318801 1.40204,2.530419 1.52594,3.965177 0.0467,0.859504 -0.57123,1.574558 -0.68451,2.3948 0.27261,0.315675 0.77853,0.335654 1.15172,0.4904 0.29279,0.02967 0.77432,0.336638 0.9782,-0.01454 0.26023,-0.817456 0.18234,-1.709203 0.12016,-2.553785 -0.3401,-1.616612 -1.66868,-2.731474 -2.69017,-3.9359 -0.12502,-0.07816 -0.25568,-0.387768 -0.40134,-0.346152 z"
         id="path2420"
         transform="scale(0.26458333)" class="IR" />
      <path
         style="fill:#00ff00;stroke:#000000;stroke-width:0.00351168"
         d="m 314.17579,106.66281 c -0.67361,0.11623 -1.08382,0.76796 -1.47395,1.26969 -0.18698,0.29111 0.28878,0.39266 0.48162,0.44815 0.48807,0.0915 1.04475,0.35452 1.5284,0.13567 0.21423,-0.37452 0.11877,-0.86701 0.0793,-1.28067 -0.0454,-0.302 -0.2817,-0.60566 -0.61536,-0.57284 z"
         id="path2421"
         transform="scale(0.26458333)" class="IR" />
      <path
         style="fill:#00ff00;stroke:#000000;stroke-width:0.00351168"
         d="m 312.53408,110.1926 c -0.40446,0.004 -0.54344,0.45116 -0.46791,0.78903 0.13294,1.55819 0.74374,3.0274 1.22832,4.50078 0.42103,1.05573 0.76759,2.18969 1.5016,3.07827 0.12251,0.15506 0.38998,0.3514 0.52812,0.10343 0.54353,-0.8193 0.72217,-1.89016 0.3229,-2.80924 -0.50266,-1.05014 -0.74798,-2.19571 -0.80767,-3.35335 -0.0406,-0.74442 -0.31801,-1.56693 -1.05886,-1.8808 -0.39225,-0.1843 -0.80204,-0.4227 -1.2465,-0.42812 z"
         id="path2422"
         transform="scale(0.26458333)" class="IR" />
      <path
         style="fill:#00ff00;stroke:#000000;stroke-width:0.00351168"
         d="m 317.04398,105.44099 c -0.44086,0.006 -0.36083,0.60125 -0.37051,0.89631 0.0124,0.65173 0.0849,1.56931 0.8594,1.75597 1.67083,0.4536 3.46847,0.3634 5.09207,0.99918 0.39211,0.37957 0.99595,0.17644 1.4664,0.0883 0.55218,-0.17633 1.15644,-0.4077 1.52977,-0.86845 -0.0373,-0.25403 -0.43193,-0.30591 -0.62052,-0.43035 -2.40897,-0.94069 -4.88205,-1.72736 -7.38834,-2.36429 -0.18688,-0.0401 -0.37585,-0.0831 -0.56827,-0.0767 z"
         id="path2423"
         transform="scale(0.26458333)" class="IR" />
      <path
         style="fill:#ffff00;stroke:#000000;stroke-width:0.00351168"
         d="m 316.43355,128.93809 c -0.42419,0.0339 -0.63664,0.47454 -0.64541,0.85351 -0.50691,1.11636 -1.74251,1.58799 -2.68698,2.25694 -0.0935,0.078 -0.40498,0.1883 -0.17778,0.3192 1.22537,1.12996 2.37729,2.37249 3.79275,3.27066 0.61127,0.43459 1.4999,0.50512 2.0819,-0.0203 0.77598,-0.66456 1.31476,-1.57337 1.75337,-2.48355 0.11736,-0.50441 -0.39014,-0.88478 -0.65041,-1.25135 -0.98639,-1.04895 -2.00954,-2.09899 -3.21957,-2.88996 -0.0757,-0.0404 -0.162,-0.0611 -0.24787,-0.0551 z"
         id="path2424"
         transform="scale(0.26458333)" class="T" />
      <path
         style="fill:#ffff00;stroke:#000000;stroke-width:0.00351168"
         d="m 314.66605,121.08085 c -0.0156,0.25597 0.27492,0.53058 0.36557,0.78382 0.5617,1.08095 1.34498,2.10381 1.5782,3.31799 0.0658,0.84307 -0.55422,1.55551 -0.64075,2.36873 0.14885,0.44484 0.73673,0.5273 1.06959,0.79121 0.33584,0.14077 0.65148,0.44397 1.01245,0.47794 0.22193,-0.30945 0.0818,-0.76417 0.13231,-1.12429 0.0278,-1.19129 0.0159,-2.49214 -0.74246,-3.48548 -0.8226,-1.12064 -1.77417,-2.14862 -2.75749,-3.12745 l -0.0147,-0.003 z"
         id="path2425"
         transform="scale(0.26458333)" class="T" />
      <path
         style="fill:#ffff00;stroke:#000000;stroke-width:0.00351168"
         d="m 305.89234,131.0473 c -0.015,0.18868 0.32704,0.32648 0.43868,0.48418 1.04815,0.92672 2.12606,1.87227 3.46623,2.34937 0.82306,0.32141 1.82871,0.55631 2.65082,0.11694 0.46291,-0.31388 0.14062,-0.94334 -0.0819,-1.30453 -0.2468,-0.43068 -0.75351,-0.95756 -1.29054,-0.6594 -0.54861,0.2368 -1.13777,0.50538 -1.74034,0.30809 -1.2026,-0.25848 -2.28483,-0.90586 -3.44295,-1.29465 z"
         id="path2426"
         transform="scale(0.26458333)" class="T" />
      <path
         style="fill:#ffff00;stroke:#000000;stroke-width:0.00351168"
         d="m 320.85703,134.89423 c -0.55836,0.32075 -1.09385,0.79501 -1.3557,1.39685 -0.16128,0.48113 0.4705,0.73674 0.85007,0.75035 0.37551,-0.0451 0.97031,0.0887 1.1701,-0.33101 0.0557,-0.61201 -0.17803,-1.25416 -0.52606,-1.75254 -0.0357,-0.0361 -0.0841,-0.0748 -0.13841,-0.0636 z"
         id="path2427"
         transform="scale(0.26458333)" class="T" />
      <path
         style="fill:#ffff00;stroke:#000000;stroke-width:0.00351168"
         d="m 319.78404,139.03746 c -0.42893,-0.0128 -1.11816,0.17794 -1.05226,0.72675 0.54851,2.36919 1.39428,4.66018 2.23004,6.94066 0.20921,0.41336 0.27953,1.02271 0.74281,1.23263 0.35167,-0.11583 0.39879,-0.60798 0.48253,-0.92057 0.41078,-2.00844 -0.41445,-3.97097 -0.75863,-5.92178 -0.18486,-0.64491 -0.20561,-1.46501 -0.77974,-1.90694 -0.25702,-0.15671 -0.57382,-0.15315 -0.86475,-0.15075 z"
         id="path2428"
         transform="scale(0.26458333)" class="T" />
      <path
         style="fill:#ffff00;stroke:#000000;stroke-width:0.00351168"
         d="m 323.24236,133.86446 c -0.13593,0.18701 0.0323,0.51637 0.0189,0.74239 0.1274,0.56881 0.10947,1.30357 0.61235,1.6926 1.01291,0.56174 2.22657,0.4981 3.32692,0.77265 0.9707,0.11814 1.84999,0.69168 2.8491,0.60967 0.97259,-0.0273 1.99622,-0.0115 2.91182,-0.37601 0.2192,-0.18233 -0.2296,-0.3306 -0.33896,-0.41234 -2.19414,-1.04189 -4.50325,-1.84233 -6.84599,-2.47807 -0.83939,-0.19948 -1.6782,-0.43851 -2.53417,-0.55089 z"
         id="path2429"
         transform="scale(0.26458333)" class="T" />
    </g>
    <path
       style="fill:#ffffff;fill-opacity:1;stroke:#000000;stroke-width:0.0064821;stroke-opacity:0"
       d="m 213.54232,86.557775 c -0.26346,0.297895 0.44432,0.561511 0.58693,0.802666 1.04349,0.921075 2.30271,1.809726 3.77278,1.650656 0.7705,-0.0054 1.56685,0.07217 2.32039,-0.01798 -0.37388,-0.666572 -0.79037,-1.527547 -1.49974,-1.952479 -0.88477,-0.206081 -1.71887,0.608703 -2.60955,0.284858 -0.87514,-0.187745 -1.69356,-0.599184 -2.57081,-0.767724 z"
       id="path43"
       transform="scale(0.26458333)" class="P" />
    <path
       style="fill:#ffffff;fill-opacity:1;stroke:#000000;stroke-width:0.0064821;stroke-opacity:0"
       d="m 223.13734,83.782121 c -0.67415,0.666821 -0.96174,1.696963 -1.79524,2.248477 -0.36476,0.424788 -1.29477,0.541744 -1.28882,1.18982 0.98569,1.505738 2.28911,2.817104 3.67682,3.959396 0.30871,0.337 0.76605,0.419788 1.09967,0.0628 1.0438,-0.848036 2.22323,-1.779233 2.63108,-3.109128 -0.31515,-1.13646 -1.40965,-1.861113 -2.16894,-2.704203 -0.68006,-0.553191 -1.3099,-1.368405 -2.15457,-1.647158 z"
       id="path44"
       transform="scale(0.26458333)" class="P" />
    <path
       style="fill:#ffffff;fill-opacity:1;stroke:#000000;stroke-width:0.0064821;stroke-opacity:0"
       d="m 222.22807,77.095939 c -0.28919,0.29539 0.24216,0.80995 0.29372,1.153611 0.58068,1.092453 1.07343,2.408514 0.36766,3.562115 -0.30727,0.447177 -0.20046,1.086388 0.35727,1.261223 0.51498,0.195204 1.04728,0.635432 1.60103,0.606684 0.37844,-0.907151 0.1941,-1.987177 0.1061,-2.947835 -0.26033,-1.505681 -1.53496,-2.54282 -2.55512,-3.568192 -0.0502,-0.03421 -0.10627,-0.07513 -0.17066,-0.06761 z"
       id="path45"
       transform="scale(0.26458333)" class="P" />
    <path
       style="fill:#ffffff;fill-opacity:1;stroke:#000000;stroke-width:0.0064821;stroke-opacity:0"
       d="m 227.65328,89.746917 c -0.65508,0.391155 -1.30435,0.977875 -1.62736,1.67471 0.43074,0.76546 1.74431,0.759566 2.30976,0.142556 0.15481,-0.604164 -0.13776,-1.361301 -0.56162,-1.80334 -0.0371,-0.01842 -0.0804,-0.02318 -0.12078,-0.01393 z"
       id="path46"
       transform="scale(0.26458333)" class="P" />
    <path
       style="fill:#ffffff;fill-opacity:1;stroke:#000000;stroke-width:0.0064821;stroke-opacity:0"
       d="m 226.44878,93.830891 c -0.57293,-0.06839 -0.97191,0.45656 -0.829,1.0027 0.3683,2.876025 1.68309,5.525969 2.65513,8.228969 0.31425,0.47588 0.60595,-0.32656 0.67505,-0.58389 0.46284,-1.03948 0.74018,-2.324 0.009,-3.313215 -0.80033,-1.470327 -0.24609,-3.281174 -1.08272,-4.739021 -0.3034,-0.448741 -0.91896,-0.588391 -1.42707,-0.595543 z"
       id="path47"
       transform="scale(0.26458333)" class="P" />
    <path
       style="fill:#ffffff;fill-opacity:1;stroke:#000000;stroke-width:0.0064821;stroke-opacity:0"
       d="m 230.17523,89.105797 c -0.59295,0.03997 -0.10497,0.79384 -0.0415,1.118415 0.21458,0.90889 0.98284,1.600678 1.92716,1.645338 1.45826,0.12557 2.94411,0.222395 4.2878,0.862423 1.02253,0.131813 2.03527,-0.264434 3.05444,-0.334486 0.34034,0.03503 0.55978,-0.362145 0.17851,-0.492235 -2.45135,-1.178406 -5.08197,-1.987408 -7.72889,-2.599675 -0.55321,-0.09994 -1.11282,-0.211801 -1.67749,-0.19978 z"
       id="path48"
       transform="scale(0.26458333)" class="P" />
  </g>
</svg>
