<?xml version="1.0" encoding="UTF-8" standalone="no"?>
<!-- Created with Inkscape (http://www.inkscape.org/) -->

<svg
   width="34.750515mm"
   height="35.812916mm"
   viewBox="0 0 34.750515 35.812916"
   version="1.1"
   id="svg1"
   xmlns="http://www.w3.org/2000/svg"
   xmlns:svg="http://www.w3.org/2000/svg">
  <defs
     id="defs1" />
  <path
     id="path2078"
     style="fill:#000000;stroke-width:0.264583"
     d="m 31.220332,26.271041 c -0.38346,-0.410519 -0.782346,-1.352489 -1.106857,-2.613882 -0.08541,-0.331978 -0.30107,-0.693666 -0.546894,-0.917178 -0.359437,-0.32684 -0.488606,-0.365874 -1.129321,-0.341299 -0.669608,0.02566 -0.757132,-0.0049 -1.175332,-0.410133 -0.342503,-0.331912 -0.451856,-0.384961 -0.451856,-0.219213 0,0.50709 -1.072409,0.543499 -1.611286,0.05471 -0.367823,-0.333627 -1.946433,-0.491556 -1.946433,-0.194728 0,0.556815 0.289533,1.580793 0.514746,1.820539 0.345837,0.368121 0.446988,1.064451 0.202036,1.390748 -0.187192,0.249344 -0.199099,0.246095 -0.63291,-0.17264 -0.33221,-0.320654 -0.539749,-0.721183 -0.834786,-1.610897 -0.215953,-0.651275 -0.392642,-1.269212 -0.392642,-1.373193 0,-0.103981 -0.216085,-0.360196 -0.480192,-0.569365 -0.404231,-0.320167 -0.58293,-0.377113 -1.129956,-0.360098 -0.483262,0.01503 -0.719138,-0.04251 -0.920486,-0.224557 -0.207565,-0.187645 -0.30562,-0.209886 -0.420211,-0.0953 -0.261091,0.261081 -1.062699,0.177168 -1.454811,-0.152291 -0.253392,-0.212894 -0.598647,-0.329478 -1.172369,-0.395872 l -0.813197,-0.09411 0.08819,0.860663 c 0.06591,0.643202 0.167031,0.954365 0.400235,1.231524 0.369702,0.439346 0.440002,1.326743 0.115014,1.451454 -0.482415,0.185119 -1.249548,-1.056867 -1.658593,-2.685237 -0.168752,-0.67177 -0.288317,-0.88351 -0.658337,-1.165744 -0.371977,-0.28371 -0.562874,-0.338997 -1.076325,-0.311745 -0.444076,0.02357 -0.692811,-0.02897 -0.862012,-0.182102 -0.218943,-0.198144 -0.254132,-0.198938 -0.443071,-0.01 -0.306996,0.307012 -1.135883,0.267282 -1.449626,-0.06948 -0.274955,-0.29514 -1.740561,-0.584869 -1.941592,-0.383831 -0.188806,0.188809 0.04717,1.567587 0.313955,1.834375 0.498422,0.498406 0.570971,1.619543 0.104801,1.619543 -0.444262,0 -0.885401,-0.687191 -1.347364,-2.098981 C 6.71058,18.072714 6.456316,17.78866 5.42833,17.78866 4.756923,17.78866 4.624473,17.7427 4.166665,17.350838 3.88536,17.110035 3.533781,16.89562 3.385403,16.874355 3.057028,16.827295 2.950613,16.420947 3.237818,16.31074 c 0.116179,-0.04459 0.476462,0.06714 0.820711,0.254508 0.337503,0.183687 0.731176,0.333978 0.874819,0.333978 0.297947,0 0.471302,-0.19708 0.278288,-0.316376 -0.07104,-0.04389 -0.129143,-0.300952 -0.129143,-0.57124 0,-0.549624 0.182536,-0.659667 0.812218,-0.489617 0.706041,0.190669 0.775494,-0.17929 0.203121,-1.081815 C 5.808933,13.984637 5.745169,13.781871 5.836926,13.610466 5.923026,13.449594 5.867906,13.09896 5.647458,12.404754 5.476484,11.866375 5.336626,11.370075 5.336626,11.301868 c 0,-0.06821 -0.184918,-0.289227 -0.410925,-0.49116 C 4.558168,10.482326 4.44752,10.45041 3.877448,10.508419 3.277903,10.569419 3.200644,10.541779 2.575355,10.042507 2.209753,9.750587 1.858863,9.543727 1.795627,9.58282 1.732367,9.62191 1.61497,9.57482 1.534775,9.478164 1.422777,9.343216 1.436265,9.255075 1.592985,9.098378 1.849604,8.841759 1.807933,8.835478 2.3675,9.2152 3.298066,9.846696 3.802388,9.772542 3.527618,9.044615 3.413398,8.741992 3.409455,8.576001 3.512538,8.414607 3.655916,8.190347 4.203762,8.13648 4.589498,8.308719 4.984071,8.484894 4.968223,8.001109 4.553938,7.223826 4.187781,6.536868 4.169155,6.449484 4.350341,6.268305 4.578915,6.039723 4.828258,6.138799 4.828258,6.45821 c 0,0.119454 0.232384,0.498406 0.516414,0.842115 0.465799,0.563666 0.513212,0.685348 0.483685,1.241293 -0.04842,0.91226 0.364728,1.27612 1.926563,1.696739 0.87085,0.234529 1.261084,0.288305 1.413801,0.194839 0.159597,-0.09767 0.383593,-0.0356 0.920062,0.254963 0.801291,0.434001 1.325272,0.419814 1.084871,-0.02937 -0.07403,-0.138305 -0.116866,-0.434649 -0.0952,-0.658542 0.03247,-0.335767 0.09948,-0.414018 0.382508,-0.44668 0.188728,-0.02178 0.461169,0.02357 0.60542,0.100777 0.468947,0.250973 0.47961,-0.218541 0.02408,-1.054135 -0.319431,-0.585732 -0.376846,-0.788646 -0.262229,-0.926748 0.224103,-0.270026 0.349859,-0.215336 0.543005,0.236133 0.09716,0.227124 0.355203,0.58089 0.573484,0.786146 0.350785,0.329893 0.397246,0.4552 0.400553,1.080026 0.0056,1.067697 0.381899,1.419188 1.972548,1.842551 0.943187,0.251042 1.275477,0.294201 1.409382,0.183065 0.135864,-0.112768 0.343244,-0.05586 0.923555,0.253428 0.769435,0.410115 1.249548,0.424085 1.080241,0.03143 -0.368644,-0.855017 -0.08065,-1.286671 0.716544,-1.073894 0.430689,0.114957 0.505037,0.103098 0.566447,-0.09034 0.04032,-0.127069 -0.09755,-0.507963 -0.321151,-0.887177 -0.215503,-0.365482 -0.373936,-0.757317 -0.352081,-0.870744 0.05601,-0.29084 0.53041,-0.26126 0.587771,0.03665 0.02567,0.133586 0.275908,0.532765 0.555969,0.887064 0.469662,0.594169 0.503794,0.68989 0.439473,1.232942 -0.06379,0.538446 -0.03514,0.621975 0.335201,0.977464 0.27649,0.265419 0.666882,0.45398 1.230842,0.59451 0.454236,0.113194 1.042696,0.289555 1.307676,0.391912 0.26498,0.102359 0.610712,0.153744 0.768324,0.114189 0.18116,-0.04547 0.494638,0.04703 0.852355,0.251502 0.568643,0.325027 1.137629,0.428903 1.137629,0.20769 0,-0.06533 -0.05866,-0.273008 -0.130307,-0.4615 -0.258339,-0.679447 0.147214,-1.076653 0.83304,-0.815906 0.624549,0.237451 0.683234,-0.03398 0.206243,-0.95395 -0.232463,-0.44836 -0.385763,-0.874897 -0.340678,-0.947861 0.142717,-0.230908 0.575258,-0.153033 0.575258,0.103571 0,0.129929 0.228705,0.496064 0.508238,0.813633 0.455744,0.517747 0.508635,0.647586 0.511968,1.256744 0.005,0.929762 0.415793,1.388079 1.451531,1.619867 1.678411,0.375616 2.864855,0.990118 2.864855,1.483831 0,0.410638 -1.121674,0.415687 -1.61028,0.0072 -0.405262,-0.33874 -1.733074,-0.579149 -1.880579,-0.340484 -0.177536,0.287232 0.08644,1.545392 0.393806,1.877049 0.322209,0.34766 0.425132,1.257703 0.170973,1.511848 -0.08956,0.08957 -0.04956,0.233847 0.12708,0.458404 0.186769,0.237442 0.257757,0.516858 0.257757,1.014492 0,0.58352 0.05255,0.737034 0.349435,1.020916 0.202724,0.193865 0.616082,0.392221 0.984726,0.472527 1.334823,0.290796 2.176569,0.641506 2.607945,1.086588 0.511546,0.527767 0.405792,0.730197 -0.381423,0.730197 -0.365628,0 -0.612246,-0.08528 -0.825235,-0.285379 -0.230453,-0.216493 -0.50972,-0.301911 -1.15697,-0.353867 l -0.853202,-0.06848 0.09112,0.805426 c 0.06575,0.581067 0.178832,0.909667 0.406003,1.179632 0.252545,0.300148 0.30734,0.488275 0.276834,0.950626 -0.0217,0.329007 -0.1084,0.599604 -0.202009,0.630428 -0.0902,0.0297 -0.347478,-0.142454 -0.571765,-0.382569 z m 0.04945,-1.430382 c -0.07138,-0.279567 -0.165126,-0.694132 -0.208333,-0.921255 -0.06284,-0.330531 -0.139911,-0.412952 -0.38608,-0.412952 -0.170603,0 -0.307551,0.07496 -0.307551,0.168339 0,0.192699 0.573219,1.915525 0.712099,2.140246 0.180631,0.292254 0.324617,-0.446682 0.189865,-0.974378 z m -7.89551,-1.527977 c -0.05808,-0.07163 -0.14523,-0.428993 -0.193649,-0.794136 -0.08303,-0.625888 -0.108955,-0.663898 -0.452887,-0.663898 -0.20066,0 -0.364834,0.0182 -0.364834,0.04047 0,0.16051 0.442119,1.473605 0.661246,1.963849 l 0.268367,0.600453 0.09366,-0.508249 c 0.05151,-0.279537 0.04614,-0.566853 -0.01191,-0.638487 z m 10.791613,-0.265737 c 0.08369,-0.07125 -1.093576,-0.539609 -1.858275,-0.739301 -0.397034,-0.103682 -0.733584,-0.176549 -0.747845,-0.161928 -0.01429,0.01463 0.0037,0.181248 0.04009,0.370279 0.0576,0.299937 0.141102,0.353322 0.655849,0.419354 0.324406,0.04161 0.675587,0.123135 0.780415,0.181158 0.16846,0.09324 0.998564,0.04214 1.129771,-0.06956 z m -3.035697,-0.165409 c 0,-0.06417 -0.03567,-0.209582 -0.07924,-0.323141 -0.07271,-0.189503 -0.09858,-0.18896 -0.314642,0.0066 -0.129487,0.117184 -0.204814,0.262596 -0.167402,0.323141 0.09086,0.147 0.561287,0.141478 0.561287,-0.0066 z m -15.287651,-1.1235 c -0.06609,-0.08808 -0.170339,-0.428792 -0.231669,-0.757137 -0.12962,-0.693801 -0.237596,-0.835478 -0.592191,-0.77705 -0.256937,0.04234 -0.256804,0.04642 0.03241,0.931958 0.159755,0.489188 0.360494,1.060966 0.446061,1.270619 l 0.155601,0.381185 0.154967,-0.444717 c 0.09932,-0.285006 0.111812,-0.502227 0.03482,-0.604858 z m 14.770734,0.617011 c 0.144542,-0.20297 0.262785,-0.414976 0.262785,-0.471125 0,-0.170186 -0.929243,-1.065771 -1.1058,-1.065771 -0.09065,0 -0.164809,0.08661 -0.164809,0.19246 0,0.105855 -0.183277,0.303919 -0.407299,0.440145 l -0.407274,0.247682 0.555493,0.512821 c 0.659977,0.609298 0.91485,0.638222 1.266904,0.143788 z m -1.845309,-0.247558 c 0.03683,-0.05959 -0.0071,-0.209772 -0.09784,-0.33374 -0.129752,-0.177419 -0.218149,-0.196855 -0.415396,-0.0913 -0.190976,0.102216 -0.384943,0.07522 -0.815843,-0.113562 l -0.565282,-0.247661 0.508264,0.442534 c 0.494507,0.430586 1.221079,0.610759 1.3861,0.343731 z m -2.613158,-0.72644 c 0.09705,-0.07998 -0.765677,-0.441391 -1.616392,-0.677137 l -0.904875,-0.250757 v 0.36117 c 0,0.339603 0.03982,0.366519 0.667067,0.450802 0.366898,0.0493 0.752502,0.136216 0.85688,0.193143 0.161634,0.08814 0.862542,0.03387 0.99732,-0.07722 z m 2.017448,0.09704 c 0.119089,-0.07567 0.121894,-0.206748 0.01191,-0.564766 -0.111178,-0.362225 -0.106865,-0.509874 0.01932,-0.661887 0.185208,-0.22316 0.670825,-0.255847 1.020524,-0.06869 0.426403,0.228206 0.449078,-0.308544 0.04175,-0.98852 -0.197591,-0.329811 -0.367904,-0.79978 -0.378487,-1.044374 -0.03299,-0.762291 -0.661696,-2.5722 -1.02534,-2.951753 -0.294957,-0.307866 -0.432382,-0.351859 -1.099264,-0.351859 -0.588619,0 -0.824098,-0.05817 -1.034097,-0.255444 -0.256249,-0.240726 -0.295196,-0.243819 -0.676355,-0.05368 -0.478922,0.238911 -1.066562,0.14964 -1.404779,-0.213405 -0.162242,-0.174133 -0.47535,-0.268761 -1.074446,-0.324705 l -0.84545,-0.07895 0.0029,0.431326 c 0.0048,0.693719 0.196215,1.329404 0.487944,1.621136 0.322422,0.322435 0.371502,1.169655 0.08435,1.456796 -0.164704,0.164693 -0.164704,0.205605 0,0.342289 0.123163,0.102211 0.18833,0.399489 0.190764,0.870286 0.0053,0.995312 0.425318,1.458095 1.563317,1.722014 0.448495,0.104013 1.097016,0.296098 1.441133,0.426855 0.40378,0.153427 0.691038,0.197398 0.809995,0.123981 0.126048,-0.07781 0.40513,0.0087 0.883126,0.273709 0.77732,0.43098 0.764514,0.427196 0.980996,0.289642 z M 8.257409,20.391467 c -0.06001,-0.0723 -0.14814,-0.425704 -0.195845,-0.78535 -0.074,-0.557911 -0.133376,-0.665602 -0.404336,-0.733613 -0.174704,-0.04384 -0.348641,-0.04869 -0.386556,-0.01077 -0.08956,0.08957 0.571897,2.098479 0.769276,2.336294 0.124671,0.150223 0.166608,0.106966 0.238892,-0.246448 0.04821,-0.235757 0.03858,-0.487805 -0.02143,-0.560102 z m 14.898978,0.637275 c -0.07276,-0.380555 -0.173805,-0.397264 -0.463894,-0.07671 -0.228415,0.252397 -0.137239,0.361937 0.319881,0.384334 0.151395,0.0074 0.188913,-0.07271 0.144013,-0.307623 z m -0.477811,-0.338452 0.338243,-0.401984 -0.559673,-0.559676 -0.559673,-0.559676 -0.47289,0.472887 -0.472889,0.472887 0.477255,0.488773 c 0.26252,0.268825 0.574966,0.48877 0.69432,0.48877 0.11938,0 0.369252,-0.18089 0.555307,-0.401981 z m 7.55695,-0.392155 c -0.0042,-0.451419 -0.09094,-0.63382 -0.527791,-1.111793 l -0.522605,-0.571777 0.353986,0.611531 c 0.305805,0.528344 0.333745,0.655892 0.205396,0.93762 -0.08173,0.179348 -0.132159,0.338852 -0.112051,0.354457 0.06252,0.04857 0.543031,0.312036 0.576527,0.316111 0.01746,0.0021 0.02942,-0.239141 0.02654,-0.536149 z m -9.352598,0.18919 c 0.03286,-0.05318 -0.01349,-0.197003 -0.103213,-0.319601 -0.125016,-0.170947 -0.233442,-0.1964 -0.465217,-0.109193 -0.208915,0.0786 -0.413756,0.0567 -0.66347,-0.07095 -0.508476,-0.259948 -0.54729,-0.130969 -0.07911,0.262977 0.382852,0.322133 1.170358,0.46436 1.31101,0.236767 z m -2.756905,-0.734684 c 0.04138,-0.107839 0.05358,-0.217721 0.02712,-0.244179 -0.111204,-0.111204 -2.015675,-0.619188 -2.080048,-0.554815 -0.03871,0.03871 -0.01297,0.221265 0.05707,0.405667 0.105648,0.277826 0.209656,0.336806 0.607113,0.344207 0.26379,0.0049 0.59399,0.05807 0.733743,0.118131 0.386847,0.166235 0.572214,0.146706 0.655002,-0.06901 z m 2.127647,0.11984 c 0.154093,-0.05913 0.168963,-0.131704 0.0663,-0.323524 -0.07279,-0.136012 -0.114618,-0.43048 -0.09297,-0.654376 0.03627,-0.374914 0.07453,-0.406421 0.484108,-0.398753 0.244581,0.0046 0.529114,0.03316 0.632301,0.06353 0.345096,0.101571 0.289243,-0.499798 -0.106098,-1.142328 -0.323797,-0.526222 -0.357028,-0.653886 -0.219286,-0.842275 0.134091,-0.183353 0.122264,-0.327631 -0.06787,-0.827984 -0.126629,-0.333269 -0.299191,-0.87978 -0.383461,-1.214467 -0.222593,-0.88401 -0.708554,-1.254286 -1.646396,-1.254519 -0.533426,-1.32e-4 -0.794543,-0.06388 -0.99142,-0.242051 -0.225637,-0.20419 -0.267256,-0.210686 -0.267256,-0.04168 0,0.238371 -0.627274,0.405641 -1.045421,0.278778 -0.158803,-0.04818 -0.408146,-0.196678 -0.554091,-0.329988 -0.179758,-0.164177 -0.54221,-0.268235 -1.123368,-0.322506 l -0.858017,-0.08012 0.08856,0.750059 c 0.04871,0.412536 0.182589,0.886275 0.297471,1.052759 0.460137,0.666729 0.530966,0.854318 0.461328,1.222047 -0.03971,0.209653 -0.0657,0.49554 -0.05778,0.635309 0.0079,0.139769 0.02786,0.552329 0.04429,0.9168 0.03929,0.871027 0.55962,1.491017 1.365673,1.627198 0.297736,0.0503 0.85516,0.199432 1.238753,0.331407 0.383593,0.131974 0.805418,0.205684 0.937366,0.163798 0.135625,-0.04304 0.334301,0.0093 0.456988,0.120261 0.162745,0.147283 0.903764,0.533514 1.120272,0.58389 0.01164,0.0027 0.110755,-0.02933 0.220028,-0.07126 z m -4.697651,-0.486442 c -0.08091,-0.322439 -0.09631,-0.328258 -0.323823,-0.122361 -0.313717,0.283895 -0.301493,0.40324 0.04702,0.458898 0.374253,0.05978 0.375814,0.05788 0.276807,-0.336537 z m -0.537898,-0.159938 c 0.196004,-0.187785 0.356394,-0.409215 0.356394,-0.492064 0,-0.08285 -0.2667,-0.39647 -0.592666,-0.696928 -0.562134,-0.518152 -0.597774,-0.532456 -0.692018,-0.277715 -0.05464,0.147717 -0.248682,0.366427 -0.431192,0.486021 l -0.331866,0.217443 0.542078,0.552336 c 0.298132,0.303784 0.598514,0.552334 0.667491,0.552334 0.06898,0 0.285776,-0.153641 0.481779,-0.341427 z m 7.245086,-0.389178 c 0.08633,-0.417412 -0.05477,-0.783529 -0.487733,-1.265441 l -0.432726,-0.481661 0.269716,0.478528 c 0.197617,0.350629 0.2481,0.593693 0.188886,0.909426 -0.05522,0.294291 -0.02937,0.451594 0.08152,0.496173 0.278289,0.111858 0.332925,0.09217 0.380339,-0.137025 z m -8.921697,0.02342 c 0,-0.03953 -0.05665,-0.177716 -0.125862,-0.307068 -0.10586,-0.197813 -0.182113,-0.213958 -0.479769,-0.1016 -0.29001,0.109461 -0.456565,0.08194 -0.922391,-0.1524 l -0.56851,-0.285988 0.508265,0.454181 c 0.410051,0.366448 0.612563,0.455203 1.048252,0.45947 0.297021,0.0029 0.540015,-0.02706 0.540015,-0.0666 z m -2.45327,-0.590272 c -0.177297,-0.112716 -1.515639,-0.550445 -2.03454,-0.66543 -0.332237,-0.07362 -0.355362,-0.05368 -0.317658,0.274121 0.03715,0.323184 0.100621,0.362765 0.739484,0.461272 0.38436,0.05926 0.743928,0.15035 0.799068,0.202415 0.05511,0.05206 0.294825,0.03375 0.532659,-0.0407 0.274531,-0.08592 0.377137,-0.170543 0.280987,-0.231678 z M 7.952424,17.820893 c -0.04016,-0.04016 -0.193173,0.03573 -0.340043,0.168645 l -0.267044,0.241663 0.298027,0.07178 c 0.225372,0.05429 0.308266,0.01318 0.340042,-0.168643 0.02302,-0.132236 0.0093,-0.273288 -0.03098,-0.313449 z m 4.776575,0.158308 c -0.02249,-0.139735 -0.07104,-0.406215 -0.108055,-0.59218 -0.09168,-0.460407 0.316335,-0.692034 0.875585,-0.497075 0.483024,0.168381 0.438997,0.173135 0.527262,-0.05692 0.07945,-0.207032 -0.410819,-1.331466 -0.580549,-1.331466 -0.135176,0 -0.131127,-0.475075 0.0048,-0.559064 0.05858,-0.0362 -0.0272,-0.475893 -0.190606,-0.977096 -0.16338,-0.501205 -0.298106,-1.003858 -0.299376,-1.117007 0,-0.113149 -0.225531,-0.391068 -0.498396,-0.617593 -0.441695,-0.366684 -0.556604,-0.40358 -1.047459,-0.336302 -0.433573,0.05943 -0.616453,0.02283 -0.856165,-0.171259 -0.30189,-0.244454 -0.307208,-0.244438 -0.55327,0.0016 -0.195342,0.195342 -0.359807,0.233524 -0.76925,0.178605 -0.286464,-0.03842 -0.591555,-0.16659 -0.677995,-0.284822 -0.155813,-0.213066 -0.925988,-0.42101 -1.59885,-0.431665 -0.31123,-0.0049 -0.349065,0.03958 -0.346366,0.407416 0.005,0.683961 0.214101,1.376098 0.494638,1.637467 0.29091,0.271015 0.380127,1.293908 0.126551,1.450628 -0.09946,0.06148 -0.09946,0.124034 0,0.223504 0.07599,0.07597 0.139805,0.45547 0.141869,0.843328 0.0048,0.907669 0.44323,1.45547 1.277726,1.596459 0.300752,0.05081 0.863917,0.201483 1.251506,0.33483 0.439658,0.151265 0.721068,0.193283 0.748241,0.11172 0.073,-0.21895 0.475933,-0.14732 1.057699,0.188024 0.651906,0.37578 1.080849,0.37529 1.020497,-0.0011 z M 7.43892,17.857977 c 0.17153,-0.171532 0.311865,-0.411816 0.311865,-0.533964 0,-0.22524 -0.723424,-1.060085 -0.918581,-1.060085 -0.05853,0 -0.311414,0.205029 -0.562001,0.455621 l -0.455613,0.45562 0.485643,0.497343 c 0.567769,0.581475 0.718159,0.60597 1.138687,0.185465 z m 22.150573,0.03365 c 0.06482,-0.175231 0.04008,-0.398661 -0.06683,-0.603544 -0.09337,-0.178922 -0.170127,-0.509127 -0.17055,-0.733793 0,-0.273261 -0.08215,-0.452022 -0.246566,-0.540012 -0.593434,-0.317605 -0.641932,-0.115096 -0.25093,1.047798 0.242781,0.722032 0.444711,1.107784 0.579887,1.107784 0.02863,0 0.09837,-0.125206 0.154993,-0.278233 z M 5.680711,17.237413 c -0.12356,-0.261832 -0.181927,-0.281395 -0.491225,-0.164645 -0.273553,0.103256 -0.457253,0.08432 -0.832538,-0.0858 l -0.481542,-0.218292 0.439896,0.382937 c 0.338985,0.295069 0.562214,0.382939 0.972794,0.382939 0.513821,0 0.527844,-0.01061 0.392615,-0.297137 z m 9.056582,-0.179345 c -0.0026,-0.362887 -0.108718,-0.597652 -0.45003,-0.984729 l -0.448151,-0.508249 0.258762,0.53358 c 0.19812,0.408567 0.230188,0.608634 0.136949,0.853914 -0.09663,0.254137 -0.07678,0.346567 0.09599,0.447286 0.35351,0.206073 0.408491,0.159861 0.40648,-0.341802 z m 6.997832,-1.302385 c -0.06551,-0.17471 -0.156184,-0.56066 -0.201533,-0.857668 -0.07482,-0.490123 -0.115994,-0.540012 -0.445611,-0.540012 h -0.363167 l 0.189574,0.6384 c 0.104273,0.35112 0.30861,0.908603 0.454078,1.238853 l 0.264478,0.600453 0.110622,-0.381185 c 0.06522,-0.224687 0.06175,-0.511604 -0.0085,-0.698841 z M 6.669618,14.622589 6.207073,14.167407 6.478086,14.635154 c 0.202353,0.349279 0.250005,0.579652 0.188119,0.909579 -0.06871,0.366236 -0.04281,0.449688 0.151421,0.487751 0.19095,0.03742 0.24175,-0.04671 0.274426,-0.454398 0.03474,-0.433197 -0.02196,-0.561379 -0.422434,-0.955497 z m 25.526576,0.729239 c -0.06165,-0.09974 -2.042371,-0.739704 -2.289413,-0.739704 -0.07165,0 -0.106071,0.164772 -0.07652,0.366157 0.05046,0.343858 0.09916,0.371298 0.80002,0.450588 0.410448,0.04644 0.77687,0.133909 0.814229,0.194379 0.03739,0.06047 0.235691,0.04663 0.440716,-0.03075 0.205,-0.07738 0.344938,-0.185685 0.310965,-0.240665 z m -17.964466,-0.36331 c 0.0069,-0.241959 -0.06411,-0.782995 -0.157559,-1.202299 -0.152506,-0.684318 -0.205211,-0.766487 -0.5148,-0.802576 -0.189707,-0.02212 -0.344911,0.0024 -0.344911,0.05452 0,0.248142 0.57068,1.828086 0.660321,1.828086 0.05612,0 0.102049,0.104825 0.102049,0.232947 0,0.220268 0.12663,0.445153 0.205978,0.365805 0.02011,-0.02011 0.04212,-0.234522 0.04892,-0.47648 z m 15.119588,0.266414 c 0,-0.357428 -0.187616,-0.418658 -0.43733,-0.14273 -0.205264,0.226812 -0.204443,0.24325 0.01482,0.299919 0.40042,0.103507 0.422539,0.09528 0.422539,-0.157189 z m -0.6105,-0.348927 c 0.196004,-0.187786 0.356368,-0.404591 0.356368,-0.481793 0,-0.0772 -0.25527,-0.390909 -0.567294,-0.69713 -0.506491,-0.497094 -0.576262,-0.530569 -0.65098,-0.312343 -0.04601,0.134429 -0.232754,0.371443 -0.414973,0.526693 l -0.331311,0.282273 0.499824,0.511863 c 0.274902,0.281525 0.556551,0.511863 0.625899,0.511863 0.06935,0 0.286464,-0.153641 0.482467,-0.341426 z m -1.707303,-0.554779 c -0.127079,-0.207335 -0.243761,-0.245456 -0.568299,-0.18569 -0.284189,0.05233 -0.574066,-0.0083 -0.952976,-0.199437 -0.616744,-0.31105 -0.611002,-0.292021 0.07646,0.253825 0.381688,0.303067 0.620157,0.392197 1.049337,0.392197 0.527394,0 0.547317,-0.01315 0.395473,-0.260895 z M 6.646044,13.027341 C 6.554814,12.889493 6.479383,12.632194 6.478431,12.455563 6.475031,11.819846 6.339048,11.562634 6.006494,11.562634 c -0.297339,0 -0.311494,0.02952 -0.228336,0.476483 0.04876,0.262067 0.192617,0.733782 0.31967,1.048261 0.127079,0.314478 0.270351,0.686136 0.318399,0.825905 0.07551,0.21962 0.108294,0.193743 0.241512,-0.190596 0.123402,-0.355981 0.121073,-0.494723 -0.01164,-0.695346 z m 17.741398,0.865947 c 0.135995,-0.118007 -0.262097,-0.305633 -1.262169,-0.594881 -0.594016,-0.171805 -1.097095,-0.296315 -1.11797,-0.276693 -0.0209,0.01963 0,0.182694 0.04405,0.362384 0.06884,0.274285 0.176847,0.340386 0.673259,0.411985 0.325199,0.0469 0.677015,0.132167 0.781843,0.189471 0.169678,0.09274 0.736124,0.03342 0.880984,-0.09227 z m -2.836836,-0.244522 c -0.04241,-0.110543 -0.07713,-0.262348 -0.07713,-0.33735 0,-0.075 -0.113003,-0.03409 -0.251142,0.09091 -0.289692,0.26217 -0.229579,0.447429 0.145177,0.447429 0.185076,0 0.23794,-0.05803 0.183092,-0.200985 z m -0.578221,-0.335579 c 0.205714,-0.225227 0.374042,-0.475875 0.374042,-0.556996 0,-0.172932 -0.958454,-1.066493 -1.143926,-1.066493 -0.06969,0 -0.126709,0.08661 -0.126709,0.192461 0,0.105851 -0.181928,0.303098 -0.404284,0.438327 l -0.40431,0.245864 0.578168,0.57817 c 0.318003,0.317992 0.617511,0.578167 0.665586,0.578167 0.04807,0 0.25572,-0.184274 0.461433,-0.4095 z m 7.489508,-0.585825 c 0,-0.379174 -0.09959,-0.597323 -0.449554,-0.984729 l -0.449554,-0.497652 0.27096,0.558456 c 0.218758,0.4509 0.244158,0.617236 0.131895,0.863648 -0.07649,0.167854 -0.139065,0.326895 -0.139065,0.353425 0,0.04348 0.294587,0.141232 0.540015,0.179191 0.05241,0.0081 0.0953,-0.204446 0.0953,-0.472339 z m -9.148472,0.257241 c 0,-0.05653 -0.07599,-0.206711 -0.168883,-0.333743 -0.139542,-0.190817 -0.216509,-0.205472 -0.442913,-0.08431 -0.222514,0.119084 -0.375893,0.09731 -0.815843,-0.1158 l -0.541813,-0.262456 0.497654,0.449543 c 0.387403,0.349956 0.605552,0.449543 0.984727,0.449543 0.26789,0 0.487071,-0.04625 0.487071,-0.102775 z m -2.299361,-0.48419 c 0.12319,-0.108146 -1.917621,-0.80491 -2.370164,-0.809207 -0.08737,-7.94e-4 -0.15883,0.134768 -0.15883,0.301326 0,0.329369 0.267679,0.454766 0.977239,0.457803 0.222991,0.0011 0.441881,0.06067 0.486384,0.132694 0.07083,0.114612 0.915273,0.04913 1.065371,-0.08262 z m -3.037232,-0.302466 c 0,-0.288013 -0.131762,-0.32566 -0.355785,-0.101651 -0.223996,0.22401 -0.186346,0.355772 0.101653,0.355772 0.169413,0 0.254132,-0.08471 0.254132,-0.254121 z m -0.509402,-0.335749 0.406347,-0.462806 -0.589836,-0.585454 c -0.515831,-0.511974 -0.605393,-0.558332 -0.71366,-0.369367 -0.162983,0.28448 -0.455374,0.572609 -0.655955,0.646388 -0.102791,0.03782 0.04387,0.271788 0.405394,0.646655 0.311547,0.323067 0.605817,0.587393 0.653892,0.587393 0.0481,0 0.270324,-0.208264 0.493818,-0.462809 z m -1.790462,-0.45839 c -0.08181,-0.15724 -0.162189,-0.302324 -0.178646,-0.322411 -0.0164,-0.02008 -0.171927,0.02819 -0.34552,0.107289 -0.260853,0.118845 -0.412591,0.09505 -0.874104,-0.13706 l -0.558456,-0.280868 0.508265,0.454181 c 0.411506,0.367728 0.611875,0.455186 1.052724,0.45947 0.524563,0.0051 0.539036,-0.0052 0.395737,-0.280601 z m 8.585438,-1.228389 -0.465428,-0.455181 0.250957,0.508248 c 0.184547,0.373719 0.220715,0.588801 0.136684,0.812583 -0.06284,0.167386 -0.09874,0.316193 -0.07977,0.330682 0.01905,0.0145 0.148828,0.08835 0.288607,0.164145 0.233125,0.126412 0.25744,0.0947 0.294243,-0.383749 0.03522,-0.458068 -0.0164,-0.576948 -0.425291,-0.976728 z M 9.332703,11.183185 c 0.149093,-0.0011 0.199707,-0.0461 0.127079,-0.113131 C 9.300768,10.923319 7.945175,10.46646 7.32396,10.350255 c -0.473446,-0.08856 -0.487098,-0.08129 -0.395817,0.210908 0.122899,0.39343 0.281437,0.488489 0.822643,0.493225 0.244607,0.0021 0.530489,0.06094 0.635317,0.13066 0.104828,0.06972 0.304932,0.09822 0.444712,0.06332 0.139779,-0.0349 0.365628,-0.06423 0.501888,-0.06518 z M 6.480177,10.937718 c 0,-0.06417 -0.03567,-0.209582 -0.07924,-0.323141 -0.07255,-0.189074 -0.09932,-0.188291 -0.317658,0.0093 -0.324538,0.293719 -0.299376,0.430509 0.07924,0.430509 0.174705,0 0.317659,-0.0525 0.317659,-0.116671 z M 5.869678,10.585899 c 0.196003,-0.187786 0.356367,-0.441257 0.356367,-0.563272 0,-0.19568 -1.105747,-1.241308 -1.17856,-1.114478 -0.01561,0.02735 -0.09131,0.164074 -0.168063,0.30384 C 4.802662,9.351758 4.61034,9.531807 4.452014,9.6121 c -0.286915,0.145494 -0.286068,0.147947 0.25101,0.730604 0.296386,0.321543 0.599943,0.584621 0.674582,0.584621 0.07464,0 0.296068,-0.153641 0.492072,-0.341426 z M 4.122581,9.981588 C 3.951316,9.720235 3.873899,9.691787 3.632784,9.801639 3.420483,9.898379 3.217653,9.880519 2.848533,9.732569 L 2.350666,9.533015 2.790563,9.912518 c 0.341471,0.294571 0.562504,0.379499 0.987663,0.379499 h 0.54774 z m 8.960035,-0.229585 c -0.004,-0.433591 -0.09316,-0.640175 -0.453337,-1.04826 l -0.448575,-0.508249 0.27985,0.568489 c 0.223785,0.45456 0.254132,0.636685 0.151421,0.908796 -0.109961,0.291283 -0.08953,0.359159 0.141711,0.471173 0.14859,0.07198 0.284454,0.134736 0.301943,0.139464 0.01746,0.0047 0.02961,-0.234405 0.02699,-0.531413 z M 5.590727,8.384221 c 0,-0.410855 -0.08792,-0.602464 -0.451881,-0.984729 L 4.686937,6.924875 4.951759,7.466694 c 0.20058,0.410443 0.23315,0.600975 0.134223,0.785783 -0.07181,0.134181 -0.130546,0.278157 -0.130546,0.319945 0,0.05867 0.383382,0.25804 0.603541,0.313859 0.01746,0.0044 0.03175,-0.221498 0.03175,-0.50206 z" />
  <path
     style="fill:#ff0000;stroke:#000000;stroke-width:0.00165081"
     d="m 14.196444,17.608487 c -0.120671,0.109572 -0.142057,0.31142 -0.279088,0.419407 -0.159501,0.18142 -0.386045,0.295008 -0.566046,0.442172 0.389225,0.363778 0.726006,0.8026 1.183872,1.083344 0.254442,-0.09083 0.438201,-0.322746 0.628664,-0.507881 0.110516,-0.112868 0.265287,-0.2902 0.127098,-0.443462 -0.307597,-0.360524 -0.643158,-0.712873 -1.038268,-0.977781 -0.01765,-0.008 -0.03638,-0.01664 -0.05623,-0.0158 z"
     id="path2289"
     class="OC" />
  <path
     style="fill:#ff0000;stroke:#000000;stroke-width:0.000665144"
     d="m 13.884704,15.642519 c 0.119973,0.303321 0.304816,0.583195 0.380873,0.902857 0.05285,0.213635 -0.04359,0.41792 -0.08979,0.622323 -0.01135,0.136854 0.116583,0.21888 0.22425,0.270362 0.07635,0.03054 0.162423,0.101076 0.247431,0.06829 0.100076,-0.06272 0.06793,-0.204232 0.07948,-0.303292 0.0019,-0.207169 0.01577,-0.425196 -0.08438,-0.6149 -0.146632,-0.316947 -0.407562,-0.558802 -0.627272,-0.824044 -0.04145,-0.0417 -0.07581,-0.09373 -0.123076,-0.128276 z"
     id="path2290"
     class="OC" />
  <path
     style="fill:#ff0000;stroke:#000000;stroke-width:0.000665144"
     d="m 11.308126,18.061332 c 0.21581,0.211749 0.449537,0.407948 0.682188,0.602033 0.244322,0.186791 0.554699,0.28811 0.862867,0.259572 0.15403,-0.01225 0.317416,0.0071 0.464566,-0.04576 0.03559,-0.06227 -0.02577,-0.135292 -0.04282,-0.195437 -0.05865,-0.110778 -0.102563,-0.280204 -0.250209,-0.295886 -0.235053,0.0054 -0.450267,0.172498 -0.689906,0.11393 -0.309017,-0.06489 -0.577268,-0.244436 -0.861621,-0.373153 -0.05271,-0.02429 -0.103833,-0.05348 -0.158178,-0.07356 z"
     id="path2291"
     class="OC" />
  <path
     style="fill:#ff0000;stroke:#000000;stroke-width:0.000665144"
     d="m 15.426124,19.128265 c -0.130743,0.04858 -0.219805,0.169743 -0.31706,0.264628 -0.05749,0.05992 -0.142711,0.170558 -0.06454,0.247637 0.127569,0.0826 0.288568,0.08782 0.43507,0.11032 0.06448,0.01487 0.14886,-0.02779 0.130172,-0.104031 -0.02761,-0.163449 -0.0626,-0.329256 -0.126793,-0.482492 -0.01119,-0.02085 -0.03159,-0.03921 -0.05685,-0.03606 z"
     id="path2292"
     class="OC" />
  <path
     style="fill:#ff0000;stroke:#000000;stroke-width:0.000665144"
     d="m 15.11413,20.21653 c -0.09675,0.0093 -0.238016,0.006 -0.284117,0.110527 0.0024,0.204243 0.09142,0.396582 0.14447,0.591326 0.204581,0.631655 0.41606,1.261684 0.670515,1.875321 0.04758,-0.05005 0.05756,-0.151857 0.09055,-0.221991 0.07409,-0.216429 0.167383,-0.435438 0.14864,-0.669583 0.0089,-0.110292 -0.08256,-0.196239 -0.110916,-0.299138 -0.152196,-0.383355 -0.162258,-0.807866 -0.324361,-1.187516 -0.04979,-0.131167 -0.184692,-0.215107 -0.324437,-0.199094 z"
     id="path2293"
     class="OC" />
  <path
     style="fill:#ff0000;stroke:#000000;stroke-width:0.000665144"
     d="m 16.097817,18.946181 c -0.06252,0.0245 -0.03778,0.116046 -0.03391,0.167325 0.04294,0.189709 0.09148,0.415168 0.271592,0.522528 0.19013,0.08589 0.407712,0.0536 0.609595,0.08229 0.274455,0.01662 0.534855,0.108101 0.793652,0.194011 0.129606,0.03293 0.308467,0.02254 0.367337,-0.120325 0.03344,-0.08648 0.0921,-0.19576 0.03908,-0.284842 -0.132569,-0.08632 -0.295852,-0.114729 -0.443685,-0.167923 -0.518663,-0.151363 -1.040157,-0.301168 -1.573437,-0.391557 -0.01,-0.0013 -0.02013,-0.0024 -0.03022,-0.0016 z"
     id="path2294"
     class="OC" />
  <path
     style="fill:#ff0000;stroke:#000000;stroke-width:0.00274243"
     d="m 14.220709,17.657094 c -0.220816,0.251852 -0.419983,0.545822 -0.716936,0.72989 -0.246597,0.190878 0.343339,0.416909 0.438192,0.619906 0.204436,0.17033 0.383448,0.412472 0.621335,0.52642 0.288657,-0.212156 0.588592,-0.472252 0.761349,-0.785453 -0.254574,-0.433281 -0.647084,-0.796758 -1.060659,-1.079942 -0.01376,-0.0055 -0.02818,-0.01135 -0.04328,-0.01082 z"
     id="path2299"
     class="OC" />
  <path
     style="fill:#808080;stroke:#000000;stroke-width:0.000929132"
     d="m 6.842729,16.260562 c -0.2728675,0.144204 -0.4782212,0.385416 -0.7038922,0.590833 -0.1058492,0.110501 -0.22742,0.215829 -0.3203311,0.332238 0.3045963,0.286422 0.5806996,0.606009 0.9104419,0.8642 0.1352259,0.0972 0.3280357,0.127979 0.464312,0.01445 C 7.4324164,17.889165 7.6489488,17.655316 7.74032,17.369894 7.7600844,17.212734 7.6318382,17.082988 7.5557255,16.958205 7.3664267,16.711206 7.1578557,16.469062 6.9028529,16.288627 6.88248,16.281668 6.8643693,16.26192 6.842729,16.260562 Z"
     id="path2394"
     class="OF" />
  <path
     style="fill:#808080;stroke:#000000;stroke-width:0.000929132"
     d="m 3.9781726,16.826498 c -0.00159,0.05064 0.086826,0.08535 0.1162156,0.127466 0.2907638,0.249769 0.5977307,0.560083 1.008253,0.563538 0.1973447,0.0036 0.4009019,0.02738 0.5950055,-0.01318 0.1071245,-0.03867 0.017806,-0.15961 -0.00333,-0.22684 C 5.6416159,17.160426 5.5618044,16.980734 5.4014563,17.016567 5.1959385,17.064811 4.9933815,17.16258 4.7771587,17.124943 4.4943588,17.084012 4.2453991,16.917885 3.9781779,16.826495 Z"
     id="path2395"
     class="OF" />
  <path
     style="fill:#808080;stroke:#000000;stroke-width:0.000929132"
     d="m 6.2875379,14.273745 c 0.1436132,0.325843 0.3991848,0.627965 0.4034076,1.001792 0.017436,0.220795 -0.1042009,0.446731 -0.026194,0.662734 0.060277,0.09233 0.2117408,0.132535 0.3069061,0.07331 C 7.0873731,15.877083 7.0713866,15.6785 7.091535,15.512064 7.1074631,15.297228 7.0782796,15.064349 6.9199397,14.903686 6.7237115,14.681278 6.5157701,14.465108 6.2944065,14.269173 Z"
     id="path2396"
     class="OF" />
  <path
     style="fill:#808080;stroke:#000000;stroke-width:0.000929132"
     d="m 7.3695752,18.83803 c -0.089805,-0.0081 -0.1319238,0.04019 -0.096216,0.129572 0.1082278,0.551828 0.3026384,1.083244 0.4916779,1.61168 0.095639,0.225507 0.1645999,0.473371 0.3225456,0.664871 0.031589,0.04937 0.095602,0.04583 0.1090639,-0.01529 0.088059,-0.225676 0.1139851,-0.475691 0.099266,-0.716121 C 8.1960701,20.264999 8.1205474,20.006845 8.0817754,19.741815 8.0302874,19.497311 8.0345552,19.224938 7.8943181,19.00911 7.7659078,18.867094 7.5486929,18.852011 7.3695752,18.838017 Z"
     id="path2397"
     class="OF" />
  <path
     style="fill:#808080;stroke:#000000;stroke-width:0.000929132"
     d="m 7.9143523,17.814751 c -0.2249593,0.06306 -0.3771979,0.262337 -0.5513837,0.405588 0.1252088,0.05369 0.2835698,0.0914 0.4288181,0.102714 0.1519291,0.01167 0.197919,-0.166196 0.1942809,-0.285636 -0.00672,-0.06468 0.02077,-0.20782 -0.071715,-0.222666 z"
     id="path2398"
     class="OF" />
  <path
     style="fill:#808080;stroke:#000000;stroke-width:0.000929132"
     d="m 8.6301455,17.574086 c -0.063347,0.0046 -0.1339797,0.03926 -0.1006237,0.115703 0.010636,0.187179 2.646e-4,0.449069 0.2130266,0.530079 0.4203568,0.137483 0.877906,0.136091 1.2906586,0.300225 0.16265,0.09029 0.360365,0.02299 0.530461,-0.0093 0.121126,-0.04176 0.27442,-0.07096 0.351379,-0.181785 -0.0013,-0.08429 -0.126944,-0.0879 -0.181276,-0.125542 -0.636791,-0.239432 -1.28569,-0.452617 -1.9479606,-0.609595 -0.051395,-0.0091 -0.1031319,-0.02154 -0.1556649,-0.01982 z"
     id="path2399"
     class="OF" />
  <path
     style="fill:#ff00ff;stroke:#000000;stroke-width:0.000929132"
     d="m 12.6833,10.346134 c -0.09964,0.0357 -0.136459,0.161002 -0.203425,0.237027 -0.151183,0.212422 -0.345215,0.391248 -0.567864,0.524933 -0.06928,0.06362 0.03718,0.150466 0.0625,0.211232 0.251669,0.346329 0.566864,0.642431 0.885721,0.925901 0.05053,0.03026 0.118399,0.123235 0.172326,0.04566 0.298241,-0.275262 0.574479,-0.582819 0.830048,-0.892546 -0.349406,-0.336528 -0.668485,-0.70948 -1.055978,-1.003716 -0.03721,-0.02322 -0.07788,-0.04897 -0.123328,-0.04849 z"
     id="path2400"
     class="IF" />
  <path
     style="fill:#ff00ff;stroke:#000000;stroke-width:0.000929132"
     d="m 12.253066,8.3092311 c 0.131326,0.354081 0.371674,0.677229 0.412168,1.0608204 0.02085,0.2066538 -0.126669,0.3910676 -0.106751,0.5961184 0.05947,0.1520431 0.251346,0.1846221 0.376698,0.2621161 0.04358,0.03396 0.133445,0.0478 0.133091,-0.0306 0.0097,-0.2980335 0.03442,-0.6072983 -0.05147,-0.8971557 -0.133826,-0.3595584 -0.431241,-0.6233633 -0.671406,-0.9118552 -0.02936,-0.014399 -0.05768,-0.093861 -0.09234,-0.079448 z"
     id="path2401"
     class="IF" />
  <path
     style="fill:#ff00ff;stroke:#000000;stroke-width:0.000929132"
     d="m 9.8445486,10.848046 c -0.0077,0.04478 0.075909,0.07954 0.1006924,0.11771 0.317365,0.275072 0.62629,0.624234 1.061302,0.697675 0.239107,-2.27e-4 0.483809,0.02258 0.719714,-0.01764 0.06975,-0.06705 -0.03004,-0.167151 -0.05177,-0.235573 -0.06743,-0.099 -0.09638,-0.235835 -0.193508,-0.310401 -0.193324,-0.0089 -0.355132,0.145855 -0.549783,0.144959 -0.312944,0.02825 -0.583671,-0.17617 -0.858211,-0.294665 -0.075657,-0.03407 -0.1492513,-0.07774 -0.2284384,-0.102067 z"
     id="path2402"
     class="IF" />
  <path
     style="fill:#ff00ff;stroke:#000000;stroke-width:0.000929132"
     d="m 13.845112,11.960391 c -0.161338,0.0369 -0.28121,0.184016 -0.353071,0.325667 -0.04826,0.106797 0.08097,0.165355 0.168008,0.163869 0.129995,0.02206 0.297947,-0.04283 0.304435,-0.193086 0.0094,-0.09587 0.02402,-0.297068 -0.119372,-0.29645 z"
     id="path2403"
     class="IF" />
  <path
     style="fill:#ff00ff;stroke:#000000;stroke-width:0.000929132"
     d="m 13.402141,12.983052 c -0.05856,0.0101 -0.198339,-0.01337 -0.179583,0.08627 0.07935,0.420261 0.240578,0.820917 0.384802,1.222327 0.08517,0.193074 0.141645,0.40917 0.273465,0.576087 0.08412,0.03406 0.07724,0.15824 0.09623,0.233048 0.02238,0.130887 0.03563,0.309581 0.166581,0.378619 0.07548,-0.02641 0.05099,-0.143031 0.0682,-0.20597 0.05039,-0.616075 -0.07169,-1.232363 -0.224735,-1.826324 -0.04996,-0.182819 -0.125312,-0.41979 -0.345411,-0.448597 -0.07874,-0.01518 -0.15958,-0.01742 -0.239543,-0.01546 z"
     id="path2404"
     class="IF" />
  <path
     style="fill:#ff00ff;stroke:#000000;stroke-width:0.000929132"
     d="m 14.62903,11.698274 c -0.121298,0.03868 -0.132434,0.201086 -0.132728,0.309263 -0.01767,0.210412 0.18215,0.352584 0.370057,0.38254 0.314928,0.07733 0.648149,0.03528 0.959871,0.116432 0.115051,0.05663 0.222276,0.14614 0.360061,0.131809 0.264025,-0.0014 0.538292,-0.0189 0.785349,-0.118053 0.08026,-0.04379 -0.03347,-0.09952 -0.07295,-0.119045 -0.558369,-0.264186 -1.152874,-0.44534 -1.746766,-0.61105 -0.171564,-0.04186 -0.345057,-0.09084 -0.522891,-0.0919 z"
     id="path2405"
     class="IF" />
  <path
     style="fill:#0000ff;stroke:#000000;stroke-width:0.000929132"
     d="m 20.189193,11.697584 c -0.133958,0.0351 -0.08941,0.22046 -0.164161,0.30959 -0.18657,0.262183 -0.507216,0.3868 -0.752305,0.570181 0.387567,0.368482 0.75021,0.76647 1.169834,1.099353 0.04432,0.05663 0.110633,0.0444 0.154323,-0.005 0.280599,-0.24525 0.543589,-0.523541 0.726684,-0.850263 0.05356,-0.129314 -0.08928,-0.229947 -0.152781,-0.324933 -0.269761,-0.293114 -0.562134,-0.57753 -0.908426,-0.778592 -0.02299,-0.01024 -0.04741,-0.02141 -0.07317,-0.02036 z"
     id="path2406"
     class="IC" />
  <path
     style="fill:#0000ff;stroke:#000000;stroke-width:0.000929132"
     d="m 19.857535,9.7906149 c 0.01162,0.095741 0.08311,0.1918126 0.118393,0.2856951 0.136512,0.29727 0.327883,0.625812 0.210524,0.961324 -0.01892,0.103865 -0.09268,0.21099 -0.06992,0.316607 0.113768,0.104321 0.260514,0.174443 0.401449,0.235404 0.12363,0.02032 0.130763,-0.147067 0.145706,-0.232038 0.02977,-0.268797 0.07684,-0.563274 -0.07627,-0.806484 -0.219498,-0.269214 -0.464272,-0.520144 -0.717719,-0.7576046 -0.0035,-0.00228 -0.0079,-0.00477 -0.01217,-0.0029 z"
     id="path2407"
     class="IC" />
  <path
     style="fill:#0000ff;stroke:#000000;stroke-width:0.000929132"
     d="m 17.464369,12.260326 c -0.01365,0.04362 0.07623,0.08292 0.09952,0.120896 0.311422,0.269563 0.611809,0.610979 1.036016,0.689335 0.219384,0.0093 0.450249,0.02439 0.661209,-0.04609 0.07723,-0.05862 -0.0049,-0.170624 -0.0339,-0.23555 -0.07722,-0.115136 -0.162467,-0.291591 -0.32367,-0.289446 -0.194471,0.03861 -0.375018,0.192855 -0.580787,0.122695 -0.300932,-0.07995 -0.570883,-0.24854 -0.858387,-0.361837 z"
     id="path2408"
     class="IC" />
  <path
     style="fill:#0000ff;stroke:#000000;stroke-width:0.000929132"
     d="m 21.422578,13.28364 c -0.159751,0.04493 -0.272294,0.19241 -0.360149,0.325631 -0.07272,0.117782 0.07183,0.220474 0.178314,0.226912 0.0991,0.0048 0.240564,0.04197 0.310861,-0.04882 0.02964,-0.154697 -0.07697,-0.300977 -0.0752,-0.456618 -0.0024,-0.02742 -0.02511,-0.05124 -0.05382,-0.04711 z"
     id="path2409"
     class="IC" />
  <path
     style="fill:#0000ff;stroke:#000000;stroke-width:0.000929132"
     d="m 22.036929,13.026532 c -0.07058,0.01441 -0.01654,0.117702 -0.02061,0.164993 0.03066,0.189453 0.07425,0.431237 0.283134,0.501587 0.386651,0.126521 0.804608,0.132061 1.18573,0.28186 0.249822,0.09934 0.529055,0.04768 0.778872,-0.02323 0.06034,-0.02228 0.124198,-0.05942 0.1577,-0.112077 -0.153757,-0.17734 -0.399481,-0.228246 -0.607052,-0.317358 -0.57621,-0.201453 -1.165794,-0.367687 -1.762451,-0.495378 -0.0051,-6.62e-4 -0.01021,-3.44e-4 -0.01532,-3.97e-4 z"
     id="path2410"
     class="IC" />
  <path
     style="fill:#0000ff;stroke:#000000;stroke-width:0.000929132"
     d="m 20.841653,14.355843 c -0.04079,-5.29e-4 -0.135144,-0.0054 -0.09339,0.06395 0.222272,0.814959 0.508474,1.614564 0.878973,2.373931 0.04483,-0.0343 0.04376,-0.130257 0.07024,-0.186087 0.110789,-0.31402 0.115128,-0.66354 -0.0021,-0.976524 -0.108045,-0.360039 -0.142679,-0.737412 -0.249923,-1.096957 -0.04046,-0.151045 -0.212302,-0.177903 -0.345326,-0.173373 -0.08612,-0.0027 -0.172284,-0.0059 -0.258464,-0.0049 z"
     id="path2411"
     class="IC" />
  <path
     style="fill:#ff6600;stroke:#000000;stroke-width:0.000929132"
     d="m 21.42893,19.643689 c -0.152559,0.159165 -0.323572,0.310525 -0.46482,0.474474 0.328478,0.334984 0.638829,0.708827 1.054156,0.939954 0.178977,0.08834 0.346204,-0.08336 0.475427,-0.185433 0.177297,-0.183886 0.360045,-0.370875 0.503362,-0.581216 -0.349155,-0.384672 -0.72943,-0.741497 -1.093544,-1.112454 -0.163661,0.140653 -0.315733,0.312397 -0.474581,0.464675 z"
     id="path2412"
     class="OR" />
  <path
     style="fill:#ff6600;stroke:#000000;stroke-width:0.000929132"
     d="m 21.456404,17.241849 c 0.0039,0.08033 0.07867,0.161425 0.109086,0.23948 0.132085,0.231732 0.266057,0.478779 0.241551,0.754763 0.01109,0.208955 -0.04107,0.418804 -0.01201,0.626147 0.04655,0.137012 0.22312,0.165614 0.349477,0.167243 0.105619,-0.0167 0.0993,-0.161348 0.119806,-0.242445 0.03811,-0.255186 -0.0054,-0.520883 -0.145502,-0.740291 -0.172694,-0.30089 -0.414578,-0.55671 -0.654674,-0.803918 -0.0024,-0.0013 -0.0052,-0.0019 -0.0077,-0.0011 z"
     id="path2413"
     class="OR" />
  <path
     style="fill:#ff6600;stroke:#000000;stroke-width:0.000929132"
     d="m 19.285792,19.857282 c -0.07704,0.01582 0.0062,0.110717 0.0307,0.14198 0.271875,0.327261 0.674658,0.533805 1.094309,0.586915 0.144978,-0.0082 0.325895,0.03206 0.442388,-0.07611 0.07858,-0.138335 -0.03684,-0.299053 -0.128735,-0.40036 -0.08268,-0.09596 -0.21947,-0.120777 -0.332891,-0.06715 -0.228823,0.06067 -0.484582,0.08651 -0.699667,-0.03526 -0.133437,-0.05185 -0.261617,-0.134577 -0.406109,-0.150018 z"
     id="path2414"
     class="OR" />
  <path
     style="fill:#ff6600;stroke:#000000;stroke-width:0.000929132"
     d="m 22.992266,20.728705 c -0.169699,0.05997 -0.294399,0.212852 -0.391324,0.359093 -0.06129,0.0823 0.01019,0.179385 0.09854,0.19599 0.1309,0.03602 0.282298,0.07889 0.413428,0.02885 0.105275,-0.09636 0.0375,-0.259906 0.01627,-0.379503 -0.02648,-0.06856 -0.04718,-0.193958 -0.13692,-0.204433 z"
     id="path2415"
     class="OR" />
  <path
     style="fill:#ff6600;stroke:#000000;stroke-width:0.000929132"
     d="m 22.713707,21.863114 c -0.108569,0.01003 -0.231984,-0.01016 -0.332637,0.02936 2.65e-4,0.219519 0.107506,0.425058 0.162118,0.635042 0.206431,0.641781 0.438629,1.277871 0.736418,1.883013 0.03979,-0.0057 0.02511,-0.09719 0.043,-0.132194 0.04989,-0.311271 0.14392,-0.640217 0.05176,-0.952314 -0.184732,-0.415531 -0.164761,-0.885418 -0.301675,-1.314429 -0.04904,-0.163883 -0.221687,-0.151821 -0.358987,-0.148482 z"
     id="path2416"
     class="OR" />
  <path
     style="fill:#ff6600;stroke:#000000;stroke-width:0.000929132"
     d="m 23.658518,20.48713 c -0.04129,0.09916 -0.01241,0.224393 -0.01849,0.332116 0.0033,0.129757 -0.005,0.310631 0.149066,0.359071 0.336788,0.110638 0.69854,0.110808 1.040371,0.202015 0.221538,0.03556 0.424701,0.169772 0.655622,0.134794 0.224263,-0.01611 0.46855,-0.007 0.670644,-0.117374 0.01291,-0.06278 -0.08911,-0.0857 -0.127865,-0.118139 -0.746905,-0.374896 -1.564542,-0.573662 -2.36638,-0.7927 z"
     id="path2417"
     class="OR" />
  <path
     style="fill:#00ff00;stroke:#000000;stroke-width:0.000929132"
     d="m 27.989975,13.297578 c -0.114898,0.0342 -0.12351,0.188979 -0.192069,0.272132 -0.181562,0.253188 -0.438968,0.449604 -0.654603,0.665057 0.328242,0.314793 0.632055,0.659265 0.991134,0.939694 0.06185,0.04804 0.146879,0.09812 0.216448,0.03281 0.262636,-0.181557 0.506545,-0.401394 0.691187,-0.663022 0.05307,-0.06585 0.06615,-0.155382 0.0047,-0.22107 -0.267423,-0.366934 -0.596107,-0.688115 -0.944521,-0.977765 -0.03336,-0.02259 -0.07002,-0.0493 -0.112294,-0.04783 z"
     id="path2418"
     class="IR" />
  <path
     style="fill:#00ff00;stroke:#000000;stroke-width:0.000929132"
     d="m 25.101537,13.778765 c -0.03044,0.03688 0.05975,0.07535 0.0786,0.104585 0.302702,0.235656 0.586478,0.519409 0.952413,0.654907 0.292409,0.09317 0.606885,0.06687 0.908621,0.05194 0.08831,-0.0037 0.07521,-0.117353 0.03067,-0.165029 -0.08051,-0.132122 -0.192868,-0.310893 -0.375174,-0.270428 -0.336592,0.0288 -0.689687,0.04934 -1.001176,-0.106124 -0.200358,-0.08352 -0.391908,-0.191955 -0.593955,-0.269849 z"
     id="path2419"
     class="IR" />
  <path
     style="fill:#00ff00;stroke:#000000;stroke-width:0.000929132"
     d="m 27.620355,11.33907 c 0.131855,0.348933 0.370956,0.669507 0.403738,1.04912 0.01236,0.22741 -0.151138,0.416602 -0.18111,0.633624 0.07213,0.08352 0.205986,0.08881 0.304726,0.129752 0.07747,0.0078 0.204872,0.08907 0.258815,-0.0038 0.06885,-0.216285 0.04824,-0.452227 0.03179,-0.675689 -0.08999,-0.427729 -0.441505,-0.722703 -0.711774,-1.041374 -0.03308,-0.02068 -0.06765,-0.102597 -0.106188,-0.09159 z"
     id="path2420"
     class="IR" />
  <path
     style="fill:#00ff00;stroke:#000000;stroke-width:0.000929132"
     d="m 29.170046,14.950414 c -0.178226,0.03075 -0.286761,0.20319 -0.389983,0.335939 -0.04947,0.07702 0.07641,0.103892 0.127429,0.118573 0.129135,0.02421 0.276423,0.0938 0.404389,0.0359 0.05668,-0.09909 0.03142,-0.229396 0.02098,-0.338844 -0.01201,-0.0799 -0.07453,-0.160247 -0.162814,-0.151564 z"
     id="path2421"
     class="IR" />
  <path
     style="fill:#00ff00;stroke:#000000;stroke-width:0.000929132"
     d="m 28.735677,15.884338 c -0.107014,0.0011 -0.143786,0.119369 -0.123802,0.208764 0.03517,0.412271 0.196782,0.801 0.324993,1.190832 0.111398,0.279328 0.203092,0.579355 0.397299,0.814459 0.03241,0.04103 0.103182,0.09297 0.139732,0.02736 0.143808,-0.216773 0.191074,-0.500104 0.08543,-0.743278 -0.132995,-0.277849 -0.197903,-0.580948 -0.213696,-0.88724 -0.01074,-0.196961 -0.08414,-0.414584 -0.280156,-0.497629 -0.103783,-0.04876 -0.212207,-0.111839 -0.329803,-0.113273 z"
     id="path2422"
     class="IR" />
  <path
     style="fill:#00ff00;stroke:#000000;stroke-width:0.000929132"
     d="m 29.928921,14.627141 c -0.116644,0.0016 -0.09547,0.159081 -0.09803,0.237149 0.0033,0.172437 0.02246,0.415213 0.227383,0.4646 0.442074,0.120015 0.917699,0.09615 1.347277,0.264367 0.103746,0.100428 0.263512,0.04668 0.387985,0.02336 0.146098,-0.04665 0.305975,-0.10787 0.404752,-0.229777 -0.0099,-0.06721 -0.114282,-0.08094 -0.16418,-0.113863 -0.637373,-0.248891 -1.291709,-0.457031 -1.954831,-0.625552 -0.04945,-0.01061 -0.09944,-0.02199 -0.150355,-0.02029 z"
     id="path2423"
     class="IR" />
  <path
     style="fill:#ffff00;stroke:#000000;stroke-width:0.000929132"
     d="m 29.767411,20.844082 c -0.112233,0.009 -0.168444,0.125556 -0.170764,0.225825 -0.13412,0.29537 -0.461039,0.420155 -0.71093,0.597148 -0.02474,0.02064 -0.107151,0.04982 -0.04704,0.08445 0.324212,0.298969 0.628991,0.627722 1.003498,0.865363 0.161732,0.114985 0.396849,0.133646 0.550836,-0.0054 0.205312,-0.175832 0.347864,-0.416288 0.463913,-0.657106 0.03105,-0.133459 -0.103225,-0.234098 -0.172088,-0.331087 -0.260982,-0.277534 -0.531691,-0.555358 -0.851844,-0.764635 -0.02003,-0.01069 -0.04286,-0.01617 -0.06558,-0.01458 z"
     id="path2424"
     class="T" />
  <path
     style="fill:#ffff00;stroke:#000000;stroke-width:0.000929132"
     d="m 29.29976,18.765187 c -0.0041,0.06773 0.07274,0.140383 0.09672,0.207386 0.148617,0.286002 0.355859,0.556633 0.417565,0.877885 0.01741,0.223062 -0.146637,0.411562 -0.169531,0.626727 0.03938,0.117697 0.194926,0.139514 0.282995,0.20934 0.08886,0.03725 0.172371,0.117468 0.267878,0.126455 0.05872,-0.08188 0.02164,-0.202186 0.03501,-0.297468 0.0074,-0.315195 0.0042,-0.659379 -0.196443,-0.9222 -0.217646,-0.296503 -0.469416,-0.568489 -0.729586,-0.827471 l -0.0039,-7.94e-4 z"
     id="path2425"
     class="T" />
  <path
     style="fill:#ffff00;stroke:#000000;stroke-width:0.000929132"
     d="m 26.978383,21.402144 c -0.004,0.04992 0.08653,0.08638 0.116067,0.128106 0.277323,0.245195 0.56252,0.495371 0.917107,0.621604 0.217768,0.08504 0.483846,0.14719 0.701363,0.03094 0.122478,-0.08305 0.03721,-0.249592 -0.02167,-0.345156 -0.0653,-0.113951 -0.199366,-0.253355 -0.341455,-0.174467 -0.145153,0.06265 -0.301035,0.133715 -0.460465,0.08152 -0.318188,-0.06839 -0.604528,-0.239676 -0.910947,-0.342543 z"
     id="path2426"
     class="T" />
  <path
     style="fill:#ffff00;stroke:#000000;stroke-width:0.000929132"
     d="m 30.93779,22.419978 c -0.147732,0.08487 -0.289414,0.210346 -0.358695,0.369583 -0.04267,0.127299 0.124486,0.194929 0.224914,0.19853 0.09935,-0.01193 0.256728,0.02347 0.309589,-0.08758 0.01474,-0.161927 -0.0471,-0.33183 -0.139187,-0.463693 -0.0094,-0.0096 -0.02225,-0.01979 -0.03662,-0.01683 z"
     id="path2427"
     class="T" />
  <path
     style="fill:#ffff00;stroke:#000000;stroke-width:0.000929132"
     d="m 30.653895,23.516207 c -0.113488,-0.0034 -0.295846,0.04708 -0.27841,0.192286 0.145126,0.626848 0.368903,1.233006 0.590031,1.836383 0.05535,0.109368 0.07396,0.270592 0.196535,0.326133 0.09305,-0.03065 0.105513,-0.160861 0.12767,-0.243567 0.108685,-0.5314 -0.109657,-1.050653 -0.200721,-1.566804 -0.04891,-0.170633 -0.0544,-0.387618 -0.206306,-0.504545 -0.068,-0.04146 -0.151824,-0.04052 -0.228799,-0.03989 z"
     id="path2428"
     class="T" />
  <path
     style="fill:#ffff00;stroke:#000000;stroke-width:0.000929132"
     d="m 31.568909,22.147518 c -0.03597,0.04948 0.0085,0.136622 0.005,0.196424 0.03371,0.150497 0.02896,0.344903 0.162017,0.447833 0.267999,0.148627 0.589114,0.131789 0.880248,0.204431 0.256831,0.03126 0.489476,0.183007 0.753824,0.161308 0.257331,-0.0072 0.528167,-0.003 0.770419,-0.09949 0.058,-0.04824 -0.06075,-0.08747 -0.08968,-0.109098 -0.580533,-0.275667 -1.191485,-0.48745 -1.811335,-0.655656 -0.222088,-0.05278 -0.444024,-0.116023 -0.670499,-0.145756 z"
     id="path2429"
     class="T" />
  <path
     style="fill:#ffffff;fill-opacity:1;stroke:#000000;stroke-width:0.00171506;stroke-opacity:0"
     d="M 2.5441071,9.6309573 C 2.4744,9.7097754 2.6616668,9.7795238 2.699399,9.8433294 2.9754891,10.08703 3.3086577,10.322153 3.6976137,10.280065 c 0.2038615,-0.0014 0.4145624,0.0191 0.6139365,-0.0048 C 4.2126278,10.098944 4.1024315,9.8711448 3.914744,9.7587148 3.6806486,9.7041893 3.4599597,9.9197675 3.2243006,9.8340835 2.9927531,9.7844093 2.7762128,9.6755494 2.5441071,9.6309566 Z"
     id="path43"
     class="P" />
  <path
     style="fill:#ffffff;fill-opacity:1;stroke:#000000;stroke-width:0.00171506;stroke-opacity:0"
     d="M 5.0827895,8.8965656 C 4.9044206,9.0729953 4.8283291,9.3455537 4.6077989,9.4914751 4.5112895,9.6038669 4.2652243,9.6348115 4.2667986,9.8062816 4.5275957,10.204675 4.8724589,10.55164 5.2396239,10.853872 c 0.081679,0.08916 0.202684,0.111069 0.2909543,0.01662 0.2761721,-0.224381 0.5882296,-0.47076 0.6961399,-0.822628 C 6.1433347,9.7471758 5.8537482,9.5554447 5.6528528,9.3323772 5.4729202,9.1860121 5.3062751,8.97032 5.0827895,8.8965666 Z"
     id="path44"
     class="P" />
  <path
     style="fill:#ffffff;fill-opacity:1;stroke:#000000;stroke-width:0.00171506;stroke-opacity:0"
     d="m 4.8422118,7.1275133 c -0.076515,0.078155 0.064071,0.2142992 0.077713,0.3052262 0.1536382,0.2890449 0.2840117,0.6372527 0.097277,0.9424763 -0.081298,0.1183155 -0.053038,0.2874401 0.094528,0.3336985 0.1362551,0.051648 0.2770928,0.1681248 0.4236058,0.1605185 0.100129,-0.240017 0.051356,-0.5257739 0.028072,-0.779948 C 5.4945288,7.6911067 5.1572829,7.416697 4.8873656,7.1454007 4.8740835,7.1363493 4.8592483,7.1255225 4.8422118,7.1275122 Z"
     id="path45"
     class="P" />
  <path
     style="fill:#ffffff;fill-opacity:1;stroke:#000000;stroke-width:0.00171506;stroke-opacity:0"
     d="m 6.2776319,10.474751 c -0.1733232,0.103493 -0.3451093,0.25873 -0.4305723,0.443101 0.1139666,0.202527 0.4615153,0.200968 0.611124,0.03772 0.04096,-0.159851 -0.036449,-0.360177 -0.1485953,-0.477133 -0.00982,-0.0049 -0.021272,-0.0061 -0.031956,-0.0037 z"
     id="path46"
     class="P" />
  <path
     style="fill:#ffffff;fill-opacity:1;stroke:#000000;stroke-width:0.00171506;stroke-opacity:0"
     d="m 5.9589413,11.555303 c -0.1515877,-0.0181 -0.2571512,0.120798 -0.2193396,0.265297 0.097446,0.760949 0.4453176,1.46208 0.7025031,2.177248 0.083145,0.12591 0.1603243,-0.0864 0.178607,-0.154487 0.1224598,-0.275029 0.1958393,-0.614892 0.00238,-0.876622 -0.211754,-0.389024 -0.065111,-0.868144 -0.2864697,-1.253866 -0.080275,-0.118729 -0.2431415,-0.155678 -0.3775789,-0.15757 z"
     id="path47"
     class="P" />
  <path
     style="fill:#ffffff;fill-opacity:1;stroke:#000000;stroke-width:0.00171506;stroke-opacity:0"
     d="m 6.9448978,10.305121 c -0.1568846,0.01058 -0.027773,0.210037 -0.01098,0.295914 0.056774,0.240478 0.2600431,0.423513 0.5098944,0.435329 0.3858313,0.03322 0.7789625,0.05884 1.1344804,0.228183 0.2705444,0.03488 0.5384986,-0.06996 0.8081539,-0.0885 0.090048,0.0093 0.1481085,-0.09582 0.047231,-0.130237 C 8.7850908,10.734024 8.0890726,10.519976 7.3887417,10.35798 7.2423715,10.331537 7.094308,10.301941 6.9449058,10.305121 Z"
     id="path48"
     class="P" />
</svg>
