<?xml version="1.0" encoding="UTF-8" standalone="no"?>
<!-- Created with Inkscape (http://www.inkscape.org/) -->

<svg
   width="33.834068mm"
   height="35.699413mm"
   viewBox="0 0 33.834068 35.699413"
   version="1.1"
   id="svg1"
   xmlns="http://www.w3.org/2000/svg"
   xmlns:svg="http://www.w3.org/2000/svg">
  <defs
     id="defs1" />
  <g
     id="layer1"
     transform="translate(-91.204247,-13.270787)">
    <g
       id="g2935">
      <path
         id="path2147"
         style="fill:#000000;stroke-width:0.264583"
         d="m 109.24606,48.806854 c -0.16767,-0.202001 -0.0606,-1.849411 0.1356,-2.087012 0.0721,-0.08736 0.386,-0.158827 0.69746,-0.158827 h 0.56634 l -0.0838,0.412951 c -0.10154,0.500293 -0.52877,0.898533 -0.8686,0.809665 -0.14237,-0.03723 -0.19957,-0.01762 -0.13435,0.04605 0.0625,0.06099 0.31371,0.129265 0.55832,0.151718 0.35269,0.03238 0.45331,0.101436 0.48623,0.333708 0.0228,0.161086 -0.027,0.375502 -0.11084,0.476483 -0.19097,0.230097 -1.05923,0.240731 -1.24634,0.01527 z m 0.93448,-0.338172 c 0,-0.226197 -0.4191,-0.332293 -0.59963,-0.151789 -0.0703,0.07035 -0.0874,0.193337 -0.038,0.273307 0.12629,0.204367 0.63765,0.106921 0.63765,-0.121518 z m -0.12705,-1.33763 c 0,-0.355526 -0.37217,-0.316127 -0.42328,0.04481 -0.0326,0.230468 0.0101,0.287134 0.1906,0.252383 0.1324,-0.0255 0.23268,-0.153585 0.23268,-0.297193 z m -7.98372,1.124122 c -0.0466,-0.04659 -0.0847,-0.561192 -0.0847,-1.143558 0,-0.974141 0.0204,-1.05885 0.25413,-1.05885 0.20572,0 0.25414,0.08471 0.25414,0.444717 0,0.42354 0.0212,0.444717 0.44471,0.444717 0.42354,0 0.44471,-0.02117 0.44471,-0.444717 0,-0.310597 0.0575,-0.444717 0.19058,-0.444717 0.15531,0 0.1906,0.21177 0.1906,1.143559 0,0.931785 -0.0353,1.143555 -0.1906,1.143555 -0.13764,0 -0.19058,-0.141179 -0.19058,-0.508246 0,-0.496146 -0.0106,-0.508248 -0.44471,-0.508248 -0.43413,0 -0.44471,0.01209 -0.44471,0.508248 0,0.479129 -0.18399,0.663104 -0.42355,0.42354 z m 2.28563,-0.147656 c -0.26477,-0.292547 -0.27072,-0.895451 -0.0124,-1.264108 0.24934,-0.35601 0.9416,-0.38386 1.24373,-0.05003 0.28419,0.314024 0.27167,1.070361 -0.0222,1.336217 -0.3084,0.279115 -0.94713,0.267452 -1.20915,-0.02207 z m 0.92689,-0.204668 c 0.21034,-0.25345 0.11718,-0.842712 -0.15989,-1.011365 -0.18346,-0.111678 -0.26672,-0.09015 -0.41296,0.106765 -0.45193,0.608607 0.0979,1.476869 0.57285,0.9046 z m 1.0446,0.280863 c -0.0818,-0.08183 -0.1488,-0.480412 -0.1488,-0.885741 0,-0.570365 0.0431,-0.736957 0.1906,-0.736957 0.14605,0 0.19058,0.161523 0.19058,0.691341 0,0.380238 0.0597,0.728228 0.13264,0.77331 0.27109,0.16754 0.50268,-0.221726 0.50268,-0.844901 0,-0.46618 0.0472,-0.61975 0.1906,-0.61975 0.15068,0 0.19058,0.180462 0.19058,0.861798 v 0.861801 l -0.55006,0.02395 c -0.30253,0.01318 -0.61701,-0.04301 -0.69882,-0.124841 z m 1.75715,-0.712436 v -0.868603 l 0.50823,-0.01992 c 0.5697,-0.02233 0.67456,0.17544 0.19058,0.359442 -0.28064,0.106706 -0.31763,0.195122 -0.31763,0.759227 0,0.482806 -0.0465,0.638452 -0.1906,0.638452 -0.15084,0 -0.19058,-0.181218 -0.19058,-0.868603 z m 2.9224,-0.412604 c 0,-0.968341 0.0388,-1.268349 0.15882,-1.228553 0.10899,0.03612 0.17026,0.438353 0.19521,1.281207 0.0307,1.035992 0.006,1.228553 -0.15883,1.228553 -0.16263,0 -0.1952,-0.21364 -0.1952,-1.281207 z m 0.78785,1.128797 c -0.3556,-0.355598 0.0604,-0.991145 0.6487,-0.991145 0.13441,0 0.2122,-0.06854 0.18026,-0.15883 -0.0329,-0.09311 -0.22598,-0.144851 -0.46657,-0.12505 -0.28485,0.02344 -0.39422,-0.01543 -0.35753,-0.127063 0.0739,-0.22506 0.99608,-0.285713 1.13012,-0.07433 0.0584,0.09219 0.10715,0.487122 0.10821,0.877625 l 0.003,0.710004 -0.54631,0.02066 c -0.30046,0.01135 -0.61495,-0.04798 -0.69885,-0.131873 z m 0.84005,-0.389062 c 0.029,-0.150794 -0.0387,-0.220898 -0.21339,-0.220898 -0.29141,0 -0.45278,0.189772 -0.33012,0.38822 0.12367,0.200097 0.49474,0.08586 0.54351,-0.167322 z m 0.87098,0.456766 c -0.17547,-0.175472 -0.0734,-0.279985 0.25085,-0.256868 0.47215,0.03366 0.49464,-0.190617 0.0448,-0.446651 -0.63122,-0.359249 -0.40418,-1.05746 0.3148,-0.968058 0.39484,0.0491 0.43172,0.295072 0.0442,0.295072 -0.41323,0 -0.40164,0.228385 0.0238,0.470572 0.39523,0.22494 0.49051,0.575484 0.22783,0.838165 -0.16306,0.163071 -0.76599,0.208151 -0.90638,0.06777 z m 1.31299,-0.09804 c 0,-0.118862 0.11729,-0.174387 0.33555,-0.158827 0.47215,0.03366 0.49464,-0.190616 0.0448,-0.446651 -0.64498,-0.36707 -0.40207,-1.053441 0.3426,-0.968058 0.41098,0.04713 0.42482,0.295072 0.0164,0.295072 -0.41325,0 -0.40167,0.228385 0.0238,0.470572 0.64873,0.36922 0.43299,0.990639 -0.34396,0.990639 -0.28001,0 -0.41928,-0.06071 -0.41928,-0.182747 z M 98.948928,42.066419 c -0.143431,-0.172826 -0.06988,-0.587883 0.104193,-0.587883 0.04972,0 0.329486,-0.183769 0.621718,-0.408376 0.643251,-0.494393 0.707311,-0.862243 0.150151,-0.862243 -0.806265,0 -1.069049,-0.756804 -0.435769,-1.254951 0.440479,-0.346471 0.155787,-0.523917 -0.840555,-0.523917 -0.656616,0 -0.89109,-0.05166 -1.054629,-0.232362 -0.221879,-0.245176 -0.280088,-0.530008 -0.10832,-0.530008 0.15486,0 0.569939,-1.246151 0.487018,-1.462204 -0.06331,-0.165042 -0.131127,-0.16146 -0.52824,0.02792 -0.338958,0.161628 -0.510805,0.182716 -0.671116,0.08235 -0.259926,-0.162703 -0.344329,-0.702834 -0.162851,-1.041934 0.255349,-0.477142 -0.307155,-0.41623 -1.066165,0.115451 -0.398462,0.279122 -0.784172,0.459983 -0.892413,0.418449 -0.266224,-0.102161 -0.243893,-0.55421 0.02738,-0.55421 0.119883,0 0.487336,-0.265287 0.816531,-0.589528 0.515117,-0.507394 0.686911,-0.598025 1.233011,-0.650494 0.928926,-0.08926 1.328156,-0.557697 1.542045,-1.809465 0.229446,-1.342662 0.46482,-2.041749 0.823542,-2.44594 0.373115,-0.420426 0.520832,-0.436563 0.712814,-0.07787 0.177535,0.331751 0.07181,1.079979 -0.194125,1.373844 -0.107606,0.118909 -0.232436,0.56796 -0.277363,0.997892 -0.0694,0.663855 -0.04937,0.794107 0.132848,0.864026 0.33909,0.130122 1.524207,-0.266613 1.890447,-0.632852 0.27663,-0.276611 0.44882,-0.333224 1.01357,-0.333224 0.40148,0 0.78142,-0.07646 0.92697,-0.18655 0.28884,-0.218477 0.91511,-0.248205 1.3939,-0.06617 0.56346,0.214228 1.27503,-0.279297 1.74167,-1.207958 0.21082,-0.4196 0.48681,-0.909571 0.61328,-1.088829 0.27027,-0.383064 0.19844,-0.872654 -0.25924,-1.766805 -0.26561,-0.518933 -0.27731,-0.620287 -0.13552,-1.173583 0.13613,-0.531083 0.12647,-0.664443 -0.0784,-1.083821 -0.19804,-0.405299 -0.42603,-0.575101 -1.49521,-1.113533 -1.48825,-0.749483 -2.18279,-1.438471 -1.81787,-1.803387 0.18065,-0.180658 0.28054,-0.188317 0.72382,-0.05551 0.28398,0.08508 0.60518,0.292883 0.71736,0.464093 0.21865,0.333684 1.4078,0.787196 1.73496,0.661656 0.27122,-0.104076 0.37779,-1.463616 0.14388,-1.835385 -0.23638,-0.375669 -0.22434,-1.055756 0.0249,-1.411703 0.17052,-0.243443 0.2332,-0.262726 0.40182,-0.123568 0.39047,0.322241 0.64804,1.1753 0.74035,2.451999 0.11398,1.576308 0.43434,2.222498 1.10331,2.225318 0.69633,0.0029 0.95253,0.131043 1.31866,0.659347 0.19394,0.279871 0.4694,0.552582 0.61211,0.606023 0.14269,0.05344 0.70811,0.01971 1.25646,-0.07493 1.35273,-0.233497 1.83967,-0.620789 1.85271,-1.473647 0.007,-0.476853 0.087,-0.687723 0.39037,-1.033269 0.20966,-0.238781 0.38119,-0.5295 0.38119,-0.646041 0,-0.376981 0.37126,-0.943071 0.73017,-1.113335 0.21664,-0.102764 0.49501,-0.445373 0.73104,-0.899692 0.43844,-0.843947 0.42921,-0.859335 -0.66186,-1.103508 -0.56271,-0.125926 -0.76472,-0.125709 -1.0016,0.0011 -0.56153,0.300511 -1.83182,-0.441648 -1.3225,-0.772657 0.5492,-0.356937 1.16637,-0.424453 2.43391,-0.266261 1.12945,0.140954 1.32815,0.134749 1.8307,-0.05718 0.31007,-0.118411 0.56375,-0.292134 0.56375,-0.386053 0,-0.09392 0.0915,-0.399489 0.20338,-0.679048 0.15375,-0.384265 0.33981,-0.576437 0.76259,-0.787572 0.30755,-0.153606 0.6487,-0.415869 0.75808,-0.582811 0.15986,-0.243983 0.23461,-0.273881 0.38097,-0.152405 0.31097,0.258088 0.19424,0.5485 -0.39465,0.981702 -0.40534,0.298185 -0.56681,0.506328 -0.56681,0.730604 0,0.251974 0.0641,0.31363 0.32599,0.31363 0.79269,0 1.02751,0.461195 0.54628,1.072967 -0.24402,0.310237 -0.25167,0.364482 -0.076,0.540157 0.16332,0.163325 0.31691,0.173763 0.93834,0.06378 0.66545,-0.117777 0.76922,-0.106077 0.99338,0.112011 0.22471,0.218617 0.23328,0.285798 0.0838,0.656754 -0.55261,1.371081 -0.49903,1.62883 0.27162,1.306841 0.25305,-0.105736 0.54343,-0.160272 0.64527,-0.12119 0.25133,0.09644 0.33885,0.494376 0.20865,0.94843 -0.0953,0.332185 -0.0765,0.375669 0.16243,0.375669 0.29654,0 1.23682,-0.599149 1.23682,-0.788093 0,-0.06502 0.15724,-0.100129 0.34943,-0.07802 0.43455,0.05 0.45871,0.359397 0.0442,0.566057 -0.16788,0.08369 -0.51094,0.387911 -0.76237,0.67604 -0.39738,0.45538 -0.54436,0.533805 -1.12422,0.599884 -0.36689,0.04181 -0.66709,0.111522 -0.66709,0.154917 0,0.04339 -0.13388,0.223292 -0.29752,0.399777 -0.2321,0.250309 -0.32994,0.571392 -0.44487,1.459913 -0.19098,1.476512 -0.34709,2.01496 -0.7047,2.430721 -0.37092,0.431195 -0.67135,0.329928 -0.78274,-0.263826 -0.0633,-0.337283 -0.0183,-0.55268 0.1836,-0.879343 0.27514,-0.445185 0.37316,-1.627584 0.16245,-1.959454 -0.16021,-0.252322 -1.40814,0.16346 -1.83822,0.612458 -0.40148,0.419118 -0.82338,0.562581 -1.34668,0.457922 -0.22251,-0.0445 -0.4655,0.0037 -0.64195,0.127246 -0.21715,0.152104 -0.45506,0.179491 -1.0119,0.116491 -0.63188,-0.07149 -0.75883,-0.04832 -0.96137,0.175461 -0.12832,0.141803 -0.29593,0.258757 -0.37245,0.259897 -0.21376,0.0032 -1.12609,2.289101 -1.10704,2.773752 0.01,0.250624 0.17629,0.647374 0.40539,0.966409 0.35938,0.500438 0.38296,0.597678 0.31271,1.290159 -0.0688,0.678603 -0.0458,0.78237 0.24546,1.10509 0.17676,0.19589 0.62171,0.461817 0.98877,0.59095 1.30024,0.457435 2.10259,0.883068 2.36842,1.256395 0.33671,0.472871 0.33737,0.616378 0.003,0.722423 -0.43201,0.13711 -1.09209,-0.04996 -1.30093,-0.368686 -0.138,-0.210622 -0.41018,-0.340834 -0.95345,-0.45612 -0.41817,-0.08874 -0.82283,-0.122706 -0.89924,-0.07547 -0.0764,0.04723 -0.13893,0.430839 -0.13893,0.852466 0,0.574201 0.0638,0.84768 0.2541,1.089662 0.27673,0.351788 0.33028,0.925603 0.12261,1.313646 -0.19711,0.3683 -0.43341,0.299186 -0.78875,-0.230711 -0.35189,-0.524764 -0.54234,-1.205294 -0.67685,-2.418879 -0.11994,-1.081757 -0.48805,-1.487863 -1.43079,-1.578449 -0.5778,-0.05552 -0.75137,-0.14024 -1.21052,-0.590865 -0.2948,-0.289327 -0.63106,-0.526052 -0.74724,-0.526052 -0.11618,0 -0.25696,-0.07679 -0.31284,-0.170649 -0.0809,-0.135905 -0.32941,-0.148246 -1.22052,-0.06062 -1.52273,0.149739 -2.05481,0.486114 -2.17252,1.3734 -0.0686,0.517186 -0.16118,0.683114 -0.55549,0.995616 -0.30597,0.24248 -0.47951,0.489678 -0.49104,0.699527 -0.0241,0.439012 -0.51446,1.101643 -0.81511,1.101643 -0.24026,0 -0.7666,0.695473 -1.00914,1.333365 -0.10801,0.284091 -0.0689,0.322056 0.58317,0.56602 0.52832,0.197668 0.86031,0.242747 1.36011,0.184661 0.55809,-0.06486 0.71567,-0.03377 1.0106,0.199398 0.46213,0.365321 0.44136,0.486476 -0.12377,0.722606 -0.51617,0.215662 -1.53847,0.170566 -2.83403,-0.125018 -0.63309,-0.144439 -0.73911,-0.135483 -1.18658,0.100219 -0.37279,0.196381 -0.54216,0.396401 -0.70189,0.829029 -0.18266,0.494803 -0.30437,0.615204 -0.92037,0.910529 -0.390451,0.187182 -0.744648,0.430898 -0.787141,0.541592 -0.09496,0.247504 -0.261646,0.257355 -0.453019,0.02677 z m 1.965352,-1.572612 c 0.16338,-0.39906 0.15867,-0.412951 -0.14002,-0.412951 -0.23355,0 -0.32824,0.08543 -0.38732,0.349419 -0.043,0.192183 -0.28713,0.540687 -0.54245,0.774457 l -0.464212,0.425037 0.682472,-0.361505 c 0.48402,-0.2564 0.73159,-0.481571 0.85153,-0.774457 z m 0.60341,-0.869614 c 0.6414,-0.218538 0.69853,-0.350324 0.45493,-1.04912 -0.15291,-0.438669 -0.33512,-0.484302 -1.01688,-0.254649 -0.679,0.228743 -0.77679,0.344448 -0.55663,0.658765 0.10356,0.147828 0.18825,0.399 0.18825,0.55816 0,0.34308 0.13999,0.356148 0.93033,0.08684 z m 3.7392,-0.124261 c -0.19217,-0.104259 -0.34941,-0.251034 -0.34941,-0.326163 0,-0.07513 -0.0947,-0.100261 -0.21042,-0.05585 -0.11573,0.04441 -0.49586,-0.01405 -0.84471,-0.129926 -0.63193,-0.209891 -0.63513,-0.209553 -0.86363,0.09167 l -0.22931,0.302347 0.66109,0.144569 c 0.36359,0.07951 1.00414,0.148695 1.42345,0.153741 0.74534,0.009 0.75457,0.005 0.41294,-0.180393 z m -2.67457,-0.803058 c 0.1732,-0.277337 0.0985,-0.394886 -0.25085,-0.394886 -0.17261,0 -0.22341,0.06027 -0.16941,0.200986 0.0424,0.11054 0.0771,0.253486 0.0771,0.317653 0,0.196551 0.1847,0.129937 0.34314,-0.123753 z m -2.31288,-0.522386 c -0.0318,-0.05144 -0.2217,-0.161417 -0.421987,-0.244385 -0.290089,-0.12016 -0.503899,-0.11295 -1.050978,0.03544 l -0.686805,0.186291 0.647382,0.01154 c 0.476806,0.0085 0.70821,0.07877 0.878285,0.266698 0.215,0.23758 0.246777,0.240786 0.461403,0.04655 0.12679,-0.114732 0.2045,-0.250696 0.1727,-0.302141 z m 1.09556,-0.211632 c 0.19913,-0.0402 0.51475,-0.304707 0.78539,-0.658178 0.24887,-0.32503 0.97102,-1.09031 1.60478,-1.700625 1.39432,-1.342715 1.51217,-1.706433 0.54877,-1.693688 -0.5696,0.0075 -0.60584,-0.01212 -0.64455,-0.349647 -0.0225,-0.196699 0.0468,-0.491638 0.15412,-0.655423 0.15952,-0.243459 0.16483,-0.322924 0.0291,-0.435559 -0.20757,-0.172265 -1.36528,0.145134 -1.6115,0.441809 -0.20921,0.252076 -0.94592,0.629171 -2.01618,1.03202 -0.517024,0.194601 -0.967212,0.466879 -1.184118,0.716156 -0.319352,0.366972 -0.343456,0.46483 -0.275458,1.117589 0.07022,0.673841 0.04781,0.7526 -0.385418,1.355622 -0.252968,0.352121 -0.409205,0.671579 -0.347186,0.709906 0.06202,0.03833 0.433228,-0.02148 0.824944,-0.132911 0.707496,-0.201265 0.715751,-0.200432 1.257666,0.126606 0.30004,0.181063 0.63127,0.29868 0.7361,0.261372 0.10483,-0.03731 0.34042,-0.09808 0.52351,-0.135049 z m 2.38787,-1.312672 c 0.13903,0 0.25484,-0.753756 0.12789,-0.832226 -0.0522,-0.03227 -0.47397,0.356203 -0.93723,0.863264 l -0.8423,0.921925 0.3524,0.145399 c 0.33687,0.138988 0.37084,0.117988 0.77118,-0.476483 0.23035,-0.342035 0.46797,-0.621879 0.52806,-0.621879 z m 10.23148,0.114046 c -0.0317,-0.05134 -0.0823,-0.389983 -0.11245,-0.752533 -0.0622,-0.748136 -0.0352,-0.697315 -0.43588,-0.820695 -0.30051,-0.09254 -0.30173,-0.08892 -0.21153,0.632862 0.0499,0.399261 0.17751,1.018328 0.28366,1.375701 l 0.19296,0.649771 0.17047,-0.495879 c 0.0938,-0.272733 0.14452,-0.537885 0.11277,-0.589227 z m -15.764905,0.165013 c 0.214286,-0.309222 0.334936,-0.652481 0.334936,-0.952966 0,-0.507241 -0.07919,-0.562054 -0.43553,-0.301495 -0.197565,0.14447 -0.206613,0.205549 -0.06416,0.433617 0.138616,0.221996 0.132371,0.350502 -0.03823,0.78481 -0.11221,0.285639 -0.187801,0.519345 -0.167984,0.519345 0.01984,0 0.186769,-0.21749 0.370972,-0.483311 z m 0.616585,-2.352869 0.256805,-0.358476 -0.356526,-0.372131 c -0.196109,-0.204673 -0.452543,-0.372133 -0.569886,-0.372133 -0.117343,0 -0.421032,0.266559 -0.674846,0.592354 l -0.461513,0.592354 0.385233,0.234276 c 0.211879,0.128852 0.419233,0.322818 0.460746,0.431035 0.06366,0.165875 0.124777,0.150802 0.389334,-0.09602 0.172614,-0.161028 0.429419,-0.454094 0.570653,-0.651254 z m -2.372121,0.20778 c 0.360256,0.05846 0.420396,0.0278 0.471699,-0.240572 0.05292,-0.276892 0.01535,-0.307575 -0.375709,-0.307575 -0.344249,0 -0.558297,0.120589 -1.030631,0.580607 l -0.596159,0.580606 0.558959,-0.340034 c 0.413861,-0.251764 0.666141,-0.322641 0.971841,-0.273032 z m 9.152731,-0.649369 c 0.0977,-0.488812 0.0366,-0.586282 -0.30025,-0.479359 -0.1824,0.05789 -0.22973,0.160565 -0.18412,0.399275 0.0445,0.23259 -0.0547,0.465907 -0.3592,0.844767 l -0.42063,0.523425 0.59023,-0.434615 c 0.42479,-0.312791 0.61373,-0.552029 0.67397,-0.853493 z m 11.22957,0.793954 c -0.14507,-0.174824 -1.90185,-0.946857 -2.15458,-0.946857 -0.0819,0 -0.12695,0.147789 -0.10411,0.341852 0.0344,0.292511 0.12967,0.364575 0.66019,0.499277 0.34099,0.08658 0.66971,0.207164 0.73051,0.267954 0.0608,0.06079 0.31234,0.08697 0.55899,0.05817 0.35467,-0.04141 0.41931,-0.08751 0.309,-0.2204 z m -2.79027,-0.50214 c 0,-0.37946 -0.13687,-0.403717 -0.4328,-0.07671 -0.16944,0.187227 -0.18092,0.25581 -0.0515,0.307623 0.34983,0.140012 0.48426,0.07591 0.48426,-0.230915 z m -0.55202,-0.260591 c 0.23373,-0.178265 0.42494,-0.406812 0.42494,-0.507881 0,-0.101068 -0.21079,-0.417097 -0.46844,-0.702288 -0.45548,-0.504164 -0.47398,-0.511625 -0.66709,-0.269359 -0.10922,0.137041 -0.32727,0.315047 -0.48451,0.395568 -0.15724,0.08052 -0.28588,0.191277 -0.28588,0.246123 0,0.121605 0.87979,1.16196 0.98263,1.16196 0.0404,0 0.26464,-0.145854 0.49835,-0.324123 z m -12.37654,-0.850241 c 0.47172,-0.213399 0.85767,-0.430048 0.85767,-0.481441 0,-0.15317 -0.68665,-0.237667 -0.84791,-0.104338 -0.082,0.06779 -0.42505,0.19137 -0.76237,0.274624 -0.535942,0.132276 -0.618519,0.1969 -0.654634,0.512384 -0.03715,0.324678 -0.01164,0.352248 0.254132,0.273894 0.162512,-0.04792 0.681412,-0.261723 1.153112,-0.475123 z m -1.937681,0.01474 c 0,-0.205971 -0.05514,-0.238239 -0.285909,-0.16731 -0.414972,0.127556 -0.440372,0.183806 -0.171661,0.380281 0.289454,0.211656 0.45757,0.13341 0.45757,-0.212971 z m 12.656231,0.196259 c -0.0424,-0.11054 -0.0771,-0.249891 -0.0771,-0.309665 0,-0.05978 -0.18762,-0.07824 -0.41691,-0.04102 -0.29083,0.04719 -0.56943,-0.01722 -0.9212,-0.212947 l -0.50429,-0.280601 0.53509,0.52261 c 0.4287,0.418695 0.62722,0.522613 0.99833,0.522613 0.3702,0 0.44775,-0.04036 0.3861,-0.200986 z m -5.82495,-0.501229 c 0.36594,-0.246451 0.66537,-0.482708 0.66537,-0.525015 0,-0.20928 -0.55205,-0.932823 -0.71173,-0.932823 -0.20539,0 -1.13024,0.556072 -1.25169,0.752589 -0.0434,0.07017 0.0376,0.244017 0.17992,0.386334 0.14232,0.142316 0.25876,0.373115 0.25876,0.512884 0,0.344903 0.089,0.32481 0.85937,-0.193969 z m 5.43763,-0.655801 c -0.01,-0.758524 0.2396,-0.943362 0.86828,-0.643573 0.42796,0.204084 0.44768,0.202597 0.52454,-0.03952 0.0784,-0.246981 -0.27975,-1.393449 -0.43281,-1.385525 -0.0429,0.0021 -0.18769,0.08702 -0.32173,0.188442 -0.50649,0.383259 -0.77433,-0.341787 -0.39629,-1.072828 0.10223,-0.197712 0.27066,-0.392012 0.37428,-0.431773 0.18587,-0.07133 0.58338,-1.184278 0.58338,-1.633368 0,-0.352624 -1.54337,-0.334812 -1.99832,0.02307 -0.35179,0.276715 -0.92562,0.330264 -1.31366,0.12259 -0.37227,-0.199229 -0.29856,-0.412756 0.26958,-0.781156 l 0.51536,-0.334161 -0.43519,-0.331933 c -0.53797,-0.41034 -0.87003,-0.333767 -0.76784,0.177072 0.15073,0.75374 -0.43947,1.137307 -1.07024,0.695511 -0.51297,-0.35931 -0.6908,0.08394 -0.39037,0.973129 0.19249,0.569746 0.1786,0.561787 0.55253,0.316781 0.42347,-0.277466 0.57216,-0.169276 0.57216,0.416327 0,0.456983 -0.24833,0.86719 -0.67852,1.120846 -0.26897,0.158591 -0.73046,1.604836 -0.54896,1.720326 0.28276,0.179914 1.60613,0.105225 1.93326,-0.109106 0.50773,-0.332684 1.66761,-0.0388 1.50627,0.381659 -0.033,0.08594 -0.23516,0.259749 -0.44929,0.386233 l -0.38931,0.229973 0.53168,0.351992 c 0.72869,0.482412 0.97071,0.396554 0.96121,-0.341003 z m -12.548443,0.189047 c 0.08385,-0.08386 0.153326,-0.412634 0.15441,-0.730607 0,-0.317971 0.05498,-0.66198 0.119804,-0.764463 0.06498,-0.10278 0.06959,-0.245216 0.01032,-0.317654 -0.05919,-0.07223 -0.130308,-0.27427 -0.158036,-0.448979 -0.03924,-0.247192 -0.109008,-0.134454 -0.314563,0.508248 -0.145256,0.454245 -0.304615,1.068909 -0.354092,1.365915 -0.07938,0.476392 -0.06173,0.540014 0.149886,0.540014 0.131948,0 0.308505,-0.06861 0.392377,-0.152474 z m 5.607183,-0.339066 c 0.0699,-0.13058 0.091,-0.273526 0.0468,-0.317656 -0.16372,-0.163708 -1.00507,-0.06179 -1.43557,0.173887 -0.48774,0.26702 -0.40963,0.317426 0.21447,0.138435 0.29437,-0.08443 0.46582,-0.06835 0.63447,0.05949 0.30895,0.234196 0.38984,0.226081 0.5398,-0.05416 z m 5.15228,-0.03679 0.50556,-0.132445 -0.44204,-0.148947 c -0.26119,-0.08801 -0.8002,-0.12179 -1.31756,-0.08257 -0.77687,0.0589 -0.88805,0.100473 -0.98679,0.368893 l -0.11126,0.302508 0.92326,-0.0875 c 0.50779,-0.04813 1.15075,-0.147101 1.42883,-0.219946 z m 3.87612,-0.395594 c 0.003,-0.29173 -0.55862,-1.363192 -0.71276,-1.363192 -0.0251,0 0.0473,0.23218 0.16084,0.515959 0.16867,0.421579 0.17838,0.577519 0.0531,0.852501 -0.13068,0.286819 -0.1202,0.360772 0.0709,0.500528 0.27551,0.201448 0.42497,0.02476 0.42791,-0.505796 z m -6.53869,0.02492 c 0.1058,-0.333436 0.0222,-0.416955 -0.31105,-0.31115 -0.21542,0.06838 -0.23958,0.128547 -0.13216,0.329258 0.17063,0.318815 0.33843,0.311957 0.44321,-0.0181 z m 0.1915,-1.038686 c 0.003,-0.08735 0.14462,-0.444717 0.31649,-0.794136 0.1719,-0.349422 0.31099,-0.806844 0.30911,-1.016497 l -0.003,-0.381186 -0.31191,0.381186 c -0.29956,0.366098 -1.07662,1.731605 -1.07662,1.89195 0,0.155525 0.76245,0.07462 0.76634,-0.08132 z m 5.96746,-2.147853 c 0.4723,-0.998379 0.47432,-1.093578 0.0217,-1.027134 -0.31123,0.04568 -0.38174,0.137425 -0.5199,0.676548 -0.0879,0.343035 -0.21178,0.655794 -0.27525,0.695018 -0.0635,0.03923 -0.11538,0.304366 -0.11538,0.589201 v 0.517885 l 0.25373,-0.322591 c 0.13957,-0.177424 0.42543,-0.685443 0.63521,-1.128927 z m -5.99696,-0.983403 c -0.11504,-0.453284 -0.10414,-0.610116 0.0621,-0.891493 0.18864,-0.31936 0.18589,-0.351319 -0.0428,-0.494112 -0.33658,-0.2102 -0.33578,-0.210785 -0.43468,0.316384 -0.0666,0.3552 -0.0185,0.617262 0.19801,1.079659 0.15729,0.335833 0.30197,0.594632 0.32147,0.575109 0.0196,-0.01953 -0.0273,-0.283017 -0.10411,-0.585547 z m 13.80132,-0.172355 c 0.103,-0.36689 0.22508,-0.992095 0.27128,-1.38934 0.0805,-0.691751 0.0726,-0.719289 -0.18571,-0.651741 -0.35574,0.09303 -0.38153,0.148376 -0.44154,0.946947 -0.0281,0.37465 -0.0649,0.738362 -0.0818,0.808246 -0.035,0.145622 0.13981,0.952963 0.20638,0.952963 0.0243,0 0.12835,-0.300183 0.23135,-0.667075 z m -9.32863,-0.593098 c 0.61484,-0.06508 0.70401,-0.110487 0.74179,-0.377719 0.0419,-0.296495 0.027,-0.30162 -0.62675,-0.214903 -0.37806,0.05015 -0.73398,0.176753 -0.81732,0.290714 -0.10433,0.142687 -0.24826,0.176615 -0.49088,0.115718 -0.18878,-0.04738 -0.40566,-0.04759 -0.48191,-5.29e-4 -0.18955,0.117142 0.5434,0.429757 0.78565,0.3351 0.10483,-0.04096 0.50506,-0.107765 0.88942,-0.14845 z m 1.75398,0.116615 c 0.17182,0 0.15944,-0.04898 -0.0704,-0.278828 -0.309,-0.309005 -0.34009,-0.299898 -0.47535,0.139223 -0.0781,0.253564 -0.0575,0.291129 0.12166,0.222359 0.11861,-0.04551 0.30945,-0.08275 0.4241,-0.08275 z m 0.98663,-0.31573 c 0.83161,-0.634299 0.86164,-0.6927 0.50194,-0.975651 -0.17608,-0.138493 -0.32012,-0.362011 -0.32012,-0.496707 0,-0.134697 -0.0352,-0.244901 -0.0783,-0.244901 -0.1877,0 -1.31943,0.927309 -1.31943,1.081098 0,0.172423 0.5977,0.951891 0.72991,0.951891 0.0396,0 0.25829,-0.142078 0.48596,-0.31573 z m 2.3446,-0.527055 c 0.27803,-0.183997 0.50552,-0.348446 0.50552,-0.36544 0,-0.01699 -0.2572,0.06159 -0.57158,0.174638 -0.48808,0.175517 -0.61198,0.180293 -0.84834,0.0327 -0.24206,-0.151173 -0.29784,-0.14401 -0.44492,0.05713 -0.26387,0.36086 -0.2051,0.43552 0.34282,0.43552 0.3392,0 0.68091,-0.112458 1.0165,-0.334539 z m -6.80733,-0.491363 c -0.30797,-0.37583 -0.56859,-0.571781 -0.76049,-0.571781 -0.16057,0 -0.3751,-0.03191 -0.47673,-0.0709 -0.14041,-0.05388 -0.16985,0.0071 -0.12266,0.254125 0.0529,0.276489 0.13108,0.32571 0.52383,0.329596 0.29726,0.0029 0.5974,0.115838 0.84283,0.317024 0.53088,0.435142 0.52985,0.396851 -0.007,-0.258061 z m -2.28033,0.190592 c 0.1265,-0.139768 0.36407,-0.254124 0.52795,-0.254124 0.16388,0 0.29797,-0.03788 0.29797,-0.08417 0,-0.223136 -0.81219,-1.31351 -0.97837,-1.31351 -0.24588,0 -0.90337,0.388993 -0.9756,0.577196 -0.0599,0.156115 0.65117,1.328735 0.80574,1.328735 0.0508,0 0.19584,-0.114356 0.32231,-0.254125 z m 9.09409,-0.149296 c 0.23556,-0.08211 0.77298,-0.36435 1.19428,-0.6272 0.42132,-0.262848 1.10908,-0.628187 1.52839,-0.811866 1.05196,-0.460814 1.37441,-0.960078 1.20317,-1.862937 -0.11512,-0.607142 -0.0981,-0.690729 0.25799,-1.269526 0.43519,-0.707266 0.47702,-0.927208 0.15889,-0.835303 -1.42976,0.413033 -1.40089,0.411025 -1.96808,0.137033 -0.50149,-0.242247 -0.57886,-0.247763 -1.04971,-0.07482 -0.38756,0.142356 -0.62902,0.367157 -1.01647,0.946369 -0.27951,0.417814 -0.79809,1.025864 -1.15242,1.351219 -1.21378,1.114587 -1.53565,1.920862 -0.69289,1.735765 0.57811,-0.126976 0.89238,0.02246 0.89238,0.424357 0,0.189394 -0.0837,0.463918 -0.18611,0.610058 -0.30749,0.439013 0.0365,0.553672 0.83058,0.276852 z m 1.70104,-0.09649 c 0.0404,-0.0653 0.38679,-0.209844 0.76986,-0.321205 0.6406,-0.186229 0.69648,-0.232526 0.69648,-0.576969 0,-0.345575 -0.0241,-0.365291 -0.31332,-0.255365 -0.42552,0.16179 -1.36736,0.640009 -1.55328,0.788683 -0.0832,0.06654 -0.11997,0.202563 -0.0817,0.302279 0.0785,0.204605 0.37074,0.242543 0.48197,0.06258 z m 2.60064,-0.724274 c 0.0629,-0.05687 -0.38904,-0.41757 -0.53075,-0.423576 -0.0524,-0.0021 -0.0953,0.142756 -0.0953,0.322175 0,0.27963 0.0408,0.313666 0.28588,0.238339 0.15724,-0.04833 0.3103,-0.109955 0.34015,-0.136938 z m -6.56066,-0.49413 c -0.0159,-0.212188 0.12726,-0.57794 0.36623,-0.935128 l 0.39246,-0.586634 -0.57362,0.571778 c -0.40822,0.406898 -0.59361,0.707017 -0.64291,1.040762 -0.065,0.440127 -0.0523,0.462482 0.20738,0.363347 0.20246,-0.07729 0.26967,-0.199151 0.25046,-0.454125 z m 7.54782,-0.368305 0.43079,-0.625412 -0.38862,-0.163412 c -0.21375,-0.08988 -0.42248,-0.251571 -0.46384,-0.35932 -0.12393,-0.323011 -0.27265,-0.229341 -0.74805,0.471168 l -0.45268,0.667075 0.41677,0.352772 c 0.22921,0.194024 0.49731,0.336968 0.59579,0.317656 0.0984,-0.01931 0.37288,-0.316553 0.60984,-0.660527 z m -16.09825,0.07374 c 0,-0.314941 -0.069,-0.381555 -0.54001,-0.521372 -0.29702,-0.08816 -0.61727,-0.223377 -0.71173,-0.300479 -0.0944,-0.0771 -0.40516,-0.146042 -0.69051,-0.153199 l -0.5188,-0.01302 0.34706,0.26162 c 0.37237,0.280694 1.86097,1.080776 2.01869,1.08498 0.0524,0.0013 0.0953,-0.159943 0.0953,-0.358532 z m 1.10919,-0.171095 c -0.33131,-0.210463 -0.60095,-0.11099 -0.60095,0.221697 v 0.324837 l 0.37859,-0.223642 c 0.26369,-0.15575 0.33118,-0.253772 0.22236,-0.322892 z m 16.30917,-0.20737 c 0.11081,-0.0475 0.39672,-0.310769 0.63532,-0.585041 l 0.43381,-0.498676 -0.53885,0.355965 c -0.40082,0.264781 -0.63328,0.337076 -0.90749,0.282231 -0.31719,-0.06344 -0.37701,-0.0302 -0.42829,0.238008 -0.0513,0.268095 -0.0132,0.310492 0.27221,0.302811 0.18251,-0.0049 0.42248,-0.0478 0.53329,-0.0953 z m -15.93828,-1.345544 c -0.0452,-0.587719 -0.13017,-1.198441 -0.18888,-1.357156 -0.10195,-0.275585 -0.11396,-0.268952 -0.26694,0.147386 -0.19622,0.533919 -0.17267,2.048335 0.0339,2.179706 0.43812,0.278689 0.50596,0.122759 0.42195,-0.969936 z m 13.93986,-0.306382 c -0.16902,-0.262057 -0.16886,-0.35768 0.003,-0.857668 0.10547,-0.309499 0.17206,-0.562726 0.14798,-0.562726 -0.0241,0 -0.19655,0.260765 -0.38332,0.579477 -0.27689,0.472471 -0.32407,0.671502 -0.25541,1.077814 0.084,0.49748 0.0847,0.497959 0.38185,0.278191 0.27583,-0.204007 0.28371,-0.241768 0.1074,-0.515088 z m -4.80798,-0.433882 c 0.59168,-0.787101 0.62121,-0.986512 0.14615,-0.986512 -0.19502,0 -0.3583,0.145153 -0.5325,0.4734 -0.13819,0.260371 -0.35629,0.579805 -0.48464,0.709853 -0.16073,0.162875 -0.20854,0.335354 -0.15359,0.554308 0.10007,0.398679 0.23427,0.300312 1.02458,-0.751049 z m 4.25428,-1.542706 c 0.10483,-0.04453 -0.0453,-0.05242 -0.33361,-0.01754 -0.39653,0.04798 -0.6014,0.0027 -0.84127,-0.18601 -0.30808,-0.242321 -0.32316,-0.24274 -0.52951,-0.01474 -0.20177,0.222951 -0.18862,0.244194 0.26263,0.424174 0.48143,0.19203 0.51683,0.186973 1.44176,-0.205901 z m -2.58852,-0.02885 c 0.75623,-0.313344 0.85439,-0.425538 0.60928,-0.696376 -0.11372,-0.125669 -0.21524,-0.374729 -0.22556,-0.553471 -0.0225,-0.390644 -0.13964,-0.400495 -0.8977,-0.07555 -0.64558,0.276736 -0.72313,0.507175 -0.38843,1.154383 0.22531,0.435721 0.25156,0.440695 0.90241,0.171019 z m -1.09823,-0.08203 c 0,-0.08735 -0.056,-0.244316 -0.12206,-0.3488 -0.103,-0.16296 -0.14628,-0.154125 -0.30442,0.06213 -0.10139,0.138655 -0.15746,0.295617 -0.1246,0.348801 0.0989,0.159983 0.55317,0.108765 0.55108,-0.06213 z m -0.80428,-0.943888 c -0.0351,-0.03506 -0.65421,-0.09087 -1.37586,-0.124013 -1.19695,-0.05497 -1.28982,-0.04319 -1.05799,0.134184 0.13978,0.106944 0.31924,0.249883 0.3988,0.31764 0.0796,0.06776 0.25112,0.09772 0.38119,0.06658 0.13007,-0.03114 0.49382,0.02268 0.80827,0.1196 0.55886,0.172236 0.57561,0.169137 0.74057,-0.137007 0.0928,-0.172275 0.14007,-0.341918 0.10502,-0.376981 z m 2.45803,-1.146585 c 0,-0.212918 0.1569,-0.50963 0.41296,-0.780986 l 0.41294,-0.437618 -0.5587,0.304506 c -0.35684,0.194487 -0.62079,0.452228 -0.73059,0.713375 -0.22585,0.537157 -0.224,0.544094 0.14573,0.544094 0.26048,0 0.31766,-0.06182 0.31766,-0.343371 z M 91.864974,16.583755 c -0.500274,-0.305041 -0.737023,-0.971992 -0.638942,-1.800021 0.122502,-1.034344 0.616426,-1.512948 1.561359,-1.512948 0.576395,0 0.938636,0.197874 0.938636,0.512717 0,0.301517 -0.03339,0.304623 -0.527606,0.04905 -0.480483,-0.24847 -1.017032,-0.07216 -1.234784,0.405763 -0.284718,0.624887 -0.12745,1.70702 0.288422,1.984713 0.206878,0.138137 0.938557,0.116938 1.029256,-0.02982 0.119248,-0.192977 0.444712,-0.151757 0.444712,0.05632 0,0.544301 -1.171496,0.754684 -1.861053,0.334219 z" />
      <path
         style="fill:#ff0000;stroke:#000000;stroke-width:0.012009"
         d="m 406.00054,91.585401 c -1.1914,0.436621 -2.74777,1.029176 -3.24056,2.279373 0.60283,1.692128 1.51901,3.485726 2.89999,4.631927 1.09975,-0.944113 2.34828,-1.872734 3.86166,-1.973518 0.75053,-0.487231 -0.56248,-1.410185 -0.68817,-1.941619 -0.85465,-1.001696 -1.46518,-2.516714 -2.75176,-3.0032 z"
         id="path2295"
         transform="scale(0.26458333)" class="OC" />
      <path
         style="fill:#ff0000;stroke:#000000;stroke-width:0.00280748"
         d="m 391.48933,87.350599 c -0.0944,-0.0051 -0.4252,-0.0073 -0.22262,0.136974 2.24465,1.749882 4.79314,3.051453 7.31863,4.340842 0.46189,0.182676 0.90079,0.514894 1.40538,0.549432 0.33962,-0.164952 0.26684,-0.649298 0.29436,-0.964175 -0.0327,-0.544169 0.15106,-1.230687 -0.33921,-1.628025 -0.74061,-0.525849 -1.67631,-0.66284 -2.50602,-0.998746 -0.74892,-0.251834 -1.45733,-0.600462 -2.13729,-0.995331 -1.19893,-0.479068 -2.54683,-0.409976 -3.81323,-0.440971 z"
         id="path2317"
         transform="scale(0.26458333)" class="OC" />
      <path
         style="fill:#ff0000;stroke:#000000;stroke-width:0.00280748"
         d="m 403.26637,89.998839 c -0.53189,-0.0013 -0.9785,0.466912 -0.95882,0.997642 -0.0141,0.459424 -0.0654,0.948652 0.0315,1.39321 0.65258,-0.286739 1.24516,-0.728828 1.84818,-1.115138 0.24443,-0.165336 0.66678,-0.455728 0.43213,-0.790217 -0.3813,-0.278639 -0.874,-0.487565 -1.35296,-0.485497 z"
         id="path2318"
         transform="scale(0.26458333)" class="OC" />
      <path
         style="fill:#ff0000;stroke:#000000;stroke-width:0.00280748"
         d="m 404.83329,78.711136 c -0.26193,0.11362 -0.27602,0.485669 -0.40917,0.711191 -0.70712,1.705777 -0.71512,3.59211 -0.70515,5.40889 0.0547,1.04524 0.0544,2.133289 0.44393,3.119699 0.21912,0.380704 0.68712,0.535668 1.07846,0.676756 0.45583,0.140348 0.75307,-0.386058 0.73576,-0.777978 0.11665,-2.398425 -0.12026,-4.804337 -0.49087,-7.172557 -0.13861,-0.656923 -0.20987,-1.375125 -0.58946,-1.944616 -0.018,-0.01377 -0.0406,-0.02259 -0.0635,-0.02139 z"
         id="path2319"
         transform="scale(0.26458333)" class="OC" />
      <path
         style="fill:#ff0000;stroke:#000000;stroke-width:0.00280748"
         d="m 404.10247,98.750382 c -0.34738,0.103067 -0.35412,0.574179 -0.45537,0.860127 -0.27366,1.132581 -0.41089,2.348651 0.0118,3.464921 0.43343,1.16537 0.9698,2.29728 1.57986,3.38027 0.0377,0.0859 0.25082,0.31812 0.22537,0.0869 -0.15202,-1.33628 -0.68762,-2.61716 -0.6954,-3.96874 0.0272,-0.96114 0.80094,-1.67917 1.00992,-2.586832 -0.004,-0.415141 -0.48468,-0.588201 -0.76164,-0.810001 -0.28812,-0.164617 -0.58047,-0.376307 -0.91451,-0.426605 z"
         id="path2320"
         transform="scale(0.26458333)" class="OC" />
      <path
         style="fill:#ff0000;stroke:#000000;stroke-width:0.00280748"
         d="m 410.44342,94.490145 c -0.30988,0.116787 -0.18808,0.556573 -0.16801,0.809233 0.0687,0.552407 0.26981,1.266503 0.91616,1.36053 1.07409,0.163097 2.22184,0.06027 3.19987,0.616658 0.93139,0.421867 1.62223,1.227022 2.50644,1.717387 0.0881,-0.127089 -0.14782,-0.292365 -0.19378,-0.414322 -0.90936,-1.171802 -1.81907,-2.38115 -2.99861,-3.29737 -0.46666,-0.377673 -1.06738,-0.500955 -1.6541,-0.49066 -0.54981,-0.02531 -1.07185,-0.214399 -1.60797,-0.301456 z"
         id="path2321"
         transform="scale(0.26458333)" class="OC" />
      <path
         style="fill:#ffff00;stroke:#000000;stroke-width:0.00449125"
         d="m 390.35854,146.85005 c -0.67432,0.044 -0.94091,0.81885 -1.37036,1.23281 -0.12021,0.23845 -0.50368,0.49648 -0.4679,0.75193 2.95043,0.75408 5.99037,1.2 9.04161,1.09249 0.31766,-0.0496 0.75372,0.0695 1.0165,-0.0995 -0.66597,-0.58072 -1.6405,-0.88974 -2.07702,-1.7158 -0.0622,-0.41538 -0.66333,-0.14546 -0.93191,-0.21109 -1.77352,0.0845 -3.38815,-0.8028 -5.10987,-1.05102 -0.0337,-0.001 -0.0674,-0.001 -0.10105,1.8e-4 z"
         id="path2430"
         transform="scale(0.26458333)" class="T" />
      <path
         style="fill:#ffff00;stroke:#000000;stroke-width:0.00449125"
         d="m 392.55065,135.45895 c -0.91335,0.44568 -1.55704,1.30849 -2.29519,1.98873 -1.47071,1.50983 -2.87538,3.08183 -4.30185,4.63322 0.64002,0.32533 1.37363,0.66746 2.10281,0.83246 0.81544,-0.0522 1.20563,-0.94253 1.67422,-1.49228 0.73098,-0.97069 1.34587,-2.07664 2.29545,-2.85212 0.67589,-0.47249 0.66795,-1.43504 0.7714,-2.17352 -0.0245,-0.26025 0.0972,-0.85252 -0.24684,-0.93649 z"
         id="path2431"
         transform="scale(0.26458333)" class="T" />
      <path
         style="fill:#ffff00;stroke:#000000;stroke-width:0.00449125"
         d="m 386.78747,144.76986 c -0.36917,-0.002 -0.97568,0.25613 -0.65786,0.70103 0.24203,0.50976 0.17802,1.10713 0.42874,1.60337 0.25745,0.2126 0.56495,-0.20549 0.76017,-0.35422 0.34582,-0.42266 0.79513,-0.97761 0.64545,-1.55614 -0.26108,-0.34904 -0.77388,-0.39524 -1.1765,-0.39404 z"
         id="path2432"
         transform="scale(0.26458333)" class="T" />
      <path
         style="fill:#ffff00;stroke:#000000;stroke-width:0.00449125"
         d="m 383.67448,144.34512 c -1.33175,0.17148 -2.61841,0.64846 -3.83458,1.20387 -0.48165,0.19717 -0.88901,0.73533 -0.61895,1.25702 0.44164,0.84719 0.95384,1.70482 0.96579,2.69387 -0.0133,0.45843 0.21105,1.00251 0.75351,0.97685 1.47126,-0.28948 2.95481,-0.69968 4.27616,-1.42247 0.86755,-0.47856 0.68241,-1.58861 0.44492,-2.37718 -0.28173,-0.82652 -0.49317,-1.9624 -1.43176,-2.28371 -0.18032,-0.0496 -0.36918,-0.0582 -0.55509,-0.0482 z"
         id="path2433"
         transform="scale(0.26458333)" class="T" />
      <path
         style="fill:#ffff00;stroke:#000000;stroke-width:0.00449125"
         d="m 375.64497,143.08249 c -1.4384,0.17988 -2.86321,0.58054 -4.24054,0.99316 0.30065,0.18662 0.79147,0.0702 1.15046,0.13552 1.1641,0.0964 2.44796,-0.032 3.49464,0.56992 0.52835,0.31465 0.85481,1.00103 1.48352,1.1179 0.61045,-0.2888 1.17959,-0.81111 1.43685,-1.44509 0.0159,-0.40296 -0.56849,-0.49725 -0.82509,-0.69823 -0.78258,-0.39415 -1.59987,-0.76251 -2.49984,-0.67318 z"
         id="path2434"
         transform="scale(0.26458333)" class="T" />
      <path
         style="fill:#ffff00;stroke:#000000;stroke-width:0.00449125"
         d="m 380.92324,151.50989 c -0.64485,-0.0779 -1.24224,0.34042 -1.38913,0.97351 -0.47229,1.87048 -2.11481,3.05276 -3.31458,4.43598 0.3406,-10e-4 0.72369,-0.35704 1.06796,-0.48889 1.46327,-0.80481 3.11695,-1.56139 3.93733,-3.11095 0.24409,-0.50578 0.57752,-1.0663 0.51614,-1.64193 -0.17571,-0.24114 -0.56469,-0.13716 -0.81772,-0.16772 z"
         id="path2435"
         transform="scale(0.26458333)" class="T" />
      <path
         style="fill:#ff6600;stroke:#000000;stroke-width:0.00449125"
         d="m 371.0153,126.5654 c -0.83026,0.22178 -1.41142,0.96469 -1.98305,1.56352 -0.74552,0.93713 -1.56119,1.85262 -2.20802,2.84948 1.18656,0.81465 2.54897,1.52354 3.31809,2.79458 0.31112,0.27345 0.66537,-0.21417 0.91614,-0.36948 1.29197,-1.19159 2.47264,-2.54576 3.35598,-4.06686 -0.4097,-0.68139 -1.11025,-1.18294 -1.67352,-1.74842 -0.50166,-0.40991 -1.03344,-0.99893 -1.72562,-1.02282 z"
         id="path2436"
         transform="scale(0.26458333)" class="OR" />
      <path
         style="fill:#ff6600;stroke:#000000;stroke-width:0.00449125"
         d="m 364.96598,129.42068 c -1.34597,-0.0325 -2.46655,0.82341 -3.37652,1.72231 -0.73218,0.71259 -1.56149,1.35913 -2.20157,2.14928 0.23852,0.0505 0.53424,-0.27817 0.78015,-0.36538 1.21947,-0.72087 2.49716,-1.62299 3.98969,-1.46831 0.58112,-0.0499 1.23139,0.19481 1.78071,-0.0467 0.41914,-0.41573 0.51681,-1.10861 0.43,-1.66807 -0.27108,-0.44284 -0.97555,-0.26908 -1.40246,-0.32316 z"
         id="path2437"
         transform="scale(0.26458333)" class="OR" />
      <path
         style="fill:#ff6600;stroke:#000000;stroke-width:0.00449125"
         d="m 374.43251,125.23066 c -0.6596,0.13277 -1.40021,0.29883 -1.90422,0.76106 0.08,0.4879 0.65108,0.74817 1.02895,0.99842 0.34576,0.24944 0.91361,0.33343 1.1251,-0.13473 0.20591,-0.47976 0.34331,-1.1951 -0.054,-1.6044 -0.0604,-0.0292 -0.1308,-0.0241 -0.19579,-0.0203 z"
         id="path2438"
         transform="scale(0.26458333)" class="OR" />
      <path
         style="fill:#ff6600;stroke:#000000;stroke-width:0.00449125"
         d="m 374.089,114.16588 c -0.45089,0.53927 -0.57162,1.30904 -0.835,1.95549 -0.65549,2.15295 -1.36135,4.32479 -1.57869,6.57455 -0.0536,0.39057 0.0436,0.99427 0.57175,0.92351 0.85463,-0.0162 1.82865,-0.51831 1.92414,-1.4541 0.38878,-1.69886 0.0753,-3.5282 0.82675,-5.14312 0.16703,-0.71468 -0.49635,-1.28402 -0.57469,-1.97091 -0.11221,-0.26979 -0.0812,-0.71027 -0.33426,-0.88542 z"
         id="path2439"
         transform="scale(0.26458333)" class="OR" />
      <path
         style="fill:#ff6600;stroke:#000000;stroke-width:0.00449125"
         d="m 383.32307,123.48329 c -0.95681,4.8e-4 -1.72682,0.68256 -2.64124,0.88176 -1.06939,0.42096 -2.29597,0.49802 -3.25931,1.15561 -0.58229,0.52038 -0.53314,1.40488 -0.52439,2.11826 0.11974,0.40862 0.68494,0.0843 0.95468,0.0442 2.43212,-0.87858 4.81469,-1.92422 7.07332,-3.18534 0.19759,-0.11492 0.74327,-0.37628 0.33256,-0.6073 -0.57365,-0.33664 -1.28398,-0.39643 -1.93562,-0.40719 z"
         id="path2440"
         transform="scale(0.26458333)" class="OR" />
      <path
         style="fill:#ff6600;stroke:#000000;stroke-width:0.00449125"
         d="m 371.97215,134.26438 c -0.65019,0.21829 -1.29881,0.62506 -1.69615,1.18983 0.0331,0.83777 0.88208,1.50553 0.64369,2.39247 -0.15034,1.16643 -0.76751,2.21764 -1.01983,3.34808 0.29581,-0.12106 0.48142,-0.56018 0.71279,-0.8043 1.02903,-1.34806 1.92074,-2.93594 1.82701,-4.68887 -0.0558,-0.46209 0.0546,-1.12846 -0.37769,-1.43265 -0.0291,-0.008 -0.06,-0.008 -0.0898,-0.005 z"
         id="path2441"
         transform="scale(0.26458333)" class="OR" />
      <path
         style="fill:#00ff00;stroke:#000000;stroke-width:0.00449125"
         d="m 400.53735,119.36152 c -1.14688,0.21937 -2.12672,0.94548 -3.11914,1.52474 -0.56022,0.43078 -1.32493,0.74957 -1.63702,1.41527 0.17364,1.03944 1.27052,1.62225 1.52755,2.64001 0.20898,0.45201 0.0766,1.03315 0.35316,1.44071 0.62293,0.0879 1.15454,-0.45924 1.68509,-0.70913 1.27707,-0.86459 2.66738,-1.62797 3.73703,-2.75369 0.22704,-0.41013 -0.20862,-0.8494 -0.37193,-1.21317 -0.56794,-0.85398 -1.18912,-1.73591 -2.03457,-2.32737 -0.0452,-0.0143 -0.0929,-0.0196 -0.14017,-0.0174 z"
         id="path2442"
         transform="scale(0.26458333)" class="IR" />
      <path
         style="fill:#00ff00;stroke:#000000;stroke-width:0.00449125"
         d="m 393.54013,120.31345 c -1.74306,0.12215 -3.57153,0.57812 -4.9295,1.73176 0.62273,0.14363 1.36036,-0.20143 2.0152,-0.30634 0.84306,-0.23624 1.79726,-0.27443 2.5079,0.32403 0.39791,0.24371 1.02513,0.75578 1.45096,0.2753 0.39564,-0.44839 0.82916,-1.13442 0.58965,-1.74615 -0.41031,-0.35624 -1.13468,-0.24701 -1.63421,-0.2786 z"
         id="path2443"
         transform="scale(0.26458333)" class="IR" />
      <path
         style="fill:#00ff00;stroke:#000000;stroke-width:0.00449125"
         d="m 398.74278,127.08541 c -0.57323,0.0582 -1.41861,0.24137 -1.39404,0.9786 0.003,0.91684 0.0696,1.8977 -0.50263,2.68141 -0.58644,0.97872 -1.45588,1.79781 -2.03703,2.75317 1.18188,-0.75215 2.34624,-1.63163 3.34019,-2.64299 0.877,-0.88623 1.26561,-2.22381 1.09684,-3.44563 -0.0499,-0.23209 -0.27842,-0.35129 -0.50333,-0.32456 z"
         id="path2444"
         transform="scale(0.26458333)" class="IR" />
      <path
         style="fill:#00ff00;stroke:#000000;stroke-width:0.00449125"
         d="m 404.05245,118.92152 c -0.52077,0.0599 -1.20254,0.19008 -1.46632,0.69298 0.0778,0.64188 0.49802,1.28592 1.07597,1.58562 0.56088,-0.20399 0.73481,-0.91426 0.8786,-1.43597 0.11232,-0.38617 0.033,-0.907 -0.48825,-0.84263 z"
         id="path2445"
         transform="scale(0.26458333)" class="IR" />
      <path
         style="fill:#00ff00;stroke:#000000;stroke-width:0.00449125"
         d="m 407.37211,108.31375 c -0.59851,0.4875 -1.00487,1.2107 -1.48053,1.82142 -1.36329,2.0288 -2.62318,4.14772 -3.58931,6.39476 0.10664,0.48182 0.78022,0.32817 1.14807,0.34316 0.51992,-0.0673 1.12916,-0.0508 1.55597,-0.38579 0.6068,-1.67541 1.42067,-3.26947 2.04247,-4.9409 0.35422,-1.01948 0.47976,-2.13613 0.38491,-3.20229 -0.0136,-0.0199 -0.0372,-0.0326 -0.0616,-0.0304 z"
         id="path2446"
         transform="scale(0.26458333)" class="IR" />
      <path
         style="fill:#00ff00;stroke:#000000;stroke-width:0.00449125"
         d="m 411.47827,120.26152 c -1.50203,0.0808 -3.07023,-0.0595 -4.51248,0.44053 -0.78544,0.31498 -1.06652,1.23175 -1.24158,1.9686 0.6657,0.13923 1.39083,-0.0862 2.07184,-0.0979 2.86217,-0.26666 5.72458,-0.64005 8.50031,-1.40997 -0.73826,-0.34145 -1.65839,-0.60261 -2.51159,-0.76719 -0.76118,-0.12983 -1.53632,-0.14015 -2.3065,-0.13404 z"
         id="path2447"
         transform="scale(0.26458333)" class="IR" />
      <path
         style="fill:#0000ff;stroke:#000000;stroke-width:0.00449125"
         d="m 416.08004,123.93346 c 0.0322,0.27698 0.44411,0.49343 0.61147,0.73364 1.12909,1.03408 2.17582,2.39686 3.75065,2.72743 0.72835,0.0709 1.55681,0.18272 2.22598,-0.17123 0.15915,-0.46238 -0.14918,-0.97084 -0.21316,-1.43755 -0.18276,-0.63071 -1.00724,-0.33977 -1.47771,-0.39769 -1.10406,0.0568 -2.25621,0.0165 -3.22206,-0.58573 -0.56222,-0.27843 -1.09639,-0.63304 -1.67517,-0.86887 z"
         id="path2448"
         transform="scale(0.26458333)" class="IC" />
      <path
         style="fill:#0000ff;stroke:#000000;stroke-width:0.00449125"
         d="m 426.51955,115.07975 c -0.0463,0.41933 0.26015,0.87135 0.35653,1.29003 0.39634,1.1527 1.05491,2.44923 0.46734,3.65542 -0.24115,0.5261 -0.62754,1.27507 -0.07,1.74598 0.32597,0.30142 0.9233,0.86478 1.33351,0.38877 0.68622,-0.7932 0.57754,-1.99004 0.29912,-2.93282 -0.56895,-1.4719 -1.21496,-2.99234 -2.33492,-4.13405 -0.0147,-0.01 -0.0334,-0.0198 -0.0516,-0.0133 z"
         id="path2449"
         transform="scale(0.26458333)" class="IC" />
      <path
         style="fill:#0000ff;stroke:#000000;stroke-width:0.00449125"
         d="m 426.99464,122.94574 c -0.90574,0.79142 -1.71813,1.71559 -2.79566,2.2896 -0.24763,0.22981 -0.78212,0.40315 -0.76347,0.80112 0.85808,1.42215 2.00427,2.66031 3.16018,3.84685 0.23467,0.19572 0.53781,0.64739 0.8514,0.29827 1.08743,-0.76487 2.29341,-1.50246 3.01336,-2.65091 0.27334,-0.66474 -0.4073,-1.24255 -0.70492,-1.76878 -0.78798,-0.99299 -1.56749,-2.05303 -2.61825,-2.78159 -0.0446,-0.0195 -0.093,-0.0394 -0.14264,-0.0346 z"
         id="path2450"
         transform="scale(0.26458333)" class="IC" />
      <path
         style="fill:#0000ff;stroke:#000000;stroke-width:0.00449125"
         d="m 430.55062,128.99085 c -0.61479,0.20554 -1.02565,0.80248 -1.4307,1.28159 -0.31274,0.33411 0.0218,0.73715 0.39561,0.78912 0.45053,0.17811 1.17234,0.36595 1.3958,-0.23105 0.19896,-0.56601 0.28277,-1.38691 -0.22386,-1.81229 -0.0422,-0.0211 -0.0899,-0.0301 -0.13685,-0.0274 z"
         id="path2451"
         transform="scale(0.26458333)" class="IC" />
      <path
         style="fill:#0000ff;stroke:#000000;stroke-width:0.00449125"
         d="m 433.52397,128.47138 c -0.51229,0.1041 -0.39139,0.80401 -0.40772,1.18632 -0.054,0.72534 0.48153,1.31836 1.1493,1.51527 1.46749,0.54238 3.04486,0.79963 4.41791,1.5793 0.86775,0.19303 1.79718,0.0779 2.66334,-0.0849 0.28125,-0.015 0.59478,-0.30478 0.29755,-0.54035 -1.1611,-0.96659 -2.62859,-1.47336 -3.97403,-2.12819 -1.35155,-0.54842 -2.68032,-1.23323 -4.11425,-1.5292 z"
         id="path2452"
         transform="scale(0.26458333)" class="IC" />
      <path
         style="fill:#0000ff;stroke:#000000;stroke-width:0.00449125"
         d="m 428.00447,132.89771 c -0.3494,0.0805 -0.17999,0.61197 -0.22122,0.86291 0.24828,3.06464 0.96833,6.09115 1.90474,9.00783 0.31771,-0.23869 0.33191,-0.79534 0.5133,-1.14441 0.41659,-1.11824 0.74944,-2.33517 0.42389,-3.5228 -0.28453,-1.42051 -0.23816,-2.8949 -0.56368,-4.3044 -0.34232,-0.62038 -1.16584,-0.71811 -1.78913,-0.88316 -0.0885,-0.0128 -0.17835,-0.0233 -0.2679,-0.016 z"
         id="path2453"
         transform="scale(0.26458333)" class="IC" />
      <path
         style="fill:#808080;stroke:#000000;stroke-width:0.00449125"
         d="m 424.08042,99.19214 c -1.5467,0.14977 -3.2149,0.241997 -4.55686,1.10807 -0.40073,0.41798 -0.93111,0.78435 -1.53983,0.66597 -0.77968,-0.054 -1.65942,-0.39463 -2.4051,-0.0349 -0.15356,0.36233 0.41127,0.56338 0.64808,0.72123 0.90691,0.50588 1.98025,0.61465 2.9772,0.32807 1.60299,-0.35478 3.2827,-0.34453 4.85441,-0.83561 0.70308,-0.23727 0.77281,-1.13754 0.62719,-1.750012 -0.11507,-0.213036 -0.39763,-0.200512 -0.60509,-0.202808 z"
         id="path2454"
         transform="scale(0.26458333)" class="OF" />
      <path
         style="fill:#808080;stroke:#000000;stroke-width:0.00449125"
         d="m 428.28623,104.26935 c -0.76982,0.0407 -1.68967,0.26951 -1.9451,1.10527 -0.6015,1.43114 -0.74561,3.07291 -1.67123,4.3523 -0.39067,1.1982 -0.27085,2.50228 -0.23439,3.73966 0.41784,-0.30172 0.67871,-0.86781 1.01615,-1.27702 1.38389,-2.04473 2.43014,-4.30392 3.35452,-6.58703 0.0941,-0.36747 0.46603,-1.03077 -0.0212,-1.26984 -0.15741,-0.0639 -0.33125,-0.0694 -0.49877,-0.0633 z"
         id="path2455"
         transform="scale(0.26458333)" class="OF" />
      <path
         style="fill:#808080;stroke:#000000;stroke-width:0.00449125"
         d="m 427.29272,100.21916 c -0.56764,0.17095 -0.55836,0.9287 -0.77667,1.38159 -0.0147,0.22278 -0.33127,0.71392 0.006,0.81702 0.7432,-0.19429 1.50033,-0.35036 2.26264,-0.47755 0.40715,-0.02 0.0295,-0.39321 -0.0944,-0.52614 -0.42868,-0.41279 -0.84104,-0.9682 -1.39754,-1.19492 z"
         id="path2456"
         transform="scale(0.26458333)" class="OF" />
      <path
         style="fill:#808080;stroke:#000000;stroke-width:0.00449125"
         d="m 432.67677,94.403174 c -1.07033,0.355228 -1.90374,1.196253 -2.79615,1.857201 -0.72976,0.671755 -1.64868,1.236915 -2.1072,2.140885 0.0432,0.65307 0.59324,1.164191 0.9093,1.70666 0.53937,0.66207 1.01019,1.48825 1.80246,1.86967 1.20042,-0.59682 2.22741,-1.51255 3.28756,-2.328079 0.44587,-0.45042 1.22024,-0.85145 1.22351,-1.567024 -0.29187,-0.692575 -1.07425,-1.038841 -1.4879,-1.659129 -0.51403,-0.548748 -0.47055,-1.334431 -0.7214,-1.990008 -0.0292,-0.02751 -0.0718,-0.03287 -0.11018,-0.03018 z"
         id="path2457"
         transform="scale(0.26458333)" class="OF" />
      <path
         style="fill:#808080;stroke:#000000;stroke-width:0.00449125"
         d="m 434.8945,87.142444 c -1.26356,1.201833 -2.60143,2.409452 -3.46387,3.94791 -0.42528,0.868159 -0.63626,1.883404 -0.52773,2.841941 0.27803,0.279179 0.72516,-0.09587 1.02422,-0.182632 0.67933,-0.261418 0.7324,-1.065907 0.71263,-1.683691 0.11449,-1.496384 1.01396,-2.785781 1.77819,-4.027552 0.13165,-0.288704 0.49345,-0.596916 0.49235,-0.898081 l -0.004,-1.75e-4 z"
         id="path2458"
         transform="scale(0.26458333)" class="OF" />
      <path
         style="fill:#808080;stroke:#000000;stroke-width:0.00449125"
         d="m 442.79049,97.552485 c -1.36398,0.292815 -2.64347,1.046395 -4.04948,1.076671 -0.78036,0.005 -1.35581,-0.839344 -2.13878,-0.694214 -0.54911,0.359364 -0.8448,1.015141 -1.15527,1.573866 0.14465,0.572172 0.92509,0.535302 1.39396,0.580292 1.94157,0.0887 3.77466,-0.770995 5.28221,-1.932402 0.19605,-0.199032 0.6338,-0.342867 0.6921,-0.601932 -0.008,-0.003 -0.0165,-0.0032 -0.0247,-0.0023 z"
         id="path2459"
         transform="scale(0.26458333)" class="OF" />
      <path
         style="fill:#ff00ff;stroke:#000000;stroke-width:0.00449125"
         d="m 459.06301,78.235568 c -0.74706,0.917395 -1.30788,2.00055 -1.86965,3.045625 -0.70687,1.343384 -0.49121,2.95445 -0.0881,4.352649 0.23221,0.400253 0.70337,-0.05835 0.95193,-0.210176 0.34959,-0.315763 1.02497,-0.62197 0.95404,-1.18018 -0.23584,-0.779951 -0.97157,-1.402705 -0.82597,-2.280009 0.061,-1.28172 0.80207,-2.44623 0.91088,-3.715102 -0.008,-0.01013 -0.0209,-0.01455 -0.0332,-0.01281 z"
         id="path2460"
         transform="scale(0.26458333)" class="IF" />
      <path
         style="fill:#ff00ff;stroke:#000000;stroke-width:0.00449125"
         d="m 469.65604,85.977703 c -1.44087,0.789032 -2.80783,2.099242 -4.55897,2.009131 -0.54942,0.02018 -1.34233,-0.41779 -1.71807,0.183158 -0.20831,0.499968 -0.40094,1.144684 -0.15141,1.657024 0.69875,0.260054 1.49331,0.05682 2.21422,-0.03421 1.14552,-0.126743 1.85686,-1.151284 2.63148,-1.88601 0.54576,-0.626712 1.19773,-1.207692 1.62854,-1.911023 -0.008,-0.01816 -0.0289,-0.02204 -0.0458,-0.01807 z"
         id="path2461"
         transform="scale(0.26458333)" class="IF" />
      <path
         style="fill:#ff00ff;stroke:#000000;stroke-width:0.00449125"
         d="m 459.01915,85.79472 c -0.92494,0.291894 -1.34704,1.299409 -1.92914,1.994117 -0.6532,0.991381 -1.43152,1.940008 -1.92192,3.017832 1.06981,0.886232 2.10256,1.925624 3.42422,2.424571 0.60724,0.07744 1.00933,-0.583875 1.38891,-0.948417 1.00137,-1.228385 1.9345,-2.559192 2.77672,-3.872654 -1.2163,-0.554387 -2.7441,-0.96316 -3.35387,-2.287904 -0.0996,-0.124831 -0.19056,-0.350659 -0.38492,-0.327545 z"
         id="path2462"
         transform="scale(0.26458333)" class="IF" />
      <path
         style="fill:#ff00ff;stroke:#000000;stroke-width:0.00449125"
         d="m 455.46739,92.495272 c -0.42088,0.22993 -0.30957,0.869558 -0.34961,1.275608 -0.006,0.324502 0.0599,0.964105 0.50733,0.915804 0.59704,-0.191791 1.27264,-0.343471 1.77141,-0.721055 -0.2006,-0.541826 -0.80008,-0.846849 -1.24597,-1.181935 -0.21202,-0.119975 -0.43174,-0.28008 -0.68316,-0.288422 z"
         id="path2463"
         transform="scale(0.26458333)" class="IF" />
      <path
         style="fill:#ff00ff;stroke:#000000;stroke-width:0.00449125"
         d="m 452.71878,92.225096 c -1.52734,0.396433 -2.90267,1.233618 -4.3237,1.900533 -0.84255,0.491498 -1.84162,0.829295 -2.49773,1.577024 -0.47403,0.762891 0.49984,1.862386 1.29457,1.385269 0.48092,-0.326815 0.90342,-0.740943 1.48632,-0.895442 1.30918,-0.566836 2.77324,-0.784416 4.01177,-1.509305 0.59102,-0.511814 0.48968,-1.426254 0.3828,-2.123292 -0.004,-0.207865 -0.13131,-0.371717 -0.35403,-0.334787 z"
         id="path2464"
         transform="scale(0.26458333)" class="IF" />
      <path
         style="fill:#ff00ff;stroke:#000000;stroke-width:0.00449125"
         d="m 457.99529,96.05476 c -0.74528,0.07877 -1.64997,0.383651 -1.79334,1.230706 -0.37936,1.798053 -0.38206,3.652864 -0.60872,5.473534 -0.0358,1.14312 0.26896,2.27667 0.61433,3.35562 0.061,0.22286 0.256,0.1944 0.26334,-0.0463 1.07032,-3.00361 1.66123,-6.167016 1.92088,-9.339513 0.0239,-0.268368 -0.0178,-0.725884 -0.39649,-0.674037 z"
         id="path2465"
         transform="scale(0.26458333)" class="IF" />
    </g>
    <path
       style="fill:#ffffff;fill-opacity:1;stroke:#000000;stroke-width:0.0064821;stroke-opacity:0"
       d="m 431.09543,71.349914 c -0.28036,0.08734 -0.99801,-0.159194 -1.02524,0.251688 0.63222,0.692222 1.39509,1.379703 2.19812,1.809534 1.9402,0.02246 3.83926,0.334497 5.68801,0.926873 0.72813,0.16172 1.07998,-0.7834 1.36808,-1.290596 0.23408,-0.368799 0.47358,-1.166142 -0.17648,-1.248816 -2.66251,-0.355263 -5.36899,-0.413287 -8.05249,-0.448683 z"
       id="path49"
       transform="scale(0.26458333)" class="P" />
    <path
       style="fill:#ffffff;fill-opacity:1;stroke:#000000;stroke-width:0.0064821;stroke-opacity:0"
       d="m 440.93961,77.976339 c -1.28861,0.138337 -1.76427,1.611846 -2.41104,2.526673 -0.57307,1.180564 -1.80546,2.023366 -2.05806,3.347475 0.0257,0.530216 0.0791,1.379803 0.68163,1.553171 1.01199,-0.520646 1.63275,-1.601143 2.38977,-2.425216 0.96769,-1.324021 2.14199,-2.586631 2.69108,-4.154113 0.19224,-0.769884 -0.76632,-0.859452 -1.29338,-0.84799 z"
       id="path50"
       transform="scale(0.26458333)" class="P" />
    <path
       style="fill:#ffffff;fill-opacity:1;stroke:#000000;stroke-width:0.0064821;stroke-opacity:0"
       d="m 441.66682,73.763736 c -0.63085,0.28821 -1.01181,1.048004 -1.19539,1.689396 -0.0352,0.752995 1.01318,0.639669 1.50405,0.567184 0.80483,-0.08785 0.63169,-1.114421 0.31651,-1.598242 -0.14161,-0.244336 -0.27854,-0.664288 -0.62517,-0.658338 z"
       id="path51"
       transform="scale(0.26458333)" class="P" />
    <path
       style="fill:#ffffff;fill-opacity:1;stroke:#000000;stroke-width:0.0064821;stroke-opacity:0"
       d="m 447.3065,69.910433 c -1.52541,0.314066 -3.01686,0.975346 -4.25743,1.918295 -0.96319,1.041919 -0.12377,2.507663 0.41042,3.544531 0.2865,0.574979 0.73504,1.352585 1.50915,1.083332 1.54511,-0.486862 3.15232,-1.05194 4.41263,-2.097819 0.55444,-0.601086 -0.44135,-1.168664 -0.63479,-1.710919 -0.54565,-0.779395 -0.31461,-1.868012 -0.87938,-2.611577 -0.15541,-0.126411 -0.36926,-0.137503 -0.5606,-0.125843 z"
       id="path52"
       transform="scale(0.26458333)" class="P" />
    <path
       style="fill:#ffffff;fill-opacity:1;stroke:#000000;stroke-width:0.0064821;stroke-opacity:0"
       d="m 451.03345,63.516705 c -1.98898,0.792065 -3.85168,2.299526 -4.40757,4.455682 -0.21052,0.375362 -0.12341,1.017105 0.435,0.930282 0.68536,0.135778 1.66679,0.01003 1.76233,-0.849003 0.0721,-1.261554 0.65866,-2.37347 1.52177,-3.277257 0.22204,-0.401563 0.88344,-0.73389 0.82064,-1.222989 -0.0338,-0.03474 -0.086,-0.04276 -0.13217,-0.03672 z"
       id="path53"
       transform="scale(0.26458333)" class="P" />
    <path
       style="fill:#ffffff;fill-opacity:1;stroke:#000000;stroke-width:0.0064821;stroke-opacity:0"
       d="m 450.88026,74.447394 c -0.54863,0.251698 -1.13389,0.778258 -1.24401,1.386562 0.67528,0.694178 1.69548,1.012429 2.60981,1.285025 1.37049,0.223927 2.63323,-0.57474 3.88571,-1.002953 0.32643,-0.0195 0.40177,-0.457554 5.1e-4,-0.351958 -1.36286,0.08073 -2.88811,0.296448 -4.01729,-0.672752 -0.38476,-0.235404 -0.77237,-0.593419 -1.23473,-0.643924 z"
       id="path54"
       transform="scale(0.26458333)" class="P" />
  </g>
</svg>
