<?xml version="1.0" encoding="UTF-8" standalone="no"?>
<!-- Created with Inkscape (http://www.inkscape.org/) -->

<svg
   width="28.496565mm"
   height="25.018448mm"
   viewBox="0 0 28.496565 25.018448"
   version="1.1"
   id="svg1"
   xmlns="http://www.w3.org/2000/svg"
   xmlns:svg="http://www.w3.org/2000/svg">
  <defs
     id="defs1" />
  <g
     id="layer1"
     transform="translate(-132.06713,-16.834153)">
    <g
       id="g2934">
      <path
         id="path2214"
         style="fill:#000000;stroke-width:0.264583"
         d="m 134.75819,41.658446 c -0.10901,-0.131358 -0.12544,-0.257133 -0.0473,-0.362177 0.48184,-0.647851 0.81854,-1.248855 0.81854,-1.461059 0,-0.225414 -0.0627,-0.243239 -0.62219,-0.176972 -0.78171,0.09258 -0.96949,-0.139872 -0.71379,-0.883607 0.24738,-0.719619 -0.0343,-0.802336 -1.0663,-0.31314 -0.77483,0.367279 -0.82217,0.374758 -0.98258,0.15535 -0.19368,-0.264874 0.004,-0.625951 0.28352,-0.518581 0.0888,0.0341 0.43707,-0.148775 0.77378,-0.406381 0.56129,-0.4294 0.67305,-0.465712 1.34313,-0.436422 1.0056,0.04396 1.539,-0.300649 1.82197,-1.177087 0.20463,-0.633825 0.8694,-2.243486 1.07572,-2.60477 0.0599,-0.104825 0.2576,-0.435194 0.43939,-0.734155 0.36418,-0.598908 0.33912,-1.137698 -0.0452,-0.972399 -0.46098,0.198247 -0.86405,0.199334 -1.02719,0.0028 -0.15677,-0.188881 -0.14558,-0.405143 0.0539,-1.042289 0.14309,-0.456996 -0.27101,-0.470231 -1.08799,-0.03477 -0.76573,0.40812 -1.18806,0.415374 -1.11173,0.0191 0.0233,-0.121706 0.15632,-0.243015 0.29527,-0.269574 0.13896,-0.02656 0.53692,-0.274365 0.88437,-0.55068 0.60659,-0.482412 0.65964,-0.499422 1.33414,-0.427786 0.65164,0.06921 0.73194,0.04738 1.1099,-0.301744 0.27149,-0.250746 0.47858,-0.622416 0.62055,-1.113658 0.11721,-0.405519 0.3456,-1.038248 0.5075,-1.406064 0.36566,-0.830599 0.31721,-1.281285 -0.20913,-1.945836 -0.38573,-0.48705 -0.40301,-0.554715 -0.33165,-1.300244 0.0696,-0.727102 0.0493,-0.816274 -0.26913,-1.181561 -0.22683,-0.260225 -0.62635,-0.489386 -1.17031,-0.67128 -1.76676,-0.59079 -2.82295,-1.333264 -2.62615,-1.846119 0.13608,-0.354616 1.02539,-0.258932 1.50995,0.162459 0.42786,0.3721 1.60097,0.738479 1.94358,0.607007 0.30853,-0.118393 0.25966,-1.612148 -0.065,-1.986475 -0.25122,-0.289679 -0.34081,-1.023922 -0.17698,-1.450822 0.13227,-0.344675 0.51004,-0.221237 0.84315,0.275498 0.33721,0.502877 0.50316,1.069144 0.72829,2.485067 0.10549,0.663498 0.22487,0.961022 0.5125,1.277088 0.3312,0.363977 0.4582,0.414448 1.08828,0.432522 0.66149,0.01897 0.75372,0.06084 1.26876,0.5759 0.30551,0.305491 0.65752,0.558874 0.78227,0.563073 0.12475,0.0042 0.65563,-0.09454 1.17977,-0.219435 0.52414,-0.124888 1.20121,-0.263252 1.50461,-0.307475 0.33943,-0.04947 0.74271,-0.233947 1.04828,-0.479496 0.4609,-0.370401 0.49659,-0.445892 0.49659,-1.050208 0,-0.602805 0.042,-0.692311 0.56563,-1.20623 0.3111,-0.305311 0.58269,-0.674576 0.60354,-0.820592 0.0535,-0.37437 0.53311,-0.357518 0.58679,0.02061 0.0222,0.157356 -0.0435,0.370255 -0.14636,0.473112 -0.67157,0.671563 -0.92792,1.779572 -0.3388,1.464276 0.32216,-0.172403 0.80544,-0.159962 0.99092,0.02551 0.20002,0.200028 0.19158,0.468411 -0.028,0.889284 -0.27424,0.525653 -0.004,0.679973 0.707,0.403709 0.30443,-0.11829 0.62195,-0.267687 0.70559,-0.331997 0.0837,-0.06431 0.28379,-0.103933 0.44471,-0.08806 0.16094,0.01587 0.37841,-0.0054 0.48323,-0.04728 0.39783,-0.158949 1.25037,-0.342564 2.21089,-0.476158 0.75459,-0.104955 1.07654,-0.213325 1.32887,-0.447304 0.18317,-0.169836 0.36848,-0.308793 0.41185,-0.308793 0.0433,0 0.11242,-0.328771 0.15348,-0.730605 0.0697,-0.681942 0.11758,-0.768693 0.71914,-1.302384 0.35446,-0.314479 0.64334,-0.671841 0.64193,-0.794139 -0.003,-0.281255 0.44927,-0.298657 0.55568,-0.02138 0.10314,0.26879 0.12443,0.218721 -0.29911,0.702998 -0.85873,0.981821 -0.8472,1.389563 0.0365,1.289963 0.47564,-0.05361 0.59087,-0.02286 0.70358,0.187738 0.10327,0.192976 0.0794,0.360391 -0.10197,0.716195 -0.22945,0.450038 -0.22955,0.468199 -0.003,0.589182 0.23942,0.128148 0.51313,0.05915 1.36059,-0.342995 0.33346,-0.158237 0.45323,-0.166103 0.60545,-0.03977 0.34248,0.284234 0.20431,0.594717 -0.23138,0.519877 -0.0569,-0.0098 -0.43878,0.189185 -0.8486,0.44214 -0.72308,0.446302 -0.76422,0.455827 -1.38964,0.321696 -0.60717,-0.130214 -0.67368,-0.118051 -1.14779,0.209886 -0.27681,0.191461 -0.50546,0.399066 -0.50811,0.461344 -0.0116,0.272243 -1.37522,2.98736 -1.7508,3.485999 -0.22775,0.30236 -0.41407,0.681884 -0.41407,0.843386 0,0.271743 0.0497,0.292335 0.66707,0.276156 0.6419,-0.01683 0.66863,-0.004 0.70807,0.340151 0.0225,0.196699 -0.0509,0.497911 -0.16324,0.669364 -0.1836,0.280191 -0.18431,0.319384 -0.007,0.387382 0.24009,0.09213 0.57706,0.02246 1.36676,-0.282581 0.45199,-0.17459 0.63833,-0.196323 0.7475,-0.08718 0.20855,0.208569 0.0394,0.543655 -0.27442,0.543655 -0.14685,0 -0.52367,0.176602 -0.83741,0.392446 -0.49996,0.343996 -0.65966,0.387731 -1.2935,0.354259 -0.98604,-0.05207 -1.55347,0.317124 -1.87023,1.216864 -0.12414,0.35266 -0.35922,0.90946 -0.52242,1.237329 -0.37102,0.745477 -0.32636,1.167966 0.20508,1.940401 0.39386,0.572468 0.4095,0.638162 0.29901,1.257334 -0.106,0.594061 -0.0872,0.696273 0.20679,1.127104 0.23752,0.348052 0.49197,0.529953 0.95867,0.685377 1.69394,0.564139 2.85887,1.31518 2.85887,1.843143 0,0.503232 -1.07981,0.432435 -1.57665,-0.103373 -0.2023,-0.218188 -0.55054,-0.371853 -1.10484,-0.487521 -0.96182,-0.200713 -0.9986,-0.169738 -1.00135,0.843285 -0.003,0.523209 0.0658,0.799624 0.25218,1.036537 0.5003,0.63604 0.22129,2.06443 -0.31613,1.618409 -0.52824,-0.438415 -1.08156,-2.146139 -1.08156,-3.338134 0,-0.674182 -0.67175,-1.246939 -1.53223,-1.306441 -0.59772,-0.04133 -0.73475,-0.109337 -1.25725,-0.623967 -0.67257,-0.662459 -0.80007,-0.6814 -2.15733,-0.320469 -0.5194,0.138126 -1.03709,0.251135 -1.15041,0.251135 -0.11332,0 -0.38878,0.18855 -0.61214,0.418999 -0.34864,0.359717 -0.40611,0.510463 -0.40611,1.06543 0,0.578538 -0.0601,0.719375 -0.57176,1.340964 -0.31448,0.381994 -0.57179,0.785434 -0.57179,0.896532 0,0.284755 -0.23151,0.393946 -0.4503,0.212376 -0.19748,-0.163917 -0.25151,-0.581546 -0.0843,-0.651867 0.2128,-0.08949 0.66164,-0.978043 0.66164,-1.309801 0,-0.282962 -0.0416,-0.33024 -0.22235,-0.252921 -0.5247,0.224401 -0.96232,0.221512 -1.12975,-0.0075 -0.16952,-0.231818 -0.11565,-0.752465 0.10721,-1.036315 0.0787,-0.100237 0.0396,-0.191807 -0.11803,-0.276148 -0.17939,-0.096 -0.42622,-0.03477 -1.03209,0.256019 -0.43799,0.210208 -0.8718,0.353237 -0.96403,0.317841 -0.0922,-0.0354 -0.22149,-0.01058 -0.28723,0.05516 -0.16116,0.161158 -1.62351,0.572487 -2.4293,0.683313 -0.98476,0.135435 -1.49006,0.658707 -1.58705,1.643452 -0.0667,0.677293 -0.13063,0.808344 -0.65284,1.338513 -0.31837,0.323242 -0.57885,0.685811 -0.57885,0.805707 0,0.273481 -0.29607,0.283072 -0.5171,0.01675 z m 1.53357,-2.1556 c 0,-0.372462 -0.0402,-0.450265 -0.20097,-0.388583 -0.11055,0.04242 -0.25609,0.07713 -0.3234,0.07713 -0.0713,0 -0.0873,0.187185 -0.0384,0.447948 0.0674,0.359375 0.0164,0.554082 -0.25765,0.984728 l -0.34168,0.536784 0.58107,-0.596148 c 0.47591,-0.488278 0.58105,-0.680416 0.58105,-1.061855 z m 17.06481,-0.05733 c -0.0904,-1.161103 -0.13356,-1.270619 -0.50028,-1.270619 -0.32646,0 -0.32895,0.0074 -0.2409,0.712176 0.0489,0.391697 0.17598,1.005126 0.28231,1.363173 l 0.19333,0.650994 0.16,-0.378441 c 0.0923,-0.218229 0.13695,-0.674296 0.10554,-1.077283 z m -8.4246,-1.61134 c 0,-0.528409 -0.008,-0.53944 -0.30713,-0.403328 -0.25969,0.118326 -0.29657,0.204984 -0.23878,0.561031 0.049,0.302332 -0.0135,0.557734 -0.22151,0.905598 l -0.28983,0.484507 0.52864,-0.502269 c 0.4594,-0.436483 0.52861,-0.573426 0.52861,-1.045539 z m -8.22724,0.491092 c 0.19216,-0.178737 0.3494,-0.395661 0.3494,-0.48205 0,-0.198334 -0.61621,-0.938942 -0.78123,-0.938942 -0.16798,0 -1.25174,0.915048 -1.25174,1.056882 0,0.0625 0.14292,0.226073 0.31765,0.3635 0.17471,0.137428 0.31766,0.36665 0.31766,0.509382 0,0.252135 0.01,0.253212 0.34941,0.03786 0.1922,-0.121912 0.50665,-0.367895 0.69885,-0.546634 z m -2.40448,-0.300675 c 0.21256,0.08024 0.39026,0.132581 0.39486,0.116329 0.005,-0.01624 0.0775,-0.153588 0.16187,-0.305178 0.14372,-0.258054 0.12168,-0.281001 -0.34573,-0.359966 -0.43273,-0.07311 -0.57586,-0.0293 -1.07468,0.328927 -0.3165,0.227299 -0.57547,0.431703 -0.57547,0.454232 0,0.02252 0.23685,-0.05381 0.52633,-0.169632 0.42625,-0.170548 0.59981,-0.182854 0.91282,-0.06471 z m 22.22698,-0.02495 c -0.085,-0.139788 -1.75842,-0.918261 -2.2265,-1.035739 -0.31961,-0.08022 -0.34734,-0.05726 -0.34734,0.287559 0,0.350425 0.0452,0.384858 0.69667,0.53065 0.38317,0.08575 0.7279,0.206429 0.76605,0.268176 0.0382,0.06175 0.31906,0.100747 0.62421,0.08667 0.30514,-0.01408 0.52424,-0.07587 0.48691,-0.137316 z m -16.82104,-0.739365 c 1.28238,-0.393973 0.7498,-0.611812 -1.00023,-0.409123 -0.71684,0.08302 -0.88411,0.196914 -0.8875,0.604298 -0.003,0.204301 0.0657,0.222266 0.53806,0.143547 0.29702,-0.04949 0.90437,-0.201914 1.34967,-0.338722 z m 13.73894,0.08871 c 0,-0.376647 -0.13664,-0.403952 -0.4253,-0.08498 -0.23272,0.25717 -0.16324,0.40264 0.19236,0.40264 0.16377,0 0.23294,-0.09433 0.23294,-0.317656 z m -16.10577,-0.254122 c 0.0499,-0.260786 0.0108,-0.317656 -0.21813,-0.317656 -0.39994,0 -0.48008,0.135427 -0.23825,0.402641 0.28249,0.312155 0.38409,0.293237 0.45638,-0.08499 z m 15.55376,-0.0065 c 0.23374,-0.17827 0.42424,-0.421275 0.42336,-0.540016 0,-0.11874 -0.23823,-0.470748 -0.52747,-0.782241 -0.51236,-0.551791 -0.52864,-0.558855 -0.6337,-0.274857 -0.0593,0.160319 -0.27938,0.356241 -0.48903,0.435377 -0.20966,0.07914 -0.38121,0.179147 -0.38121,0.22224 0,0.153138 0.92564,1.263615 1.05328,1.263615 0.0714,0 0.32107,-0.145854 0.55477,-0.324118 z m -7.78843,-0.321988 c 0.3243,-0.285477 0.58965,-0.566978 0.58965,-0.625562 0,-0.211689 -0.66289,-0.888352 -0.86894,-0.887013 -0.1161,7.94e-4 -0.45374,0.233442 -0.75033,0.517083 l -0.53925,0.515715 0.38042,0.320114 c 0.20923,0.176062 0.38044,0.400797 0.38044,0.499412 0,0.288401 0.18071,0.21241 0.80801,-0.339749 z m -5.54212,-0.403635 c 0.32753,-0.302643 1.29381,-0.365434 1.60822,-0.104505 0.15838,0.131453 0.29501,0.0795 0.79512,-0.302374 0.55825,-0.426254 0.65233,-0.45571 1.24497,-0.389802 0.59201,0.06584 0.67638,0.03955 1.10239,-0.343525 0.35877,-0.322619 0.5239,-0.625922 0.74295,-1.36458 0.48974,-1.651664 1.24285,-2.807949 1.71169,-2.628038 0.34269,0.131506 0.25832,1.134866 -0.13475,1.601976 -0.338,0.401716 -0.54914,1.050514 -0.55459,1.704271 l -0.003,0.363757 0.88323,-0.04991 c 0.69345,-0.03918 0.94777,-0.110527 1.18351,-0.331994 0.22259,-0.2091 0.45535,-0.282086 0.89961,-0.282086 0.72289,0 0.88897,0.246817 0.46778,0.695155 l -0.28281,0.301041 0.51199,0.338828 c 0.73914,0.489138 0.97444,0.400156 0.97444,-0.368507 0,-0.797983 0.23878,-0.984723 0.87267,-0.682449 0.37881,0.180647 0.46284,0.185052 0.59071,0.03096 0.11557,-0.139261 0.0985,-0.316227 -0.0761,-0.787348 -0.12387,-0.334239 -0.23873,-0.626576 -0.25519,-0.649628 -0.0164,-0.02304 -0.17536,0.05335 -0.35306,0.169778 -0.41666,0.273016 -0.5884,0.156909 -0.5884,-0.397835 0,-0.499126 0.17597,-0.894482 0.52789,-1.185977 0.19791,-0.163943 0.61569,-1.378746 0.61569,-1.790326 0,-0.06647 -0.41997,-0.120865 -0.93329,-0.120865 -0.7719,0 -0.97303,0.04394 -1.16324,0.254125 -0.29644,0.327554 -1.3435,0.358481 -1.60174,0.04731 -0.1493,-0.179893 -0.11501,-0.254087 0.26337,-0.569974 0.48151,-0.401989 1.24391,-0.657441 2.65692,-0.890232 1.26,-0.207584 1.74069,-0.631515 1.82642,-1.610767 0.045,-0.513088 0.14263,-0.760381 0.41119,-1.040675 0.22677,-0.236715 0.32329,-0.44309 0.27096,-0.579446 -0.13251,-0.345334 0.15364,-1.157623 0.48405,-1.374132 0.28641,-0.187664 0.70776,-1.249836 0.70776,-1.784187 0,-0.33877 -1.67812,-0.284894 -2.15712,0.06926 -0.28678,0.212033 -0.4749,0.255058 -0.85251,0.195006 -0.26652,-0.04238 -0.53795,-0.159253 -0.6032,-0.25972 -0.0979,-0.15084 -0.22995,-0.107691 -0.75761,0.247648 -0.58695,0.395277 -0.69366,0.423889 -1.31053,0.351385 -0.59203,-0.06958 -0.72959,-0.03873 -1.16126,0.260408 -0.34978,0.242401 -0.53499,0.49239 -0.64839,0.875131 -0.42082,1.420402 -1.47814,3.013501 -2.00004,3.013501 -0.44312,0 -0.25619,-1.399551 0.22106,-1.654964 0.2431,-0.130114 0.62939,-1.195086 0.62939,-1.735238 0,-0.278707 -0.0458,-0.294592 -0.84947,-0.294592 -0.68593,0 -0.90373,0.05096 -1.13125,0.26471 -0.20045,0.188304 -0.44892,0.264713 -0.86085,0.264713 -0.72138,0 -0.85902,-0.08279 -0.81475,-0.490106 0.0289,-0.265872 -0.0669,-0.380278 -0.54354,-0.648928 -0.70337,-0.39647 -1.0849,-0.329816 -0.86572,0.151239 0.18394,0.403669 0.0502,0.928214 -0.26199,1.027284 -0.13446,0.04268 -0.44849,-0.0076 -0.69781,-0.11181 -0.43727,-0.182703 -0.45585,-0.179353 -0.52461,0.09455 -0.0395,0.157297 0.0459,0.557355 0.19148,0.896887 0.22166,0.517141 0.29225,0.588417 0.45172,0.45607 0.15002,-0.124497 0.22833,-0.124224 0.3796,0.0013 0.34718,0.288131 0.15531,1.284004 -0.3102,1.610061 -0.19444,0.136189 -0.5157,1.30728 -0.5157,1.879857 0,0.189433 1.77295,-0.0145 2.01276,-0.231521 0.35145,-0.318074 0.93128,-0.473229 1.3461,-0.360199 0.5207,0.141883 0.53131,0.318749 0.0465,0.776357 -0.42389,0.400097 -1.75361,0.903578 -2.87542,1.088744 -0.40198,0.06635 -0.66619,0.215628 -0.98128,0.554408 -0.37333,0.401394 -0.43167,0.551823 -0.43463,1.120936 -0.003,0.505471 -0.074,0.741172 -0.30883,1.02026 -0.21698,0.257866 -0.28641,0.46232 -0.23976,0.706242 0.0947,0.495477 -0.0519,0.951719 -0.40428,1.258117 -0.48215,0.419227 -0.75925,1.957491 -0.36653,2.03476 0.55004,0.108225 1.52066,-0.05964 1.79139,-0.309819 z m 3.33446,-0.0064 c 0.31512,0.118946 0.37235,0.100877 0.48861,-0.154266 0.16428,-0.360587 0.0862,-0.441407 -0.42683,-0.441407 -0.33755,0 -0.97289,0.366906 -1.44377,0.833782 -0.0274,0.02716 0.19203,-0.04562 0.48762,-0.161727 0.41749,-0.163994 0.61709,-0.181041 0.89437,-0.07638 z m 8.23553,-0.029 c -0.12367,-0.271459 -0.20524,-0.309977 -0.51321,-0.242337 -0.27652,0.06073 -0.49652,-0.0054 -0.89847,-0.270285 l -0.53232,-0.350708 0.44471,0.516303 c 0.48371,0.561562 0.61823,0.632846 1.23614,0.655047 0.39457,0.01418 0.4046,0.0024 0.26315,-0.30802 z m -13.77881,-0.280786 c 0.0344,-0.122296 0.10184,-0.422479 0.14975,-0.667073 0.0479,-0.244596 0.15463,-0.530484 0.23707,-0.635312 0.0923,-0.117317 0.12004,-0.38599 0.0722,-0.698839 l -0.0777,-0.508248 -0.51713,1.080026 c -0.75673,1.580486 -0.77004,1.651804 -0.30803,1.651804 0.25448,0 0.40198,-0.07391 0.44379,-0.222358 z m 10.43712,-0.504164 c 0.58119,-0.183308 0.81881,-0.345458 0.82397,-0.562268 0.003,-0.148267 -0.40868,-0.242552 -0.55417,-0.126759 -0.0785,0.06246 -0.47151,0.153334 -0.87334,0.201927 -0.48389,0.05851 -0.73059,0.146116 -0.73059,0.259411 0,0.09408 -0.0372,0.267927 -0.0826,0.386328 -0.0712,0.185494 -0.0228,0.203269 0.34943,0.128506 0.23763,-0.04772 0.71792,-0.176935 1.06733,-0.287145 z m -1.92137,-0.194675 c 0.0698,-0.290851 0.0421,-0.349422 -0.16524,-0.349422 -0.36232,0 -0.44926,0.233387 -0.19256,0.517033 0.2581,0.285183 0.24805,0.289896 0.3578,-0.167611 z m 7.05844,-0.763473 c 0.005,-0.199237 -0.15557,-0.577628 -0.37224,-0.876732 -0.43717,-0.60349 -0.45143,-0.592074 -0.18915,0.151339 0.16936,0.479976 0.16994,0.578046 0.005,0.829723 -0.17143,0.26162 -0.16362,0.301088 0.0938,0.473464 0.25106,0.168095 0.29004,0.166016 0.36724,-0.01961 0.0475,-0.114212 0.0904,-0.365394 0.0953,-0.558183 z m -6.97534,-0.76127 c 0.0861,-0.366893 0.19992,-0.752843 0.25297,-0.857668 0.053,-0.104828 0.0589,-0.41909 0.013,-0.698363 l -0.0836,-0.507767 -0.33692,0.711557 c -0.18529,0.391354 -0.42429,1.005801 -0.53107,1.365436 l -0.19421,0.65388 h 0.36169 c 0.33171,0 0.37462,-0.05525 0.51818,-0.667075 z m -7.50271,-1.143558 c 0.28967,-0.318403 0.37653,-0.535969 0.37939,-0.950241 0.004,-0.521867 -0.005,-0.533289 -0.30208,-0.397949 -0.27077,0.123365 -0.29128,0.181076 -0.17891,0.503386 0.10356,0.297098 0.0761,0.446219 -0.14928,0.8109 -0.34544,0.558951 -0.23976,0.573233 0.25088,0.0339 z m 14.0148,-1.141704 c 0.40899,-0.899459 0.54311,-1.368459 0.39068,-1.366036 -0.49572,0.0079 -0.66331,0.182187 -0.86445,0.898967 -0.11591,0.413107 -0.25506,0.751104 -0.30922,0.751104 -0.0542,0 -0.0738,0.168265 -0.0436,0.373923 0.0799,0.54453 0.39322,0.295142 0.82659,-0.657958 z M 139.2121,30.493174 c 0.42212,-0.438722 0.43389,-0.475378 0.25414,-0.790819 -0.10369,-0.181925 -0.31478,-0.413824 -0.46911,-0.515331 -0.26294,-0.172943 -0.31864,-0.14862 -0.88485,0.386357 l -0.60425,0.570918 0.40836,0.381479 c 0.2246,0.209812 0.40838,0.446314 0.40838,0.525563 0,0.21354 0.36692,-0.01728 0.88733,-0.558167 z m -2.63951,-0.321239 c 0.16002,0.0011 0.37672,0.05616 0.48152,0.122409 0.18986,0.120018 0.35039,-0.08426 0.37229,-0.473776 0.0185,-0.330938 -0.88413,-0.176725 -1.43401,0.244967 -0.79253,0.607809 -0.83079,0.665795 -0.24569,0.37256 0.29421,-0.147457 0.66587,-0.267229 0.82589,-0.26616 z m 5.3099,-0.772692 c 1.13625,-0.334513 1.28315,-0.44727 0.74753,-0.573796 -0.23643,-0.05585 -0.48705,-0.0829 -0.55692,-0.0601 -0.0699,0.02281 -0.47014,0.105315 -0.88945,0.183377 -0.69869,0.130077 -0.76576,0.171479 -0.80301,0.49566 -0.0464,0.403963 -0.0209,0.403201 1.50185,-0.04514 z m 9.04039,0.164232 c 0.66013,-0.04605 0.72305,-0.07731 0.78293,-0.388858 0.0358,-0.186327 0.0461,-0.358068 0.0228,-0.381643 -0.0576,-0.05853 -1.36477,0.218189 -2.1513,0.455433 l -0.64291,0.193926 0.44471,0.16356 c 0.24461,0.08996 0.53049,0.128482 0.63532,0.08561 0.10483,-0.04287 0.51361,-0.100484 0.90842,-0.128027 z m 1.88695,-0.0091 c 0,-0.05905 -0.10731,-0.204468 -0.23844,-0.323141 -0.21833,-0.197591 -0.24508,-0.198377 -0.31766,-0.0093 -0.13594,0.354272 -0.0896,0.439809 0.23845,0.439809 0.1747,0 0.31765,-0.04831 0.31765,-0.107368 z m -12.96032,-0.408379 c 0,-0.154443 -0.0871,-0.246624 -0.23294,-0.246624 -0.35443,0 -0.42532,0.145233 -0.19508,0.399643 0.24133,0.266676 0.42802,0.19994 0.42802,-0.153019 z m 14.23093,-0.123966 c 0.51856,-0.458046 0.55028,-0.517877 0.34076,-0.642673 -0.12705,-0.07568 -0.33359,-0.306289 -0.45897,-0.51246 l -0.22794,-0.374852 -0.65283,0.516025 c -0.35904,0.283814 -0.65281,0.55218 -0.65281,0.596374 0,0.208359 0.67291,0.929804 0.86413,0.926446 0.11874,-0.0021 0.47318,-0.231074 0.78766,-0.50886 z m 1.94985,-0.197485 c 0.4935,-0.335348 0.56803,-0.565867 0.10237,-0.316653 -0.33613,0.179893 -0.82013,0.175056 -1.00523,-0.01005 -0.11184,-0.111829 -0.20765,-0.0735 -0.39704,0.158827 l -0.24961,0.306228 0.33986,0.08026 c 0.5923,0.139891 0.71459,0.11779 1.20965,-0.21862 z m -16.10077,-1.167143 c 0.0815,-0.368604 0.19987,-0.740259 0.26308,-0.825902 0.15994,-0.216736 0.0135,-1.000347 -0.1651,-0.882901 -0.14632,0.09626 -0.72996,1.485482 -0.88355,2.103114 -0.0839,0.33727 -0.067,0.356857 0.27403,0.317656 0.32586,-0.03746 0.37869,-0.111013 0.51154,-0.711967 z m 13.93915,-0.80164 c -0.0488,-0.243744 0.0204,-0.510442 0.21762,-0.840303 l 0.28903,-0.48323 -0.52861,0.502269 c -0.43812,0.416259 -0.52864,0.584425 -0.52864,0.982007 0,0.462872 0.0108,0.474755 0.31099,0.338034 0.25416,-0.115795 0.29795,-0.206992 0.23961,-0.498777 z m -6.96762,-2.003626 0.44337,-1.051213 -0.40455,0.03975 c -0.36693,0.03606 -0.41886,0.09623 -0.5588,0.647459 -0.0848,0.334238 -0.21709,0.683414 -0.2939,0.775946 -0.0801,0.09659 -0.1048,0.342358 -0.0578,0.57707 0.0691,0.345292 0.10869,0.381894 0.25509,0.235513 0.0953,-0.09532 0.37279,-0.646361 0.61663,-1.224526 z m -7.26006,-0.280582 c -0.16867,-0.421582 -0.17838,-0.57752 -0.0531,-0.852504 0.13068,-0.286819 0.1202,-0.36077 -0.0709,-0.500536 -0.35484,-0.259456 -0.42982,-0.198911 -0.42982,0.34698 0,0.339204 0.11245,0.680908 0.33454,1.016495 0.18399,0.27804 0.35507,0.505523 0.38015,0.505523 0.0251,0 -0.0473,-0.23218 -0.16084,-0.515958 z m 15.97819,-1.232012 c 0.31525,-0.735483 0.30607,-0.793268 -0.12597,-0.793268 -0.33075,0 -0.38076,0.05827 -0.51779,0.603544 -0.0834,0.331949 -0.2254,0.689311 -0.31549,0.794139 -0.10067,0.117109 -0.13991,0.380365 -0.10178,0.682812 l 0.062,0.492223 0.37944,-0.609619 c 0.20867,-0.335287 0.48749,-0.861713 0.61957,-1.169832 z M 145.1861,23.091387 c 0.71157,-0.06651 0.88403,-0.179081 0.8875,-0.5793 0.003,-0.247205 0.0451,-0.250192 -1.49218,0.103828 -0.50728,0.116827 -0.95408,0.26379 -0.99287,0.326583 -0.0922,0.149183 0.46201,0.370073 0.70813,0.282231 0.10483,-0.03742 0.50506,-0.09742 0.88942,-0.133342 z m 1.85873,0.0902 c 0.15187,0 0.14409,-0.05665 -0.0421,-0.307666 -0.24768,-0.333785 -0.34049,-0.301477 -0.48281,0.168057 -0.0767,0.253226 -0.0558,0.29104 0.12319,0.22236 0.11858,-0.04551 0.2994,-0.08275 0.40177,-0.08275 z m -6.58418,-0.860132 c 0.29159,-0.103391 0.29008,-0.108363 -0.23316,-0.765524 -0.28966,-0.363802 -0.577,-0.661458 -0.63849,-0.661458 -0.1442,0 -1.01012,0.758422 -1.01012,0.884705 0,0.05281 0.23741,0.365705 0.52755,0.695333 l 0.52755,0.599319 0.2666,-0.324152 c 0.1466,-0.178284 0.39864,-0.370983 0.56007,-0.428223 z m 7.85278,0.341178 c 0.64423,-0.51113 0.74927,-0.705096 0.4274,-0.789266 -0.13951,-0.03649 -0.32885,-0.245132 -0.42071,-0.463658 l -0.16706,-0.397322 -0.65564,0.481055 c -0.3606,0.26458 -0.65651,0.554844 -0.65756,0.64503 -0.003,0.269647 0.53795,0.916054 0.76684,0.916054 0.11702,0 0.43505,-0.176353 0.70673,-0.391893 z m -6.00374,-0.384273 c -0.419,-0.418997 -0.63723,-0.535023 -1.10554,-0.587809 l -0.58348,-0.06577 0.15443,0.337554 c 0.13446,0.293886 0.21196,0.329366 0.59915,0.274251 0.33338,-0.04746 0.55605,0.01336 0.88942,0.24293 0.63141,0.434779 0.64083,0.393642 0.046,-0.20116 z m 8.11321,0.05845 c 0.57504,-0.398521 0.55983,-0.50015 -0.0373,-0.249073 -0.36679,0.154233 -0.47935,0.154987 -0.76907,0.0052 -0.31392,-0.162333 -0.35446,-0.152538 -0.53988,0.130445 -0.19015,0.290224 -0.18589,0.308769 0.0828,0.360674 0.60095,0.116097 0.79359,0.0784 1.26347,-0.247202 z m 3.4164,-0.552902 c 0.69099,0 0.7307,-0.01768 0.85757,-0.381659 l 0.13306,-0.381656 -0.53359,0.07193 c -0.85717,0.115564 -2.24888,0.456998 -2.24888,0.551727 0,0.142499 0.81566,0.349607 0.9466,0.240358 0.0664,-0.05539 0.44675,-0.100705 0.84524,-0.100705 z m 1.84965,0.156506 c 0.10528,-0.06699 0.0785,-0.178647 -0.0938,-0.391462 l -0.24109,-0.297735 -0.12856,0.338148 c -0.0707,0.185981 -0.12856,0.363013 -0.12856,0.393406 0,0.09007 0.43251,0.05912 0.592,-0.04236 z m 1.23211,-0.439113 c 0.71898,-0.559414 0.72573,-0.578676 0.33798,-0.966428 -0.18793,-0.187925 -0.36946,-0.42495 -0.40338,-0.526719 -0.0472,-0.141457 -0.21662,-0.07129 -0.71962,0.297934 -0.36184,0.265631 -0.65791,0.544171 -0.65791,0.618979 0,0.198327 0.62495,0.985901 0.78232,0.985901 0.0737,0 0.371,-0.184351 0.66061,-0.409667 z m 2.19321,-0.30461 c 0.67609,-0.396224 0.66977,-0.481817 -0.0183,-0.245316 -0.4241,0.145793 -0.55425,0.145404 -0.84029,-0.0026 -0.31279,-0.161742 -0.3537,-0.151802 -0.53896,0.130924 -0.19016,0.290221 -0.1859,0.308769 0.0828,0.360675 0.58581,0.113167 0.76099,0.08069 1.31463,-0.243766 z M 137.92025,21.0556 c -0.0355,-0.306436 -0.11875,-0.364488 -0.71038,-0.495274 -0.36862,-0.08148 -0.74028,-0.199864 -0.82592,-0.263067 -0.0857,-0.0632 -0.35584,-0.08235 -0.60042,-0.04256 l -0.44472,0.07235 0.35412,0.237886 c 0.37116,0.249317 1.81266,0.819785 2.10027,0.831168 0.1084,0.0043 0.15311,-0.115546 0.12705,-0.3405 z m 1.08699,-0.303959 c -0.39855,-0.15661 -0.55542,-0.122248 -0.55542,0.121655 0,0.35954 0.12743,0.407983 0.47469,0.180454 0.29451,-0.192976 0.30059,-0.215712 0.0807,-0.302109 z m 9.03327,0.0983 c 0.16377,-0.119769 0.21103,-0.26193 0.15645,-0.470713 -0.0545,-0.208203 0.0396,-0.493979 0.3094,-0.940199 l 0.38767,-0.641078 -0.57187,0.571778 c -0.43212,0.432075 -0.59291,0.70372 -0.65802,1.111793 -0.0909,0.569433 -0.009,0.649943 0.37637,0.368419 z m -8.72207,-1.321385 c -0.0613,-0.401833 -0.20267,-1.045083 -0.31425,-1.429446 l -0.20285,-0.698841 -0.15574,0.444717 c -0.11509,0.328567 -0.12311,0.683583 -0.0307,1.359305 0.10646,0.778758 0.16496,0.922435 0.39393,0.967425 0.14791,0.02906 0.30314,0.06063 0.34497,0.07014 0.0418,0.0095 0.0259,-0.31147 -0.0354,-0.713303 z M 156.9318,19.2153 c -0.0557,-0.258969 0.0289,-0.496655 0.33939,-0.952966 l 0.41364,-0.607941 -0.57822,0.508246 c -0.59748,0.525174 -0.73435,0.776507 -0.73731,1.353963 -0.003,0.314815 0.0196,0.327607 0.3175,0.190593 0.26104,-0.120095 0.3057,-0.209778 0.245,-0.491895 z" />
      <path
         style="fill:#ff0000;stroke:#000000;stroke-width:0.012009"
         d="m 526.3143,79.919269 c -0.90313,0.738155 -1.80091,1.522786 -2.53315,2.420104 1.27876,1.589632 2.54869,3.240603 4.02115,4.630989 0.93035,-1.383971 2.30898,-2.310401 3.72093,-3.10781 -0.79691,-1.585412 -2.20204,-2.976926 -3.39959,-4.33217 -0.72554,-1.140442 -1.0431,-0.0243 -1.80934,0.388887 z"
         id="path2296"
         transform="scale(0.26458333)"
         class="OC" />
      <path
         style="fill:#ff0000;stroke:#000000;stroke-width:0.0041539"
         d="m 524.16438,67.089861 c -0.71636,1.779813 -0.42786,3.741368 -0.23846,5.593292 0.18423,1.047058 0.21788,2.187675 0.77765,3.119513 0.48322,0.508999 1.26628,0.541185 1.91855,0.652036 0.31835,-0.118028 0.0252,-0.784706 0.0849,-1.126489 -0.27299,-3.233498 -1.20893,-6.36088 -2.08441,-9.470729 -0.22046,0.308966 -0.29511,0.84038 -0.45823,1.232377 z"
         id="path2322"
         transform="scale(0.26458333)"
         class="OC" />
      <path
         style="fill:#ff0000;stroke:#000000;stroke-width:0.0041539"
         d="m 514.05661,76.501527 c -0.75055,0.05618 -1.53562,0.102632 -2.24635,0.343995 -0.0728,0.249749 0.38645,0.337365 0.50543,0.492009 2.29945,1.506479 4.92721,2.411597 7.50981,3.30167 0.39647,0.04831 0.98428,0.433405 1.29891,0.02515 0.23383,-0.628426 0.17453,-1.402208 -0.1548,-1.988517 -0.62639,-0.671797 -1.64256,-0.705352 -2.46831,-0.979822 -1.15359,-0.266267 -2.29023,-0.600301 -3.37636,-1.071328 -0.34631,-0.100214 -0.70897,-0.13107 -1.06833,-0.123157 z"
         id="path2323"
         transform="scale(0.26458333)"
         class="OC" />
      <path
         style="fill:#ff0000;stroke:#000000;stroke-width:0.0041539"
         d="m 523.92683,78.098507 c -0.64183,-0.01614 -0.68258,0.76657 -0.59583,1.23108 -0.0389,0.482326 0.49149,0.941584 0.94031,0.651967 0.57357,-0.320727 1.26427,-0.597323 1.63706,-1.158873 -0.16082,-0.345296 -0.68069,-0.384184 -0.9997,-0.536762 -0.319,-0.09387 -0.64573,-0.1945 -0.98184,-0.187412 z"
         id="path2324"
         transform="scale(0.26458333)"
         class="OC" />
      <path
         style="fill:#ff0000;stroke:#000000;stroke-width:0.0041539"
         d="m 526.17431,87.217939 c -0.50913,0.149247 -0.37557,0.8648 -0.43405,1.265804 -0.0764,1.226983 0.12482,2.474054 0.73797,3.552233 0.4863,0.893876 1.04075,1.775434 1.73004,2.523819 0.22743,0.03814 -0.0166,-0.366925 -0.0107,-0.463582 -0.3592,-1.296655 -1.25617,-2.631861 -0.79756,-4.010431 0.13314,-0.543757 0.49494,-1.059579 0.48747,-1.625242 -0.36041,-0.594734 -0.99364,-1.071308 -1.66805,-1.243899 -0.015,2.79e-4 -0.0301,-0.0011 -0.0451,0.0013 z"
         id="path2325"
         transform="scale(0.26458333)"
         class="OC" />
      <path
         style="fill:#ff0000;stroke:#000000;stroke-width:0.0041539"
         d="m 531.70614,81.818519 c -0.23386,0.03683 0.058,0.377327 0.0644,0.498143 0.31612,0.561485 0.50535,1.27638 1.04788,1.663507 1.08494,0.200436 2.22727,-0.01675 3.31151,0.11534 1.16811,0.488843 2.15553,1.335035 3.26237,1.91066 0.059,-0.247124 -0.33783,-0.453306 -0.45499,-0.656511 -1.25782,-1.203233 -2.42317,-2.751144 -4.20809,-3.16248 -0.99018,-0.217789 -2.01067,-0.332331 -3.0231,-0.368659 z"
         id="path2326"
         transform="scale(0.26458333)"
         class="OC" />
      <path
         style="fill:#ff00ff;stroke:#000000;stroke-width:0.00449125"
         d="m 580.99384,103.99409 c -1.56626,1.19212 -3.10952,2.43195 -4.5544,3.76984 -0.32864,0.21714 -0.34646,0.62472 -0.0884,0.90719 0.74001,1.06142 1.59795,2.10473 2.7058,2.79598 0.519,0.3486 1.04785,-0.25155 1.49757,-0.45302 1.28548,-0.86458 2.51307,-1.86978 3.47351,-3.09033 0.14223,-0.39233 -0.43011,-0.60476 -0.64158,-0.83351 -1.01908,-0.84038 -1.61527,-2.04008 -2.36387,-3.0958 l -0.0209,-0.003 z"
         id="path2466"
         transform="scale(0.26458333)"
         class="IF" />
      <path
         style="fill:#ff00ff;stroke:#000000;stroke-width:0.00449125"
         d="m 583.00648,97.014062 c -1.07064,0.970595 -2.16349,1.954747 -3.04142,3.109308 -0.58108,0.92832 -0.4137,2.09328 -0.40544,3.13405 -0.0335,0.33005 0.31437,0.50302 0.57264,0.31316 0.61488,-0.27774 1.58396,-0.61639 1.48474,-1.46246 -0.18332,-1.00809 -0.18097,-2.08011 0.33316,-2.997734 0.30784,-0.721068 0.83638,-1.351931 1.09474,-2.083693 -0.008,-0.01474 -0.0249,-0.01768 -0.0384,-0.01263 z"
         id="path2467"
         transform="scale(0.26458333)"
         class="IF" />
      <path
         style="fill:#ff00ff;stroke:#000000;stroke-width:0.00449125"
         d="m 591.08177,107.40586 c -0.87092,0.21316 -1.63829,0.79398 -2.56843,0.80053 -0.85245,0.08 -1.78799,-0.0245 -2.43931,-0.63597 -0.5538,-0.26027 -0.93095,0.46069 -1.26432,0.7786 -0.2853,0.37322 -0.67169,0.73165 -0.88042,1.1207 1.42068,0.25079 2.97826,0.97466 4.38616,0.27527 1.09223,-0.55056 2.136,-1.27987 2.93387,-2.20755 0.0309,-0.10116 -0.0881,-0.14358 -0.16755,-0.13158 z"
         id="path2468"
         transform="scale(0.26458333)"
         class="IF" />
      <path
         style="fill:#ff00ff;stroke:#000000;stroke-width:0.00449125"
         d="m 575.85961,109.93464 c -0.42469,0.3488 -0.57133,0.98447 -0.62895,1.51597 -0.0507,0.61067 0.70565,0.67084 1.14544,0.63772 0.37621,-0.0488 1.00806,-0.0294 1.13299,-0.47246 -0.41046,-0.6544 -0.987,-1.25065 -1.62913,-1.68 -0.007,-9.6e-4 -0.0135,-0.002 -0.0204,-10e-4 z"
         id="path2469"
         transform="scale(0.26458333)"
         class="IF" />
      <path
         style="fill:#ff00ff;stroke:#000000;stroke-width:0.00449125"
         d="m 572.83346,108.86621 c -3.32446,0.47033 -6.56112,1.42286 -9.77355,2.37773 0.74738,0.43747 1.72185,0.68627 2.59843,0.92509 0.6173,0.21418 1.23364,0.0653 1.84211,-0.0907 1.70117,-0.36583 3.48629,-0.24231 5.16599,-0.71211 0.68591,-0.24745 0.65735,-1.13002 0.77983,-1.72439 -0.009,-0.33958 0.21489,-1.02618 -0.36436,-0.79646 -0.0828,0.007 -0.16564,0.0139 -0.24845,0.0208 z"
         id="path2470"
         transform="scale(0.26458333)"
         class="IF" />
      <path
         style="fill:#ff00ff;stroke:#000000;stroke-width:0.00449125"
         d="m 577.57786,114.05588 c -1.05473,-0.003 -2.12529,0.58294 -2.47667,1.61783 -0.67269,1.45363 -0.85511,3.12535 -1.69808,4.48904 -0.48409,0.39686 -0.25371,1.11001 -0.23211,1.64667 0.0825,0.34628 0.21768,1.04938 0.71667,0.8893 0.88607,-0.53615 1.30246,-1.57381 1.8058,-2.43632 0.86447,-1.79506 1.7434,-3.61791 2.20615,-5.56423 0.0544,-0.25765 0.0848,-0.72159 -0.32176,-0.64229 z"
         id="path2471"
         transform="scale(0.26458333)"
         class="IF" />
      <path
         style="fill:#0000ff;stroke:#000000;stroke-width:0.00449125"
         d="m 575.26891,125.84698 c -0.0463,0.36106 0.2297,0.79096 0.30188,1.16605 0.28084,1.02182 0.81004,2.03107 0.77829,3.1073 -0.10968,0.72247 -0.81276,1.24917 -0.84649,1.97966 0.24866,0.5971 0.94506,0.86769 1.47615,1.16649 0.47084,0.18036 0.64142,-0.50188 0.74175,-0.82526 0.35268,-1.15125 0.31535,-2.42585 -0.26994,-3.49657 -0.56232,-1.11085 -1.24908,-2.19203 -2.12024,-3.08276 -0.0182,-0.0108 -0.0399,-0.0197 -0.0614,-0.0149 z"
         id="path2472"
         transform="scale(0.26458333)"
         class="IC" />
      <path
         style="fill:#0000ff;stroke:#000000;stroke-width:0.00449125"
         d="m 575.53856,133.45578 c -0.4598,0.35586 -0.50504,1.0606 -0.98071,1.42667 -0.75523,0.79548 -1.88957,1.03669 -2.72913,1.69896 0.18848,0.71234 0.77246,1.27169 1.18271,1.87405 0.83965,1.03847 1.68449,2.11197 2.72081,2.95527 1.34887,-0.56081 2.57466,-1.493 3.44247,-2.67247 0.39214,-0.45987 0.21364,-1.07952 -0.13351,-1.50141 -0.94271,-1.37261 -2.04579,-2.66354 -3.33317,-3.72282 -0.0511,-0.0291 -0.1074,-0.0693 -0.16947,-0.0582 z"
         id="path2473"
         transform="scale(0.26458333)"
         class="IC" />
      <path
         style="fill:#0000ff;stroke:#000000;stroke-width:0.00449125"
         d="m 577.45926,144.32407 c -0.38938,-0.0582 -0.84185,0.16823 -0.80175,0.61474 0.0931,2.38846 0.60417,4.74921 1.21562,7.05476 0.25349,0.80534 0.43258,1.72076 0.75596,2.44878 0.97888,-1.76047 1.10708,-3.82903 0.93553,-5.79568 -0.1676,-1.30473 -0.098,-2.71164 -0.705,-3.91155 -0.28003,-0.49128 -0.92784,-0.38443 -1.40036,-0.41105 z"
         id="path2474"
         transform="scale(0.26458333)"
         class="IC" />
      <path
         style="fill:#0000ff;stroke:#000000;stroke-width:0.00449125"
         d="m 579.53278,140.01125 c -0.68996,0.26887 -1.2592,0.86515 -1.62474,1.50053 -0.2135,0.49753 0.36542,0.84761 0.80369,0.78369 0.41578,0.0207 1.03128,0.0602 1.12333,-0.48194 0.15326,-0.57768 0.17678,-1.33069 -0.24614,-1.79509 -0.0177,-0.007 -0.0372,-0.009 -0.0561,-0.007 z"
         id="path2475"
         transform="scale(0.26458333)"
         class="IC" />
      <path
         style="fill:#0000ff;stroke:#000000;stroke-width:0.00449125"
         d="m 582.28262,139.58861 c -0.52526,0.097 -0.32741,0.82421 -0.37774,1.19667 -0.0588,0.6078 0.14936,1.37752 0.84262,1.50311 1.4968,0.52582 3.11691,0.70489 4.54303,1.41357 0.88916,0.62392 2.0509,0.36965 3.0637,0.33404 0.38874,-0.0858 0.91065,-0.0303 1.20351,-0.32737 -0.27124,-0.46528 -0.90302,-0.62075 -1.33646,-0.91343 -2.36476,-1.19261 -4.7609,-2.38512 -7.31147,-3.12624 -0.20617,-0.0406 -0.41558,-0.0923 -0.62719,-0.0804 z"
         id="path2476"
         transform="scale(0.26458333)"
         class="IC" />
      <path
         style="fill:#0000ff;stroke:#000000;stroke-width:0.00449125"
         d="m 564.38202,134.48421 c 0.0186,0.28873 0.41273,0.53314 0.56667,0.78936 0.99024,1.01009 1.79981,2.32805 3.16878,2.86328 1.01705,0.3563 2.134,0.32257 3.19458,0.26264 0.36787,-0.15663 -0.005,-0.65839 -0.0549,-0.91597 -0.21459,-0.54821 -0.58142,-1.30376 -1.30334,-1.15387 -0.82542,0.0673 -1.68106,0.29384 -2.46598,-0.0931 -1.11568,-0.42868 -2.04825,-1.22433 -3.1058,-1.75229 z"
         id="path2477"
         transform="scale(0.26458333)"
         class="IC" />
      <path
         style="fill:#00ff00;stroke:#000000;stroke-width:0.00449125"
         d="m 547.32213,133.27385 c -1.28987,0.47319 -2.27612,1.52086 -3.27676,2.42666 -0.46215,0.49044 -1.05704,0.92053 -1.41571,1.47932 0.92575,0.95036 2.2021,1.66452 2.73246,2.93352 0.0194,0.27786 0.0944,0.9148 0.5186,0.70211 1.29399,-0.66871 2.32282,-1.74772 3.40984,-2.69861 0.44962,-0.50554 1.13458,-0.91706 1.31106,-1.60176 -0.19991,-0.73049 -0.80868,-1.28934 -1.29922,-1.84361 -0.58441,-0.53045 -1.18838,-1.20748 -1.98027,-1.39763 z"
         id="path2478"
         transform="scale(0.26458333)"
         class="IR" />
      <path
         style="fill:#00ff00;stroke:#000000;stroke-width:0.00449125"
         d="m 540.51824,135.17105 c -1.9891,0.13876 -3.63686,1.45307 -5.11793,2.66923 -0.16506,0.0707 -0.32336,0.46343 -0.002,0.29903 1.46703,-0.47929 3.02591,-1.32764 4.59107,-0.76913 0.49483,0.119 1.24369,0.53591 1.61246,-0.0353 0.27673,-0.48952 0.67714,-1.05528 0.57228,-1.64123 -0.30091,-0.52423 -1.13046,-0.50857 -1.65597,-0.52264 z"
         id="path2479"
         transform="scale(0.26458333)"
         class="IR" />
      <path
         style="fill:#00ff00;stroke:#000000;stroke-width:0.00449125"
         d="m 547.35353,141.23388 c -0.66549,0.13704 -1.26642,0.53099 -1.7093,1.03702 0.0562,1.41841 0.32057,2.96293 -0.48,4.23739 -0.31104,0.63202 -0.75828,1.20668 -1.02773,1.85123 0.36464,-0.11038 0.64692,-0.55966 0.96543,-0.79874 0.90243,-0.97853 2.15616,-1.80426 2.51634,-3.15618 0.15396,-0.97472 0.17119,-1.98942 0.0374,-2.96545 -0.0332,-0.13747 -0.15903,-0.23315 -0.30211,-0.20527 z"
         id="path2480"
         transform="scale(0.26458333)"
         class="IR" />
      <path
         style="fill:#00ff00;stroke:#000000;stroke-width:0.00449125"
         d="m 550.61969,132.28244 c -0.59407,-0.0348 -1.41331,0.43522 -1.13071,1.12527 0.27071,0.60283 0.71856,1.1758 1.27053,1.53562 0.37675,-0.20212 0.34137,-0.78019 0.48498,-1.14059 0.0662,-0.45176 0.45167,-1.20124 -0.15621,-1.44644 -0.14828,-0.0591 -0.31003,-0.0763 -0.46859,-0.0739 z"
         id="path2481"
         transform="scale(0.26458333)"
         class="IR" />
      <path
         style="fill:#00ff00;stroke:#000000;stroke-width:0.00449125"
         d="m 551.92864,120.90854 c -1.48066,3.01115 -2.73307,6.14786 -3.57037,9.39741 0.70963,0.0958 1.48821,0.078 2.19387,-0.10018 0.71749,-0.31453 0.67518,-1.262 0.93422,-1.88738 0.3354,-1.3846 0.782,-2.73767 1.15386,-4.11036 0.23689,-1.34961 -0.12495,-2.70746 -0.30632,-4.04019 -0.18563,0.1265 -0.26569,0.52383 -0.40526,0.7407 z"
         id="path2482"
         transform="scale(0.26458333)"
         class="IR" />
      <path
         style="fill:#00ff00;stroke:#000000;stroke-width:0.00449125"
         d="m 560.33358,131.58718 c -0.75337,0.0361 -1.38438,0.53762 -2.14158,0.59316 -1.4004,0.32649 -2.88727,0.33661 -4.23353,0.86755 -0.61324,0.34185 -0.39633,1.17923 -0.66983,1.72965 -0.042,0.24489 -0.34204,0.79096 0.11667,0.79299 1.8184,-0.22584 3.58046,-0.80358 5.33564,-1.31632 1.04465,-0.3713 2.29265,-0.72224 2.8858,-1.74089 0.25451,-0.5544 -0.44567,-0.88112 -0.89527,-0.90333 -0.13176,-0.018 -0.26492,-0.0263 -0.3979,-0.0228 z"
         id="path2483"
         transform="scale(0.26458333)"
         class="IR" />
      <path
         style="fill:#ffff00;stroke:#000000;stroke-width:0.00449125"
         d="m 514.61288,147.81075 c -0.51496,0.11808 -1.06441,0.20266 -1.54439,0.41053 -0.36297,0.58895 -0.0327,1.34527 -0.0186,1.9865 0.2804,1.62803 -0.83317,3.00047 -1.61514,4.30773 -0.10434,0.0956 -0.27482,0.51581 -0.0151,0.27053 1.11177,-1.12778 2.29461,-2.22065 3.18966,-3.5351 0.59132,-0.91964 0.42695,-2.07973 0.38527,-3.11387 -0.0162,-0.19832 -0.17193,-0.36677 -0.38176,-0.32632 z"
         id="path2484"
         transform="scale(0.26458333)"
         class="T" />
      <path
         style="fill:#ffff00;stroke:#000000;stroke-width:0.00449125"
         d="m 507.19917,141.5516 c -1.48779,0.0833 -2.59448,1.25766 -3.76439,2.04109 -0.35801,0.32115 -0.84803,0.54662 -1.14791,0.91384 0.34678,0.0847 0.76109,-0.22996 1.11559,-0.29399 1.16279,-0.42517 2.39219,-1.00035 3.65302,-0.6804 0.65585,0.12894 1.28362,0.50739 1.93825,0.55158 0.42346,-0.54461 0.80116,-1.18215 0.9672,-1.85387 -0.21903,-0.43457 -0.86136,-0.37997 -1.26544,-0.51509 -0.49424,-0.085 -0.99278,-0.17572 -1.49632,-0.16316 z"
         id="path2485"
         transform="scale(0.26458333)"
         class="T" />
      <path
         style="fill:#ffff00;stroke:#000000;stroke-width:0.00449125"
         d="m 515.03446,139.50984 c -1.11075,0.46225 -1.99236,1.35141 -2.91668,2.10229 -0.60642,0.59214 -1.34554,1.11503 -1.75667,1.86843 0.39912,0.76388 1.19762,1.27555 1.7179,1.96439 0.4233,0.44763 0.66076,1.02896 0.65544,1.64334 0.0155,0.57962 0.43631,0.36191 0.78106,0.11562 1.54961,-0.99686 3.08594,-2.11658 4.19896,-3.60528 0.30258,-0.34413 0.29856,-0.82979 0.0188,-1.18773 -0.67794,-1.07449 -1.45191,-2.17023 -2.5372,-2.86369 -0.05,-0.0243 -0.10528,-0.0419 -0.16158,-0.0374 z"
         id="path2486"
         transform="scale(0.26458333)"
         class="T" />
      <path
         style="fill:#ffff00;stroke:#000000;stroke-width:0.00449125"
         d="m 518.02061,139.02545 c -0.42411,0.008 -1.25957,0.0978 -1.13123,0.7058 0.29884,0.67642 0.85036,1.31893 1.55088,1.58983 0.52701,-0.14486 0.53709,-0.86741 0.63667,-1.3058 0.0846,-0.3419 0.10486,-0.85717 -0.34842,-0.92474 -0.23022,-0.0607 -0.47094,-0.0711 -0.7079,-0.0651 z"
         id="path2487"
         transform="scale(0.26458333)"
         class="T" />
      <path
         style="fill:#ffff00;stroke:#000000;stroke-width:0.00449125"
         d="m 520.52869,127.04085 c -0.72891,1.19141 -1.23597,2.53071 -1.87281,3.78056 -0.79425,1.77358 -1.76613,3.48707 -2.32089,5.35614 -0.17121,0.41073 0.12132,0.83976 0.5593,0.85877 0.70989,0.0199 1.6276,0.0745 2.09826,-0.56298 0.61667,-1.78003 0.67431,-3.77256 1.70351,-5.39616 0.46426,-1.22102 0.0944,-2.55587 -0.057,-3.80318 -0.0369,-0.0558 -0.008,-0.23735 -0.11035,-0.23315 z"
         id="path2488"
         transform="scale(0.26458333)"
         class="T" />
      <path
         style="fill:#ffff00;stroke:#000000;stroke-width:0.00449125"
         d="m 528.08065,139.07247 c -2.06285,0.0523 -4.19125,0.0541 -6.16294,0.73262 -0.8784,0.31406 -1.21306,1.46403 -0.86481,2.26809 0.38993,0.30904 0.9688,0.0576 1.42275,0.0695 2.39699,-0.40325 4.76617,-1.02938 7.04499,-1.87561 0.38508,-0.21427 1.03042,-0.32754 1.13756,-0.81986 -0.40522,-0.51553 -1.19933,-0.31409 -1.7721,-0.37397 -0.26848,-0.003 -0.53697,-5e-4 -0.80545,-7.7e-4 z"
         id="path2489"
         transform="scale(0.26458333)"
         class="T" />
      <path
         style="fill:#ff6600;stroke:#000000;stroke-width:0.00449125"
         d="m 524.44257,110.01885 c -0.91407,0.13081 -1.4608,1.0099 -2.15475,1.53071 -0.83393,0.79348 -1.72555,1.57043 -2.5065,2.39123 1.01989,1.07849 2.27859,1.9941 3.02107,3.29739 0.008,0.22205 0.12472,0.48351 0.39614,0.35403 1.37125,-0.58938 2.31785,-1.82663 3.36282,-2.84363 0.47311,-0.48697 1.17458,-1.14982 0.81754,-1.89726 -0.51771,-1.08481 -1.33423,-2.07481 -2.36755,-2.70142 -0.17625,-0.0859 -0.37138,-0.14034 -0.56877,-0.13105 z"
         id="path2490"
         transform="scale(0.26458333)"
         class="OR" />
      <path
         style="fill:#ff6600;stroke:#000000;stroke-width:0.00449125"
         d="m 524.28064,118.18467 c -0.55,0.16644 -1.17979,0.38411 -1.53808,0.85544 -0.21906,0.66618 0.28671,1.32178 0.33193,1.9858 0.17432,1.39107 -0.92611,2.48691 -1.44632,3.68247 -0.14446,0.17927 0.0797,0.35825 0.22018,0.16842 1.01633,-0.96829 2.1917,-1.94891 2.62068,-3.33767 0.22392,-1.01167 0.29505,-2.08744 0.12985,-3.1113 -0.0383,-0.14307 -0.16014,-0.26724 -0.31824,-0.24316 z"
         id="path2491"
         transform="scale(0.26458333)"
         class="OR" />
      <path
         style="fill:#ff6600;stroke:#000000;stroke-width:0.00449125"
         d="m 518.15903,112.0764 c -1.83206,0.0977 -3.5242,0.98631 -4.90142,2.15738 -0.53057,0.44993 -1.17217,0.83445 -1.61702,1.35562 0.54881,-0.0366 1.06163,-0.45461 1.58562,-0.64843 1.26968,-0.5088 2.64677,-1.20727 4.03738,-0.75 0.52522,0.0672 1.15578,0.69752 1.62211,0.15737 0.4045,-0.51732 0.4373,-1.22061 0.53913,-1.83755 -0.3248,-0.40099 -0.77513,-0.47737 -1.2658,-0.43439 z"
         id="path2492"
         transform="scale(0.26458333)"
         class="OR" />
      <path
         style="fill:#ff6600;stroke:#000000;stroke-width:0.00449125"
         d="m 527.4796,109.26376 c -0.41627,-0.0139 -1.17034,0.21909 -0.97352,0.77439 0.32145,0.55346 0.80305,1.23885 1.5058,1.26123 0.57018,-0.1752 0.57518,-0.96644 0.48544,-1.45018 -0.10619,-0.45188 -0.59875,-0.62699 -1.01772,-0.58544 z"
         id="path2493"
         transform="scale(0.26458333)"
         class="OR" />
      <path
         style="fill:#ff6600;stroke:#000000;stroke-width:0.00449125"
         d="m 529.38241,98.085469 c -0.48149,0.181202 -0.5952,0.818403 -0.86083,1.210893 -1.10388,2.367578 -2.14035,4.795878 -2.73567,7.346858 -0.14646,0.365 0.19924,0.71453 0.56842,0.61228 0.75118,-0.0276 1.77403,-0.14671 1.99878,-1.01912 0.59687,-1.69874 0.83209,-3.53115 1.61843,-5.15213 0.11434,-0.94845 0.17333,-2.023751 -0.3579,-2.863166 -0.057,-0.06988 -0.13545,-0.13813 -0.23123,-0.135615 z"
         id="path2494"
         transform="scale(0.26458333)"
         class="OR" />
      <path
         style="fill:#ff6600;stroke:#000000;stroke-width:0.00449125"
         d="m 537.39753,108.75007 c -2.0287,0.28055 -4.05216,0.68052 -6.0202,1.24825 -0.8263,0.31105 -0.81573,1.34959 -0.79018,2.08054 0.24774,0.53242 0.99913,0.25128 1.43369,0.17649 2.58426,-0.64678 5.16354,-1.36512 7.64389,-2.34282 0.2516,-0.0701 0.67481,-0.46261 0.2907,-0.65246 -0.79682,-0.3413 -1.69425,-0.4902 -2.5579,-0.51 z"
         id="path2495"
         transform="scale(0.26458333)"
         class="OR" />
      <path
         style="fill:#808080;stroke:#000000;stroke-width:0.00449125"
         d="m 551.49425,84.45103 c -2.06162,0.265891 -4.07284,0.844654 -6.09493,1.316672 -0.88365,0.287724 -1.89606,0.395909 -2.64124,0.98439 -0.16449,0.371729 0.41576,0.579388 0.65561,0.727897 0.68633,0.298442 1.47376,0.516718 2.19818,0.219714 1.74988,-0.401371 3.58575,-0.335544 5.30905,-0.854628 0.76087,-0.207562 1.17431,-0.983773 1.15421,-1.736147 0.0949,-0.436125 -0.12983,-0.720942 -0.58088,-0.657898 z"
         id="path2496"
         transform="scale(0.26458333)"
         class="OF" />
      <path
         style="fill:#808080;stroke:#000000;stroke-width:0.00449125"
         d="m 556.68655,89.997192 c -0.86935,0.145183 -1.89555,0.01267 -2.62983,0.58281 -0.6368,0.827 -0.70642,1.942155 -1.06562,2.897204 -0.24885,0.933485 -0.72009,1.775226 -1.08001,2.661414 -0.11922,0.864635 -0.004,1.801805 0.3672,2.592291 0.31429,0.30487 0.62539,-0.276272 0.78246,-0.493862 1.42073,-2.451784 2.44718,-5.108066 3.56826,-7.704591 -0.0316,-0.104783 0.37115,-0.5873 0.0575,-0.535266 z"
         id="path2497"
         transform="scale(0.26458333)"
         class="OF" />
      <path
         style="fill:#808080;stroke:#000000;stroke-width:0.00449125"
         d="m 554.64444,85.68507 c -0.53579,0.130208 -0.60479,0.841088 -0.79737,1.268777 -0.0503,0.319526 -0.36055,0.793677 -0.0772,1.063688 0.58075,-0.08337 1.15757,-0.345014 1.75826,-0.390703 0.2376,3.86e-4 0.78478,-0.114435 0.50421,-0.454563 -0.36806,-0.531605 -0.69123,-1.248935 -1.33527,-1.484918 -0.0174,-0.0012 -0.0351,-0.0041 -0.0526,-0.0023 z"
         id="path2498"
         transform="scale(0.26458333)"
         class="OF" />
      <path
         style="fill:#808080;stroke:#000000;stroke-width:0.00449125"
         d="m 559.89849,79.576275 c -0.92147,0.462444 -1.69338,1.200381 -2.53489,1.796019 -0.82028,0.706074 -1.79191,1.330553 -2.34548,2.282242 0.002,0.745826 0.59159,1.357229 0.99039,1.942627 0.51771,0.565764 1.0243,1.34528 1.83384,1.481948 0.98148,-0.08692 1.75559,-0.822695 2.54825,-1.341234 0.86004,-0.697893 1.8293,-1.371044 2.36896,-2.361412 0.1371,-0.532684 -0.52245,-0.664232 -0.88492,-0.806495 -1.01644,-0.693492 -1.36531,-1.962398 -1.91492,-2.98352 -0.0188,-0.0094 -0.0405,-0.01229 -0.0612,-0.01018 z"
         id="path2499"
         transform="scale(0.26458333)"
         class="OF" />
      <path
         style="fill:#808080;stroke:#000000;stroke-width:0.00449125"
         d="m 562.26921,71.601156 c -1.11379,0.972787 -2.11479,2.090828 -3.06844,3.223521 -0.86668,1.162477 -1.22409,2.653052 -1.19211,4.084928 -0.008,0.433135 0.50132,0.534164 0.7979,0.315616 0.50553,-0.295683 1.08884,-0.669156 1.2972,-1.236672 0.0689,-0.817813 -0.0785,-1.678977 0.10349,-2.467159 0.58174,-1.361705 1.46113,-2.576693 2.09985,-3.900585 -0.006,-0.0164 -0.0229,-0.02278 -0.0379,-0.01965 z"
         id="path2500"
         transform="scale(0.26458333)"
         class="OF" />
      <path
         style="fill:#808080;stroke:#000000;stroke-width:0.00449125"
         d="m 569.91257,82.996112 c -1.31468,0.216938 -2.57515,1.323479 -3.94107,0.741231 -0.6071,-0.170039 -1.23716,-0.779911 -1.88983,-0.481756 -0.47675,0.430618 -0.86827,1.012521 -1.07123,1.621585 0.0489,0.467334 0.72677,0.40583 1.05649,0.523687 1.2174,0.161506 2.58647,0.273029 3.64037,-0.488072 0.8139,-0.550512 1.73159,-1.047947 2.3465,-1.824043 0.0164,-0.08199 -0.0812,-0.100649 -0.14123,-0.09263 z"
         id="path2501"
         transform="scale(0.26458333)"
         class="OF" />
    </g>
    <path
       style="fill:#ffffff;fill-opacity:1;stroke:#000000;stroke-width:0.0064821;stroke-opacity:0"
       d="m 595.28189,67.370261 c -1.41084,1.105249 -2.85303,2.306837 -3.77835,3.870268 -0.50392,1.015406 -0.67215,2.243612 -0.47451,3.346889 0.46505,0.452745 1.17581,-0.114335 1.63976,-0.323092 0.9062,-0.640038 0.31434,-1.931133 0.56744,-2.820219 0.31281,-1.525423 1.57264,-2.638636 2.17176,-4.013077 -0.0213,-0.05151 -0.0764,-0.07498 -0.1261,-0.06077 z"
       id="path55"
       transform="scale(0.26458333)"
       class="P" />
    <path
       style="fill:#ffffff;fill-opacity:1;stroke:#000000;stroke-width:0.0064821;stroke-opacity:0"
       d="m 592.46091,75.354128 c -1.54936,0.609121 -2.85038,1.749021 -4.1055,2.823511 -0.40584,0.369514 -1.03161,0.895335 -0.55275,1.475943 0.71991,1.088791 1.42246,2.292063 2.51106,3.049371 0.64059,0.346976 1.22356,-0.441747 1.7608,-0.683152 1.10331,-0.847807 2.37681,-1.594004 3.19015,-2.743244 0.31493,-0.795407 -0.6709,-1.348093 -1.05612,-1.907408 -0.64133,-0.588457 -1.02868,-1.407872 -1.64306,-1.999575 -0.0327,-0.01479 -0.069,-0.01957 -0.10458,-0.01545 z"
       id="path56"
       transform="scale(0.26458333)"
       class="P" />
    <path
       style="fill:#ffffff;fill-opacity:1;stroke:#000000;stroke-width:0.0064821;stroke-opacity:0"
       d="m 596.99483,78.725325 c -0.61753,0.426356 -1.20201,1.115028 -1.3463,1.869934 0.20075,0.63833 1.12726,0.48761 1.64711,0.596302 1.23399,0.148685 2.48276,-0.07757 3.53126,-0.764025 0.75437,-0.468408 1.69844,-0.798405 2.24693,-1.514078 -0.16447,-0.401792 -0.81064,0.04601 -1.12399,0.0433 -1.28126,0.455881 -2.72666,0.837297 -3.99154,0.110853 -0.3163,-0.114059 -0.62741,-0.30389 -0.96347,-0.342286 z"
       id="path57"
       transform="scale(0.26458333)"
       class="P" />
    <path
       style="fill:#ffffff;fill-opacity:1;stroke:#000000;stroke-width:0.0064821;stroke-opacity:0"
       d="m 587.18231,80.531704 c -0.46826,0.428784 -0.53228,1.221074 -0.78446,1.802125 -0.11934,0.331727 -0.39868,1.039942 0.22132,0.978846 0.704,-0.04055 1.84885,0.0065 2.05453,-0.858371 -0.31052,-0.722081 -0.79767,-1.478974 -1.45189,-1.921334 -0.0131,-0.0015 -0.0263,-0.0024 -0.0395,-0.0013 z"
       id="path58"
       transform="scale(0.26458333)"
       class="P" />
    <path
       style="fill:#ffffff;fill-opacity:1;stroke:#000000;stroke-width:0.0064821;stroke-opacity:0"
       d="m 587.47729,85.209195 c -0.69748,-0.08991 -1.26538,0.412884 -1.40555,1.077142 -0.54374,1.806316 -1.15152,3.601552 -2.04237,5.268983 0.14167,1.009129 -0.002,2.119241 0.36336,3.07292 0.49546,-0.0178 0.60018,-0.833049 0.92623,-1.123733 1.46516,-2.439469 2.94075,-4.946507 3.72644,-7.697743 -0.004,-0.697129 -1.12319,-0.564766 -1.56811,-0.597569 z"
       id="path59"
       transform="scale(0.26458333)"
       class="P" />
    <path
       style="fill:#ffffff;fill-opacity:1;stroke:#000000;stroke-width:0.0064821;stroke-opacity:0"
       d="m 585.02043,79.43 c -3.48291,0.499937 -7.01171,1.029779 -10.32478,2.255381 -0.3873,0.302119 0.53378,0.550336 0.78824,0.705115 1.0777,0.453657 2.28821,0.515334 3.40616,0.197924 1.66199,-0.247389 3.39953,-0.07389 5.03171,-0.485567 0.79849,-0.585 0.89294,-1.695267 1.25084,-2.551313 0.0142,-0.09734 -0.0806,-0.131142 -0.15217,-0.12154 z"
       id="path60"
       transform="scale(0.26458333)"
       class="P" />
  </g>
</svg>
