<?xml version="1.0" encoding="UTF-8" standalone="no"?>
<!-- Created with Inkscape (http://www.inkscape.org/) -->

<svg
   width="30.868479mm"
   height="35.05611mm"
   viewBox="0 0 30.868479 35.05611"
   version="1.1"
   id="svg1"
   xmlns="http://www.w3.org/2000/svg"
   xmlns:svg="http://www.w3.org/2000/svg">
  <defs
     id="defs1" />
  <g
     id="layer1"
     transform="translate(-16.726483,-50.499926)">
    <g
       id="g2937">
      <path
         id="path1729"
         style="fill:#000000;stroke-width:0.264583"
         d="m 32.364946,85.324727 c -0.33409,-0.334087 -0.392695,-1.661631 -0.07337,-1.661631 0.142398,0 0.191082,0.152636 0.192537,0.603547 0.0026,0.761928 0.157083,1.039227 0.470932,0.844581 0.159014,-0.09862 0.237358,-0.333941 0.264371,-0.794139 0.02752,-0.468436 0.09059,-0.653989 0.222356,-0.653989 0.143008,0 0.183965,0.197623 0.183965,0.888011 0,0.840864 -0.01508,0.887174 -0.285909,0.872241 -0.157215,-0.0087 -0.381529,0.02498 -0.498422,0.07478 -0.137107,0.05842 -0.306176,-0.0031 -0.476461,-0.1734 z m 2.294969,0.130866 c -0.09509,-0.06025 -0.283078,-0.08073 -0.417724,-0.04551 -0.23122,0.06046 -0.242835,-0.0053 -0.208307,-1.180598 0.02514,-0.855585 0.0862,-1.261086 0.195395,-1.297281 0.106124,-0.03519 0.158829,0.08993 0.158829,0.377137 0,0.411557 0.01773,0.42771 0.42,0.380757 0.53848,-0.06286 0.758217,0.194336 0.758217,0.887484 0,0.395129 -0.07229,0.587555 -0.285539,0.76024 -0.322342,0.261015 -0.378089,0.27159 -0.620871,0.117772 z m 0.427037,-0.894213 c 0,-0.611015 -0.173963,-0.769702 -0.4935,-0.450162 -0.382694,0.382673 -0.166397,1.136695 0.300249,1.046824 0.138059,-0.02659 0.193251,-0.196993 0.193251,-0.596662 z M 30.195045,84.298406 V 83.15485 h 0.562716 c 0.81153,0 1.277434,0.596562 0.785045,1.00521 -0.149966,0.124471 -0.140282,0.222899 0.06353,0.644732 0.289825,0.599871 0.292815,0.637172 0.05093,0.637172 -0.104273,0 -0.290195,-0.213651 -0.413147,-0.474779 -0.122952,-0.26113 -0.323533,-0.494035 -0.445717,-0.517565 -0.18214,-0.03508 -0.222145,0.05043 -0.222145,0.474779 0,0.375352 -0.05239,0.517565 -0.190605,0.517565 -0.155311,0 -0.190606,-0.21177 -0.190606,-1.143558 z m 0.952976,-0.508246 c 0,-0.232683 -0.07646,-0.328518 -0.285882,-0.358259 -0.244396,-0.03471 -0.285883,0.0173 -0.285883,0.358259 0,0.340955 0.04149,0.392964 0.285883,0.358256 0.209417,-0.02974 0.285882,-0.125576 0.285882,-0.358256 z m 4.764828,0.76237 c 0,-0.705898 0.03932,-0.889434 0.19058,-0.889434 0.151262,0 0.190606,0.183536 0.190606,0.889434 0,0.705901 -0.03934,0.889434 -0.190606,0.889434 -0.151263,0 -0.19058,-0.183533 -0.19058,-0.889434 z m 0.916596,-0.318299 c 0.03844,-1.276614 0.244528,-1.639242 0.354013,-0.622887 l 0.06353,0.58979 0.242068,-0.269017 c 0.242199,-0.26919 0.583856,-0.363781 0.583856,-0.16165 0,0.05905 -0.114353,0.210859 -0.254133,0.337346 -0.329962,0.29862 -0.321151,0.391965 0.08229,0.871093 0.298714,0.354724 0.311044,0.4045 0.110119,0.443876 -0.132344,0.02593 -0.349303,-0.105982 -0.522446,-0.317656 l -0.296122,-0.362003 -0.0045,0.349422 c -0.0029,0.227565 -0.07265,0.349419 -0.19976,0.349419 -0.164412,0 -0.189468,-0.190466 -0.158829,-1.207733 z m -0.853069,-0.825256 c -0.09266,-0.149919 0.02754,-0.381188 0.198093,-0.381188 0.06575,0 0.119566,0.114355 0.119566,0.254124 0,0.267986 -0.184865,0.341929 -0.317659,0.127064 z m -6.20485,-6.818993 c -0.16248,-0.16247 -0.07742,-0.99908 0.152877,-1.503566 0.127582,-0.279535 0.45884,-0.879904 0.736123,-1.334151 0.426773,-0.699172 0.495935,-0.908674 0.450771,-1.365343 -0.04501,-0.454757 -0.164941,-0.649234 -0.764037,-1.238853 -0.390869,-0.384677 -0.755068,-0.699413 -0.809361,-0.699413 -0.155601,0 -0.48641,-0.718076 -0.48641,-1.055827 0,-0.290441 -0.916331,-1.485411 -1.139031,-1.485411 -0.252704,0 -1.032986,1.159484 -1.066483,1.584743 -0.05159,0.65514 -0.639974,1.234416 -1.203377,1.184767 -0.402881,-0.0355 -0.442463,-0.0832 -0.685113,-0.825523 -0.299137,-0.915266 -0.550439,-1.046295 -0.929983,-0.484926 -0.168646,0.249428 -0.366634,0.383336 -0.566738,0.383336 -0.200104,0 -0.398066,-0.133908 -0.566711,-0.383336 -0.374941,-0.554561 -0.617987,-0.426776 -0.919665,0.483542 -0.192114,0.57972 -0.328824,0.799444 -0.514959,0.827712 -0.315436,0.0479 -0.461354,-0.284761 -0.214683,-0.489469 0.116814,-0.09695 0.183039,-0.393277 0.183039,-0.81901 0,-0.627848 0.03366,-0.698111 0.571765,-1.194146 0.720989,-0.664586 0.767821,-1.179441 0.190129,-2.090375 -0.714745,-1.127025 -1.041717,-1.893665 -1.06082,-2.487158 -0.01614,-0.503139 0.01773,-0.587248 0.250296,-0.620434 0.355362,-0.05072 0.938053,0.639741 0.938053,1.11157 0,0.439348 0.944642,1.678255 1.203802,1.578803 0.362399,-0.139068 1.08331,-1.225487 1.08331,-1.632566 0,-0.676783 0.98335,-1.372693 1.527889,-1.081271 0.118904,0.06363 0.247571,0.3037 0.285962,0.53349 0.124116,0.743009 0.323929,1.11664 0.597191,1.11664 0.141499,0 0.257281,-0.0758 0.257281,-0.168444 0,-0.09264 0.140811,-0.300736 0.312922,-0.462426 0.298291,-0.280233 0.327898,-0.284165 0.63328,-0.08407 0.176213,0.115451 0.354436,0.345588 0.396055,0.511416 0.134885,0.537443 0.534459,0.264488 0.793274,-0.54188 0.233654,-0.728065 0.284983,-0.828686 1.300718,-2.549803 0.495723,-0.83998 0.569992,-1.055391 0.525357,-1.52341 -0.04138,-0.434004 -0.148908,-0.632677 -0.527659,-0.974846 -0.413438,-0.373521 -0.485378,-0.523759 -0.54983,-1.148104 -0.04077,-0.395089 -0.13462,-0.778814 -0.208519,-0.852721 -0.258603,-0.258595 -0.149648,-0.483375 0.213969,-0.441409 0.231907,0.02677 0.362267,0.125142 0.390049,0.29433 0.09406,0.572778 0.448045,1.32388 0.642329,1.362803 0.127291,0.02551 0.26498,-0.09095 0.356049,-0.301181 0.310965,-0.717857 1.029309,-0.66349 1.31953,0.09987 0.220689,0.580459 0.650108,0.07187 0.953823,-1.129725 0.01323,-0.05241 0.03125,-0.152475 0.03998,-0.222359 0.0087,-0.06988 0.268102,-0.127063 0.576368,-0.127063 0.469874,0 0.613648,0.0632 0.889424,0.390935 0.181636,0.215836 0.328956,0.549473 0.328956,0.7449 0,0.356759 0.596979,1.236471 0.989277,1.457803 0.309933,0.174879 1.297834,-0.985591 1.297834,-1.524571 0,-0.486466 0.554408,-1.098862 0.944351,-1.043107 0.221589,0.03169 0.259212,0.119791 0.240189,0.562468 -0.0217,0.505875 -0.596345,1.800423 -1.176973,2.651651 -0.155178,0.227483 -0.26035,0.587398 -0.260852,0.89259 0,0.44218 0.07657,0.584234 0.570944,1.049467 0.314484,0.295934 0.571791,0.587973 0.571791,0.64897 0,0.061 0.234976,0.345906 0.522208,0.633124 0.33827,0.338273 0.495247,0.592535 0.445611,0.721839 -0.09671,0.251997 0.16727,0.755711 0.693685,1.323705 l 0.409019,0.441341 0.553006,-0.628454 c 0.41783,-0.474827 0.553006,-0.732645 0.553006,-1.054661 0,-0.565272 0.61034,-1.204166 1.094607,-1.145818 0.28911,0.03484 0.367163,0.146571 0.573485,0.821055 0.218757,0.715087 0.60788,1.158671 0.720354,0.82119 0.102711,-0.308102 0.571606,-0.77602 0.777637,-0.77602 0.242226,0 0.558509,0.307536 0.686012,0.667075 0.176292,0.497094 0.514641,0.198229 0.827114,-0.730607 0.183621,-0.545769 0.326892,-0.773306 0.504295,-0.800854 0.310833,-0.04827 0.453787,0.286388 0.209074,0.489469 -0.116813,0.09695 -0.183039,0.393274 -0.183039,0.819009 0,0.627849 -0.03363,0.698111 -0.571764,1.194147 -0.795232,0.732999 -0.78486,1.143225 0.06453,2.556502 0.902097,1.500912 1.134163,2.541498 0.589968,2.645275 -0.357373,0.06815 -0.972159,-0.588714 -0.972159,-1.038712 0,-0.496998 -0.828595,-1.608262 -1.199171,-1.608262 -0.289957,0 -1.08794,1.151864 -1.08794,1.570408 0,0.511802 -0.557477,1.097894 -1.044258,1.097894 -0.198781,0 -0.381661,-0.07147 -0.406452,-0.158827 -0.02487,-0.08735 -0.110252,-0.39928 -0.189998,-0.693166 -0.136128,-0.501758 -0.423995,-0.926875 -0.627644,-0.926875 -0.04956,0 -0.152665,0.165682 -0.229103,0.368181 -0.211111,0.559329 -0.577109,0.701591 -0.983165,0.382172 -0.182192,-0.143301 -0.331259,-0.376872 -0.331259,-0.519043 0,-0.183513 -0.05829,-0.236125 -0.200977,-0.181372 -0.110543,0.04242 -0.224129,0.07713 -0.252413,0.07713 -0.09035,0 -0.436033,0.911722 -0.436033,1.149998 0,0.126241 -0.07993,0.309473 -0.177641,0.407178 -0.09771,0.0977 -0.352028,0.516329 -0.565177,0.930275 -0.213121,0.413946 -0.504454,0.92416 -0.647409,1.133814 -0.155045,0.22739 -0.260244,0.587517 -0.260746,0.892587 0,0.44218 0.07657,0.584237 0.570944,1.049467 0.534326,0.502817 0.571791,0.581031 0.571791,1.19393 0,0.440513 0.07133,0.734706 0.217302,0.895982 0.187563,0.207254 0.191903,0.256432 0.03175,0.359267 -0.348668,0.223912 -0.523213,0.05572 -0.799068,-0.769969 -0.32938,-0.985967 -0.572452,-1.098005 -0.959379,-0.442187 -0.337,0.571137 -0.724138,0.559911 -1.093391,-0.0317 -0.362452,-0.580742 -0.596476,-0.472815 -0.891434,0.411147 -0.139753,0.41887 -0.31025,0.801732 -0.378857,0.850805 -0.189865,0.135818 -1.053041,0.02975 -1.278122,-0.157057 -0.282258,-0.234254 -0.463339,-0.609023 -0.491596,-1.017527 -0.02355,-0.339994 -0.869712,-1.519406 -1.09011,-1.519406 -0.05977,0 -0.341471,0.271594 -0.625978,0.603543 -0.379597,0.442844 -0.517551,0.7161 -0.518133,1.026269 0,0.635698 -0.854631,1.412946 -1.186736,1.080841 z m 4.920642,-0.624525 c 0.04241,-0.11054 0.07713,-0.462391 0.07713,-0.781889 0,-0.51031 0.0595,-0.636436 0.489717,-1.037868 0.379307,-0.35393 0.50591,-0.581789 0.561499,-1.010562 0.06244,-0.481412 0.01376,-0.64439 -0.373592,-1.24986 -0.588222,-0.919538 -1.056031,-1.937721 -1.057566,-2.301788 -0.0026,-0.61872 -0.227277,-0.11738 -0.281146,0.627401 -0.05305,0.733312 -0.0903,0.811745 -0.589174,1.240883 -0.463577,0.398775 -0.532289,0.524798 -0.530569,0.97323 0.0026,0.351785 0.122978,0.705977 0.383619,1.116957 0.644022,1.015511 1.016026,1.835314 1.016026,2.239073 0,0.410824 0.17616,0.517684 0.30406,0.184423 z m 1.011369,-1.232815 c 0.278342,-0.09278 0.329407,-0.168635 0.261753,-0.388988 -0.127609,-0.415777 -0.159835,-0.416544 -0.549699,-0.0131 -0.280299,0.290076 -0.377295,0.532453 -0.429577,1.07351 l -0.0675,0.698841 0.21963,-0.62751 c 0.165868,-0.473866 0.304298,-0.655724 0.565388,-0.742762 z m -1.959054,-0.06147 c -0.558482,-1.099696 -0.794888,-1.30302 -1.048147,-0.901507 -0.10197,0.161655 -0.04138,0.321421 0.272018,0.717124 0.221801,0.280024 0.403252,0.600966 0.403252,0.713208 0,0.112239 0.07691,0.204073 0.170894,0.204073 0.09401,0 0.274717,0.114705 0.401585,0.254902 0.436086,0.481859 0.362929,0.119782 -0.199602,-0.9878 z m -2.641944,-0.0068 c 0.43651,-0.668649 0.45167,-0.725765 0.26715,-1.007374 l -0.195607,-0.298538 -0.242014,0.355719 c -0.336656,0.494861 -0.991129,1.78089 -0.991129,1.947553 0,0.297072 0.720275,-0.321376 1.1616,-0.99736 z m 7.10983,-0.323059 c -0.411003,-0.410988 -0.446325,-0.412067 -0.56634,-0.0173 -0.05794,0.190574 0.01429,0.306379 0.288819,0.463089 0.23069,0.131667 0.405924,0.366676 0.473736,0.63531 l 0.107633,0.426344 0.0408,-0.561004 c 0.03516,-0.483499 -0.01244,-0.614254 -0.344647,-0.946449 z m -1.169537,-0.124835 c 0.333851,0.12601 0.380656,0.112358 0.44569,-0.12995 0.10668,-0.397571 0.08811,-1.135145 -0.03342,-1.326772 -0.06993,-0.110265 -0.316257,-0.153223 -0.728663,-0.127061 l -0.623014,0.03952 -0.04011,0.561589 c -0.02196,0.308871 -0.0066,0.694653 0.03408,0.857292 0.06477,0.258024 0.105966,0.275881 0.323321,0.140142 0.187775,-0.117274 0.340916,-0.120907 0.622116,-0.01476 z m -4.717203,-0.845393 c 0.145653,-0.233222 0.126894,-0.254124 -0.228045,-0.254124 -0.347345,0 -0.372877,0.02588 -0.250719,0.254124 0.0748,0.139769 0.177403,0.254125 0.228018,0.254125 0.05062,0 0.163459,-0.114356 0.250746,-0.254125 z m 0.410553,-1.302385 -1.32e-4,-0.794136 -0.698711,-0.0067 -0.698712,-0.0067 v 0.71615 c 0,0.393883 0.0381,0.754269 0.08469,0.80086 0.04659,0.04659 0.361077,0.08471 0.698844,0.08471 h 0.614124 z m 4.290722,0.03177 c -0.08729,-0.139769 -0.200104,-0.254124 -0.250719,-0.254124 -0.05062,0 -0.15322,0.114355 -0.228018,0.254124 -0.122158,0.228251 -0.09665,0.254124 0.250719,0.254124 0.354912,0 0.373671,-0.0209 0.228018,-0.254124 z m -1.054709,-0.93871 c -0.180049,-0.217493 -0.390048,-0.542282 -0.466619,-0.721754 -0.141049,-0.330518 -0.863362,-0.84682 -0.863362,-0.617117 0,0.143666 0.702152,1.559293 0.995363,2.006804 l 0.197405,0.30127 0.232305,-0.286882 c 0.227409,-0.280818 0.225398,-0.295233 -0.09509,-0.682321 z M 38.5853,70.628342 c 0.06368,-0.167492 0.08509,-0.384477 0.0476,-0.482188 -0.08818,-0.22983 -0.55999,-0.111693 -0.55999,0.140219 0,0.10409 -0.171556,0.405831 -0.381186,0.670539 -0.443547,0.560014 -0.451141,0.601538 -0.167454,0.915019 0.205501,0.22706 0.227885,0.213474 0.57949,-0.351436 0.201163,-0.323193 0.417856,-0.724662 0.481542,-0.892153 z m -4.715484,-0.426961 -0.01005,-0.578617 -0.191241,0.540271 c -0.135387,0.382529 -0.280855,0.562766 -0.49821,0.617318 -0.334063,0.08384 -0.340942,0.100264 -0.224684,0.534405 0.07869,0.293873 0.07945,0.29369 0.506518,-0.120221 0.367109,-0.355838 0.42627,-0.49647 0.417645,-0.993156 z m 3.573701,0.732872 c 0.308134,-0.389813 0.49649,-0.7483 0.462147,-0.879605 -0.07945,-0.303845 0.351843,-0.977442 0.738717,-1.153713 0.228732,-0.104214 0.31795,-0.24443 0.31795,-0.499668 0,-0.261157 0.134144,-0.462608 0.508238,-0.763244 0.45638,-0.366754 0.508265,-0.46646 0.508265,-0.976987 0,-0.444471 -0.110914,-0.744169 -0.508265,-1.373301 -0.279532,-0.442613 -0.508238,-0.860089 -0.508238,-0.927724 0,-0.06763 -0.100065,-0.197686 -0.222356,-0.289002 -0.12229,-0.09132 -0.336709,-0.508746 -0.476488,-0.927619 -0.296624,-0.888936 -0.582507,-1.039042 -0.880692,-0.462409 -0.250746,0.484896 -0.646695,0.619635 -0.967555,0.329255 -0.132979,-0.12034 -0.275696,-0.325617 -0.317129,-0.456168 -0.130572,-0.411416 -0.439182,-0.258908 -0.698024,0.344945 -0.137292,0.320273 -0.249608,0.688076 -0.249608,0.81734 0,0.481693 -0.991526,0.461952 -1.48299,-0.02952 -0.191426,-0.191408 -0.327818,-0.490199 -0.349699,-0.766019 -0.02381,-0.299069 -0.197988,-0.650047 -0.514589,-1.036408 -0.263286,-0.321307 -0.514694,-0.583321 -0.558694,-0.58225 -0.303186,0.0074 -1.160012,1.16586 -1.160012,1.568426 0,0.360059 -0.682149,1.22499 -0.966126,1.22499 -0.115994,0 -0.17743,0.145068 -0.17743,0.41893 0,0.319641 -0.117607,0.533779 -0.496253,0.903499 -0.741018,0.723599 -0.756576,1.271606 -0.06781,2.388762 0.290565,0.471281 0.643546,0.958323 0.78441,1.082315 0.140864,0.123992 0.32856,0.499478 0.417116,0.834411 0.08853,0.334934 0.2785,0.691298 0.422169,0.791925 0.241458,0.169113 0.272944,0.155043 0.416348,-0.186016 0.177879,-0.423055 0.571765,-0.678222 0.870162,-0.563716 0.112474,0.04316 0.291465,0.246632 0.397748,0.452163 0.294799,0.570084 0.581898,0.416671 0.877385,-0.468802 0.139753,-0.418873 0.303133,-0.797338 0.363034,-0.841037 0.09176,-0.06694 0.281464,-0.06544 0.985547,0.0078 0.257572,0.02679 0.747924,0.722873 0.747924,1.061706 0,0.493491 0.808884,1.614705 1.164881,1.614705 0.0549,0 0.333878,-0.296085 0.619919,-0.657969 z m -6.23197,0.414237 c 0,-0.06417 0.03024,-0.19549 0.06723,-0.29183 0.04165,-0.108559 -0.06112,-0.221213 -0.270298,-0.296281 -0.231881,-0.08322 -0.409337,-0.300035 -0.567135,-0.692898 l -0.229605,-0.571781 0.06858,0.698841 c 0.05398,0.549871 0.140229,0.759648 0.404627,0.9841 0.358564,0.304411 0.5266,0.358608 0.5266,0.169849 z m -9.27981,-2.077426 c 0.06974,-0.193435 0.270775,-0.406437 0.446722,-0.473337 0.336365,-0.127887 0.35687,-0.180015 0.213334,-0.542907 -0.08004,-0.202398 -0.127926,-0.18995 -0.488765,0.127064 -0.336603,0.295706 -0.409072,0.46228 -0.456988,1.050284 -0.0563,0.690605 -0.01244,0.665875 0.285697,-0.161104 z m 4.456642,-1.245172 c 0.81907,-1.36281 0.859631,-1.943772 0.17518,-2.507969 -0.34589,-0.285105 -0.494824,-0.538642 -0.621268,-1.057511 -0.09147,-0.375375 -0.172614,-0.580535 -0.18034,-0.455917 -0.01773,0.287034 -0.572743,1.39065 -1.047644,2.083427 -0.258445,0.37701 -0.364093,0.685774 -0.364093,1.064006 0,0.472276 0.06501,0.590098 0.571764,1.036167 0.545942,0.48056 0.5724,0.535823 0.585391,1.223108 l 0.01349,0.719807 0.118639,-0.528328 c 0.06525,-0.290582 0.402193,-1.000139 0.748771,-1.57679 z m 0.243575,1.17647 c 0.0029,-0.09145 0.188965,-0.394729 0.413332,-0.673944 0.317474,-0.395028 0.378883,-0.553797 0.276807,-0.715592 -0.07212,-0.114361 -0.193939,-0.228857 -0.270669,-0.254434 -0.152611,-0.05087 -0.998087,1.378892 -1.170146,1.978755 l -0.107341,0.374269 0.426323,-0.271388 c 0.234474,-0.149265 0.428731,-0.346216 0.431694,-0.437666 z M 25.194632,68.73578 c -0.03408,-0.08878 -0.231484,-0.282139 -0.43868,-0.429686 l -0.376766,-0.268269 -0.06067,0.31737 c -0.04731,0.247483 0.01138,0.352044 0.266858,0.474816 0.200978,0.09662 0.378355,0.329229 0.459105,0.602157 l 0.131631,0.444717 0.04024,-0.489844 c 0.02222,-0.269412 0.01243,-0.56248 -0.0217,-0.651261 z m 4.697386,0.764392 c -0.112872,-0.172252 -0.20574,-0.415259 -0.206402,-0.540015 0,-0.124756 -0.174995,-0.529889 -0.387403,-0.900295 l -0.386212,-0.67347 -0.238205,0.292282 c -0.234844,0.288134 -0.233759,0.297696 0.0767,0.673468 0.173196,0.209653 0.377878,0.528841 0.454845,0.709305 0.07694,0.180465 0.288237,0.418243 0.469504,0.528397 0.445902,0.270939 0.451855,0.268486 0.21717,-0.08967 z m 12.817289,-0.608016 c -0.05297,-0.398187 -0.194733,-0.782312 -0.351737,-0.952965 -0.321918,-0.349954 -0.425953,-0.356759 -0.596,-0.03899 -0.110993,0.207389 -0.07612,0.273683 0.217884,0.414256 0.232463,0.111154 0.412697,0.348266 0.536681,0.706064 0.102685,0.296289 0.208121,0.538708 0.234288,0.538708 0.02619,0 0.0077,-0.300183 -0.04112,-0.667076 z m -2.867316,-0.5995 c 0.322183,-0.133448 0.344223,-0.179512 0.216059,-0.451501 l -0.142743,-0.30289 -0.412961,0.400098 c -0.351685,0.34073 -0.411454,0.485957 -0.402934,0.97872 l 0.01005,0.578617 0.186875,-0.527217 c 0.129355,-0.364929 0.297312,-0.572963 0.54565,-0.675827 z m 3.791321,0.758327 c 0.07713,0 0.180816,-0.12782 0.230399,-0.284046 0.04958,-0.156226 0.26281,-0.49888 0.473815,-0.761452 0.377534,-0.4698 0.379836,-0.4816 0.145204,-0.740868 -0.228759,-0.252788 -0.245454,-0.254114 -0.412089,-0.03269 -0.256857,0.34135 -1.042326,1.916065 -1.042326,2.089698 0,0.09319 0.08792,0.07035 0.232357,-0.06036 0.127794,-0.115658 0.295487,-0.210286 0.37264,-0.210286 z m 3.452309,-0.403458 c -0.152717,-0.302228 -0.421481,-0.797097 -0.59727,-1.099709 l -0.31959,-0.550203 -0.26043,0.260448 -0.260456,0.26045 0.405554,0.504661 c 0.223044,0.277564 0.405553,0.595196 0.405553,0.70585 0,0.110654 0.137398,0.253426 0.305329,0.31727 0.167905,0.06384 0.349912,0.188262 0.404442,0.276484 0.06903,0.111721 0.113612,0.116981 0.146818,0.01733 0.02619,-0.07869 -0.07726,-0.390356 -0.22995,-0.692582 z m -3.070172,-1.715373 c 0.176662,-0.248097 0.283475,-0.584684 0.283475,-0.893265 0,-0.421415 -0.08514,-0.576315 -0.571765,-1.040098 -0.332819,-0.317198 -0.571817,-0.659633 -0.57187,-0.819378 -5.3e-5,-0.170555 -0.250031,0.156221 -0.660427,0.863304 -0.834284,1.437497 -0.850212,1.899227 -0.09231,2.678927 0.302049,0.310751 0.499851,0.636419 0.501597,0.825903 0.0026,0.241956 0.09633,0.13948 0.415343,-0.452221 0.22688,-0.420785 0.540068,-0.944213 0.69596,-1.163172 z M 24.159608,67.57804 c 0,-0.71451 -0.01376,-0.745048 -0.381185,-0.850286 -0.234051,-0.06703 -0.516044,-0.05781 -0.730594,0.02387 -0.308795,0.117557 -0.349435,0.198657 -0.349435,0.697553 0,0.855038 0.0449,0.905071 0.795443,0.886484 l 0.665771,-0.01648 z m 17.471019,-0.528285 v -0.794138 h -0.698844 -0.698844 v 0.794138 0.794137 h 0.698844 0.698844 z m -13.493961,0.45107 c 0.247306,-0.247322 0.177271,-0.355775 -0.229791,-0.355775 -0.350467,0 -0.369067,0.02114 -0.223573,0.254125 0.184415,0.295307 0.245904,0.309094 0.453364,0.10165 z m 17.256019,-0.45107 c 0.253603,-0.334084 0.214577,-0.412953 -0.204311,-0.412953 -0.428837,0 -0.445188,0.02803 -0.223573,0.38291 0.192325,0.307933 0.215688,0.309573 0.427884,0.03004 z M 28.606778,66.065474 V 65.30355 l -0.482839,0.0416 c -0.265562,0.02289 -0.565732,-0.02721 -0.667067,-0.111305 -0.158036,-0.131151 -0.184229,-0.02323 -0.184229,0.75873 v 0.911632 l 0.667067,-0.03841 0.667068,-0.0384 z m -4.891882,0.190143 c -0.156527,-0.292476 -0.268446,-0.316037 -0.482838,-0.101648 -0.247809,0.247811 -0.177032,0.355772 0.233178,0.355772 0.346286,0 0.371792,-0.02596 0.24966,-0.254124 z m 22.083369,0.10165 c 0.157903,-0.157917 0.208624,-1.078122 0.07813,-1.418154 -0.05675,-0.147907 -0.146923,-0.166134 -0.381185,-0.07707 -0.185182,0.07041 -0.427593,0.07075 -0.611426,7.93e-4 -0.406188,-0.154432 -0.457782,-0.07671 -0.457782,0.689639 0,0.772015 0.147479,0.957199 0.762371,0.957199 0.251565,0 0.526018,-0.06861 0.609891,-0.152474 z m -23.00015,-0.486254 c 0.140573,-0.2251 0.105701,-0.333134 -0.276781,-0.857668 -0.54483,-0.747189 -1.143449,-1.339871 -1.195519,-1.183672 -0.03937,0.118142 0.608144,1.475446 0.960278,2.01286 0.230691,0.352057 0.307288,0.356317 0.512022,0.02848 z m 2.27883,-0.832578 c 0.664104,-1.239681 0.684424,-1.44418 0.09917,-0.997788 -0.244581,0.186563 -0.444712,0.392948 -0.444712,0.458634 0,0.06569 -0.176001,0.338431 -0.391107,0.606094 -0.347768,0.432771 -0.372507,0.5164 -0.223335,0.75525 0.09226,0.147728 0.224684,0.249608 0.294296,0.226402 0.06961,-0.0232 0.369173,-0.49507 0.665692,-1.048592 z m 16.168449,0.867762 c -0.0026,-0.05241 -0.08072,-0.196379 -0.174493,-0.319923 -0.159702,-0.21049 -0.183621,-0.204494 -0.380074,0.0953 -0.208042,0.317532 -0.206745,0.319921 0.174493,0.319921 0.21127,0 0.382297,-0.04288 0.380074,-0.09529 z M 27.136647,65.030538 c 0.005,-0.07978 -0.129223,-0.179724 -0.298053,-0.2221 -0.217356,-0.05455 -0.362824,-0.234791 -0.498211,-0.61732 l -0.191241,-0.540271 -0.01005,0.565729 c -0.0085,0.472525 0.05749,0.63541 0.399865,0.988653 0.361474,0.37294 0.420476,0.396179 0.499322,0.196643 0.04919,-0.124454 0.09342,-0.291555 0.09834,-0.371334 z m 13.147225,0.300897 c 0.1016,-0.16107 0.06527,-0.292981 -0.15539,-0.564216 -0.158406,-0.194702 -0.351261,-0.500843 -0.428546,-0.680315 -0.07731,-0.179472 -0.316918,-0.42753 -0.532474,-0.551233 -0.383989,-0.220387 -0.387482,-0.220051 -0.173169,0.01675 0.14224,0.157186 0.175339,0.285028 0.09464,0.365707 -0.147373,0.147378 0.743373,1.729841 0.937339,1.665192 0.06874,-0.02291 0.184653,-0.136265 0.257599,-0.251883 z m 2.319231,-0.893175 c 0.170762,-0.336981 0.362109,-0.748506 0.425212,-0.914495 l 0.11475,-0.3018 -0.438573,0.258757 c -0.241194,0.142317 -0.438547,0.313719 -0.438547,0.380892 0,0.06717 -0.200766,0.385077 -0.446167,0.706453 -0.427514,0.559885 -0.436933,0.594527 -0.225319,0.828344 0.217064,0.239848 0.224922,0.23898 0.459502,-0.05072 0.131259,-0.162107 0.37838,-0.570452 0.549142,-0.907433 z m -13.20583,0.769096 c 0.169069,-0.183798 0.289825,-0.535445 0.338164,-0.984729 l 0.07517,-0.698841 -0.200448,0.542687 c -0.131286,0.35547 -0.328718,0.60902 -0.572267,0.734972 -0.315093,0.162939 -0.351446,0.230402 -0.238178,0.442042 0.171635,0.320712 0.275034,0.31446 0.597561,-0.03613 z m 14.924961,-0.381185 c 0.02834,-0.1978 -0.06247,-0.351195 -0.294746,-0.49783 -0.192247,-0.121359 -0.418386,-0.447188 -0.52914,-0.76237 l -0.193384,-0.550434 0.06861,0.698841 c 0.05024,0.511731 0.155654,0.792396 0.3937,1.048261 0.394547,0.424093 0.501544,0.436338 0.554964,0.06353 z m 2.359104,-0.136348 c 0.222409,-0.200218 0.283025,-0.386474 0.272918,-0.838766 l -0.01297,-0.581396 -0.135678,0.424175 c -0.107104,0.334804 -0.428493,0.666882 -0.818065,0.845302 -0.01482,0.0067 0.0061,0.13775 0.0462,0.291152 0.07795,0.297985 0.186796,0.274373 0.647594,-0.140467 z M 34.769294,62.670867 c 0,-0.587386 0.04535,-0.689644 0.489717,-1.104294 0.687467,-0.641477 0.784199,-1.364279 0.280908,-2.099135 -0.475536,-0.69437 -0.906515,-1.550893 -1.091142,-2.168536 l -0.151579,-0.507095 -0.09141,0.853601 c -0.08533,0.796788 -0.124592,0.87988 -0.589862,1.248378 -0.444447,0.352007 -0.498448,0.455301 -0.498448,0.953413 0,0.416521 0.108637,0.728962 0.427063,1.228178 0.6477,1.015489 0.970624,1.704067 0.970624,2.06966 0,0.187788 0.0548,0.296344 0.127053,0.251685 0.0699,-0.04319 0.12708,-0.369824 0.12708,-0.725855 z m 0.932603,-0.537771 c 0.26506,-0.09377 0.321892,-0.177271 0.259398,-0.381185 -0.123111,-0.401736 -0.157877,-0.401767 -0.546312,-5.29e-4 -0.278686,0.287927 -0.379439,0.536464 -0.435187,1.07351 l -0.07255,0.698841 0.227621,-0.63531 c 0.16809,-0.469124 0.316416,-0.666718 0.567029,-0.75538 z m -1.830335,-0.04105 c -0.561366,-1.105307 -0.794676,-1.303406 -1.052909,-0.894009 -0.108214,0.171556 -0.05273,0.319001 0.272045,0.723157 0.224393,0.279215 0.407961,0.596784 0.407961,0.705707 0,0.108924 0.07691,0.198043 0.170921,0.198043 0.09398,0 0.27469,0.114708 0.401584,0.254903 0.43606,0.481861 0.362903,0.119784 -0.199602,-0.987801 z m 4.340807,-0.329838 c -0.413993,-0.41398 -0.445346,-0.413996 -0.572293,-2.64e-4 -0.06641,0.216469 -0.01931,0.287173 0.233627,0.350652 0.235426,0.05909 0.358801,0.217908 0.480351,0.618294 l 0.163565,0.538779 0.04009,-0.561004 c 0.03453,-0.483047 -0.01349,-0.614563 -0.345335,-0.946449 z m -7.582984,1.112674 c 0.110543,-0.04242 0.200977,-0.148728 0.200977,-0.236244 0,-0.08751 0.195263,-0.405863 0.433917,-0.707443 0.417168,-0.527195 0.425741,-0.559459 0.222356,-0.837274 -0.196056,-0.267769 -0.223944,-0.273126 -0.380656,-0.0731 -0.230796,0.294595 -0.910934,1.638911 -0.910934,1.8005 0,0.148392 0.141684,0.165862 0.43434,0.05356 z m 6.926342,-2.035604 c 0.01111,-0.657087 -0.195131,-0.836617 -0.902891,-0.785696 l -0.549407,0.03953 v 0.76237 0.762373 l 0.410342,-0.03955 c 0.22569,-0.02175 0.511572,0.01736 0.635317,0.08689 0.279268,0.156946 0.393859,-0.0758 0.406639,-0.825921 z m -5.103046,-0.04732 c 0.145495,-0.232979 0.126895,-0.254124 -0.223546,-0.254124 -0.407061,0 -0.477123,0.108452 -0.229791,0.355772 0.207434,0.207443 0.268923,0.193659 0.453337,-0.101648 z m 0.410687,-1.302385 V 58.695434 H 32.164524 31.46568 v 0.70943 c 0,0.390186 0.03813,0.747548 0.08469,0.794136 0.04659,0.04659 0.361077,0.08471 0.698844,0.08471 h 0.614151 z m 4.163536,0.03176 c -0.08729,-0.139766 -0.200104,-0.254122 -0.250719,-0.254122 -0.05062,0 -0.15322,0.114356 -0.228018,0.254122 -0.122158,0.228254 -0.09665,0.254125 0.250719,0.254125 0.354912,0 0.373671,-0.0209 0.228018,-0.254125 z m -1.155674,-1.09456 c -0.256645,-0.329422 -0.466645,-0.67533 -0.466645,-0.768689 0,-0.09336 -0.06697,-0.16974 -0.148802,-0.16974 -0.08186,0 -0.253391,-0.09463 -0.381185,-0.210286 -0.145203,-0.131389 -0.232384,-0.153866 -0.232384,-0.05991 0,0.162637 0.676857,1.546275 0.990786,2.025391 l 0.192801,0.294254 0.256038,-0.256038 0.256037,-0.256037 z m 2.509732,0.01453 c 0.235294,-0.419307 0.464185,-0.884701 0.508688,-1.034211 0.07969,-0.267867 0.0744,-0.268793 -0.363802,-0.06353 -0.244555,0.114569 -0.446537,0.300508 -0.448813,0.413194 -0.0026,0.112689 -0.175683,0.420735 -0.385313,0.684549 -0.446166,0.561424 -0.443256,0.546711 -0.168195,0.850664 0.24339,0.268944 0.211322,0.300768 0.857435,-0.850664 z m -4.384066,-0.819063 -0.01005,-0.57862 -0.191214,0.540271 c -0.135414,0.38253 -0.280882,0.562766 -0.498237,0.617318 -0.334036,0.08384 -0.340942,0.100267 -0.224684,0.534408 0.07871,0.29387 0.07948,0.29369 0.506518,-0.120221 0.367136,-0.355841 0.426271,-0.496469 0.417672,-0.993156 z m -2.662159,1.016874 c 0.110861,-0.207139 0.07636,-0.273642 -0.214259,-0.412951 -0.223467,-0.107116 -0.425768,-0.368987 -0.569939,-0.73783 l -0.223546,-0.571778 0.07715,0.698839 c 0.04882,0.441994 0.172799,0.803915 0.33737,0.984731 0.318532,0.349975 0.423122,0.356849 0.593222,0.03899 z M 16.726483,52.215261 v -1.715336 h 0.952976 c 0.762371,0 0.95295,0.03812 0.95295,0.190593 0,0.146315 -0.162348,0.190595 -0.698818,0.190595 h -0.698843 v 0.508246 0.508249 h 0.635291 c 0.480033,0 0.635317,0.04659 0.635317,0.190593 0,0.144004 -0.155284,0.190592 -0.635317,0.190592 h -0.635291 v 0.571778 0.57178 h 0.685244 c 0.470667,0 0.706649,0.05579 0.753613,0.178171 0.109458,0.285266 -0.02836,0.330076 -1.015312,0.330076 h -0.93181 z" />
      <path
         style="fill:#ff0000;stroke:#000000;stroke-width:0.0119324"
         d="m 138.69005,227.10084 c -1.05754,0.0887 -2.8036,-0.42505 -2.20982,1.28553 0.0184,1.4368 -0.0365,2.90392 0.0266,4.32223 1.49838,-0.0331 3.05109,-0.0583 4.45089,0.41997 1.10257,-0.62911 0.70485,-2.30336 0.82082,-3.35832 0.13741,-1.20923 -0.42906,-2.70869 -1.87283,-2.62513 -0.40371,-0.0413 -0.81014,-0.047 -1.21562,-0.0443 z"
         id="path2297"
         transform="scale(0.26458333)" class="OC" />
      <path
         style="fill:none;stroke:#000000;stroke-width:0.0241256"
         d="m 120.37539,233.29541 c -2.50233,3.22481 -3.75468,7.28658 -6.75045,10.15537 -0.67335,3.1178 -4.27028,5.19895 -4.04386,8.54103 1.44036,4.98192 5.31313,8.73718 7.30082,13.483 0.90209,2.31988 2.33802,-1.26327 3.53213,-1.58796 2.06074,-1.4243 2.91929,1.67465 4.46512,2.11665 2.39369,-1.16302 1.51787,-6.02489 4.70826,-5.90323 3.38452,-0.48282 4.99408,2.96854 5.9513,5.58846 0.93145,1.54124 1.74266,3.99097 3.61789,4.49999 3.54337,-2.55564 3.63015,-7.50355 6.88051,-10.33065 1.19618,-1.61173 1.71531,-3.56771 3.45203,-4.79873 3.17357,-3.53929 -0.62464,-8.022 -2.35335,-11.2686 -1.68598,-2.35906 -2.47425,-5.43894 -4.31983,-7.58423 -1.71388,0.52865 -3.12205,3.77585 -5.11066,1.95266 -1.58503,-1.48034 -3.13409,-3.62811 -3.60282,-0.0141 -0.65123,1.92108 -1.66111,4.60436 -4.23989,3.94868 -4.18835,-0.57735 -3.94608,-5.91762 -6.50919,-8.37799 -1.54632,-1.48393 -1.23647,-2.86617 -2.97801,-0.42032 z"
         id="path2313"
         transform="scale(0.26458333)" />
      <path
         style="fill:none;stroke:#000000;stroke-width:0.0241256"
         d="m 120.55445,233.32934 c -2.61045,3.02999 -3.74955,7.08867 -6.74574,9.83778 -0.83039,2.84313 -3.39528,4.85453 -4.12585,7.73903 0.0802,4.71952 4.17431,8.17244 6.00109,12.29171 0.77596,0.72858 0.93152,3.2333 2.20726,3.05537 1.17324,-1.28567 2.89265,-3.89065 4.86564,-2.21748 0.79569,0.52783 2.00276,3.17352 2.80743,1.37309 1.3857,-1.78753 1.42468,-5.85615 4.51224,-5.29821 4.1164,-0.14486 4.68866,4.76376 6.48658,7.40449 0.61859,1.34731 2.48227,3.26715 3.71968,1.38345 2.65124,-2.57169 2.81374,-6.64083 5.7449,-9.03108 1.19585,-1.65259 1.78714,-3.58164 3.46806,-4.90899 2.96249,-2.92723 -0.0509,-6.91156 -1.58574,-9.69196 -1.98861,-2.83044 -3.05097,-6.37463 -5.08838,-9.06003 -1.71917,0.52006 -3.12487,3.77863 -5.11632,1.95266 -1.58503,-1.48034 -3.13409,-3.62811 -3.60282,-0.0141 -0.63857,1.91611 -1.67735,4.60902 -4.22763,3.95716 -4.34988,-0.69962 -4.20788,-6.36266 -6.97287,-8.95097 -0.98979,-1.80022 -1.27102,-0.82316 -2.34753,0.17811 z"
         id="path2314"
         transform="scale(0.26458333)" />
      <path
         style="fill:#ff0000;stroke:#000000;stroke-width:0.00318714"
         d="m 131.0846,216.0619 c -0.24293,0.0532 -0.0591,0.4138 -0.0381,0.57194 0.77967,2.08865 1.84496,4.05895 2.9058,6.0156 0.45682,0.79209 0.91653,1.63146 1.47029,2.33333 0.59607,-0.64794 1.31106,-1.20321 1.8275,-1.91676 0.001,-0.23339 -0.3053,-0.37082 -0.39505,-0.57686 -1.01519,-1.38366 -2.19078,-2.67662 -2.93725,-4.23447 -0.1384,-0.33406 -0.11514,-0.84642 -0.5565,-0.9427 -0.86268,-0.11145 -1.42996,-0.82616 -2.15045,-1.22331 -0.0401,-0.0158 -0.0824,-0.0308 -0.12624,-0.0268 z"
         id="path2327"
         transform="scale(0.26458333)" class="OC" />
      <path
         style="fill:#ff0000;stroke:#000000;stroke-width:0.00318714"
         d="m 139.00563,224.03012 c -0.46699,0.14073 -0.67056,0.6738 -0.9173,1.05026 -0.16536,0.23667 -0.28948,0.72615 0.11641,0.78981 0.61814,0.0543 1.2614,0.0773 1.87369,-0.0339 0.34293,-0.13801 0.0425,-0.51293 -0.059,-0.71698 -0.27465,-0.39586 -0.54584,-0.88114 -0.99585,-1.08998 z"
         id="path2328"
         transform="scale(0.26458333)" class="OC" />
      <path
         style="fill:#ff0000;stroke:#000000;stroke-width:0.00318714"
         d="m 146.95418,216.20246 c -0.75644,0.19548 -1.45073,0.60488 -2.1187,1.00314 -0.59076,0.34344 -0.92019,0.9737 -1.08438,1.61019 -0.61456,1.44904 -1.82449,2.53037 -2.57174,3.89988 -0.23975,0.53825 0.32996,0.96581 0.62081,1.3417 0.25148,0.21074 0.49421,0.67566 0.88038,0.5732 0.59155,-0.45748 0.87558,-1.20109 1.27462,-1.81516 1.11168,-1.98061 2.27944,-3.95053 3.08763,-6.07974 0.0348,-0.1475 0.21071,-0.54663 -0.0886,-0.53321 z"
         id="path2329"
         transform="scale(0.26458333)" class="OC" />
      <path
         style="fill:#ff0000;stroke:#000000;stroke-width:0.00318714"
         d="m 142.90589,232.27696 c -0.39248,0.11557 -0.42856,0.63671 -0.57007,0.95863 -0.11807,0.39234 -0.32945,1.00756 0.15026,1.25058 0.63882,0.3034 1.44005,0.4358 1.82165,1.10554 0.61666,1.03475 0.84303,2.24 1.22357,3.37002 0.13766,-0.26449 0.0788,-0.72178 0.1351,-1.06423 0.0185,-1.03993 0.25649,-2.15953 -0.1981,-3.14067 -0.51184,-0.88326 -1.30797,-1.56073 -2.05745,-2.23735 -0.14878,-0.10926 -0.30995,-0.246 -0.50496,-0.24252 z"
         id="path2330"
         transform="scale(0.26458333)" class="OC" />
      <path
         style="fill:#ff0000;stroke:#000000;stroke-width:0.00318714"
         d="m 135.24942,232.26239 c -0.55761,0.17272 -0.93144,0.69269 -1.34164,1.08103 -0.77474,0.77484 -1.32858,1.76157 -1.50923,2.84799 -0.18739,1.15277 -0.326,2.32212 -0.40213,3.48456 0.15751,-0.003 0.15633,-0.33374 0.24311,-0.44883 0.51089,-1.25812 0.8098,-2.66655 1.69731,-3.72793 0.5002,-0.62098 1.39944,-0.65786 1.9251,-1.23552 0.30842,-0.44945 -0.0362,-1.00922 -0.15973,-1.46484 -0.0948,-0.1944 -0.18611,-0.5319 -0.45279,-0.53646 z"
         id="path2331"
         transform="scale(0.26458333)" class="OC" />
      <path
         style="fill:#ff6600;stroke:#000000;stroke-width:0.00497362"
         d="m 118.94251,221.92282 c 0.0493,1.81961 -0.12855,3.68456 0.28365,5.47118 0.31929,0.39143 0.97052,0.28309 1.42513,0.36057 1.16817,0.047 2.36556,0.0853 3.51663,0.0371 -0.0178,-1.96136 0.0354,-3.95214 -0.0264,-5.89529 -1.72918,0.0176 -3.48812,-0.0352 -5.19899,0.0264 z"
         id="path2502"
         transform="scale(0.26458333)" class="OR" />
      <path
         style="fill:#ff6600;stroke:#000000;stroke-width:0.00497362"
         d="m 114.80586,215.94885 c -0.042,1.01519 0.19424,2.06897 0.3505,3.08359 0.20383,1.19805 0.79328,2.31655 1.76096,3.07029 0.3102,0.35952 0.93572,0.49463 1.19444,-5.9e-4 0.32172,-0.44206 0.76201,-1.19696 0.16864,-1.61895 -0.69301,-0.45418 -1.49539,-0.80497 -1.93695,-1.55388 -0.68828,-0.89349 -0.95007,-2.02714 -1.50845,-2.98046 -0.009,-0.004 -0.0199,-0.004 -0.0291,0 z"
         id="path2503"
         transform="scale(0.26458333)" class="OR" />
      <path
         style="fill:#ff6600;stroke:#000000;stroke-width:0.00497362"
         d="m 127.90183,217.22722 c -0.41223,1.09949 -0.85947,2.48705 -2.16139,2.78873 -0.41254,0.11953 -1.06727,0.2887 -0.92614,0.86533 0.1187,0.61767 0.13849,1.35553 0.56419,1.84548 0.39194,-0.0334 0.66756,-0.50325 0.99123,-0.71379 0.92781,-0.86628 2.08466,-1.83422 2.02131,-3.23305 0.0411,-0.95764 0.0366,-1.91657 0.0561,-2.87479 -0.24077,0.30819 -0.3595,0.91743 -0.54534,1.32209 z"
         id="path2504"
         transform="scale(0.26458333)" class="OR" />
      <path
         style="fill:#ff6600;stroke:#000000;stroke-width:0.00497362"
         d="m 121.58591,228.86121 c -0.39423,-0.0313 -1.22402,0.0397 -1.09652,0.61937 0.28394,0.46815 0.70011,1.03977 1.28303,1.10994 0.62561,-0.18359 0.89242,-0.92061 1.14296,-1.461 0.10033,-0.35087 -0.48635,-0.19906 -0.66774,-0.26228 -0.22047,-0.009 -0.44113,-0.008 -0.66173,-0.006 z"
         id="path2505"
         transform="scale(0.26458333)" class="OR" />
      <path
         style="fill:#ff6600;stroke:#000000;stroke-width:0.00497362"
         d="m 118.15897,230.15377 c -0.73757,0.41876 -1.07055,1.30634 -1.50898,1.99703 -0.87507,1.70682 -1.89201,3.37534 -2.46408,5.21375 -0.12866,0.35013 0.21708,0.57182 0.53563,0.48997 0.76568,-0.0379 1.66375,-0.36641 1.82043,-1.21756 0.63731,-1.67726 2.08846,-2.88082 2.85691,-4.48072 0.2242,-0.7232 -0.49487,-1.30157 -0.90535,-1.79925 -0.0974,-0.0777 -0.1983,-0.2048 -0.33456,-0.20322 z"
         id="path2506"
         transform="scale(0.26458333)" class="OR" />
      <path
         style="fill:#ff6600;stroke:#000000;stroke-width:0.00497362"
         d="m 124.96836,230.57731 c -0.92069,0.22897 -1.3841,1.45701 -0.75994,2.20871 0.89131,1.38479 2.13274,2.61717 2.52888,4.26107 0.23239,0.56356 0.93527,0.3212 1.30247,0.72156 0.61721,0.38979 1.0567,1.08897 1.71123,1.38232 0.19017,-0.37785 -0.17097,-0.84965 -0.26248,-1.23079 -0.98555,-2.23708 -2.02157,-4.48066 -3.41139,-6.4995 -0.2847,-0.35354 -0.62148,-0.80132 -1.10877,-0.84337 z"
         id="path2507"
         transform="scale(0.26458333)" class="OR" />
      <path
         style="fill:#ffff00;stroke:#000000;stroke-width:0.00497362"
         d="m 88.541081,252.06003 c -0.87531,0.0687 -1.946018,0.22671 -2.472044,1.00949 -0.401352,1.07983 -0.220832,2.27721 -0.211767,3.40557 0.0062,0.70578 0.291088,1.59283 1.111681,1.67082 1.408999,0.10675 2.852213,0.22673 4.252443,-0.014 -5.05e-4,-1.62157 0.114376,-3.28858 -0.08179,-4.91378 -0.120679,-0.88047 -1.176487,-0.95478 -1.863553,-1.1113 -0.243058,-0.0365 -0.489215,-0.0522 -0.734968,-0.0468 z"
         id="path2508"
         transform="scale(0.26458333)" class="T" />
      <path
         style="fill:#ffff00;stroke:#000000;stroke-width:0.00497362"
         d="m 80.752123,241.19967 c -0.258637,0.19913 0.07748,0.63502 0.109668,0.88435 1.010548,2.49844 2.24142,4.92111 3.703755,7.18562 0.203896,0.37058 0.740833,0.75682 1.090254,0.32515 0.437101,-0.54608 1.048492,-1.30998 0.591782,-2.02578 -1.026449,-1.90931 -2.480037,-3.55826 -3.932499,-5.15406 -0.471105,-0.43588 -0.938437,-1.01774 -1.56296,-1.21528 z"
         id="path2509"
         transform="scale(0.26458333)" class="T" />
      <path
         style="fill:#ffff00;stroke:#000000;stroke-width:0.00497362"
         d="m 88.680187,249.55069 c -0.60382,0.16349 -1.080919,0.71488 -1.360362,1.25331 -0.04991,0.53123 0.731398,0.48119 1.078282,0.54947 0.451208,-0.015 1.107838,0.13737 1.424263,-0.26019 -0.12373,-0.57186 -0.421342,-1.22663 -0.957615,-1.51967 -0.05917,-0.0199 -0.122317,-0.0277 -0.184568,-0.0229 z"
         id="path2510"
         transform="scale(0.26458333)" class="T" />
      <path
         style="fill:#ffff00;stroke:#000000;stroke-width:0.00497362"
         d="m 96.481578,241.29565 c -1.033761,0.4252 -1.89999,1.21893 -2.646897,2.03918 -0.636564,0.95404 -1.179433,1.97628 -1.919835,2.86356 -0.441818,0.68941 -1.331933,1.48914 -0.89803,2.38769 0.242871,0.49409 0.662519,1.17095 1.282455,1.13402 1.081125,-1.2898 1.798387,-2.85086 2.635751,-4.30407 0.616132,-1.27252 1.431987,-2.49369 1.766095,-3.87811 0.04067,-0.1591 -0.05102,-0.27794 -0.219539,-0.24227 z"
         id="path2511"
         transform="scale(0.26458333)" class="T" />
      <path
         style="fill:#ffff00;stroke:#000000;stroke-width:0.00497362"
         d="m 92.229329,257.30972 c -0.274456,0.50919 -0.343299,1.17068 -0.325616,1.75282 0.316154,0.98067 1.564303,1.12047 2.064634,1.97429 0.619388,0.74329 0.745768,1.74071 1.121784,2.58881 0.213709,-0.34615 0.114595,-0.90212 0.189813,-1.31665 -0.02404,-0.9065 0.256308,-1.94052 -0.252761,-2.75609 -0.790808,-0.88998 -1.761275,-1.64648 -2.785225,-2.24395 z"
         id="path2512"
         transform="scale(0.26458333)" class="T" />
      <path
         style="fill:#ffff00;stroke:#000000;stroke-width:0.00497362"
         d="m 84.9253,257.50906 c -0.903523,0.37769 -1.582185,1.17133 -2.22581,1.88845 -0.95025,1.27864 -0.831832,2.97857 -0.948757,4.4871 -0.05224,0.15607 0.03071,0.50639 0.177573,0.2209 0.752537,-1.34214 0.899101,-3.20552 2.419199,-3.97209 0.499208,-0.30573 1.473419,-0.4844 1.303632,-1.26944 -0.156433,-0.45976 -0.239644,-1.07689 -0.675713,-1.35453 -0.01658,-0.003 -0.03349,-0.002 -0.05012,-3.9e-4 z"
         id="path2513"
         transform="scale(0.26458333)" class="T" />
      <path
         style="fill:#00ff00;stroke:#000000;stroke-width:0.00497362"
         d="m 102.1857,255.39313 c -0.7356,0.43984 -1.11383,1.30799 -1.60375,1.98509 -1.241368,2.04249 -2.485004,4.16478 -3.024633,6.51222 0.07134,0.3636 0.501981,-0.20787 0.67372,-0.2163 0.834373,-0.57231 1.809293,-1.09629 2.359213,-1.96995 0.34312,-1.1747 1.21962,-2.11677 1.89455,-3.1152 0.45929,-0.65496 1.26419,-1.56083 0.66395,-2.37948 -0.25862,-0.29221 -0.55545,-0.75092 -0.96305,-0.81638 z"
         id="path2514"
         transform="scale(0.26458333)" class="IR" />
      <path
         style="fill:#00ff00;stroke:#000000;stroke-width:0.00497362"
         d="m 105.11216,253.82975 c -0.23869,0.008 -0.92591,-0.0539 -0.71282,0.37535 0.27857,0.49437 0.51256,1.13674 1.03786,1.40951 0.56551,0.008 0.92545,-0.61442 1.25759,-0.99861 0.28495,-0.25926 0.0852,-0.65818 -0.26598,-0.68853 -0.42894,-0.10884 -0.87757,-0.0977 -1.31665,-0.0977 z"
         id="path2515"
         transform="scale(0.26458333)" class="IR" />
      <path
         style="fill:#00ff00;stroke:#000000;stroke-width:0.00497362"
         d="m 103.38344,246.36757 c -0.30818,0.46927 -0.15248,1.15224 -0.23333,1.69705 -0.0233,1.58649 -0.0533,3.20438 0.004,4.77079 1.62776,-0.10622 3.28733,-0.18359 4.89901,-0.2751 -0.0179,-1.8807 0.0354,-3.7909 -0.0264,-5.65341 -1.25896,-0.0632 -2.55998,0.13818 -3.79608,-0.10763 -0.29325,-0.11853 -0.5511,-0.32738 -0.84746,-0.4317 z"
         id="path2516"
         transform="scale(0.26458333)" class="IR" />
      <path
         style="fill:#00ff00;stroke:#000000;stroke-width:0.00497362"
         d="m 98.898834,240.9712 c 0.07204,1.30403 -0.28812,2.71977 0.284234,3.94975 0.623075,1.05602 1.488872,2.00712 2.517312,2.67681 0.45577,0.0411 0.5093,-0.6312 0.64404,-0.94207 0.12654,-0.42551 0.40251,-1.08268 -0.16805,-1.31879 -0.76644,-0.43506 -1.7428,-0.67416 -2.12234,-1.56163 -0.513244,-0.87129 -0.744074,-1.96116 -1.155196,-2.80407 z"
         id="path2517"
         transform="scale(0.26458333)" class="IR" />
      <path
         style="fill:#00ff00;stroke:#000000;stroke-width:0.00497362"
         d="m 108.52589,255.66066 c -0.3047,0.46155 -1.01196,1.03681 -0.56944,1.63041 0.90707,1.36076 1.98338,2.61913 2.66769,4.11936 0.6812,1.03005 1.73596,1.80044 2.85536,2.27796 -0.21443,-0.70816 -0.81569,-1.32137 -1.03318,-2.06207 -0.33832,-1.18897 -0.6403,-2.39714 -1.2679,-3.47827 -0.60557,-1.14583 -1.23664,-2.33319 -1.93407,-3.391 -0.23949,0.30121 -0.47897,0.60241 -0.71846,0.90361 z"
         id="path2518"
         transform="scale(0.26458333)" class="IR" />
      <path
         style="fill:#00ff00;stroke:#000000;stroke-width:0.00497362"
         d="m 112.23085,241.40969 c -0.55303,1.3505 -1.14748,2.85663 -2.53647,3.55007 -0.43387,0.27033 -1.21753,0.63803 -0.94118,1.28094 0.19488,0.46794 0.50242,1.31674 1.15365,1.13675 1.07615,-0.59415 1.84739,-1.68824 2.11009,-2.88684 0.32843,-1.21125 0.43624,-2.4674 0.51369,-3.71583 -0.15302,0.0559 -0.19892,0.47406 -0.29978,0.63491 z"
         id="path2519"
         transform="scale(0.26458333)" class="IR" />
      <path
         style="fill:#808080;stroke:#000000;stroke-width:0.00497362"
         d="m 147.17265,239.73012 c -0.18491,0.17225 0.25999,0.44091 0.33378,0.59509 0.35806,0.3731 0.53366,0.95391 0.21215,1.4033 0.0703,1.05114 0.7041,1.9823 1.15132,2.91345 0.6437,1.07473 1.19565,2.27626 2.16041,3.10288 0.45503,0.22791 0.83585,-0.37747 1.07652,-0.68524 0.47509,-0.57245 0.27611,-1.36735 -0.1836,-1.88006 -0.84511,-1.02558 -1.46735,-2.19689 -2.14876,-3.32747 -0.64227,-0.91908 -1.567,-1.66938 -2.58531,-2.12214 l -0.004,-2e-4 z"
         id="path2520"
         transform="scale(0.26458333)" class="OF" />
      <path
         style="fill:#808080;stroke:#000000;stroke-width:0.00497362"
         d="m 154.61948,247.36249 c -0.60519,0.43396 -1.01939,1.14405 -1.30849,1.82372 -0.005,0.33354 0.57243,0.14349 0.76722,0.21274 0.56112,-0.0697 1.26311,0.0925 1.73396,-0.27296 0.0743,-0.43211 -0.38275,-0.80613 -0.57896,-1.16278 -0.18763,-0.19636 -0.34074,-0.52128 -0.61373,-0.60072 z"
         id="path2521"
         transform="scale(0.26458333)" class="OF" />
      <path
         style="fill:#808080;stroke:#000000;stroke-width:0.00497362"
         d="m 162.87646,239.12765 c -0.9933,0.53797 -2.02549,1.08956 -2.84448,1.8789 -0.61756,0.96104 -1.11889,2.00385 -1.85675,2.89014 -0.47852,0.78941 -1.29464,1.48413 -1.41671,2.43844 0.13619,0.63295 0.74334,1.0608 1.20902,1.46216 0.47568,-0.0401 0.7158,-0.64558 1.01865,-0.95821 1.62912,-2.35158 2.907,-4.94283 3.92835,-7.60962 0.01,-0.0342 0.0235,-0.11199 -0.0381,-0.10181 z"
         id="path2522"
         transform="scale(0.26458333)" class="OF" />
      <path
         style="fill:#808080;stroke:#000000;stroke-width:0.00497362"
         d="m 152.06681,250.47139 c 0.0178,1.96136 -0.0354,3.95214 0.0264,5.89529 1.72934,-0.0176 3.48789,0.0353 5.19898,-0.0264 -0.0178,-1.96136 0.0354,-3.95214 -0.0264,-5.89529 -1.72918,0.0176 -3.48811,-0.0352 -5.19898,0.0264 z"
         id="path2523"
         transform="scale(0.26458333)" class="OF" />
      <path
         style="fill:#808080;stroke:#000000;stroke-width:0.00497362"
         d="m 149.61516,256.54076 c -0.83941,0.84886 -1.89487,1.79135 -1.78156,3.10851 -0.0246,0.93586 -0.0301,1.87212 -0.046,2.80815 0.65864,-1.22859 0.85007,-2.987 2.08795,-3.92683 0.50058,-0.46911 1.33173,-0.53768 1.69705,-1.1381 0.0769,-0.73998 -0.47966,-1.38571 -0.6862,-2.06677 -0.44486,0.32449 -0.84595,0.82535 -1.27119,1.21504 z"
         id="path2524"
         transform="scale(0.26458333)" class="OF" />
      <path
         style="fill:#808080;stroke:#000000;stroke-width:0.00497362"
         d="m 158.65724,255.83512 c -0.58997,0.17555 -0.88263,0.87519 -0.98365,1.43594 0.14421,0.6706 0.9951,0.78553 1.45012,1.19134 1.37756,1.01349 1.60236,2.85626 2.38034,4.26798 0.17781,-0.27435 -0.002,-0.75236 0.0225,-1.08933 -0.16449,-2.01523 -0.55641,-4.33052 -2.28612,-5.62039 -0.17063,-0.1138 -0.37228,-0.21196 -0.58323,-0.18554 z"
         id="path2525"
         transform="scale(0.26458333)" class="OF" />
      <path
         style="fill:#0000ff;stroke:#000000;stroke-width:0.00497362"
         d="m 118.4162,269.37172 c 0.10905,1.83369 -0.0486,3.70399 0.30211,5.51353 0.18257,0.46014 0.84818,0.30839 1.23797,0.40585 1.23369,0.0597 2.49718,0.0956 3.71428,0.0484 -0.0162,-1.95236 0.032,-3.92948 -0.0239,-5.86654 -1.73295,-0.16835 -3.50988,-0.14233 -5.23046,-0.10122 z"
         id="path2526"
         transform="scale(0.26458333)" class="IC" />
      <path
         style="fill:#0000ff;stroke:#000000;stroke-width:0.00497362"
         d="m 114.31394,263.21823 c -0.0359,1.05054 0.1992,2.14414 0.32596,3.20168 0.14526,1.64253 1.46076,2.92595 2.88241,3.5976 0.41767,0.21183 0.38345,-0.50899 0.49018,-0.72856 0.0216,-0.40376 0.30164,-0.92158 0.0505,-1.28362 -0.80394,-0.61541 -1.93318,-0.8777 -2.37043,-1.8855 -0.58813,-0.90042 -0.84689,-1.99924 -1.37863,-2.9016 z"
         id="path2527"
         transform="scale(0.26458333)" class="IC" />
      <path
         style="fill:#0000ff;stroke:#000000;stroke-width:0.00497362"
         d="m 121.1072,276.3954 c -0.27173,0.0734 -0.83571,-0.0878 -0.94421,0.25237 0.13981,0.62558 0.52742,1.29206 1.09556,1.60127 0.55688,-0.36063 0.96477,-0.9891 1.18667,-1.60962 -0.0858,-0.30962 -0.60226,-0.17508 -0.84524,-0.24054 -0.16413,-0.008 -0.32855,-0.007 -0.49278,-0.003 z"
         id="path2528"
         transform="scale(0.26458333)" class="IC" />
      <path
         style="fill:#0000ff;stroke:#000000;stroke-width:0.00497362"
         d="m 127.88803,263.57687 c -0.61774,1.20661 -0.75126,2.81225 -1.92689,3.66591 -0.46866,0.38752 -1.27703,0.28879 -1.61953,0.82239 -0.0533,0.71431 0.15999,1.45645 0.43441,2.11126 0.24794,0.32408 0.57032,-0.22451 0.79287,-0.32892 0.84318,-0.82175 1.93142,-1.58975 2.24046,-2.78503 0.16848,-1.14548 0.13771,-2.31838 0.10685,-3.47123 l -0.0258,-0.0146 z"
         id="path2529"
         transform="scale(0.26458333)" class="IC" />
      <path
         style="fill:#0000ff;stroke:#000000;stroke-width:0.00497362"
         d="m 117.32531,278.04369 c -1.55218,2.38895 -2.9587,4.89471 -4.02688,7.53891 -0.17682,0.25085 -0.11143,0.73372 0.2852,0.60791 1.27835,-0.70348 2.25491,-1.8575 3.18973,-2.95658 0.7734,-1.11859 1.63544,-2.22183 2.12525,-3.4996 0.17324,-0.92576 -0.66516,-1.64277 -1.03766,-2.40269 -0.21277,0.15599 -0.35387,0.49279 -0.53564,0.71205 z"
         id="path2530"
         transform="scale(0.26458333)" class="IC" />
      <path
         style="fill:#0000ff;stroke:#000000;stroke-width:0.00497362"
         d="m 124.4473,278.11324 c -0.51452,0.21728 -1.02957,0.77855 -1.01629,1.36405 0.55369,1.56148 1.91673,2.68186 2.5272,4.21998 0.24841,0.44343 0.19843,1.19018 0.84747,1.27434 1.01401,0.2461 1.55279,1.28238 2.44096,1.71995 0.25659,-0.18813 -0.0754,-0.62361 -0.10487,-0.8647 -0.95636,-2.2957 -2.0212,-4.5694 -3.38909,-6.65129 -0.33409,-0.43976 -0.72166,-0.97231 -1.30538,-1.06233 z"
         id="path2531"
         transform="scale(0.26458333)" class="IC" />
      <path
         style="fill:#ff00ff;stroke:#000000;stroke-width:0.00497362"
         d="m 131.18228,263.72647 c -0.38239,0.10022 -0.0159,0.61923 0.0202,0.84959 1.11745,2.65776 2.44864,5.23906 4.03099,7.65063 0.12822,0.2858 0.36519,0.38868 0.50144,-0.002 0.38647,-0.57199 1.03534,-1.07068 1.13558,-1.78526 -0.28737,-0.90581 -1.09193,-1.54736 -1.5771,-2.35005 -0.81333,-1.0219 -1.1844,-2.35211 -2.23678,-3.18461 -0.55582,-0.45164 -1.14044,-1.05868 -1.8743,-1.17875 z"
         id="path2532"
         transform="scale(0.26458333)" class="IF" />
      <path
         style="fill:#ff00ff;stroke:#000000;stroke-width:0.00497362"
         d="m 138.93141,271.5943 c -0.4806,0.32519 -0.78806,0.928 -0.96967,1.47266 0.1353,0.53452 0.87628,0.33367 1.27502,0.37079 0.29029,-0.0791 0.82179,0.088 0.97885,-0.22683 -0.16617,-0.65335 -0.64662,-1.28855 -1.23816,-1.6137 -0.0152,-0.002 -0.0306,-0.004 -0.046,-0.003 z"
         id="path2533"
         transform="scale(0.26458333)" class="IF" />
      <path
         style="fill:#ff00ff;stroke:#000000;stroke-width:0.00497362"
         d="m 145.13968,264.67398 c -0.6151,0.0337 -1.27708,0.48624 -1.25875,1.1484 -0.60395,1.61434 -1.93435,2.81324 -2.72208,4.3185 -0.13368,0.69519 0.50764,1.26578 0.9308,1.73319 0.25772,0.35288 0.73375,0.24341 0.92381,-0.11754 1.1313,-1.5968 2.13217,-3.30786 2.88295,-5.11661 0.0999,-0.57899 0.40217,-1.41084 -0.20555,-1.80915 -0.15867,-0.11439 -0.35659,-0.16713 -0.55118,-0.15679 z"
         id="path2534"
         transform="scale(0.26458333)" class="IF" />
      <path
         style="fill:#ff00ff;stroke:#000000;stroke-width:0.00497362"
         d="m 139.33027,274.5369 c -0.93084,0.0585 -1.92652,0.0161 -2.81845,0.21371 -0.17583,1.87003 -0.4181,3.81599 0.0583,5.65963 0.0679,0.28083 0.34434,0.5811 0.6355,0.33688 0.74451,-0.44857 1.63747,-0.67238 2.48137,-0.3705 0.53809,0.0914 1.19591,0.55738 1.71395,0.21585 0.58275,-1.22823 0.50312,-2.65988 0.49018,-3.98938 -0.037,-0.73229 -0.0982,-1.79221 -1.00522,-1.95195 -0.50776,-0.12467 -1.03624,-0.11765 -1.55561,-0.11424 z"
         id="path2535"
         transform="scale(0.26458333)" class="IF" />
      <path
         style="fill:#ff00ff;stroke:#000000;stroke-width:0.00497362"
         d="m 135.31116,279.79048 c -0.91203,0.4317 -1.55854,1.29565 -2.16066,2.08377 -0.89793,1.44153 -0.86797,3.21305 -1.06967,4.84529 -0.068,0.27634 0.16008,0.19547 0.17388,-0.0268 0.6115,-1.30587 0.80035,-2.9441 1.98789,-3.887 0.5203,-0.44856 1.50945,-0.43345 1.72892,-1.17657 -0.003,-0.64408 -0.25517,-1.31594 -0.62015,-1.83596 -0.0128,-0.005 -0.0269,-0.004 -0.0402,-0.003 z"
         id="path2536"
         transform="scale(0.26458333)" class="IF" />
      <path
         style="fill:#ff00ff;stroke:#000000;stroke-width:0.00497362"
         d="m 142.89145,279.76444 c -0.40246,0.48164 -0.67405,1.14689 -0.64987,1.77418 0.55993,1.0018 1.84575,1.31526 2.41065,2.32634 0.4797,0.63175 0.5383,1.45893 0.84571,2.15789 0.23312,-0.0629 0.0815,-0.56462 0.1562,-0.76664 -0.0493,-1.02382 0.2821,-2.18648 -0.30327,-3.10676 -0.69956,-0.88159 -1.4501,-1.86818 -2.45942,-2.38501 z"
         id="path2537"
         transform="scale(0.26458333)" class="IF" />
    </g>
    <path
       style="fill:#ffffff;fill-opacity:1;stroke:#000000;stroke-width:0.0064821;stroke-opacity:0"
       d="m 163.79095,238.91821 c 0.003,2.30585 0.33862,4.97955 2.27861,6.53071 0.29774,0.30806 1.03657,0.91179 1.30756,0.25371 0.40717,-0.82526 0.15659,-1.85416 -0.63251,-2.35128 -1.55912,-1.00174 -2.18202,-2.84438 -2.86453,-4.4534 z"
       id="path61"
       transform="scale(0.26458333)" class="P" />
    <path
       style="fill:#ffffff;fill-opacity:1;stroke:#000000;stroke-width:0.0064821;stroke-opacity:0"
       d="m 172.73017,244.93921 c -1.06824,0.25012 -2.21095,0.5559 -3.27751,0.10382 -0.54,-0.21469 -1.3962,-0.13977 -1.43695,0.59402 -0.11225,1.54417 -0.18608,3.15947 0.22941,4.66585 0.44645,1.1817 1.97124,1.07775 3.00809,1.06752 0.9417,-0.0245 2.13579,-0.40411 2.23962,-1.50329 0.2366,-1.49921 0.35851,-3.12635 -0.16484,-4.57672 -0.10418,-0.23366 -0.34049,-0.38054 -0.59782,-0.3512 z"
       id="path62"
       transform="scale(0.26458333)" class="P" />
    <path
       style="fill:#ffffff;fill-opacity:1;stroke:#000000;stroke-width:0.0064821;stroke-opacity:0"
       d="m 177.24054,239.61047 c -0.38439,1.39774 -1.08102,2.75462 -2.31355,3.57681 -0.36607,0.43854 -1.39441,0.57637 -1.08803,1.33668 0.0972,0.4997 0.25507,1.44408 0.97991,1.18323 0.97766,-0.47154 1.8709,-1.26606 2.37635,-2.23379 0.40063,-1.25401 0.2264,-2.63334 0.19776,-3.91179 l -0.0904,-0.0132 z"
       id="path63"
       transform="scale(0.26458333)" class="P" />
    <path
       style="fill:#ffffff;fill-opacity:1;stroke:#000000;stroke-width:0.0064821;stroke-opacity:0"
       d="m 170.59488,251.79935 c -0.40073,0.009 -1.3431,0.0238 -1.17868,0.64542 0.36059,0.60041 0.66882,1.37946 1.30376,1.72358 0.61927,-0.12488 0.8917,-0.87472 1.25464,-1.3306 0.33466,-0.40307 0.0402,-0.97274 -0.47147,-0.97459 -0.29897,-0.0567 -0.60463,-0.0689 -0.90825,-0.0638 z"
       id="path64"
       transform="scale(0.26458333)" class="P" />
    <path
       style="fill:#ffffff;fill-opacity:1;stroke:#000000;stroke-width:0.0064821;stroke-opacity:0"
       d="m 167.22115,253.52926 c -0.92218,0.53593 -1.28597,1.68144 -1.84958,2.54176 -0.98594,1.91059 -2.10615,3.79246 -2.74157,5.85433 -0.0608,0.51174 0.581,0.17199 0.74747,-0.0253 0.52921,-0.51728 1.25591,-0.69553 1.85271,-1.08094 0.81109,-1.03926 1.24829,-2.33135 2.08759,-3.36404 0.46353,-0.74856 1.17196,-1.41153 1.43958,-2.2526 -0.30804,-0.65446 -0.76672,-1.43087 -1.48404,-1.67623 h -0.016 z"
       id="path65"
       transform="scale(0.26458333)" class="P" />
    <path
       style="fill:#ffffff;fill-opacity:1;stroke:#000000;stroke-width:0.0064821;stroke-opacity:0"
       d="m 173.50194,254.11037 c -0.24509,0.37912 -0.91571,0.67494 -0.88242,1.15538 1.07023,1.56405 2.5246,2.95163 3.05317,4.81726 0.66352,0.97723 1.97405,1.16829 2.72071,2.07453 0.35454,0.34579 0.6177,-0.17871 0.44311,-0.49654 -0.68733,-2.3297 -2.0579,-4.38682 -3.18775,-6.5188 -0.43484,-0.61074 -0.68919,-1.50094 -1.25755,-1.91451 -0.29642,0.29423 -0.59284,0.58845 -0.88927,0.88268 z"
       id="path66"
       transform="scale(0.26458333)" class="P" />
  </g>
</svg>
