<?xml version="1.0" encoding="UTF-8" standalone="no"?>
<!-- Created with Inkscape (http://www.inkscape.org/) -->

<svg
   width="33.032024mm"
   height="35.069134mm"
   viewBox="0 0 33.032024 35.069134"
   version="1.1"
   id="svg1"
   xmlns="http://www.w3.org/2000/svg"
   xmlns:svg="http://www.w3.org/2000/svg">
  <defs
     id="defs1" />
  <g
     id="layer1"
     transform="translate(-53.95563,-50.499911)">
    <g
       id="g2938">
      <path
         id="path1793"
         style="fill:#000000;stroke-width:0.264583"
         d="m 62.341734,84.425464 v -1.143558 h 0.580126 c 0.751099,0 1.018778,0.153559 1.194196,0.685072 0.297683,0.902023 -0.235267,1.602044 -1.219676,1.602044 h -0.554646 z m 1.198007,0.562703 c 0.303689,-0.303694 0.256672,-1.016614 -0.08273,-1.25434 -0.58293,-0.408305 -0.734087,-0.278971 -0.734087,0.628105 0,0.789779 0.01349,0.825902 0.308584,0.825902 0.169704,0 0.39841,-0.08985 0.508238,-0.199667 z m 0.962051,-0.308579 c 0,-0.7059 0.03932,-0.889434 0.19058,-0.889434 0.151262,0 0.190606,0.183534 0.190606,0.889434 0,0.705898 -0.03934,0.889434 -0.190606,0.889434 -0.151262,0 -0.19058,-0.183536 -0.19058,-0.889434 z m 0.844365,0.802021 c -0.323876,-0.323887 0.174784,-1.056145 0.719217,-1.056145 0.134197,0 0.212328,-0.0687 0.180711,-0.158827 -0.03477,-0.09903 -0.234977,-0.14419 -0.531786,-0.119946 -0.347002,0.02834 -0.461275,-0.0061 -0.421508,-0.127061 0.07157,-0.21777 0.954299,-0.288438 1.187318,-0.09505 0.119009,0.09877 0.181715,0.402799 0.181715,0.881031 v 0.730213 l -0.616823,0.01389 c -0.339275,0.0076 -0.653732,-0.02302 -0.698844,-0.06811 z m 0.782029,-0.319185 c 0.222277,-0.222282 0.186928,-0.355775 -0.09416,-0.355775 -0.279241,0 -0.442463,0.191363 -0.325146,0.381185 0.103981,0.168236 0.233494,0.160386 0.419311,-0.0254 z m 0.914824,-0.466236 v -0.872834 l 0.635317,-0.01431 c 0.387535,-0.0087 0.635318,0.04042 0.635318,0.126021 0,0.09709 0.05636,0.09356 0.182906,-0.01148 0.100595,-0.08349 0.343614,-0.133374 0.540015,-0.110853 0.347768,0.03988 0.358087,0.06338 0.394679,0.898615 0.03088,0.705136 0.0026,0.857668 -0.15883,0.857668 -0.153088,0 -0.1964,-0.152442 -0.1964,-0.691343 0,-0.380238 -0.05969,-0.728229 -0.132636,-0.773311 -0.271092,-0.167539 -0.502682,0.221729 -0.502682,0.844902 0,0.466183 -0.04723,0.619752 -0.190579,0.619752 -0.146076,0 -0.190606,-0.161525 -0.190606,-0.691343 0,-0.380238 -0.05969,-0.728229 -0.132635,-0.773311 -0.271066,-0.167539 -0.502682,0.221729 -0.502682,0.844902 0,0.466183 -0.04723,0.619752 -0.19058,0.619752 -0.150918,0 -0.190605,-0.181689 -0.190605,-0.872834 z m 2.99503,0.673164 c -0.278236,-0.278239 -0.258472,-1.1054 0.0327,-1.368912 0.340731,-0.308361 0.981657,-0.270531 1.221661,0.07211 0.45212,0.645496 0.09599,1.496472 -0.626242,1.496472 -0.235638,0 -0.518293,-0.08985 -0.628121,-0.19967 z m 0.980757,-0.320678 c 0.162084,-0.257418 0.01455,-0.865542 -0.232859,-0.960522 -0.276622,-0.106146 -0.566367,0.191394 -0.566367,0.581581 0,0.598799 0.508873,0.840073 0.799226,0.378941 z m 0.852567,-0.342088 v -0.862433 l 0.533877,-0.0213 c 0.736308,-0.02936 0.863811,0.118134 0.863811,0.999342 0,0.579128 -0.04278,0.746816 -0.190579,0.746816 -0.146077,0 -0.190606,-0.161526 -0.190606,-0.691343 0,-0.721561 -0.09454,-0.886667 -0.433255,-0.756687 -0.150125,0.05761 -0.202063,0.253605 -0.202063,0.762783 0,0.524399 -0.04471,0.685247 -0.190579,0.685247 -0.150707,0 -0.190606,-0.180536 -0.190606,-0.862436 z m 1.909154,0.614305 c -0.18325,-0.342379 -0.161978,-1.057611 0.03961,-1.333318 0.12282,-0.167952 0.281279,-0.215992 0.571791,-0.173355 0.382429,0.05613 0.401876,0.03852 0.401876,-0.363725 0,-0.291034 0.05937,-0.422712 0.190606,-0.422712 0.156527,0 0.190579,0.224044 0.190579,1.25402 v 1.254019 l -0.632089,0.01423 c -0.501862,0.0113 -0.658945,-0.03592 -0.762371,-0.229171 z m 0.860796,-0.158467 c 0.212989,-0.21299 0.190367,-0.801468 -0.0381,-0.991084 -0.385975,-0.320316 -0.728689,0.332732 -0.494665,0.942572 0.0917,0.238996 0.321389,0.259909 0.532765,0.04851 z m 1.804299,-0.73696 v -1.143558 h 0.645901 c 0.729033,0 0.840634,0.288123 0.13843,0.35747 -0.331629,0.03275 -0.403146,0.09474 -0.403146,0.349422 0,0.270103 0.05768,0.309603 0.4522,0.309603 0.269134,0 0.420423,0.05145 0.373697,0.127063 -0.04321,0.06988 -0.246697,0.127061 -0.452226,0.127061 -0.35126,0 -0.373671,0.0305 -0.373671,0.508249 0,0.367067 -0.05294,0.508248 -0.190605,0.508248 -0.155284,0 -0.19058,-0.21177 -0.19058,-1.143558 z m 1.578795,0.974109 c -0.133297,-0.347372 0.0061,-2.28671 0.168302,-2.340386 0.120041,-0.03974 0.158829,0.260324 0.158829,1.228628 0,0.795419 -0.04969,1.281207 -0.131048,1.281207 -0.0721,0 -0.160311,-0.07625 -0.196083,-0.169449 z m 0.860796,0.01699 c -0.355547,-0.355539 0.06048,-0.991082 0.648758,-0.991082 0.134382,0 0.212196,-0.06854 0.180261,-0.158826 -0.03294,-0.09311 -0.226007,-0.144852 -0.466567,-0.125053 -0.28485,0.02344 -0.394229,-0.01543 -0.357584,-0.127061 0.07075,-0.215461 0.829257,-0.280284 1.058042,-0.09042 0.120518,0.100015 0.182298,0.404392 0.182298,0.898102 v 0.746815 h -0.546391 c -0.300487,0 -0.614971,-0.06861 -0.698817,-0.152475 z m 0.663019,-0.178774 c 0.284242,-0.109074 0.250164,-0.431123 -0.04564,-0.431123 -0.279242,0 -0.442463,0.191363 -0.325147,0.381186 0.09213,0.149047 0.107209,0.151082 0.370787,0.04994 z m 1.050713,0.249187 c -0.126947,-0.12696 -0.103452,-2.109938 0.02744,-2.316628 0.196479,-0.310176 0.393462,-0.01683 0.393462,0.585938 v 0.586431 l 0.294084,-0.276273 c 0.298344,-0.280291 0.595339,-0.364551 0.595339,-0.168904 0,0.05905 -0.114353,0.210859 -0.254106,0.337349 -0.139779,0.126486 -0.254132,0.283569 -0.254132,0.34907 0,0.0655 0.114353,0.264475 0.254132,0.442161 0.298265,0.379195 0.321839,0.542919 0.07813,0.542919 -0.09678,0 -0.279586,-0.157239 -0.406242,-0.349421 l -0.230267,-0.34942 -0.07374,0.308234 c -0.07628,0.318794 -0.271674,0.460963 -0.4241,0.308544 z m 1.683412,-0.11829 c -0.225584,-0.271822 -0.228759,-1.102532 -0.0053,-1.371872 0.273897,-0.330023 0.984726,-0.26651 1.23145,0.110032 0.307049,0.468628 0.154729,0.69982 -0.461089,0.69982 -0.429525,0 -0.51345,0.03924 -0.475562,0.222359 0.0354,0.171225 0.15666,0.21567 0.527262,0.19327 0.333401,-0.02016 0.465508,0.01889 0.429921,0.127061 -0.08332,0.253426 -1.040156,0.268264 -1.246769,0.01934 z m 0.865769,-1.102031 c -0.0291,-0.08736 -0.157771,-0.15883 -0.285882,-0.15883 -0.128138,0 -0.256778,0.07147 -0.285882,0.15883 -0.03355,0.100589 0.07128,0.158826 0.285882,0.158826 0.214577,0 0.319405,-0.05824 0.285882,-0.158826 z M 64.586486,83.578398 c -0.154755,-0.154752 -0.08755,-0.42354 0.105886,-0.42354 0.105886,0 0.190606,0.112943 0.190606,0.254124 0,0.253138 -0.135414,0.330502 -0.296492,0.169416 z m -5.581888,-6.255745 c -0.107845,-0.412435 0.05059,-0.897059 0.377295,-1.154038 0.302842,-0.238221 0.77859,-1.590448 0.616559,-1.752473 -0.03916,-0.03916 -0.387403,-0.09743 -0.773906,-0.129479 -0.558112,-0.04628 -0.755465,-0.01053 -0.959115,0.173799 -0.437409,0.39583 -1.514422,0.273114 -1.514422,-0.172556 0,-0.468746 1.668965,-1.043879 3.029215,-1.043879 0.631428,0 1.14173,-0.534839 1.2437,-1.303454 0.0663,-0.499909 0.174149,-0.711517 0.524325,-1.028864 0.24249,-0.219734 0.487918,-0.522147 0.545412,-0.672034 0.167799,-0.437393 1.314,-0.908579 2.586275,-1.063188 1.54231,-0.187423 1.934554,-0.507561 1.969241,-1.607188 0.0087,-0.275868 0.126207,-0.497199 0.375232,-0.706736 0.215583,-0.181414 0.396981,-0.488556 0.447464,-0.757714 0.04673,-0.248949 0.250957,-0.626382 0.453892,-0.838737 0.36883,-0.385929 0.639392,-1.374611 0.456989,-1.669772 -0.126498,-0.204658 -1.377712,-0.166727 -1.664864,0.05047 -0.36584,0.276701 -1.149615,0.244626 -1.453727,-0.05949 -0.324273,-0.32426 -0.321363,-0.574741 0.01085,-0.926512 0.367612,-0.389343 0.62275,-0.906812 0.519959,-1.054545 -0.04731,-0.068 -0.30779,-0.121793 -0.578829,-0.119549 -0.654844,0.0054 -0.825474,-0.255053 -0.540808,-0.825662 0.331946,-0.665437 -0.09948,-0.768728 -1.166839,-0.279355 -0.378672,0.173609 -0.441669,0.173234 -0.618596,-0.0037 -0.24339,-0.243404 -0.118533,-0.475491 0.255826,-0.475491 0.154357,0 0.500565,-0.149445 0.769381,-0.3321 0.428255,-0.291007 0.568405,-0.321527 1.132814,-0.246658 0.891752,0.118298 1.397317,-0.162853 1.688306,-0.938892 0.575416,-1.534639 1.298205,-2.548332 1.817053,-2.548332 0.418676,0 0.232701,1.116777 -0.251249,1.508654 -0.152347,0.123357 -0.332502,0.514112 -0.429577,0.931733 -0.195818,0.842399 -0.174572,0.863222 0.880824,0.863222 0.443098,0 0.72689,-0.06508 0.831056,-0.190593 0.246301,-0.296778 1.08376,-0.24417 1.392741,0.08749 0.142478,0.152945 0.25908,0.324347 0.25908,0.380892 0,0.05655 -0.200819,0.382336 -0.446273,0.723982 -0.543983,0.757168 -0.492787,0.992642 0.212672,0.978254 0.681329,-0.01389 0.857938,0.238723 0.570177,0.815554 -0.252756,0.506688 -0.251169,0.464865 -0.02117,0.553122 0.208122,0.07986 1.147922,-0.217146 1.431317,-0.452331 0.09922,-0.08235 0.286649,-0.157546 0.416533,-0.167114 0.129858,-0.0096 0.476039,-0.176162 0.76925,-0.37021 0.485378,-0.321212 0.586555,-0.342249 1.129586,-0.234879 0.875374,0.173083 1.346623,-0.182702 1.797764,-1.357312 0.186954,-0.486746 0.463074,-1.084241 0.613569,-1.327766 0.280881,-0.454457 1.011184,-0.988936 1.384882,-1.013534 0.11557,-0.0076 0.484478,-0.175107 0.819838,-0.372222 0.552185,-0.324582 0.664104,-0.346794 1.186206,-0.235439 0.795867,0.169743 1.322229,-0.170214 1.638035,-1.057974 0.531972,-1.495512 1.334718,-2.600933 1.767999,-2.434669 0.344064,0.132038 0.248814,0.906918 -0.170127,1.384086 -0.380973,0.433887 -0.716412,1.388417 -0.597138,1.699212 0.0944,0.245996 1.453145,0.232773 1.783847,-0.01736 0.25236,-0.190876 0.907997,-0.247467 1.267725,-0.109426 0.349647,0.134178 0.218572,0.501745 -0.275511,0.772535 -0.559752,0.306782 -0.884793,0.391449 -2.078222,0.541301 -0.645452,0.08104 -1.005338,0.202295 -1.325669,0.446632 -0.386953,0.295141 -0.439737,0.404131 -0.439737,0.90813 0,0.516252 -0.05588,0.623607 -0.566764,1.088554 -0.311732,0.283697 -0.562266,0.551953 -0.556736,0.59612 0.02881,0.230198 -0.03437,0.397957 -0.149834,0.397957 -0.07138,0 -0.342979,0.137654 -0.603541,0.305903 -0.291015,0.187902 -0.841375,0.362903 -1.426739,0.453665 -0.524113,0.08127 -1.124479,0.174115 -1.334135,0.206322 -0.635053,0.09756 -1.080029,0.588211 -1.080029,1.190906 0,0.431845 -0.08911,0.613849 -0.540015,1.103026 -0.296995,0.322215 -0.525727,0.606828 -0.508238,0.632471 0.124301,0.182457 -0.02011,0.61509 -0.28829,0.863629 -0.329221,0.305091 -0.76798,1.505696 -0.63119,1.727052 0.128429,0.207767 1.658964,0.152598 1.84068,-0.06635 0.229605,-0.276656 0.967316,-0.239771 1.270608,0.06353 0.344594,0.344588 0.312844,0.618072 -0.132212,1.138756 -0.206825,0.241956 -0.376026,0.57527 -0.376026,0.740704 0,0.266768 0.04225,0.291502 0.373724,0.218699 0.429948,-0.09443 0.896885,0.108781 0.896885,0.390329 0,0.105836 -0.0853,0.357415 -0.189601,0.559062 -0.175471,0.339328 -0.171688,0.372306 0.05051,0.442838 0.13208,0.04191 0.544724,-0.03954 0.91702,-0.180998 0.578696,-0.219885 0.702601,-0.231516 0.853969,-0.08016 0.205528,0.205528 0.09641,0.455562 -0.198782,0.455562 -0.112024,0 -0.459607,0.149974 -0.772398,0.333277 -0.482785,0.282938 -0.665374,0.321829 -1.208669,0.257482 -0.825977,-0.09782 -1.399779,0.223335 -1.621579,0.907587 -0.285908,0.88214 -0.988906,2.145364 -1.311592,2.356795 -0.534009,0.349893 -0.711915,0.276667 -0.711915,-0.293026 0,-0.383776 0.08718,-0.593053 0.365787,-0.87806 0.356658,-0.36486 0.772054,-1.588569 0.598249,-1.762379 -0.197379,-0.197379 -1.419966,-0.116932 -1.815994,0.119489 -0.484928,0.289491 -1.243674,0.20607 -1.438592,-0.158166 -0.148802,-0.277997 -0.162243,-0.718388 -0.02381,-0.777115 0.197088,-0.08357 0.662464,-0.848884 0.662464,-1.08943 0,-0.204634 -0.08705,-0.243652 -0.523319,-0.234511 -0.689822,0.01445 -0.904029,-0.275505 -0.598514,-0.810151 0.170788,-0.298868 0.180498,-0.397934 0.04969,-0.5065 -0.186346,-0.154644 -1.12514,0.126928 -1.473094,0.441809 -0.113956,0.103137 -0.243284,0.151456 -0.287364,0.107371 -0.04408,-0.04408 -0.361606,0.100457 -0.705617,0.321204 -0.586952,0.376642 -0.661617,0.393255 -1.212638,0.269772 -0.522738,-0.11715 -0.635768,-0.10014 -1.029944,0.154998 -0.271198,0.17554 -0.499269,0.458912 -0.588592,0.731306 -0.29509,0.899789 -1.001977,2.144021 -1.364932,2.402461 -0.205317,0.146212 -0.508477,0.26584 -0.67363,0.26584 -0.165179,0 -0.520435,0.149569 -0.789463,0.332378 -0.43688,0.296873 -0.56695,0.323575 -1.21756,0.249965 -0.572691,-0.06479 -0.763005,-0.04077 -0.890058,0.112339 -0.0889,0.107112 -0.226404,0.19475 -0.305568,0.19475 -0.07914,0 -0.279744,0.357362 -0.445743,0.794138 -0.683181,1.797426 -1.740773,2.956219 -1.953974,2.140932 z m 1.379828,-1.326457 c 0.509297,-1.062728 0.528929,-1.227426 0.146235,-1.227426 -0.237807,0 -0.334645,0.138512 -0.571764,0.817949 -0.308425,0.883759 -0.377164,1.540838 -0.146262,1.398122 0.07657,-0.04732 0.333878,-0.492212 0.571791,-0.988645 z M 76.05694,73.791167 c 0.474716,-0.961282 0.489903,-1.18245 0.08109,-1.18245 -0.24384,0 -0.326152,0.08553 -0.397378,0.412951 -0.0494,0.227124 -0.150786,0.555895 -0.225319,0.730605 -0.07453,0.174712 -0.138721,0.501409 -0.142637,0.725998 -0.0093,0.535874 0.168487,0.357288 0.684239,-0.687104 z m -16.353684,0.170741 c 0.257122,-0.402434 0.108347,-0.501171 -0.633386,-0.420331 -0.401822,0.04379 -0.957765,0.14392 -1.235445,0.222499 l -0.504852,0.142872 0.353034,0.145021 c 0.430953,0.177022 1.891586,0.111922 2.020649,-0.09006 z m 0.986658,0.18711 c 0,-0.166624 -0.328454,-0.407125 -0.42463,-0.310933 -0.173963,0.173953 -0.07366,0.422437 0.170524,0.422437 0.139753,0 0.254106,-0.05018 0.254106,-0.111504 z m 1.091036,-0.291221 c 0.604255,-0.433949 0.666829,-0.545883 0.369094,-0.660141 -0.105437,-0.04046 -0.257572,-0.218109 -0.338059,-0.394779 -0.08049,-0.176673 -0.200421,-0.321223 -0.266514,-0.321223 -0.16473,0 -1.109663,0.758177 -1.109663,0.890363 0,0.1203 0.623491,0.888505 0.721122,0.888505 0.03477,0 0.315569,-0.181227 0.62402,-0.402725 z m 2.014722,-0.245137 c 0.593011,-0.349874 0.570918,-0.399322 -0.07636,-0.170952 -0.467307,0.16488 -0.562187,0.164229 -0.821426,-0.0056 -0.268737,-0.176077 -0.304032,-0.171609 -0.424629,0.05373 -0.07234,0.135176 -0.131525,0.27812 -0.131525,0.317657 0,0.184702 1.048941,0.04417 1.453938,-0.194792 z m 0.420212,-0.583501 c 0.256222,-0.121156 0.412961,-0.288536 0.412961,-0.440986 0,-0.135144 0.144013,-0.379193 0.320067,-0.542335 0.329194,-0.305091 0.767953,-1.505697 0.631163,-1.727052 -0.128428,-0.207767 -1.658964,-0.152599 -1.840653,0.06635 -0.093,0.112035 -0.374359,0.191711 -0.682651,0.193307 -0.463471,0.0024 -0.565097,0.0602 -0.874131,0.497155 -0.447781,0.633145 -0.365971,0.858565 0.306679,0.844843 0.682731,-0.01392 0.857991,0.23866 0.568378,0.819182 -0.335915,0.673351 0.110516,0.784955 1.158187,0.289539 z m 1.723548,-1.113369 c 0.257546,-0.52088 0.468287,-1.006891 0.468287,-1.080027 0,-0.07314 -0.142135,-0.132974 -0.315834,-0.132974 -0.268446,0 -0.337502,0.08609 -0.460348,0.573937 -0.07948,0.315666 -0.194654,0.60493 -0.255958,0.642807 -0.14052,0.08685 -0.147717,0.943309 -0.0079,0.943309 0.05694,0 0.314246,-0.426175 0.571791,-0.947052 z m -4.207457,-0.08 c -0.03151,-0.214619 0.03323,-0.504957 0.153512,-0.688525 0.114379,-0.174577 0.159438,-0.317415 0.100144,-0.317415 -0.232648,0 -0.674237,0.622064 -0.743161,1.046903 -0.06821,0.420256 -0.05361,0.444378 0.235638,0.389088 0.259265,-0.04956 0.299667,-0.118001 0.253867,-0.430051 z m 14.586559,0.138356 c 0,-0.05318 -0.07908,-0.162322 -0.175736,-0.242549 -0.136049,-0.112897 -0.193464,-0.09971 -0.254133,0.05837 -0.130122,0.339069 -0.09067,0.416994 0.175763,0.347321 0.139753,-0.03655 0.254106,-0.109963 0.254106,-0.163139 z m -1.048253,-0.06941 c 0.08737,-0.02773 0.158829,-0.17444 0.158829,-0.326022 0,-0.260702 -0.0395,-0.270995 -0.73062,-0.190315 -0.401823,0.04691 -0.958612,0.146418 -1.237324,0.221128 l -0.50673,0.135837 0.376449,0.153871 c 0.334645,0.13679 1.515243,0.140137 1.939396,0.0055 z m 2.241947,-0.226727 0.494877,-0.418679 -0.317262,-0.317257 c -0.174493,-0.174492 -0.344805,-0.399775 -0.37846,-0.500631 -0.04813,-0.144203 -0.172244,-0.10645 -0.581078,0.176755 -0.285909,0.19807 -0.550333,0.439528 -0.58756,0.536572 -0.07631,0.198813 0.499903,0.946719 0.727101,0.943809 0.08115,-0.0011 0.370232,-0.190297 0.642382,-0.420569 z m 1.828509,-0.14932 c 0.519933,-0.353298 0.506121,-0.382773 -0.08297,-0.177406 -0.321152,0.111951 -0.461354,0.101582 -0.694823,-0.0514 -0.267123,-0.175016 -0.305514,-0.170796 -0.442542,0.04862 -0.205925,0.329716 -0.197591,0.346694 0.199364,0.406829 0.192193,0.02911 0.39534,0.0615 0.451458,0.07197 0.05612,0.01048 0.312394,-0.123907 0.569516,-0.298617 z m -4.635553,-0.34059 c 1.52482,-0.199425 1.994535,-0.521536 1.994535,-1.367793 0,-0.440894 0.07668,-0.646803 0.349435,-0.938427 l 0.349409,-0.373602 -0.376423,0.08996 c -0.207036,0.04948 -0.793829,0.136769 -1.304025,0.193982 -1.277276,0.143243 -1.813745,0.539237 -1.813745,1.338816 0,0.463153 -0.07072,0.62789 -0.412962,0.961847 -0.255138,0.248987 -0.325411,0.373378 -0.183912,0.325517 0.125995,-0.0426 0.754936,-0.146238 1.397688,-0.230298 z m -1.291987,-0.314717 c 0.112686,-0.12877 0.243099,-0.447595 0.289851,-0.708498 0.08133,-0.454057 0.0725,-0.469755 -0.206269,-0.366578 -0.227833,0.08432 -0.28284,0.18891 -0.252624,0.480274 0.02461,0.238366 -0.06326,0.502021 -0.244369,0.732245 -0.253021,0.321689 -0.256964,0.34584 -0.0372,0.228222 0.135176,-0.07235 0.337953,-0.236895 0.450611,-0.365665 z m -7.212727,-1.00408 c -0.160628,-0.245155 -0.239104,-0.284263 -0.318637,-0.158827 -0.192352,0.303302 -0.113507,0.484063 0.211164,0.484063 0.314722,0 0.316679,-0.0059 0.107473,-0.325236 z m 11.14179,0.198175 c 0.06242,0 0.07924,-0.171159 0.03741,-0.380354 -0.05916,-0.295796 0.0048,-0.486466 0.287443,-0.857668 l 0.363511,-0.477317 -0.536099,0.444717 c -0.294851,0.244594 -0.537898,0.530485 -0.54012,0.63531 -0.0026,0.104828 -0.04104,0.328888 -0.08625,0.497914 -0.06837,0.255614 -0.04495,0.293026 0.139197,0.222359 0.121788,-0.04673 0.272468,-0.08496 0.33491,-0.08496 z M 64.652049,69.942151 c 0.489744,-0.0013 0.609786,-0.04837 0.678683,-0.265435 0.04601,-0.145034 0.05361,-0.293775 0.01693,-0.330533 -0.07615,-0.07615 -1.794721,0.19508 -2.179955,0.344043 -0.2413,0.0933 -0.238098,0.10505 0.06353,0.232777 0.174704,0.07398 0.432012,0.108948 0.571791,0.0777 0.139753,-0.03125 0.521864,-0.05759 0.849101,-0.05855 z m 2.793339,-0.272634 0.50247,-0.397963 -0.325358,-0.339595 c -0.178938,-0.18678 -0.325358,-0.407943 -0.325358,-0.491474 0,-0.08353 -0.03352,-0.151874 -0.07453,-0.151874 -0.101653,0 -1.196076,0.790758 -1.196076,0.864209 0,0.202456 0.562716,0.914659 0.722683,0.914659 0.106521,0 0.419815,-0.179083 0.696172,-0.397962 z m 1.819381,-0.126037 c 0.545068,-0.321601 0.525383,-0.421079 -0.04101,-0.207288 -0.327422,0.12359 -0.460957,0.120198 -0.681143,-0.0173 -0.238972,-0.149246 -0.295698,-0.14115 -0.4454,0.06357 -0.148246,0.20275 -0.14089,0.246705 0.05421,0.323813 0.387562,0.153167 0.640504,0.116181 1.113341,-0.162798 z m 4.989089,-0.531522 c 0.27133,-0.246253 0.275431,-0.276235 0.08022,-0.586726 -0.399362,-0.635167 -0.526759,-0.660797 -1.13911,-0.229175 -0.591873,0.417206 -0.675296,0.565008 -0.38227,0.67745 0.09843,0.03777 0.248973,0.237697 0.334539,0.444278 0.152903,0.369128 0.161316,0.37197 0.48813,0.164648 0.18288,-0.116028 0.461195,-0.32774 0.61849,-0.470475 z m -4.783852,0.01857 c 0.237543,-0.08113 0.477626,-0.224075 0.533506,-0.317656 0.05591,-0.09358 0.228441,-0.170143 0.38346,-0.170143 0.15502,0 0.505699,-0.152098 0.779251,-0.337997 0.46019,-0.312698 0.544619,-0.328327 1.128131,-0.208793 0.556127,0.113919 0.680482,0.09754 1.051454,-0.138489 0.231404,-0.147227 0.423148,-0.316439 0.426111,-0.376026 0.0029,-0.05959 0.234633,-0.597564 0.514853,-1.195503 0.35904,-0.766173 0.699241,-1.26913 1.152234,-1.703457 0.837194,-0.802695 0.834152,-1.163142 -0.0098,-1.176618 -0.503687,-0.008 -0.576924,-0.04543 -0.614865,-0.313978 -0.02381,-0.167669 0.03082,-0.442984 0.121179,-0.611809 0.136419,-0.254897 0.134303,-0.32548 -0.01244,-0.416193 -0.196638,-0.12152 -1.435153,0.295368 -1.505612,0.506794 -0.02328,0.06997 -0.172614,0.12722 -0.331734,0.12722 -0.159147,0 -0.499983,0.142943 -0.757449,0.317653 -0.465905,0.316177 -0.869024,0.372089 -1.472274,0.204203 -0.480351,-0.133678 -1.080162,0.313904 -1.344031,1.002887 -0.41476,1.083106 -0.935566,2.007841 -1.28606,2.283529 -0.466593,0.367014 -0.784489,0.867442 -0.716439,1.127731 0.0431,0.16475 0.175869,0.201181 0.607986,0.166814 0.466329,-0.03709 0.565759,-0.0033 0.635239,0.215617 0.04561,0.143695 -0.0034,0.425413 -0.10967,0.631015 -0.286041,0.553141 -0.02487,0.674159 0.827087,0.383199 z m 3.004899,-0.764251 c -0.283633,-0.180092 -0.913527,-0.105024 -1.238832,0.147632 l -0.317659,0.246713 0.462201,-0.07325 c 0.254212,-0.04029 0.568669,-0.01206 0.698844,0.06271 0.183409,0.105389 0.272336,0.08886 0.395446,-0.0735 0.127053,-0.167563 0.127053,-0.229637 0,-0.310308 z m 3.755761,0.263162 c 1.133475,-0.174098 1.371547,-0.283977 1.021318,-0.471408 -0.155575,-0.08326 -0.585285,-0.101142 -1.132126,-0.04711 -0.785971,0.07767 -0.885745,0.118023 -0.92194,0.372978 -0.02222,0.157239 -0.0048,0.28589 0.03918,0.28589 0.0439,0 0.490988,-0.06316 0.993564,-0.140351 z m -1.438804,-0.590256 c 0,-0.08735 -0.14232,-0.158827 -0.318638,-0.158827 -0.314749,0 -0.316706,0.0059 -0.1075,0.325236 0.160628,0.245155 0.239104,0.284263 0.318637,0.158827 0.05805,-0.09152 0.106416,-0.237879 0.107501,-0.325236 z m -7.469214,-0.29677 c -0.03008,-0.204949 0.0172,-0.459256 0.105066,-0.565132 0.23741,-0.286051 0.100912,-0.324688 -0.222039,-0.06285 -0.169015,0.137033 -0.315912,0.44023 -0.366474,0.756476 -0.08377,0.523827 -0.08207,0.526719 0.22688,0.385958 0.250719,-0.114242 0.30062,-0.214289 0.256567,-0.514452 z m 7.612009,-0.944242 c 0.07948,-0.315667 0.194654,-0.604931 0.255958,-0.642808 0.141129,-0.08723 0.147399,-0.943306 0.0069,-0.943306 -0.117739,0 -1.039045,1.784728 -1.039045,2.012826 0,0.08097 0.142134,0.147227 0.315833,0.147227 0.268446,0 0.337503,-0.0861 0.460349,-0.573939 z M 68.7401,65.397945 c 0.644578,-1.286706 0.673153,-1.429446 0.286041,-1.429446 -0.269081,0 -0.34589,0.0875 -0.474054,0.540012 -0.08411,0.297008 -0.217805,0.612177 -0.297074,0.700376 -0.126153,0.140379 -0.119751,1.046726 0.0074,1.046726 0.02646,0 0.24138,-0.385951 0.477679,-0.857668 z m 7.936177,-1.868472 c 0.03392,-0.399598 0.0045,-0.464984 -0.190579,-0.425045 -0.167588,0.03429 -0.220504,0.142761 -0.193411,0.396528 0.02223,0.207518 -0.07919,0.515168 -0.249608,0.757854 l -0.286861,0.40853 0.440187,-0.332809 c 0.340545,-0.257482 0.449263,-0.439698 0.480272,-0.805058 z m -9.0297,-0.225848 c 0.320119,0.03335 0.539988,0.0033 0.539988,-0.07376 0,-0.07151 0.03821,-0.229558 0.0849,-0.351218 0.07726,-0.201335 0.005,-0.214509 -0.804228,-0.146664 -0.489002,0.041 -1.084685,0.159787 -1.323736,0.263977 -0.424075,0.18483 -0.426324,0.189691 -0.09271,0.199803 0.188039,0.0057 0.375893,0.06536 0.417433,0.132572 0.04329,0.07002 0.195686,0.07883 0.356923,0.02061 0.154781,-0.05587 0.524404,-0.07627 0.821425,-0.04533 z m 1.556491,0.04512 c 0,-0.166622 -0.328454,-0.407123 -0.42463,-0.310933 -0.173963,0.173953 -0.07366,0.422436 0.170524,0.422436 0.139753,0 0.254106,-0.05018 0.254106,-0.111503 z m 1.111911,-0.352539 c 0.488157,-0.400002 0.536602,-0.480669 0.351023,-0.584523 -0.118428,-0.06626 -0.284745,-0.285684 -0.369649,-0.487595 l -0.154358,-0.367106 -0.59526,0.411623 c -0.327395,0.226393 -0.595842,0.478708 -0.596529,0.560702 0,0.155877 0.604414,0.930947 0.727551,0.930947 0.039,0 0.325755,-0.20882 0.637222,-0.464042 z m 2.001123,-0.252066 c 0.279533,-0.179845 0.393886,-0.283705 0.254106,-0.230796 -0.481277,0.182189 -1.083918,0.212415 -1.263491,0.06337 -0.142637,-0.118364 -0.207275,-0.09838 -0.311441,0.09625 -0.07231,0.135091 -0.09536,0.281728 -0.05122,0.325858 0.183171,0.183171 0.897599,0.05055 1.372049,-0.254685 z m 4.61272,-0.184317 c 0.625713,-0.460152 0.66294,-0.706681 0.177006,-1.172233 l -0.356288,-0.341337 -0.533162,0.392089 c -0.293238,0.215646 -0.533135,0.435456 -0.533135,0.488463 0,0.05301 0.114353,0.199866 0.254106,0.326356 0.139779,0.126486 0.254132,0.335473 0.254132,0.46441 0,0.322164 0.119539,0.296592 0.737341,-0.157748 z m -9.900232,0.01312 c 0.376449,-0.07106 0.88056,-0.129207 1.120272,-0.129207 0.270193,0 0.595577,-0.121835 0.856112,-0.320543 0.349965,-0.266938 0.434367,-0.431612 0.504719,-0.984729 0.06787,-0.533651 0.162746,-0.729527 0.482839,-0.996637 l 0.398383,-0.332452 -0.816293,0.170976 c -0.448945,0.09404 -1.084342,0.172165 -1.411975,0.173623 -0.824971,0.0037 -1.33813,0.46958 -1.454812,1.320895 -0.06157,0.449331 -0.187378,0.7103 -0.477758,0.991111 -0.306149,0.296079 -0.337423,0.364992 -0.140017,0.308676 0.139753,-0.03988 0.562107,-0.130649 0.93853,-0.201713 z m -0.836375,-0.355794 c 0.124487,-0.137573 0.258895,-0.450641 0.298662,-0.695703 0.06869,-0.423278 0.05599,-0.442455 -0.25363,-0.383265 -0.285088,0.0545 -0.316521,0.10945 -0.250745,0.438343 0.05474,0.273775 -0.0026,0.480303 -0.20828,0.759457 -0.243655,0.329549 -0.250375,0.36571 -0.04792,0.257363 0.12954,-0.06933 0.337396,-0.23862 0.461909,-0.376195 z m 8.283893,-0.356529 c 0.161713,-0.04058 0.418385,-0.0072 0.570389,0.07412 0.22942,0.12278 0.305382,0.108424 0.447092,-0.08449 0.146368,-0.199234 0.140362,-0.244729 -0.04217,-0.318767 -0.41738,-0.169318 -0.804889,-0.09947 -1.26791,0.228549 -0.258339,0.183031 -0.364358,0.297141 -0.235558,0.253582 0.128772,-0.04356 0.366447,-0.112403 0.528161,-0.15299 z m 4.764855,-0.111434 c 0.314483,-0.04139 0.768297,-0.138716 1.008459,-0.216281 l 0.436695,-0.141026 -0.436695,-0.149955 c -0.250005,-0.08586 -0.528161,-0.105452 -0.65069,-0.04584 -0.117687,0.05726 -0.475059,0.104108 -0.79412,0.104108 -0.319088,0 -0.580152,0.0525 -0.580152,0.11667 0,0.06417 -0.0358,0.210019 -0.07959,0.32411 -0.06316,0.164581 -0.0172,0.194632 0.222356,0.145454 0.166079,-0.03409 0.55925,-0.09585 0.873734,-0.137236 z m -9.043988,-0.775782 c -0.01588,-0.236321 0.05829,-0.523561 0.168328,-0.651489 0.445294,-0.517732 0.348747,-0.571699 -0.134011,-0.07491 -0.369756,0.380513 -0.51996,0.643199 -0.51996,0.909304 0,0.313076 0.04199,0.363231 0.257043,0.306991 0.201242,-0.05263 0.250878,-0.158996 0.2286,-0.489896 z m 7.556077,0.326784 c 0.05305,-0.20288 0.004,-0.254125 -0.243787,-0.254125 -0.270854,0 -0.292974,0.03225 -0.174229,0.254125 0.0748,0.139769 0.184494,0.254124 0.243788,0.254124 0.05927,0 0.137662,-0.114355 0.174228,-0.254124 z M 67.068859,60.31961 67.333628,60.037874 66.991283,59.589006 c -0.188303,-0.24688 -0.376951,-0.448871 -0.419205,-0.448871 -0.09782,0 -0.964618,0.648126 -1.068361,0.798848 -0.04294,0.06239 0.0571,0.248645 0.222355,0.413893 0.165259,0.165248 0.300461,0.392049 0.300461,0.504002 0,0.181034 0.04299,0.178158 0.388779,-0.02598 0.213836,-0.126246 0.507921,-0.356322 0.653547,-0.511278 z m 12.680342,0.535861 c 0.09644,-0.116181 0.374861,-0.190593 0.713184,-0.190593 0.514271,0 0.586449,-0.04336 0.983959,-0.591142 0.559991,-0.771623 0.501915,-1.012169 -0.230214,-0.95394 -0.470747,0.03744 -0.565441,0.0043 -0.63754,-0.222879 -0.04805,-0.151379 0,-0.434213 0.108241,-0.653611 0.172667,-0.346115 0.172588,-0.394563 0,-0.461045 -0.106468,-0.04086 -0.526706,0.02657 -0.933847,0.149842 -0.642964,0.194672 -0.749935,0.272584 -0.81399,0.592852 -0.04054,0.202798 -0.214154,0.498856 -0.385763,0.657905 -0.328877,0.304797 -0.662781,1.342972 -0.537183,1.670267 0.103505,0.269705 1.510347,0.271608 1.733814,0.0024 z m -1.81954,-0.935061 c 0.08781,-0.304631 0.20828,-0.61911 0.267705,-0.698842 0.05943,-0.07973 0.07371,-0.316497 0.03172,-0.52615 l -0.07633,-0.381185 -0.211588,0.317656 c -0.206904,0.31057 -0.860266,1.719037 -0.860266,1.854459 0,0.03759 0.155046,0.05025 0.344567,0.02814 0.285591,-0.03333 0.371872,-0.134988 0.50419,-0.594082 z m 4.557845,-0.816108 c 0.08575,-0.474287 0.08281,-0.478692 -0.225875,-0.338042 -0.236061,0.10755 -0.298662,0.216278 -0.25527,0.443283 0.03339,0.174686 -0.0626,0.502838 -0.228997,0.782762 l -0.286491,0.481981 0.454872,-0.444717 c 0.292391,-0.285856 0.485907,-0.616379 0.541761,-0.925267 z m -17.171379,0.525362 c -0.130783,-0.211584 -1.000892,-0.106037 -1.322599,0.160436 -0.174704,0.144719 -0.231881,0.237058 -0.127053,0.205202 0.104828,-0.03186 0.307949,-0.09463 0.451379,-0.139485 0.150389,-0.04703 0.365548,-0.0031 0.508238,0.103764 0.218467,0.1636 0.265615,0.161475 0.40222,-0.01812 0.08512,-0.111897 0.124619,-0.252203 0.08781,-0.311793 z m 4.740725,-0.003 c 0.313081,-0.128831 0.324379,-0.151905 0.09919,-0.202594 -0.139779,-0.03147 -0.313214,-0.10496 -0.385445,-0.163328 -0.07223,-0.05837 -0.215186,-0.05309 -0.317659,0.01172 -0.102499,0.06482 -0.451802,0.118724 -0.776287,0.119796 -0.55454,0.0019 -0.744194,0.128654 -0.744194,0.497618 0,0.126907 1.683174,-0.08164 2.124393,-0.263218 z m -2.507536,-0.32775 c 0,-0.08736 -0.143669,-0.158829 -0.321627,-0.158829 -0.320199,0 -0.321178,0.0032 -0.0953,0.303892 0.223996,0.298177 0.4123,0.232659 0.41693,-0.145063 z m 0.145839,-1.207053 c 0.08475,-0.297008 0.218783,-0.625779 0.297867,-0.730605 0.08242,-0.109251 0.111443,-0.380394 0.06802,-0.635312 l -0.07575,-0.444714 -0.53467,1.04544 c -0.294058,0.574993 -0.53467,1.103887 -0.53467,1.175322 0,0.07143 0.140652,0.129883 0.312552,0.129883 0.258842,0 0.339037,-0.09282 0.466646,-0.540014 z M 83.054243,57.93141 c 0.235929,-0.251034 0.235559,-0.26333 -0.02011,-0.667076 -0.32467,-0.512781 -0.558086,-0.516636 -1.161574,-0.01918 l -0.475747,0.392147 0.319722,0.379973 c 0.175869,0.208987 0.319749,0.435999 0.319749,0.504473 0,0.155861 0.695934,-0.24775 1.017905,-0.590335 z m -2.765319,-0.404281 c 0.203438,-0.04106 0.434472,5.29e-4 0.553747,0.0994 0.174043,0.144431 0.23114,0.133654 0.381502,-0.07198 0.385472,-0.52719 -0.516943,-0.606229 -1.284367,-0.11249 -0.279532,0.179845 -0.393885,0.288411 -0.254132,0.24126 0.13978,-0.04715 0.411242,-0.117435 0.60325,-0.156186 z m 5.271162,-0.184203 c 0.668258,-0.126473 1.031266,-0.362857 0.557212,-0.362857 -0.139753,0 -0.290036,-0.05811 -0.333931,-0.129133 -0.04389,-0.07102 -0.14732,-0.08592 -0.229843,-0.0331 -0.08252,0.05282 -0.464529,0.125225 -0.848889,0.160901 -0.598938,0.05559 -0.704533,0.104788 -0.738585,0.344062 -0.04363,0.306787 0.0717,0.308244 1.594036,0.02013 z m -2.00795,-0.521684 c 0.005,-0.05241 -0.135334,-0.0953 -0.311652,-0.0953 -0.316707,0 -0.31795,0.004 -0.102368,0.333052 0.200343,0.305747 0.225901,0.31356 0.311653,0.0953 0.05141,-0.130765 0.09747,-0.280638 0.102367,-0.333052 z m 0.07856,-1.016495 c 0.0494,-0.227124 0.148775,-0.555897 0.220848,-0.730607 0.155389,-0.376719 0.196426,-1.145268 0.05654,-1.058865 -0.109934,0.0679 -0.597085,1.004419 -0.89781,1.72594 l -0.198597,0.476483 h 0.364596 c 0.308213,0 0.378513,-0.06386 0.454422,-0.412951 z M 53.955633,52.224083 V 50.49991 h 0.952976 c 0.762371,0 0.95295,0.03812 0.95295,0.190592 0,0.144005 -0.155284,0.190595 -0.635291,0.190595 h -0.635317 v 0.508246 c 0,0.505574 0.0026,0.508249 0.49268,0.508249 0.469186,0 0.870532,0.246243 0.692124,0.424643 -0.04599,0.04598 -0.328507,0.08361 -0.627856,0.08361 h -0.544275 l -0.0381,0.730605 c -0.03376,0.647215 -0.07075,0.73524 -0.323982,0.77121 -0.284427,0.04039 -0.285909,0.03178 -0.285909,-1.683573 z" />
      <path
         style="fill:#ff0000;stroke:#000000;stroke-width:0.00523854"
         d="m 288.56226,231.8852 c -0.82605,0.69091 -1.82945,1.24999 -2.45004,2.14575 0.17332,0.63014 0.84425,1.04049 1.20419,1.58071 0.46755,0.50982 0.7013,1.16763 0.72015,1.84971 0.0312,0.3534 0.40435,0.5225 0.67426,0.26254 1.36218,-0.80502 2.79079,-1.67251 3.71527,-2.99006 0.60335,-0.87551 -0.18647,-1.82745 -0.77678,-2.45822 -0.50742,-0.52959 -1.06271,-1.03832 -1.63315,-1.48091 -0.48464,0.36349 -0.96927,0.72698 -1.4539,1.09048 z"
         id="path2298"
         transform="scale(0.26458333)" class="OC" />
      <path
         style="fill:#ff0000;stroke:#000000;stroke-width:0.00313402"
         d="m 283.40878,232.25117 c -1.22106,-0.004 -2.29064,0.69995 -3.26305,1.36134 -0.25426,0.23939 -0.64552,0.40686 -0.79942,0.72303 0.12568,0.15045 0.38817,-0.10105 0.54995,-0.0875 1.08451,-0.32738 2.27316,-0.73088 3.39206,-0.30504 0.48461,0.1535 1.02097,0.5823 1.5397,0.33361 0.35821,-0.35775 0.79581,-0.75257 0.87998,-1.27491 -0.12045,-0.31653 -0.5462,-0.3854 -0.81889,-0.52911 -0.46953,-0.18911 -0.97859,-0.23226 -1.48033,-0.22147 z"
         id="path2332"
         transform="scale(0.26458333)" class="OC" />
      <path
         style="fill:#ff0000;stroke:#000000;stroke-width:0.00313402"
         d="m 289.2929,238.47832 c -0.49997,0.005 -1.0014,0.4077 -0.94069,0.9418 0.0557,1.01092 -0.0852,2.04108 -0.62752,2.91579 -0.31782,0.60756 -0.7884,1.13558 -1.1115,1.72991 0.1573,0.0939 0.33752,-0.20731 0.4832,-0.25293 1.16977,-0.85918 2.56969,-1.85571 2.6687,-3.44705 0.0291,-0.55422 0.13378,-1.13903 -0.01,-1.68087 -0.0882,-0.16443 -0.28867,-0.21571 -0.46264,-0.20665 z"
         id="path2333"
         transform="scale(0.26458333)" class="OC" />
      <path
         style="fill:#ff0000;stroke:#000000;stroke-width:0.00313402"
         d="m 292.78966,230.74831 c -0.22888,0.0259 -0.72622,-0.0725 -0.72548,0.28684 0.11899,0.6032 0.50543,1.16248 0.98844,1.53689 0.33568,0.18348 0.5563,-0.27641 0.66525,-0.52237 0.0966,-0.3425 0.35418,-0.79616 0.10271,-1.12335 -0.28568,-0.22014 -0.69485,-0.16103 -1.03092,-0.17801 z"
         id="path2334"
         transform="scale(0.26458333)" class="OC" />
      <path
         style="fill:#ff0000;stroke:#000000;stroke-width:0.00313402"
         d="m 301.59479,231.17789 c -0.68224,0.0131 -1.29386,0.36513 -1.97664,0.38184 -1.19789,0.18076 -2.43136,0.0696 -3.616,0.33409 -0.49253,0.12498 -0.36703,0.73141 -0.53476,1.09243 -0.0417,0.28396 -0.26576,0.61453 -0.15056,0.89229 0.54046,0.20285 1.13152,-0.0801 1.68091,-0.12231 2.46118,-0.38738 4.9616,-0.67294 7.31944,-1.52404 0.1304,-0.0824 0.45669,-0.0769 0.47724,-0.22807 -1.02642,-0.36881 -2.09536,-0.80114 -3.19963,-0.82623 z"
         id="path2335"
         transform="scale(0.26458333)" class="OC" />
      <path
         style="fill:#ff0000;stroke:#000000;stroke-width:0.00313402"
         d="m 295.3347,220.5483 c -1.02316,1.30373 -1.68116,2.85167 -2.42527,4.32347 -0.55209,1.20971 -1.17379,2.4047 -1.55285,3.68114 0.0726,0.25905 0.45517,0.15394 0.65643,0.19012 0.75028,0.0234 1.64746,-0.14732 2.00381,-0.89723 0.56425,-1.21838 0.80574,-2.56517 1.40639,-3.77172 0.4335,-0.77037 0.36383,-1.68142 0.18003,-2.51237 -0.0801,-0.33476 -0.10262,-0.70228 -0.24564,-1.01328 l -0.0201,-0.001 z"
         id="path2336"
         transform="scale(0.26458333)" class="OC" />
      <path
         style="fill:#ff6600;stroke:#000000;stroke-width:0.00541908"
         d="m 311.95919,215.02797 c -1.3806,0.19671 -2.38325,1.32719 -3.44081,2.13766 -0.18371,0.25367 -0.68995,0.41707 -0.69928,0.74123 0.74583,1.09778 1.75163,2.04629 2.30989,3.2561 0.49855,0.22947 1.01384,-0.28389 1.45172,-0.47544 1.07975,-0.70452 2.20169,-1.47107 2.92143,-2.55882 0.0522,-0.80224 -0.62877,-1.45625 -1.01819,-2.10201 -0.3669,-0.4872 -0.85787,-1.03008 -1.52476,-0.99872 z"
         id="path2538"
         transform="scale(0.26458333)" class="OR" />
      <path
         style="fill:#ff6600;stroke:#000000;stroke-width:0.00541908"
         d="m 311.66813,221.87548 c -0.6663,0.16691 -1.50369,0.52791 -1.70214,1.24491 0.0369,1.21236 -0.13817,2.44327 -0.79292,3.48985 -0.19851,0.46586 -0.65598,0.96432 -0.70685,1.42775 1.5082,-1.37088 3.09512,-2.98325 3.34945,-5.11298 -0.0283,-0.23776 0.31163,-1.07377 -0.14754,-1.04953 z"
         id="path2539"
         transform="scale(0.26458333)" class="OR" />
      <path
         style="fill:#ff6600;stroke:#000000;stroke-width:0.00541908"
         d="m 305.85575,215.89164 c -1.75403,0.1039 -3.44032,0.91855 -4.75969,2.03469 1.28535,-0.0772 2.64613,-0.94384 3.94428,-0.39436 0.51959,0.0949 1.05994,0.89652 1.56921,0.36663 0.47926,-0.40692 1.02036,-1.37415 0.29191,-1.81095 -0.31629,-0.17524 -0.69141,-0.20162 -1.04571,-0.19601 z"
         id="path2540"
         transform="scale(0.26458333)" class="OR" />
      <path
         style="fill:#ff6600;stroke:#000000;stroke-width:0.00541908"
         d="m 314.32602,214.46214 c -0.26315,-0.0561 -0.773,0.0538 -0.52561,0.41363 0.33468,0.56444 0.63271,1.26764 1.20469,1.61472 0.45049,-0.19743 0.42141,-0.88668 0.62825,-1.27721 0.23859,-0.35722 -0.041,-0.73559 -0.43837,-0.71346 -0.28763,-0.0414 -0.57905,-0.041 -0.86896,-0.0377 z"
         id="path2541"
         transform="scale(0.26458333)" class="OR" />
      <path
         style="fill:#ff6600;stroke:#000000;stroke-width:0.00541908"
         d="m 317.19178,204.20844 c -0.74274,0.72726 -1.1179,1.77645 -1.63909,2.66918 -0.89575,1.79807 -1.8021,3.64392 -2.44977,5.52718 0.75132,0.0446 1.58146,0.12672 2.29845,-0.13781 0.70638,-0.72978 0.67767,-1.86807 1.05826,-2.76717 0.4806,-1.62451 1.10826,-3.31042 0.92457,-5.02953 -0.0307,-0.095 -0.0722,-0.2526 -0.19242,-0.26185 z"
         id="path2542"
         transform="scale(0.26458333)" class="OR" />
      <path
         style="fill:#ff6600;stroke:#000000;stroke-width:0.00541908"
         d="m 323.76749,214.70515 c -1.50447,0.38821 -3.04553,0.60727 -4.58971,0.80153 -0.74862,0.0362 -1.72894,0.30009 -1.80459,1.19655 -0.19428,0.60746 0.48426,0.92742 0.98644,0.79148 2.37955,-0.29219 4.77684,-0.64855 7.06936,-1.36832 0.25145,-0.12889 0.76095,-0.22359 0.77497,-0.55291 -0.67881,-0.32151 -1.58856,-0.1389 -2.11111,-0.78852 -0.0953,-0.0638 -0.21199,-0.0868 -0.32536,-0.0798 z"
         id="path2543"
         transform="scale(0.26458333)" class="OR" />
      <path
         style="fill:#ff00ff;stroke:#000000;stroke-width:0.00541908"
         d="m 228.8263,282.62589 c -0.83126,-0.0314 -1.29088,0.73937 -1.53237,1.4259 -0.82686,2.14902 -1.75547,4.38903 -1.64795,6.73511 0.0432,0.42884 0.50928,0.14197 0.61261,-0.0982 1.3607,-2.08551 2.40305,-4.37467 3.31667,-6.6869 0.22498,-0.43039 0.32955,-1.14012 -0.275,-1.30836 -0.15118,-0.0548 -0.31388,-0.0727 -0.47396,-0.0675 z"
         id="path2544"
         transform="scale(0.26458333)" class="IF" />
      <path
         style="fill:#ff00ff;stroke:#000000;stroke-width:0.00541908"
         d="m 224.44002,277.93119 c -2.5686,0.11105 -5.12811,0.62885 -7.56829,1.40706 0.60694,0.38255 1.39851,0.57114 2.10815,0.76375 1.85991,0.0954 3.75683,0.18034 5.59837,-0.14924 0.77134,-0.0781 1.59718,-0.78315 1.4206,-1.60857 -0.26204,-0.6188 -1.04611,-0.35324 -1.55883,-0.413 z"
         id="path2545"
         transform="scale(0.26458333)" class="IF" />
      <path
         style="fill:#ff00ff;stroke:#000000;stroke-width:0.00541908"
         d="m 228.01534,279.05946 c -0.7102,0.15134 -0.68016,1.25574 -0.0125,1.47183 0.40507,0.14941 1.13624,0.18003 1.34017,-0.28048 -0.13531,-0.5412 -0.66301,-0.99424 -1.17886,-1.18352 -0.0489,-0.01 -0.0992,-0.0126 -0.14882,-0.008 z"
         id="path2546"
         transform="scale(0.26458333)" class="IF" />
      <path
         style="fill:#ff00ff;stroke:#000000;stroke-width:0.00541908"
         d="m 232.56864,274.03009 c -1.15737,0.39766 -2.05415,1.32725 -3.00463,2.06899 -0.34633,0.39926 -0.99701,0.7023 -1.06095,1.2684 0.54214,1.14789 1.44406,2.10837 2.29909,3.03659 0.2742,0.36499 0.63655,0.15393 0.90952,-0.0822 1.26575,-0.90623 2.69154,-1.6749 3.70749,-2.87497 0.31492,-0.47613 -0.44838,-0.69493 -0.73391,-0.90939 -0.90418,-0.59386 -1.0978,-1.82776 -1.92123,-2.47817 -0.0615,-0.0257 -0.12915,-0.0347 -0.19538,-0.0292 z"
         id="path2547"
         transform="scale(0.26458333)" class="IF" />
      <path
         style="fill:#ff00ff;stroke:#000000;stroke-width:0.00541908"
         d="m 234.11689,267.78524 c -0.92564,0.3576 -1.43926,1.336 -1.94833,2.13524 -0.48839,0.92339 -0.85181,2.00544 -0.75592,3.05353 0.42421,0.37056 1.11734,0.0979 1.58,-0.087 0.54477,-0.50295 0.22878,-1.38884 0.32514,-2.03892 -0.19421,-1.1223 0.75659,-1.97807 1.02031,-2.99553 -0.0497,-0.0649 -0.14655,-0.0685 -0.2212,-0.0673 z"
         id="path2548"
         transform="scale(0.26458333)" class="IF" />
      <path
         style="fill:#ff00ff;stroke:#000000;stroke-width:0.00541908"
         d="m 242.46883,277.13696 c -1.20095,0.21512 -2.3295,0.7945 -3.53637,0.93733 -0.82339,-0.14063 -1.48152,-0.85514 -2.3156,-0.88526 -0.51864,0.31997 -0.65534,1.02697 -0.88187,1.5601 -0.18012,0.48395 0.44427,0.47207 0.74576,0.43544 2.14675,0.002 4.44296,-0.49377 6.04714,-1.99681 0.008,-0.0345 -0.0281,-0.0569 -0.0591,-0.0508 z"
         id="path2549"
         transform="scale(0.26458333)" class="IF" />
      <path
         style="fill:#0000ff;stroke:#000000;stroke-width:0.00541908"
         d="m 249.60275,267.26535 c -0.68699,-0.0237 -1.1118,0.58634 -1.21592,1.19953 -0.41134,1.29304 -0.76792,2.61328 -1.46843,3.78602 -0.2724,0.90869 -0.21668,1.91499 -0.0472,2.83612 0.19226,0.48094 0.58337,-0.20797 0.70321,-0.39373 1.25995,-2.15542 2.43133,-4.38329 3.31983,-6.71881 0.24164,-0.70644 -0.8811,-0.7084 -1.29148,-0.70913 z"
         id="path2550"
         transform="scale(0.26458333)" class="IC" />
      <path
         style="fill:#0000ff;stroke:#000000;stroke-width:0.00541908"
         d="m 246.47048,262.07743 c -2.58502,0.25165 -5.18477,0.61243 -7.68006,1.34947 -0.56155,0.15413 -1.00661,0.42786 -0.184,0.64611 1.56789,0.84145 3.37777,0.2858 5.05401,0.30287 0.96037,-0.12841 2.06874,0.053 2.91314,-0.50804 0.38873,-0.45626 0.54815,-1.18791 0.35859,-1.75125 -0.13273,-0.0795 -0.31672,-0.0285 -0.46168,-0.0392 z"
         id="path2551"
         transform="scale(0.26458333)" class="IC" />
      <path
         style="fill:#0000ff;stroke:#000000;stroke-width:0.00541908"
         d="m 249.34386,263.28444 c -0.48284,0.17195 -0.60459,0.833 -0.72501,1.27221 0.17895,0.72681 1.06449,0.73427 1.66361,0.67188 0.2316,0.0391 0.58793,-0.10489 0.35499,-0.37404 -0.35786,-0.54068 -0.62791,-1.27506 -1.23919,-1.5673 -0.018,-0.002 -0.0363,-0.004 -0.0544,-0.003 z"
         id="path2552"
         transform="scale(0.26458333)" class="IC" />
      <path
         style="fill:#0000ff;stroke:#000000;stroke-width:0.00541908"
         d="m 254.04279,258.1687 c -1.54145,0.81333 -2.9473,1.89552 -4.28424,3.01161 -0.40195,0.3521 0.1502,0.88095 0.29791,1.23029 0.61289,0.879 1.25277,1.8465 2.19486,2.39203 1.24835,-0.32193 2.22861,-1.27636 3.26453,-2.00062 0.28774,-0.39333 1.3858,-0.71297 1.09509,-1.16885 -0.93651,-1.01257 -2.07722,-1.99114 -2.42865,-3.37407 -0.03,-0.0458 -0.0758,-0.10735 -0.1395,-0.0904 z"
         id="path2553"
         transform="scale(0.26458333)" class="IC" />
      <path
         style="fill:#0000ff;stroke:#000000;stroke-width:0.00541908"
         d="m 255.16111,252.62833 c -1.45786,0.52724 -2.2877,2.04219 -2.49171,3.51393 -0.0457,0.53432 -0.32683,1.17749 -0.0701,1.67865 0.52843,0.0235 1.03807,-0.35727 1.47691,-0.62955 0.77684,-0.74874 0.11229,-1.92925 0.41871,-2.84565 0.0594,-0.64062 0.64622,-1.07435 0.7737,-1.667 -0.0156,-0.0434 -0.0662,-0.0564 -0.10754,-0.0504 z"
         id="path2554"
         transform="scale(0.26458333)" class="IC" />
      <path
         style="fill:#0000ff;stroke:#000000;stroke-width:0.00541908"
         d="m 258.1488,261.64496 c -0.55308,0.19578 -0.98528,0.80195 -1.07407,1.36958 0.5016,0.62197 1.45008,0.70227 2.20298,0.69962 1.41226,-0.099 2.63771,-0.95806 3.74657,-1.76713 0.24227,-0.11833 0.16932,-0.40307 -0.1069,-0.2356 -1.24848,0.31067 -2.65032,1.07719 -3.88801,0.30239 -0.28863,-0.12151 -0.55896,-0.34718 -0.88057,-0.36886 z"
         id="path2555"
         transform="scale(0.26458333)" class="IC" />
      <path
         style="fill:#00ff00;stroke:#000000;stroke-width:0.00541908"
         d="m 260.79293,241.7889 c -0.83261,-0.0408 -1.27114,0.7279 -1.46289,1.42172 -0.4104,1.22443 -0.81123,2.47204 -1.48415,3.57844 -0.1637,1.08527 -0.19774,2.22164 -0.033,3.30818 0.15982,0.76757 0.52297,-0.34238 0.73342,-0.60008 1.07916,-2.08911 2.23153,-4.15957 3.06692,-6.36047 0.1297,-0.41233 0.33988,-1.23526 -0.31032,-1.29698 -0.16631,-0.0416 -0.33874,-0.0579 -0.50995,-0.0508 z"
         id="path2556"
         transform="scale(0.26458333)" class="IR" />
      <path
         style="fill:#00ff00;stroke:#000000;stroke-width:0.00541908"
         d="m 256.9964,237.01017 c -2.49254,0.12038 -5.05508,0.32739 -7.38307,1.29041 -0.55224,0.2202 -1.17134,0.57103 -0.15493,0.51075 0.70693,0.0445 1.48612,0.14212 2.00208,0.67087 0.80786,0.17607 1.59804,-0.32563 2.42186,-0.23518 1.19773,-0.0652 2.42577,0.0846 3.60707,-0.10309 0.38388,-0.42931 0.34378,-1.0923 0.53217,-1.61959 0.26997,-0.7109 -0.6498,-0.44885 -1.02518,-0.51417 z"
         id="path2557"
         transform="scale(0.26458333)" class="IR" />
      <path
         style="fill:#00ff00;stroke:#000000;stroke-width:0.00541908"
         d="m 260.22541,238.22036 c -0.70296,0.1075 -0.7449,1.18841 -0.10944,1.4568 0.41449,0.22931 1.04919,0.13564 1.38335,-0.1793 -0.0152,-0.61546 -0.65162,-1.11835 -1.20977,-1.27687 -0.0213,-0.002 -0.0428,-0.002 -0.0641,-6.3e-4 z"
         id="path2558"
         transform="scale(0.26458333)" class="IR" />
      <path
         style="fill:#00ff00;stroke:#000000;stroke-width:0.00541908"
         d="m 265.07041,232.82223 c -1.4554,0.82475 -2.85834,1.80515 -4.06727,2.96949 -0.3707,0.28366 -0.43345,0.78426 -0.10366,1.12668 0.69166,1.03029 1.39045,2.16896 2.4491,2.84788 1.34054,-0.7691 2.54923,-1.7937 3.67496,-2.85351 0.25248,-0.2176 0.56273,-0.59713 0.17597,-0.85729 -1.01522,-0.79209 -1.5562,-1.98608 -2.033,-3.1454 -0.0242,-0.029 -0.0453,-0.096 -0.0961,-0.0879 z"
         id="path2559"
         transform="scale(0.26458333)" class="IR" />
      <path
         style="fill:#00ff00;stroke:#000000;stroke-width:0.00541908"
         d="m 266.8714,226.51472 c -1.06634,0.6969 -1.92445,1.71729 -2.65597,2.75619 -0.59096,0.81819 -0.92973,1.95184 -0.51101,2.91204 0.41243,0.35371 1.13585,0.037 1.4024,-0.3806 0.4417,-0.80258 9e-5,-1.73634 0.3135,-2.57661 0.12691,-1.07582 1.06471,-1.78395 1.50358,-2.69197 -0.0116,-0.0167 -0.0333,-0.022 -0.0525,-0.019 z"
         id="path2560"
         transform="scale(0.26458333)" class="IR" />
      <path
         style="fill:#00ff00;stroke:#000000;stroke-width:0.00541908"
         d="m 268.86567,236.29595 c -0.49123,0.22643 -0.64046,0.89327 -0.75148,1.37848 -0.0923,0.67706 0.77706,0.71657 1.2466,0.68394 1.77079,-0.0697 3.49008,-0.79735 4.85664,-1.89837 -0.24876,-0.13226 -0.69094,0.13827 -0.99258,0.16236 -1.08212,0.21679 -2.24042,0.30995 -3.32723,0.11008 -0.35199,-0.1153 -0.6466,-0.4403 -1.03195,-0.43649 z"
         id="path2561"
         transform="scale(0.26458333)" class="IR" />
      <path
         style="fill:#ffff00;stroke:#000000;stroke-width:0.00541908"
         d="m 251.19566,223.77343 c -1.29947,0.86487 -2.63333,1.76569 -3.67545,2.92757 0.55748,1.29834 2.00601,2.16367 2.10223,3.6564 0.31052,0.26732 0.74896,-0.20622 1.05756,-0.30271 1.39035,-0.82302 2.67353,-1.87914 3.71652,-3.10665 -0.78484,-1.2191 -1.7371,-2.38525 -2.73283,-3.43413 -0.15601,0.0865 -0.31202,0.17301 -0.46803,0.25952 z"
         id="path2562"
         transform="scale(0.26458333)" class="T" />
      <path
         style="fill:#ffff00;stroke:#000000;stroke-width:0.00541908"
         d="m 245.28294,224.99251 c -1.43097,0.0943 -3.10147,0.41267 -3.9481,1.69114 0.30482,0.0806 0.75216,-0.24889 1.09788,-0.28642 0.89141,-0.40356 1.94133,-0.29349 2.72575,0.29319 0.31297,0.26577 0.78697,0.50029 1.1052,0.0934 0.33517,-0.34832 0.88478,-1.02458 0.47374,-1.48897 -0.41011,-0.30125 -0.96632,-0.30156 -1.45447,-0.30229 z"
         id="path2563"
         transform="scale(0.26458333)" class="T" />
      <path
         style="fill:#ffff00;stroke:#000000;stroke-width:0.00541908"
         d="m 250.69546,231.07119 c -0.44348,0.0494 -0.91244,0.12624 -1.28174,0.38506 0.0134,1.32561 0.28458,2.83549 -0.64156,3.94545 -0.23313,0.43562 -0.69171,0.83004 -0.80466,1.29581 0.51154,0.002 0.92111,-0.54472 1.34101,-0.80143 1.4644,-1.11786 2.19695,-3.0927 2.02602,-4.88289 -0.21303,0.0193 -0.42605,0.0387 -0.63907,0.058 z"
         id="path2564"
         transform="scale(0.26458333)" class="T" />
      <path
         style="fill:#ffff00;stroke:#000000;stroke-width:0.00541908"
         d="m 253.60652,223.56535 c -0.18332,-0.022 -0.61798,0.021 -0.38611,0.29635 0.39344,0.56609 0.78905,1.37919 1.53893,1.48305 0.47497,-0.24829 0.66133,-1.03027 0.38399,-1.47394 -0.43911,-0.30671 -1.02495,-0.28506 -1.53681,-0.30546 z"
         id="path2565"
         transform="scale(0.26458333)" class="T" />
      <path
         style="fill:#ffff00;stroke:#000000;stroke-width:0.00541908"
         d="m 255.03347,216.61051 c -0.67044,1.46385 -1.49687,2.87112 -2.05777,4.37802 0.005,0.61434 0.86205,0.56659 1.29868,0.55271 0.96661,0.0614 1.20915,-1.05775 1.4784,-1.7535 0.35581,-1.25684 0.94415,-2.42436 1.44409,-3.62219 0.13156,-1.10121 0.007,-2.31684 -0.30694,-3.3268 -0.61882,1.25725 -1.23764,2.51451 -1.85646,3.77176 z"
         id="path2566"
         transform="scale(0.26458333)" class="T" />
      <path
         style="fill:#ffff00;stroke:#000000;stroke-width:0.00541908"
         d="m 263.12462,223.91716 c -0.84801,0.14124 -1.65511,0.49397 -2.5294,0.51969 -1.16156,0.22967 -2.6649,-0.20467 -3.52049,0.84101 -0.19497,0.30755 -0.36131,0.77002 -0.22439,1.10943 2.28565,0.16163 4.58481,-0.26674 6.81392,-0.74933 0.64893,-0.21453 1.47379,-0.28572 1.95144,-0.80061 -0.47725,-0.332 -1.17434,-0.34866 -1.67695,-0.69496 -0.24547,-0.14544 -0.52628,-0.23899 -0.81413,-0.22523 z"
         id="path2567"
         transform="scale(0.26458333)" class="T" />
      <path
         style="fill:#808080;stroke:#000000;stroke-width:0.00541908"
         d="m 272.17998,257.70935 c -1.47744,-0.0497 -2.8312,0.6899 -3.89792,1.65705 1.19823,-0.0734 2.56422,-0.27078 3.81346,-0.05 0.49685,0.14602 1.12303,0.6744 1.55947,0.10774 0.33952,-0.31676 0.88075,-1.05094 0.27117,-1.37551 -0.52684,-0.29289 -1.15517,-0.34027 -1.74618,-0.33933 z"
         id="path2568"
         transform="scale(0.26458333)" class="OF" />
      <path
         style="fill:#808080;stroke:#000000;stroke-width:0.00541908"
         d="m 278.77941,256.73244 c -1.19885,0.18558 -2.13311,1.09099 -3.07872,1.783 -0.35962,0.38392 -0.98545,0.70525 -1.07683,1.25189 0.40611,0.54469 1.1574,0.77091 1.44135,1.43944 0.41686,0.58035 0.53797,1.40349 1.11133,1.85096 0.80452,-0.0871 1.43524,-0.7577 2.09889,-1.17583 0.71058,-0.63697 1.70203,-1.11568 2.09286,-2.02799 0.009,-0.80773 -0.66665,-1.46041 -1.07747,-2.10476 -0.4043,-0.43752 -0.81446,-1.13275 -1.51141,-1.01671 z"
         id="path2569"
         transform="scale(0.26458333)" class="OF" />
      <path
         style="fill:#808080;stroke:#000000;stroke-width:0.00541908"
         d="m 281.16359,256.18651 c -0.3089,-0.0463 -0.76541,0.16103 -0.47608,0.5237 0.33793,0.52036 0.60361,1.24714 1.21845,1.48114 0.5286,-0.23368 0.73392,-0.97321 0.68246,-1.51543 -0.26727,-0.43551 -0.9711,-0.48081 -1.42483,-0.48941 z"
         id="path2570"
         transform="scale(0.26458333)" class="OF" />
      <path
         style="fill:#808080;stroke:#000000;stroke-width:0.00541908"
         d="m 284.21161,246.17031 c -0.59581,0.4706 -0.85604,1.28679 -1.27597,1.91147 -0.92174,1.76819 -1.98127,3.50539 -2.55422,5.42482 -0.14967,0.63231 0.67128,0.67409 1.098,0.66723 0.62188,0.10556 1.18842,-0.30674 1.32175,-0.91553 0.45684,-1.3824 0.79751,-2.82273 1.58169,-4.06643 0.16821,-0.93717 0.22023,-1.94404 0.009,-2.8774 -0.0306,-0.0728 -0.0898,-0.15687 -0.18014,-0.14416 z"
         id="path2571"
         transform="scale(0.26458333)" class="OF" />
      <path
         style="fill:#808080;stroke:#000000;stroke-width:0.00541908"
         d="m 289.59555,257.01016 c -1.59859,0.0651 -3.25705,0.0553 -4.78636,0.57176 -0.67495,0.36696 -0.59587,1.31016 -0.52138,1.93478 2.4763,-0.32397 4.96487,-0.65691 7.39218,-1.25041 0.26958,-0.0872 1.03748,-0.29179 0.70659,-0.69877 -0.75692,-0.70902 -1.8473,-0.53766 -2.79103,-0.55736 z"
         id="path2572"
         transform="scale(0.26458333)" class="OF" />
      <path
         style="fill:#808080;stroke:#000000;stroke-width:0.00541908"
         d="m 278.38504,263.66949 c -0.69358,0.12308 -1.65896,0.54844 -1.53047,1.40981 0.15416,1.35924 -0.35688,2.68492 -1.22268,3.7199 -0.0386,0.16284 -0.4928,0.50613 -0.30016,0.61346 1.07046,-0.45961 1.97412,-1.34109 2.57156,-2.33143 0.44391,-1.04844 0.83356,-2.22046 0.72921,-3.36157 -0.0604,-0.0687 -0.16666,-0.0481 -0.24746,-0.0502 z"
         id="path2573"
         transform="scale(0.26458333)" class="OF" />
    </g>
    <path
       style="fill:#ffffff;fill-opacity:1;stroke:#000000;stroke-width:0.0064821;stroke-opacity:0"
       d="m 293.92437,259.21527 c -1.15694,0.71204 -2.08905,1.78134 -2.97822,2.79414 -0.14056,1.0645 -0.56553,2.14947 -0.52565,3.21041 0.67705,0.0234 1.4198,-0.21941 2.02945,-0.51958 0.31665,-1.12687 -0.38402,-2.43891 0.42895,-3.46255 0.31579,-0.69283 0.96224,-1.21786 1.19841,-1.93405 -0.0131,-0.0684 -0.0893,-0.10333 -0.15294,-0.0884 z"
       id="path67"
       transform="scale(0.26458333)" class="P" />
    <path
       style="fill:#ffffff;fill-opacity:1;stroke:#000000;stroke-width:0.0064821;stroke-opacity:0"
       d="m 291.74983,265.92551 c -1.29828,0.42401 -2.33342,1.43299 -3.3641,2.29811 -0.38627,0.34299 -0.93964,0.84593 -0.52465,1.38732 0.6128,1.08119 1.31979,2.29833 2.47586,2.85389 1.01792,-0.0346 1.76109,-0.95099 2.56043,-1.48303 0.59761,-0.56645 1.43849,-1.01723 1.85752,-1.67826 -0.95214,-1.03192 -1.96791,-2.05602 -2.66576,-3.27345 -0.0957,-0.0744 -0.21936,-0.10652 -0.3393,-0.10458 z"
       id="path68"
       transform="scale(0.26458333)" class="P" />
    <path
       style="fill:#ffffff;fill-opacity:1;stroke:#000000;stroke-width:0.0064821;stroke-opacity:0"
       d="m 284.05487,269.63778 c -2.77014,0.21035 -5.57128,0.65674 -8.20593,1.50405 0.77936,0.57685 1.90814,0.83092 2.91669,0.94319 1.87266,0.18026 3.8102,0.16291 5.63892,-0.29979 0.92922,-0.33235 1.05078,-2.29185 -0.19649,-2.14897 l -0.12963,0.001 z"
       id="path69"
       transform="scale(0.26458333)" class="P" />
    <path
       style="fill:#ffffff;fill-opacity:1;stroke:#000000;stroke-width:0.0064821;stroke-opacity:0"
       d="m 287.26427,270.85216 c -0.56725,0.27611 -0.77844,1.1086 -0.69227,1.70003 0.44307,0.45066 1.25046,0.0234 1.68738,-0.27144 0.47454,-0.45746 -0.33928,-1.00303 -0.65201,-1.28654 -0.10247,-0.0672 -0.21521,-0.14389 -0.3431,-0.14205 z"
       id="path70"
       transform="scale(0.26458333)" class="P" />
    <path
       style="fill:#ffffff;fill-opacity:1;stroke:#000000;stroke-width:0.0064821;stroke-opacity:0"
       d="m 287.71169,274.37351 c -1.16332,0.0285 -1.45656,1.34879 -1.67704,2.25002 -0.50094,1.83696 -1.33334,3.70272 -1.15078,5.64142 0.0792,0.44941 0.59891,0.35401 0.71683,-0.0256 1.28921,-2.0315 2.43579,-4.18993 3.19801,-6.47678 0.24194,-0.55314 0.04,-1.34741 -0.66644,-1.35972 -0.13863,-0.0246 -0.27984,-0.0359 -0.42058,-0.0294 z"
       id="path71"
       transform="scale(0.26458333)" class="P" />
    <path
       style="fill:#ffffff;fill-opacity:1;stroke:#000000;stroke-width:0.0064821;stroke-opacity:0"
       d="m 296.02169,269.04198 c -0.7434,0.13394 -1.08335,1.02753 -1.26097,1.67547 0.13715,0.50502 0.93289,0.34375 1.32199,0.52819 0.95029,0.20882 2.03278,0.41528 2.84199,-0.29245 0.76812,-0.51939 1.65359,-0.94583 2.29051,-1.61825 -0.20823,-0.34286 -0.79553,0.12113 -1.11983,0.1171 -0.88775,0.28075 -1.88737,0.72724 -2.77651,0.18751 -0.44577,-0.16649 -0.79865,-0.58519 -1.29718,-0.59757 z"
       id="path72"
       transform="scale(0.26458333)" class="P" />
  </g>
</svg>
