<?xml version="1.0" encoding="UTF-8" standalone="no"?>
<!-- Created with Inkscape (http://www.inkscape.org/) -->

<svg
   width="25.979692mm"
   height="24.973774mm"
   viewBox="0 0 25.979693 24.973774"
   version="1.1"
   id="svg1"
   xmlns="http://www.w3.org/2000/svg"
   xmlns:svg="http://www.w3.org/2000/svg">
  <defs
     id="defs1" />
  <g
     id="layer1"
     transform="translate(-96.394754,-54.613003)">
    <g
       id="g2939">
      <path
         id="path1868"
         style="fill:#000000;stroke-width:0.264583"
         d="m 112.99708,79.217962 c -0.33935,-0.403289 -0.74919,-1.391002 -0.9892,-2.384015 -0.0848,-0.35083 -0.30906,-0.776983 -0.53509,-1.016873 -0.35502,-0.376762 -0.45593,-0.412951 -1.15139,-0.412951 -0.64307,0 -0.81491,-0.05045 -1.09897,-0.322596 -0.29787,-0.285374 -0.35544,-0.300035 -0.499,-0.127061 -0.25397,0.30602 -1.06566,0.248047 -1.48733,-0.10623 -0.25111,-0.210984 -0.59806,-0.329412 -1.15329,-0.393663 l -0.79414,-0.0919 0.006,0.361897 c 0.0108,0.70866 0.21092,1.404239 0.48183,1.675167 0.20106,0.201044 0.27501,0.429848 0.27501,0.850768 0,1.314143 -0.96158,0.576813 -1.56009,-1.19625 -0.19021,-0.563491 -0.34584,-1.11166 -0.34584,-1.218152 0,-0.106493 -0.19825,-0.413063 -0.44056,-0.681268 -0.42394,-0.46926 -0.46593,-0.485542 -1.11368,-0.431827 -0.63339,0.05252 -0.70924,0.02596 -1.28506,-0.449852 -0.33655,-0.278122 -0.70517,-0.498504 -0.81915,-0.489741 -0.24847,0.0191 -0.36957,-0.422251 -0.15264,-0.556326 0.0846,-0.05229 0.48051,0.07452 0.88678,0.284041 0.4694,0.242088 0.82661,0.349085 0.99111,0.296875 0.24032,-0.07627 0.24489,-0.106299 0.0698,-0.457184 -0.34566,-0.69292 0.068,-1.157568 0.78724,-0.884134 0.56663,0.215437 0.66315,-0.01786 0.3149,-0.761344 -0.1643,-0.350803 -0.34612,-0.637823 -0.40407,-0.637823 -0.0579,0 -0.10636,-0.128651 -0.10758,-0.28589 -0.005,-0.598488 -0.76059,-2.686635 -1.10125,-3.042203 -0.29628,-0.309266 -0.43812,-0.356704 -1.06651,-0.356704 -0.65444,0 -0.782556,-0.04777 -1.320639,-0.492418 -0.32774,-0.270828 -0.689161,-0.485246 -0.803117,-0.47648 -0.277018,0.0213 -0.354806,-0.408239 -0.09215,-0.509022 0.116179,-0.04458 0.476462,0.06714 0.820711,0.254508 0.955565,0.520089 1.378955,0.448146 1.065085,-0.180991 -0.21474,-0.430448 -0.12047,-0.876109 0.18978,-0.897345 0.38002,-0.02601 0.71853,0.03654 0.87019,0.160782 0.10187,0.08344 0.1733,0.04212 0.22863,-0.132233 0.0791,-0.249185 -0.34499,-1.264798 -0.59537,-1.425866 -0.0665,-0.04279 -0.10618,-0.185732 -0.0881,-0.317653 0.018,-0.131922 -0.14856,-0.811636 -0.37026,-1.510478 -0.3344,-1.054205 -0.4772,-1.32978 -0.838383,-1.617964 -0.352267,-0.281075 -0.556498,-0.344614 -1.070399,-0.333036 -0.552767,0.01246 -0.708051,-0.04548 -1.197821,-0.446791 -0.309483,-0.253606 -0.685456,-0.4611 -0.835502,-0.4611 -0.184917,0 -0.272811,-0.07911 -0.272811,-0.245563 0,-0.372858 0.449659,-0.448775 0.872939,-0.147378 0.789041,0.561851 1.551967,0.633677 1.277171,0.120243 -0.07279,-0.136012 -0.114618,-0.43048 -0.09298,-0.654373 0.03249,-0.335764 0.09951,-0.414017 0.382535,-0.44668 0.188727,-0.02177 0.461168,0.02357 0.605419,0.100777 0.560282,0.299844 0.397537,-0.606335 -0.278685,-1.551771 -0.128482,-0.179655 -0.119195,-0.258101 0.05069,-0.427987 0.229976,-0.229992 0.486516,-0.14492 0.486516,0.161343 0,0.108474 0.228705,0.470397 0.508241,0.804272 0.45437,0.542677 0.50826,0.679326 0.50826,1.288667 0,0.939543 0.33134,1.233593 1.89416,1.680982 0.65743,0.188201 1.65121,0.572048 2.20837,0.85299 1.01102,0.509802 1.60385,0.605002 1.49651,0.240327 -0.0303,-0.103167 -0.0589,-0.3877 -0.0635,-0.632294 -0.008,-0.412686 0.022,-0.447627 0.41293,-0.48515 0.2317,-0.02225 0.5026,0.02708 0.60204,0.109606 0.1435,0.119092 0.19885,0.102957 0.26838,-0.07821 0.0556,-0.144941 -0.0584,-0.50655 -0.31228,-0.990703 -0.29948,-0.571087 -0.36502,-0.804407 -0.26112,-0.929616 0.2159,-0.26012 0.3437,-0.201404 0.53499,0.245787 0.0971,0.227124 0.35523,0.580888 0.57348,0.786143 0.35079,0.329896 0.39727,0.4552 0.40055,1.080027 0.005,1.010843 0.37679,1.389697 1.71752,1.751669 0.55583,0.150069 1.2679,0.342439 1.58236,0.427492 0.31449,0.08506 0.86252,0.298627 1.21785,0.474607 0.70337,0.348345 1.16697,0.314145 1.00095,-0.07384 -0.37896,-0.885685 -0.0435,-1.330581 0.75245,-0.998003 0.41259,0.1724 0.43952,0.167794 0.50604,-0.08661 0.0448,-0.1714 -0.0684,-0.494028 -0.31263,-0.890993 -0.21061,-0.342265 -0.36476,-0.716518 -0.34259,-0.831672 0.0575,-0.298384 0.53086,-0.265144 0.58989,0.04142 0.0266,0.137935 0.24728,0.493607 0.49046,0.790379 0.38235,0.466622 0.44146,0.629489 0.43701,1.204455 -0.004,0.587457 0.0433,0.71192 0.4109,1.068954 0.22884,0.222245 0.61161,0.443328 0.85061,0.491299 1.75358,0.351986 3.19069,1.143479 2.99625,1.650199 -0.11912,0.310382 -0.94549,0.2507 -1.47487,-0.106514 -0.279,-0.188264 -0.73816,-0.338343 -1.2016,-0.392758 l -0.75007,-0.08807 0.079,0.846185 c 0.061,0.652595 0.15452,0.935908 0.40905,1.238375 0.25638,0.304707 0.32284,0.508296 0.298,0.912674 -0.0204,0.329661 0.0502,0.645959 0.19222,0.862722 0.15028,0.229367 0.21254,0.53254 0.18875,0.919258 -0.0299,0.487262 0.0206,0.635627 0.32549,0.953788 0.19855,0.207225 0.53877,0.414732 0.75608,0.461127 1.76765,0.377399 3.34523,1.194154 3.17306,1.64279 -0.15856,0.413213 -1.29174,0.320087 -1.62406,-0.133467 -0.0857,-0.116954 -0.46728,-0.2183 -1.01378,-0.269248 l -0.87635,-0.0817 0.0913,0.806661 c 0.0653,0.576625 0.17929,0.911252 0.39989,1.173425 0.34838,0.414046 0.42336,1.237406 0.13449,1.477145 -0.13716,0.113831 -0.27082,0.03744 -0.62984,-0.359947 -0.34242,-0.379008 -0.55546,-0.825466 -0.85682,-1.795429 -0.50896,-1.638199 -0.8581,-2.014667 -1.87368,-2.020265 -0.52467,-0.0029 -0.77044,-0.07609 -1.10035,-0.327742 -0.29728,-0.226748 -0.45228,-0.279564 -0.51633,-0.175935 -0.14695,0.237768 -1.17957,0.06367 -1.46974,-0.247793 -0.13771,-0.147812 -0.35451,-0.26875 -0.4818,-0.26875 -0.12729,0 -0.50334,-0.03727 -0.83569,-0.08282 l -0.60423,-0.08282 0.0911,0.813424 c 0.0693,0.618336 0.16904,0.896308 0.416,1.159005 0.24717,0.262942 0.32888,0.490823 0.34158,0.952965 0.009,0.33406 0.0859,0.732274 0.17049,0.88492 0.0846,0.152644 0.15547,0.55289 0.15754,0.889434 0.003,0.492673 0.0746,0.689814 0.36772,1.011799 0.20021,0.219945 0.55588,0.440954 0.79041,0.49113 1.82285,0.390006 3.30012,1.160732 3.12074,1.628169 -0.13558,0.353327 -1.17174,0.286872 -1.63748,-0.105024 -0.31081,-0.26153 -0.51211,-0.317656 -1.13927,-0.317656 h -0.76177 l 0.0886,0.730607 c 0.093,0.766779 0.24336,1.175322 0.43256,1.175322 0.18386,0 0.40455,0.837033 0.31488,1.194295 -0.11146,0.444174 -0.46206,0.424299 -0.8601,-0.04875 z m 0.1678,-1.211035 c -0.06,-0.0723 -0.14801,-0.42481 -0.19558,-0.783363 -0.0761,-0.573791 -0.12658,-0.659614 -0.42114,-0.716208 -0.18404,-0.03536 -0.35811,-0.04111 -0.38679,-0.01275 -0.0777,0.07674 0.61074,2.107671 0.78605,2.318888 0.12467,0.150225 0.16658,0.106968 0.23886,-0.246449 0.0482,-0.235757 0.0386,-0.487805 -0.0214,-0.560102 z m -7.82944,-1.827932 c -0.0948,-0.181587 -0.17261,-0.462566 -0.17306,-0.624398 0,-0.161833 -0.06,-0.404839 -0.13232,-0.540015 -0.14893,-0.278297 -0.63082,-0.335643 -0.63082,-0.07507 0,0.170506 0.34258,1.205484 0.63749,1.92582 l 0.15605,0.381186 0.15748,-0.368684 c 0.12756,-0.298633 0.12473,-0.431416 -0.0148,-0.698841 z m 10.62643,-0.08667 c 0,-0.112707 -0.80534,-0.44509 -1.63637,-0.675381 l -0.90487,-0.250756 v 0.361167 c 0,0.339606 0.0398,0.366519 0.66706,0.450805 0.3669,0.0493 0.73935,0.128857 0.82767,0.176795 0.15552,0.08439 1.04651,0.03106 1.04651,-0.06263 z m -3.04951,-0.370549 c 0,-0.380132 -0.13689,-0.403659 -0.4346,-0.07469 -0.20879,0.230722 -0.2082,0.24598 0.0122,0.302916 0.40542,0.104791 0.42254,0.09553 0.42254,-0.228222 z m -0.54819,-0.212741 c 0.41013,-0.385299 0.37002,-0.614487 -0.20595,-1.176914 l -0.50004,-0.488265 -0.45706,0.484643 -0.45707,0.484645 0.47463,0.486082 c 0.54579,0.558927 0.73666,0.593889 1.14549,0.209809 z m -1.85452,-0.359037 c 0.21302,0 0.22421,-0.03301 0.0861,-0.254145 -0.12412,-0.198745 -0.24561,-0.237839 -0.5574,-0.179348 -0.25109,0.0471 -0.54557,-0.0011 -0.79534,-0.130305 -0.21815,-0.112805 -0.39661,-0.1754 -0.39661,-0.139102 0,0.15952 1.08331,0.831504 1.2422,0.770536 0.0969,-0.0372 0.28643,-0.06764 0.42105,-0.06764 z m -0.39311,-0.953526 c -0.0792,-0.09539 -0.12573,-0.362995 -0.10348,-0.594683 0.0337,-0.350877 0.0977,-0.427866 0.38356,-0.460849 0.18873,-0.02178 0.46117,0.02358 0.60542,0.100775 0.21082,0.112824 0.27779,0.100018 0.34121,-0.06523 0.0804,-0.209508 -0.43228,-1.457156 -0.59875,-1.457156 -0.0503,0 -0.12163,-0.185827 -0.15854,-0.412951 -0.0369,-0.227123 -0.21363,-0.887463 -0.39272,-1.467421 -0.41889,-1.356577 -0.83653,-1.762612 -1.74641,-1.697908 -0.50202,0.0357 -0.68188,-0.01606 -1.06127,-0.305441 -0.34514,-0.26326 -0.49265,-0.312589 -0.60343,-0.201813 -0.25693,0.256947 -1.06135,0.172752 -1.45195,-0.151972 -0.3959,-0.329123 -1.74101,-0.567957 -1.88516,-0.334724 -0.17658,0.285745 0.0954,1.54264 0.4064,1.878253 0.24776,0.267346 0.30351,0.449644 0.27898,0.912101 -0.0201,0.380638 0.0456,0.694343 0.19264,0.918803 0.14748,0.225081 0.21156,0.532013 0.18868,0.903801 -0.0556,0.903975 0.36779,1.299789 1.80035,1.683168 0.63344,0.169521 1.25344,0.362661 1.37776,0.429196 0.12433,0.06654 0.33536,0.09244 0.46895,0.05757 0.13452,-0.03512 0.55173,0.10554 0.93504,0.315228 0.53324,0.291697 0.74662,0.349485 0.9294,0.251666 0.18319,-0.09803 0.20447,-0.166502 0.0933,-0.300405 z m -2.44546,0.23813 c 0.15724,-0.04214 0.28588,-0.119078 0.28588,-0.170979 0,-0.09796 -1.27989,-0.544195 -2.00123,-0.697727 -0.459,-0.0977 -0.46394,-0.09137 -0.28903,0.368741 0.0969,0.255001 0.21447,0.327872 0.54002,0.334857 0.22886,0.0049 0.53046,0.05807 0.67021,0.118131 0.31692,0.136179 0.43519,0.143177 0.79415,0.04698 z m -2.56376,-0.500087 c -0.0819,-0.32631 -0.0932,-0.330173 -0.3329,-0.113284 -0.3229,0.292219 -0.31329,0.411205 0.0378,0.467273 0.37809,0.06039 0.39428,0.04096 0.29514,-0.353989 z m -0.55621,-0.142488 c 0.19601,-0.187783 0.35637,-0.399791 0.35637,-0.471125 0,-0.147693 -0.89305,-1.093375 -1.03251,-1.093375 -0.11253,0 -0.87342,0.751022 -0.87342,0.862084 0,0.132792 0.93134,1.043845 1.0671,1.043845 0.0694,0 0.28646,-0.153644 0.48246,-0.341429 z m 7.46707,-0.45271 c -0.004,-0.432316 -0.0937,-0.641374 -0.45056,-1.048261 l -0.4458,-0.508246 0.2822,0.59721 c 0.22019,0.46597 0.25374,0.661019 0.15267,0.887563 -0.12065,0.270348 -0.008,0.425765 0.4345,0.599289 0.0175,0.0069 0.0296,-0.230547 0.027,-0.527555 z m -9.21416,-0.151601 c -0.17481,-0.266772 -0.24564,-0.291187 -0.50369,-0.173609 -0.23977,0.109244 -0.41063,0.0833 -0.84781,-0.128712 l -0.5475,-0.265533 0.50827,0.437253 c 0.40629,0.349538 0.61714,0.437628 1.05119,0.439139 l 0.54292,0.0019 z m 16.09803,-0.768348 c -0.0797,-0.220263 -0.14483,-0.520393 -0.14483,-0.666953 0,-0.146564 -0.0347,-0.356921 -0.0771,-0.467461 -0.0938,-0.244528 -0.68524,-0.270666 -0.68524,-0.03028 0,0.197038 0.39918,1.373762 0.64741,1.908466 l 0.16888,0.363831 0.11787,-0.35356 c 0.0779,-0.233701 0.0687,-0.489323 -0.027,-0.754039 z M 104.2674,71.623981 c -0.004,-0.36063 -0.11385,-0.600057 -0.45334,-0.984729 l -0.44857,-0.508249 0.26204,0.533583 c 0.2055,0.418454 0.23479,0.605289 0.13571,0.865938 -0.0695,0.182798 -0.12637,0.353034 -0.12637,0.378302 0,0.0416 0.2994,0.139686 0.54002,0.176897 0.0524,0.0081 0.0931,-0.199675 0.0905,-0.461742 z m 6.91869,-1.214319 c -0.0891,-0.293031 -0.19561,-0.690023 -0.23675,-0.882203 -0.0572,-0.267192 -0.14899,-0.349419 -0.39002,-0.349419 -0.38291,0 -0.3845,0.0378 -0.0453,1.071086 0.16565,0.504624 0.34973,0.839208 0.47649,0.866063 0.3189,0.06757 0.37216,-0.124576 0.19558,-0.705527 z m 10.34163,0.293121 c 0.33171,0 0.33251,-0.0021 0.0684,-0.187126 -0.25606,-0.179359 -2.35368,-0.841708 -2.4321,-0.767972 -0.0209,0.01963 0,0.182695 0.044,0.362382 0.0688,0.274288 0.17685,0.340389 0.67326,0.411988 0.3252,0.0469 0.67702,0.133807 0.78184,0.193116 0.10483,0.05931 0.26676,0.08079 0.35984,0.04773 0.0931,-0.03306 0.3202,-0.06011 0.50474,-0.06011 z m -2.7705,-0.243734 c 0,-0.06417 -0.0356,-0.209579 -0.0792,-0.323138 -0.0727,-0.189502 -0.0986,-0.18896 -0.31467,0.0066 -0.12948,0.117184 -0.20481,0.262596 -0.1674,0.323141 0.0909,0.147 0.56129,0.141478 0.56129,-0.0066 z m -0.51747,-0.472244 c 0.36398,-0.462735 0.33686,-0.585727 -0.24527,-1.111636 -0.59598,-0.53843 -0.66075,-0.552201 -0.82717,-0.175869 -0.069,0.155999 -0.25733,0.348724 -0.41854,0.428279 -0.29239,0.144274 -0.29176,0.145968 0.2541,0.667959 0.63976,0.611777 0.87723,0.648496 1.23688,0.191267 z m -1.87701,-0.491112 c -0.0613,-0.35502 -0.10554,-0.377224 -0.44434,-0.222853 -0.235,0.107069 -0.41696,0.08312 -0.85355,-0.112339 -0.62436,-0.279543 -0.62457,-0.280371 0.0646,0.266816 0.5969,0.473948 1.31008,0.51349 1.2333,0.06838 z m -12.93669,-0.693025 c -0.0928,-0.177909 -0.16917,-0.497861 -0.1696,-0.711007 0,-0.438073 -0.19722,-0.692489 -0.53443,-0.692489 -0.28659,0 -0.28538,0.04389 0.0292,1.062464 0.26519,0.858546 0.62762,1.269642 0.76933,0.872635 0.0409,-0.114474 -0.003,-0.353697 -0.0945,-0.531603 z m 12.37326,0.272939 c 0.11986,-0.07616 0.12192,-0.206587 0.009,-0.574353 -0.12407,-0.404214 -0.11407,-0.507796 0.0665,-0.688342 0.17783,-0.177835 0.29462,-0.190619 0.71536,-0.07831 0.68458,0.182721 0.74676,-0.03427 0.27268,-0.951447 -0.36941,-0.714701 -0.73853,-1.724898 -1.02849,-2.814651 -0.22693,-0.852964 -0.76054,-1.258898 -1.66346,-1.265457 -0.5351,-0.0039 -0.76552,-0.06548 -0.93163,-0.249031 -0.18401,-0.203356 -0.33496,-0.232077 -0.9085,-0.172882 -0.60086,0.06202 -0.74874,0.02875 -1.17006,-0.26321 -0.34452,-0.238749 -0.66953,-0.342347 -1.13798,-0.362728 -0.36068,-0.01569 -0.69373,0.0095 -0.74019,0.0559 -0.16002,0.160025 0.1874,1.655805 0.43905,1.890247 0.28032,0.261181 0.45055,0.882652 0.33845,1.2358 -0.0443,0.13948 0.005,0.305914 0.11761,0.3996 0.13094,0.108675 0.19346,0.389673 0.19346,0.869558 0,0.625343 0.0479,0.758439 0.40611,1.127998 0.22336,0.230453 0.50856,0.419003 0.63378,0.419003 0.12523,0 0.76317,0.171532 1.41767,0.381185 0.6545,0.209653 1.27936,0.381185 1.38861,0.381185 0.10925,0 0.2177,0.04946 0.24098,0.109897 0.0385,0.09994 0.97184,0.636217 1.12239,0.644914 0.0349,0.0021 0.13332,-0.04067 0.21863,-0.09487 z m -2.28338,-0.231778 c 0.15724,-0.04214 0.28588,-0.124637 0.28588,-0.18333 0,-0.09924 -1.88844,-0.753078 -2.17506,-0.753078 -0.0709,0 -0.11083,0.157239 -0.0887,0.349419 0.0368,0.319929 0.0972,0.356378 0.71559,0.43185 0.37148,0.04534 0.70977,0.116809 0.75179,0.158827 0.0937,0.09371 0.14856,0.09331 0.51054,-0.0037 z m -2.50949,-0.428162 c 0,-0.139769 -0.0483,-0.254124 -0.10737,-0.254124 -0.0591,0 -0.21085,0.114355 -0.33735,0.254124 -0.2245,0.248063 -0.22193,0.254124 0.10737,0.254124 0.25265,0 0.33735,-0.06381 0.33735,-0.254124 z m -0.6105,-0.214365 c 0.48511,-0.464768 0.44944,-0.703758 -0.1836,-1.229593 l -0.53999,-0.448538 -0.15835,0.302213 c -0.0871,0.166216 -0.27292,0.338582 -0.41296,0.383032 -0.14007,0.04445 -0.25464,0.158276 -0.25464,0.252949 0,0.154366 0.96671,1.081365 1.12771,1.081365 0.036,0 0.22582,-0.153643 0.42183,-0.341428 z m 7.02315,-1.299914 -0.46543,-0.455181 0.26998,0.541821 c 0.215,0.431517 0.2413,0.5954 0.12912,0.805019 -0.0775,0.144759 -0.12195,0.278458 -0.0988,0.297108 0.023,0.01865 0.1564,0.09592 0.29618,0.17171 0.23312,0.126412 0.25744,0.0947 0.29424,-0.383747 0.0352,-0.45807 -0.0164,-0.57695 -0.42529,-0.97673 z m -8.73046,0.720143 c -0.0879,-0.15724 -0.16679,-0.302326 -0.17523,-0.322414 -0.008,-0.02008 -0.15737,0.02819 -0.33099,0.107289 -0.25995,0.118449 -0.4141,0.09536 -0.87407,-0.130934 l -0.55846,-0.274744 0.50824,0.448575 c 0.40843,0.360481 0.61452,0.449511 1.04933,0.453345 0.52424,0.0046 0.53612,-0.0041 0.38118,-0.281117 z m -2.63759,-0.727829 c 0,-0.07989 -1.35568,-0.548659 -2.04402,-0.706782 -0.30649,-0.07041 -0.3248,-0.04919 -0.27146,0.314251 0.0496,0.337958 0.11017,0.390705 0.45575,0.396925 0.21918,0.0039 0.59864,0.07852 0.84322,0.165714 0.42323,0.150876 1.01651,0.05159 1.01651,-0.170108 z m 2.12158,0.277812 c 0.10033,-0.06378 0.11179,-0.160456 0.0337,-0.283943 -0.0651,-0.102981 -0.11927,-0.369215 -0.12036,-0.591629 -0.003,-0.474994 0.28784,-0.625346 0.81782,-0.423839 0.6758,0.256934 0.75809,-0.121386 0.21754,-1.000117 -0.1982,-0.322207 -0.39515,-0.728776 -0.43765,-0.903486 -0.31233,-1.284102 -0.72294,-2.332802 -1.04499,-2.668939 -0.32112,-0.335201 -0.45055,-0.380548 -1.08603,-0.380548 -0.55576,0 -0.80499,-0.06567 -1.08511,-0.28589 -0.27101,-0.21308 -0.53162,-0.285888 -1.02333,-0.285888 -0.5112,0 -0.72892,-0.06501 -0.96713,-0.288753 -0.22987,-0.215913 -0.52094,-0.308692 -1.15385,-0.367794 -0.83126,-0.07762 -0.84632,-0.07359 -0.84089,0.225221 0.0116,0.644176 0.22764,1.409409 0.47315,1.676903 0.31591,0.344172 0.46964,1.011758 0.30416,1.320942 -0.0916,0.171128 -0.0609,0.308068 0.11859,0.529778 0.16634,0.20541 0.24329,0.503389 0.24585,0.951995 0.005,0.822031 0.45985,1.395645 1.2178,1.534734 0.27159,0.04984 0.91231,0.230127 1.4238,0.400637 0.51152,0.170509 0.97605,0.28157 1.0323,0.246799 0.0563,-0.03477 0.40965,0.106211 0.78534,0.313295 0.72776,0.401172 0.84997,0.432647 1.08928,0.280522 z m -4.97115,-0.619731 c -0.0697,-0.181763 -0.10654,-0.178011 -0.34176,0.03486 l -0.2636,0.238561 0.29802,0.07284 c 0.32716,0.07996 0.42752,-0.03311 0.30734,-0.346263 z m -0.55628,-0.129347 c 0.196,-0.187785 0.35636,-0.404894 0.35636,-0.482462 0,-0.07757 -0.22381,-0.359571 -0.49733,-0.626676 l -0.49737,-0.485643 -0.47074,0.47076 -0.47078,0.47076 0.48565,0.497342 c 0.26712,0.27354 0.54239,0.497346 0.61174,0.497346 0.0694,0 0.28646,-0.153644 0.48247,-0.341427 z m 7.47182,-0.399774 c 0,-0.380712 -0.099,-0.595755 -0.45328,-0.984732 l -0.45331,-0.497652 0.28445,0.537064 c 0.23934,0.45194 0.26096,0.588569 0.13637,0.862034 -0.13145,0.288502 -0.11608,0.337836 0.13708,0.439613 0.15684,0.06305 0.29945,0.118266 0.31692,0.122695 0.0175,0.0044 0.0318,-0.211132 0.0318,-0.479022 z m -9.18762,-0.19567 c -0.12555,-0.266047 -0.18521,-0.286608 -0.50652,-0.174596 -0.2657,0.09262 -0.455958,0.0813 -0.703396,-0.04187 -0.586264,-0.291814 -0.605234,-0.276154 -0.14859,0.122722 0.340466,0.29741 0.568486,0.389268 0.972766,0.391885 0.51139,0.0033 0.52356,-0.0061 0.38574,-0.298143 z m 16.15212,-0.553162 c -0.0751,-0.09042 -0.18664,-0.433052 -0.248,-0.7614 -0.12948,-0.693248 -0.23767,-0.835548 -0.59071,-0.777046 -0.25601,0.04243 -0.25595,0.04452 0.0185,0.919615 0.18979,0.60525 0.35338,0.905076 0.52785,0.967385 0.30099,0.107508 0.48694,-0.114157 0.29242,-0.348554 z m -14.71715,-1.01944 c -0.003,-0.362886 -0.10875,-0.597654 -0.45003,-0.984731 l -0.44815,-0.508249 0.27143,0.558459 c 0.21921,0.45103 0.24469,0.617164 0.13237,0.863647 -0.0765,0.167855 -0.13906,0.326896 -0.13906,0.353425 0,0.04348 0.29459,0.14123 0.54001,0.179192 0.0524,0.0081 0.0945,-0.199678 0.0934,-0.461743 z m 7.11733,-0.532516 c 0,-0.06576 -0.0532,-0.152426 -0.11816,-0.192596 -0.065,-0.04017 -0.15676,-0.381918 -0.20394,-0.759444 -0.0742,-0.594338 -0.12859,-0.697158 -0.40505,-0.76655 -0.17563,-0.04408 -0.34649,-0.05297 -0.3797,-0.01976 -0.0332,0.03321 0.0673,0.464825 0.22328,0.959149 0.24609,0.77974 0.32337,0.898769 0.58362,0.898769 0.16499,0 0.29995,-0.0538 0.29995,-0.119563 z m 10.12587,-0.545724 c -0.25437,-0.166976 -2.25311,-0.769665 -2.32246,-0.700305 -0.0357,0.03574 -0.0289,0.208677 0.0151,0.384297 0.0694,0.276479 0.1722,0.330814 0.76656,0.405072 0.3775,0.04717 0.71429,0.130905 0.7484,0.186079 0.0341,0.05517 0.2604,0.03821 0.50292,-0.03769 0.284,-0.08889 0.387,-0.173398 0.28942,-0.237453 z m -2.80619,-0.04394 c -0.0424,-0.110543 -0.0771,-0.292042 -0.0771,-0.403333 0,-0.157877 -0.0719,-0.134761 -0.32734,0.105171 l -0.32735,0.30752 0.29557,0.08315 c 0.46808,0.131673 0.51819,0.12105 0.43625,-0.09251 z m -0.56058,-0.394565 c 0.19601,-0.187785 0.35637,-0.409215 0.35637,-0.492067 0,-0.08285 -0.26667,-0.396467 -0.59264,-0.696926 -0.56213,-0.518152 -0.59777,-0.532455 -0.69202,-0.277714 -0.0546,0.147717 -0.24868,0.366424 -0.43122,0.486018 l -0.33184,0.217445 0.54208,0.552337 c 0.29813,0.303784 0.59852,0.552333 0.66749,0.552333 0.069,0 0.28578,-0.153643 0.48178,-0.341426 z m -1.67661,-0.365768 c 0,-0.03954 -0.0583,-0.180758 -0.12949,-0.313828 -0.1103,-0.206123 -0.17666,-0.22045 -0.44807,-0.09678 -0.25701,0.117099 -0.41008,0.101888 -0.79171,-0.07869 l -0.47313,-0.223859 0.3732,0.392523 c 0.30451,0.320291 0.47402,0.39252 0.9212,0.39252 0.30141,0 0.548,-0.03235 0.548,-0.07188 z m -12.9283,-0.861054 c -0.0525,-0.0809 -0.15364,-0.432983 -0.22468,-0.782402 -0.1137,-0.559372 -0.17066,-0.640115 -0.47647,-0.675516 -0.4174,-0.04831 -0.41846,-0.03452 -0.0778,1.000262 0.31398,0.953588 0.6185,1.29667 0.7751,0.873297 0.0547,-0.147701 0.0564,-0.33474 0.004,-0.415641 z m 10.13293,-0.02932 c 0,-0.10143 -0.41352,-0.300878 -1.02304,-0.493429 -0.56269,-0.17775 -1.0487,-0.323183 -1.08003,-0.323183 -0.0313,0 -0.057,0.164946 -0.057,0.366546 0,0.346966 0.0357,0.371004 0.66816,0.450027 0.3675,0.04592 0.74549,0.131262 0.83997,0.189661 0.23204,0.143404 0.65191,0.02127 0.65191,-0.189622 z m -2.6683,-0.244832 c 0,-0.380132 -0.1369,-0.403661 -0.43461,-0.07469 -0.2088,0.230719 -0.20819,0.24598 0.0122,0.302913 0.40539,0.104791 0.42254,0.09553 0.42254,-0.228219 z m -0.54819,-0.212743 c 0.40976,-0.384956 0.37002,-0.614477 -0.20328,-1.174293 l -0.49733,-0.485642 -0.47075,0.47076 -0.47077,0.47076 0.48564,0.497345 c 0.55687,0.570277 0.74623,0.606478 1.15649,0.22107 z m 7.40955,-0.410546 c 0,-0.31029 -0.12973,-0.58886 -0.4585,-0.984729 -0.62994,-0.758436 -0.63275,-0.759034 -0.26265,-0.05603 0.24122,0.458247 0.29596,0.682916 0.20691,0.849312 -0.21717,0.405826 -0.13627,0.523529 0.41894,0.609402 0.0524,0.0081 0.0953,-0.179975 0.0953,-0.417957 z m -9.18553,-0.245626 c -0.12356,-0.261832 -0.18193,-0.281395 -0.49123,-0.164648 -0.27408,0.103455 -0.45654,0.08423 -0.83256,-0.08772 l -0.48154,-0.220213 0.44471,0.381442 c 0.33713,0.289147 0.5725,0.382267 0.97279,0.384857 0.50919,0.0033 0.52303,-0.0072 0.38783,-0.293716 z m -2.58435,-0.845111 c 0.10462,-0.102137 -1.75778,-0.763683 -2.14997,-0.763683 -0.11036,0 -0.18402,0.124047 -0.18402,0.30987 0,0.272732 0.0723,0.320309 0.60354,0.396994 0.33195,0.04792 0.68932,0.136832 0.79415,0.197585 0.20463,0.1186 0.75541,0.03579 0.9363,-0.140766 z m -2.84226,-0.234257 c 0,-0.354417 -0.14523,-0.425304 -0.39963,-0.195067 -0.26667,0.24134 -0.19994,0.428012 0.15301,0.428012 0.15444,0 0.24662,-0.08707 0.24662,-0.232945 z m -0.54819,-0.29745 c 0.40857,-0.383839 0.37007,-0.61445 -0.19468,-1.165923 l -0.48879,-0.477274 -0.470959,0.470963 -0.470959,0.470961 0.477282,0.488773 c 0.548426,0.561639 0.738926,0.5969 1.148106,0.2125 z m 7.40765,-0.20021 c -0.003,-0.362887 -0.10872,-0.597651 -0.45003,-0.984731 l -0.44813,-0.508247 0.27654,0.568487 c 0.22254,0.45748 0.25104,0.636053 0.14595,0.914495 -0.12973,0.343691 -0.0845,0.39955 0.38227,0.471739 0.0524,0.0081 0.0945,-0.199679 0.0934,-0.461743 z m -9.148502,-0.190595 c -0.0042,-0.346141 -0.20148,-0.487084 -0.516255,-0.368903 -0.226377,0.085 -0.432303,0.05247 -0.779118,-0.123089 -0.679609,-0.34399 -0.702522,-0.296974 -0.100357,0.206102 0.548084,0.457915 1.399963,0.632407 1.39573,0.28589 z m 1.017722,-2.689291 -0.398544,-0.391961 0.221562,0.473117 c 0.174522,0.372705 0.191982,0.538038 0.08218,0.77901 -0.120095,0.263573 -0.101151,0.323075 0.136892,0.430056 0.25578,0.114949 0.27924,0.08623 0.31637,-0.387051 0.034,-0.432675 -0.0212,-0.571426 -0.35846,-0.903171 z" />
      <path
         style="fill:#ff0000;stroke:#000000;stroke-width:0.0103651"
         d="m 391.71699,273.70469 c -0.92762,0.78228 -1.76484,1.69851 -2.46699,2.67064 1.38727,1.19676 2.53814,2.86312 4.16347,3.70837 1.16327,-0.7521 2.33523,-1.77565 2.97309,-3.00791 -0.97558,-1.58069 -2.46756,-2.81488 -3.72902,-4.14201 -0.31352,0.25697 -0.62704,0.51394 -0.94055,0.77091 z"
         id="path2300"
         transform="scale(0.26458333)"
         class="OC" />
      <path
         style="fill:#ff0000;stroke:#000000;stroke-width:0.0033993"
         d="m 390.93253,265.41987 c 0.0304,0.32895 0.29751,0.66756 0.41722,0.99501 0.47282,1.0741 1.19507,2.193 0.9822,3.41399 -0.1623,0.66277 -0.48847,1.30689 -0.61081,1.96853 0.59204,0.37106 1.31798,0.49958 1.99363,0.64375 0.32205,-0.22208 0.25748,-0.72462 0.32651,-1.06873 0.13829,-1.20985 -0.15487,-2.47035 -0.92709,-3.42721 -0.70064,-0.85968 -1.38598,-1.75622 -2.17834,-2.52574 z"
         id="path2337"
         transform="scale(0.26458333)"
         class="OC" />
      <path
         style="fill:#ff0000;stroke:#000000;stroke-width:0.0033993"
         d="m 381.90062,274.78945 c -0.0106,0.19066 0.32303,0.32798 0.43596,0.48624 1.13855,0.94865 2.25218,2.13598 3.7759,2.40252 1.01761,0.0653 2.05653,0.13571 3.06822,-5.5e-4 -0.009,-0.2353 -0.28455,-0.47223 -0.40082,-0.69871 -0.36483,-0.4266 -0.60719,-1.08415 -1.19579,-1.24035 -0.68,-0.0312 -1.24853,0.52558 -1.94636,0.42013 -1.17469,0.009 -2.16358,-0.75021 -3.21805,-1.16811 -0.17147,-0.0646 -0.33788,-0.17068 -0.51906,-0.20117 z"
         id="path2338"
         transform="scale(0.26458333)"
         class="OC" />
      <path
         style="fill:#ff0000;stroke:#000000;stroke-width:0.0033993"
         d="m 396.78237,278.44542 c -0.60794,0.3356 -1.112,0.86674 -1.52703,1.42014 -0.22368,0.25011 -0.10524,0.64732 0.22415,0.7246 0.54024,0.16847 1.13294,0.34193 1.69951,0.23809 0.43562,-0.15911 0.2156,-0.69069 0.15191,-1.01169 -0.14198,-0.44946 -0.15089,-1.00484 -0.48679,-1.36145 -0.019,-0.009 -0.0408,-0.0134 -0.0617,-0.01 z"
         id="path2339"
         transform="scale(0.26458333)"
         class="OC" />
      <path
         style="fill:#ff0000;stroke:#000000;stroke-width:0.0033993"
         d="m 395.27354,282.61952 c -0.45373,-0.0273 -0.81249,0.43245 -0.65238,0.86642 0.58468,2.40673 1.49096,4.72362 2.38279,7.03012 0.18453,0.43335 0.33911,0.88508 0.55893,1.30068 0.20879,-0.16749 0.25704,-0.54638 0.40168,-0.78503 0.29597,-0.64488 0.58462,-1.32362 0.48852,-2.05097 -0.0497,-0.82746 -0.64063,-1.49789 -0.80072,-2.30346 -0.30004,-1.16098 -0.14097,-2.52987 -0.97383,-3.50246 -0.3591,-0.3682 -0.89351,-0.56801 -1.40499,-0.5553 z"
         id="path2340"
         transform="scale(0.26458333)"
         class="OC" />
      <path
         style="fill:#ff0000;stroke:#000000;stroke-width:0.0033993"
         d="m 399.30768,277.87564 c -0.33407,-0.0383 -0.37707,0.36373 -0.26438,0.59182 0.25275,0.67447 0.3844,1.53158 1.04781,1.9372 0.95047,0.41206 2.03419,0.24951 3.02232,0.52025 0.99953,0.17074 1.93566,0.82731 2.98315,0.58081 0.63755,-0.13801 1.34929,-0.25858 1.8485,-0.70669 0.11579,-0.24348 -0.29292,-0.33431 -0.43686,-0.44217 -2.19451,-0.98268 -4.51131,-1.67839 -6.84163,-2.25814 -0.44824,-0.0932 -0.8991,-0.21295 -1.35891,-0.22308 z"
         id="path2341"
         transform="scale(0.26458333)"
         class="OC" />
      <path
         style="fill:#808080;stroke:#000000;stroke-width:0.00541908"
         d="m 385.47661,245.10682 c -1.14103,1.16451 -2.35268,2.29949 -3.45021,3.48218 1.35215,1.26832 2.53953,2.78493 4.13945,3.74954 1.12703,-0.6596 2.1182,-1.60488 2.89752,-2.65493 0.47382,-0.75692 -0.46632,-1.40026 -0.85711,-1.94092 -0.84799,-0.93633 -1.75612,-1.8527 -2.72965,-2.63587 z"
         id="path2574"
         transform="scale(0.26458333)"
         class="OF" />
      <path
         style="fill:#808080;stroke:#000000;stroke-width:0.00541908"
         d="m 375.34823,247.34854 c -0.0201,0.28078 0.46341,0.50388 0.63039,0.73073 0.97282,0.91699 2.15666,1.75713 3.553,1.73482 0.70533,-0.004 1.51211,0.17656 2.16413,-0.12328 -0.0306,-0.61916 -0.38742,-1.27895 -0.87552,-1.66552 -0.90678,-0.23132 -1.7819,0.48366 -2.707,0.32303 -0.99207,-0.0936 -1.82364,-0.73831 -2.765,-0.99978 z"
         id="path2575"
         transform="scale(0.26458333)"
         class="OF" />
      <path
         style="fill:#808080;stroke:#000000;stroke-width:0.00541908"
         d="m 383.88307,237.77752 c 0.36609,1.24977 1.3319,2.42014 1.37636,3.78954 0.0152,0.85377 -0.6314,1.60215 -0.67442,2.40853 0.60817,0.21092 1.26646,0.60618 1.92546,0.49364 0.50368,-0.45991 0.26323,-1.28363 0.3025,-1.88715 -0.0585,-1.94773 -1.59974,-3.36647 -2.80988,-4.7201 -0.0396,-0.0215 -0.0677,-0.0863 -0.12002,-0.0845 z"
         id="path2576"
         transform="scale(0.26458333)"
         class="OF" />
      <path
         style="fill:#808080;stroke:#000000;stroke-width:0.00541908"
         d="m 389.64084,251.09405 c -0.61828,0.36351 -1.24353,0.85289 -1.66002,1.43331 0.58297,0.31216 1.36674,0.41267 2.02072,0.25846 0.37545,-0.40155 0.11489,-1.08843 -0.10838,-1.51755 -0.059,-0.0826 -0.14167,-0.17655 -0.25232,-0.17422 z"
         id="path2577"
         transform="scale(0.26458333)"
         class="OF" />
      <path
         style="fill:#808080;stroke:#000000;stroke-width:0.00541908"
         d="m 388.09555,254.77924 c -0.459,-0.098 -0.74852,0.3472 -0.5944,0.75761 0.48796,2.096 1.08885,4.20969 2.13524,6.10324 0.26478,0.40254 0.64676,1.02152 1.19241,0.94156 0.86223,-0.7211 0.26374,-1.96441 -0.0536,-2.80061 -0.64733,-1.33615 -0.30487,-2.94631 -1.03063,-4.24355 -0.3543,-0.55143 -1.01568,-0.78752 -1.64901,-0.75825 z"
         id="path2578"
         transform="scale(0.26458333)"
         class="OF" />
      <path
         style="fill:#808080;stroke:#000000;stroke-width:0.00541908"
         d="m 392.34974,250.09682 c -0.57029,0.063 -0.25994,0.83897 -0.25837,1.1924 0.0248,0.63797 0.32056,1.37981 1.05641,1.42505 1.66417,0.19064 3.29833,0.55418 4.91782,0.9765 0.90702,-0.008 2.09352,0.0963 2.69324,-0.72671 0.0173,-0.3809 -0.62142,-0.39219 -0.85383,-0.57742 -2.38158,-0.89849 -4.79471,-1.78514 -7.29448,-2.28622 -0.0867,-0.006 -0.17397,-0.0109 -0.26079,-0.004 z"
         id="path2579"
         transform="scale(0.26458333)"
         class="OF" />
      <path
         style="fill:#ff00ff;stroke:#000000;stroke-width:0.00541908"
         d="m 397.36196,226.74482 c 0.0462,0.28622 0.54148,0.50777 0.74492,0.75232 1.08732,0.96382 2.4126,1.86214 3.93814,1.72225 0.55678,-0.0585 1.24339,0.10512 1.72818,-0.19432 0.006,-0.55446 -0.32424,-1.13118 -0.70279,-1.52729 -0.80157,-0.40276 -1.63739,0.34519 -2.46589,0.2864 -1.17068,0.0238 -2.16293,-0.71143 -3.24256,-1.03936 z"
         id="path2580"
         transform="scale(0.26458333)"
         class="IF" />
      <path
         style="fill:#ff00ff;stroke:#000000;stroke-width:0.00541908"
         d="m 407.60318,224.38752 c -1.16432,1.18909 -2.39847,2.349 -3.51923,3.55627 1.27077,1.17118 2.35506,2.6301 3.89687,3.4625 1.12427,0.49919 2.06405,-0.61816 2.76902,-1.33043 0.71298,-0.67562 0.55359,-1.82891 -0.0785,-2.50336 -0.91307,-1.15447 -2.01456,-2.18711 -3.06813,-3.18498 z"
         id="path2581"
         transform="scale(0.26458333)"
         class="IF" />
      <path
         style="fill:#ff00ff;stroke:#000000;stroke-width:0.00541908"
         d="m 406.0255,217.20851 c 0.0954,0.63481 0.57849,1.23545 0.80292,1.859 0.55316,1.09526 0.75828,2.39239 0.24999,3.54823 -0.16824,0.3811 -0.12904,0.87753 0.34928,0.99491 0.38843,0.1447 0.87372,0.36431 1.27793,0.27751 0.47357,-1.50634 0.25997,-3.30527 -0.78768,-4.54027 -0.60124,-0.72233 -1.16369,-1.55811 -1.89244,-2.13938 z"
         id="path2582"
         transform="scale(0.26458333)"
         class="IF" />
      <path
         style="fill:#ff00ff;stroke:#000000;stroke-width:0.00541908"
         d="m 411.48755,230.50812 c -0.47035,0.42112 -1.04984,0.85234 -1.28682,1.44325 0.29083,0.43626 0.97123,0.38287 1.43352,0.52434 0.50813,0.16448 0.74384,-0.38361 0.674,-0.80101 0.0213,-0.50564 0.0128,-1.12569 -0.45173,-1.43563 -0.12299,0.0897 -0.24598,0.17937 -0.36897,0.26905 z"
         id="path2583"
         transform="scale(0.26458333)"
         class="IF" />
      <path
         style="fill:#ff00ff;stroke:#000000;stroke-width:0.00541908"
         d="m 410.02059,234.21278 c -0.57218,-0.007 -0.28114,0.7193 -0.24661,1.04105 0.43605,1.83782 0.91473,3.70054 1.76946,5.39241 0.40533,0.74816 1.55474,0.82985 2.13567,0.27857 0.1924,-0.52518 -0.55762,-0.78427 -0.60267,-1.28237 -0.59408,-1.50602 -0.40946,-3.22053 -1.08169,-4.6947 -0.49563,-0.51135 -1.27951,-0.7185 -1.97416,-0.73496 z"
         id="path2584"
         transform="scale(0.26458333)"
         class="IF" />
      <path
         style="fill:#ff00ff;stroke:#000000;stroke-width:0.00541908"
         d="m 414.47249,229.36545 c -0.19659,0.58973 -0.15468,1.31515 -0.12574,1.95341 0.15035,0.84703 1.24969,0.7962 1.89643,0.95603 1.41896,0.20975 2.86432,0.40458 4.19855,0.94446 0.66737,0.0989 1.73869,0.0161 1.91489,-0.7845 -0.10129,-0.56916 -0.87655,-0.64637 -1.28217,-0.93119 -2.11526,-0.93705 -4.35612,-1.58629 -6.59709,-2.13842 z"
         id="path2585"
         transform="scale(0.26458333)"
         class="IF" />
      <path
         style="fill:#00ff00;stroke:#000000;stroke-width:0.00541908"
         d="m 414.51102,251.53986 c -0.51468,1.0901 -1.27206,2.13962 -2.41043,2.63799 -0.40714,0.19546 -0.9217,0.68674 -0.50783,1.13864 1.16684,1.39418 2.46342,2.73502 3.99657,3.72921 0.62372,-0.30771 1.15708,-0.90263 1.69516,-1.37191 0.67941,-0.65425 1.54875,-1.67713 0.96908,-2.66318 -0.77873,-1.26846 -2.08876,-2.08941 -3.17637,-3.07035 -0.18606,-0.12999 -0.35283,-0.3222 -0.56618,-0.4004 z"
         id="path2586"
         transform="scale(0.26458333)"
         class="IR" />
      <path
         style="fill:#00ff00;stroke:#000000;stroke-width:0.00541908"
         d="m 413.28114,244.63667 c 0.12887,0.63288 0.59569,1.25472 0.84673,1.87609 0.48745,0.86236 0.6845,1.92704 0.19835,2.84105 -0.14127,0.39319 -0.44172,0.98701 0.0866,1.2394 0.48132,0.25887 1.03502,0.58501 1.56539,0.62637 0.30628,-1.10198 0.25601,-2.35357 -0.1594,-3.42862 -0.59285,-1.21807 -1.56186,-2.22569 -2.52452,-3.15471 z"
         id="path2587"
         transform="scale(0.26458333)"
         class="IR" />
      <path
         style="fill:#00ff00;stroke:#000000;stroke-width:0.00541908"
         d="m 404.08395,253.61456 c 0.12788,0.37413 0.65715,0.63823 0.93786,0.95004 1.08906,0.92285 2.26975,2.05575 3.81108,1.96594 0.73054,-0.0104 1.53718,0.14687 2.22939,-0.0921 -0.19729,-0.70827 -0.55499,-1.4197 -0.98093,-2.01459 -0.88954,0.0681 -1.69924,0.77193 -2.63884,0.56012 -1.20609,-0.20516 -2.22133,-0.98316 -3.35856,-1.36938 z"
         id="path2588"
         transform="scale(0.26458333)"
         class="IR" />
      <path
         style="fill:#00ff00;stroke:#000000;stroke-width:0.00541908"
         d="m 419.14645,257.65368 c -0.72571,0.31293 -1.24888,1.00242 -1.76078,1.58677 -0.10927,0.33768 0.51933,0.21129 0.70045,0.25061 0.54621,0.0453 1.45328,-0.0251 1.40982,-0.77749 -0.0158,-0.30933 0.0229,-0.94261 -0.34949,-1.05989 z"
         id="path2589"
         transform="scale(0.26458333)"
         class="IR" />
      <path
         style="fill:#00ff00;stroke:#000000;stroke-width:0.00541908"
         d="m 417.66636,261.49995 c -0.40789,-0.0541 -0.94151,0.15846 -0.84588,0.65537 0.23326,1.6987 0.9101,3.31122 1.5093,4.90893 0.34476,0.68144 0.70305,1.75389 1.62741,1.73474 0.7099,-0.0736 0.61561,-0.97305 0.50783,-1.47543 -0.36586,-1.75031 -0.84311,-3.48661 -1.38462,-5.18708 -0.24643,-0.53887 -0.87559,-0.6752 -1.41404,-0.63653 z"
         id="path2590"
         transform="scale(0.26458333)"
         class="IR" />
      <path
         style="fill:#00ff00;stroke:#000000;stroke-width:0.00541908"
         d="m 422.00374,256.73857 c -0.57275,0.0273 -0.38796,0.8284 -0.40706,1.20511 -0.0317,0.61757 0.33015,1.22389 0.97416,1.31836 1.62342,0.46826 3.43349,0.32998 4.94152,1.15346 0.9215,0.0173 1.92633,-0.24933 2.60645,-0.90198 -1.39683,-0.8296 -3.07783,-1.27353 -4.62157,-1.84434 -1.14773,-0.34718 -2.29501,-0.80524 -3.4935,-0.93061 z"
         id="path2591"
         transform="scale(0.26458333)"
         class="IR" />
      <path
         style="fill:#0000ff;stroke:#000000;stroke-width:0.00541908"
         d="m 436.32937,231.06527 c -0.55897,0.21019 -0.59275,0.99286 -1.04169,1.35561 -0.6017,0.76143 -1.48913,1.24729 -2.22521,1.82344 1.3384,1.4453 2.66662,2.96388 4.31515,4.05965 0.51243,0.17886 0.91824,-0.44479 1.3093,-0.68045 0.72126,-0.69499 1.61109,-1.35829 1.94766,-2.33455 -0.17377,-0.76536 -0.95819,-1.22442 -1.42218,-1.81658 -0.89344,-0.81883 -1.66832,-1.85483 -2.77126,-2.3976 -0.0366,-0.008 -0.0743,-0.0121 -0.11177,-0.01 z"
         id="path2592"
         transform="scale(0.26458333)"
         class="IC" />
      <path
         style="fill:#0000ff;stroke:#000000;stroke-width:0.00541908"
         d="m 426.52423,233.34678 c 0.16288,0.43291 0.6579,0.81815 0.97687,1.19734 0.76181,0.80155 1.76743,1.49462 2.9274,1.38604 0.8185,-0.0288 1.71522,0.10931 2.48876,-0.16596 -0.008,-0.63102 -0.51022,-1.18417 -0.75126,-1.74067 -0.88975,-0.11805 -1.67578,0.41251 -2.5311,0.46867 -1.11101,-0.12574 -2.0742,-0.77927 -3.11067,-1.14542 z"
         id="path2593"
         transform="scale(0.26458333)"
         class="IC" />
      <path
         style="fill:#0000ff;stroke:#000000;stroke-width:0.00541908"
         d="m 434.85394,223.49592 c 0.19854,0.79496 0.73031,1.55923 1.04203,2.34387 0.37998,0.86533 0.93256,1.88381 0.34111,2.79345 -0.27838,0.5468 -0.41178,1.45048 0.34038,1.67632 0.44643,0.13797 0.94489,0.34195 1.4024,0.31266 0.37114,-0.76796 0.20444,-1.70904 0.10711,-2.53088 -0.43671,-1.63523 -1.75957,-2.83144 -2.76584,-4.1293 -0.15582,-0.14079 -0.27603,-0.37761 -0.46719,-0.46612 z"
         id="path2594"
         transform="scale(0.26458333)"
         class="IC" />
      <path
         style="fill:#0000ff;stroke:#000000;stroke-width:0.00541908"
         d="m 440.94871,236.78769 c -0.7993,0.47691 -1.57637,1.14693 -2.1272,1.86238 0.87791,0.19244 1.77851,0.67003 2.69134,0.52857 0.10085,-0.43701 -0.26375,-0.92617 -0.28705,-1.3844 -0.18042,-0.27507 0.0927,-0.88807 -0.27709,-1.00655 z"
         id="path2595"
         transform="scale(0.26458333)"
         class="IC" />
      <path
         style="fill:#0000ff;stroke:#000000;stroke-width:0.00541908"
         d="m 439.62972,240.90661 c -0.46757,-0.0718 -1.06467,0.19975 -0.91722,0.76163 0.36967,1.80425 0.94087,3.59 1.74807,5.24868 0.29373,0.83402 1.50672,1.67067 2.22352,0.84334 0.26331,-0.70924 -0.4961,-1.31729 -0.61282,-1.98262 -0.55119,-1.40026 -0.5201,-2.99438 -1.25867,-4.32002 -0.25095,-0.44558 -0.68616,-0.61499 -1.18288,-0.55101 z"
         id="path2596"
         transform="scale(0.26458333)"
         class="IC" />
      <path
         style="fill:#0000ff;stroke:#000000;stroke-width:0.00541908"
         d="m 443.21986,236.13232 c 0.0644,0.89818 0.0543,2.25648 1.13652,2.55945 1.541,0.46642 3.23464,0.44604 4.71142,1.08001 0.58945,0.29545 1.3197,-0.0211 1.9297,-0.15114 0.379,-0.17748 1.01725,-0.23699 1.17336,-0.66977 -0.46582,-0.51706 -1.28371,-0.57736 -1.89864,-0.86203 -2.31702,-0.73162 -4.62276,-1.56578 -7.02188,-1.98468 z"
         id="path2597"
         transform="scale(0.26458333)"
         class="IC" />
      <path
         style="fill:#ff6600;stroke:#000000;stroke-width:0.00541908"
         d="m 422.02173,279.14032 c -1.12792,1.21971 -2.32737,2.41102 -3.40343,3.65577 1.2298,1.12771 2.26255,2.54269 3.74043,3.36321 1.07955,0.49048 2.01675,-0.54465 2.70002,-1.23453 0.79305,-0.64954 0.71782,-1.86834 0.0502,-2.57788 -0.93249,-1.14887 -2.03425,-2.19694 -3.08719,-3.20657 z"
         id="path2598"
         transform="scale(0.26458333)"
         class="OR" />
      <path
         style="fill:#ff6600;stroke:#000000;stroke-width:0.00541908"
         d="m 420.42988,271.95243 c 0.2215,0.91258 0.79532,1.79334 1.11422,2.70279 0.41996,0.82091 0.33673,1.74707 0.0238,2.58547 -0.33642,0.8243 0.56905,1.38961 1.18791,1.69642 0.19657,0.16389 0.56739,0.26771 0.55546,-0.10478 0.10577,-1.61459 0.1144,-3.4329 -0.98983,-4.74339 -0.59198,-0.73545 -1.18342,-1.52223 -1.8916,-2.13651 z"
         id="path2599"
         transform="scale(0.26458333)"
         class="OR" />
      <path
         style="fill:#ff6600;stroke:#000000;stroke-width:0.00541908"
         d="m 411.44649,281.3342 c -0.0475,0.27994 0.42949,0.49644 0.59779,0.71041 1.1916,0.91841 2.47983,1.84067 3.95614,2.21442 0.72038,-0.19506 1.48735,-0.21159 2.20975,-0.34039 0.1889,-0.42892 -0.30041,-0.8744 -0.56222,-1.17929 -0.69082,-0.77779 -1.78124,-0.17506 -2.65429,-0.27709 -1.27142,-0.0204 -2.37993,-0.72852 -3.54717,-1.12806 z"
         id="path2600"
         transform="scale(0.26458333)"
         class="OR" />
      <path
         style="fill:#ff6600;stroke:#000000;stroke-width:0.00541908"
         d="m 426.22597,285.08078 c -0.6823,0.32123 -1.17935,0.99241 -1.63271,1.58275 -0.10065,0.31142 0.50873,0.2749 0.68945,0.39331 0.4356,0.11209 1.3115,0.4314 1.40726,-0.26842 0.0147,-0.54038 0.18247,-1.3444 -0.34229,-1.69473 -0.0392,-0.0122 -0.0808,-0.0166 -0.12171,-0.0129 z"
         id="path2601"
         transform="scale(0.26458333)"
         class="OR" />
      <path
         style="fill:#ff6600;stroke:#000000;stroke-width:0.00541908"
         d="m 424.21307,289.06147 c -0.47403,0.0731 -0.1413,0.74732 -0.11425,1.04321 0.73633,2.61742 1.56343,5.23885 2.79352,7.67029 0.10366,0.21861 0.49489,0.63999 0.58509,0.18162 0.32045,-1.06258 0.65408,-2.27393 0.10568,-3.32209 -0.61557,-1.55808 -0.48198,-3.32651 -1.19732,-4.84399 -0.43377,-0.67863 -1.46909,-0.64084 -2.17272,-0.72904 z"
         id="path2602"
         transform="scale(0.26458333)"
         class="OR" />
      <path
         style="fill:#ff6600;stroke:#000000;stroke-width:0.00541908"
         d="m 428.86396,284.18282 c -0.27848,0.31703 -0.0627,0.88552 -0.12679,1.28146 -0.0143,0.49487 0.0233,1.15886 0.62191,1.28286 1.78691,0.48789 3.6599,0.59725 5.43347,1.15897 1.12206,0.0963 2.31734,0.0813 3.38185,-0.30229 0.10621,-0.2678 -0.46691,-0.34822 -0.60638,-0.4957 -2.7441,-1.38823 -5.76439,-2.09588 -8.70406,-2.9253 z"
         id="path2603"
         transform="scale(0.26458333)"
         class="OR" />
      <path
         style="fill:#ffff00;stroke:#000000;stroke-width:0.00541908"
         d="m 433.4634,260.8757 c -0.0203,0.24966 0.45691,0.43839 0.61236,0.6394 1.34572,1.04206 2.8235,2.32418 4.62975,2.27738 0.56476,3.4e-4 1.22398,-0.41677 1.04656,-1.06223 -0.0707,-0.42633 -0.0787,-1.3061 -0.70935,-1.20934 -0.85581,0.249 -1.71849,0.73445 -2.63333,0.42929 -1.02423,-0.23387 -1.93932,-0.79702 -2.94599,-1.0745 z"
         id="path2604"
         transform="scale(0.26458333)"
         class="T" />
      <path
         style="fill:#ffff00;stroke:#000000;stroke-width:0.00541908"
         d="m 443.61274,258.7231 c -0.59327,0.21158 -0.63394,1.02282 -1.06836,1.42463 -0.48413,0.74265 -1.33076,1.08315 -1.96273,1.64922 0.18849,0.80086 1.01103,1.28738 1.54315,1.86498 0.92942,0.73233 1.76378,1.80001 2.99173,1.99632 1.10538,-0.0877 1.74788,-1.17463 2.30417,-2.00908 0.36227,-0.49474 0.44294,-1.15465 0.05,-1.65981 -0.92511,-1.21823 -2.10391,-2.25214 -3.36237,-3.11639 -0.15072,-0.0809 -0.31976,-0.1624 -0.49555,-0.14987 z"
         id="path2605"
         transform="scale(0.26458333)"
         class="T" />
      <path
         style="fill:#ffff00;stroke:#000000;stroke-width:0.00541908"
         d="m 442.43854,251.67893 c 0.0854,0.59114 0.54217,1.16205 0.75564,1.74483 0.35552,0.83782 0.87076,1.80253 0.39591,2.69966 -0.0448,0.43695 -0.77095,1.03861 -0.21486,1.30058 0.50665,0.25965 1.0052,0.70508 1.58106,0.75148 0.46584,-0.44493 0.29418,-1.23563 0.39038,-1.81827 0.12724,-0.97112 -0.11567,-1.98964 -0.85968,-2.6656 -0.6627,-0.68246 -1.30458,-1.4285 -2.04845,-2.01268 z"
         id="path2606"
         transform="scale(0.26458333)"
         class="T" />
      <path
         style="fill:#ffff00;stroke:#000000;stroke-width:0.00541908"
         d="m 448.11015,264.65191 c -0.59421,0.23183 -1.13109,0.77899 -1.34016,1.38906 -0.0403,0.61211 0.84805,0.67112 1.28745,0.64098 0.38522,0.0155 0.93538,-0.237 0.71824,-0.7066 -0.17289,-0.38747 -0.15112,-1.20985 -0.66553,-1.32344 z"
         id="path2607"
         transform="scale(0.26458333)"
         class="T" />
      <path
         style="fill:#ffff00;stroke:#000000;stroke-width:0.00541908"
         d="m 446.9006,268.72151 c -0.46096,-0.0139 -1.01896,0.30266 -0.85372,0.83805 0.6581,2.83008 1.73566,5.55916 2.98346,8.17942 0.65025,-1.24356 0.77951,-2.83316 0.2917,-4.20063 -0.49181,-1.29681 -0.39749,-2.72152 -0.8152,-4.02959 -0.25089,-0.60947 -1.00603,-0.81273 -1.60624,-0.78725 z"
         id="path2608"
         transform="scale(0.26458333)"
         class="T" />
      <path
         style="fill:#ffff00;stroke:#000000;stroke-width:0.00541908"
         d="m 450.37389,263.66314 c 0.11281,0.89563 0.15538,2.19468 1.2195,2.49193 1.6575,0.49719 3.42471,0.58377 5.02598,1.28174 1.09838,0.053 2.17703,-0.3582 3.28786,-0.24952 0.66892,0.1091 -0.0336,-0.44663 -0.27603,-0.55636 -2.18379,-1.15277 -4.60331,-1.774 -6.9495,-2.50845 -0.75355,-0.19605 -1.54391,-0.46329 -2.30781,-0.45934 z"
         id="path2609"
         transform="scale(0.26458333)"
         class="T" />
    </g>
    <path
       style="fill:#ffffff;fill-opacity:1;stroke:#000000;stroke-width:0.0064821;stroke-opacity:0"
       d="m 367.69748,218.82624 c -0.37699,0.18927 0.26258,0.56454 0.38943,0.72999 1.58218,1.36965 3.54274,2.82137 5.75311,2.55841 0.86459,-0.23389 0.60644,-1.51135 0.0669,-1.96768 -0.5537,-0.51123 -1.36684,0.0293 -2.0216,-0.0744 -1.55834,0.27718 -2.75432,-0.88019 -4.18779,-1.24628 z"
       id="path73"
       transform="scale(0.26458333)"
       class="P" />
    <path
       style="fill:#ffffff;fill-opacity:1;stroke:#000000;stroke-width:0.0064821;stroke-opacity:0"
       d="m 377.11602,210.44078 c 0.0139,0.64182 0.54773,1.27468 0.71782,1.92528 0.45109,0.98298 0.10768,1.97668 -0.21495,2.93149 -0.0614,0.77232 0.95384,0.9531 1.49797,1.17184 0.51213,-0.30492 0.39964,-1.10952 0.51426,-1.63091 0.11594,-1.02071 0.031,-2.16059 -0.80824,-2.87592 -0.53285,-0.51961 -1.00883,-1.15333 -1.64483,-1.54051 z"
       id="path74"
       transform="scale(0.26458333)"
       class="P" />
    <path
       style="fill:#ffffff;fill-opacity:1;stroke:#000000;stroke-width:0.0064821;stroke-opacity:0"
       d="m 376.60378,218.50568 c -0.54367,0.64562 -1.37502,1.1716 -1.74991,1.8874 1.37155,1.23763 2.5104,2.91511 4.29033,3.59478 1.10602,-0.20117 2.01345,-1.08381 2.65766,-1.9659 0.6858,-1.17672 -0.47376,-2.32112 -1.20222,-3.14432 -0.7376,-0.70058 -1.41614,-1.6087 -2.2462,-2.11808 -0.58322,0.58204 -1.16644,1.16408 -1.74966,1.74612 z"
       id="path75"
       transform="scale(0.26458333)"
       class="P" />
    <path
       style="fill:#ffffff;fill-opacity:1;stroke:#000000;stroke-width:0.0064821;stroke-opacity:0"
       d="m 381.88871,223.06771 c -0.52316,0.30179 -1.34347,1.10294 -0.69708,1.67496 0.63467,0.54742 1.92673,0.27114 1.87728,-0.69809 0.0386,-0.51052 -0.1789,-1.12 -0.64947,-1.32832 -0.17691,0.11715 -0.35382,0.2343 -0.53073,0.35145 z"
       id="path76"
       transform="scale(0.26458333)"
       class="P" />
    <path
       style="fill:#ffffff;fill-opacity:1;stroke:#000000;stroke-width:0.0064821;stroke-opacity:0"
       d="m 385.88153,222.10729 c -1.20717,-0.006 -1.25725,1.95685 -0.22029,2.30317 1.52066,0.49004 3.14961,0.57726 4.65825,1.12677 1.18468,0.23512 2.62116,0.22089 3.54971,-0.64061 -1.74197,-1.08806 -3.82594,-1.66037 -5.78802,-2.30636 -0.72187,-0.19346 -1.44742,-0.45189 -2.19965,-0.48297 z"
       id="path77"
       transform="scale(0.26458333)"
       class="P" />
    <path
       style="fill:#ffffff;fill-opacity:1;stroke:#000000;stroke-width:0.0064821;stroke-opacity:0"
       d="m 381.01363,226.92329 c -0.73005,-0.17965 -0.75694,0.42862 -0.64644,0.96852 0.50173,2.16733 1.15141,4.36723 2.33973,6.26661 0.22128,0.51601 1.05767,0.85352 1.30291,0.17674 0.75794,-1.24265 -0.23439,-2.56575 -0.44147,-3.80958 -0.37738,-1.08934 -0.32266,-2.4721 -1.21045,-3.31034 -0.3926,-0.25064 -0.89133,-0.28022 -1.34428,-0.29195 z"
       id="path78"
       transform="scale(0.26458333)"
       class="P" />
  </g>
</svg>
