<?xml version="1.0" encoding="UTF-8" standalone="no"?>
<!-- Created with Inkscape (http://www.inkscape.org/) -->

<svg
   width="31.511408mm"
   height="35.831474mm"
   viewBox="0 0 31.511408 35.831474"
   version="1.1"
   id="svg1"
   xmlns="http://www.w3.org/2000/svg"
   xmlns:svg="http://www.w3.org/2000/svg">
  <defs
     id="defs1" />
  <g
     id="layer1"
     transform="translate(-128.4139,-50.499934)">
    <g
       id="g2940">
      <path
         id="path1936"
         style="fill:#000000;stroke-width:0.264583"
         d="m 145.27082,86.246692 c -0.0466,-0.04659 -0.0847,-0.189532 -0.0847,-0.317654 0,-0.163769 -0.0943,-0.232947 -0.31766,-0.232947 -0.47611,0 -0.82589,-0.422145 -0.82589,-0.996802 0,-0.667229 0.31001,-0.931902 1.03267,-0.881676 l 0.5556,0.03862 0.0364,1.237586 c 0.0288,0.980678 2.3e-4,1.237586 -0.13767,1.237586 -0.0957,0 -0.21211,-0.03812 -0.25871,-0.08471 z m -0.064,-1.244238 c 0.11414,-0.250473 0.10012,-0.376915 -0.0706,-0.637458 -0.17632,-0.269123 -0.25591,-0.302022 -0.46273,-0.191328 -0.24638,0.131858 -0.36034,0.861266 -0.16508,1.056529 0.18857,0.18859 0.56457,0.06598 0.6984,-0.227743 z m -4.97615,-0.576982 c 0,-1.044731 0.0339,-1.270619 0.19058,-1.270619 0.15671,0 0.1906,0.225888 0.1906,1.270619 0,1.044731 -0.0339,1.270619 -0.1906,1.270619 -0.15672,0 -0.19058,-0.225888 -0.19058,-1.270619 z m 0.81909,1.10813 c -0.0388,-0.100991 -0.0531,-0.519326 -0.0318,-0.929632 l 0.0386,-0.746011 0.46805,-0.03543 c 0.56092,-0.04245 0.75525,0.173572 0.30882,0.343308 -0.27551,0.104743 -0.32369,0.210497 -0.35708,0.78391 -0.0375,0.644371 -0.27739,0.972656 -0.42659,0.58385 z m 1.29712,-0.06987 c -0.29025,-0.320704 -0.2771,-1.192549 0.022,-1.463281 0.30843,-0.279112 0.94713,-0.267451 1.20918,0.02207 0.3221,0.355941 0.27942,1.229537 -0.0721,1.475769 -0.37902,0.265483 -0.90167,0.249899 -1.15911,-0.03457 z m 0.99679,-0.720604 c 0,-0.480009 -0.0212,-0.508246 -0.38118,-0.508246 -0.3242,0 -0.38735,0.05386 -0.42243,0.360154 -0.0636,0.555276 0.058,0.7421 0.45346,0.696616 0.31711,-0.03647 0.35015,-0.08827 0.35015,-0.548524 z m 2.84549,0.746215 c -0.099,-0.119247 -0.17338,-0.510264 -0.17476,-0.918413 -0.003,-0.57649 0.0396,-0.719125 0.21993,-0.755076 0.19245,-0.03836 0.22238,0.06067 0.22238,0.736203 0,0.736756 0.0161,0.778248 0.28588,0.739923 0.24739,-0.03514 0.29443,-0.134546 0.34941,-0.738341 0.0492,-0.540128 0.11507,-0.70752 0.29168,-0.741037 0.20523,-0.03895 0.22436,0.04964 0.19058,0.882602 l -0.0376,0.925897 -0.58759,0.03795 c -0.42354,0.02736 -0.63574,-0.02003 -0.75996,-0.169707 z m 1.91934,-0.04737 c -0.33218,-0.332195 -0.34454,-1.149416 -0.0217,-1.441519 0.12779,-0.115657 0.40481,-0.210286 0.6156,-0.210286 0.51935,0 0.85736,0.396555 0.84064,0.98624 -0.023,0.812506 -0.88678,1.213268 -1.43449,0.665565 z m 0.95298,-0.698842 c 0,-0.479493 -0.0214,-0.508246 -0.37947,-0.508246 -0.41582,0 -0.52882,0.226288 -0.38973,0.780434 0.0637,0.25377 0.14682,0.307821 0.42421,0.275839 0.31115,-0.03588 0.34499,-0.08963 0.34499,-0.548027 z m 0.8259,0 c 0,-0.76237 0.0381,-0.952963 0.19057,-0.952963 0.15248,0 0.19061,0.190593 0.19061,0.952963 0,0.762373 -0.0381,0.952966 -0.19061,0.952966 -0.15247,0 -0.19057,-0.190593 -0.19057,-0.952966 z m 0.85767,0.815727 c -0.2589,-0.150792 -0.29877,-0.498071 -0.0572,-0.498071 0.0909,0 0.22772,0.06254 0.30416,0.138978 0.16335,0.163357 0.56444,0.108532 0.55197,-0.07545 -0.005,-0.06988 -0.18975,-0.188052 -0.41116,-0.262599 -0.51268,-0.172622 -0.72297,-0.482589 -0.53297,-0.785661 0.26934,-0.429702 1.3205,-0.351917 1.3205,0.09772 0,0.300775 -0.0492,0.308588 -0.41865,0.0665 -0.18383,-0.120449 -0.34755,-0.145076 -0.46833,-0.07044 -0.22527,0.139235 -0.20066,0.161311 0.44227,0.396685 0.56801,0.207936 0.72107,0.580932 0.37889,0.923141 -0.23149,0.231463 -0.7729,0.265229 -1.10948,0.06919 z m -0.85764,-2.213413 c 0,-0.104825 0.0857,-0.190592 0.19057,-0.190592 0.10483,0 0.19061,0.08577 0.19061,0.190592 0,0.104826 -0.0858,0.190593 -0.19061,0.190593 -0.10482,0 -0.19057,-0.08577 -0.19057,-0.190593 z m -5.17123,-6.918526 c -0.29343,-0.133207 -1.01423,-0.703728 -1.60182,-1.267827 -0.70408,-0.675945 -1.17202,-1.028682 -1.37244,-1.034569 -0.16727,-0.0049 -0.41466,-0.05221 -0.54975,-0.105116 -0.16476,-0.06452 -0.42974,0.0067 -0.80487,0.216374 -0.52768,0.294941 -0.60703,0.304667 -1.40724,0.172516 -0.4664,-0.07703 -0.97549,-0.106712 -1.1313,-0.06597 -0.19577,0.05119 -0.30859,0.0081 -0.36523,-0.13947 -0.13875,-0.361606 0.15353,-0.492337 1.03687,-0.46374 1.10951,0.03592 1.33858,-0.138528 0.81915,-0.623753 -0.62455,-0.583406 -0.41026,-1.141965 0.43807,-1.141965 0.82791,0 -0.19124,-1.07813 -1.25452,-1.327127 -0.5285,-0.123769 -1.08778,-0.553315 -1.08778,-0.835474 0,-0.244862 -0.84053,-0.904182 -1.35993,-1.066737 -0.41646,-0.130342 -0.84201,0.749721 -0.86376,1.786295 -0.0193,0.925213 -0.30829,1.480301 -0.73853,1.419061 -0.22093,-0.03145 -0.30184,-0.163714 -0.39492,-0.645599 -0.096,-0.497179 -0.0582,-0.843717 0.21034,-1.929123 0.29057,-1.17426 0.30896,-1.376717 0.16344,-1.8 -0.13552,-0.394213 -0.2775,-0.527031 -0.81862,-0.765841 -0.57648,-0.254418 -0.69091,-0.370933 -0.9584,-0.975747 -0.16706,-0.377756 -0.39365,-0.721323 -0.50351,-0.763484 -0.37872,-0.145325 -0.15396,-0.592881 0.29777,-0.592881 0.0525,0 0.31213,0.314479 0.57684,0.698841 0.35557,0.516258 0.56026,0.698842 0.78349,0.698842 0.23968,0 0.30218,-0.06743 0.30218,-0.326009 0,-0.798431 0.64838,-1.088319 1.2242,-0.547349 0.43471,0.408387 0.68019,0.234532 0.68984,-0.488569 0.018,-1.342067 0.16116,-1.751912 1.11348,-3.186216 0.36899,-0.555741 0.44865,-0.785931 0.42,-1.213622 -0.0299,-0.446056 -0.12248,-0.603129 -0.59788,-1.014169 -0.51652,-0.446606 -0.56251,-0.535189 -0.56251,-1.083519 0,-0.344168 -0.087,-0.721329 -0.20531,-0.890257 -0.2309,-0.329668 -0.0957,-0.578321 0.27508,-0.505963 0.14248,0.0278 0.30965,0.297786 0.45977,0.742524 0.20571,0.609378 0.49983,1.016495 0.73435,1.016495 0.0394,0 0.14648,-0.16882 0.23781,-0.375158 0.0913,-0.206335 0.27683,-0.410311 0.41219,-0.453279 0.38751,-0.122984 0.72409,0.0457 0.90451,0.453279 0.0913,0.206338 0.19836,0.375158 0.23781,0.375158 0.23465,0 0.52855,-0.407178 0.73374,-1.016495 0.22884,-0.679601 0.24937,-0.699894 0.74649,-0.737063 0.70861,-0.05298 1.30839,0.440039 1.30839,1.075457 0,0.356214 0.11811,0.56474 0.60355,1.0657 0.67225,0.693719 0.65444,0.695878 1.39768,-0.169662 0.27001,-0.314441 0.41297,-0.614704 0.41297,-0.867441 0,-0.562126 0.60335,-1.129364 1.20128,-1.129364 0.25808,0 0.47818,0.06943 0.50353,0.158827 0.0249,0.08735 0.11025,0.39928 0.19,0.693166 0.21746,0.801494 0.68897,1.187632 0.86032,0.704516 0.13607,-0.383688 0.45003,-0.667075 0.73906,-0.667075 0.28903,0 0.60301,0.283387 0.73909,0.667075 0.17068,0.481357 0.59041,0.139878 0.83828,-0.682032 0.0924,-0.306252 0.18798,-0.628295 0.21248,-0.71565 0.0265,-0.09406 0.25744,-0.158827 0.56658,-0.158827 0.68371,0 1.26481,0.535451 1.26489,1.165548 8e-5,0.332023 0.12872,0.55504 0.59963,1.039381 l 0.59952,0.616657 0.60748,-0.653789 c 0.4757,-0.511936 0.60749,-0.746664 0.60749,-1.081844 0,-0.322003 0.0969,-0.50955 0.39094,-0.757002 0.215,-0.180924 0.50091,-0.328951 0.63532,-0.328951 0.20524,0 0.24437,0.09238 0.24437,0.576842 0,0.630883 -0.26114,1.229278 -1.03439,2.370376 -0.38595,0.56956 -0.49035,0.843182 -0.49035,1.285105 0,0.513035 0.0445,0.592314 0.51594,0.919022 0.32565,0.225668 0.54189,0.487251 0.58626,0.709184 0.0462,0.231108 0.16187,0.364897 0.33737,0.390334 0.41947,0.0608 0.86675,0.823513 0.77375,1.31935 -0.0585,0.311619 0.005,0.551408 0.25813,0.984332 0.53255,0.908759 0.58711,0.923267 1.31323,0.349301 0.39018,-0.308438 0.69292,-0.669722 0.77854,-0.929135 0.14814,-0.448837 0.69379,-0.859242 1.14239,-0.859242 0.20023,0 0.2663,0.07981 0.2663,0.321736 0,0.571494 -0.32443,1.11929 -1.24727,2.106049 -0.7162,0.765802 -0.92112,1.073705 -0.98645,1.482338 -0.0728,0.455213 -0.0339,0.576273 0.33171,1.031166 0.39632,0.493165 0.41066,0.549259 0.33218,1.299996 -0.0545,0.520904 -0.0326,0.844158 0.0651,0.961834 0.18754,0.225978 -0.0238,0.462937 -0.35594,0.399101 -0.18878,-0.03628 -0.254,-0.209521 -0.32676,-0.86808 -0.11991,-1.08527 -0.37989,-1.310616 -0.88011,-0.762921 -0.19185,0.210032 -0.43781,0.381879 -0.54655,0.381879 -0.30337,0 -0.70602,-0.47103 -0.70602,-0.825905 0,-0.327819 -0.0856,-0.374354 -0.43902,-0.238726 -0.27234,0.104508 -0.63471,0.803609 -0.59457,1.147067 0.0436,0.37257 -0.68771,1.188183 -1.06529,1.188183 -0.20125,0 -0.45702,0.20515 -0.81272,0.651907 -0.28549,0.35855 -0.51906,0.694616 -0.51906,0.746813 0,0.326138 1.49521,0.814575 1.95662,0.639156 0.53734,-0.2043 1.47404,0.19661 1.47404,0.630897 0,0.529185 -1.72603,0.570526 -3.60733,0.0864 -0.5149,-0.132503 -0.72252,-0.128871 -1.21155,0.02119 -0.49694,0.15249 -0.64339,0.276418 -0.92705,0.784498 -0.30149,0.539993 -0.41947,0.631285 -1.12284,0.868809 -0.43224,0.145979 -0.85645,0.361868 -0.94265,0.479753 -0.19198,0.262562 -0.61153,0.138846 -0.55229,-0.162861 0.0228,-0.11529 0.38364,-0.416706 0.80224,-0.669811 0.78605,-0.475287 1.06378,-0.900208 0.58835,-0.900208 -0.36211,0 -0.87746,-0.253937 -0.96189,-0.473993 -0.0417,-0.108554 0.10708,-0.363699 0.35875,-0.61536 0.35917,-0.359183 0.40039,-0.454401 0.25053,-0.578771 -0.24627,-0.204388 -1.44153,-0.312322 -1.44153,-0.130172 0,0.290076 -0.76602,0.55091 -1.37916,0.469611 -0.63013,-0.08355 -1.92784,0.249471 -2.01502,0.517099 -0.0869,0.266925 0.94748,1.416455 1.4128,1.570027 0.75422,0.248915 1.26696,1.406803 0.61944,1.39882 -0.12449,-0.0016 -0.46641,-0.111775 -0.7598,-0.244983 z m 0.0382,-0.579577 c -0.0768,-0.245391 -0.2255,-0.473525 -0.33047,-0.506963 -0.10493,-0.03344 -0.38888,-0.308409 -0.63095,-0.611042 -0.34022,-0.425307 -0.50654,-0.537554 -0.7325,-0.494361 -0.16076,0.03074 -0.31996,0.100597 -0.35372,0.155247 -0.0953,0.154178 1.89098,1.892295 2.17448,1.902809 0.007,2.62e-4 -0.05,-0.2003 -0.12684,-0.44569 z m 4.02841,-0.330221 c 0.42418,-0.138208 0.69311,-0.392211 1.02772,-0.970714 0.0647,-0.111848 -0.0185,-0.15883 -0.28096,-0.15883 -0.30874,0 -0.38531,0.0626 -0.44566,0.364429 -0.0503,0.251357 -0.24247,0.47016 -0.61944,0.705192 -0.3006,0.18742 -0.46078,0.313034 -0.35595,0.279138 0.10483,-0.03389 0.40825,-0.132541 0.67429,-0.219215 z m -8.47622,-1.854169 c -0.32821,-0.171968 -0.36877,-0.166057 -0.54025,0.07876 -0.13964,0.199403 -0.33245,0.268404 -0.78171,0.279776 l -0.59634,0.01508 0.63531,0.155686 c 0.56716,0.138993 0.68906,0.128929 1.13657,-0.09385 l 0.50126,-0.249539 z m 10.27965,0.283983 c 0.48162,-0.139742 0.50742,-0.172572 0.49279,-0.626708 -0.0241,-0.749842 -0.22651,-0.86936 -1.06458,-0.628938 -0.8245,0.236521 -1.00034,0.365582 -0.78777,0.578143 0.0838,0.08386 0.15245,0.342252 0.15245,0.574202 0,0.465791 -0.0326,0.462999 1.20711,0.103301 z m 3.97068,0.113842 c -0.19219,-0.104259 -0.34943,-0.244914 -0.34943,-0.312565 0,-0.06765 -0.16434,-0.123005 -0.36521,-0.123005 -0.20087,0 -0.61238,-0.08721 -0.91448,-0.193792 -0.5194,-0.183258 -0.56303,-0.179998 -0.80304,0.06 -0.13959,0.139586 -0.22135,0.286234 -0.18171,0.325887 0.12221,0.122211 1.78731,0.418944 2.39151,0.426185 l 0.57177,0.0069 z m -12.4184,-0.24729 c 0.088,-0.106098 0.16653,-0.401722 0.17438,-0.656939 0.014,-0.459452 0.007,-0.466267 -0.73874,-0.690158 -0.79767,-0.239514 -0.99608,-0.220596 -0.87924,0.08384 0.0396,0.103127 -0.0246,0.334968 -0.14277,0.515202 -0.25995,0.396719 -0.22981,0.431567 0.60635,0.701604 0.84717,0.273587 0.79362,0.271047 0.98002,0.04645 z m 0.94993,-0.18647 c 0.0323,-0.0522 -0.0478,-0.191207 -0.1778,-0.308901 -0.2245,-0.203171 -0.24294,-0.195416 -0.36452,0.153379 -0.12041,0.345418 -0.1098,0.363878 0.1778,0.308901 0.16823,-0.03216 0.33227,-0.10118 0.36452,-0.153379 z m 8.76729,-0.765993 c -0.0323,-0.0522 -0.19722,-0.121396 -0.36661,-0.153773 -0.2168,-0.04144 -0.29255,-0.0083 -0.25598,0.11189 0.18933,0.622609 0.166,0.603091 0.43275,0.361664 0.13668,-0.12368 0.22209,-0.267579 0.18984,-0.319781 z m -7.5134,0.178835 c 0.32954,-0.112292 0.6971,-0.181674 0.81677,-0.154184 0.11967,0.02749 0.34419,-0.08076 0.49892,-0.240554 0.1638,-0.169156 0.21691,-0.296158 0.12708,-0.303998 -0.55668,-0.04858 -2.632,0.238718 -2.632,0.36436 0,0.106725 0.40516,0.538539 0.50531,0.538539 0.0466,0 0.35435,-0.09187 0.68392,-0.204163 z m 4.90974,-0.415611 c 0,-0.05642 -0.18582,-0.201564 -0.41296,-0.32254 -0.37754,-0.201096 -0.47832,-0.20402 -1.17531,-0.03408 l -0.76237,0.185875 0.71091,0.01407 c 0.53348,0.01056 0.7674,0.07648 0.93718,0.26411 0.17441,0.192707 0.28088,0.220813 0.46442,0.122592 0.13097,-0.0701 0.23813,-0.173606 0.23813,-0.230029 z m -5.32064,-0.328075 c 0.9611,-0.183888 2.7292,-0.28825 2.84927,-0.16818 0.0364,0.03639 0.42151,-0.01016 0.85582,-0.103446 0.76015,-0.163264 0.81296,-0.157719 1.41394,0.148425 0.51204,0.260856 0.72905,0.302901 1.20708,0.233874 0.48913,-0.07063 0.71554,-0.211315 1.40872,-0.875369 0.45424,-0.435166 1.15332,-1.000673 1.55353,-1.256678 0.65923,-0.421712 0.74684,-0.531535 0.93196,-1.168353 0.18352,-0.631272 0.26721,-0.73787 0.8213,-1.046252 0.51324,-0.285639 0.6386,-0.428988 0.74567,-0.852633 0.11322,-0.447826 0.078,-0.644136 -0.29175,-1.627151 -0.23128,-0.614838 -0.48594,-1.183298 -0.56587,-1.263247 -0.0799,-0.07995 -0.14536,-0.23208 -0.14536,-0.338061 0,-0.353245 -0.4069,-1.263899 -0.5974,-1.336998 -0.23125,-0.08874 -0.4191,0.01622 -0.4191,0.234175 0,0.270785 -0.46757,0.607208 -0.78166,0.562417 -0.16439,-0.02344 -0.40749,-0.222171 -0.55049,-0.450033 -0.14087,-0.22443 -0.29493,-0.410257 -0.34235,-0.412951 -0.1955,-0.01109 -0.48781,0.420976 -0.62373,0.921981 -0.0797,0.293885 -0.16523,0.605811 -0.18999,0.693166 -0.0267,0.09398 -0.25818,0.158826 -0.56706,0.158826 -0.66339,0 -1.26484,-0.537032 -1.26484,-1.12936 0,-0.360577 -0.47207,-1.059122 -1.01648,-1.504141 -0.29326,-0.239712 -1.39768,0.937879 -1.39768,1.490271 0,0.576456 -0.59558,1.14323 -1.20132,1.14323 -0.25831,0 -0.47791,-0.06934 -0.50302,-0.158826 -0.0246,-0.08736 -0.12015,-0.409398 -0.21249,-0.715651 -0.24789,-0.821909 -0.6676,-1.163386 -0.83831,-0.682032 -0.27641,0.779409 -0.93403,0.889548 -1.32768,0.222358 -0.14433,-0.244594 -0.29964,-0.443841 -0.34514,-0.442769 -0.2312,0.0054 -0.39942,0.258331 -0.63262,0.951018 l -0.25668,0.762371 -0.56284,0.03797 c -0.51046,0.03443 -0.60103,-0.0055 -0.97317,-0.429363 -0.26066,-0.296873 -0.3874,-0.55503 -0.34745,-0.707776 0.0587,-0.224579 -0.69979,-1.347547 -1.061,-1.570789 -0.22747,-0.140576 -1.26794,1.080034 -1.26794,1.487448 0,0.19863 -0.15409,0.526753 -0.35936,0.76514 -0.27958,0.324694 -0.33882,0.48791 -0.2668,0.735029 0.15954,0.547327 0.12832,0.703119 -0.25768,1.285864 -0.35309,0.533045 -0.36642,0.598175 -0.22236,1.085763 0.11057,0.374248 0.33018,0.660513 0.78854,1.027932 0.75216,0.602893 1.42515,1.316445 1.84134,1.952369 0.22664,0.346249 0.47615,0.521631 1.00875,0.70903 0.58817,0.206947 0.77862,0.354529 1.12797,0.874107 0.42641,0.634203 1.23074,1.105476 1.68863,0.989401 0.11163,-0.0283 0.62783,-0.132752 1.1471,-0.232103 z m 8.82039,-0.6517 c 0.38131,-0.390562 0.69329,-0.779373 0.69329,-0.864021 0,-0.08465 0.0686,-0.22252 0.15247,-0.306382 0.10335,-0.103344 0.1074,-0.152474 0.0127,-0.152474 -0.17531,0 -1.52262,1.008885 -1.93145,1.446278 l -0.30517,0.326507 0.30517,0.122049 c 0.16785,0.06713 0.32197,0.125675 0.3425,0.130104 0.0204,0.0044 0.34928,-0.311497 0.73059,-0.702061 z m -11.63172,0.39553 c 0,-0.232394 -0.55764,-0.898109 -0.85815,-1.024466 -0.85762,-0.360596 -0.98766,-0.344628 -0.44424,0.05454 0.38492,0.282728 0.54002,0.487682 0.54002,0.713525 0,0.267357 0.0596,0.316857 0.38118,0.316857 0.20966,0 0.38119,-0.02721 0.38119,-0.06046 z m -6.22604,-1.757981 c 0,-0.106413 0.11173,-0.454123 0.24828,-0.772684 l 0.24829,-0.579205 -0.26898,-0.188404 c -0.14795,-0.103622 -0.31242,-0.161568 -0.36549,-0.128768 -0.12962,0.08012 -0.49739,1.721496 -0.49739,2.21995 v 0.397616 l 0.31765,-0.37751 c 0.17471,-0.207632 0.31764,-0.46458 0.31764,-0.570995 z m 23.25235,-0.461587 c 0,-0.483492 -0.0713,-0.710359 -0.30959,-0.984731 -0.30332,-0.349287 -0.31337,-0.351423 -0.4957,-0.105548 -0.16806,0.226637 -0.1596,0.26902 0.0872,0.437351 0.37386,0.254947 0.45972,0.400547 0.46199,0.783492 0.003,0.29137 0.0903,0.49766 0.21371,0.49766 0.0233,0 0.0424,-0.282702 0.0424,-0.628224 z m -19.56755,-0.107159 c 0,-0.174403 -1.86765,-1.8865 -1.95864,-1.795507 -0.0295,0.02953 -0.0918,0.205557 -0.13837,0.391157 -0.0753,0.300128 -0.0214,0.374468 0.48635,0.672113 0.31407,0.184063 0.60146,0.413917 0.63863,0.510789 0.0372,0.09687 0.2282,0.200276 0.42452,0.229788 0.1963,0.02951 0.39982,0.06222 0.45223,0.07269 0.0524,0.01048 0.0953,-0.02601 0.0953,-0.08103 z m 16.61093,-0.917027 c 0.26943,-0.04911 0.36127,-0.145828 0.39204,-0.412951 0.0488,-0.423461 -0.0664,-0.43529 -0.61257,-0.06293 -0.29072,0.198181 -0.4713,0.461301 -0.58864,0.857668 -0.22696,0.766654 -0.21572,0.781328 0.14608,0.190593 0.20994,-0.342832 0.42576,-0.529122 0.66309,-0.572384 z m 2.18406,-0.879094 c 0.1732,-0.828723 0.11036,-0.914638 -0.72784,-0.995177 l -0.62593,-0.06014 -0.0891,0.491027 c -0.049,0.270066 -0.11996,0.619678 -0.15771,0.776917 -0.061,0.254093 -0.0204,0.285888 0.36557,0.285888 0.23881,0 0.5452,0.08192 0.68085,0.182039 0.31626,0.233426 0.37928,0.15603 0.55412,-0.680551 z m -21.46329,0.381844 c 0,-0.06417 0.0332,-0.203176 0.0738,-0.308904 0.0631,-0.164573 0.009,-0.172294 -0.37775,-0.05366 -0.40704,0.124923 -0.42995,0.154958 -0.2326,0.304861 0.25607,0.194492 0.53658,0.224655 0.53658,0.0577 z m -0.34028,-0.594117 c 0.64569,-0.220009 0.66011,-0.251933 0.45342,-1.004551 -0.20101,-0.732028 -0.34949,-0.881362 -0.62683,-0.63038 -0.12271,0.111064 -0.40042,0.206975 -0.61709,0.213135 -0.21666,0.0062 -0.39364,0.07397 -0.39325,0.150693 0.003,0.414091 0.40762,1.473642 0.56399,1.473642 0.014,0 0.29284,-0.09114 0.61976,-0.202539 z m -1.43859,-1.258675 c 0,-0.240499 -0.0665,-0.317654 -0.27364,-0.317654 -0.15782,0 -0.47892,-0.222366 -0.75869,-0.525399 l -0.48503,-0.525396 0.27387,0.648213 c 0.21534,0.509712 0.37065,0.688443 0.72691,0.836504 0.24919,0.103561 0.46736,0.191238 0.48483,0.194839 0.0175,0.0036 0.0318,-0.136395 0.0318,-0.311107 z m 23.03817,0.0953 c -0.14558,-0.409054 -0.19095,-0.430681 -0.43675,-0.208224 -0.18778,0.16992 -0.20696,0.245118 -0.0827,0.323985 0.30212,0.191751 0.60486,0.124288 0.51943,-0.115761 z m 1.47574,-0.68245 c 0.33424,-0.357876 0.71059,-0.824812 0.83632,-1.037638 0.22262,-0.376872 0.22227,-0.384323 -0.0135,-0.28594 -0.13311,0.05556 -0.37068,0.128915 -0.52789,0.163017 -0.15724,0.0341 -0.28591,0.134319 -0.28591,0.222703 0,0.132141 -0.49715,0.589243 -1.05376,0.96884 -0.14123,0.09632 0.11647,0.619702 0.30515,0.619702 0.0725,0 0.40531,-0.292806 0.73956,-0.650684 z m -2.15252,-0.09454 c 0,-0.04438 -0.1438,-0.329525 -0.31766,-0.633666 -0.17388,-0.304139 -0.3193,-0.647208 -0.32316,-0.762371 -0.008,-0.255876 -0.75602,-0.88239 -0.75396,-0.632005 0.003,0.205545 0.31213,1.247511 0.58767,1.972421 0.19878,0.522934 0.20862,0.529448 0.50567,0.334807 0.16663,-0.109175 0.30226,-0.23481 0.30144,-0.279186 z m -20.07529,-0.07904 c 0.25704,-0.415907 0.26353,-0.487977 0.10578,-1.175325 l -0.16803,-0.732245 -0.038,0.650629 c -0.0285,0.488101 -0.11295,0.721069 -0.33811,0.93262 -0.28147,0.264403 -0.28702,0.296465 -0.0893,0.514104 0.11602,0.127664 0.22059,0.236881 0.23236,0.242704 0.0116,0.0058 0.14462,-0.188796 0.29522,-0.432487 z m 4.94377,-2.881501 c 0.0106,-0.38513 0.11157,-0.552746 0.58444,-0.968983 0.50678,-0.446072 0.57179,-0.563894 0.57179,-1.036167 0,-0.383405 -0.10615,-0.687168 -0.37849,-1.082992 -0.58841,-0.855208 -1.14607,-1.997057 -1.14821,-2.351051 -0.003,-0.254005 -0.0277,-0.281307 -0.1251,-0.130566 -0.0678,0.104825 -0.12406,0.457329 -0.12512,0.783338 -0.003,0.540409 -0.0514,0.636284 -0.56213,1.085845 -0.46741,0.411422 -0.56645,0.579557 -0.59788,1.015079 -0.0306,0.423654 0.0485,0.651812 0.41989,1.211167 0.6231,0.938456 1.11673,1.934938 1.13202,2.285209 0.0124,0.282811 0.0153,0.282115 0.11441,-0.02754 0.0559,-0.174712 0.10742,-0.527214 0.11438,-0.783339 z m 10.12851,-1.06408 c 0.48644,-0.398603 0.55737,-0.520255 0.55737,-0.956156 0,-0.363781 -0.11676,-0.663472 -0.42981,-1.103286 -0.51591,-0.724826 -1.09009,-1.842503 -1.1076,-2.156124 -0.0198,-0.355476 -0.21394,0.338079 -0.22881,0.817652 -0.0103,0.330309 -0.12163,0.489088 -0.57947,0.825902 -0.51474,0.378669 -0.56729,0.466725 -0.57179,0.95843 -0.004,0.423912 0.10213,0.699735 0.48832,1.270619 0.66688,0.985755 1.02798,1.727295 1.04873,2.153554 0.01,0.194964 0.0731,-0.0299 0.14147,-0.4997 0.11565,-0.795112 0.16277,-0.885761 0.68159,-1.310891 z m -9.14114,0.703861 c 0.33218,-0.168913 0.3584,-0.22265 0.2304,-0.472406 l -0.14444,-0.28181 -0.39182,0.345342 c -0.32123,0.28312 -0.40486,0.471257 -0.46418,1.044183 l -0.0724,0.698841 0.23381,-0.57178 c 0.15179,-0.371187 0.36531,-0.638641 0.60862,-0.76237 z m 3.02906,0.51781 c -0.0691,-0.502475 -0.17413,-0.714245 -0.48321,-0.974322 -0.36873,-0.310251 -0.40108,-0.31667 -0.4876,-0.09672 -0.14534,0.369493 -0.1319,0.402087 0.23889,0.579374 0.23093,0.110413 0.41214,0.348059 0.53438,0.700812 0.23654,0.682562 0.30956,0.605266 0.19754,-0.20914 z m -4.95168,-0.481782 c -0.25191,-0.474062 -0.54102,-0.971677 -0.64246,-1.10581 -0.17873,-0.236305 -0.19241,-0.236681 -0.44059,-0.01206 -0.32805,0.296891 -0.32649,0.306705 0.1265,0.790022 0.20982,0.223853 0.43685,0.552624 0.50453,0.730604 0.0677,0.17798 0.2032,0.323599 0.30121,0.323599 0.098,0 0.25455,0.09204 0.34792,0.204526 0.35685,0.429982 0.24477,-0.09927 -0.19711,-0.930868 z m 6.28039,0.516006 c 0.003,-0.08074 0.20426,-0.386336 0.44884,-0.679095 0.50509,-0.604536 0.50601,-0.608171 0.24222,-0.952966 l -0.19439,-0.254124 -0.19238,0.254124 c -0.30792,0.406797 -0.77927,1.232802 -0.98602,1.72793 l -0.19097,0.457311 0.43428,-0.203186 c 0.23884,-0.111752 0.43614,-0.269251 0.43842,-0.349994 z m 3.69056,0.278196 c -0.32027,-0.842396 -1.06926,-2.10085 -1.25034,-2.10085 -0.0483,0 -0.16211,0.118899 -0.25286,0.264219 -0.14478,0.231841 -0.12128,0.320394 0.1918,0.722651 0.19624,0.25214 0.41751,0.564928 0.49172,0.695084 0.1033,0.181189 0.69914,0.654444 0.9102,0.722934 0.0159,0.0051 -0.0249,-0.131709 -0.0905,-0.304038 z m 1.45378,-0.828029 c 0.34274,-0.13031 0.36095,-0.178761 0.21085,-0.561329 -0.0884,-0.225269 -0.12271,-0.216464 -0.51181,0.131183 -0.33933,0.303188 -0.4281,0.490323 -0.4762,1.003845 l -0.0591,0.631187 0.25643,-0.540957 c 0.15354,-0.323916 0.38619,-0.590296 0.57986,-0.663929 z m 3.05025,0.453194 c -0.0652,-0.434522 -0.1882,-0.668999 -0.47971,-0.914302 -0.36635,-0.308247 -0.39818,-0.314444 -0.48475,-0.09433 -0.14806,0.37642 -0.1289,0.425479 0.21768,0.557252 0.21026,0.07994 0.40005,0.307628 0.52808,0.633532 0.25117,0.63941 0.33181,0.572227 0.2187,-0.182152 z m -17.7201,0.0977 c 0,-0.115099 0.20794,-0.463045 0.4621,-0.773213 l 0.46212,-0.563944 -0.26985,-0.269848 c -0.26696,-0.266962 -0.27186,-0.267184 -0.45704,-0.02093 -0.22156,0.294659 -0.9597,1.6481 -0.9597,1.759688 0,0.04263 0.17153,0.07751 0.38119,0.07751 0.26924,0 0.38118,-0.06146 0.38118,-0.209272 z m 8.78258,-0.33074 c 0.15103,-0.297008 0.49525,-0.865648 0.76494,-1.263647 0.38547,-0.568831 0.48932,-0.84065 0.4854,-1.270619 -0.004,-0.498269 -0.0554,-0.584124 -0.57176,-0.963965 -0.44561,-0.327813 -0.56682,-0.496022 -0.56682,-0.786638 0,-0.443706 -0.20402,-0.615688 -0.31512,-0.265641 -0.0436,0.137371 -0.36218,0.683159 -0.70797,1.212863 -0.51612,0.790622 -0.62873,1.064786 -0.62873,1.530942 0,0.31232 0.0429,0.568124 0.0953,0.568458 0.0524,2.64e-4 0.30972,0.19754 0.57176,0.43824 0.37899,0.348083 0.47649,0.529955 0.47649,0.888825 0,0.248158 0.0274,0.451194 0.061,0.451194 0.0335,0 0.18449,-0.243004 0.33554,-0.540012 z m -1.76437,-0.794136 c 0.0514,-0.06989 0.0942,-0.396648 0.0953,-0.726136 0.003,-0.651169 -0.19492,-0.862139 -0.8052,-0.862139 -0.64027,0 -0.71758,0.101316 -0.71758,0.940218 v 0.785968 l 0.66707,-0.0054 c 0.36689,-0.003 0.70908,-0.0626 0.76041,-0.132485 z m 9.55429,-0.570087 c 0.0928,-0.790234 -0.0689,-1.018188 -0.72239,-1.018188 -0.64678,0 -0.8568,0.201011 -0.8568,0.81998 0,0.843386 0.0472,0.895356 0.81401,0.895356 h 0.68326 z m -14.97052,-0.09699 c 0.2536,-0.334084 0.2146,-0.412951 -0.20431,-0.412951 -0.42881,0 -0.44519,0.02803 -0.22355,0.382908 0.1923,0.307933 0.21566,0.309573 0.42786,0.03004 z m 9.65927,-0.390218 c -0.11215,-0.02244 -0.32062,-0.02244 -0.46326,0 -0.24839,0.03907 -0.25027,0.05372 -0.044,0.346382 l 0.21534,0.305583 0.24792,-0.305583 c 0.21738,-0.267914 0.2228,-0.310613 0.044,-0.346382 z m -9.25308,-0.258823 c 0.113,-0.07168 0.15343,-0.33759 0.12705,-0.835607 l -0.0387,-0.73047 -0.73059,-0.02021 -0.73062,-0.02021 v 0.783653 c 0,0.508035 0.0559,0.806194 0.15882,0.847741 0.25893,0.104471 1.03519,0.08856 1.21405,-0.02487 z m 9.60892,-0.09064 c 0.20582,-0.205825 0.27564,-1.152633 0.10242,-1.38883 -0.12134,-0.165457 -1.33572,-0.165269 -1.45732,2.25e-4 -0.0513,0.06988 -0.0942,0.395814 -0.0953,0.724292 -0.003,0.436168 0.058,0.632156 0.22043,0.726741 0.33673,0.196128 1.00515,0.162195 1.22978,-0.06243 z m -5.04163,-0.594468 c -0.10441,-0.15724 -0.23308,-0.285891 -0.28589,-0.285891 -0.0528,0 -0.1815,0.128651 -0.28591,0.285891 -0.18549,0.27937 -0.17896,0.28589 0.28591,0.28589 0.46485,0 0.47139,-0.0065 0.28589,-0.28589 z m 9.4869,-0.03068 c -0.2222,-0.339127 -0.35463,-0.322824 -0.5646,0.06952 -0.11943,0.223174 -0.0885,0.24705 0.31991,0.24705 h 0.45212 z m -10.47163,-0.318746 c 0.15412,-0.28797 0.0444,-0.567799 -0.36944,-0.942314 -0.14623,-0.132345 -0.26588,-0.310748 -0.26588,-0.396449 0,-0.0857 -0.20013,-0.308459 -0.44471,-0.49502 -0.39082,-0.298076 -0.44471,-0.311136 -0.44471,-0.107719 0,0.285443 1.10424,2.195626 1.26923,2.195626 0.0657,0 0.18069,-0.114356 0.25551,-0.254124 z m 2.13648,-0.34942 c 0.48356,-0.759796 0.85098,-1.533805 0.76769,-1.617112 -0.10374,-0.103735 -0.74205,0.23813 -0.74313,0.398002 0,0.08074 -0.20111,0.386337 -0.44572,0.679098 -0.24458,0.292759 -0.44471,0.556244 -0.44471,0.585523 0,0.111308 0.31901,0.558033 0.39851,0.558033 0.0458,0 0.25609,-0.271595 0.46736,-0.603544 z m 7.37074,0.338077 c 0.14756,-0.236236 0.11594,-0.329467 -0.28707,-0.846754 -0.24908,-0.319709 -0.45289,-0.623435 -0.45289,-0.674947 0,-0.05151 -0.20013,-0.211735 -0.44471,-0.35605 -0.24461,-0.144311 -0.44461,-0.221432 -0.44445,-0.171376 0,0.132409 0.7557,1.556036 1.04262,1.965175 0.29403,0.419298 0.37028,0.430209 0.5865,0.08395 z m 2.15889,-0.338077 c 0.48356,-0.759796 0.85101,-1.533805 0.76769,-1.617112 -0.10371,-0.103735 -0.74205,0.23813 -0.74313,0.398002 0,0.08074 -0.20111,0.386337 -0.44569,0.679098 -0.24461,0.292759 -0.44472,0.556244 -0.44472,0.585523 0,0.111308 0.31901,0.558033 0.39849,0.558033 0.0458,0 0.25612,-0.271595 0.46736,-0.603544 z m -17.01016,-0.658201 c -0.26448,-0.128828 -0.44427,-0.369202 -0.61775,-0.825902 l -0.24466,-0.644184 0.0676,0.762371 c 0.0582,0.656105 0.12322,0.809836 0.4667,1.102886 l 0.3991,0.340513 0.15105,-0.276984 c 0.1348,-0.247182 0.11091,-0.296532 -0.22201,-0.4587 z m 3.05866,-0.373375 c 0,-0.25377 0.0318,-0.604345 0.0686,-0.779055 0.0368,-0.174712 -0.0556,-0.01246 -0.20537,0.360574 -0.20555,0.512107 -0.36062,0.709049 -0.63314,0.804045 -0.32322,0.112676 -0.34658,0.157245 -0.22376,0.426815 l 0.13713,0.301004 0.42741,-0.325991 c 0.34589,-0.263816 0.42773,-0.413993 0.42913,-0.787392 z m 6.85067,0.583716 c 0.005,-0.05414 -0.13608,-0.15358 -0.31335,-0.220972 -0.19428,-0.07387 -0.42235,-0.337524 -0.5743,-0.66393 l -0.25204,-0.541401 0.0649,0.63531 c 0.0519,0.507709 0.14644,0.709329 0.47066,1.003845 0.37865,0.343958 0.41204,0.352433 0.50044,0.127061 0.0521,-0.13281 0.0988,-0.285771 0.10366,-0.339913 z m 2.45565,0.06916 c 0.12115,-0.133877 0.25032,-0.525124 0.28702,-0.869437 l 0.0667,-0.626023 -0.25204,0.541401 c -0.1565,0.336172 -0.3791,0.589709 -0.58722,0.668841 -0.22971,0.08733 -0.31115,0.190137 -0.25876,0.326659 0.042,0.10957 0.0765,0.253733 0.0765,0.320361 0,0.160861 0.38225,-0.04622 0.66784,-0.361802 z m -21.29155,-4.817596 c -0.048,-0.04805 -0.0874,-0.849727 -0.0874,-1.781516 0,-1.60945 0.0127,-1.694159 0.25413,-1.694159 0.22331,0 0.25411,0.08471 0.25411,0.698842 v 0.698841 h 0.76239 0.76237 v -0.698841 c 0,-0.617374 0.03,-0.698842 0.25771,-0.698842 0.24812,0 0.25638,0.06499 0.22235,1.747102 -0.0294,1.45256 -0.0675,1.747102 -0.22595,1.747102 -0.14118,0 -0.20706,-0.197651 -0.25411,-0.76237 l -0.0636,-0.762373 -0.72438,-0.03792 -0.72437,-0.03792 -0.038,0.790207 c -0.0349,0.727093 -0.17653,1.010663 -0.39534,0.791848 z" />
      <path
         style="fill:#ff0000;stroke:#000000;stroke-width:0.0103651"
         d="m 569.03566,274.44563 c -1.71989,0.29403 -3.57322,0.65382 -5.03883,1.62765 -0.3704,0.68551 0.58208,1.3041 0.49679,2.03497 0.28837,0.65682 -0.12408,1.71584 0.50854,2.16696 1.83608,-0.055 3.65875,-0.69462 5.36356,-1.35071 0.9749,-0.80422 0.49902,-2.34347 0.33362,-3.41118 -0.17742,-0.77575 -0.90847,-1.14785 -1.66368,-1.06769 z"
         id="path2301"
         transform="scale(0.26458333)" class="OC" />
      <path
         style="fill:#ff0000;stroke:#000000;stroke-width:0.00418812"
         d="m 580.54744,265.83606 c -1.11273,0.40042 -2.02828,1.21497 -2.99796,1.87261 -1.88513,1.39244 -3.71168,2.89987 -5.26408,4.6602 -0.057,0.22092 0.38179,0.23264 0.49701,0.35239 0.59175,0.23751 1.19099,0.53529 1.79942,0.6876 1.65542,-1.50951 3.25676,-3.09809 4.67239,-4.83877 0.29293,-0.40116 0.69654,-0.77753 0.72046,-1.30254 0.13974,-0.53954 0.62157,-0.91643 0.85202,-1.38437 -0.077,-0.0571 -0.18831,-0.0429 -0.27926,-0.0471 z"
         id="path2342"
         transform="scale(0.26458333)" class="OC" />
      <path
         style="fill:#ff0000;stroke:#000000;stroke-width:0.00418812"
         d="m 572.00368,274.76509 c -0.26125,-0.0384 -0.57194,0.16968 -0.39329,0.45481 0.21978,0.64099 0.32948,1.37203 0.74208,1.91802 0.47643,-0.0512 0.77231,-0.56583 1.11493,-0.85921 0.20655,-0.23675 0.72366,-0.69983 0.31394,-0.99125 -0.5269,-0.32429 -1.15758,-0.51986 -1.77766,-0.52237 z"
         id="path2343"
         transform="scale(0.26458333)" class="OC" />
      <path
         style="fill:#ff0000;stroke:#000000;stroke-width:0.00418812"
         d="m 576.06452,277.07461 c -0.65695,0.0989 -1.03855,0.75701 -1.48874,1.17987 -0.19344,0.19321 -0.53163,0.64742 -0.12336,0.80949 1.74237,0.62056 3.60016,0.8431 5.41547,1.16131 1.79079,0.30651 3.60553,0.41829 5.42095,0.39843 -0.49503,-0.39014 -1.21862,-0.67862 -1.75573,-1.11443 -0.39064,-0.21764 -0.59764,-0.61355 -0.87558,-0.9366 -0.73235,-0.43126 -1.65239,-0.22504 -2.44923,-0.45317 -1.38761,-0.20484 -2.67536,-0.83838 -4.05822,-1.0467 -0.0285,6.6e-4 -0.0571,-10e-4 -0.0856,0.002 z"
         id="path2344"
         transform="scale(0.26458333)" class="OC" />
      <path
         style="fill:#ff0000;stroke:#000000;stroke-width:0.00418812"
         d="m 565.09706,281.16473 c -0.60004,-0.0428 -1.29855,0.18904 -1.45456,0.84041 -0.22638,0.95754 -0.68757,1.87896 -1.50641,2.46051 -0.71708,0.60584 -1.59264,1.0375 -2.28825,1.6476 0.28309,0.0902 0.64811,-0.17363 0.94773,-0.2154 1.48423,-0.45564 3.10156,-0.9504 4.07474,-2.25281 0.49693,-0.68321 1.11585,-1.34544 1.38764,-2.1518 -0.1787,-0.38046 -0.81722,-0.29877 -1.16089,-0.32851 z"
         id="path2345"
         transform="scale(0.26458333)" class="OC" />
      <path
         style="fill:#ff0000;stroke:#000000;stroke-width:0.001217"
         d="m 560.64248,272.66402 c -1.00745,0.032 -1.97737,0.34209 -2.95421,0.56049 -0.77349,0.19017 -1.54935,0.37212 -2.31984,0.57361 -0.0252,0.10135 0.16837,0.0348 0.23494,0.059 1.23943,0.0464 2.48642,0.0223 3.72007,0.13646 0.64813,0.0871 1.33668,0.2178 1.83883,0.66574 0.36276,0.28401 0.63978,0.69997 1.08376,0.86607 0.40264,0.15465 0.81006,-0.079 1.15078,-0.27506 0.27156,-0.18175 0.57712,-0.38014 0.7022,-0.69574 0.0419,-0.18953 -0.15827,-0.32074 -0.26978,-0.44151 -0.64698,-0.55752 -1.41603,-0.95628 -2.19912,-1.28611 -0.31618,-0.11305 -0.65196,-0.16801 -0.98763,-0.16292 z"
         id="path2346"
         transform="scale(0.26458333)" class="OC" />
      <path
         style="fill:#ffff00;stroke:#000000;stroke-width:0.00541908"
         d="m 578.31028,227.91479 c -1.06256,-0.0256 -2.44862,0.13673 -2.87507,1.28852 -0.33485,1.24436 -0.25567,2.57476 -0.12003,3.84415 0.0472,0.77112 0.79669,1.18734 1.50232,1.18416 1.31808,0.10182 2.66473,0.0925 3.97138,0.0383 0.12087,-1.69553 0.63767,-3.45059 0.19728,-5.135 -0.38016,-1.12877 -1.65174,-1.29092 -2.67588,-1.22014 z"
         id="path2610"
         transform="scale(0.26458333)" class="T" />
      <path
         style="fill:#ffff00;stroke:#000000;stroke-width:0.00541908"
         d="m 578.11934,225.30644 c -0.66637,0.21952 -0.99017,1.0042 -1.19875,1.62276 -0.0657,0.51004 0.69912,0.31466 0.99848,0.37031 0.64172,-0.0226 1.35245,0.0593 1.95237,-0.038 -0.52609,-0.64516 -0.8485,-1.59538 -1.65303,-1.94875 -0.0326,-0.006 -0.066,-0.009 -0.0991,-0.006 z"
         id="path2611"
         transform="scale(0.26458333)" class="T" />
      <path
         style="fill:#ffff00;stroke:#000000;stroke-width:0.00541908"
         d="m 586.31485,217.49619 c -0.89206,0.21741 -1.85814,0.6293 -2.39265,1.41108 -0.85078,1.8499 -2.38549,3.2573 -3.48599,4.93602 0.37519,0.73555 0.78983,1.58162 1.50634,2.02199 0.94582,-0.83393 1.51982,-2.02902 2.22167,-3.06733 0.89119,-1.56457 1.91388,-3.11342 2.39492,-4.86421 0.0435,-0.17805 0.007,-0.47631 -0.24429,-0.43755 z"
         id="path2612"
         transform="scale(0.26458333)" class="T" />
      <path
         style="fill:#ffff00;stroke:#000000;stroke-width:0.00541908"
         d="m 569.54302,217.18311 c -0.27843,0.10849 0.1491,0.53635 0.15968,0.73094 1.22634,2.49247 2.46372,5.0102 4.09768,7.26517 0.24161,0.36387 0.785,0.87532 1.18415,0.40283 0.51942,-0.53355 1.14523,-1.40515 0.62129,-2.13842 -0.93575,-1.5332 -2.16173,-2.8795 -3.04399,-4.44259 -0.86736,-0.77343 -1.87255,-1.47495 -2.9896,-1.81772 l -0.0265,-4.2e-4 z"
         id="path2613"
         transform="scale(0.26458333)" class="T" />
      <path
         style="fill:#ffff00;stroke:#000000;stroke-width:0.00541908"
         d="m 574.19623,233.37155 c -1.0847,0.59729 -1.96119,1.57308 -2.65789,2.58825 -0.55842,1.27273 -0.56211,2.71173 -0.67739,4.0679 0.28888,-0.10698 0.34371,-0.66561 0.54276,-0.90812 0.65081,-1.24177 1.32153,-2.66724 2.70382,-3.22223 0.45845,-0.17658 1.02602,-0.50828 0.85139,-1.09101 -0.1233,-0.46587 -0.22017,-1.28805 -0.76269,-1.43479 z"
         id="path2614"
         transform="scale(0.26458333)" class="T" />
      <path
         style="fill:#ffff00;stroke:#000000;stroke-width:0.00541908"
         d="m 582.28166,233.39208 c -0.52994,0.25793 -0.60277,1.00302 -0.71252,1.52433 -0.1086,0.79566 0.92165,0.88039 1.38504,1.26375 1.39019,0.81392 1.62101,2.55535 2.48261,3.77324 0.29341,-0.0103 0.1113,-0.54667 0.14861,-0.74449 -0.11756,-1.6745 -0.39987,-3.51817 -1.74512,-4.68009 -0.46629,-0.4203 -0.94274,-0.95463 -1.55862,-1.13674 z"
         id="path2615"
         transform="scale(0.26458333)" class="T" />
      <path
         style="fill:#ff6600;stroke:#000000;stroke-width:0.00541908"
         d="m 587.52843,257.33615 c -1.13604,0.29723 -2.11364,1.09341 -2.89159,1.95384 -0.96752,1.19436 -1.29912,2.75027 -1.67885,4.20211 0.0701,0.30728 0.3488,-0.28164 0.41447,-0.33636 0.85516,-1.32174 1.75537,-2.9497 3.45678,-3.25039 0.94245,-0.17641 1.28256,-1.22207 1.14162,-2.0669 -0.0251,-0.4063 0.082,-0.61207 -0.44243,-0.5023 z"
         id="path2616"
         transform="scale(0.26458333)" class="OR" />
      <path
         style="fill:#ff6600;stroke:#000000;stroke-width:0.00541908"
         d="m 589.70347,252.73142 c -0.27402,1.75787 -0.74764,3.4877 -0.95342,5.25333 -0.003,0.65395 0.87814,0.50061 1.3027,0.56604 1.22723,0.0159 2.37851,0.46674 3.40978,1.1035 0.49071,0.14492 0.62724,-0.60172 0.77243,-0.92526 0.41721,-1.46142 0.88981,-2.98233 0.76651,-4.51689 -0.19784,-0.97285 -1.41655,-1.00345 -2.19854,-1.14414 -1.0297,-0.11036 -2.08222,-0.25883 -3.09946,-0.33658 z"
         id="path2617"
         transform="scale(0.26458333)" class="OR" />
      <path
         style="fill:#ff6600;stroke:#000000;stroke-width:0.00541908"
         d="m 586.43382,240.7252 c -0.36583,0.14449 -0.066,0.70735 -0.0594,0.98616 0.66794,2.58451 1.48156,5.14192 2.47785,7.61874 0.12162,0.34954 0.51474,0.99052 0.93627,0.58996 0.61009,-0.40412 1.25772,-0.81259 1.69981,-1.3988 -0.93701,-1.81446 -2.01017,-3.57881 -2.6164,-5.53804 -0.4763,-1.00404 -1.40631,-1.87277 -2.43816,-2.25802 z"
         id="path2618"
         transform="scale(0.26458333)" class="OR" />
      <path
         style="fill:#ff6600;stroke:#000000;stroke-width:0.00541908"
         d="m 603.24884,243.7493 c -1.08496,0.44322 -2.32696,0.57753 -3.31453,1.22585 -0.48376,0.89118 -1.17728,1.6486 -1.96129,2.29485 -0.75759,0.75509 -1.80793,1.22947 -2.42922,2.10604 0.031,0.67365 0.42551,1.35058 0.90325,1.81708 0.47658,0.46714 0.94375,-0.25837 1.30883,-0.50698 2.06114,-1.98796 4.07771,-4.10515 5.47941,-6.62271 0.0184,-0.0677 0.17463,-0.31188 0.0136,-0.31413 z"
         id="path2619"
         transform="scale(0.26458333)" class="OR" />
      <path
         style="fill:#ff6600;stroke:#000000;stroke-width:0.00541908"
         d="m 593.18375,250.24817 c -0.5647,0.18025 -1.08052,0.65839 -1.33784,1.19093 5.9e-4,0.55222 0.74346,0.67218 1.14902,0.84313 0.41738,0.14653 0.86748,-0.0665 1.12361,-0.39458 -0.27948,-0.48509 -0.27103,-1.49284 -0.93479,-1.63948 z"
         id="path2620"
         transform="scale(0.26458333)" class="OR" />
      <path
         style="fill:#ff6600;stroke:#000000;stroke-width:0.00541908"
         d="m 595.36429,259.11429 c -0.4548,0.37402 -0.89848,0.89139 -1.07683,1.46146 0.23676,0.67451 1.05147,0.93757 1.51883,1.43372 1.20828,0.89595 0.74668,2.55387 1.26268,3.78383 0.0525,0.26846 0.51487,0.56955 0.52222,0.11114 0.0827,-1.3287 0.0541,-2.69431 -0.0536,-4.00616 -0.48955,-1.05965 -1.1884,-2.08855 -2.13541,-2.77954 -0.0123,-0.003 -0.0251,-0.006 -0.0379,-0.004 z"
         id="path2621"
         transform="scale(0.26458333)" class="OR" />
      <path
         style="fill:#00ff00;stroke:#000000;stroke-width:0.00541908"
         d="m 559.57424,222.88352 c -0.75204,0.10656 -1.79007,-0.13095 -2.31792,0.56011 -0.41681,1.18252 -0.18808,2.49013 -0.23539,3.72202 -0.0819,0.97274 0.71258,1.76499 1.63397,1.91001 1.13322,0.20046 2.45406,0.25112 3.45128,-0.41193 1.15059,-0.98959 0.87401,-2.67207 0.89972,-4.01814 0.011,-0.60768 -0.0219,-1.49597 -0.79727,-1.59188 -0.85667,-0.21313 -1.759,-0.16591 -2.63439,-0.17019 z"
         id="path2622"
         transform="scale(0.26458333)" class="IR" />
      <path
         style="fill:#00ff00;stroke:#000000;stroke-width:0.00541908"
         d="m 552.6772,217.13972 c 0.023,1.05218 0.1832,2.16245 0.41345,3.20846 0.28821,1.4393 1.51134,2.40891 2.60006,3.26945 0.27895,0.28578 0.65343,0.0539 0.70533,-0.29424 0.17178,-0.537 0.69191,-1.36431 0.0193,-1.76712 -1.02984,-0.5478 -2.03749,-1.22796 -2.56598,-2.30814 -0.43171,-0.67154 -0.6735,-1.49209 -1.15688,-2.11265 z"
         id="path2623"
         transform="scale(0.26458333)" class="IR" />
      <path
         style="fill:#00ff00;stroke:#000000;stroke-width:0.00541908"
         d="m 560.41124,229.85211 c -0.57093,0.0674 -1.26477,-0.0567 -1.76544,0.23815 0.11244,0.74016 0.73303,1.32238 1.1414,1.92589 0.36552,0.27102 0.61795,-0.40691 0.83833,-0.59138 0.24201,-0.43717 0.85093,-0.84321 0.76622,-1.38955 -0.23661,-0.2559 -0.67436,-0.15036 -0.98051,-0.18311 z"
         id="path2624"
         transform="scale(0.26458333)" class="IR" />
      <path
         style="fill:#00ff00;stroke:#000000;stroke-width:0.00541908"
         d="m 556.10878,231.34596 c -1.96672,2.65781 -3.62799,5.57405 -4.79567,8.6665 0.70571,-0.12967 1.38112,-0.61849 2.04041,-0.94135 1.13165,-0.47762 1.33418,-1.79095 2.08623,-2.6349 0.72599,-1.04338 1.70377,-1.94286 2.24544,-3.09938 0.0751,-0.85491 -0.78046,-1.44834 -1.16325,-2.127 -0.16245,-0.37915 -0.25225,-4.2e-4 -0.41316,0.13613 z"
         id="path2625"
         transform="scale(0.26458333)" class="IR" />
      <path
         style="fill:#00ff00;stroke:#000000;stroke-width:0.00541908"
         d="m 563.74884,231.27928 c -0.68318,0.26702 -1.05615,1.04714 -1.26713,1.7104 -0.0313,0.79998 0.75316,1.35693 1.08192,2.02188 1.35814,1.9881 2.87596,4.07092 5.06577,5.18168 0.21121,-0.27997 -0.18909,-0.71808 -0.22521,-1.02215 -1.07267,-2.58187 -2.38223,-5.09082 -4.03279,-7.35202 -0.18825,-0.17335 -0.34246,-0.50892 -0.62256,-0.53979 z"
         id="path2626"
         transform="scale(0.26458333)" class="IR" />
      <path
         style="fill:#00ff00;stroke:#000000;stroke-width:0.00541908"
         d="m 567.35697,217.00593 c -0.87692,1.54625 -1.467,3.58055 -3.29891,4.27164 -0.47638,0.15031 -0.86107,0.60779 -0.66485,1.1231 0.1661,0.40142 0.0855,1.02798 0.46041,1.2991 0.91866,-0.13801 1.63052,-0.89227 2.27072,-1.51523 0.99048,-1.45013 1.05104,-3.30707 1.26586,-4.9955 -0.0274,-0.0262 0.0667,-0.20496 -0.0332,-0.18311 z"
         id="path2627"
         transform="scale(0.26458333)" class="IR" />
      <path
         style="fill:#0000ff;stroke:#000000;stroke-width:0.00541908"
         d="m 541.94721,227.95522 c -0.75618,-0.0256 -1.82097,-0.006 -2.06751,0.89288 -0.38919,1.80777 -0.25369,3.7113 -0.24703,5.52979 1.72423,-0.12559 3.52408,0.077 5.19321,-0.44728 0.4888,-0.33738 0.3257,-1.09181 0.43229,-1.60248 -0.0162,-1.07589 0.17401,-2.23326 -0.25003,-3.24929 -0.42559,-0.91294 -1.49258,-1.2281 -2.43054,-1.1237 -0.21013,-8.5e-4 -0.42026,-0.001 -0.63039,8e-5 z"
         id="path2628"
         transform="scale(0.26458333)" class="IC" />
      <path
         style="fill:#0000ff;stroke:#000000;stroke-width:0.00541908"
         d="m 541.92244,225.45758 c -0.44575,0.46688 -0.98407,1.00582 -1.0853,1.66192 0.44264,0.34041 1.13106,0.10299 1.65726,0.18176 0.38686,-0.0552 0.88838,0.0732 1.22163,-0.12609 -0.21825,-0.79936 -0.85577,-1.47446 -1.46802,-1.99151 -0.10852,0.0913 -0.21705,0.18261 -0.32557,0.27392 z"
         id="path2629"
         transform="scale(0.26458333)" class="IC" />
      <path
         style="fill:#0000ff;stroke:#000000;stroke-width:0.00541908"
         d="m 534.06435,217.20619 c -0.42155,0.22408 -0.0234,0.83089 0.0542,1.15303 1.16234,2.56539 2.5169,5.07717 4.25101,7.30433 0.29622,0.49166 0.79179,-0.0653 0.9858,-0.35542 0.62095,-0.79374 0.57534,-1.95265 -0.10351,-2.6962 -0.75437,-1.008 -1.83522,-1.80392 -2.25082,-3.03215 -0.72192,-0.96129 -1.68273,-1.78652 -2.74934,-2.3429 -0.0599,-0.0202 -0.12348,-0.0389 -0.18734,-0.0307 z"
         id="path2630"
         transform="scale(0.26458333)" class="IC" />
      <path
         style="fill:#0000ff;stroke:#000000;stroke-width:0.00541908"
         d="m 550.28603,217.49661 c -1.1218,0.2543 -2.29828,0.89294 -2.70848,2.03787 -0.84304,1.54257 -2.18464,2.7503 -3.05797,4.26181 0.11632,0.83649 0.7651,1.52913 1.36196,2.08571 0.43181,-0.16198 0.64669,-0.75823 0.96401,-1.09313 1.48273,-2.11229 2.78302,-4.38057 3.69767,-6.79649 0.0639,-0.24696 0.12815,-0.57498 -0.25719,-0.49577 z"
         id="path2631"
         transform="scale(0.26458333)" class="IC" />
      <path
         style="fill:#0000ff;stroke:#000000;stroke-width:0.00541908"
         d="m 546.20923,233.38256 c -0.41337,0.39929 -0.57615,1.04811 -0.72099,1.59799 0.11751,0.75306 1.05371,0.93423 1.57428,1.34715 1.41404,0.87512 1.59422,2.67611 2.37339,3.99551 0.32322,0.30548 0.15698,-0.43664 0.17358,-0.58509 -0.16046,-1.80615 -0.24757,-3.89342 -1.73305,-5.16908 -0.50518,-0.42566 -1.0187,-0.99899 -1.66721,-1.18648 z"
         id="path2632"
         transform="scale(0.26458333)" class="IC" />
      <path
         style="fill:#0000ff;stroke:#000000;stroke-width:0.00541908"
         d="m 537.32575,234.09593 c -0.9823,0.81781 -1.90079,1.85034 -2.01776,3.18328 -0.1488,1.03086 -0.39045,2.11268 -0.31435,3.13841 0.70814,-1.3741 1.16312,-3.03377 2.43414,-4.05499 0.52041,-0.49409 1.46621,-0.61798 1.6886,-1.37361 -0.16918,-0.62835 -0.48883,-1.25652 -0.80482,-1.79295 -0.32861,0.29995 -0.65721,0.5999 -0.98581,0.89986 z"
         id="path2633"
         transform="scale(0.26458333)" class="IC" />
      <path
         style="fill:#ff00ff;stroke:#000000;stroke-width:0.00541908"
         d="m 520.85535,222.84732 c 0.0313,1.88363 -0.063,3.80831 0.36177,5.65489 0.27884,0.75261 1.26811,0.58152 1.90281,0.6903 0.99321,-0.011 2.10696,0.0713 2.98473,-0.45829 0.64218,-0.82186 0.3669,-1.98098 0.41876,-2.94653 -0.0404,-0.91855 -0.0535,-1.85769 -0.14357,-2.76108 -1.82755,-0.18845 -3.70646,-0.16477 -5.5245,-0.17929 z"
         id="path2634"
         transform="scale(0.26458333)" class="IF" />
      <path
         style="fill:#ff00ff;stroke:#000000;stroke-width:0.00541908"
         d="m 523.50752,229.80999 c -0.32745,0.0438 -1.07805,-0.0741 -1.07111,0.42802 0.30865,0.65167 0.66403,1.3564 1.22183,1.82068 0.60015,-0.14879 0.84402,-0.86929 1.2085,-1.30946 0.25554,-0.25454 0.34411,-0.79559 -0.13294,-0.84483 -0.39996,-0.0991 -0.81708,-0.092 -1.22628,-0.0944 z"
         id="path2635"
         transform="scale(0.26458333)" class="IF" />
      <path
         style="fill:#ff00ff;stroke:#000000;stroke-width:0.00541908"
         d="m 519.92162,231.26277 c -0.82048,0.65921 -1.25472,1.70328 -1.83233,2.56707 -0.85559,1.56057 -1.8023,3.10663 -2.41149,4.77874 0.71938,0.37663 1.65777,0.28937 2.41848,0.0476 0.51482,-0.48563 0.47914,-1.31409 0.94791,-1.85244 0.80558,-1.36693 1.9948,-2.49742 2.83253,-3.81558 -0.56908,-0.64172 -1.21511,-1.26378 -1.93414,-1.72817 z"
         id="path2636"
         transform="scale(0.26458333)" class="IF" />
      <path
         style="fill:#ff00ff;stroke:#000000;stroke-width:0.00541908"
         d="m 527.52188,231.38618 c -0.66388,0.2508 -1.1776,0.84201 -1.59863,1.3952 -0.27536,0.70891 0.56167,1.25592 0.91002,1.76565 1.03118,1.06942 1.84943,2.31189 2.54464,3.6185 0.29579,0.52548 0.86662,0.73388 1.39859,0.90219 0.55063,0.26792 0.90764,0.91578 1.4587,1.11282 0.0755,-0.69891 -0.34245,-1.39478 -0.57254,-2.04664 -1.07333,-2.24145 -2.21031,-4.47915 -3.65603,-6.50556 -0.12063,-0.13882 -0.28803,-0.27382 -0.48475,-0.24216 z"
         id="path2637"
         transform="scale(0.26458333)" class="IF" />
      <path
         style="fill:#ff00ff;stroke:#000000;stroke-width:0.00541908"
         d="m 531.15456,216.74302 c -0.85204,1.42199 -1.13803,3.37557 -2.67313,4.29208 -0.48875,0.29586 -1.55782,0.36666 -1.42314,1.17167 0.1535,0.56837 0.3994,1.16047 0.7375,1.62657 0.93812,-0.65939 1.90162,-1.34765 2.66445,-2.21103 0.69483,-1.12726 0.41725,-2.54699 0.61219,-3.80132 -0.0164,-0.35654 0.13777,-0.74617 0.10246,-1.07839 z"
         id="path2638"
         transform="scale(0.26458333)" class="IF" />
      <path
         style="fill:#ff00ff;stroke:#000000;stroke-width:0.00541908"
         d="m 516.24321,216.13401 c 0.13572,1.58667 0.17143,3.21781 0.60774,4.75884 0.54547,1.27177 1.78804,2.04478 2.78087,2.93901 0.35611,-0.49183 0.78558,-1.09151 0.8353,-1.73242 -0.24974,-0.77973 -1.2764,-0.84367 -1.77792,-1.42504 -1.30034,-1.20451 -1.69631,-3.02457 -2.42038,-4.56071 z"
         id="path2639"
         transform="scale(0.26458333)" class="IF" />
      <path
         style="fill:#999999;stroke:#000000;stroke-width:0.00541908"
         d="m 532.28876,273.31312 c -0.40876,-0.10003 -0.67259,0.27635 -0.55461,0.6505 0.0695,0.60717 0.18299,1.21956 -0.25999,1.72367 -0.22201,0.592 -0.7768,1.16123 -0.72814,1.81652 0.50065,0.66291 1.46144,0.74008 2.17934,1.06521 1.17834,0.3146 2.32539,0.93235 3.56213,0.93921 0.86593,-0.31283 1.15204,-1.38901 1.24091,-2.21736 0.009,-0.71521 0.22365,-1.49024 -0.0191,-2.17717 -0.64488,-0.6996 -1.69186,-0.81842 -2.5385,-1.16553 -0.94273,-0.26605 -1.89447,-0.60596 -2.88206,-0.63505 z"
         id="path2640"
         transform="scale(0.26458333)" />
      <path
         style="fill:#999999;stroke:#000000;stroke-width:0.00541908"
         d="m 527.39529,267.4838 c -0.17105,0.19826 0.33894,0.42927 0.43268,0.57832 0.96903,0.87257 2.27687,1.62508 2.64603,2.95784 -0.0282,0.58656 0.14597,1.50037 0.91659,1.42992 0.62095,-0.0192 1.32232,0.0826 1.89562,-0.16913 0.0216,-0.66547 -0.59456,-1.19488 -0.92696,-1.72776 -0.82495,-1.05585 -1.79115,-2.08861 -3.12147,-2.47203 -0.60423,-0.21544 -1.20489,-0.50465 -1.84249,-0.59716 z"
         id="path2641"
         transform="scale(0.26458333)" />
      <path
         style="fill:#999999;stroke:#000000;stroke-width:0.00541908"
         d="m 529.12939,277.97268 c -0.89391,0.52473 -1.44211,1.69587 -2.61153,1.70998 -0.97963,0.1481 -2.08122,0.0529 -2.98726,0.22078 1.48242,0.29242 2.9663,0.97248 4.50164,0.75571 1.25864,-0.29184 2.36819,-0.9989 3.5368,-1.522 -0.72467,-0.43318 -1.60081,-0.87949 -2.43965,-1.16447 z"
         id="path2642"
         transform="scale(0.26458333)" />
      <path
         style="fill:#999999;stroke:#000000;stroke-width:0.00541908"
         d="m 539.4085,276.68798 c -0.54011,0.27298 -0.56946,1.03857 -0.79593,1.54655 -0.16059,0.26952 -0.13239,0.71543 0.27455,0.65855 0.63704,-0.0677 1.42911,-0.15834 1.85583,-0.68098 0.0558,-0.61561 -0.63333,-1.00611 -1.01121,-1.39923 -0.0939,-0.0668 -0.20297,-0.13472 -0.32324,-0.12489 z"
         id="path2643"
         transform="scale(0.26458333)" />
      <path
         style="fill:#999999;stroke:#000000;stroke-width:0.00541908"
         d="m 541.00183,280.59289 c -0.55559,0.0741 -1.2492,0.1962 -1.61302,0.64987 0.46478,0.94165 1.38819,1.59321 2.10242,2.34768 1.82585,1.64045 3.63548,3.36534 5.77472,4.5917 0.36772,0.0563 0.0731,-0.52848 0.0565,-0.68797 -0.32511,-1.07417 -0.68676,-2.31309 -1.73347,-2.89518 -1.37077,-1.12634 -2.4226,-2.58038 -3.74552,-3.7506 -0.24089,-0.18091 -0.53973,-0.27779 -0.84165,-0.2555 z"
         id="path2644"
         transform="scale(0.26458333)" />
      <path
         style="fill:#999999;stroke:#000000;stroke-width:0.00541908"
         d="m 550.43738,273.42743 c -2.93884,0.12094 -5.88395,0.45704 -8.75372,1.10774 -0.26792,0.0481 -0.75578,0.30156 -0.4259,0.61176 0.51487,0.59438 1.01673,1.30511 1.73474,1.64837 1.98811,-0.50179 3.9227,-1.39338 6.00628,-1.40409 0.93247,-0.18651 1.6553,-0.95124 2.15091,-1.71505 0.044,-0.33538 -0.53708,-0.21319 -0.71231,-0.24873 z"
         id="path2645"
         transform="scale(0.26458333)" />
    </g>
    <path
       style="fill:#ffffff;fill-opacity:1;stroke:#000000;stroke-width:0.0064821;stroke-opacity:0"
       d="m 501.59558,246.53771 c -0.23178,0.36456 0.28317,0.86228 0.35592,1.25188 0.6607,1.41728 1.25334,3.13267 2.8631,3.72237 0.65832,0.2314 1.32874,0.69523 2.02414,0.70468 0.2763,-0.52229 0.22243,-1.26714 -0.009,-1.80816 -0.43668,-0.74382 -1.445,-0.4463 -2.0054,-1.00852 -1.21903,-0.76827 -2.076,-2.04934 -3.22915,-2.86225 z"
       id="path79"
       transform="scale(0.26458333)" class="P" />
    <path
       style="fill:#ffffff;fill-opacity:1;stroke:#000000;stroke-width:0.0064821;stroke-opacity:0"
       d="m 512.54197,249.27868 c -0.88866,0.30109 -1.62482,1.0541 -2.6012,1.10702 -0.62405,0.23199 -1.53476,-0.0191 -1.97552,0.56515 -0.14876,1.08739 0.36657,2.16886 0.66138,3.20105 0.37791,0.86019 0.6235,1.94324 1.42024,2.50801 1.38438,-0.37559 2.79789,-0.80937 4.06675,-1.4886 0.85405,-0.7069 0.24259,-1.94621 0.0949,-2.82779 -0.34928,-1.02907 -0.52576,-2.31796 -1.44748,-3.01066 -0.0677,-0.0342 -0.14225,-0.0588 -0.21902,-0.0542 z"
       id="path80"
       transform="scale(0.26458333)" class="P" />
    <path
       style="fill:#ffffff;fill-opacity:1;stroke:#000000;stroke-width:0.0064821;stroke-opacity:0"
       d="m 515.30142,241.37381 c -0.19004,1.8193 0.10841,3.99236 -1.25084,5.46952 -0.30054,0.45324 -0.91081,0.78561 -1.01764,1.32934 0.36585,0.63145 0.82963,1.34008 1.49822,1.66103 0.68618,-0.62195 1.04698,-1.60096 1.5238,-2.4042 0.80703,-1.37832 0.0178,-2.99507 -0.21698,-4.42162 -0.20217,-0.49843 -0.15196,-1.34518 -0.53656,-1.63407 z"
       id="path81"
       transform="scale(0.26458333)" class="P" />
    <path
       style="fill:#ffffff;fill-opacity:1;stroke:#000000;stroke-width:0.0064821;stroke-opacity:0"
       d="m 513.68343,256.46292 c -0.80556,0.17656 -1.72274,0.31297 -2.37914,0.83305 -0.22184,0.57311 0.66064,0.79205 1.01957,1.02665 0.40395,0.26964 1.16189,0.49392 1.32386,-0.16347 0.0978,-0.52271 0.50806,-1.14107 0.29626,-1.65294 -0.0752,-0.0534 -0.17332,-0.0446 -0.26055,-0.0433 z"
       id="path82"
       transform="scale(0.26458333)" class="P" />
    <path
       style="fill:#ffffff;fill-opacity:1;stroke:#000000;stroke-width:0.0064821;stroke-opacity:0"
       d="m 509.42702,259.32846 c -0.56937,0.20182 -0.48535,1.05473 -0.73557,1.5162 -0.66917,2.62338 -1.39343,5.32794 -1.19362,8.05654 0.36692,0.17435 0.58426,-0.54823 0.85621,-0.74098 0.81391,-0.92489 1.48287,-1.98357 1.68776,-3.21892 0.3947,-1.51729 1.19128,-2.94353 1.60863,-4.43467 -0.59363,-0.54647 -1.4001,-1.09182 -2.22341,-1.17817 z"
       id="path83"
       transform="scale(0.26458333)" class="P" />
    <path
       style="fill:#ffffff;fill-opacity:1;stroke:#000000;stroke-width:0.0064821;stroke-opacity:0"
       d="m 516.29196,256.66244 c -0.26865,0.92899 -1.01402,2.23358 -0.0917,3.04406 1.38605,1.14862 3.1326,1.87072 4.23894,3.32992 0.91287,0.59152 2.08964,0.74672 3.158,0.7067 0.48935,-0.22465 -0.21432,-0.76607 -0.35956,-1.00802 -2.07823,-2.22878 -4.28083,-4.38574 -6.7943,-6.12305 l -0.12301,0.0409 z"
       id="path84"
       transform="scale(0.26458333)" class="P" />
  </g>
</svg>
