<?xml version="1.0" encoding="UTF-8" standalone="no"?>
<!-- Created with Inkscape (http://www.inkscape.org/) -->

<svg
   width="27.945898mm"
   height="20.07303mm"
   viewBox="0 0 27.945898 20.07303"
   version="1.1"
   id="svg1"
   xmlns="http://www.w3.org/2000/svg"
   xmlns:svg="http://www.w3.org/2000/svg">
  <defs
     id="defs1" />
  <g
     id="layer1"
     transform="translate(-131.9794,-56.598903)">
    <path
       id="path1936"
       style="fill:#000000;stroke-width:0.264583"
       d="m 144.71618,76.426919 c -0.29343,-0.133207 -1.01423,-0.703728 -1.60182,-1.267827 -0.70408,-0.675945 -1.17202,-1.028682 -1.37244,-1.034569 -0.16727,-0.0049 -0.41466,-0.05221 -0.54975,-0.105116 -0.16476,-0.06452 -0.42974,0.0067 -0.80487,0.216374 -0.52768,0.294941 -0.60703,0.304667 -1.40724,0.172516 -0.4664,-0.07703 -0.97549,-0.106712 -1.1313,-0.06597 -0.19577,0.05119 -0.30859,0.0081 -0.36523,-0.13947 -0.13875,-0.361606 0.15353,-0.492337 1.03687,-0.46374 1.10951,0.03592 1.33858,-0.138528 0.81915,-0.623753 -0.62455,-0.583406 -0.41026,-1.141965 0.43807,-1.141965 0.82791,0 -0.19124,-1.07813 -1.25452,-1.327127 -0.5285,-0.123769 -1.08778,-0.553315 -1.08778,-0.835474 0,-0.244862 -0.84053,-0.904182 -1.35993,-1.066737 -0.41646,-0.130342 -0.84201,0.749721 -0.86376,1.786295 -0.0193,0.925213 -0.30829,1.480301 -0.73853,1.419061 -0.22093,-0.03145 -0.30184,-0.163714 -0.39492,-0.645599 -0.096,-0.497179 -0.0582,-0.843717 0.21034,-1.929123 0.29057,-1.17426 0.30896,-1.376717 0.16344,-1.8 -0.13552,-0.394213 -0.2775,-0.527031 -0.81862,-0.765841 -0.57648,-0.254418 -0.69091,-0.370933 -0.9584,-0.975747 -0.16706,-0.377756 -0.39365,-0.721323 -0.50351,-0.763484 -0.37872,-0.145325 -0.15396,-0.592881 0.29777,-0.592881 0.0525,0 0.31213,0.314479 0.57684,0.698841 0.35557,0.516258 0.56026,0.698842 0.78349,0.698842 0.23968,0 0.30218,-0.06743 0.30218,-0.326009 0,-0.798431 0.64838,-1.088319 1.2242,-0.547349 0.43471,0.408387 0.68019,0.234532 0.68984,-0.488569 0.018,-1.342067 0.16116,-1.751912 1.11348,-3.186216 0.36899,-0.555741 0.44865,-0.785931 0.42,-1.213622 -0.0299,-0.446056 -0.12248,-0.603129 -0.59788,-1.014169 -0.51652,-0.446606 -0.56251,-0.535189 -0.56251,-1.083519 0,-0.344168 -0.087,-0.721329 -0.20531,-0.890257 -0.2309,-0.329668 -0.0957,-0.578321 0.27508,-0.505963 0.14248,0.0278 0.30965,0.297786 0.45977,0.742524 0.20571,0.609378 0.49983,1.016495 0.73435,1.016495 0.0394,0 0.14648,-0.16882 0.23781,-0.375158 0.0913,-0.206335 0.27683,-0.410311 0.41219,-0.453279 0.38751,-0.122984 0.72409,0.0457 0.90451,0.453279 0.0913,0.206338 0.19836,0.375158 0.23781,0.375158 0.23465,0 0.52855,-0.407178 0.73374,-1.016495 0.22884,-0.679601 0.24937,-0.699894 0.74649,-0.737063 0.70861,-0.05298 1.30839,0.440039 1.30839,1.075457 0,0.356214 0.11811,0.56474 0.60355,1.0657 0.67225,0.693719 0.65444,0.695878 1.39768,-0.169662 0.27001,-0.314441 0.41297,-0.614704 0.41297,-0.867441 0,-0.562126 0.60335,-1.129364 1.20128,-1.129364 0.25808,0 0.47818,0.06943 0.50353,0.158827 0.0249,0.08735 0.11025,0.39928 0.19,0.693166 0.21746,0.801494 0.68897,1.187632 0.86032,0.704516 0.13607,-0.383688 0.45003,-0.667075 0.73906,-0.667075 0.28903,0 0.60301,0.283387 0.73909,0.667075 0.17068,0.481357 0.59041,0.139878 0.83828,-0.682032 0.0924,-0.306252 0.18798,-0.628295 0.21248,-0.71565 0.0265,-0.09406 0.25744,-0.158827 0.56658,-0.158827 0.68371,0 1.26481,0.535451 1.26489,1.165548 8e-5,0.332023 0.12872,0.55504 0.59963,1.039381 l 0.59952,0.616657 0.60748,-0.653789 c 0.4757,-0.511936 0.60749,-0.746664 0.60749,-1.081844 0,-0.322003 0.0969,-0.50955 0.39094,-0.757002 0.215,-0.180924 0.50091,-0.328951 0.63532,-0.328951 0.20524,0 0.24437,0.09238 0.24437,0.576842 0,0.630883 -0.26114,1.229278 -1.03439,2.370376 -0.38595,0.56956 -0.49035,0.843182 -0.49035,1.285105 0,0.513035 0.0445,0.592314 0.51594,0.919022 0.32565,0.225668 0.54189,0.487251 0.58626,0.709184 0.0462,0.231108 0.16187,0.364897 0.33737,0.390334 0.41947,0.0608 0.86675,0.823513 0.77375,1.31935 -0.0585,0.311619 0.005,0.551408 0.25813,0.984332 0.53255,0.908759 0.58711,0.923267 1.31323,0.349301 0.39018,-0.308438 0.69292,-0.669722 0.77854,-0.929135 0.14814,-0.448837 0.69379,-0.859242 1.14239,-0.859242 0.20023,0 0.2663,0.07981 0.2663,0.321736 0,0.571494 -0.32443,1.11929 -1.24727,2.106049 -0.7162,0.765802 -0.92112,1.073705 -0.98645,1.482338 -0.0728,0.455213 -0.0339,0.576273 0.33171,1.031166 0.39632,0.493165 0.41066,0.549259 0.33218,1.299996 -0.0545,0.520904 -0.0326,0.844158 0.0651,0.961834 0.18754,0.225978 -0.0238,0.462937 -0.35594,0.399101 -0.18878,-0.03628 -0.254,-0.209521 -0.32676,-0.86808 -0.11991,-1.08527 -0.37989,-1.310616 -0.88011,-0.762921 -0.19185,0.210032 -0.43781,0.381879 -0.54655,0.381879 -0.30337,0 -0.70602,-0.47103 -0.70602,-0.825905 0,-0.327819 -0.0856,-0.374354 -0.43902,-0.238726 -0.27234,0.104508 -0.63471,0.803609 -0.59457,1.147067 0.0436,0.37257 -0.68771,1.188183 -1.06529,1.188183 -0.20125,0 -0.45702,0.20515 -0.81272,0.651907 -0.28549,0.35855 -0.51906,0.694616 -0.51906,0.746813 0,0.326138 1.49521,0.814575 1.95662,0.639156 0.53734,-0.2043 1.47404,0.19661 1.47404,0.630897 0,0.529185 -1.72603,0.570526 -3.60733,0.0864 -0.5149,-0.132503 -0.72252,-0.128871 -1.21155,0.02119 -0.49694,0.15249 -0.64339,0.276418 -0.92705,0.784498 -0.30149,0.539993 -0.41947,0.631285 -1.12284,0.868809 -0.43224,0.145979 -0.85645,0.361868 -0.94265,0.479753 -0.19198,0.262562 -0.61153,0.138846 -0.55229,-0.162861 0.0228,-0.11529 0.38364,-0.416706 0.80224,-0.669811 0.78605,-0.475287 1.06378,-0.900208 0.58835,-0.900208 -0.36211,0 -0.87746,-0.253937 -0.96189,-0.473993 -0.0417,-0.108554 0.10708,-0.363699 0.35875,-0.61536 0.35917,-0.359183 0.40039,-0.454401 0.25053,-0.578771 -0.24627,-0.204388 -1.44153,-0.312322 -1.44153,-0.130172 0,0.290076 -0.76602,0.55091 -1.37916,0.469611 -0.63013,-0.08355 -1.92784,0.249471 -2.01502,0.517099 -0.0869,0.266925 0.94748,1.416455 1.4128,1.570027 0.75422,0.248915 1.26696,1.406803 0.61944,1.39882 -0.12449,-0.0016 -0.46641,-0.111775 -0.7598,-0.244983 z m 0.0382,-0.579577 c -0.0768,-0.245391 -0.2255,-0.473525 -0.33047,-0.506963 -0.10493,-0.03344 -0.38888,-0.308409 -0.63095,-0.611042 -0.34022,-0.425307 -0.50654,-0.537554 -0.7325,-0.494361 -0.16076,0.03074 -0.31996,0.100597 -0.35372,0.155247 -0.0953,0.154178 1.89098,1.892295 2.17448,1.902809 0.007,2.62e-4 -0.05,-0.2003 -0.12684,-0.44569 z m 4.02841,-0.330221 c 0.42418,-0.138208 0.69311,-0.392211 1.02772,-0.970714 0.0647,-0.111848 -0.0185,-0.15883 -0.28096,-0.15883 -0.30874,0 -0.38531,0.0626 -0.44566,0.364429 -0.0503,0.251357 -0.24247,0.47016 -0.61944,0.705192 -0.3006,0.18742 -0.46078,0.313034 -0.35595,0.279138 0.10483,-0.03389 0.40825,-0.132541 0.67429,-0.219215 z m -8.47622,-1.854169 c -0.32821,-0.171968 -0.36877,-0.166057 -0.54025,0.07876 -0.13964,0.199403 -0.33245,0.268404 -0.78171,0.279776 l -0.59634,0.01508 0.63531,0.155686 c 0.56716,0.138993 0.68906,0.128929 1.13657,-0.09385 l 0.50126,-0.249539 z m 10.27965,0.283983 c 0.48162,-0.139742 0.50742,-0.172572 0.49279,-0.626708 -0.0241,-0.749842 -0.22651,-0.86936 -1.06458,-0.628938 -0.8245,0.236521 -1.00034,0.365582 -0.78777,0.578143 0.0838,0.08386 0.15245,0.342252 0.15245,0.574202 0,0.465791 -0.0326,0.462999 1.20711,0.103301 z m 3.97068,0.113842 c -0.19219,-0.104259 -0.34943,-0.244914 -0.34943,-0.312565 0,-0.06765 -0.16434,-0.123005 -0.36521,-0.123005 -0.20087,0 -0.61238,-0.08721 -0.91448,-0.193792 -0.5194,-0.183258 -0.56303,-0.179998 -0.80304,0.06 -0.13959,0.139586 -0.22135,0.286234 -0.18171,0.325887 0.12221,0.122211 1.78731,0.418944 2.39151,0.426185 l 0.57177,0.0069 z m -12.4184,-0.24729 c 0.088,-0.106098 0.16653,-0.401722 0.17438,-0.656939 0.014,-0.459452 0.007,-0.466267 -0.73874,-0.690158 -0.79767,-0.239514 -0.99608,-0.220596 -0.87924,0.08384 0.0396,0.103127 -0.0246,0.334968 -0.14277,0.515202 -0.25995,0.396719 -0.22981,0.431567 0.60635,0.701604 0.84717,0.273587 0.79362,0.271047 0.98002,0.04645 z m 0.94993,-0.18647 c 0.0323,-0.0522 -0.0478,-0.191207 -0.1778,-0.308901 -0.2245,-0.203171 -0.24294,-0.195416 -0.36452,0.153379 -0.12041,0.345418 -0.1098,0.363878 0.1778,0.308901 0.16823,-0.03216 0.33227,-0.10118 0.36452,-0.153379 z m 8.76729,-0.765993 c -0.0323,-0.0522 -0.19722,-0.121396 -0.36661,-0.153773 -0.2168,-0.04144 -0.29255,-0.0083 -0.25598,0.11189 0.18933,0.622609 0.166,0.603091 0.43275,0.361664 0.13668,-0.12368 0.22209,-0.267579 0.18984,-0.319781 z m -7.5134,0.178835 c 0.32954,-0.112292 0.6971,-0.181674 0.81677,-0.154184 0.11967,0.02749 0.34419,-0.08076 0.49892,-0.240554 0.1638,-0.169156 0.21691,-0.296158 0.12708,-0.303998 -0.55668,-0.04858 -2.632,0.238718 -2.632,0.36436 0,0.106725 0.40516,0.538539 0.50531,0.538539 0.0466,0 0.35435,-0.09187 0.68392,-0.204163 z m 4.90974,-0.415611 c 0,-0.05642 -0.18582,-0.201564 -0.41296,-0.32254 -0.37754,-0.201096 -0.47832,-0.20402 -1.17531,-0.03408 l -0.76237,0.185875 0.71091,0.01407 c 0.53348,0.01056 0.7674,0.07648 0.93718,0.26411 0.17441,0.192707 0.28088,0.220813 0.46442,0.122592 0.13097,-0.0701 0.23813,-0.173606 0.23813,-0.230029 z m -5.32064,-0.328075 c 0.9611,-0.183888 2.7292,-0.28825 2.84927,-0.16818 0.0364,0.03639 0.42151,-0.01016 0.85582,-0.103446 0.76015,-0.163264 0.81296,-0.157719 1.41394,0.148425 0.51204,0.260856 0.72905,0.302901 1.20708,0.233874 0.48913,-0.07063 0.71554,-0.211315 1.40872,-0.875369 0.45424,-0.435166 1.15332,-1.000673 1.55353,-1.256678 0.65923,-0.421712 0.74684,-0.531535 0.93196,-1.168353 0.18352,-0.631272 0.26721,-0.73787 0.8213,-1.046252 0.51324,-0.285639 0.6386,-0.428988 0.74567,-0.852633 0.11322,-0.447826 0.078,-0.644136 -0.29175,-1.627151 -0.23128,-0.614838 -0.48594,-1.183298 -0.56587,-1.263247 -0.0799,-0.07995 -0.14536,-0.23208 -0.14536,-0.338061 0,-0.353245 -0.4069,-1.263899 -0.5974,-1.336998 -0.23125,-0.08874 -0.4191,0.01622 -0.4191,0.234175 0,0.270785 -0.46757,0.607208 -0.78166,0.562417 -0.16439,-0.02344 -0.40749,-0.222171 -0.55049,-0.450033 -0.14087,-0.22443 -0.29493,-0.410257 -0.34235,-0.412951 -0.1955,-0.01109 -0.48781,0.420976 -0.62373,0.921981 -0.0797,0.293885 -0.16523,0.605811 -0.18999,0.693166 -0.0267,0.09398 -0.25818,0.158826 -0.56706,0.158826 -0.66339,0 -1.26484,-0.537032 -1.26484,-1.12936 0,-0.360577 -0.47207,-1.059122 -1.01648,-1.504141 -0.29326,-0.239712 -1.39768,0.937879 -1.39768,1.490271 0,0.576456 -0.59558,1.14323 -1.20132,1.14323 -0.25831,0 -0.47791,-0.06934 -0.50302,-0.158826 -0.0246,-0.08736 -0.12015,-0.409398 -0.21249,-0.715651 -0.24789,-0.821909 -0.6676,-1.163386 -0.83831,-0.682032 -0.27641,0.779409 -0.93403,0.889548 -1.32768,0.222358 -0.14433,-0.244594 -0.29964,-0.443841 -0.34514,-0.442769 -0.2312,0.0054 -0.39942,0.258331 -0.63262,0.951018 l -0.25668,0.762371 -0.56284,0.03797 c -0.51046,0.03443 -0.60103,-0.0055 -0.97317,-0.429363 -0.26066,-0.296873 -0.3874,-0.55503 -0.34745,-0.707776 0.0587,-0.224579 -0.69979,-1.347547 -1.061,-1.570789 -0.22747,-0.140576 -1.26794,1.080034 -1.26794,1.487448 0,0.19863 -0.15409,0.526753 -0.35936,0.76514 -0.27958,0.324694 -0.33882,0.48791 -0.2668,0.735029 0.15954,0.547327 0.12832,0.703119 -0.25768,1.285864 -0.35309,0.533045 -0.36642,0.598175 -0.22236,1.085763 0.11057,0.374248 0.33018,0.660513 0.78854,1.027932 0.75216,0.602893 1.42515,1.316445 1.84134,1.952369 0.22664,0.346249 0.47615,0.521631 1.00875,0.70903 0.58817,0.206947 0.77862,0.354529 1.12797,0.874107 0.42641,0.634203 1.23074,1.105476 1.68863,0.989401 0.11163,-0.0283 0.62783,-0.132752 1.1471,-0.232103 z m 8.82039,-0.6517 c 0.38131,-0.390562 0.69329,-0.779373 0.69329,-0.864021 0,-0.08465 0.0686,-0.22252 0.15247,-0.306382 0.10335,-0.103344 0.1074,-0.152474 0.0127,-0.152474 -0.17531,0 -1.52262,1.008885 -1.93145,1.446278 l -0.30517,0.326507 0.30517,0.122049 c 0.16785,0.06713 0.32197,0.125675 0.3425,0.130104 0.0204,0.0044 0.34928,-0.311497 0.73059,-0.702061 z m -11.63172,0.39553 c 0,-0.232394 -0.55764,-0.898109 -0.85815,-1.024466 -0.85762,-0.360596 -0.98766,-0.344628 -0.44424,0.05454 0.38492,0.282728 0.54002,0.487682 0.54002,0.713525 0,0.267357 0.0596,0.316857 0.38118,0.316857 0.20966,0 0.38119,-0.02721 0.38119,-0.06046 z m -6.22604,-1.757981 c 0,-0.106413 0.11173,-0.454123 0.24828,-0.772684 l 0.24829,-0.579205 -0.26898,-0.188404 c -0.14795,-0.103622 -0.31242,-0.161568 -0.36549,-0.128768 -0.12962,0.08012 -0.49739,1.721496 -0.49739,2.21995 v 0.397616 l 0.31765,-0.37751 c 0.17471,-0.207632 0.31764,-0.46458 0.31764,-0.570995 z m 23.25235,-0.461587 c 0,-0.483492 -0.0713,-0.710359 -0.30959,-0.984731 -0.30332,-0.349287 -0.31337,-0.351423 -0.4957,-0.105548 -0.16806,0.226637 -0.1596,0.26902 0.0872,0.437351 0.37386,0.254947 0.45972,0.400547 0.46199,0.783492 0.003,0.29137 0.0903,0.49766 0.21371,0.49766 0.0233,0 0.0424,-0.282702 0.0424,-0.628224 z m -19.56755,-0.107159 c 0,-0.174403 -1.86765,-1.8865 -1.95864,-1.795507 -0.0295,0.02953 -0.0918,0.205557 -0.13837,0.391157 -0.0753,0.300128 -0.0214,0.374468 0.48635,0.672113 0.31407,0.184063 0.60146,0.413917 0.63863,0.510789 0.0372,0.09687 0.2282,0.200276 0.42452,0.229788 0.1963,0.02951 0.39982,0.06222 0.45223,0.07269 0.0524,0.01048 0.0953,-0.02601 0.0953,-0.08103 z m 16.61093,-0.917027 c 0.26943,-0.04911 0.36127,-0.145828 0.39204,-0.412951 0.0488,-0.423461 -0.0664,-0.43529 -0.61257,-0.06293 -0.29072,0.198181 -0.4713,0.461301 -0.58864,0.857668 -0.22696,0.766654 -0.21572,0.781328 0.14608,0.190593 0.20994,-0.342832 0.42576,-0.529122 0.66309,-0.572384 z m 2.18406,-0.879094 c 0.1732,-0.828723 0.11036,-0.914638 -0.72784,-0.995177 l -0.62593,-0.06014 -0.0891,0.491027 c -0.049,0.270066 -0.11996,0.619678 -0.15771,0.776917 -0.061,0.254093 -0.0204,0.285888 0.36557,0.285888 0.23881,0 0.5452,0.08192 0.68085,0.182039 0.31626,0.233426 0.37928,0.15603 0.55412,-0.680551 z m -21.46329,0.381844 c 0,-0.06417 0.0332,-0.203176 0.0738,-0.308904 0.0631,-0.164573 0.009,-0.172294 -0.37775,-0.05366 -0.40704,0.124923 -0.42995,0.154958 -0.2326,0.304861 0.25607,0.194492 0.53658,0.224655 0.53658,0.0577 z m -0.34028,-0.594117 c 0.64569,-0.220009 0.66011,-0.251933 0.45342,-1.004551 -0.20101,-0.732028 -0.34949,-0.881362 -0.62683,-0.63038 -0.12271,0.111064 -0.40042,0.206975 -0.61709,0.213135 -0.21666,0.0062 -0.39364,0.07397 -0.39325,0.150693 0.003,0.414091 0.40762,1.473642 0.56399,1.473642 0.014,0 0.29284,-0.09114 0.61976,-0.202539 z m -1.43859,-1.258675 c 0,-0.240499 -0.0665,-0.317654 -0.27364,-0.317654 -0.15782,0 -0.47892,-0.222366 -0.75869,-0.525399 l -0.48503,-0.525396 0.27387,0.648213 c 0.21534,0.509712 0.37065,0.688443 0.72691,0.836504 0.24919,0.103561 0.46736,0.191238 0.48483,0.194839 0.0175,0.0036 0.0318,-0.136395 0.0318,-0.311107 z m 23.03817,0.0953 c -0.14558,-0.409054 -0.19095,-0.430681 -0.43675,-0.208224 -0.18778,0.16992 -0.20696,0.245118 -0.0827,0.323985 0.30212,0.191751 0.60486,0.124288 0.51943,-0.115761 z m 1.47574,-0.68245 c 0.33424,-0.357876 0.71059,-0.824812 0.83632,-1.037638 0.22262,-0.376872 0.22227,-0.384323 -0.0135,-0.28594 -0.13311,0.05556 -0.37068,0.128915 -0.52789,0.163017 -0.15724,0.0341 -0.28591,0.134319 -0.28591,0.222703 0,0.132141 -0.49715,0.589243 -1.05376,0.96884 -0.14123,0.09632 0.11647,0.619702 0.30515,0.619702 0.0725,0 0.40531,-0.292806 0.73956,-0.650684 z m -2.15252,-0.09454 c 0,-0.04438 -0.1438,-0.329525 -0.31766,-0.633666 -0.17388,-0.304139 -0.3193,-0.647208 -0.32316,-0.762371 -0.008,-0.255876 -0.75602,-0.88239 -0.75396,-0.632005 0.003,0.205545 0.31213,1.247511 0.58767,1.972421 0.19878,0.522934 0.20862,0.529448 0.50567,0.334807 0.16663,-0.109175 0.30226,-0.23481 0.30144,-0.279186 z m -20.07529,-0.07904 c 0.25704,-0.415907 0.26353,-0.487977 0.10578,-1.175325 l -0.16803,-0.732245 -0.038,0.650629 c -0.0285,0.488101 -0.11295,0.721069 -0.33811,0.93262 -0.28147,0.264403 -0.28702,0.296465 -0.0893,0.514104 0.11602,0.127664 0.22059,0.236881 0.23236,0.242704 0.0116,0.0058 0.14462,-0.188796 0.29522,-0.432487 z m 4.94377,-2.881501 c 0.0106,-0.38513 0.11157,-0.552746 0.58444,-0.968983 0.50678,-0.446072 0.57179,-0.563894 0.57179,-1.036167 0,-0.383405 -0.10615,-0.687168 -0.37849,-1.082992 -0.58841,-0.855208 -1.14607,-1.997057 -1.14821,-2.351051 -0.003,-0.254005 -0.0277,-0.281307 -0.1251,-0.130566 -0.0678,0.104825 -0.12406,0.457329 -0.12512,0.783338 -0.003,0.540409 -0.0514,0.636284 -0.56213,1.085845 -0.46741,0.411422 -0.56645,0.579557 -0.59788,1.015079 -0.0306,0.423654 0.0485,0.651812 0.41989,1.211167 0.6231,0.938456 1.11673,1.934938 1.13202,2.285209 0.0124,0.282811 0.0153,0.282115 0.11441,-0.02754 0.0559,-0.174712 0.10742,-0.527214 0.11438,-0.783339 z m 10.12851,-1.06408 c 0.48644,-0.398603 0.55737,-0.520255 0.55737,-0.956156 0,-0.363781 -0.11676,-0.663472 -0.42981,-1.103286 -0.51591,-0.724826 -1.09009,-1.842503 -1.1076,-2.156124 -0.0198,-0.355476 -0.21394,0.338079 -0.22881,0.817652 -0.0103,0.330309 -0.12163,0.489088 -0.57947,0.825902 -0.51474,0.378669 -0.56729,0.466725 -0.57179,0.95843 -0.004,0.423912 0.10213,0.699735 0.48832,1.270619 0.66688,0.985755 1.02798,1.727295 1.04873,2.153554 0.01,0.194964 0.0731,-0.0299 0.14147,-0.4997 0.11565,-0.795112 0.16277,-0.885761 0.68159,-1.310891 z m -9.14114,0.703861 c 0.33218,-0.168913 0.3584,-0.22265 0.2304,-0.472406 l -0.14444,-0.28181 -0.39182,0.345342 c -0.32123,0.28312 -0.40486,0.471257 -0.46418,1.044183 l -0.0724,0.698841 0.23381,-0.57178 c 0.15179,-0.371187 0.36531,-0.638641 0.60862,-0.76237 z m 3.02906,0.51781 c -0.0691,-0.502475 -0.17413,-0.714245 -0.48321,-0.974322 -0.36873,-0.310251 -0.40108,-0.31667 -0.4876,-0.09672 -0.14534,0.369493 -0.1319,0.402087 0.23889,0.579374 0.23093,0.110413 0.41214,0.348059 0.53438,0.700812 0.23654,0.682562 0.30956,0.605266 0.19754,-0.20914 z m -4.95168,-0.481782 c -0.25191,-0.474062 -0.54102,-0.971677 -0.64246,-1.10581 -0.17873,-0.236305 -0.19241,-0.236681 -0.44059,-0.01206 -0.32805,0.296891 -0.32649,0.306705 0.1265,0.790022 0.20982,0.223853 0.43685,0.552624 0.50453,0.730604 0.0677,0.17798 0.2032,0.323599 0.30121,0.323599 0.098,0 0.25455,0.09204 0.34792,0.204526 0.35685,0.429982 0.24477,-0.09927 -0.19711,-0.930868 z m 6.28039,0.516006 c 0.003,-0.08074 0.20426,-0.386336 0.44884,-0.679095 0.50509,-0.604536 0.50601,-0.608171 0.24222,-0.952966 l -0.19439,-0.254124 -0.19238,0.254124 c -0.30792,0.406797 -0.77927,1.232802 -0.98602,1.72793 l -0.19097,0.457311 0.43428,-0.203186 c 0.23884,-0.111752 0.43614,-0.269251 0.43842,-0.349994 z m 3.69056,0.278196 c -0.32027,-0.842396 -1.06926,-2.10085 -1.25034,-2.10085 -0.0483,0 -0.16211,0.118899 -0.25286,0.264219 -0.14478,0.231841 -0.12128,0.320394 0.1918,0.722651 0.19624,0.25214 0.41751,0.564928 0.49172,0.695084 0.1033,0.181189 0.69914,0.654444 0.9102,0.722934 0.0159,0.0051 -0.0249,-0.131709 -0.0905,-0.304038 z m 1.45378,-0.828029 c 0.34274,-0.13031 0.36095,-0.178761 0.21085,-0.561329 -0.0884,-0.225269 -0.12271,-0.216464 -0.51181,0.131183 -0.33933,0.303188 -0.4281,0.490323 -0.4762,1.003845 l -0.0591,0.631187 0.25643,-0.540957 c 0.15354,-0.323916 0.38619,-0.590296 0.57986,-0.663929 z m 3.05025,0.453194 c -0.0652,-0.434522 -0.1882,-0.668999 -0.47971,-0.914302 -0.36635,-0.308247 -0.39818,-0.314444 -0.48475,-0.09433 -0.14806,0.37642 -0.1289,0.425479 0.21768,0.557252 0.21026,0.07994 0.40005,0.307628 0.52808,0.633532 0.25117,0.63941 0.33181,0.572227 0.2187,-0.182152 z m -17.7201,0.0977 c 0,-0.115099 0.20794,-0.463045 0.4621,-0.773213 l 0.46212,-0.563944 -0.26985,-0.269848 c -0.26696,-0.266962 -0.27186,-0.267184 -0.45704,-0.02093 -0.22156,0.294659 -0.9597,1.6481 -0.9597,1.759688 0,0.04263 0.17153,0.07751 0.38119,0.07751 0.26924,0 0.38118,-0.06146 0.38118,-0.209272 z m 8.78258,-0.33074 c 0.15103,-0.297008 0.49525,-0.865648 0.76494,-1.263647 0.38547,-0.568831 0.48932,-0.84065 0.4854,-1.270619 -0.004,-0.498269 -0.0554,-0.584124 -0.57176,-0.963965 -0.44561,-0.327813 -0.56682,-0.496022 -0.56682,-0.786638 0,-0.443706 -0.20402,-0.615688 -0.31512,-0.265641 -0.0436,0.137371 -0.36218,0.683159 -0.70797,1.212863 -0.51612,0.790622 -0.62873,1.064786 -0.62873,1.530942 0,0.31232 0.0429,0.568124 0.0953,0.568458 0.0524,2.64e-4 0.30972,0.19754 0.57176,0.43824 0.37899,0.348083 0.47649,0.529955 0.47649,0.888825 0,0.248158 0.0274,0.451194 0.061,0.451194 0.0335,0 0.18449,-0.243004 0.33554,-0.540012 z m -1.76437,-0.794136 c 0.0514,-0.06989 0.0942,-0.396648 0.0953,-0.726136 0.003,-0.651169 -0.19492,-0.862139 -0.8052,-0.862139 -0.64027,0 -0.71758,0.101316 -0.71758,0.940218 v 0.785968 l 0.66707,-0.0054 c 0.36689,-0.003 0.70908,-0.0626 0.76041,-0.132485 z m 9.55429,-0.570087 c 0.0928,-0.790234 -0.0689,-1.018188 -0.72239,-1.018188 -0.64678,0 -0.8568,0.201011 -0.8568,0.81998 0,0.843386 0.0472,0.895356 0.81401,0.895356 h 0.68326 z m -14.97052,-0.09699 c 0.2536,-0.334084 0.2146,-0.412951 -0.20431,-0.412951 -0.42881,0 -0.44519,0.02803 -0.22355,0.382908 0.1923,0.307933 0.21566,0.309573 0.42786,0.03004 z m 9.65927,-0.390218 c -0.11215,-0.02244 -0.32062,-0.02244 -0.46326,0 -0.24839,0.03907 -0.25027,0.05372 -0.044,0.346382 l 0.21534,0.305583 0.24792,-0.305583 c 0.21738,-0.267914 0.2228,-0.310613 0.044,-0.346382 z m -9.25308,-0.258823 c 0.113,-0.07168 0.15343,-0.33759 0.12705,-0.835607 l -0.0387,-0.73047 -0.73059,-0.02021 -0.73062,-0.02021 v 0.783653 c 0,0.508035 0.0559,0.806194 0.15882,0.847741 0.25893,0.104471 1.03519,0.08856 1.21405,-0.02487 z m 9.60892,-0.09064 c 0.20582,-0.205825 0.27564,-1.152633 0.10242,-1.38883 -0.12134,-0.165457 -1.33572,-0.165269 -1.45732,2.25e-4 -0.0513,0.06988 -0.0942,0.395814 -0.0953,0.724292 -0.003,0.436168 0.058,0.632156 0.22043,0.726741 0.33673,0.196128 1.00515,0.162195 1.22978,-0.06243 z m -5.04163,-0.594468 c -0.10441,-0.15724 -0.23308,-0.285891 -0.28589,-0.285891 -0.0528,0 -0.1815,0.128651 -0.28591,0.285891 -0.18549,0.27937 -0.17896,0.28589 0.28591,0.28589 0.46485,0 0.47139,-0.0065 0.28589,-0.28589 z m 9.4869,-0.03068 c -0.2222,-0.339127 -0.35463,-0.322824 -0.5646,0.06952 -0.11943,0.223174 -0.0885,0.24705 0.31991,0.24705 h 0.45212 z m -10.47163,-0.318746 c 0.15412,-0.28797 0.0444,-0.567799 -0.36944,-0.942314 -0.14623,-0.132345 -0.26588,-0.310748 -0.26588,-0.396449 0,-0.0857 -0.20013,-0.308459 -0.44471,-0.49502 -0.39082,-0.298076 -0.44471,-0.311136 -0.44471,-0.107719 0,0.285443 1.10424,2.195626 1.26923,2.195626 0.0657,0 0.18069,-0.114356 0.25551,-0.254124 z m 2.13648,-0.34942 c 0.48356,-0.759796 0.85098,-1.533805 0.76769,-1.617112 -0.10374,-0.103735 -0.74205,0.23813 -0.74313,0.398002 0,0.08074 -0.20111,0.386337 -0.44572,0.679098 -0.24458,0.292759 -0.44471,0.556244 -0.44471,0.585523 0,0.111308 0.31901,0.558033 0.39851,0.558033 0.0458,0 0.25609,-0.271595 0.46736,-0.603544 z m 7.37074,0.338077 c 0.14756,-0.236236 0.11594,-0.329467 -0.28707,-0.846754 -0.24908,-0.319709 -0.45289,-0.623435 -0.45289,-0.674947 0,-0.05151 -0.20013,-0.211735 -0.44471,-0.35605 -0.24461,-0.144311 -0.44461,-0.221432 -0.44445,-0.171376 0,0.132409 0.7557,1.556036 1.04262,1.965175 0.29403,0.419298 0.37028,0.430209 0.5865,0.08395 z m 2.15889,-0.338077 c 0.48356,-0.759796 0.85101,-1.533805 0.76769,-1.617112 -0.10371,-0.103735 -0.74205,0.23813 -0.74313,0.398002 0,0.08074 -0.20111,0.386337 -0.44569,0.679098 -0.24461,0.292759 -0.44472,0.556244 -0.44472,0.585523 0,0.111308 0.31901,0.558033 0.39849,0.558033 0.0458,0 0.25612,-0.271595 0.46736,-0.603544 z m -17.01016,-0.658201 c -0.26448,-0.128828 -0.44427,-0.369202 -0.61775,-0.825902 l -0.24466,-0.644184 0.0676,0.762371 c 0.0582,0.656105 0.12322,0.809836 0.4667,1.102886 l 0.3991,0.340513 0.15105,-0.276984 c 0.1348,-0.247182 0.11091,-0.296532 -0.22201,-0.4587 z m 3.05866,-0.373375 c 0,-0.25377 0.0318,-0.604345 0.0686,-0.779055 0.0368,-0.174712 -0.0556,-0.01246 -0.20537,0.360574 -0.20555,0.512107 -0.36062,0.709049 -0.63314,0.804045 -0.32322,0.112676 -0.34658,0.157245 -0.22376,0.426815 l 0.13713,0.301004 0.42741,-0.325991 c 0.34589,-0.263816 0.42773,-0.413993 0.42913,-0.787392 z m 6.85067,0.583716 c 0.005,-0.05414 -0.13608,-0.15358 -0.31335,-0.220972 -0.19428,-0.07387 -0.42235,-0.337524 -0.5743,-0.66393 l -0.25204,-0.541401 0.0649,0.63531 c 0.0519,0.507709 0.14644,0.709329 0.47066,1.003845 0.37865,0.343958 0.41204,0.352433 0.50044,0.127061 0.0521,-0.13281 0.0988,-0.285771 0.10366,-0.339913 z m 2.45565,0.06916 c 0.12115,-0.133877 0.25032,-0.525124 0.28702,-0.869437 l 0.0667,-0.626023 -0.25204,0.541401 c -0.1565,0.336172 -0.3791,0.589709 -0.58722,0.668841 -0.22971,0.08733 -0.31115,0.190137 -0.25876,0.326659 0.042,0.10957 0.0765,0.253733 0.0765,0.320361 0,0.160861 0.38225,-0.04622 0.66784,-0.361802 z" />
    <path
       style="fill:#ff0000;stroke:#000000;stroke-width:0.00274243"
       d="m 150.55735,72.613739 c -0.45505,0.0778 -0.94541,0.17299 -1.33319,0.430649 -0.098,0.181374 0.15401,0.345043 0.13144,0.538419 0.0763,0.173784 -0.0328,0.453983 0.13455,0.573341 0.4858,-0.01455 0.96805,-0.183784 1.41911,-0.357375 0.25794,-0.212783 0.13203,-0.620043 0.0883,-0.902541 -0.0469,-0.205251 -0.24036,-0.303702 -0.44018,-0.282493 z"
       id="path2301"
       class="OC" />
    <path
       style="fill:#ff0000;stroke:#000000;stroke-width:0.00110811"
       d="m 153.60317,70.33579 c -0.2944,0.105944 -0.53664,0.321461 -0.79321,0.495461 -0.49877,0.368417 -0.98204,0.767258 -1.39278,1.233012 -0.0151,0.05845 0.10101,0.06155 0.1315,0.09324 0.15656,0.06284 0.31511,0.141629 0.47609,0.181928 0.438,-0.399392 0.86169,-0.819703 1.23624,-1.280258 0.0775,-0.10614 0.18429,-0.205722 0.19062,-0.344631 0.037,-0.142753 0.16446,-0.242472 0.22543,-0.366281 -0.0204,-0.01511 -0.0498,-0.01135 -0.0739,-0.01246 z"
       id="path2342"
       class="OC" />
    <path
       style="fill:#ff0000;stroke:#000000;stroke-width:0.00110811"
       d="m 151.34264,72.698262 c -0.0691,-0.01016 -0.15133,0.04489 -0.10406,0.120336 0.0581,0.169595 0.0872,0.363016 0.19634,0.507476 0.12606,-0.01355 0.20434,-0.149709 0.29499,-0.227333 0.0547,-0.06264 0.19147,-0.185163 0.0831,-0.262268 -0.13941,-0.0858 -0.30628,-0.137546 -0.47034,-0.138211 z"
       id="path2343"
       class="OC" />
    <path
       style="fill:#ff0000;stroke:#000000;stroke-width:0.00110811"
       d="m 152.41707,73.309323 c -0.17382,0.02617 -0.27478,0.200292 -0.3939,0.312174 -0.0512,0.05112 -0.14066,0.171296 -0.0326,0.214177 0.46101,0.16419 0.95255,0.223071 1.43285,0.307264 0.47381,0.0811 0.95396,0.110672 1.43429,0.105418 -0.13098,-0.103225 -0.32243,-0.179552 -0.46454,-0.29486 -0.10335,-0.05758 -0.15812,-0.162335 -0.23166,-0.247809 -0.19377,-0.114104 -0.4372,-0.05954 -0.64803,-0.119901 -0.36713,-0.0542 -0.70785,-0.221821 -1.07373,-0.276939 -0.008,1.74e-4 -0.0151,-2.65e-4 -0.0226,5.29e-4 z"
       id="path2344"
       class="OC" />
    <path
       style="fill:#ff0000;stroke:#000000;stroke-width:0.00110811"
       d="m 149.51526,74.391501 c -0.15876,-0.01132 -0.34357,0.05002 -0.38485,0.222358 -0.0599,0.253349 -0.18192,0.497142 -0.39857,0.65101 -0.18973,0.160295 -0.42139,0.274505 -0.60543,0.435927 0.0749,0.02387 0.17147,-0.04594 0.25075,-0.05699 0.3927,-0.120555 0.82062,-0.25146 1.07811,-0.596056 0.13148,-0.180766 0.29523,-0.355981 0.36714,-0.56933 -0.0473,-0.100664 -0.21622,-0.07905 -0.30715,-0.08692 z"
       id="path2345"
       class="OC" />
    <path
       style="fill:#ff0000;stroke:#000000;stroke-width:0.000321998"
       d="m 148.33665,72.142354 c -0.26655,0.0085 -0.52317,0.09051 -0.78163,0.148297 -0.20465,0.05032 -0.40993,0.09846 -0.61379,0.151767 -0.007,0.02682 0.0446,0.0092 0.0622,0.01561 0.32793,0.01228 0.65787,0.0059 0.98427,0.03611 0.17148,0.02304 0.35366,0.05763 0.48652,0.176144 0.096,0.07514 0.16928,0.1852 0.28675,0.229147 0.10653,0.04092 0.21433,-0.0209 0.30447,-0.07278 0.0718,-0.04809 0.1527,-0.100579 0.18579,-0.184081 0.0111,-0.05015 -0.0419,-0.08486 -0.0714,-0.116816 -0.17118,-0.147511 -0.37466,-0.253016 -0.58186,-0.340284 -0.0837,-0.02991 -0.17249,-0.04445 -0.26131,-0.04311 z"
       id="path2346"
       class="OC" />
    <path
       style="fill:#ffff00;stroke:#000000;stroke-width:0.0014338"
       d="m 153.01126,60.302454 c -0.28114,-0.0068 -0.64786,0.03618 -0.7607,0.340921 -0.0886,0.329237 -0.0676,0.681239 -0.0318,1.017098 0.0125,0.204026 0.21079,0.31415 0.39748,0.313309 0.34875,0.02694 0.70505,0.02447 1.05077,0.01013 0.032,-0.448609 0.16871,-0.912969 0.0522,-1.358636 -0.10058,-0.298654 -0.43702,-0.341556 -0.70799,-0.322829 z"
       id="path2610"
       class="T" />
    <path
       style="fill:#ffff00;stroke:#000000;stroke-width:0.0014338"
       d="m 152.96074,59.612328 c -0.17631,0.05808 -0.26198,0.265695 -0.31717,0.429355 -0.0174,0.134948 0.18498,0.08325 0.26418,0.09798 0.16979,-0.006 0.35784,0.01569 0.51657,-0.01005 -0.1392,-0.170698 -0.2245,-0.422111 -0.43737,-0.515607 -0.009,-0.0016 -0.0175,-0.0024 -0.0262,-0.0016 z"
       id="path2611"
       class="T" />
    <path
       style="fill:#ffff00;stroke:#000000;stroke-width:0.0014338"
       d="m 155.12914,57.545866 c -0.23603,0.05752 -0.49164,0.166503 -0.63306,0.373348 -0.2251,0.489453 -0.63116,0.861828 -0.92233,1.305989 0.0993,0.194614 0.20897,0.41847 0.39855,0.534985 0.25025,-0.220644 0.40212,-0.536845 0.58781,-0.811564 0.2358,-0.41396 0.50639,-0.82376 0.63366,-1.286989 0.0115,-0.04711 0.002,-0.126024 -0.0646,-0.115769 z"
       id="path2612"
       class="T" />
    <path
       style="fill:#ffff00;stroke:#000000;stroke-width:0.0014338"
       d="m 150.69159,57.46303 c -0.0737,0.0287 0.0395,0.14191 0.0422,0.193395 0.32447,0.659466 0.65186,1.325615 1.08418,1.922243 0.0639,0.09627 0.20769,0.231595 0.3133,0.106582 0.13743,-0.141168 0.30301,-0.371779 0.16438,-0.56579 -0.24758,-0.405659 -0.57195,-0.761868 -0.80538,-1.175436 -0.22949,-0.204636 -0.49545,-0.390247 -0.791,-0.480938 l -0.007,-1.11e-4 z"
       id="path2613"
       class="T" />
    <path
       style="fill:#ffff00;stroke:#000000;stroke-width:0.0014338"
       d="m 151.92275,61.746222 c -0.28699,0.158033 -0.5189,0.416211 -0.70323,0.684808 -0.14775,0.336743 -0.14873,0.717478 -0.17923,1.076298 0.0764,-0.02831 0.0909,-0.176109 0.14361,-0.240273 0.17219,-0.328552 0.34965,-0.705707 0.71538,-0.852549 0.1213,-0.04672 0.27147,-0.134482 0.22527,-0.288663 -0.0326,-0.123261 -0.0583,-0.340796 -0.2018,-0.379621 z"
       id="path2614"
       class="T" />
    <path
       style="fill:#ffff00;stroke:#000000;stroke-width:0.0014338"
       d="m 154.06202,61.751654 c -0.14021,0.06824 -0.15948,0.265382 -0.18852,0.403312 -0.0287,0.210518 0.24385,0.232937 0.36646,0.334367 0.36782,0.21535 0.42889,0.676103 0.65686,0.998337 0.0776,-0.0027 0.0294,-0.14464 0.0393,-0.19698 -0.0311,-0.443045 -0.1058,-0.930849 -0.46173,-1.238274 -0.12338,-0.111204 -0.24944,-0.252579 -0.41239,-0.300762 z"
       id="path2615"
       class="T" />
    <path
       style="fill:#ff6600;stroke:#000000;stroke-width:0.0014338"
       d="m 155.45023,68.086855 c -0.30058,0.07864 -0.55924,0.289299 -0.76507,0.516954 -0.25599,0.316008 -0.34372,0.727676 -0.44419,1.111808 0.0185,0.0813 0.0923,-0.07452 0.10966,-0.08899 0.22626,-0.34971 0.46444,-0.780441 0.9146,-0.859999 0.24936,-0.04667 0.33935,-0.323339 0.30206,-0.546867 -0.007,-0.107501 0.0217,-0.161944 -0.11706,-0.132901 z"
       id="path2616"
       class="OR" />
    <path
       style="fill:#ff6600;stroke:#000000;stroke-width:0.0014338"
       d="m 156.02571,66.868521 c -0.0725,0.465103 -0.19782,0.922787 -0.25226,1.389943 -7.9e-4,0.173025 0.23234,0.132453 0.34467,0.149765 0.32471,0.0042 0.62932,0.123492 0.90217,0.291968 0.12984,0.03834 0.16596,-0.159205 0.20437,-0.244809 0.11039,-0.386667 0.23543,-0.789074 0.20281,-1.195093 -0.0523,-0.2574 -0.3748,-0.265497 -0.5817,-0.302721 -0.27244,-0.0292 -0.55092,-0.06848 -0.82006,-0.08905 z"
       id="path2617"
       class="OR" />
    <path
       style="fill:#ff6600;stroke:#000000;stroke-width:0.0014338"
       d="m 155.16061,63.691875 c -0.0968,0.03823 -0.0175,0.187153 -0.0157,0.260922 0.17672,0.683818 0.39199,1.360466 0.65559,2.015791 0.0322,0.09248 0.1362,0.262075 0.24773,0.156094 0.16142,-0.106924 0.33277,-0.214998 0.44974,-0.370099 -0.24792,-0.480076 -0.53186,-0.946894 -0.69226,-1.465274 -0.12602,-0.265652 -0.37208,-0.495503 -0.6451,-0.597434 z"
       id="path2618"
       class="OR" />
    <path
       style="fill:#ff6600;stroke:#000000;stroke-width:0.0014338"
       d="m 159.60959,64.492001 c -0.28707,0.117269 -0.61568,0.152805 -0.87697,0.32434 -0.128,0.235791 -0.31149,0.436192 -0.51893,0.607179 -0.20044,0.199784 -0.47835,0.325297 -0.64273,0.557223 0.008,0.178237 0.11258,0.357341 0.23899,0.480769 0.12609,0.123598 0.2497,-0.06836 0.34629,-0.134138 0.54534,-0.525981 1.0789,-1.086155 1.44976,-1.752259 0.005,-0.01791 0.0462,-0.08252 0.004,-0.08311 z"
       id="path2619"
       class="OR" />
    <path
       style="fill:#ff6600;stroke:#000000;stroke-width:0.0014338"
       d="m 156.94653,66.211494 c -0.14941,0.04769 -0.28589,0.174199 -0.35397,0.3151 1.6e-4,0.146109 0.19671,0.177848 0.30401,0.223079 0.11044,0.03877 0.22952,-0.0176 0.29729,-0.1044 -0.0739,-0.128347 -0.0717,-0.39498 -0.24733,-0.433779 z"
       id="path2620"
       class="OR" />
    <path
       style="fill:#ff6600;stroke:#000000;stroke-width:0.0014338"
       d="m 157.52347,68.557322 c -0.12034,0.09896 -0.23773,0.235847 -0.28491,0.386678 0.0626,0.178464 0.2782,0.248065 0.40185,0.379338 0.31969,0.237053 0.19756,0.675711 0.33409,1.001138 0.0139,0.07103 0.13622,0.150694 0.13817,0.02941 0.0219,-0.351552 0.0143,-0.712869 -0.0142,-1.059963 -0.12953,-0.280366 -0.31444,-0.552595 -0.565,-0.73542 -0.003,-7.94e-4 -0.007,-0.0016 -0.01,-0.0011 z"
       id="path2621"
       class="OR" />
    <path
       style="fill:#00ff00;stroke:#000000;stroke-width:0.0014338"
       d="m 148.05402,58.971264 c -0.19898,0.02819 -0.47363,-0.03465 -0.61329,0.148196 -0.11028,0.312875 -0.0498,0.658847 -0.0623,0.984784 -0.0217,0.257371 0.18854,0.466987 0.43232,0.505357 0.29983,0.05304 0.64931,0.06644 0.91315,-0.10899 0.30443,-0.261829 0.23125,-0.706985 0.23806,-1.063133 0.003,-0.160782 -0.006,-0.395808 -0.21095,-0.421185 -0.22666,-0.05639 -0.4654,-0.0439 -0.69701,-0.04503 z"
       id="path2622"
       class="IR" />
    <path
       style="fill:#00ff00;stroke:#000000;stroke-width:0.0014338"
       d="m 146.22917,57.45155 c 0.006,0.278389 0.0485,0.572148 0.1094,0.848905 0.0762,0.380815 0.39987,0.637358 0.68793,0.865042 0.0738,0.07561 0.17289,0.01426 0.18662,-0.07785 0.0454,-0.142081 0.18306,-0.360973 0.005,-0.46755 -0.27247,-0.144939 -0.53908,-0.324898 -0.67891,-0.610696 -0.11423,-0.177678 -0.1782,-0.394782 -0.30609,-0.558972 z"
       id="path2623"
       class="IR" />
    <path
       style="fill:#00ff00;stroke:#000000;stroke-width:0.0014338"
       d="m 148.27547,60.815037 c -0.15106,0.01783 -0.33464,-0.015 -0.4671,0.06301 0.0298,0.195834 0.19394,0.34988 0.30199,0.509559 0.0967,0.07171 0.1635,-0.107662 0.22181,-0.15647 0.064,-0.115668 0.22514,-0.223099 0.20273,-0.367651 -0.0626,-0.06771 -0.17843,-0.03978 -0.25943,-0.04845 z"
       id="path2624"
       class="IR" />
    <path
       style="fill:#00ff00;stroke:#000000;stroke-width:0.0014338"
       d="m 147.13711,61.210284 c -0.52036,0.703213 -0.9599,1.474801 -1.26885,2.293012 0.18672,-0.03431 0.36542,-0.163642 0.53986,-0.249066 0.29941,-0.12637 0.353,-0.473855 0.55198,-0.69715 0.19208,-0.276061 0.45079,-0.514049 0.5941,-0.820045 0.0199,-0.226194 -0.20649,-0.383206 -0.30777,-0.562768 -0.043,-0.100317 -0.0667,-1.11e-4 -0.10932,0.03602 z"
       id="path2625"
       class="IR" />
    <path
       style="fill:#00ff00;stroke:#000000;stroke-width:0.0014338"
       d="m 149.15855,61.192642 c -0.18076,0.07065 -0.27944,0.277056 -0.33527,0.452543 -0.008,0.211662 0.19928,0.359021 0.28626,0.534956 0.35934,0.526018 0.76093,1.077098 1.34032,1.370986 0.0559,-0.07408 -0.05,-0.189992 -0.0596,-0.270444 -0.28381,-0.683119 -0.63029,-1.346946 -1.06701,-1.945222 -0.0498,-0.04586 -0.0906,-0.134651 -0.16471,-0.142819 z"
       id="path2626"
       class="IR" />
    <path
       style="fill:#00ff00;stroke:#000000;stroke-width:0.0014338"
       d="m 150.1132,57.416152 c -0.23202,0.409112 -0.38815,0.947353 -0.87284,1.130204 -0.12604,0.03977 -0.22782,0.160811 -0.17591,0.297154 0.0439,0.106209 0.0226,0.271986 0.12182,0.34372 0.24306,-0.03652 0.43141,-0.23608 0.60079,-0.400905 0.26207,-0.38368 0.27809,-0.874995 0.33493,-1.321726 -0.007,-0.0069 0.0177,-0.05423 -0.009,-0.04845 z"
       id="path2627"
       class="IR" />
    <path
       style="fill:#0000ff;stroke:#000000;stroke-width:0.0014338"
       d="m 143.3902,60.313151 c -0.20008,-0.0068 -0.4818,-0.0016 -0.54703,0.236241 -0.10297,0.478306 -0.0671,0.981948 -0.0654,1.463091 0.4562,-0.03323 0.93241,0.02037 1.37404,-0.118343 0.12932,-0.08926 0.0862,-0.288875 0.11437,-0.42399 -0.004,-0.284662 0.046,-0.590883 -0.0661,-0.859708 -0.11261,-0.241548 -0.39491,-0.324934 -0.64308,-0.297312 -0.0556,-2.25e-4 -0.1112,-2.65e-4 -0.16679,2.1e-5 z"
       id="path2628"
       class="IC" />
    <path
       style="fill:#0000ff;stroke:#000000;stroke-width:0.0014338"
       d="m 143.38364,59.652317 c -0.11793,0.123529 -0.26036,0.266123 -0.28715,0.439717 0.11712,0.09007 0.29926,0.02725 0.43848,0.04809 0.10236,-0.01461 0.23506,0.01937 0.32323,-0.03336 -0.0577,-0.211497 -0.22642,-0.390118 -0.38842,-0.52692 -0.0287,0.02416 -0.0574,0.04832 -0.0861,0.07247 z"
       id="path2629"
       class="IC" />
    <path
       style="fill:#0000ff;stroke:#000000;stroke-width:0.0014338"
       d="m 141.30452,57.469137 c -0.11153,0.05929 -0.006,0.21984 0.0143,0.305073 0.30754,0.678759 0.66593,1.343334 1.12475,1.932604 0.0784,0.130085 0.2095,-0.01728 0.26083,-0.09404 0.16429,-0.21001 0.15222,-0.516638 -0.0274,-0.713369 -0.19959,-0.2667 -0.48557,-0.477287 -0.59553,-0.802257 -0.19101,-0.254341 -0.44522,-0.472683 -0.72743,-0.619892 -0.0159,-0.0053 -0.0327,-0.01029 -0.0496,-0.0081 z"
       id="path2630"
       class="IC" />
    <path
       style="fill:#0000ff;stroke:#000000;stroke-width:0.0014338"
       d="m 145.59651,57.545977 c -0.29681,0.06728 -0.60809,0.236257 -0.71662,0.539187 -0.22305,0.408138 -0.57802,0.727683 -0.80909,1.127604 0.0308,0.221321 0.20244,0.404582 0.36036,0.551844 0.11425,-0.04286 0.1711,-0.200615 0.25506,-0.289224 0.3923,-0.558877 0.73634,-1.159026 0.97834,-1.798238 0.0169,-0.06534 0.0339,-0.15213 -0.068,-0.131173 z"
       id="path2631"
       class="IC" />
    <path
       style="fill:#0000ff;stroke:#000000;stroke-width:0.0014338"
       d="m 144.51786,61.749135 c -0.10937,0.105645 -0.15244,0.277312 -0.19076,0.422801 0.0311,0.199248 0.27879,0.247182 0.41652,0.356434 0.37413,0.231542 0.42181,0.708054 0.62796,1.057145 0.0855,0.08082 0.0415,-0.115527 0.0459,-0.154805 -0.0425,-0.477877 -0.0655,-1.030134 -0.45854,-1.367652 -0.13366,-0.112623 -0.26953,-0.264316 -0.44111,-0.313923 z"
       id="path2632"
       class="IC" />
    <path
       style="fill:#0000ff;stroke:#000000;stroke-width:0.0014338"
       d="m 142.16744,61.937881 c -0.2599,0.216379 -0.50292,0.489569 -0.53387,0.842243 -0.0394,0.272748 -0.10331,0.558979 -0.0832,0.83037 0.18736,-0.363563 0.30774,-0.802684 0.64403,-1.072882 0.13769,-0.130728 0.38794,-0.163507 0.44678,-0.363435 -0.0448,-0.166251 -0.12934,-0.332454 -0.21294,-0.474384 -0.087,0.07936 -0.17389,0.158723 -0.26083,0.238088 z"
       id="path2633"
       class="IC" />
    <path
       style="fill:#ff00ff;stroke:#000000;stroke-width:0.0014338"
       d="m 137.80964,58.961686 c 0.008,0.498377 -0.0167,1.007615 0.0957,1.49619 0.0738,0.199128 0.33552,0.15386 0.50345,0.182642 0.26279,-0.0029 0.55747,0.01886 0.78971,-0.121256 0.16991,-0.217451 0.0971,-0.524135 0.1108,-0.779603 -0.0107,-0.243033 -0.0142,-0.491514 -0.038,-0.730536 -0.48354,-0.04986 -0.98066,-0.0436 -1.46169,-0.04744 z"
       id="path2634"
       class="IF" />
    <path
       style="fill:#ff00ff;stroke:#000000;stroke-width:0.0014338"
       d="m 138.51136,60.803892 c -0.0866,0.01159 -0.28523,-0.0196 -0.28339,0.113247 0.0817,0.172421 0.17569,0.358881 0.32327,0.481722 0.15879,-0.03937 0.22331,-0.23 0.31975,-0.346461 0.0676,-0.06735 0.091,-0.2105 -0.0352,-0.223528 -0.10583,-0.02622 -0.21619,-0.02434 -0.32446,-0.02498 z"
       id="path2635"
       class="IF" />
    <path
       style="fill:#ff00ff;stroke:#000000;stroke-width:0.0014338"
       d="m 137.56259,61.188274 c -0.21708,0.174416 -0.33197,0.450659 -0.4848,0.679204 -0.22638,0.412901 -0.47686,0.821962 -0.63804,1.264375 0.19034,0.09965 0.43862,0.07656 0.63989,0.01259 0.13621,-0.12849 0.12677,-0.347686 0.2508,-0.490125 0.21314,-0.361667 0.52779,-0.660776 0.74944,-1.009539 -0.15057,-0.169788 -0.3215,-0.334375 -0.51174,-0.457245 z"
       id="path2636"
       class="IF" />
    <path
       style="fill:#ff00ff;stroke:#000000;stroke-width:0.0014338"
       d="m 139.5735,61.220926 c -0.17566,0.06636 -0.31158,0.222782 -0.42298,0.369147 -0.0728,0.187565 0.14861,0.332295 0.24078,0.467161 0.27283,0.282951 0.48933,0.611688 0.67327,0.957395 0.0783,0.139033 0.22929,0.194172 0.37004,0.238704 0.14569,0.07089 0.24015,0.242301 0.38595,0.294434 0.02,-0.18492 -0.0906,-0.369035 -0.15148,-0.541507 -0.28399,-0.59305 -0.58481,-1.185108 -0.96733,-1.721262 -0.0319,-0.03673 -0.0762,-0.07245 -0.12825,-0.06407 z"
       id="path2637"
       class="IF" />
    <path
       style="fill:#ff00ff;stroke:#000000;stroke-width:0.0014338"
       d="m 140.53464,57.34659 c -0.22543,0.376235 -0.3011,0.89312 -0.70726,1.135613 -0.12932,0.07828 -0.41218,0.09701 -0.37654,0.310004 0.0406,0.150381 0.10567,0.307041 0.19513,0.430363 0.24821,-0.174463 0.50313,-0.356565 0.70497,-0.585001 0.18384,-0.298254 0.11039,-0.673891 0.16197,-1.005766 -0.004,-0.09434 0.0365,-0.197424 0.0271,-0.285324 z"
       id="path2638"
       class="IF" />
    <path
       style="fill:#ff00ff;stroke:#000000;stroke-width:0.0014338"
       d="m 136.58935,57.185456 c 0.0359,0.419807 0.0454,0.851379 0.1608,1.25911 0.14432,0.336489 0.47308,0.541015 0.73577,0.777613 0.0942,-0.13013 0.20785,-0.288795 0.221,-0.45837 -0.0661,-0.206303 -0.33771,-0.223221 -0.4704,-0.377041 -0.34405,-0.318694 -0.44882,-0.800251 -0.6404,-1.206688 z"
       id="path2639"
       class="IF" />
    <path
       style="fill:#808080;stroke:#000000;stroke-width:0.0014338"
       d="m 140.83473,72.314095 c -0.10815,-0.02647 -0.17795,0.07312 -0.14674,0.172112 0.0184,0.160647 0.0484,0.322675 -0.0688,0.456054 -0.0587,0.156634 -0.20553,0.307242 -0.19265,0.480621 0.13246,0.175395 0.38667,0.195813 0.57662,0.281837 0.31177,0.08324 0.61526,0.246684 0.94248,0.248499 0.22911,-0.08277 0.30481,-0.367509 0.32832,-0.586676 0.002,-0.189233 0.0592,-0.394293 -0.005,-0.576043 -0.17063,-0.185103 -0.44764,-0.21654 -0.67165,-0.30838 -0.24943,-0.07039 -0.50124,-0.160327 -0.76254,-0.168024 z"
       id="path2640"
       class="OF" />
    <path
       style="fill:#808080;stroke:#000000;stroke-width:0.0014338"
       d="m 139.54,70.771755 c -0.0452,0.05246 0.0897,0.113577 0.11448,0.153013 0.25639,0.230868 0.60242,0.429969 0.7001,0.782596 -0.007,0.155194 0.0386,0.396972 0.24251,0.378333 0.16429,-0.0051 0.34987,0.02185 0.50155,-0.04475 0.006,-0.176073 -0.15731,-0.316146 -0.24526,-0.457137 -0.21826,-0.27936 -0.47391,-0.552611 -0.82589,-0.654058 -0.15986,-0.057 -0.31879,-0.133522 -0.48749,-0.157998 z"
       id="path2641"
       class="OF" />
    <path
       style="fill:#808080;stroke:#000000;stroke-width:0.0014338"
       d="m 139.99882,73.546937 c -0.23652,0.138835 -0.38156,0.448699 -0.69097,0.452433 -0.2592,0.03918 -0.55066,0.014 -0.79038,0.05841 0.39222,0.07737 0.78483,0.257302 1.19106,0.199949 0.33301,-0.07722 0.62658,-0.264293 0.93578,-0.402696 -0.19174,-0.114613 -0.42355,-0.232699 -0.64549,-0.3081 z"
       id="path2642"
       class="OF" />
    <path
       style="fill:#808080;stroke:#000000;stroke-width:0.0014338"
       d="m 142.7185,73.207027 c -0.14291,0.07223 -0.15067,0.274788 -0.21059,0.409191 -0.0425,0.07131 -0.035,0.189291 0.0726,0.174242 0.16855,-0.01791 0.37812,-0.04189 0.49102,-0.180176 0.0148,-0.16288 -0.16757,-0.2662 -0.26755,-0.370213 -0.0248,-0.01767 -0.0537,-0.03565 -0.0855,-0.03304 z"
       id="path2643"
       class="OF" />
    <path
       style="fill:#808080;stroke:#000000;stroke-width:0.0014338"
       d="m 143.14007,74.240201 c -0.147,0.01961 -0.33052,0.05191 -0.42678,0.171945 0.12297,0.249145 0.36729,0.421537 0.55626,0.621157 0.48309,0.434036 0.96189,0.890413 1.5279,1.214887 0.0973,0.0149 0.0193,-0.139827 0.0149,-0.182025 -0.086,-0.284208 -0.18171,-0.612005 -0.45865,-0.766017 -0.36268,-0.29801 -0.64098,-0.682725 -0.991,-0.992346 -0.0637,-0.04787 -0.14281,-0.0735 -0.22269,-0.0676 z"
       id="path2644"
       class="OF" />
    <path
       style="fill:#808080;stroke:#000000;stroke-width:0.0014338"
       d="m 145.63655,72.34434 c -0.77756,0.032 -1.55679,0.120925 -2.31608,0.293089 -0.0709,0.01273 -0.19997,0.07979 -0.11269,0.161862 0.13623,0.157263 0.26901,0.34531 0.45898,0.436131 0.52602,-0.132765 1.03788,-0.368665 1.58917,-0.371499 0.24671,-0.04935 0.43796,-0.251682 0.56909,-0.453773 0.0116,-0.08874 -0.1421,-0.05641 -0.18847,-0.06581 z"
       id="path2645"
       class="OF" />
    <path
       style="fill:#ffffff;fill-opacity:1;stroke:#000000;stroke-width:0.0064821;stroke-opacity:0"
       d="m 501.59558,246.53771 c -0.23178,0.36456 0.28317,0.86228 0.35592,1.25188 0.6607,1.41728 1.25334,3.13267 2.8631,3.72237 0.65832,0.2314 1.32874,0.69523 2.02414,0.70468 0.2763,-0.52229 0.22243,-1.26714 -0.009,-1.80816 -0.43668,-0.74382 -1.445,-0.4463 -2.0054,-1.00852 -1.21903,-0.76827 -2.076,-2.04934 -3.22915,-2.86225 z"
       id="path79"
       transform="scale(0.26458333)"
       class="P" />
    <path
       style="fill:#ffffff;fill-opacity:1;stroke:#000000;stroke-width:0.0064821;stroke-opacity:0"
       d="m 512.54197,249.27868 c -0.88866,0.30109 -1.62482,1.0541 -2.6012,1.10702 -0.62405,0.23199 -1.53476,-0.0191 -1.97552,0.56515 -0.14876,1.08739 0.36657,2.16886 0.66138,3.20105 0.37791,0.86019 0.6235,1.94324 1.42024,2.50801 1.38438,-0.37559 2.79789,-0.80937 4.06675,-1.4886 0.85405,-0.7069 0.24259,-1.94621 0.0949,-2.82779 -0.34928,-1.02907 -0.52576,-2.31796 -1.44748,-3.01066 -0.0677,-0.0342 -0.14225,-0.0588 -0.21902,-0.0542 z"
       id="path80"
       transform="scale(0.26458333)"
       class="P" />
    <path
       style="fill:#ffffff;fill-opacity:1;stroke:#000000;stroke-width:0.0064821;stroke-opacity:0"
       d="m 515.30142,241.37381 c -0.19004,1.8193 0.10841,3.99236 -1.25084,5.46952 -0.30054,0.45324 -0.91081,0.78561 -1.01764,1.32934 0.36585,0.63145 0.82963,1.34008 1.49822,1.66103 0.68618,-0.62195 1.04698,-1.60096 1.5238,-2.4042 0.80703,-1.37832 0.0178,-2.99507 -0.21698,-4.42162 -0.20217,-0.49843 -0.15196,-1.34518 -0.53656,-1.63407 z"
       id="path81"
       transform="scale(0.26458333)"
       class="P" />
    <path
       style="fill:#ffffff;fill-opacity:1;stroke:#000000;stroke-width:0.0064821;stroke-opacity:0"
       d="m 513.68343,256.46292 c -0.80556,0.17656 -1.72274,0.31297 -2.37914,0.83305 -0.22184,0.57311 0.66064,0.79205 1.01957,1.02665 0.40395,0.26964 1.16189,0.49392 1.32386,-0.16347 0.0978,-0.52271 0.50806,-1.14107 0.29626,-1.65294 -0.0752,-0.0534 -0.17332,-0.0446 -0.26055,-0.0433 z"
       id="path82"
       transform="scale(0.26458333)"
       class="P" />
    <path
       style="fill:#ffffff;fill-opacity:1;stroke:#000000;stroke-width:0.0064821;stroke-opacity:0"
       d="m 509.42702,259.32846 c -0.56937,0.20182 -0.48535,1.05473 -0.73557,1.5162 -0.66917,2.62338 -1.39343,5.32794 -1.19362,8.05654 0.36692,0.17435 0.58426,-0.54823 0.85621,-0.74098 0.81391,-0.92489 1.48287,-1.98357 1.68776,-3.21892 0.3947,-1.51729 1.19128,-2.94353 1.60863,-4.43467 -0.59363,-0.54647 -1.4001,-1.09182 -2.22341,-1.17817 z"
       id="path83"
       transform="scale(0.26458333)"
       class="P" />
    <path
       style="fill:#ffffff;fill-opacity:1;stroke:#000000;stroke-width:0.0064821;stroke-opacity:0"
       d="m 516.29196,256.66244 c -0.26865,0.92899 -1.01402,2.23358 -0.0917,3.04406 1.38605,1.14862 3.1326,1.87072 4.23894,3.32992 0.91287,0.59152 2.08964,0.74672 3.158,0.7067 0.48935,-0.22465 -0.21432,-0.76607 -0.35956,-1.00802 -2.07823,-2.22878 -4.28083,-4.38574 -6.7943,-6.12305 l -0.12301,0.0409 z"
       id="path84"
       transform="scale(0.26458333)"
       class="P" />
  </g>
</svg>
