<?xml version="1.0" encoding="UTF-8" standalone="no"?>
<!-- Created with Inkscape (http://www.inkscape.org/) -->

<svg
   width="33.512444mm"
   height="35.958588mm"
   viewBox="0 0 33.512444 35.958588"
   version="1.1"
   id="svg1"
   xmlns="http://www.w3.org/2000/svg"
   xmlns:svg="http://www.w3.org/2000/svg">
  <defs
     id="defs1" />
  <g
     id="layer1"
     transform="translate(-16.867992,-87.602023)">
    <g
       id="g2941">
      <path
         id="path1430"
         style="fill:#000000;stroke-width:0.264583"
         d="m 28.035013,122.35346 c 0,-1.19197 0.0037,-1.20709 0.307261,-1.20709 0.168989,0 0.393276,-0.033 0.498422,-0.0733 0.297285,-0.11409 0.719058,0.39679 0.719058,0.87098 0,0.61718 -0.327607,1.01795 -0.77806,0.95183 -0.329089,-0.0483 -0.365496,-0.0179 -0.365496,0.30554 0,0.23456 -0.06615,0.35918 -0.190606,0.35918 -0.156024,0 -0.190579,-0.21883 -0.190579,-1.20709 z m 0.991076,0.16518 c 0.182034,-0.18205 0.196877,-0.72473 0.02709,-0.99108 -0.09377,-0.1471 -0.173091,-0.15867 -0.347478,-0.0507 -0.274002,0.1696 -0.365045,0.75957 -0.156077,1.01136 0.184837,0.2227 0.278235,0.22867 0.476461,0.0304 z m 4.799304,0.84224 c -0.218917,-0.21893 -0.253868,-0.38714 -0.100172,-0.48213 0.05472,-0.0338 0.08723,-0.35559 0.07223,-0.71504 -0.03585,-0.85916 0.233574,-1.16405 0.933185,-1.05601 0.576315,0.089 0.660003,0.14436 0.431641,0.2855 -0.09427,0.0583 -0.142213,0.15522 -0.106521,0.21545 0.03567,0.0602 0.01614,0.23815 -0.04318,0.39539 -0.08004,0.21182 -0.216085,0.28926 -0.525092,0.29889 l -0.417036,0.013 0.412168,0.0978 c 0.768244,0.18238 0.98925,0.55032 0.562557,0.93648 -0.293952,0.26603 -0.958586,0.27181 -1.219782,0.0106 z m 0.927232,-0.22497 c 0.07784,-0.0938 0.103902,-0.20815 0.05792,-0.25413 -0.152797,-0.15278 -0.676566,-0.0863 -0.676566,0.0858 0,0.35706 0.376899,0.45961 0.618649,0.16832 z m -0.07617,-1.25893 c 0.08133,-0.2332 -0.03656,-0.47649 -0.230901,-0.47649 -0.223229,0 -0.35179,0.22014 -0.263287,0.45081 0.08676,0.2261 0.418253,0.24333 0.494188,0.0257 z m -8.329638,0.96953 c -0.253736,-0.25374 -0.06951,-0.4025 0.417565,-0.33717 0.45085,0.0605 0.508265,0.0385 0.508265,-0.19412 0,-0.14426 -0.105331,-0.29572 -0.234024,-0.33657 -0.12872,-0.0409 -0.366872,-0.21567 -0.52922,-0.38849 -0.252333,-0.26858 -0.27432,-0.36002 -0.1515,-0.62962 0.157162,-0.3449 0.721227,-0.55362 1.007745,-0.37289 0.300566,0.18959 0.178593,0.36725 -0.223229,0.3251 -0.510302,-0.0535 -0.514721,0.34553 -0.0071,0.63434 0.513,0.29183 0.667385,0.61817 0.475509,1.00501 -0.118295,0.23848 -0.270722,0.31828 -0.663469,0.34735 -0.280432,0.0208 -0.550677,-0.003 -0.600578,-0.0529 z m 3.594126,-0.81071 c 0,-0.67415 0.04125,-0.89582 0.158829,-0.85366 0.08734,0.0313 0.247677,0.0115 0.356262,-0.0441 0.244554,-0.12513 0.565811,0.0554 0.445373,0.2503 -0.04874,0.0788 -0.135334,0.11445 -0.192484,0.0791 -0.187167,-0.11567 -0.368565,0.2451 -0.40984,0.81505 -0.02223,0.30767 -0.111972,0.58291 -0.199311,0.61164 -0.117157,0.0385 -0.158829,-0.18675 -0.158829,-0.85839 z m 1.228249,0.80473 c -0.04657,-0.0466 -0.08469,-0.44684 -0.08469,-0.88943 0,-0.63061 0.04125,-0.80473 0.190579,-0.80473 0.151262,0 0.190606,0.18354 0.190606,0.88943 0,0.81902 -0.07599,1.02523 -0.296492,0.80473 z m 0.80473,-0.8033 c 0,-0.84087 0.01508,-0.88717 0.285909,-0.87224 0.157215,0.009 0.373274,-0.0218 0.480113,-0.0678 0.106838,-0.0459 0.299667,-0.006 0.428545,0.0878 0.312182,0.22828 0.377905,1.67668 0.07607,1.67668 -0.138748,0 -0.201322,-0.1728 -0.230002,-0.63531 -0.0454,-0.7325 -0.180764,-0.93792 -0.463471,-0.7033 -0.127582,0.10588 -0.195977,0.37894 -0.195977,0.78239 0,0.46619 -0.04723,0.61976 -0.190579,0.61976 -0.151236,0 -0.190606,-0.18338 -0.190606,-0.88801 z m 3.557746,-0.39873 c 0,-1.0304 0.03405,-1.2545 0.190579,-1.2545 0.133483,0 0.190606,0.13462 0.190606,0.44919 0,0.41467 0.02011,0.43838 0.262652,0.30862 0.204285,-0.10934 0.331285,-0.0956 0.571765,0.062 0.250031,0.16383 0.309139,0.30956 0.309139,0.76233 0,0.72788 -0.229553,0.95288 -0.957315,0.93827 l -0.567426,-0.0114 z m 0.991076,0.88014 c 0.221298,-0.2213 0.193067,-0.98348 -0.03974,-1.07282 -0.279982,-0.10743 -0.570151,0.18782 -0.570151,0.58013 0,0.31235 0.196639,0.64516 0.381186,0.64516 0.04194,0 0.144859,-0.0686 0.228705,-0.15247 z m 0.985573,0.1242 c -0.473498,-0.67604 0.06599,-1.74047 0.793327,-1.56521 0.188674,0.0455 0.414496,0.17622 0.501862,0.29057 0.240559,0.31493 0.197617,1.10136 -0.07353,1.34675 -0.340731,0.30836 -0.981657,0.27053 -1.221661,-0.0721 z m 0.920353,-0.1242 c 0.316283,-0.31627 0.140547,-1.11815 -0.24503,-1.11815 -0.350653,0 -0.573167,0.54654 -0.387985,0.95297 0.156977,0.34453 0.392271,0.40592 0.633015,0.16518 z m 0.91485,-0.86402 c 0,-1.04473 0.03389,-1.27062 0.190606,-1.27062 0.144859,0 0.190579,0.15776 0.190579,0.65746 v 0.65745 l 0.294085,-0.27627 c 0.521388,-0.48982 0.804783,-0.32498 0.322977,0.18787 l -0.272362,0.28993 0.335888,0.44039 c 0.385075,0.50487 0.406109,0.58441 0.154517,0.58441 -0.09975,0 -0.327819,-0.18583 -0.506836,-0.41295 l -0.325438,-0.41295 -0.0026,0.41295 c 0,0.28173 -0.06197,0.41295 -0.191982,0.41295 -0.156713,0 -0.190606,-0.22589 -0.190606,-1.27062 z m -8.227271,-0.9212 c 0.02913,-0.0874 0.129196,-0.15883 0.222382,-0.15883 0.09316,0 0.193225,0.0715 0.222356,0.15883 0.03148,0.0945 -0.05861,0.15883 -0.222356,0.15883 -0.163777,0 -0.253868,-0.0643 -0.222382,-0.15883 z m 4.752472,-8.50932 c -0.106654,-0.40784 0.03376,-0.87845 0.37076,-1.24268 0.269479,-0.29126 0.552133,-1.14143 0.5597,-1.68358 0.0048,-0.34918 -1.368637,-0.31576 -1.826551,0.0444 -0.445214,0.3502 -1.204542,0.44724 -1.537494,0.19648 -0.24937,-0.18781 -0.246115,-0.19967 0.173832,-0.63475 l 0.427963,-0.44337 -0.515911,-0.26319 c -0.660823,-0.33713 -0.927021,-0.25344 -0.783669,0.24638 0.135096,0.47105 0.02646,0.88174 -0.238231,0.9004 -0.378989,0.0267 -0.713899,-0.0379 -0.873099,-0.1684 -0.284533,-0.23325 -0.341471,0.28472 -0.09924,0.90269 0.321919,0.82134 0.322739,1.22054 0.0026,1.22054 -0.173196,0 -0.247359,-0.0776 -0.232913,-0.24379 0.01164,-0.13409 -0.180022,-0.50574 -0.425979,-0.8259 -0.417698,-0.54369 -0.442701,-0.62823 -0.379148,-1.28095 0.09776,-1.00356 -0.238601,-1.35699 -1.757309,-1.84659 -0.628968,-0.20275 -1.257935,-0.35037 -1.397688,-0.32804 -0.13978,0.0223 -0.529246,0.24233 -0.865505,0.48888 -0.565574,0.4147 -0.660771,0.44268 -1.270635,0.3736 -0.598329,-0.0678 -0.695934,-0.0414 -1.056587,0.28536 -0.264769,0.23989 -0.493263,0.65149 -0.684742,1.23342 -0.564145,1.71457 -1.200494,2.61249 -1.712278,2.41609 -0.371951,-0.14273 -0.178593,-1.20709 0.280882,-1.5461 0.193093,-0.14248 0.409152,-0.92762 0.413941,-1.50438 l 0.0032,-0.36422 -0.803064,0.0511 c -0.581527,0.037 -0.9017,0.12874 -1.160674,0.33246 -0.535437,0.42117 -1.466956,0.3601 -1.466956,-0.0962 0,-0.35577 0.877438,-0.86795 1.962177,-1.14538 0.550492,-0.14079 1.1235,-0.25599 1.273307,-0.25599 0.149834,0 0.46818,-0.20198 0.70747,-0.44885 0.365072,-0.37668 0.440822,-0.55492 0.471064,-1.10846 0.03164,-0.57883 0.09996,-0.72473 0.558085,-1.19152 0.585973,-0.59706 0.581025,-0.52934 0.180076,-2.46071 -0.177959,-0.85732 -0.305118,-1.16518 -0.616585,-1.49298 -0.34298,-0.360965 -0.474239,-0.41295 -1.042538,-0.41295 -0.563695,0 -0.699743,-0.05276 -1.023329,-0.396836 -0.205264,-0.21826 -0.56298,-0.47798 -0.794941,-0.577159 -0.428175,-0.183071 -0.474477,-0.375089 -0.141155,-0.58534 0.130413,-0.08226 0.378063,0.0141 0.846561,0.329371 0.393118,0.264539 0.758746,0.420413 0.899689,0.383554 0.210079,-0.05493 0.222409,-0.118523 0.106945,-0.551061 -0.211878,-0.793811 0.207671,-1.1009 0.964591,-0.706046 0.329592,0.171926 0.353087,0.165502 0.423678,-0.115734 0.04691,-0.186897 -0.04527,-0.548529 -0.247571,-0.971249 -0.236987,-0.495159 -0.286173,-0.71705 -0.185764,-0.838014 0.208677,-0.251455 0.486595,-0.195932 0.486595,0.09721 0,0.14396 0.205449,0.529913 0.456565,0.857668 0.429736,0.560909 0.452252,0.636982 0.383514,1.294763 -0.09927,0.949973 0.200924,1.288314 1.539637,1.735201 0.543083,0.181292 1.2065,0.440342 1.474231,0.575682 0.471356,0.23824 0.497126,0.23874 0.810948,0.0159 0.665771,-0.47285 0.855054,-0.535293 1.397186,-0.46098 0.699637,0.0959 1.368239,-0.319656 1.570857,-0.97632 0.58047,-1.881198 1.281245,-3.049487 1.829171,-3.049487 0.427408,0 0.339116,1.013071 -0.132901,1.524744 -0.26879,0.291385 -0.551259,1.142349 -0.558826,1.68357 -0.0048,0.338076 1.490901,0.31954 1.92749,-0.02389 0.42545,-0.334664 0.870161,-0.429033 1.2827,-0.27219 0.411823,0.156578 0.446696,0.454779 0.07636,0.652978 -0.260879,0.139618 -0.257095,0.150175 0.141023,0.392282 0.636694,0.387193 0.825897,0.280653 0.825897,-0.465047 v -0.633553 l 0.444738,0.0092 c 0.244581,0.0051 0.537395,0.05125 0.650663,0.1026 0.366951,0.166322 0.379757,-0.288706 0.02903,-1.030102 -0.246856,-0.521796 -0.301916,-0.763289 -0.207989,-0.912202 0.192723,-0.305514 0.475959,-0.243128 0.522685,0.115126 0.02275,0.174709 0.213704,0.535051 0.424259,0.800759 0.342662,0.432421 0.378407,0.559953 0.340651,1.215575 -0.06006,1.042597 0.23876,1.364237 1.76149,1.895967 0.642303,0.22429 1.235313,0.4078 1.31781,0.4078 0.0825,0 0.433414,-0.20361 0.779807,-0.45247 0.580416,-0.41699 0.681249,-0.44677 1.285795,-0.37972 0.58936,0.0654 0.696093,0.0371 1.051084,-0.27813 0.26887,-0.23879 0.487627,-0.635036 0.684742,-1.240321 0.553587,-1.700056 1.211262,-2.625262 1.725771,-2.427819 0.357187,0.137057 0.151183,1.2563 -0.277918,1.510133 -0.201904,0.119422 -0.429498,0.890172 -0.430477,1.457698 v 0.412949 h 0.745225 c 0.553932,0 0.828543,-0.06552 1.06971,-0.255236 0.419709,-0.330134 1.005126,-0.443786 1.346068,-0.261316 0.718132,0.384321 -0.148537,1.019432 -2.027899,1.486132 -1.706351,0.42373 -2.149607,0.78471 -2.149607,1.75061 0,0.5773 -0.05014,0.6884 -0.532104,1.17951 l -0.532103,0.54218 0.207539,0.92384 c 0.114168,0.50812 0.245269,1.12397 0.291386,1.36857 0.04609,0.24459 0.231431,0.60195 0.41185,0.79413 0.269134,0.2867 0.437065,0.34943 0.935329,0.34943 0.53967,0 0.678973,0.0637 1.251082,0.57177 0.354092,0.31448 0.756258,0.57178 0.893683,0.57178 0.318611,0 0.324802,0.33215 0.0093,0.50098 -0.182007,0.0974 -0.313425,0.0719 -0.540014,-0.10462 -0.898631,-0.70026 -1.600359,-0.78669 -1.365197,-0.16815 0.155363,0.40865 0.05636,0.86105 -0.2109,0.9636 -0.109326,0.042 -0.391054,-0.004 -0.62603,-0.10223 -0.679318,-0.28384 -0.763323,0.0461 -0.271357,1.06592 0.24982,0.51789 0.275775,0.66766 0.146315,0.84469 -0.180049,0.24624 -0.449422,0.13846 -0.451247,-0.18056 0,-0.11817 -0.206508,-0.47216 -0.457412,-0.78664 -0.430662,-0.53981 -0.451776,-0.60967 -0.377587,-1.24947 0.112078,-0.96657 -0.241803,-1.36312 -1.627902,-1.82419 -1.379352,-0.45883 -1.625176,-0.4483 -2.34008,0.10023 -0.547423,0.42002 -0.646536,0.45135 -1.217772,0.385 -0.554302,-0.0644 -0.673549,-0.0313 -1.097941,0.30485 -0.261858,0.20739 -0.513556,0.53444 -0.559356,0.72678 -0.466725,1.96016 -1.760537,3.67055 -2.021549,2.67243 z m 1.073705,-0.76009 c 0.233627,-0.45793 0.7493,-1.81518 0.7493,-1.97214 0,-0.0286 -0.15621,-0.034 -0.347133,-0.0119 -0.305408,0.0354 -0.368141,0.12419 -0.522049,0.73905 -0.208968,0.83487 -0.329036,1.77886 -0.226219,1.77886 0.04053,0 0.196294,-0.24025 0.346101,-0.5339 z m 8.572977,-0.46448 c -0.238813,-0.46179 -0.254979,-0.80172 -0.04797,-1.00872 0.117951,-0.11796 0.0966,-0.19389 -0.0953,-0.33903 -0.376608,-0.28483 -0.437886,-0.2394 -0.437886,0.3246 0,0.3644 0.104431,0.66501 0.349409,1.00588 0.406056,0.56495 0.519324,0.57339 0.231749,0.0173 z m -22.803912,-0.55202 c 0.149807,-0.29364 0.376607,-0.83683 0.503978,-1.20708 l 0.231616,-0.67319 h -0.363802 c -0.335412,0 -0.374835,0.0514 -0.505037,0.65841 -0.07766,0.36212 -0.19005,0.71948 -0.249766,0.79414 -0.0994,0.12427 -0.04358,0.96163 0.06411,0.96163 0.02567,0 0.169095,-0.24026 0.318903,-0.53391 z m 8.473386,-0.57731 c -0.110913,-0.29383 -0.112897,-0.47557 -0.0077,-0.70637 0.124698,-0.27366 0.104854,-0.32748 -0.166106,-0.45094 -0.298159,-0.13585 -0.30771,-0.12414 -0.30771,0.37747 0,0.32293 0.100806,0.65925 0.26797,0.89403 0.327607,0.46008 0.413094,0.41437 0.213598,-0.11419 z m 14.694535,-0.85912 0.472467,-0.4456 -0.401849,-0.50737 c -0.221007,-0.27905 -0.493951,-0.50737 -0.606558,-0.50737 -0.211957,0 -0.917469,0.60425 -0.917469,0.78578 0,0.0915 0.872411,1.12015 0.94996,1.12015 0.01693,0 0.243602,-0.20052 0.503449,-0.44559 z m -10.061866,-0.1263 c 0.331947,-0.0434 0.603541,-0.12799 0.603541,-0.18787 0,-0.0599 0.03471,-0.19933 0.07713,-0.30987 0.103505,-0.26969 -0.185155,-0.26053 -1.33932,0.0425 -0.960491,0.25216 -1.438937,0.51889 -0.930752,0.51889 0.149596,0 0.306017,0.055 0.347584,0.12228 0.04657,0.0753 0.183594,0.0783 0.356922,0.008 0.154755,-0.063 0.552953,-0.15014 0.884899,-0.19359 z m 12.10265,-0.19048 c -0.409786,-0.41966 -0.581871,-0.50825 -0.987319,-0.50825 -0.450532,0 -0.483764,0.0236 -0.403145,0.28589 0.116919,0.38038 0.103505,0.3735 0.462677,0.23694 0.246565,-0.0937 0.421983,-0.0559 0.811768,0.17506 0.677545,0.40152 0.683604,0.39162 0.116019,-0.18964 z m -10.562801,-0.0711 c -0.160629,-0.24516 -0.239078,-0.28427 -0.318638,-0.15883 -0.192352,0.3033 -0.11348,0.48406 0.211164,0.48406 0.314748,0 0.316706,-0.006 0.107474,-0.32523 z m 1.342072,-0.32781 0.563034,-0.52282 -0.331947,-0.17393 c -0.182588,-0.0957 -0.368326,-0.28851 -0.412776,-0.42856 -0.04445,-0.14005 -0.123851,-0.25464 -0.176451,-0.25464 -0.164491,0 -1.157869,0.90187 -1.157869,1.05121 0,0.18475 0.642779,0.85519 0.817906,0.85314 0.07429,-8e-4 0.388435,-0.23685 0.698103,-0.5244 z m -7.053659,-0.17122 0.469794,-0.44307 -0.40976,-0.50989 c -0.225372,-0.28044 -0.491411,-0.50989 -0.591238,-0.50989 -0.287364,0 -0.919559,0.50456 -0.919559,0.7339 0,0.15524 0.833702,1.17203 0.960993,1.17203 0.01085,0 0.231378,-0.19939 0.48977,-0.44308 z m -10.518537,-0.0652 c 0.62275,0 1.062885,-0.20916 1.062885,-0.5051 0,-0.164 -0.08377,-0.25727 -0.231061,-0.25727 -0.252836,0 -1.398693,0.31086 -1.974242,0.5356 l -0.362876,0.14171 0.426403,0.14678 c 0.234553,0.0807 0.480748,0.0999 0.547158,0.0425 0.06638,-0.0573 0.305673,-0.10425 0.531733,-0.10425 z m 12.561994,-0.25412 c -0.427117,-0.43742 -0.572532,-0.50825 -1.043358,-0.50825 -0.530014,0 -0.542079,0.009 -0.387165,0.28589 0.08795,0.15724 0.169307,0.30482 0.18079,0.32795 0.01138,0.0231 0.142213,-0.0229 0.290539,-0.10225 0.221853,-0.11874 0.364516,-0.089 0.805021,0.16758 0.719719,0.41932 0.724905,0.41358 0.154173,-0.17092 z m 2.350637,0.19936 c 0.575945,-0.11227 0.950886,-0.27149 1.238859,-0.52612 0.359595,-0.31797 0.412961,-0.44525 0.412961,-0.98525 0,-0.55389 0.05966,-0.68649 0.558747,-1.24159 0.620925,-0.69062 0.623862,-0.71224 0.326417,-2.40182 -0.131736,-0.74827 -0.25019,-1.04167 -0.551392,-1.36592 -0.33446,-0.36002 -0.465322,-0.41295 -1.020974,-0.41295 -0.577321,0 -0.688393,-0.0501 -1.179645,-0.53224 l -0.542316,-0.53224 -0.669581,0.20487 c -0.368274,0.11267 -0.996183,0.27001 -1.395333,0.34964 -0.484611,0.0967 -0.853969,0.26459 -1.111779,0.50541 -0.331841,0.31 -0.386054,0.4511 -0.386054,1.00478 0,0.58603 -0.05067,0.69853 -0.561578,1.24707 -0.453152,0.48652 -0.53766,0.64764 -0.437674,0.83444 0.06813,0.12732 0.207963,0.67086 0.3107,1.20787 0.245269,1.28195 0.595234,1.68232 1.470449,1.68232 0.54012,0 0.678868,0.0636 1.25431,0.57465 0.355891,0.31606 0.696912,0.54384 0.757846,0.50618 0.06093,-0.0377 0.149119,-0.007 0.195977,0.0693 0.04683,0.0758 0.17944,0.10062 0.294666,0.0552 0.115226,-0.0454 0.581158,-0.15506 1.035394,-0.2436 z m 4.628647,-0.0758 c 0.565574,-0.42793 0.535438,-0.47305 -0.110278,-0.16512 -0.367559,0.17528 -0.504772,0.18558 -0.783087,0.0588 -0.382561,-0.1743 -0.36965,-0.17973 -0.487971,0.20518 -0.08062,0.26225 -0.04778,0.2856 0.397166,0.28236 0.337502,-0.002 0.636878,-0.11842 0.98417,-0.38119 z m -17.525417,-0.12352 c -0.126498,-0.13977 -0.271648,-0.25413 -0.322527,-0.25413 -0.05091,0 -0.122476,0.11436 -0.159015,0.25413 -0.05577,0.21325 -0.004,0.25412 0.322527,0.25412 0.380921,0 0.384228,-0.005 0.159015,-0.25412 z m 20.647554,-0.12269 c 0,-0.35605 -0.03487,-0.38144 -0.633095,-0.46079 -0.348192,-0.0462 -0.693367,-0.15661 -0.767054,-0.24538 -0.134011,-0.16148 -0.63283,-0.11291 -0.63283,0.0616 0,0.20317 0.483314,0.50426 1.207082,0.75195 0.419285,0.1435 0.776658,0.26282 0.79412,0.26516 0.01746,0.002 0.03178,-0.16531 0.03178,-0.37256 z m -19.405177,-0.24809 0.533691,-0.49783 -0.348033,-0.27376 c -0.191399,-0.15057 -0.348033,-0.35538 -0.348033,-0.45513 0,-0.29879 -0.289083,-0.20105 -0.79412,0.26849 -0.548031,0.5095 -0.576501,0.65934 -0.213148,1.12128 0.353668,0.4496 0.540808,0.42351 1.169643,-0.16305 z m 20.474093,-0.0268 c -0.02664,-0.044 -0.163697,-0.11009 -0.304562,-0.14693 -0.214074,-0.056 -0.256116,-0.005 -0.256116,0.30825 0,0.37473 0,0.37492 0.304562,0.14694 0.167507,-0.12557 0.28276,-0.26428 0.256116,-0.30826 z m -4.137713,0.0392 0.516679,-0.23132 -0.26633,-0.26634 c -0.4055,-0.40549 -0.224949,-0.66869 0.458682,-0.66869 0.437515,0 0.638492,0.0714 0.861642,0.3059 0.288343,0.30306 1.680078,0.69806 1.852401,0.52574 0.044,-0.044 0.06625,-0.42823 0.04942,-0.85384 -0.02143,-0.54237 -0.105357,-0.86893 -0.280644,-1.09179 -0.538559,-0.68465 -0.160893,-2.0217 0.385181,-1.36372 0.229499,0.27654 0.35052,0.23731 0.568536,-0.18428 0.274135,-0.53015 0.259689,-0.95061 -0.02852,-0.82947 -0.456829,0.19203 -0.801237,0.21306 -0.98544,0.0602 -0.237173,-0.19683 -0.239819,-0.47243 -0.0087,-0.91529 0.162825,-0.31208 0.157692,-0.35106 -0.05498,-0.41856 -0.128984,-0.0409 -0.447172,0.0144 -0.707099,0.12303 -0.446087,0.18638 -0.460851,0.21044 -0.263472,0.42856 0.693367,0.76616 -0.529167,1.08013 -1.315588,0.33787 -0.231219,-0.21822 -0.53377,-0.32395 -1.111805,-0.38853 l -0.794121,-0.0887 v 0.76165 c 0,0.56067 0.06485,0.84411 0.245825,1.07416 0.24212,0.30781 0.321045,0.64867 0.282178,1.21872 -0.02619,0.38336 -0.350891,0.49364 -0.651801,0.22134 -0.29173,-0.26403 -0.378222,-0.21858 -0.68662,0.36074 -0.318532,0.59842 -0.211932,0.88763 0.260905,0.70785 0.525119,-0.19965 0.930699,-0.0528 0.930699,0.3369 0,0.17797 -0.05982,0.43537 -0.132954,0.57198 -0.277256,0.51808 0.0744,0.62484 0.876009,0.26594 z m -14.338696,-0.40761 0.444711,-0.37798 -0.497866,0.20145 c -0.389996,0.1578 -0.565626,0.17058 -0.810551,0.059 -0.171979,-0.0784 -0.326152,-0.12603 -0.342583,-0.10594 -0.0164,0.0201 -0.09684,0.16517 -0.178646,0.32241 -0.143246,0.27533 -0.128614,0.28576 0.395737,0.28247 0.416534,-0.003 0.648997,-0.0922 0.989198,-0.3814 z m 3.176561,-0.23932 c 0,-0.33698 -0.04823,-0.37778 -0.540015,-0.45693 -0.297021,-0.0478 -0.654367,-0.15429 -0.794147,-0.23664 -0.153352,-0.0904 -0.455665,-0.11786 -0.76237,-0.0694 -0.279532,0.0442 -0.412274,0.0885 -0.294958,0.0984 0.11729,0.01 0.305356,0.11009 0.417857,0.22262 0.151236,0.15122 1.676479,0.78684 1.941856,0.80922 0.01746,0.002 0.03178,-0.16382 0.03178,-0.36733 z m 0.874262,-0.0585 0.283237,-0.30151 -0.324617,-0.0621 c -0.286967,-0.0549 -0.324644,-0.0199 -0.324644,0.30151 0,0.43991 0.0095,0.44152 0.366024,0.0621 z m -3.991583,-0.16675 c 0.49911,-0.23801 0.536549,-0.31742 0.258419,-0.54824 -0.104828,-0.087 -0.19058,-0.23357 -0.19058,-0.32572 0,-0.45536 1.031505,-0.4612 1.514581,-0.009 0.323665,0.30327 1.567815,0.66159 1.799643,0.51832 0.06403,-0.0396 0.116443,-0.43139 0.116443,-0.87068 0,-0.63734 -0.05136,-0.84517 -0.254132,-1.02869 -0.168355,-0.15237 -0.254133,-0.39134 -0.254133,-0.70814 0,-0.90204 0.211138,-1.0842 0.711624,-0.614 l 0.283289,0.26613 0.211931,-0.32344 c 0.287047,-0.43808 0.153141,-0.9009 -0.205158,-0.70914 -0.138535,0.0741 -0.406294,0.11698 -0.594995,0.0952 -0.302048,-0.0349 -0.342053,-0.0929 -0.333904,-0.48432 0.005,-0.24459 0.05125,-0.5374 0.102606,-0.65068 0.125836,-0.27765 -0.196242,-0.38962 -0.65786,-0.2287 -0.257017,0.0896 -0.359807,0.20828 -0.353007,0.4076 0.0082,0.24032 -0.06636,0.28674 -0.513001,0.31941 -0.410501,0.03 -0.605737,-0.0317 -0.91022,-0.28794 -0.483049,-0.40645 -1.775671,-0.70584 -1.93495,-0.44815 -0.168831,0.2732 0.01746,1.56006 0.273764,1.89033 0.279215,0.35988 0.306176,1.0124 0.05599,1.35457 -0.17018,0.23272 -0.191241,0.23398 -0.421878,0.0253 -0.233548,-0.21136 -0.254344,-0.19926 -0.548429,0.31934 -0.257863,0.4547 -0.329829,0.80939 -0.193251,0.95256 0.01693,0.0178 0.207592,-0.0293 0.423624,-0.10459 0.283369,-0.0988 0.46609,-0.0977 0.655902,0.004 0.306785,0.16419 0.332158,0.44131 0.08395,0.91704 -0.282151,0.54083 0.07559,0.65193 0.873734,0.27133 z m 12.015443,0.0871 c 0.06051,0 0.05305,-0.16352 -0.01667,-0.36338 -0.103082,-0.29564 -0.07411,-0.45551 0.155389,-0.85766 l 0.282046,-0.49429 -0.466434,0.43787 c -0.383037,0.3596 -0.466434,0.52671 -0.466434,0.9348 0,0.40092 0.03884,0.48201 0.201004,0.41979 0.110543,-0.0424 0.250508,-0.0771 0.311044,-0.0771 z m 6.68663,-0.0953 c -0.03358,-0.12229 -0.127847,-0.51821 -0.209524,-0.87981 -0.138827,-0.61443 -0.384413,-0.89575 -0.642673,-0.73614 -0.06199,0.0383 -0.05697,0.20988 0.01138,0.38987 0.0672,0.17679 0.122211,0.53689 0.122211,0.80023 0,0.56084 0.06395,0.64821 0.474451,0.64821 0.22905,0 0.289851,-0.0554 0.244052,-0.22236 z m -21.003895,-1.1751 c -0.03993,-0.19953 0.02011,-0.52864 0.141367,-0.77677 l 0.210635,-0.43055 -0.452385,0.47462 c -0.341577,0.35835 -0.452385,0.58335 -0.452385,0.91847 0,0.42481 0.01323,0.43778 0.310992,0.30216 0.251063,-0.11439 0.297656,-0.20844 0.241776,-0.48793 z m 6.640327,-0.19279 c -0.115067,-0.57129 -0.208201,-0.73555 -0.503952,-0.88883 -0.335782,-0.17403 -0.35552,-0.17152 -0.265324,0.0337 0.05361,0.12197 0.120412,0.45047 0.148484,0.73001 0.07435,0.74062 0.121629,0.8259 0.457968,0.8259 0.30091,0 0.302551,-0.007 0.162824,-0.70081 z m 8.67119,-2.02093 c -0.120941,-0.75112 -0.249899,-0.95721 -0.601345,-0.96111 -0.1347,-0.002 -0.15547,0.12255 -0.09014,0.53806 0.136657,0.86885 0.329248,1.49298 0.460719,1.49298 0.06718,0 0.128005,0.12865 0.135176,0.28589 0.009,0.19675 0.04511,0.14946 0.116019,-0.15165 0.05704,-0.24215 0.04792,-0.77988 -0.02037,-1.20417 z m 6.334918,-0.40535 c 0.06707,-0.41333 0.04882,-0.46251 -0.144277,-0.38842 -0.121576,0.0467 -0.278104,0.0848 -0.347821,0.0848 -0.07406,0 -0.09279,0.15468 -0.04509,0.37191 0.05151,0.23459 0.0085,0.51376 -0.116973,0.75607 -0.291517,0.56376 -0.245374,0.58589 0.189363,0.0908 0.214312,-0.24411 0.422354,-0.65374 0.464793,-0.91516 z M 31.46568,102.20111 c 0,-0.41611 -0.03125,-0.46325 -0.266409,-0.40176 -0.219551,0.0574 -0.253048,0.13643 -0.190447,0.44937 0.05331,0.26655 -0.0061,0.51678 -0.199126,0.83964 l -0.275061,0.45993 0.465535,-0.43788 c 0.373644,-0.35146 0.465508,-0.5309 0.465508,-0.9093 z m -6.30854,0.87289 c 0.0408,-0.15603 0.01878,-0.339 -0.04871,-0.4066 -0.0676,-0.0676 -0.122899,-0.41945 -0.122899,-0.78191 0,-0.63509 -0.01376,-0.66103 -0.381211,-0.71495 -0.20963,-0.0308 -0.381186,-0.0343 -0.381186,-0.008 0,0.0265 0.09247,0.45974 0.205476,0.96273 0.268393,1.19457 0.563642,1.57897 0.72853,0.94847 z m 20.823079,-1.29652 c 0.260799,-0.21409 0.475218,-0.47559 0.476488,-0.58113 0.0026,-0.20542 -0.57322,-0.88814 -0.748903,-0.88814 -0.05805,0 -0.355918,0.22289 -0.661935,0.49531 l -0.556339,0.4953 0.349408,0.27629 c 0.192194,0.15196 0.349436,0.38987 0.349436,0.52869 0,0.28831 0.08649,0.25266 0.791845,-0.32632 z m -4.202827,0.10582 c -0.05781,-0.31764 -0.01032,-0.28651 -0.964168,-0.63272 l -0.83439,-0.30286 v 0.31108 c 0,0.32254 0.313663,0.57271 0.722259,0.57603 0.126868,0.001 0.373645,0.0809 0.548349,0.1774 0.402722,0.22253 0.583856,0.17829 0.52795,-0.12893 z m -2.306823,-0.3755 c 0,-0.32623 -0.08043,-0.32795 -0.488791,-0.0105 -0.139118,0.10817 -0.127238,0.15034 0.06353,0.22541 0.380286,0.14964 0.425265,0.1269 0.425265,-0.21494 z m -7.63061,-0.49025 0.437806,-0.45508 -0.253603,-0.33966 c -0.490008,-0.656322 -0.625025,-0.662216 -1.244415,-0.0543 l -0.564673,0.55417 0.371184,0.31232 c 0.204152,0.17178 0.371184,0.39502 0.371184,0.49609 0,0.25381 0.327818,0.0631 0.882517,-0.51352 z m 7.112635,0.23233 c 0.505249,-0.42515 0.492602,-0.63622 -0.07281,-1.21528 l -0.463735,-0.474906 -0.330412,0.35329 c -0.181716,0.194306 -0.414073,0.381086 -0.516334,0.415066 -0.140706,0.0467 -0.06742,0.20644 0.301175,0.65628 0.267943,0.32697 0.533056,0.5945 0.589174,0.5945 0.05609,0 0.277918,-0.14803 0.492945,-0.32895 z m 4.965594,0.0751 c 0.226986,0.12148 0.303742,0.10692 0.443416,-0.0841 0.233494,-0.31932 0.12819,-0.42497 -0.419603,-0.42098 -0.334169,0.002 -0.596794,0.11291 -0.913686,0.38433 l -0.444711,0.38092 0.530039,-0.20355 c 0.417619,-0.16037 0.588275,-0.17238 0.804545,-0.0566 z m -16.155034,-0.36386 c 0.284136,-0.0797 0.274081,-0.0966 -0.190606,-0.32053 -0.426561,-0.20554 -1.784985,-0.713524 -1.908069,-0.713524 -0.02408,0 -0.04366,0.166164 -0.04366,0.369264 0,0.34674 0.03873,0.37459 0.635186,0.45662 0.349329,0.0481 0.667173,0.13918 0.706331,0.20251 0.07977,0.12906 0.354198,0.131 0.800815,0.006 z m 1.855602,-0.25063 c 0.364172,0.16593 0.407114,0.14655 0.468921,-0.21165 0.03617,-0.20958 -0.03408,-0.25972 -0.40087,-0.28606 -0.339143,-0.0244 -0.550281,0.0586 -0.889424,0.34963 l -0.444711,0.38158 0.471408,-0.1904 c 0.373115,-0.15069 0.538797,-0.15968 0.794676,-0.0431 z m 19.002824,-0.0293 c 1.034945,-0.28569 1.401975,-0.50001 0.856271,-0.50001 -0.184573,0 -0.372612,-0.06 -0.417909,-0.13323 -0.05276,-0.08538 -0.135308,-0.08978 -0.22987,-0.0123 -0.08112,0.0665 -0.476276,0.16167 -0.878099,0.2114 -0.659924,0.0817 -0.730621,0.11973 -0.730621,0.39343 0,0.37811 0.160894,0.38278 1.400228,0.0407 z M 37.270982,100.5141 c -0.12237,-0.25931 -0.184415,-0.28335 -0.435716,-0.16886 -0.234976,0.10707 -0.399362,0.0752 -0.830077,-0.16097 l -0.537051,-0.294477 0.437859,0.463337 c 0.368908,0.39035 0.522128,0.46333 0.972793,0.46333 0.51861,0 0.530543,-0.009 0.392192,-0.30236 z m -12.158398,-0.0788 c 0,-0.28974 -0.280881,-0.33751 -0.491596,-0.0836 -0.167851,0.20226 -0.06411,0.33772 0.258657,0.33772 0.14822,0 0.232939,-0.0924 0.232939,-0.25412 z m 21.637334,0 c 0.05577,-0.21326 0.004,-0.25413 -0.322527,-0.25413 -0.380921,0 -0.384228,0.005 -0.158988,0.25413 0.126471,0.13976 0.271621,0.25412 0.322527,0.25412 0.05091,0 0.122449,-0.11436 0.158988,-0.25412 z M 24.65549,100.06704 c 0.40177,-0.419377 0.361077,-0.588247 -0.291359,-1.209174 l -0.389149,-0.37034 -0.259636,0.330068 c -0.142795,0.181539 -0.377243,0.348192 -0.520964,0.370343 -0.241486,0.03721 -0.225531,0.08613 0.210105,0.643813 0.259318,0.33195 0.567478,0.60355 0.684821,0.60355 0.117343,0 0.37211,-0.16572 0.566182,-0.36826 z m 9.984978,-0.07537 c 0.05397,-0.03336 0.129752,-0.181563 0.168407,-0.329332 0.05953,-0.227688 0.02797,-0.256308 -0.207036,-0.187622 -0.152479,0.04458 -0.563166,0.114329 -0.912574,0.155009 -0.349436,0.04068 -0.641562,0.08133 -0.649209,0.09034 -0.0077,0.009 -0.04982,0.166499 -0.09374,0.349965 l -0.07985,0.33358 0.837936,-0.17565 c 0.460851,-0.0966 0.882094,-0.20294 0.936069,-0.236295 z m -2.160243,-0.286979 c 0,-0.08736 -0.140997,-0.158827 -0.315701,-0.158827 -0.372957,0 -0.394917,0.08522 -0.104669,0.405948 0.164253,0.181488 0.236537,0.198318 0.315727,0.07354 0.05649,-0.08901 0.103584,-0.233286 0.104643,-0.320641 z m -9.577626,-0.105688 c -0.04244,-0.110543 -0.07713,-0.249893 -0.07713,-0.309668 0,-0.05977 -0.196506,-0.07679 -0.436695,-0.03781 -0.316706,0.05139 -0.569833,-0.0069 -0.9212,-0.211955 l -0.484505,-0.282821 0.535094,0.52162 c 0.428334,0.417555 0.627512,0.521624 0.998326,0.521624 0.370205,0 0.447728,-0.04037 0.386106,-0.200986 z m 23.930663,-0.584485 c 0.07766,-0.362125 0.192352,-0.720032 0.254846,-0.795351 0.06252,-0.07532 0.07125,-0.336516 0.01932,-0.580446 l -0.09422,-0.443502 -0.292841,0.565666 c -0.161052,0.311115 -0.39706,0.8686 -0.524431,1.238853 l -0.231616,0.673187 h 0.363829 c 0.335385,0 0.374835,-0.05141 0.50501,-0.658407 z m -7.942713,0.08588 c 0.06832,-0.364172 0.0217,-0.526481 -0.255058,-0.889434 -0.425027,-0.557228 -0.487468,-0.560085 -0.258365,-0.01183 0.152082,0.364045 0.153696,0.483933 0.01005,0.760748 -0.148961,0.287118 -0.143484,0.344355 0.0435,0.453422 0.329883,0.192434 0.370205,0.164997 0.459846,-0.312912 z m -6.345105,-0.723979 c 0.07004,-0.328716 0.187325,-0.657447 0.260641,-0.730517 0.07334,-0.07307 0.109776,-0.334664 0.08096,-0.581324 -0.04194,-0.359315 -0.08644,-0.420177 -0.223864,-0.306136 -0.146129,0.121287 -0.943372,1.997363 -0.943372,2.219981 0,0.04184 0.15711,0.05798 0.349171,0.03586 0.303636,-0.03496 0.36576,-0.118118 0.476461,-0.637868 z m -8.068177,-0.431006 c 0,-0.261078 -0.114829,-0.618154 -0.26797,-0.833221 -0.31631,-0.444193 -0.440584,-0.40736 -0.224632,0.06658 0.118507,0.26009 0.11811,0.408903 -0.0026,0.671978 -0.123032,0.270023 -0.120756,0.358968 0.01138,0.44277 0.338296,0.214579 0.48297,0.110296 0.48297,-0.348107 z m -7.575418,-6.97017 c -0.106548,-0.277606 0.04643,-0.435467 0.346022,-0.357121 0.410236,0.107277 0.49104,-0.163164 0.493183,-1.650188 0.0026,-1.28056 0.01773,-1.365917 0.256064,-1.365917 0.239739,0 0.254106,0.08471 0.254106,1.496473 0,1.75695 -0.123561,2.061263 -0.837089,2.061263 -0.268764,0 -0.469185,-0.07219 -0.512286,-0.18451 z" />
      <path
         style="fill:#ff0000;stroke:#000000;stroke-width:0.0115809"
         d="m 144.28129,404.53843 c -1.39924,1.01431 -2.58305,2.31965 -3.77195,3.54711 0.85531,1.12197 1.77969,2.47263 3.11057,3.01919 1.69341,-0.84815 3.07203,-2.32855 4.40935,-3.65569 -1.02981,-0.88044 -2.42667,-1.54573 -2.86285,-2.97487 -0.14327,-0.70699 -0.52047,-0.039 -0.88512,0.0643 z"
         id="path2302"
         transform="scale(0.26458333)" class="OC" />
      <path
         style="fill:#ff0000;stroke:#000000;stroke-width:0.00446792"
         d="m 146.62247,397.02024 c -0.93761,0.80205 -1.86391,1.65623 -2.62473,2.6331 -0.71205,1.0266 -0.56199,2.36794 -0.4419,3.54135 0.0774,0.4978 0.6686,0.13601 0.95866,0.10431 0.35636,-0.11199 1.08874,-0.14737 0.95504,-0.70713 -0.21798,-0.98223 -0.64169,-2.03174 -0.14887,-3.00625 0.3586,-0.89283 0.94411,-1.68479 1.33898,-2.55072 -0.007,-0.0145 -0.0235,-0.0187 -0.0372,-0.0147 z"
         id="path2347"
         transform="scale(0.26458333)" class="OC" />
      <path
         style="fill:#ff0000;stroke:#000000;stroke-width:0.00164319"
         d="m 137.12363,408.91939 c -0.95324,0.0497 -1.87747,0.3197 -2.80579,0.52223 -1.71742,0.42785 -3.45308,0.853 -5.06683,1.59582 -0.23557,0.13626 -0.54444,0.2391 -0.66632,0.50098 -0.013,0.18767 0.24952,0.18747 0.37699,0.21116 0.57559,0.0584 1.24474,0.0253 1.68592,0.46608 0.15317,0.16983 0.36753,0.28769 0.60201,0.2441 0.6364,-0.0733 1.22056,-0.36684 1.84628,-0.4905 1.34923,-0.35619 2.76226,-0.40212 4.09539,-0.82617 0.2088,-0.067 0.45853,-0.17365 0.47845,-0.42633 0.0687,-0.46839 0.2657,-0.90596 0.34514,-1.37053 0.0507,-0.29348 -0.28767,-0.41363 -0.5221,-0.41843 -0.12274,-0.0104 -0.24606,-0.0116 -0.36914,-0.008 z"
         id="path2348"
         transform="scale(0.26458333)" class="OC" />
      <path
         style="fill:#ff0000;stroke:#000000;stroke-width:0.00164319"
         d="m 140.33324,409.68116 c -0.29654,0.0476 -0.41565,0.38336 -0.54411,0.61421 -0.16137,0.33572 -0.31445,0.76322 -0.0721,1.10139 0.29702,0.40387 0.85429,0.37274 1.30024,0.37525 0.22186,-0.0269 0.49716,0.0465 0.68071,-0.11048 0.10823,-0.19664 -0.0808,-0.41137 -0.16042,-0.58427 -0.29888,-0.45749 -0.56566,-0.95857 -0.98539,-1.31843 -0.0637,-0.0451 -0.13908,-0.081 -0.21888,-0.0777 z"
         id="path2349"
         transform="scale(0.26458333)" class="OC" />
      <path
         style="fill:#ff0000;stroke:#000000;stroke-width:0.00164319"
         d="m 141.91989,413.73124 c -0.59231,0.0341 -1.26102,-0.003 -1.7552,0.38211 -0.47323,0.4284 -0.59859,1.09272 -0.79067,1.67337 -0.52951,1.92356 -0.91522,3.88904 -1.14183,5.87142 -0.0394,0.51478 -0.11889,1.04606 -0.008,1.55573 0.0302,0.10848 0.15644,0.11197 0.20816,0.0195 0.53301,-0.66267 0.9277,-1.42583 1.30908,-2.18277 0.88817,-1.91467 1.6527,-3.88558 2.34985,-5.8771 0.14399,-0.45254 0.32012,-0.90171 0.37427,-1.37654 -0.14367,-0.0879 -0.37594,-0.0574 -0.54591,-0.0657 z"
         id="path2350"
         transform="scale(0.26458333)" class="OC" />
      <path
         style="fill:#ff0000;stroke:#000000;stroke-width:0.00164319"
         d="m 155.08146,406.54453 c -0.70639,0.18732 -1.34714,0.5601 -2.01867,0.84081 -0.53228,0.24726 -1.09334,0.46449 -1.68987,0.42599 -0.60554,-0.0428 -1.14059,-0.38375 -1.70051,-0.59149 -0.23425,-0.0831 -0.58089,-0.2487 -0.77737,-0.006 -0.26105,0.41771 -0.36404,0.91417 -0.49405,1.38401 -0.0716,0.22732 -0.092,0.56422 0.18383,0.66061 0.51666,0.16899 1.07456,0.0919 1.60885,0.0926 1.35313,-0.0139 2.58031,-0.7129 3.62872,-1.51073 0.46313,-0.37134 0.96663,-0.70951 1.35618,-1.16119 0.10796,-0.149 0.087,-0.18443 -0.0971,-0.13492 z"
         id="path2351"
         transform="scale(0.26458333)" class="OC" />
      <path
         style="fill:#999999;stroke:#000000;stroke-width:0.00464191"
         d="m 145.17959,376.37761 c -1.04021,1.07373 -2.08862,2.15369 -3.31534,3.01289 -0.26565,0.38429 0.28168,0.78237 0.42756,1.11569 0.92636,1.21098 1.83313,2.50556 3.08307,3.40383 0.88562,-0.42972 1.67211,-1.10185 2.39329,-1.77592 0.57424,-0.52573 1.06681,-1.37151 0.639,-2.14069 -0.7856,-1.41799 -2.11056,-2.43408 -3.18986,-3.61598 z"
         id="path2646"
         transform="scale(0.26458333)" />
      <path
         style="fill:#999999;stroke:#000000;stroke-width:0.00464191"
         d="m 134.46766,377.84507 c 0.0238,0.29454 0.4651,0.52657 0.63741,0.77966 0.77765,0.695 1.43961,1.58019 2.37742,2.06478 1.02805,0.42614 2.19221,0.37172 3.27804,0.26891 0.25644,-0.01 0.4661,-0.2234 0.29701,-0.46764 -0.23599,-0.47742 -0.34549,-1.1533 -0.85096,-1.4214 -0.73542,-0.11676 -1.36057,0.58321 -2.1157,0.38966 -1.31775,-0.22507 -2.40892,-1.11956 -3.62322,-1.61397 z"
         id="path2647"
         transform="scale(0.26458333)" />
      <path
         style="fill:#999999;stroke:#000000;stroke-width:0.00464191"
         d="m 144.66681,369.72844 c -0.12805,0.25672 0.17217,0.62677 0.21015,0.9097 0.35899,0.97414 0.88827,2.08008 0.34198,3.09249 -0.13426,0.48173 -0.57158,0.96194 -0.47652,1.47889 0.33373,0.47465 0.92491,0.83529 1.50554,0.88813 0.58013,-0.19395 0.54977,-0.99325 0.69955,-1.47671 0.22058,-0.89937 0.14405,-1.87888 -0.42031,-2.64227 -0.55264,-0.78614 -1.08087,-1.64834 -1.837,-2.24897 l -0.0142,-0.002 z"
         id="path2648"
         transform="scale(0.26458333)" />
      <path
         style="fill:#999999;stroke:#000000;stroke-width:0.00464191"
         d="m 148.80318,382.75571 c -0.6884,0.21937 -1.31422,0.7022 -1.77099,1.25241 0.12616,0.42784 0.74281,0.45048 1.09121,0.62956 0.31944,0.12648 0.99491,0.2325 0.96192,-0.29992 0.002,-0.49925 0.17438,-1.10481 -0.10498,-1.54688 -0.0511,-0.036 -0.11669,-0.0423 -0.17716,-0.0352 z"
         id="path2649"
         transform="scale(0.26458333)" />
      <path
         style="fill:#999999;stroke:#000000;stroke-width:0.00464191"
         d="m 146.88586,386.41665 c -0.56526,-0.0843 -0.51743,0.64336 -0.47388,1.00391 0.23963,2.04603 0.6374,4.10055 1.37959,6.02714 0.12658,0.47964 0.73063,0.52268 0.83809,1.00925 0.17123,0.24697 0.037,0.71744 0.27851,0.87888 0.42156,-0.96413 0.32638,-2.08388 0.35407,-3.12004 -0.06,-1.71681 -0.20653,-3.51011 -0.98308,-5.06858 -0.27339,-0.50458 -0.8215,-0.78872 -1.3933,-0.73056 z"
         id="path2650"
         transform="scale(0.26458333)" />
      <path
         style="fill:#999999;stroke:#000000;stroke-width:0.00464191"
         d="m 151.2197,381.63186 c -0.20731,0.41129 -0.0708,0.96655 -0.0513,1.42358 0.21138,1.2491 1.60713,1.73414 2.71506,1.82394 1.20937,0.0766 2.16873,0.92467 3.32523,1.16012 0.53472,0.12231 0.82416,-0.47305 0.68396,-0.92113 -0.0102,-0.64553 -0.40265,-1.24353 -1.04375,-1.41225 -1.86122,-0.72715 -3.72911,-1.45997 -5.62918,-2.07426 z"
         id="path2651"
         transform="scale(0.26458333)" />
      <path
         style="fill:#ff00ff;stroke:#000000;stroke-width:0.00464191"
         d="m 158.88012,404.01602 c -0.40767,-0.0233 -1.13994,0.16835 -0.97136,0.71406 0.55087,1.04161 1.7649,1.48506 2.77411,1.96257 1.51372,0.61141 3.05122,1.19752 4.62303,1.6302 0.28583,-0.16512 0.089,-0.64986 0.15788,-0.91823 -0.069,-0.56916 0.17568,-1.44216 -0.48698,-1.73401 -1.63473,-0.59202 -3.57627,-0.35641 -5.00112,-1.4865 -0.33329,-0.17467 -0.72975,-0.16397 -1.09556,-0.16809 z"
         id="path2652"
         transform="scale(0.26458333)" class="IF" />
      <path
         style="fill:#ff00ff;stroke:#000000;stroke-width:0.00464191"
         d="m 167.90882,396.52822 c -0.37153,0.008 -0.74812,0.30452 -0.63681,0.71061 0.22179,1.14419 0.59779,2.26396 0.62484,3.44155 0.0851,0.90244 -0.13337,2.02985 0.59837,2.71733 0.53081,0.26395 1.18775,0.2053 1.7623,0.13418 0.35019,-0.1077 0.55473,-0.41328 0.33478,-0.76824 -0.4528,-1.67585 -0.66409,-3.43644 -1.36017,-5.03633 -0.26877,-0.51702 -0.65881,-1.19958 -1.32331,-1.1991 z"
         id="path2653"
         transform="scale(0.26458333)" class="IF" />
      <path
         style="fill:#ff00ff;stroke:#000000;stroke-width:0.00464191"
         d="m 167.91988,405.33208 c -0.54242,0.0986 -0.39282,0.85404 -0.45482,1.24693 0.0664,0.32737 -0.16244,0.86314 0.15328,1.08545 0.73977,-0.29276 1.36814,-0.88856 1.868,-1.50373 0.13991,-0.31721 -0.43785,-0.39565 -0.61813,-0.54651 -0.3002,-0.13107 -0.61231,-0.29092 -0.94833,-0.28214 z"
         id="path2654"
         transform="scale(0.26458333)" class="IF" />
      <path
         style="fill:#ff00ff;stroke:#000000;stroke-width:0.00464191"
         d="m 171.2898,406.55548 c -1.12469,0.29461 -1.92826,1.24887 -2.7545,2.01016 -0.30067,0.30525 -0.83495,0.79638 -0.40092,1.2243 1.0016,1.3624 2.06468,2.71684 3.34708,3.82451 0.70199,-0.39241 1.25721,-1.07607 1.88023,-1.59764 0.56108,-0.5885 1.28248,-1.08128 1.69658,-1.78461 -0.85611,-1.16574 -1.78675,-2.31247 -2.87218,-3.27835 -0.25458,-0.20487 -0.5501,-0.42807 -0.89629,-0.39837 z"
         id="path2655"
         transform="scale(0.26458333)" class="IF" />
      <path
         style="fill:#ff00ff;stroke:#000000;stroke-width:0.00464191"
         d="m 170.31282,413.84745 c -0.53038,0.12297 -0.38113,0.87468 -0.44105,1.2727 -0.0874,1.47247 0.28653,2.97093 1.19301,4.1509 0.45126,0.5922 0.84813,1.32641 1.49901,1.70681 0.0503,-0.33196 -0.26655,-0.70677 -0.36156,-1.03718 -0.5269,-1.15801 -1.26973,-2.53795 -0.66619,-3.80383 0.17446,-0.38066 0.7917,-0.83385 0.35739,-1.25386 -0.42211,-0.44473 -0.9522,-0.94617 -1.58061,-1.03554 z"
         id="path2656"
         transform="scale(0.26458333)" class="IF" />
      <path
         style="fill:#ff00ff;stroke:#000000;stroke-width:0.00464191"
         d="m 177.16254,408.93627 c -0.43851,0.0821 -1.12155,-0.122 -1.39583,0.32656 0.0133,0.64496 0.28174,1.30212 0.61487,1.84933 0.48002,0.11457 0.9918,-0.2428 1.46941,-0.32002 0.99005,-0.41564 1.94344,0.31034 2.80913,0.71376 0.62207,0.29915 1.19562,0.77907 1.8428,0.98941 0.0781,-0.2641 -0.36631,-0.48317 -0.48577,-0.70046 -1.15269,-1.10754 -2.22952,-2.65405 -3.9507,-2.82866 -0.30005,-0.0324 -0.60243,-0.0356 -0.90391,-0.0299 z"
         id="path2657"
         transform="scale(0.26458333)" class="IF" />
      <path
         style="fill:#00ff00;stroke:#000000;stroke-width:0.00464191"
         d="m 117.47064,403.17232 c -1.22492,0.27808 -2.25283,1.15046 -3.04009,2.09865 -0.42456,0.42531 -0.19851,1.04605 0.14325,1.44135 0.92127,1.23373 1.81976,2.53671 3.02377,3.51299 0.30906,0.16866 0.53348,-0.37278 0.78532,-0.47852 0.99627,-0.91643 2.02797,-1.83168 2.96719,-2.78551 -1.09679,-1.27532 -2.05657,-2.7479 -3.48034,-3.68814 -0.12239,-0.0632 -0.25863,-0.11666 -0.3991,-0.10082 z"
         id="path2658"
         transform="scale(0.26458333)" class="IR" />
      <path
         style="fill:#00ff00;stroke:#000000;stroke-width:0.00464191"
         d="m 104.8247,400.72643 c -0.68509,0.0639 -1.46042,0.0101 -2.07599,0.33237 0.0863,0.22281 0.47762,0.10325 0.63863,0.29574 0.96399,0.66747 1.97314,1.26853 3.05696,1.72662 1.6359,0.71269 3.28851,1.45091 5.01561,1.89806 0.37343,-0.21422 0.1846,-0.80441 0.24969,-1.15921 0.0282,-0.6048 -0.0739,-1.48278 -0.81542,-1.59819 -1.57536,-0.37221 -3.18136,-0.66161 -4.66277,-1.34036 -0.44836,-0.16947 -0.93555,-0.15463 -1.40671,-0.15503 z"
         id="path2659"
         transform="scale(0.26458333)" class="IR" />
      <path
         style="fill:#00ff00;stroke:#000000;stroke-width:0.00464191"
         d="m 114.22493,402.00259 c -0.52532,0.0102 -0.56414,0.59893 -0.52385,0.9953 0.0598,0.45669 -0.11709,1.0244 0.12494,1.42811 0.67109,-0.42378 1.20926,-1.09534 1.79384,-1.64607 0.0831,-0.12969 0.55261,-0.43535 0.18314,-0.50027 -0.5145,-0.13442 -1.04613,-0.25161 -1.57807,-0.27707 z"
         id="path2660"
         transform="scale(0.26458333)" class="IR" />
      <path
         style="fill:#00ff00;stroke:#000000;stroke-width:0.00464191"
         d="m 113.35203,393.79421 c -0.12651,0.34031 0.2435,0.74194 0.26224,1.10638 0.43011,1.54464 0.34343,3.19946 0.86796,4.71813 0.3208,0.72315 1.3232,0.7158 1.9661,0.51025 0.373,-0.28286 0.10481,-0.86804 0.10528,-1.26061 -0.24395,-1.20722 -0.38437,-2.4899 -0.98524,-3.58312 -0.51531,-0.75135 -1.39105,-1.17735 -2.21634,-1.49103 z"
         id="path2661"
         transform="scale(0.26458333)" class="IR" />
      <path
         style="fill:#00ff00;stroke:#000000;stroke-width:0.00464191"
         d="m 116.38415,410.64779 c -0.42953,0.15885 -0.23805,0.79071 -0.30064,1.1418 -0.0897,1.75629 0.46157,3.57815 1.76423,4.8055 0.0943,0.21181 0.41216,0.30233 0.3424,-0.0232 -0.21389,-1.27472 -1.00118,-2.58094 -0.41632,-3.87074 0.12473,-0.43873 0.58706,-1.10894 0.0377,-1.43953 -0.42027,-0.2905 -0.91293,-0.56249 -1.42738,-0.61379 z"
         id="path2662"
         transform="scale(0.26458333)" class="IR" />
      <path
         style="fill:#00ff00;stroke:#000000;stroke-width:0.00464191"
         d="m 122.33051,405.58829 c -0.26942,-0.0305 -0.82289,0.0434 -0.64751,0.44406 0.27283,0.61186 0.58634,1.23208 0.96319,1.77807 0.84721,-0.14381 1.6548,-0.85471 2.55614,-0.48268 1.23208,0.41453 2.25868,1.29706 3.46149,1.75141 0.11414,-0.19823 -0.28348,-0.40879 -0.3683,-0.57365 -0.97119,-0.90968 -1.80695,-2.03212 -3.00181,-2.66082 -0.93829,-0.34541 -1.9842,-0.21067 -2.9632,-0.25639 z"
         id="path2663"
         transform="scale(0.26458333)" class="IR" />
      <path
         style="fill:#ffff00;stroke:#000000;stroke-width:0.00464191"
         d="m 87.52161,410.33628 c -0.620863,0.0109 -1.522452,0.006 -1.699375,0.77298 -0.516885,1.63603 -0.756628,3.36245 -1.465347,4.93222 -0.27352,1.01751 -0.101367,2.10799 0.110852,3.12077 0.121265,0.71274 0.449284,-0.2258 0.64751,-0.46074 1.491852,-2.63756 2.519508,-5.50535 3.476357,-8.3714 -0.316028,-0.072 -0.724359,0.0169 -1.069997,0.006 z"
         id="path2664"
         transform="scale(0.26458333)" class="T" />
      <path
         style="fill:#ffff00;stroke:#000000;stroke-width:0.00464191"
         d="m 82.880243,405.5901 c -1.925187,0.22157 -3.785171,0.83834 -5.633788,1.39903 -0.985466,0.32167 -1.955979,0.6866 -2.929451,1.04251 0.759573,0.43291 1.736852,0.72745 2.649697,0.83609 0.798229,0.0836 1.485226,-0.45436 2.284726,-0.41487 1.461655,-0.14047 3.214293,-0.0689 4.307151,-1.22467 0.549873,-0.58511 0.270997,-1.78675 -0.678335,-1.63809 z"
         id="path2665"
         transform="scale(0.26458333)" class="T" />
      <path
         style="fill:#ffff00;stroke:#000000;stroke-width:0.00464191"
         d="m 86.229672,406.564 c -0.433718,0.15936 -0.458011,0.76976 -0.617411,1.14398 -0.179388,0.46459 0.365679,0.66612 0.729651,0.6689 0.546408,0.0162 1.209508,0.15217 1.690308,-0.14923 -0.276309,-0.56073 -0.847681,-0.97539 -1.297015,-1.41342 -0.146612,-0.11353 -0.312043,-0.24521 -0.505533,-0.25023 z"
         id="path2666"
         transform="scale(0.26458333)" class="T" />
      <path
         style="fill:#ffff00;stroke:#000000;stroke-width:0.00464191"
         d="m 91.078475,400.81274 c -1.130742,0.27694 -1.969687,1.1995 -2.812287,1.94913 -0.618814,0.6703 -1.605656,1.42305 -1.349114,2.45797 0.327053,0.91164 1.004476,1.68529 1.720952,2.31878 0.821073,0.59944 1.803181,-0.0611 2.464202,-0.58822 1.031944,-0.89847 2.073704,-1.83966 3.021776,-2.79512 -0.934263,-0.84054 -2.313423,-1.50747 -2.597838,-2.84281 -0.04224,-0.22287 -0.169974,-0.53016 -0.447691,-0.49973 z"
         id="path2667"
         transform="scale(0.26458333)" class="T" />
      <path
         style="fill:#ffff00;stroke:#000000;stroke-width:0.00464191"
         d="m 92.236777,394.19729 c -0.987301,0.98001 -2.039214,1.97146 -2.694789,3.21735 -0.445162,0.84736 -0.371524,1.86291 -0.294711,2.78541 0.21761,0.49417 0.811276,0.0225 1.130472,-0.0892 0.527278,-0.17102 0.97093,-0.6301 0.880419,-1.21983 -0.104465,-1.23595 -0.03941,-2.52315 0.566639,-3.63139 0.115021,-0.34055 0.453534,-0.71867 0.426113,-1.06401 z"
         id="path2668"
         transform="scale(0.26458333)" class="T" />
      <path
         style="fill:#ffff00;stroke:#000000;stroke-width:0.00464191"
         d="m 100.75468,403.47205 c -1.346557,0.35757 -2.729505,1.31739 -4.149973,0.70499 -0.448335,-0.11573 -0.902912,-0.43199 -1.362292,-0.42666 -0.432536,0.5577 -0.836327,1.20968 -0.976796,1.90736 0.06456,0.44041 0.716021,0.25248 1.013242,0.31369 1.405793,0.0423 2.922012,-0.14155 4.010356,-1.12366 0.505753,-0.43892 1.137983,-0.81932 1.519863,-1.35922 -0.0103,-0.0206 -0.0356,-0.0193 -0.0544,-0.0165 z"
         id="path2669"
         transform="scale(0.26458333)" class="T" />
      <path
         style="fill:#ff6600;stroke:#000000;stroke-width:0.00464191"
         d="m 79.878957,373.67225 c -0.0083,0.23835 0.421741,0.44791 0.563661,0.661 1.14053,0.98388 2.120226,2.32904 3.642527,2.72904 0.750916,0.0781 1.557025,0.16703 2.287048,-0.0484 0.528523,-0.23246 0.01227,-0.77919 -0.01795,-1.18459 -0.07916,-0.2775 -0.0343,-0.72296 -0.442251,-0.72947 -1.180318,-0.0754 -2.409021,0.3163 -3.54671,-0.1719 -0.883317,-0.3 -1.632451,-0.89917 -2.486324,-1.25567 z"
         id="path2670"
         transform="scale(0.26458333)" class="OR" />
      <path
         style="fill:#ff6600;stroke:#000000;stroke-width:0.00464191"
         d="m 90.623713,372.35202 c -0.87078,0.90436 -1.575707,2.12206 -2.851875,2.51715 -0.279591,0.0306 -0.82142,0.16735 -0.600184,0.56392 0.803346,1.34395 1.823013,2.57853 2.985873,3.6294 0.390345,0.35979 0.985768,0.69345 1.475983,0.2941 1.024089,-0.64849 2.090074,-1.47935 2.494121,-2.66674 0.07687,-0.93964 -0.758132,-1.64081 -1.328072,-2.27664 -0.714396,-0.68414 -1.386532,-1.48605 -2.175846,-2.06119 z"
         id="path2671"
         transform="scale(0.26458333)" class="OR" />
      <path
         style="fill:#ff6600;stroke:#000000;stroke-width:0.00464191"
         d="m 90.40159,365.88 c -0.221142,0.31654 0.09343,0.77761 0.159203,1.11678 0.427282,0.91732 0.572128,2.00426 0.06106,2.92089 -0.212672,0.46953 -0.532106,1.21603 0.07185,1.54314 0.446971,0.39896 1.324997,0.59506 1.636818,-0.0673 0.202752,-0.73405 0.131177,-1.53891 0.02611,-2.2885 -0.321562,-1.21657 -0.950588,-2.45045 -1.955042,-3.22504 z"
         id="path2672"
         transform="scale(0.26458333)" class="OR" />
      <path
         style="fill:#ff6600;stroke:#000000;stroke-width:0.00464191"
         d="m 91.888996,382.28499 c -0.448123,-0.0445 -0.235734,0.48337 -0.184021,0.72289 0.525165,2.31958 0.907232,4.71085 1.892825,6.89166 0.173716,0.29846 0.460596,0.87037 0.874166,0.73472 0.683726,-0.73239 0.880636,-1.9525 0.297191,-2.80291 -0.499577,-1.55309 -0.130085,-3.25627 -0.552677,-4.82632 -0.301536,-0.68118 -1.21867,-0.54362 -1.817055,-0.68849 -0.169424,-0.0184 -0.339713,-0.0375 -0.510429,-0.0315 z"
         id="path2673"
         transform="scale(0.26458333)" class="OR" />
      <path
         style="fill:#ff6600;stroke:#000000;stroke-width:0.00464191"
         d="m 94.099707,378.69403 c -0.627148,0.0787 -1.26014,0.64914 -1.291576,1.29412 0.183103,0.5755 0.980475,0.59553 1.478159,0.501 0.891966,-0.21568 0.754558,-1.8021 -0.186583,-1.79512 z"
         id="path2674"
         transform="scale(0.26458333)" class="OR" />
      <path
         style="fill:#ff6600;stroke:#000000;stroke-width:0.00464191"
         d="m 97.084129,377.76039 c -0.327516,0.23526 -0.11342,0.79369 -0.187489,1.13981 -5.38e-4,0.5294 -0.102988,1.27077 0.533275,1.48795 1.454889,0.52065 3.121535,0.38433 4.488145,1.15848 0.70798,0.61105 1.71456,0.24082 2.53492,0.1331 0.36382,-0.12615 0.89309,-0.11458 1.13038,-0.44479 -0.49864,-0.52616 -1.28231,-0.72521 -1.91721,-1.06286 -2.1306,-0.89005 -4.27096,-1.803 -6.502057,-2.4077 -0.02646,-0.003 -0.05327,-0.006 -0.07996,-0.004 z"
         id="path2675"
         transform="scale(0.26458333)" class="OR" />
      <path
         style="fill:#0000ff;stroke:#000000;stroke-width:0.00464191"
         d="m 111.73625,378.77436 c -1.61172,-0.0113 -2.77052,1.26219 -3.91299,2.21778 -0.1328,0.0511 -0.23711,0.30082 -0.004,0.20853 1.2729,-0.41003 2.6493,-1.24846 4.00057,-0.63935 0.46772,0.11118 1.01615,0.62443 1.49883,0.33273 0.32395,-0.44058 0.44492,-1.06804 0.37262,-1.606 -0.40763,-0.55536 -1.35261,-0.4664 -1.95468,-0.51369 z"
         id="path2676"
         transform="scale(0.26458333)" class="IC" />
      <path
         style="fill:#0000ff;stroke:#000000;stroke-width:0.00464191"
         d="m 118.78887,376.93772 c -1.06902,0.17952 -1.78231,1.12859 -2.56361,1.79452 -0.6532,0.65732 -1.37689,1.29103 -1.97712,1.97123 0.96424,0.85811 2.14369,1.61615 2.7099,2.81779 0.005,0.31764 0.20296,0.70586 0.57407,0.55159 1.23746,-0.57965 2.12181,-1.69696 3.09849,-2.61886 0.43255,-0.46507 0.91528,-0.9093 1.31151,-1.3915 -0.77345,-1.02399 -1.48218,-2.15378 -2.51044,-2.94254 -0.19143,-0.11942 -0.41519,-0.1948 -0.6428,-0.18223 z"
         id="path2677"
         transform="scale(0.26458333)" class="IC" />
      <path
         style="fill:#0000ff;stroke:#000000;stroke-width:0.00464191"
         d="m 123.74121,365.58027 c -0.56581,0.19989 -0.67774,0.93858 -0.98332,1.39058 -1.05279,2.2587 -2.10519,4.53908 -2.8167,6.93132 -0.0573,0.46205 0.63416,0.34752 0.91696,0.34379 0.72381,-0.0355 1.57752,-0.29634 1.76012,-1.09919 0.48113,-1.46022 0.65074,-3.04413 1.4778,-4.36703 0.3495,-0.97766 0.24749,-2.09072 -0.0707,-3.0584 -0.0617,-0.093 -0.1707,-0.15545 -0.28414,-0.14107 z"
         id="path2678"
         transform="scale(0.26458333)" class="IC" />
      <path
         style="fill:#0000ff;stroke:#000000;stroke-width:0.00464191"
         d="m 121.31164,376.24144 c -0.33292,-0.035 -1.03919,0.15754 -0.76899,0.61886 0.35623,0.57561 0.77666,1.24551 1.43953,1.47924 0.49196,-0.28541 0.66079,-0.94957 0.75649,-1.47616 -0.15431,-0.55193 -0.95939,-0.60519 -1.42703,-0.62194 z"
         id="path2679"
         transform="scale(0.26458333)" class="IC" />
      <path
         style="fill:#0000ff;stroke:#000000;stroke-width:0.00464191"
         d="m 131.2729,375.92901 c -1.84407,0.29688 -3.68323,0.63853 -5.54318,0.8447 -0.36835,0.0453 -0.92503,0.0145 -0.95169,0.52557 -0.15667,0.69129 -0.42582,1.39994 -0.47344,2.09576 0.46716,0.0727 0.97514,-0.22112 1.45561,-0.2603 1.73949,-0.39379 3.50649,-0.70574 5.21188,-1.22494 0.25116,-0.60101 0.75861,-1.2645 0.59039,-1.94162 -0.0806,-0.0624 -0.19695,-0.0324 -0.28957,-0.0392 z"
         id="path2680"
         transform="scale(0.26458333)" class="IC" />
      <path
         style="fill:#0000ff;stroke:#000000;stroke-width:0.00464191"
         d="m 118.36131,384.71383 c -0.56776,0.0121 -1.38234,0.32059 -1.20617,1.03391 0.1287,1.06299 0.19976,2.18474 -0.3233,3.16194 -0.30232,0.70138 -0.77473,1.32569 -1.08578,2.0147 0.34649,-0.0988 0.61293,-0.54705 0.91581,-0.77179 0.93133,-0.95923 2.19806,-1.9241 2.19264,-3.39795 -0.0346,-0.64018 0.16103,-1.38532 -0.17643,-1.96157 -0.0853,-0.0774 -0.20749,-0.0855 -0.31677,-0.0792 z"
         id="path2681"
         transform="scale(0.26458333)" class="IC" />
    </g>
    <path
       style="fill:#ffffff;fill-opacity:1;stroke:#000000;stroke-width:0.0064821;stroke-opacity:0"
       d="m 166.18021,381.04857 c -1.89021,-0.038 -3.55277,1.18482 -4.72737,2.54499 0.23706,0.30713 0.76306,-0.21034 1.08474,-0.2202 1.13301,-0.39135 2.42632,-1.04218 3.57655,-0.32293 0.54088,0.31178 1.27737,0.23136 1.56304,-0.3826 0.3814,-0.39545 0.71861,-1.29752 -0.0458,-1.48253 -0.46758,-0.14279 -0.96693,-0.13621 -1.45113,-0.13673 z"
       id="path103"
       transform="scale(0.26458333)" class="P" />
    <path
       style="fill:#ffffff;fill-opacity:1;stroke:#000000;stroke-width:0.0064821;stroke-opacity:0"
       d="m 172.76992,379.10749 c -1.63195,0.86067 -2.90293,2.28565 -4.31911,3.45085 -0.67427,0.46993 0.55653,0.82022 0.79033,1.22194 0.77207,0.68231 1.57425,1.52501 1.57884,2.62235 0.4108,0.45299 1.00344,-0.2333 1.38072,-0.43356 1.20601,-0.97386 2.51965,-1.93299 3.3626,-3.25313 0.12303,-1.02487 -0.86762,-1.77363 -1.4415,-2.49859 -0.42124,-0.36655 -0.79265,-0.97088 -1.35188,-1.10986 z"
       id="path104"
       transform="scale(0.26458333)" class="P" />
    <path
       style="fill:#ffffff;fill-opacity:1;stroke:#000000;stroke-width:0.0064821;stroke-opacity:0"
       d="m 172.75574,386.88398 c -0.60453,0.13135 -1.2791,0.26345 -1.79321,0.56668 -0.0765,1.13651 0.15097,2.34228 -0.11228,3.43627 -0.30139,0.73901 -0.79262,1.44123 -0.97499,2.21277 0.38752,0.12405 0.65495,-0.54239 0.96718,-0.72551 1.33643,-1.40407 2.46224,-3.30135 2.28273,-5.30056 -0.0528,-0.15125 -0.22237,-0.20736 -0.36943,-0.18965 z"
       id="path105"
       transform="scale(0.26458333)" class="P" />
    <path
       style="fill:#ffffff;fill-opacity:1;stroke:#000000;stroke-width:0.0064821;stroke-opacity:0"
       d="m 175.06423,378.58816 c -0.2856,-0.03 -0.99148,0.075 -0.62618,0.49122 0.47347,0.55078 0.9673,1.23309 1.63977,1.5157 0.5247,-0.29712 0.86518,-1.1289 0.61124,-1.69623 -0.39011,-0.40122 -1.12157,-0.27343 -1.62483,-0.31069 z"
       id="path106"
       transform="scale(0.26458333)" class="P" />
    <path
       style="fill:#ffffff;fill-opacity:1;stroke:#000000;stroke-width:0.0064821;stroke-opacity:0"
       d="m 184.96513,377.84272 c -1.8566,1.03941 -4.11022,0.79797 -6.07418,1.53089 -0.92024,0.46471 -0.48547,2.34904 0.64086,2.11301 2.56236,-0.36075 5.07187,-1.11142 7.49721,-2.00413 0.26206,-0.16118 1.05701,-0.33589 0.8171,-0.76646 -0.82858,-0.2844 -1.90627,0.0305 -2.56803,-0.72746 -0.087,-0.0759 -0.1904,-0.15564 -0.31296,-0.14585 z"
       id="path107"
       transform="scale(0.26458333)" class="P" />
    <path
       style="fill:#ffffff;fill-opacity:1;stroke:#000000;stroke-width:0.0064821;stroke-opacity:0"
       d="m 177.62111,367.42452 c -1.576,2.91694 -2.90672,5.9909 -3.86545,9.1628 0.57079,0.26315 1.32152,0.0666 1.95324,0.0848 0.88529,-0.0264 0.92829,-1.19413 1.1771,-1.81554 0.30342,-1.49288 0.90222,-2.90449 1.29141,-4.37055 0.0927,-1.03652 -0.21642,-2.08607 -0.46514,-3.06659 z"
       id="path108"
       transform="scale(0.26458333)" class="P" />
  </g>
</svg>
