<?xml version="1.0" encoding="UTF-8" standalone="no"?>
<!-- Created with Inkscape (http://www.inkscape.org/) -->

<svg
   width="34.160946mm"
   height="35.196808mm"
   viewBox="0 0 34.160946 35.196808"
   version="1.1"
   id="svg1"
   xmlns="http://www.w3.org/2000/svg"
   xmlns:svg="http://www.w3.org/2000/svg">
  <defs
     id="defs1" />
  <g
     id="layer1"
     transform="translate(-53.974388,-87.729029)">
    <g
       id="g2942">
      <path
         id="path1499"
         style="fill:#000000;stroke-width:0.264583"
         d="m 61.903399,122.62553 c -0.424921,-0.42493 -0.429869,-1.00369 -0.01217,-1.4214 0.17153,-0.17154 0.43143,-0.31188 0.577559,-0.31188 0.146129,0 0.40603,0.14034 0.577559,0.31188 0.565124,0.56512 0.30353,1.48002 -0.475853,1.66433 -0.265007,0.0627 -0.416772,0.007 -0.667094,-0.24293 z m 0.969698,-0.39913 c 0.190077,-0.4172 -0.03723,-0.95297 -0.40431,-0.95297 -0.367083,0 -0.594386,0.53577 -0.40431,0.95297 0.08565,0.18793 0.250746,0.31765 0.40431,0.31765 0.153564,0 0.318691,-0.12972 0.40431,-0.31765 z m 1.120431,0.60619 c -0.30943,-0.11773 -0.37719,-0.31117 -0.379227,-1.08267 -0.0026,-0.56559 0.04109,-0.73061 0.188648,-0.73061 0.146446,0 0.190579,0.1628 0.190579,0.70283 0,0.51015 0.05271,0.72305 0.19222,0.77658 0.34671,0.13305 0.57015,-0.20384 0.57015,-0.85966 0,-0.46618 0.04723,-0.61975 0.190606,-0.61975 0.151236,0 0.19058,0.18337 0.19058,0.88801 0,0.84086 -0.01508,0.88717 -0.285883,0.87224 -0.157242,-0.009 -0.37166,0.016 -0.476488,0.0549 -0.104828,0.0389 -0.276357,0.038 -0.381185,-0.002 z m 1.874176,0.002 -0.349435,-0.0529 v -1.26218 c 0,-1.03723 0.03397,-1.26218 0.190606,-1.26218 0.127317,0 0.190579,0.12733 0.190579,0.38361 0,0.34363 0.03244,0.37546 0.311282,0.30548 0.233019,-0.0585 0.396478,0.007 0.650399,0.26104 0.28485,0.28485 0.327184,0.41396 0.264398,0.80631 -0.07332,0.45804 -0.477414,0.93047 -0.763667,0.89282 -0.07961,-0.0105 -0.301995,-0.0429 -0.494162,-0.072 z m 0.769726,-0.89598 c 0.02892,-0.39919 -0.01297,-0.56006 -0.160444,-0.61666 -0.458575,-0.17598 -0.800285,0.69476 -0.421349,1.0737 0.299165,0.29916 0.540756,0.10937 0.581793,-0.45704 z m 1.733973,0.67511 c -0.196612,-0.1966 -0.311891,-0.45705 -0.311891,-0.70462 0,-0.44974 0.484849,-1.01649 0.86958,-1.01649 0.345995,0 0.75647,0.38165 0.854128,0.79413 l 0.08271,0.34942 h -0.717075 c -0.67773,0 -0.709639,0.0139 -0.581105,0.25413 0.159518,0.29805 0.611082,0.33809 0.716439,0.0635 0.0935,-0.24365 0.427143,-0.24928 0.427143,-0.007 0,0.22695 -0.48424,0.57898 -0.796422,0.57898 -0.127397,0 -0.371978,-0.14035 -0.543507,-0.31188 z m 0.926968,-1.11757 c -0.02913,-0.0874 -0.186346,-0.15883 -0.349409,-0.15883 -0.163063,0 -0.320305,0.0715 -0.349435,0.15883 -0.03493,0.10477 0.084,0.15883 0.349435,0.15883 0.265404,0 0.384334,-0.0541 0.349409,-0.15883 z m 4.79081,1.11757 c -0.196585,-0.1966 -0.311891,-0.45705 -0.311891,-0.70462 0,-0.44974 0.484849,-1.01649 0.869606,-1.01649 0.355071,0 0.77478,0.39361 0.812906,0.76237 0.03088,0.29858 -0.0071,0.31996 -0.635132,0.35609 -0.617855,0.0356 -0.658045,0.057 -0.535543,0.28589 0.15658,0.29261 0.608541,0.32866 0.71284,0.0569 0.0935,-0.24365 0.427143,-0.24928 0.427143,-0.007 0,0.22695 -0.48424,0.57898 -0.796422,0.57898 -0.127397,0 -0.371978,-0.14034 -0.543507,-0.31187 z m 0.926968,-1.11757 c -0.0291,-0.0874 -0.186346,-0.15883 -0.349409,-0.15883 -0.163063,0 -0.320305,0.0715 -0.349435,0.15883 -0.03493,0.10477 0.08401,0.15883 0.349435,0.15883 0.265404,0 0.384334,-0.0541 0.349409,-0.15883 z m 1.001871,1.1661 c -0.449659,-0.3537 -0.460137,-1.02054 -0.02302,-1.45776 0.17153,-0.17154 0.422513,-0.31188 0.557716,-0.31188 0.342503,0 0.740357,0.37849 0.83476,0.79413 0.07922,0.34878 0.07805,0.34942 -0.626375,0.34942 -0.666353,0 -0.698156,0.0142 -0.569727,0.25413 0.159517,0.29805 0.611055,0.33809 0.716412,0.0635 0.0935,-0.24365 0.427144,-0.24928 0.427144,-0.007 0,0.21936 -0.480457,0.57898 -0.77351,0.57898 -0.114802,0 -0.359383,-0.1185 -0.543507,-0.26334 z m 0.904055,-1.1661 c -0.0291,-0.0874 -0.186346,-0.15883 -0.349409,-0.15883 -0.163063,0 -0.320304,0.0715 -0.349409,0.15883 -0.03493,0.10477 0.08398,0.15883 0.349409,0.15883 0.26543,0 0.384334,-0.0541 0.349409,-0.15883 z m 2.85705,1.29774 c -0.840819,-0.3378 -0.523981,-1.90128 0.385313,-1.90128 0.312102,0 0.855398,0.56124 0.855398,0.88366 0,0.22773 -0.07993,0.25989 -0.645901,0.25989 -0.658575,0 -0.778775,0.15271 -0.33872,0.4303 0.153802,0.097 0.26932,0.0747 0.447172,-0.0862 0.376608,-0.34082 0.689637,-0.26019 0.440214,0.11338 -0.106574,0.15958 -0.596926,0.43598 -0.752078,0.42392 -0.05702,-0.004 -0.233124,-0.0601 -0.391398,-0.12365 z m 0.732472,-1.25847 c 0,-0.1925 -0.236563,-0.28433 -0.509402,-0.19774 -0.382323,0.12135 -0.303133,0.3173 0.128217,0.3173 0.20963,0 0.381185,-0.0538 0.381185,-0.11956 z m 2.287112,1.302 c -0.210132,-0.0751 -0.508265,-0.41027 -0.508265,-0.57142 0,-0.17121 0.283607,-0.11547 0.525277,0.10323 0.230638,0.20873 0.618279,0.16325 0.618279,-0.0725 0,-0.0707 -0.157242,-0.16619 -0.349409,-0.2121 -0.488394,-0.11667 -0.667067,-0.28577 -0.667067,-0.6313 0,-0.53837 0.664659,-0.7201 1.161229,-0.3175 0.345149,0.2798 0.221165,0.52307 -0.148801,0.29201 -0.135626,-0.0847 -0.337926,-0.15401 -0.449527,-0.15401 -0.345044,0 -0.12626,0.2923 0.334195,0.44649 0.351393,0.11766 0.4445,0.22064 0.475112,0.52549 0.03053,0.3039 -0.02738,0.40899 -0.291862,0.52949 -0.354806,0.16165 -0.407617,0.16635 -0.699161,0.0622 z M 59.292253,121.5279 v -1.27061 h 0.563483 c 1.112969,0 1.515692,0.36881 1.500505,1.37413 -0.0127,0.84415 -0.379069,1.1671 -1.323764,1.1671 h -0.740224 z m 1.520269,0.64367 c 0.372957,-0.69687 -0.04046,-1.5331 -0.757899,-1.5331 h -0.381185 v 0.88943 0.88944 h 0.503766 c 0.368036,0 0.539221,-0.0662 0.635318,-0.24577 z m 6.611673,-0.64367 c 0,-1.04473 0.03389,-1.27061 0.190606,-1.27061 0.156712,0 0.190579,0.22588 0.190579,1.27061 0,1.04474 -0.03387,1.27062 -0.190579,1.27062 -0.156713,0 -0.190606,-0.22588 -0.190606,-1.27062 z m 3.684799,-0.009 c 0,-1.2237 0.01164,-1.27768 0.264001,-1.23885 0.197908,0.0304 0.326496,0.23142 0.513768,0.80297 0.137372,0.41931 0.281543,0.84814 0.320384,0.95297 0.04093,0.11048 0.212169,-0.20994 0.407432,-0.76237 0.267203,-0.75599 0.389361,-0.95297 0.590947,-0.95297 0.234262,0 0.256963,0.0968 0.290486,1.23886 0.03445,1.17339 0.02275,1.23885 -0.222356,1.23885 -0.229103,0 -0.259874,-0.0837 -0.268764,-0.73061 l -0.01005,-0.7306 -0.254688,0.7306 c -0.348721,1.00039 -0.607907,0.98323 -0.959723,-0.0635 l -0.266885,-0.79413 -0.01164,0.79413 c -0.009,0.616 -0.05445,0.79414 -0.202274,0.79414 -0.156792,0 -0.190606,-0.22687 -0.190606,-1.27945 z m 6.607228,0.009 c 0,-1.04473 0.03389,-1.27061 0.190606,-1.27061 0.144436,0 0.190579,0.15655 0.190579,0.6466 v 0.6466 l 0.390948,-0.32895 c 0.613463,-0.51621 0.865558,-0.41022 0.344223,0.14473 -0.301519,0.32095 -0.310197,0.28153 0.251831,1.14636 0.171608,0.26406 0.165814,0.28589 -0.07578,0.28589 -0.155866,0 -0.352531,-0.15402 -0.486728,-0.38118 -0.123825,-0.20965 -0.270007,-0.38119 -0.324829,-0.38119 -0.05482,0 -0.09967,0.17154 -0.09967,0.38119 0,0.25412 -0.06353,0.38118 -0.190579,0.38118 -0.156713,0 -0.190606,-0.22588 -0.190606,-1.27062 z m 3.557746,0.38119 c 0,-0.85894 0.01085,-0.89009 0.317632,-0.90849 0.174731,-0.0105 0.388356,-0.0248 0.474742,-0.0318 0.08641,-0.007 0.176371,0.0874 0.199919,0.20965 0.02905,0.1509 -0.03747,0.22236 -0.20701,0.22236 -0.299455,0 -0.404098,0.23302 -0.404098,0.89982 0,0.35783 -0.0536,0.49786 -0.190606,0.49786 -0.151262,0 -0.190579,-0.18353 -0.190579,-0.88943 z m 0.552476,-3.62575 c -0.04117,-0.10729 0.107236,-0.53671 0.329777,-0.95427 0.458549,-0.86033 0.443362,-1.35479 -0.03686,-1.19967 -0.635609,0.20533 -1.051825,0.20894 -1.216475,0.0106 -0.160496,-0.19337 -0.141711,-0.67975 0.04276,-1.10757 0.154253,-0.35777 -0.30861,-0.39615 -1.02608,-0.0851 -0.369253,0.16008 -0.699241,0.36113 -0.733319,0.44677 -0.03408,0.0856 0.02434,0.36264 0.130148,0.61554 0.105675,0.25291 0.17481,0.69695 0.153644,0.98675 -0.05091,0.69696 -0.348536,0.75272 -0.927497,0.17376 -0.347319,-0.34733 -0.435081,-0.53238 -0.42164,-0.88928 0.01349,-0.35794 -0.09427,-0.58349 -0.523372,-1.09601 -0.297154,-0.35492 -0.616294,-0.64531 -0.709216,-0.64531 -0.09292,0 -0.430662,0.30634 -0.750544,0.68077 -0.413808,0.48436 -0.581607,0.79217 -0.581607,1.06686 0,0.28415 -0.120676,0.49205 -0.457041,0.78738 -1.380014,1.21167 -1.151784,-0.81387 0.323903,-2.87463 0.423545,-0.59147 0.514324,-0.82206 0.514324,-1.30642 0,-0.52925 -0.05728,-0.64439 -0.571765,-1.14933 -0.532712,-0.5228 -0.571791,-0.60641 -0.571791,-1.22315 0,-0.85553 -0.09554,-1.12123 -0.332475,-0.92458 -0.538375,0.44678 -0.804149,-1.06697 -0.28448,-1.62013 0.356552,-0.37952 0.51136,-2.02797 0.201639,-2.14682 -0.384387,-0.1475 -1.795701,0.2044 -2.143496,0.53445 -0.194442,0.18451 -0.547105,0.34655 -0.839655,0.38579 -0.431774,0.0579 -0.565626,0.013 -0.929614,-0.31227 l -0.425211,-0.37993 0.421613,-0.79104 c 0.359489,-0.67448 0.400712,-0.83693 0.279718,-1.1025 -0.13343,-0.29281 -0.15883,-0.29964 -0.423889,-0.11397 -0.335862,0.23524 -0.876882,0.2576 -1.089449,0.045 -0.187748,-0.18775 -0.197326,-0.6699 -0.01984,-1.00148 0.109987,-0.20551 0.08289,-0.2665 -0.15883,-0.35732 -0.29202,-0.10974 -0.846693,0.0974 -1.429094,0.5338 -0.241088,0.18063 -0.24175,0.20033 -0.02328,0.6848 0.290724,0.64469 0.244157,1.60571 -0.08075,1.66735 -0.128482,0.0244 -0.415025,-0.14708 -0.667094,-0.39914 -0.329485,-0.32949 -0.441854,-0.5507 -0.441854,-0.86972 0,-0.32605 -0.137186,-0.58464 -0.576554,-1.08692 -0.36568,-0.41804 -0.644498,-0.63299 -0.762396,-0.58775 -0.102209,0.0392 -0.41455,0.35855 -0.694082,0.70962 -0.371131,0.46613 -0.508212,0.75642 -0.508212,1.0762 0,0.79944 -1.127019,1.57923 -1.335061,0.92373 -0.165126,-0.52026 0.210662,-1.50001 1.185704,-3.09133 0.655108,-1.06919 0.601557,-1.59379 -0.242676,-2.377151 -0.619627,-0.574977 -0.624469,-0.5856 -0.624469,-1.374479 0,-0.74341 -0.01693,-0.789662 -0.260218,-0.712433 -0.411242,0.130522 -0.629206,-0.154831 -0.629206,-0.823703 0,-0.43869 0.06834,-0.661903 0.254106,-0.830038 0.210185,-0.190214 0.254133,-0.391345 0.254133,-1.163248 v -0.933273 h -0.388462 c -0.629258,0 -1.565751,0.265599 -1.776862,0.503939 -0.405844,0.458226 -1.146096,0.647864 -1.699683,0.435432 -0.304906,-0.117004 -0.243523,-0.340905 0.211984,-0.77316 0.516837,-0.490466 1.008909,-0.739904 2.361644,-1.197168 0.842963,-0.284935 1.156415,-0.462214 1.480873,-0.837567 0.356103,-0.41197 0.396769,-0.527786 0.301625,-0.859473 -0.200554,-0.699333 -0.123534,-1.094795 0.334777,-1.71917 0.244608,-0.333205 0.444739,-0.728609 0.444739,-0.878681 0,-0.361421 0.370813,-0.497644 0.579146,-0.212749 0.135361,0.185127 0.100251,0.350772 -0.219049,1.033055 -0.332078,0.709671 -0.358457,0.843688 -0.208174,1.058228 0.151554,0.216373 0.201084,0.22443 0.415528,0.06761 0.133906,-0.09792 0.434526,-0.178033 0.667994,-0.178033 0.500433,0 0.69805,0.350195 0.529458,0.938115 -0.205238,0.715549 0.202009,0.781285 1.165913,0.188198 0.543401,-0.334351 0.633015,-0.441632 0.557344,-0.667076 -0.189203,-0.563581 -0.215397,-1.505204 -0.04482,-1.610629 0.409787,-0.253268 1.256665,0.662405 1.259284,1.361588 0,0.24938 0.174096,0.548865 0.558007,0.965126 0.306149,0.331949 0.615606,0.603543 0.687625,0.603543 0.07205,0 0.392721,-0.299201 0.712629,-0.664892 0.425503,-0.486408 0.581633,-0.771732 0.581633,-1.06289 0,-0.687046 0.835078,-1.50337 1.215205,-1.1879 0.430319,0.357138 0.06088,1.529972 -0.993166,3.152963 -0.450639,0.69387 -0.520674,0.892868 -0.491861,1.397683 0.02953,0.517877 0.09967,0.645739 0.583407,1.06386 0.523636,0.452607 0.554037,0.517404 0.63873,1.360737 0.08874,0.88374 0.08951,0.885123 0.376264,0.697222 0.257202,-0.168521 0.305911,-0.165931 0.464132,0.02471 0.27895,0.336121 0.224182,1.245499 -0.09594,1.593138 -0.305382,0.331626 -0.517816,1.691556 -0.312737,2.001926 0.172588,0.26115 1.839859,-0.0426 2.168181,-0.395 0.284056,-0.304904 1.08204,-0.504333 1.451874,-0.362847 0.147929,0.0566 0.374809,0.220397 0.504137,0.363987 0.230003,0.25538 0.226484,0.27944 -0.16084,1.09921 -0.31369,0.66389 -0.368141,0.89014 -0.262043,1.08839 0.124566,0.23277 0.159808,0.23689 0.503952,0.0589 0.446352,-0.23082 0.787215,-0.24416 0.992505,-0.0389 0.184203,0.1842 0.199496,0.79289 0.02797,1.11337 -0.10279,0.19208 -0.06747,0.24695 0.202671,0.31475 0.235479,0.0591 0.510725,-0.0223 0.98216,-0.29057 0.537924,-0.30605 0.647303,-0.42628 0.611928,-0.67252 -0.02381,-0.16492 -0.05228,-0.58573 -0.06353,-0.93516 -0.01799,-0.55663 0.0127,-0.64003 0.246671,-0.67345 0.4114,-0.0587 1.067038,0.75683 1.067038,1.32732 0,0.346 0.124089,0.60263 0.520065,1.0756 0.286067,0.34165 0.596106,0.62118 0.689028,0.62118 0.09292,0 0.430662,-0.30635 0.750543,-0.68077 0.413782,-0.48436 0.581607,-0.79217 0.581607,-1.06687 0,-0.28288 0.120042,-0.4915 0.449131,-0.78044 0.498845,-0.43798 0.755676,-0.49498 0.871405,-0.19336 0.231881,0.60427 -0.04958,1.3362 -1.146784,2.98213 -0.457491,0.68627 -0.554937,0.93686 -0.554937,1.42683 0,0.54164 0.05072,0.64111 0.571765,1.12141 0.562716,0.51869 0.571791,0.53989 0.571791,1.33677 0,0.81169 0.07088,0.94213 0.356685,0.65634 0.248576,-0.24858 0.590497,0.19697 0.590497,0.76944 0,0.3435 -0.101468,0.60628 -0.346525,0.89753 -0.240956,0.28634 -0.353642,0.57342 -0.369808,0.9421 -0.0291,0.66291 -0.0042,1.11693 0.06506,1.1862 0.02932,0.0293 0.437806,0.0139 0.907812,-0.0343 0.624893,-0.064 0.950198,-0.16803 1.210442,-0.38701 0.629126,-0.52937 1.778873,-0.56225 1.778873,-0.0509 0,0.56785 -1.595517,1.34658 -3.541765,1.72866 -0.263181,0.0517 -0.581819,0.25853 -0.825183,0.53569 -0.362267,0.4126 -0.392774,0.5151 -0.353959,1.18894 0.04053,0.70387 0.01879,0.76546 -0.477203,1.35372 -0.285829,0.33897 -0.519668,0.74128 -0.519668,0.89402 0,0.32842 -0.471488,0.39434 -0.591079,0.0826 z m 1.35345,-2.21831 c 0,-0.6893 0.04527,-0.66809 -0.62066,-0.29075 -0.02688,0.0152 0.02037,0.19481 0.104961,0.39907 0.132027,0.31871 0.115411,0.44992 -0.117131,0.92527 l -0.270987,0.5539 0.451909,-0.47462 c 0.394864,-0.41471 0.451908,-0.55518 0.451908,-1.11287 z m -4.131151,-0.13147 c -0.121444,-0.26931 -0.299403,-0.51982 -0.395473,-0.55669 -0.09607,-0.0369 -0.174678,-0.18865 -0.174678,-0.3373 0,-0.28331 -0.374623,-1.00832 -0.521017,-1.00832 -0.04678,0 -0.175207,0.13759 -0.285406,0.30576 -0.190977,0.29145 -0.179758,0.33269 0.2395,0.88181 0.241935,0.31683 0.442066,0.65095 0.444765,0.7425 0.0061,0.20387 0.802772,0.73186 0.867066,0.57457 0.0254,-0.062 -0.05331,-0.33302 -0.174757,-0.60233 z m -3.671967,-0.0764 c 0.03971,-0.14883 0.267864,-0.46023 0.506994,-0.692 0.497867,-0.48256 0.507736,-0.52325 0.230082,-0.94702 l -0.204682,-0.3124 -0.241008,0.30638 c -0.30697,0.39024 -1.081114,1.75678 -1.190546,2.10157 -0.08252,0.26002 -0.07845,0.26044 0.371739,0.0385 0.250376,-0.12343 0.48768,-0.34618 0.527421,-0.49501 z m 7.869475,-0.82562 c 0.312923,-0.28843 0.568934,-0.62558 0.568934,-0.74921 0,-0.21689 -0.788749,-1.01347 -1.003512,-1.01347 -0.05789,0 -0.379333,0.293 -0.714322,0.65113 l -0.609044,0.65113 0.400976,0.1686 c 0.220557,0.0927 0.467386,0.31432 0.548534,0.49243 0.08115,0.1781 0.168249,0.32382 0.193516,0.32382 0.0254,0 0.301996,-0.23599 0.614918,-0.52443 z m -2.357225,-0.47433 c 0.446219,0.15556 0.446749,0.15533 0.568298,-0.24009 0.08281,-0.26939 0.05255,-0.28567 -0.524219,-0.2821 -0.532447,0.003 -0.686514,0.0702 -1.183904,0.51445 l -0.571765,0.51066 0.656855,-0.32082 c 0.561207,-0.2741 0.714771,-0.30061 1.054735,-0.1821 z m -1.203352,-0.27186 c 0.545174,-0.47183 0.642144,-0.50824 1.353344,-0.50824 0.630793,0 0.850873,-0.0609 1.245949,-0.34492 0.424074,-0.30483 0.497073,-0.43844 0.628095,-1.14947 0.08154,-0.4425 0.28104,-1.17036 0.443309,-1.61747 0.162295,-0.4471 0.255217,-0.85898 0.206481,-0.91529 -0.04876,-0.0563 -0.158988,-0.43135 -0.245004,-0.83343 -0.103743,-0.48495 -0.239739,-0.77567 -0.40394,-0.86355 -0.274108,-0.14671 -0.496384,-0.0651 -0.496384,0.18228 0,0.29348 -0.594255,0.74365 -0.867278,0.657 -0.267864,-0.085 -0.597456,-0.50845 -0.67482,-0.86694 -0.03945,-0.18275 -0.09028,-0.19126 -0.34798,-0.0582 -0.193834,0.10004 -0.399547,0.4195 -0.575019,0.893 -0.150257,0.40548 -0.338852,0.7778 -0.419073,0.82738 -0.08022,0.0496 -0.186294,0.44747 -0.235691,0.88419 -0.07744,0.68441 -0.147902,0.84502 -0.510355,1.16326 -0.231272,0.20306 -0.504719,0.41685 -0.607669,0.47509 -0.112342,0.0636 -0.201268,0.33851 -0.222461,0.68776 -0.02847,0.46916 0.04302,0.70914 0.368935,1.23886 0.222356,0.36133 0.487071,0.65697 0.588301,0.65697 0.101229,0 0.448283,-0.22871 0.77126,-0.50824 z m -2.440014,-0.32164 0.228309,-0.31367 h -0.517128 -0.517102 l 0.208148,0.31766 c 0.256037,0.39079 0.310727,0.39042 0.597773,-0.004 z m 9.337649,-0.49293 c 0.299482,-0.10661 0.660902,-0.27534 0.803116,-0.37496 0.241538,-0.16919 0.218202,-0.18477 -0.353933,-0.23639 -0.336894,-0.0304 -0.671142,-0.0116 -0.742765,0.0418 -0.07162,0.0534 -0.443283,0.1378 -0.825897,0.18754 -0.735674,0.0956 -0.881168,0.2018 -0.884317,0.64525 -0.0026,0.26962 0.01138,0.27149 0.728663,0.10257 0.401822,-0.0946 0.975651,-0.25926 1.275133,-0.36587 z m -2.515923,-0.23611 c 0.0026,-0.18105 -0.06604,-0.20847 -0.347478,-0.14095 -0.482308,0.1157 -0.489426,0.13601 -0.145441,0.41456 0.321469,0.26031 0.489082,0.16728 0.492919,-0.27361 z m -6.283246,-0.52875 c 0.117211,-0.93806 0.0734,-1.01484 -0.585258,-1.02564 -0.309483,-0.005 -0.648441,-0.0357 -0.753269,-0.068 -0.151765,-0.0468 -0.198464,0.0937 -0.229235,0.68938 -0.05419,1.04925 -0.0217,1.09425 0.787876,1.09425 h 0.693685 z m 5.999295,-0.1977 c 0.101759,-10e-4 0.159094,-0.19579 0.159597,-0.54175 0,-0.29701 0.08192,-0.69549 0.181028,-0.88552 0.142848,-0.2738 0.149992,-0.42569 0.03448,-0.73177 -0.0802,-0.21243 -0.203465,-0.36703 -0.273923,-0.34354 -0.125122,0.0417 -0.582639,1.3732 -0.767424,2.23348 -0.08766,0.408 -0.07636,0.42711 0.207354,0.35116 0.165047,-0.0442 0.371528,-0.0811 0.458893,-0.0821 z M 78.56347,111.6454 c 0.33401,-0.28709 0.415079,-0.465 0.476171,-1.04484 l 0.07361,-0.69884 -0.25318,0.55081 c -0.174122,0.37885 -0.373168,0.59611 -0.637513,0.69589 -0.239342,0.0903 -0.35941,0.21003 -0.318267,0.31725 0.03633,0.0947 0.06607,0.25326 0.06607,0.35237 0,0.25928 0.137028,0.21939 0.593116,-0.17264 z m -2.50952,-0.1279 c 0.137399,-0.26397 0.116682,-0.30212 -0.229605,-0.42284 -0.309959,-0.10805 -0.426429,-0.26655 -0.627195,-0.85341 l -0.246538,-0.72072 0.0604,0.8259 c 0.05218,0.71353 0.112316,0.87468 0.44196,1.18437 0.209867,0.19716 0.396954,0.3401 0.415766,0.31766 0.01879,-0.0224 0.102156,-0.17138 0.185208,-0.33096 z m 0.317792,-0.97781 c 0.398224,-0.73944 1.023805,-0.71334 1.342469,0.056 0.25146,0.6071 0.61169,0.49354 0.940699,-0.29655 0.112686,-0.2706 0.204867,-0.59736 0.204867,-0.72613 0,-0.12878 0.106733,-0.29126 0.237199,-0.36108 0.172747,-0.0924 0.260588,-0.33373 0.323295,-0.88808 0.07929,-0.70089 0.132159,-0.80165 0.667596,-1.27298 0.488342,-0.42985 0.591688,-0.60217 0.645054,-1.07568 0.0548,-0.48626 0,-0.66974 -0.403992,-1.33348 -0.257148,-0.4233 -0.523795,-0.80441 -0.592534,-0.8469 -0.06876,-0.0425 -0.431906,0.18491 -0.806979,0.50534 -0.644922,0.55099 -0.723133,0.58261 -1.441027,0.58261 -0.718979,0 -0.782373,0.0258 -1.199462,0.48744 -0.334592,0.37036 -0.461328,0.64537 -0.527606,1.14494 -0.04797,0.36162 -0.209656,1.04282 -0.359304,1.51378 -0.30054,0.94578 -0.301545,1.07963 -0.01508,1.99985 0.174757,0.56124 0.451326,0.95297 0.672809,0.95297 0.04064,0 0.181028,-0.19893 0.311944,-0.44205 z m 3.505252,-2.13733 c 0.145283,-0.39334 0.292894,-0.56142 0.573908,-0.65354 0.208095,-0.0682 0.397113,-0.13556 0.420053,-0.14965 0.02302,-0.0141 -0.03601,-0.17396 -0.130996,-0.35525 l -0.172693,-0.32961 -0.407353,0.35015 c -0.330835,0.28437 -0.42799,0.48782 -0.517207,1.08305 -0.123137,0.82148 -0.05482,0.83747 0.234288,0.0549 z m 3.811138,0.0284 c 0,-0.54682 -0.05786,-0.70294 -0.379783,-1.02487 -0.402643,-0.40263 -0.564435,-0.39901 -0.672729,0.0151 -0.04882,0.18668 0.02381,0.29822 0.270562,0.41624 0.218996,0.1047 0.402696,0.3501 0.523902,0.69993 0.102685,0.29629 0.20275,0.53871 0.222356,0.53871 0.01958,0 0.03569,-0.29029 0.03569,-0.64508 z m -8.493945,-0.39594 c 0.117819,-0.38701 0.253973,-0.96865 0.302525,-1.29253 0.07824,-0.52176 0.06133,-0.58865 -0.148485,-0.58693 -0.42291,0.004 -0.559779,0.19569 -0.638783,0.89706 -0.0427,0.3791 -0.13597,0.76317 -0.207248,0.85348 -0.08932,0.11314 -0.0839,0.20996 0.01746,0.3113 0.08088,0.0809 0.147082,0.25478 0.147082,0.38639 0,0.46649 0.316018,0.12572 0.527447,-0.56877 z m 7.350389,-1.56375 c 0,-0.446 -0.04289,-0.83627 -0.0953,-0.86728 -0.236406,-0.13985 -1.130221,-0.20346 -1.300904,-0.0926 -0.134117,0.0871 -0.189547,0.35549 -0.190606,0.92255 l -0.0026,0.79968 0.589676,-0.042 c 0.336259,-0.024 0.626745,0.0179 0.675879,0.0974 0.186134,0.3012 0.322712,-0.0448 0.322712,-0.8177 z m -9.303914,-0.75343 c 0.68588,-0.13672 0.729457,-0.16765 0.76634,-0.54387 l 0.0391,-0.39891 -0.610896,0.16813 c -0.754116,0.20754 -1.583611,0.50876 -1.96895,0.71499 -0.28284,0.15137 -0.276913,0.15975 0.215953,0.30443 0.334036,0.0981 0.562107,0.10641 0.668999,0.0245 0.08922,-0.0684 0.489452,-0.18953 0.889449,-0.26926 z m -1.114821,-0.55944 c 0.523954,-0.20756 1.281403,-0.4493 1.683226,-0.53721 0.401822,-0.0879 0.73062,-0.20351 0.73062,-0.25691 0,-0.0534 0.143986,-0.26824 0.319987,-0.47741 0.286941,-0.34101 0.311494,-0.45286 0.237517,-1.08228 -0.07744,-0.65895 -0.05667,-0.73552 0.338852,-1.24948 0.231748,-0.30113 0.480695,-0.62591 0.553217,-0.72174 0.07252,-0.0958 -0.08866,-0.0246 -0.35814,0.15829 -0.438468,0.29754 -2.632022,1.09246 -3.03067,1.09826 -0.08652,0.001 -0.338534,0.22067 -0.56007,0.48758 -0.381635,0.45982 -0.399018,0.52672 -0.331258,1.27417 0.06437,0.70973 0.04067,0.82336 -0.236194,1.13246 -0.169254,0.18897 -0.420423,0.48653 -0.558191,0.66124 -0.250058,0.31717 -0.250058,0.31732 0.004,0.10403 0.139964,-0.1175 0.683154,-0.38345 1.207082,-0.591 z m -0.636879,-1.20719 c 0,-0.4464 -0.04215,-0.59391 -0.157612,-0.5401 -0.08734,0.0407 -0.257122,0.10888 -0.377296,0.15146 -0.199522,0.0707 -0.201877,0.10955 -0.02707,0.44759 0.175445,0.33926 0.16981,0.41905 -0.06739,0.95531 -0.349436,0.78992 -0.330624,0.80597 0.184652,0.15776 0.367745,-0.46261 0.44368,-0.66277 0.444712,-1.17202 z m 3.739065,1.58408 c 0.03741,-0.0605 -0.04847,-0.21551 -0.19087,-0.34437 -0.221774,-0.20072 -0.275696,-0.2077 -0.376238,-0.0487 -0.202009,0.31936 -0.132979,0.50319 0.188913,0.50319 0.170577,0 0.340757,-0.0495 0.378195,-0.11008 z m 1.265793,-0.70544 c 0.490405,-0.59846 0.57023,-0.83629 0.280723,-0.83629 -0.09861,0 -0.331523,-0.18093 -0.517604,-0.40207 l -0.338323,-0.40207 -0.647409,0.64742 -0.647435,0.64742 0.453496,0.45349 c 0.249422,0.24942 0.566684,0.45349 0.705008,0.45349 0.143299,0 0.449474,-0.24157 0.711544,-0.56139 z m 5.59435,0.11668 c -0.114459,-0.17471 -0.252148,-0.31766 -0.305964,-0.31766 -0.05382,0 -0.191505,0.14295 -0.305964,0.31766 l -0.208148,0.31765 h 0.514112 0.514112 z m 1.796653,-1.54539 c 0.51562,-0.92048 0.557848,-1.15731 0.156237,-0.876 -0.155337,0.10879 -0.384043,0.1978 -0.508265,0.1978 -0.141023,0 -0.225848,0.0953 -0.225848,0.25376 0,0.13957 -0.200131,0.47527 -0.444712,0.74601 -0.513053,0.56788 -0.511069,0.55972 -0.237834,0.97675 l 0.206904,0.31576 0.307446,-0.41553 c 0.169095,-0.22854 0.504825,-0.76789 0.746072,-1.19855 z m -20.43168,0.97361 c 0.07816,0 0.182721,-0.12865 0.232383,-0.28589 0.04966,-0.15724 0.29173,-0.53209 0.537925,-0.83301 l 0.447648,-0.54712 -0.280881,-0.27879 -0.280856,-0.27878 -0.249237,0.31766 c -0.338587,0.43153 -1.137206,2.02061 -1.137206,2.2628 0,0.15297 0.06416,0.13538 0.294085,-0.0806 0.16174,-0.15195 0.358007,-0.27627 0.436139,-0.27627 z m 17.391909,-0.70404 c -0.253286,-0.33172 -0.461936,-0.69497 -0.463656,-0.80721 -0.0026,-0.11225 -0.201851,-0.30294 -0.444712,-0.42376 -0.242887,-0.12082 -0.441589,-0.17223 -0.441589,-0.11426 0,0.27825 0.291994,0.89305 0.453601,0.95506 0.09993,0.0384 0.181716,0.18885 0.181716,0.33444 0,0.14559 0.128641,0.48885 0.285883,0.7628 l 0.285882,0.4981 0.301704,-0.30103 0.301678,-0.30102 z m -13.495629,0.29962 c -0.119459,-0.23182 -0.319405,-0.49367 -0.444367,-0.5819 -0.124963,-0.0882 -0.219869,-0.25977 -0.210926,-0.38119 0.009,-0.12142 -0.08821,-0.37983 -0.2159,-0.57425 -0.219922,-0.33489 -0.244581,-0.34221 -0.468974,-0.13913 -0.324935,0.29405 -0.298767,0.4768 0.139832,0.97632 0.207169,0.23596 0.434473,0.58101 0.50509,0.76679 0.07064,0.18578 0.208597,0.33778 0.306599,0.33778 0.098,0 0.256672,0.0947 0.352584,0.21038 0.157004,0.18941 0.178302,0.19025 0.21381,0.008 0.0217,-0.11102 -0.05829,-0.39152 -0.177748,-0.62333 z m 11.461539,0.15029 c 0.641164,-0.59099 0.615791,-0.62784 -0.130916,-0.19023 -0.473155,0.27729 -0.594863,0.29981 -0.950331,0.1759 -0.456617,-0.15918 -0.456326,-0.15931 -0.578061,0.23669 -0.0825,0.26843 -0.05133,0.28589 0.510037,0.28589 0.520938,0 0.668867,-0.0654 1.149271,-0.50825 z m -7.209896,-1.33131 c 0.288449,-0.31292 0.524431,-0.62147 0.524431,-0.68568 0,-0.16001 -0.862701,-0.90543 -1.047883,-0.90543 -0.18669,0 -1.239229,1.02137 -1.239229,1.20252 0,0.0732 0.168831,0.20785 0.375153,0.29918 0.206349,0.0913 0.410316,0.27683 0.453284,0.41221 0.12073,0.38042 0.3633,0.29661 0.934244,-0.3228 z m 4.463362,0.0478 c 0,-0.0545 -0.05718,-0.1345 -0.127079,-0.17769 -0.189601,-0.11719 -0.153565,-0.66023 0.07292,-1.09815 0.292999,-0.56664 0.154252,-0.56178 -0.305806,0.0107 -0.297153,0.36975 -0.402404,0.63012 -0.402404,0.99527 0,0.27199 0.03429,0.52882 0.0762,0.57073 0.09454,0.0945 0.68617,-0.1649 0.68617,-0.30087 z m -7.254796,-0.36829 c 0.155708,0 0.382614,0.0533 0.50427,0.11838 0.178408,0.0955 0.248391,0.0463 0.361791,-0.25412 l 0.140626,-0.3725 -0.592508,0.005 c -0.522023,0.004 -0.668099,0.0736 -1.227825,0.58222 l -0.635318,0.57735 0.582957,-0.3281 c 0.320622,-0.18046 0.710327,-0.32811 0.866007,-0.32811 z M 67.8951,102.31546 c 0.511757,-0.50226 0.594995,-0.53712 1.402503,-0.58742 0.764435,-0.0476 0.902044,-0.0981 1.256586,-0.46101 0.269452,-0.27582 0.426561,-0.58903 0.486066,-0.96909 0.04834,-0.308857 0.203888,-1.003476 0.345652,-1.543596 l 0.25773,-0.982041 -0.268499,-0.883933 c -0.195474,-0.643567 -0.339857,-0.906592 -0.530992,-0.967256 -0.14441,-0.04583 -0.275246,-0.06381 -0.290777,-0.03996 -0.01561,0.02384 -0.09612,0.201448 -0.17915,0.394658 -0.083,0.193212 -0.295248,0.417062 -0.471699,0.497451 -0.276436,0.125952 -0.364516,0.105066 -0.637169,-0.151083 -0.174017,-0.163483 -0.316389,-0.369665 -0.316389,-0.458187 0,-0.08852 -0.05601,-0.19555 -0.12446,-0.237849 -0.263499,-0.162865 -0.587057,0.195241 -0.820208,0.907827 -0.133562,0.408295 -0.309378,0.799532 -0.390658,0.869416 -0.08128,0.06988 -0.185049,0.498718 -0.23061,0.952966 -0.0785,0.782563 -0.112925,0.851598 -0.656141,1.315606 -0.5189,0.443241 -0.573299,0.542841 -0.573299,1.049741 0,0.41757 0.10504,0.72068 0.412962,1.19158 0.227118,0.34735 0.496543,0.63258 0.598725,0.63383 0.102183,0.001 0.43061,-0.23799 0.729827,-0.53166 z m -2.529311,-0.12678 c 0.247836,-0.24781 0.17706,-0.35578 -0.233177,-0.35578 -0.346287,0 -0.371766,0.026 -0.249634,0.25413 0.156527,0.29247 0.268446,0.31603 0.482811,0.10165 z m 8.983292,-0.83495 c 0.489188,-0.17376 1.002216,-0.39434 1.140063,-0.49016 0.242015,-0.16824 0.239845,-0.17429 -0.06353,-0.17617 -0.172799,-10e-4 -0.395261,-0.0533 -0.494348,-0.116 -0.114511,-0.0725 -0.276595,-0.0522 -0.444711,0.0556 -0.145495,0.0933 -0.550439,0.21061 -0.899848,0.2607 -0.681408,0.0977 -0.820896,0.20972 -0.823965,0.66176 -0.0026,0.33692 0.134355,0.32006 1.586335,-0.1957 z m -8.475027,0.0726 c 0.165285,-0.16528 0.207354,-1.3558 0.05522,-1.562857 -0.05133,-0.06988 -0.422116,-0.127061 -0.823965,-0.127061 h -0.730647 l 2.7e-5,0.836488 c 2.6e-5,0.46007 0.03815,0.87461 0.08475,0.9212 0.145573,0.14557 1.254389,0.0924 1.414621,-0.0678 z m 6.378495,-0.16517 c 0,-0.3214 -0.167296,-0.39176 -0.566869,-0.23843 -0.189072,0.0726 -0.188278,0.0993 0.0093,0.31765 0.303292,0.33514 0.557557,0.29901 0.557557,-0.0792 z m -0.204178,-1.02689 c 0.04241,-0.11055 0.07713,-0.42878 0.07713,-0.707196 0,-0.278416 0.05744,-0.61354 0.127635,-0.744718 0.145124,-0.271155 -0.08382,-0.924123 -0.298874,-0.852437 -0.128217,0.04274 -0.475721,1.142831 -0.640874,2.028852 -0.08625,0.462649 -0.078,0.476479 0.284507,0.476479 0.223229,0 0.404363,-0.0808 0.45048,-0.20098 z M 64.17654,99.721418 c 0.0459,-0.182957 0.06641,-0.342913 0.04554,-0.355457 -0.0209,-0.01254 -0.189283,-0.08765 -0.37428,-0.166907 -0.243178,-0.104196 -0.395552,-0.322437 -0.550227,-0.788101 -0.117634,-0.354201 -0.228283,-0.644001 -0.245904,-0.644001 -0.01746,0 -0.0066,0.328774 0.02434,0.730607 0.04622,0.599763 0.126524,0.804558 0.448336,1.143555 0.474107,0.499436 0.54483,0.508146 0.652225,0.0803 z m 2.574528,-0.07346 c 0.369332,-0.357947 0.41783,-0.482272 0.408993,-1.048264 l -0.01005,-0.642149 -0.195368,0.552686 c -0.147982,0.418663 -0.297022,0.595164 -0.614627,0.727858 -0.388885,0.162496 -0.408517,0.198287 -0.271066,0.494586 0.08149,0.175675 0.174043,0.319855 0.205661,0.320405 0.03162,5.3e-4 0.246036,-0.181764 0.476461,-0.405122 z m -2.298753,-0.939701 c 0.119089,-0.251013 0.29345,-0.485891 0.38743,-0.521951 0.357611,-0.137232 0.778298,0.09239 0.991182,0.541017 0.201004,0.423572 0.234288,0.442629 0.483738,0.277 0.281225,-0.18674 0.57523,-0.848421 0.591634,-1.331584 0.0053,-0.156647 0.124011,-0.356227 0.26379,-0.443516 0.205555,-0.12837 0.254106,-0.296312 0.254106,-0.878734 0,-0.703173 0.01482,-0.733409 0.635317,-1.29123 0.582957,-0.524134 0.635318,-0.618136 0.635318,-1.140854 0,-0.454962 -0.104458,-0.726065 -0.518769,-1.346505 -0.285326,-0.42727 -0.583538,-0.776851 -0.662702,-0.776851 -0.07919,0 -0.404706,0.256839 -0.723423,0.570754 -0.532607,0.524605 -0.645981,0.577562 -1.402054,0.654966 -0.737949,0.07555 -0.863573,0.131204 -1.221131,0.541038 -0.32221,0.369298 -0.414179,0.609 -0.480034,1.251035 -0.04479,0.436816 -0.191399,1.147434 -0.325755,1.57915 -0.242199,0.778192 -0.24212,0.791572 0.01005,1.556437 0.207804,0.630574 0.603303,1.216211 0.82132,1.216211 0.02408,0 0.14097,-0.205373 0.260085,-0.456383 z M 67.86462,96.50931 c 0.157136,-0.473135 0.29636,-0.659476 0.580681,-0.777242 0.318162,-0.131797 0.362003,-0.204812 0.293873,-0.489453 -0.04405,-0.184002 -0.09112,-0.348845 -0.10459,-0.366318 -0.01349,-0.01746 -0.229949,0.154061 -0.481092,0.381185 -0.404283,0.365625 -0.462518,0.496692 -0.508106,1.143561 -0.02831,0.401833 -0.03709,0.730607 -0.01958,0.730607 0.01773,0 0.125042,-0.280053 0.238734,-0.62234 z m -4.699317,-0.171796 c 0.108982,-0.366893 0.234473,-0.976265 0.278897,-1.354161 0.07977,-0.678612 0.07702,-0.686076 -0.224949,-0.60528 -0.168169,0.04499 -0.348615,0.08259 -0.401029,0.08354 -0.05241,0.0011 -0.0953,0.291383 -0.0953,0.645396 0,0.354015 -0.05511,0.746614 -0.122449,0.872442 -0.126206,0.235845 0.08356,1.025136 0.272442,1.025136 0.05186,0 0.183435,-0.300185 0.292391,-0.667075 z m 8.539321,-0.06185 c -0.06456,-0.625541 -0.134382,-0.777195 -0.492284,-1.0693 l -0.417036,-0.340378 -0.141182,0.338693 c -0.129857,0.311531 -0.109617,0.354047 0.252148,0.530135 0.276781,0.13472 0.448628,0.351184 0.579993,0.730607 0.102685,0.29654 0.210741,0.539165 0.240136,0.539165 0.0294,0 0.01958,-0.328014 -0.0217,-0.728922 z m -1.722252,-1.125508 0.491331,0.07856 V 94.33774 93.446806 h -0.748797 c -0.565574,0 -0.767636,0.04917 -0.825897,0.200985 -0.09795,0.255275 -0.09673,1.04702 0.0026,1.416018 0.06416,0.239329 0.115384,0.261686 0.332845,0.145296 0.142452,-0.07624 0.476039,-0.102536 0.748348,-0.05899 z m -9.6851,-0.863589 c 0.0807,-0.09723 0.409496,-0.216186 0.730647,-0.264346 0.849392,-0.127375 0.93263,-0.181165 0.93263,-0.602739 0,-0.352367 -0.02659,-0.374766 -0.349435,-0.294584 -0.533003,0.132379 -2.22258,0.824769 -2.430674,0.996103 -0.151421,0.124669 -0.09554,0.165542 0.31316,0.229018 0.273606,0.0425 0.533374,0.08538 0.577215,0.0953 0.04387,0.0099 0.145759,-0.06152 0.226457,-0.15875 z M 63.229253,93.7379 c 0.09411,-0.08298 -0.548693,-0.53403 -0.661618,-0.464246 -0.05437,0.0336 -0.09885,0.201753 -0.09885,0.373668 0,0.276606 0.04022,0.302933 0.349435,0.228751 0.192167,-0.0461 0.377137,-0.10828 0.411031,-0.138173 z m 1.129294,-0.732967 c 0.559567,-0.607081 0.646245,-0.828741 0.324062,-0.828741 -0.110199,0 -0.375444,-0.175065 -0.589413,-0.389033 l -0.389016,-0.389033 -0.41021,0.397581 c -0.225611,0.218673 -0.487575,0.542166 -0.582163,0.718879 -0.161184,0.301204 -0.144357,0.344156 0.269002,0.686874 0.242517,0.201067 0.533717,0.367115 0.647118,0.368996 0.1134,0.0019 0.442171,-0.252606 0.73062,-0.565523 z m 5.729923,0.09246 c -0.0053,-0.122526 -0.320861,-0.540014 -0.408305,-0.540014 -0.03667,0 -0.160338,0.142944 -0.274823,0.317656 l -0.208121,0.317653 h 0.447648 c 0.246195,0 0.445823,-0.04288 0.443601,-0.0953 z m -3.417147,-0.900998 c 0.6341,-0.609303 0.58666,-0.667342 -0.160099,-0.195929 -0.453338,0.286187 -0.584756,0.314722 -0.942949,0.204785 -0.394123,-0.120962 -0.423307,-0.107413 -0.549751,0.255326 l -0.133535,0.383066 0.618172,-0.0594 c 0.511519,-0.04915 0.713105,-0.1506 1.168162,-0.587846 z m 2.015146,-0.554161 c -0.274929,-0.34783 -0.499904,-0.71305 -0.499904,-0.811599 0,-0.09855 -0.06779,-0.179184 -0.150627,-0.179184 -0.08284,0 -0.282972,-0.124322 -0.444712,-0.276273 -0.289957,-0.272388 -0.294084,-0.272637 -0.294084,-0.01773 0,0.142198 0.142954,0.469181 0.317659,0.726631 0.174704,0.25745 0.317658,0.538046 0.317658,0.623546 0,0.0855 0.148326,0.37375 0.329618,0.640559 l 0.329645,0.485103 0.297338,-0.279318 0.297313,-0.279318 z m 2.440702,0.629031 c 0.425079,-0.68325 0.998326,-1.826461 0.998326,-1.990926 0,-0.186984 -0.868442,0.400891 -0.953135,0.645212 -0.04016,0.115811 -0.26588,0.454324 -0.50165,0.752248 -0.403649,0.510095 -0.417328,0.558937 -0.234686,0.837692 0.10668,0.162806 0.230267,0.29591 0.274638,0.295786 0.04437,-1.25e-4 0.231801,-0.243131 0.416507,-0.540012 z m -7.265194,-1.227257 c -0.0026,-0.0412 -0.08165,-0.214188 -0.175948,-0.384426 -0.148563,-0.268222 -0.139488,-0.384069 0.06803,-0.868201 0.330967,-0.772118 0.305064,-0.787112 -0.205238,-0.118788 -0.428545,0.561261 -0.550174,1.064408 -0.370496,1.532655 0.05977,0.155752 0.133959,0.166171 0.381185,0.05353 0.168831,-0.07693 0.304933,-0.173572 0.302472,-0.214768 z m -9.847289,0.08627 c -0.03699,-0.09639 -0.05112,-0.886817 -0.03138,-1.756492 0.03368,-1.484558 0.05141,-1.581226 0.289983,-1.581226 0.211349,0 0.264821,0.105886 0.317659,0.628914 l 0.06353,0.628912 0.551842,-0.660678 c 0.310964,-0.372284 0.657622,-0.660677 0.794147,-0.660677 0.337555,0 0.305196,0.132693 -0.172668,0.707734 -0.835025,1.004882 -0.816927,0.867521 -0.21881,1.659726 0.297339,0.393813 0.547264,0.802282 0.555413,0.907708 0.03442,0.44527 -0.330041,0.247751 -0.899953,-0.487722 l -0.609971,-0.787178 -0.06353,0.74585 c -0.04935,0.579165 -0.113321,0.755298 -0.286279,0.788122 -0.122503,0.02326 -0.252995,-0.0366 -0.289983,-0.132993 z" />
      <path
         style="fill:#ff0000;stroke:#000000;stroke-width:0.0115809"
         d="m 284.55494,392.54809 c -0.42837,0.95828 -3.03492,1.87478 -1.85492,2.87285 1.12802,1.01901 2.22997,2.46862 3.7902,2.743 1.95821,-0.78299 3.1378,-2.77334 4.19357,-4.49485 0.0207,-0.64716 -1.06818,-0.51988 -1.33769,-1.04184 -0.90104,-0.71248 -1.62652,-1.64896 -2.46095,-2.40937 -0.77673,0.77673 -1.55347,1.55347 -2.33021,2.33021 z"
         id="path2304"
         transform="scale(0.26458333)" class="OC" />
      <path
         style="fill:#ff0000;stroke:#000000;stroke-width:0.00222316"
         d="m 279.81427,396.01711 c -1.80555,0.46395 -3.59784,0.98769 -5.36857,1.57185 -1.58921,0.55963 -3.19589,1.11405 -4.67425,1.93211 -0.12411,0.10413 -0.41065,0.19774 -0.3674,0.39769 0.37987,0.2824 0.87609,0.36361 1.31792,0.51523 0.80349,0.19653 1.66336,0.50072 2.48942,0.25697 0.62431,-0.31377 1.27946,-0.56017 1.95969,-0.73104 1.2129,-0.35676 2.48838,-0.4824 3.67928,-0.91561 0.44778,-0.14463 0.76779,-0.56357 0.78632,-1.03443 0.0848,-0.65596 0.19106,-1.31441 0.21572,-1.9748 -0.007,-0.0166 -0.0235,-0.02 -0.0381,-0.018 z"
         id="path2352"
         transform="scale(0.26458333)" class="OC" />
      <path
         style="fill:#ff0000;stroke:#000000;stroke-width:0.00222316"
         d="m 282.67199,396.97611 c -0.32342,0.0482 -0.47198,0.41842 -0.6329,0.66147 -0.21803,0.40296 -0.47454,0.99589 -0.0779,1.37724 0.47676,0.39304 1.15916,0.29786 1.72052,0.18254 0.31625,-0.0584 0.85245,-0.28382 0.62726,-0.69335 -0.30975,-0.60125 -0.8114,-1.11078 -1.38904,-1.45886 -0.077,-0.0379 -0.16049,-0.072 -0.24794,-0.069 z"
         id="path2353"
         transform="scale(0.26458333)" class="OC" />
      <path
         style="fill:#ff0000;stroke:#000000;stroke-width:0.00222316"
         d="m 284.72938,401.21097 c -0.69448,-0.003 -1.45614,0.27282 -1.77612,0.93479 -0.54184,1.09882 -0.5243,2.36061 -0.75271,3.54101 -0.14435,0.83915 -0.33062,1.69073 -0.77839,2.42495 -0.19644,0.35372 0.0316,0.74407 0.30395,0.97811 0.42418,0.54922 0.43007,1.26251 0.54511,1.91652 0.0146,0.21559 0.26889,0.35242 0.43881,0.19687 0.5555,-0.46317 0.82213,-1.17403 1.11039,-1.81734 0.66898,-1.74405 1.06711,-3.5794 1.42512,-5.40848 0.11728,-0.78639 0.31902,-1.58702 0.21783,-2.38536 -0.0504,-0.36036 -0.44282,-0.39512 -0.73399,-0.38107 z"
         id="path2354"
         transform="scale(0.26458333)" class="OC" />
      <path
         style="fill:#ff0000;stroke:#000000;stroke-width:0.00222316"
         d="m 287.73811,382.27917 c -0.30998,0.0886 -0.49774,0.40435 -0.73337,0.60806 -0.89653,0.98145 -1.80888,2.03457 -2.20676,3.32859 -0.29638,1.07378 -0.2193,2.21739 -0.0183,3.30085 0.0171,0.19553 0.1495,0.39047 0.36767,0.36051 0.76714,-0.0511 1.50373,-0.39539 2.10835,-0.85922 0.2334,-0.14574 0.31209,-0.49085 0.0878,-0.68162 -0.30418,-0.33581 -0.74697,-0.64307 -0.75162,-1.1425 -0.11212,-1.10792 0.15819,-2.21688 0.63981,-3.21345 0.21193,-0.52497 0.55342,-1.02283 0.62505,-1.59284 -0.002,-0.0645 -0.0522,-0.1156 -0.11863,-0.10838 z"
         id="path2355"
         transform="scale(0.26458333)" class="OC" />
      <path
         style="fill:#ff0000;stroke:#000000;stroke-width:0.00222316"
         d="m 299.50533,391.69696 c -0.68153,0.22575 -1.28399,0.64585 -1.91619,0.98096 -0.77401,0.40783 -1.53397,0.94967 -2.42149,1.05437 -0.96692,0.0423 -1.82609,-0.55321 -2.778,-0.62275 -0.41731,-0.002 -0.53198,0.49018 -0.65068,0.80107 -0.0996,0.38837 -0.31298,0.78804 -0.2418,1.19656 0.15259,0.31897 0.59176,0.28426 0.88985,0.31041 0.8713,-0.002 1.75012,0.0414 2.61632,-0.0653 1.33149,-0.28359 2.29941,-1.32696 3.27077,-2.20166 0.43596,-0.45042 0.96619,-0.83565 1.29419,-1.37633 0.0172,-0.0437 -0.0169,-0.0842 -0.063,-0.0773 z"
         id="path2356"
         transform="scale(0.26458333)" class="OC" />
      <path
         style="fill:#0000ff;stroke:#000000;stroke-width:0.00880666"
         d="m 268.50573,382.61044 c -1.38315,0.74374 -2.38961,2.09378 -3.52201,3.17256 -0.19504,0.41484 -1.06803,0.81515 -0.8827,1.32434 1.1295,1.03718 2.73733,1.62152 3.35341,3.1415 0.66752,0.67498 1.52618,-0.34823 2.04927,-0.74685 1.07099,-1.12978 2.36629,-2.22559 2.99599,-3.65958 -0.93604,-1.33137 -2.26282,-2.46625 -3.71944,-3.20067 -0.0887,-0.0257 -0.18205,-0.0406 -0.27452,-0.0313 z"
         id="path2682"
         transform="scale(0.26458333)" class="IC" />
      <path
         style="fill:#0000ff;stroke:#000000;stroke-width:0.00880666"
         d="m 269.55737,390.96679 c -0.62648,0.22941 -1.58962,0.373 -1.85869,1.05404 0.35218,1.13239 1.2487,2.27207 0.64708,3.49584 -0.29475,1.03361 -0.97083,2.04507 -1.13798,3.06685 1.12689,-1.00571 2.17105,-2.30412 2.64819,-3.77552 0.28515,-1.20977 0.44809,-2.61795 -0.0375,-3.77929 -0.0717,-0.0606 -0.17088,-0.0722 -0.2611,-0.0619 z"
         id="path2683"
         transform="scale(0.26458333)" class="IC" />
      <path
         style="fill:#0000ff;stroke:#000000;stroke-width:0.00880666"
         d="m 262.48314,385.36699 c -1.75033,-0.009 -3.54752,0.41735 -4.81751,1.69976 -0.59179,0.59098 -1.54139,1.17267 -1.87451,1.86109 1.79339,-0.70276 3.67718,-2.29145 5.69805,-1.40958 0.53028,0.21247 1.34939,0.36135 1.54301,-0.3717 0.16036,-0.5234 0.73557,-1.1116 0.59927,-1.65607 -0.34474,-0.18078 -0.77298,-0.11505 -1.14831,-0.1235 z"
         id="path2684"
         transform="scale(0.26458333)" class="IC" />
      <path
         style="fill:#0000ff;stroke:#000000;stroke-width:0.00880666"
         d="m 272.07036,370.2763 c -0.71781,0.37997 -0.69886,1.47846 -1.05603,2.13439 -0.61851,2.1761 -1.44234,4.36791 -1.53918,6.64268 0.12044,0.83108 1.26945,0.45537 1.80708,0.36775 0.65004,-0.1082 1.19272,-0.58795 1.08088,-1.3038 0.15584,-1.8795 0.34379,-3.76251 0.82184,-5.58741 -0.0647,-0.71886 -0.26027,-2.08382 -1.11459,-2.25361 z"
         id="path2685"
         transform="scale(0.26458333)" class="IC" />
      <path
         style="fill:#0000ff;stroke:#000000;stroke-width:0.00880666"
         d="m 271.93241,381.6792 c -0.42388,0.11636 -1.31091,0.10249 -1.40081,0.6292 0.48942,0.59318 1.16639,1.64947 2.062,1.40149 0.74879,-0.5516 0.48772,-2.27492 -0.66119,-2.03069 z"
         id="path2686"
         transform="scale(0.26458333)" class="IC" />
      <path
         style="fill:#0000ff;stroke:#000000;stroke-width:0.00880666"
         d="m 282.64833,380.08334 c -1.50363,0.32355 -2.89598,1.07544 -4.44803,1.26355 -1.07572,0.29939 -2.91195,0.31608 -3.05208,1.77681 -0.0845,0.50874 -0.22455,1.55826 0.60787,1.40184 2.86548,-0.44307 5.55289,-1.6748 8.23484,-2.73215 0.67164,-0.31015 1.43244,-0.65018 1.96437,-1.09943 -1.09481,-0.0401 -2.1517,-0.321 -3.18622,-0.612 z"
         id="path2687"
         transform="scale(0.26458333)" class="IC" />
      <path
         style="fill:#ffff00;stroke:#000000;stroke-width:0.00880666"
         d="m 313.01135,428.24819 c -1.48137,0.78767 -2.46157,2.30645 -3.68057,3.43494 -0.3097,0.44707 -0.96544,0.84432 -1.09704,1.34577 1.48255,0.58054 2.98113,1.41693 3.65177,2.9474 0.24674,1.2321 0.99213,0.22207 1.52558,-0.20151 1.12159,-1.13598 2.41479,-2.21186 3.22234,-3.5925 -0.0265,-1.35887 -1.44,-2.14162 -2.24054,-3.07235 -0.41162,-0.32369 -0.8228,-0.82188 -1.38154,-0.86175 z"
         id="path2688"
         transform="scale(0.26458333)" class="T" />
      <path
         style="fill:#ffff00;stroke:#000000;stroke-width:0.00414455"
         d="m 317.10205,415.7985 c -0.49197,0.30623 -0.57337,0.99561 -0.83053,1.47925 -0.94605,2.56853 -1.80202,5.19051 -2.28063,7.89019 -0.12819,0.3685 0.29309,0.61222 0.59628,0.43337 0.73555,-0.18535 1.52446,-0.22077 2.23108,-0.4936 0.48406,-0.52879 0.34024,-1.35022 0.44096,-2.0088 0.0444,-1.3428 0.37047,-2.65381 0.91719,-3.87646 0.37604,-1.126 -0.0338,-2.41743 -0.80592,-3.27597 -0.0813,-0.0555 -0.16083,-0.15182 -0.26843,-0.14798 z"
         id="path2689"
         transform="scale(0.26458333)" class="T" />
      <path
         style="fill:#ffff00;stroke:#000000;stroke-width:0.00414455"
         d="m 317.13492,427.36034 c -0.72044,0.10818 -1.52532,0.17907 -2.12975,0.61521 -0.14978,0.26136 0.31269,0.46161 0.43182,0.64281 0.47528,0.35018 0.94375,0.90365 1.56825,0.92774 0.68121,-0.14412 0.67754,-0.99951 0.71315,-1.54773 0.0284,-0.39692 -0.11824,-0.73209 -0.58347,-0.63803 z"
         id="path2690"
         transform="scale(0.26458333)" class="T" />
      <path
         style="fill:#ffff00;stroke:#000000;stroke-width:0.00414455"
         d="m 327.44157,426.53467 c -1.09802,-0.0654 -2.06361,0.56614 -3.13889,0.67391 -1.31516,0.28596 -2.73602,0.30738 -3.95169,0.93647 -0.71378,0.48178 -0.68793,1.47748 -0.6301,2.24146 0.14989,0.41507 0.7486,0.22063 1.07256,0.18909 2.42585,-0.50637 4.8443,-1.12072 7.15811,-2.01605 1.00943,-0.46151 2.09677,-0.85406 2.91882,-1.62662 -0.76762,-0.37527 -1.75151,-0.31416 -2.61559,-0.38811 -0.27094,-0.009 -0.54212,-0.0135 -0.81322,-0.0102 z"
         id="path2691"
         transform="scale(0.26458333)" class="T" />
      <path
         style="fill:#ffff00;stroke:#000000;stroke-width:0.00414455"
         d="m 314.01485,436.6056 c -0.6743,0.20414 -1.31399,0.57135 -1.87703,0.99178 -0.21919,0.348 0.13418,0.76951 0.18683,1.12922 0.36726,0.87068 0.58507,1.87952 0.15262,2.76899 -0.33202,0.88694 -0.8499,1.7019 -1.15929,2.59254 0.26464,-0.0188 0.46365,-0.40752 0.68628,-0.56406 0.81613,-0.91873 1.90142,-1.75387 2.20114,-3.00203 0.15051,-1.21194 0.12768,-2.44967 0.0478,-3.66566 -0.0173,-0.12239 -0.0892,-0.27526 -0.23831,-0.25078 z"
         id="path2692"
         transform="scale(0.26458333)" class="T" />
      <path
         style="fill:#ffff00;stroke:#000000;stroke-width:0.00414455"
         d="m 305.89299,431.0485 c -1.11788,-0.0548 -2.28798,0.14003 -3.17813,0.86391 -1.08915,0.814 -2.10072,1.74053 -3.08985,2.6643 0.21082,0.0858 0.50697,-0.22663 0.73096,-0.26599 1.33112,-0.56741 2.59684,-1.44744 4.07024,-1.58028 0.95786,-0.0587 1.81067,0.60772 2.76017,0.52924 0.52785,-0.23908 0.5298,-0.95744 0.72837,-1.42841 0.1533,-0.30431 0.0273,-0.73527 -0.36281,-0.73112 -0.54874,-0.0784 -1.10655,-0.0418 -1.65895,-0.0516 z"
         id="path2693"
         transform="scale(0.26458333)" class="T" />
      <path
         style="fill:#00ff00;stroke:#000000;stroke-width:0.00669238"
         d="m 307.96153,398.64325 c -0.68804,-0.0632 -1.61487,0.11402 -1.68486,0.95654 -0.29393,1.85037 -0.2806,3.77064 -0.32076,5.62029 1.51435,0.0373 3.13791,-0.40838 4.59552,0.14352 0.27462,0.17431 0.71061,0.72667 0.96987,0.22979 0.50568,-1.61155 0.3323,-3.36038 0.33383,-5.03026 -0.0289,-0.62012 -0.0521,-1.56631 -0.88121,-1.61186 -0.98185,-0.24438 -2.003,-0.3148 -3.01239,-0.30802 z"
         id="path2694"
         transform="scale(0.26458333)" class="IR" />
      <path
         style="fill:#00ff00;stroke:#000000;stroke-width:0.00669238"
         d="m 309.03597,395.56319 c -0.75722,0.37006 -1.08282,1.30157 -1.59258,1.93451 -0.31067,0.42652 0.62831,0.25763 0.79734,0.3158 0.90043,-0.0117 1.86706,0.0606 2.72479,-0.0337 -0.61535,-0.70244 -0.95731,-1.76549 -1.81766,-2.21293 -0.0367,-0.007 -0.0747,-0.009 -0.11189,-0.004 z"
         id="path2695"
         transform="scale(0.26458333)" class="IR" />
      <path
         style="fill:#00ff00;stroke:#000000;stroke-width:0.00669238"
         d="m 300.58737,386.67723 c -0.27754,0.27854 0.13212,0.83766 0.16914,1.1811 0.32408,1.11036 0.96891,2.09415 1.84249,2.84164 0.39823,0.79854 0.38039,1.76613 0.82419,2.56734 0.4641,1.00485 0.9514,2.10782 1.63918,2.94028 0.75706,-0.65787 1.47149,-1.39666 2.14522,-2.12169 -1.33619,-1.8069 -2.8199,-3.56399 -3.65989,-5.66683 -0.65054,-0.96261 -1.87717,-1.47091 -2.96033,-1.74184 z"
         id="path2696"
         transform="scale(0.26458333)" class="IR" />
      <path
         style="fill:#00ff00;stroke:#000000;stroke-width:0.00669238"
         d="m 318.4317,387.1734 c -0.98402,0.39934 -1.88735,1.0631 -2.96582,1.16986 -0.78802,0.35579 -0.49522,1.42583 -1.02477,2.00693 -0.73379,1.40673 -2.14807,2.3633 -2.77995,3.81596 0.0185,0.89799 0.78194,1.59407 1.19652,2.34521 0.24537,0.58567 0.5499,-0.22302 0.74688,-0.40206 1.90206,-2.70422 3.71888,-5.51961 4.96256,-8.59265 0.0213,-0.11101 0.0605,-0.38374 -0.13542,-0.34325 z"
         id="path2697"
         transform="scale(0.26458333)" class="IR" />
      <path
         style="fill:#00ff00;stroke:#000000;stroke-width:0.00669238"
         d="m 313.08983,404.87788 c -0.62312,0.22804 -0.68279,1.12775 -0.71159,1.69871 0.21094,0.80872 1.26243,0.96293 1.76537,1.56461 1.09562,1.03094 1.31498,2.68186 1.95334,3.91269 0.24293,-1.62736 0.37803,-3.43263 -0.37514,-4.94897 -0.64285,-0.89927 -1.45031,-1.84269 -2.51304,-2.226 -0.0394,-0.005 -0.0794,-0.005 -0.11894,-10e-4 z"
         id="path2698"
         transform="scale(0.26458333)" class="IR" />
      <path
         style="fill:#00ff00;stroke:#000000;stroke-width:0.00669238"
         d="m 303.79997,404.749 c -1.17081,0.94142 -2.33133,2.08963 -2.52794,3.65859 -0.20245,1.08179 -0.47829,2.22363 -0.34978,3.31586 0.91806,-1.42183 1.12627,-3.60296 2.85524,-4.40338 0.5558,-0.31919 1.34028,-0.3326 1.78419,-0.79864 -0.21956,-0.82761 -0.68166,-1.6168 -1.08646,-2.33789 -0.22508,0.18849 -0.45017,0.37697 -0.67525,0.56546 z"
         id="path2699"
         transform="scale(0.26458333)" class="IR" />
      <path
         style="fill:#ff6600;stroke:#000000;stroke-width:0.00669238"
         d="m 288.76905,421.89717 c -0.65966,0.23936 -0.45575,1.20655 -0.59631,1.75231 -0.0159,1.38504 -0.43223,2.90759 0.1762,4.21698 0.71761,0.88849 2.06772,0.55572 3.06238,0.70362 0.73836,0.01 1.49963,0.0561 2.22303,0.0129 0.1522,-1.8573 0.61471,-3.73948 0.37802,-5.60329 -0.49197,-1.05089 -1.8965,-0.74551 -2.83088,-0.89061 -0.80813,-0.0278 -1.61273,-0.10839 -2.41244,-0.19194 z"
         id="path2700"
         transform="scale(0.26458333)" class="OR" />
      <path
         style="fill:#ff6600;stroke:#000000;stroke-width:0.00669238"
         d="m 283.34221,414.46105 c 0.2557,1.9679 0.0602,4.09011 0.94163,5.92014 0.58406,0.87085 1.39834,1.62211 2.2762,2.18051 0.57514,-0.0665 0.64516,-0.90277 0.9419,-1.29926 0.34712,-0.49437 -0.007,-1.06577 -0.54813,-1.18437 -1.19307,-0.37267 -2.16532,-1.31407 -2.4559,-2.54755 -0.41487,-0.99647 -0.70691,-2.16767 -1.1557,-3.06947 z"
         id="path2701"
         transform="scale(0.26458333)" class="OR" />
      <path
         style="fill:#ff6600;stroke:#000000;stroke-width:0.00669238"
         d="m 298.85911,416.03873 c -0.90263,1.43677 -1.42664,3.3577 -3.15665,4.05635 -0.54752,0.2761 -1.468,0.71165 -1.14006,1.48551 0.26067,0.4569 -0.0762,1.2603 0.42899,1.55755 1.06319,-0.2077 1.82162,-1.16163 2.55173,-1.89975 1.12701,-1.11952 0.99108,-2.82154 1.28014,-4.26564 -0.006,-0.28093 0.16257,-0.70827 0.0358,-0.93402 z"
         id="path2702"
         transform="scale(0.26458333)" class="OR" />
      <path
         style="fill:#ff6600;stroke:#000000;stroke-width:0.00669238"
         d="m 294.64631,431.09893 c -0.71062,0.45212 -1.28303,1.25582 -1.48016,2.07699 0.44907,1.47684 1.70095,2.55091 2.43515,3.88804 0.53228,0.6675 0.55179,1.61131 1.31362,2.11288 0.71674,0.55074 1.51615,1.33429 2.47226,1.30606 0.14686,-0.42712 -0.22495,-0.95919 -0.31187,-1.4007 -0.45463,-1.29978 -1.2535,-2.43144 -2.19699,-3.41389 -0.45547,-1.05285 -0.52716,-2.27809 -1.15177,-3.27999 -0.29485,-0.42523 -0.54261,-1.13873 -1.08024,-1.28939 z"
         id="path2703"
         transform="scale(0.26458333)" class="OR" />
      <path
         style="fill:#ff6600;stroke:#000000;stroke-width:0.00669238"
         d="m 286.0568,431.68817 c -1.76166,2.55603 -3.38238,5.24663 -4.57565,8.11712 -0.18831,0.26224 0.0219,0.58738 0.31841,0.39187 1.35421,-0.54235 2.74854,-1.36285 3.29234,-2.79511 0.84318,-1.49849 2.30079,-2.5305 3.19744,-3.97909 0.025,-1.08067 -0.92033,-1.908 -1.36776,-2.82491 -0.31889,0.28414 -0.57444,0.74429 -0.86478,1.09012 z"
         id="path2704"
         transform="scale(0.26458333)" class="OR" />
      <path
         style="fill:#ff6600;stroke:#000000;stroke-width:0.00669238"
         d="m 290.8476,429.62425 c -0.53175,0.0804 -1.23861,-0.14264 -1.69087,0.16078 0.48635,0.67867 0.83168,1.65101 1.63598,2.00536 0.70306,-0.3902 1.16795,-1.17483 1.65218,-1.81139 0.18433,-0.49619 -0.70045,-0.30987 -0.93798,-0.35605 -0.21977,4.3e-4 -0.43954,8.7e-4 -0.65931,10e-4 z"
         id="path2705"
         transform="scale(0.26458333)" class="OR" />
      <path
         style="fill:#808080;stroke:#000000;stroke-width:0.00669238"
         d="m 243.30845,377.01981 c 0.0643,2.16235 -0.15435,4.39657 0.38795,6.50834 0.73032,0.57037 1.79901,0.27191 2.65944,0.31658 0.8629,-0.14659 1.9483,-0.013 2.62833,-0.65643 0.65924,-1.29396 0.39587,-2.83947 0.44912,-4.2426 0.0448,-0.71009 -0.13572,-1.76094 -1.05196,-1.74812 -1.68145,-0.15841 -3.40342,-0.18358 -5.07288,-0.17777 z"
         id="path2706"
         transform="scale(0.26458333)" class="OF" />
      <path
         style="fill:#808080;stroke:#000000;stroke-width:0.00669238"
         d="m 253.30389,371.75218 c -0.46007,1.31865 -1.04968,2.82317 -2.49261,3.31869 -0.50011,0.28482 -1.54282,0.50946 -1.27107,1.30297 0.22782,0.5653 0.43152,1.2832 0.92726,1.65244 0.85334,-0.33152 1.38104,-1.24858 2.09216,-1.80854 0.94214,-0.74911 1.24745,-1.95461 1.19353,-3.10997 -0.0134,-0.83907 0.104,-1.79326 -0.003,-2.55996 -0.14883,0.40146 -0.29767,0.80291 -0.4465,1.20437 z"
         id="path2707"
         transform="scale(0.26458333)" class="OF" />
      <path
         style="fill:#808080;stroke:#000000;stroke-width:0.00669238"
         d="m 245.8845,384.92178 c -0.32791,-0.0281 -1.00818,0.0376 -0.74819,0.53775 0.18546,0.54395 0.66105,1.59078 1.38632,1.10999 0.38113,-0.30215 1.2148,-0.81606 0.85275,-1.3837 -0.41525,-0.31272 -1.00178,-0.25222 -1.49088,-0.26404 z"
         id="path2708"
         transform="scale(0.26458333)" class="OF" />
      <path
         style="fill:#808080;stroke:#000000;stroke-width:0.00669238"
         d="m 250.27402,386.12406 c -0.65498,0.36095 -1.24929,0.987 -1.55337,1.67492 -0.0498,1.25833 1.16096,2.09478 1.77897,3.06595 0.7983,0.92093 1.25688,2.05758 1.90498,3.06987 0.52936,0.61622 1.47801,0.61651 1.96981,1.30527 0.15144,0.24797 0.75813,0.66069 0.75681,0.10143 -0.0342,-1.52466 -0.87996,-2.93509 -1.80773,-4.09986 -0.72904,-0.5406 -1.30118,-1.31067 -1.34527,-2.24796 -0.33373,-1.03386 -0.76621,-2.19097 -1.65349,-2.86335 -0.0165,-0.004 -0.0336,-0.008 -0.0507,-0.006 z"
         id="path2709"
         transform="scale(0.26458333)" class="OF" />
      <path
         style="fill:#808080;stroke:#000000;stroke-width:0.00669238"
         d="m 242.29885,386.12955 c -2.09728,2.69206 -3.68349,5.76393 -4.9521,8.92204 -0.0466,0.29897 -0.38538,0.87274 -0.0928,1.09901 0.94986,-0.57299 1.71589,-1.4881 2.8027,-1.82733 0.68307,-0.76281 0.93251,-1.8327 1.59467,-2.62938 0.77735,-1.25107 1.87499,-2.31659 2.638,-3.54669 -0.60221,-0.72099 -1.30693,-1.40565 -1.99046,-2.01765 z"
         id="path2710"
         transform="scale(0.26458333)" class="OF" />
      <path
         style="fill:#808080;stroke:#000000;stroke-width:0.00669238"
         d="m 238.39923,369.92772 c -0.10857,1.33351 0.0879,2.73138 0.27371,4.0685 0.41156,1.68433 1.71519,3.01905 3.08738,3.99451 0.55021,0.03 0.64414,-0.7814 0.77956,-1.1811 0.0409,-0.52656 0.49076,-1.34641 -0.32402,-1.42751 -1.28643,-0.42821 -2.31878,-1.42699 -2.7428,-2.71681 -0.40565,-0.88236 -0.60353,-1.92053 -1.07383,-2.73759 z"
         id="path2711"
         transform="scale(0.26458333)" class="OF" />
      <path
         style="fill:#ff00ff;stroke:#000000;stroke-width:0.00669238"
         d="m 259.24625,358.80164 c -0.97317,0.52614 -1.78044,1.37881 -2.53239,2.18993 -1.28234,1.64059 -0.90371,3.88429 -1.09692,5.81661 0.69003,-1.39487 1.0402,-3.17999 2.10993,-4.44285 0.60215,-0.55755 1.59003,-0.67542 2.02706,-1.38631 0.10634,-0.71574 -0.009,-1.55053 -0.39945,-2.1562 -0.0326,-0.0187 -0.0712,-0.0244 -0.10823,-0.0212 z"
         id="path2712"
         transform="scale(0.26458333)" class="IF" />
      <path
         style="fill:#ff00ff;stroke:#000000;stroke-width:0.00669238"
         d="m 263.9134,353.22736 c -1.01528,0.11934 -2.14635,-0.0984 -3.08843,0.35632 -0.79684,0.69854 -0.52885,1.93599 -0.63604,2.87877 0.0824,1.16535 -0.0723,2.52881 0.64519,3.52081 0.64271,0.1429 1.24272,-0.47006 1.91491,-0.38951 1.21484,-0.0952 2.45016,0.11704 3.63401,0.22325 -0.0181,-2.21249 0.036,-4.45532 -0.0269,-6.64898 -0.81423,0.0198 -1.62847,0.0396 -2.44271,0.0593 z"
         id="path2713"
         transform="scale(0.26458333)" class="IF" />
      <path
         style="fill:#ff00ff;stroke:#000000;stroke-width:0.00669238"
         d="m 254.50146,340.88672 c -0.25252,0.57556 0.0763,1.32325 0.29898,1.88628 0.8358,1.58613 1.78585,3.1135 2.42372,4.7946 0.60308,1.07991 1.20187,2.23634 2.04849,3.12868 0.7609,-0.60248 1.48196,-1.29716 2.15803,-1.97294 -1.40107,-1.86358 -3.14998,-3.59197 -3.91739,-5.82891 -0.45161,-0.37668 -1.12836,-0.40367 -1.54683,-0.87602 -0.49751,-0.35451 -0.92707,-0.8555 -1.465,-1.13169 z"
         id="path2714"
         transform="scale(0.26458333)" class="IF" />
      <path
         style="fill:#ff00ff;stroke:#000000;stroke-width:0.00669238"
         d="m 263.36572,349.94862 c -0.82096,0.47262 -1.15237,1.51517 -1.74655,2.22025 0.99586,-0.009 2.17004,0.0817 3.16188,-0.22718 -0.11362,-0.74594 -0.66046,-1.44915 -1.21717,-1.95046 -0.0598,-0.0332 -0.12953,-0.0527 -0.19816,-0.0426 z"
         id="path2715"
         transform="scale(0.26458333)" class="IF" />
      <path
         style="fill:#ff00ff;stroke:#000000;stroke-width:0.00669238"
         d="m 272.35703,341.17062 c -1.63808,0.59571 -3.03441,1.8228 -3.84059,3.37265 -0.83277,1.37302 -1.99123,2.56584 -2.68055,4.01354 0.13266,0.85161 0.71493,1.71693 1.44801,2.14758 1.05082,-0.95896 1.63168,-2.35356 2.39387,-3.54372 1.01095,-1.90382 2.20144,-3.76459 2.8301,-5.83659 0.0216,-0.0968 -0.0482,-0.18378 -0.15084,-0.15346 z"
         id="path2716"
         transform="scale(0.26458333)" class="IF" />
      <path
         style="fill:#ff00ff;stroke:#000000;stroke-width:0.00669238"
         d="m 267.60492,358.66806 c -0.21953,0.76634 -1.13924,1.75875 -0.48598,2.54075 0.95245,0.69542 2.14787,1.20491 2.6333,2.3737 0.51159,0.875 0.70601,1.97023 1.2671,2.78126 0.14417,-1.28065 -0.0959,-2.63032 -0.26822,-3.91635 -0.23711,-1.76806 -1.9084,-2.76851 -3.1462,-3.77936 z"
         id="path2717"
         transform="scale(0.26458333)" class="IF" />
    </g>
    <path
       style="fill:#ffffff;fill-opacity:1;stroke:#000000;stroke-width:0.0064821;stroke-opacity:0"
       d="m 233.62162,351.76772 c -3.11118,0.74805 -6.06457,2.06165 -8.95124,3.42256 -0.40014,0.29008 -1.13487,0.41143 -1.26388,0.93893 0.27203,0.50194 1.08179,0.32271 1.54254,0.51958 0.7244,0.0645 1.46776,0.37737 2.1877,0.30056 0.81103,-0.57455 1.60404,-1.1904 2.62496,-1.34518 1.33099,-0.40879 2.89133,-0.28212 4.05717,-1.11498 0.51398,-0.68672 0.52709,-1.72452 0.22055,-2.50016 -0.0883,-0.14716 -0.23941,-0.25155 -0.4178,-0.22131 z"
       id="path97"
       transform="scale(0.26458333)" class="P" />
    <path
       style="fill:#ffffff;fill-opacity:1;stroke:#000000;stroke-width:0.0064821;stroke-opacity:0"
       d="m 236.65403,352.54102 c -0.69072,0.14987 -0.48784,1.10539 -0.54414,1.62761 -0.10134,0.45189 0.17422,0.9068 0.67961,0.75456 0.75528,-0.12247 1.63993,-0.22528 2.23835,-0.7105 -0.35308,-0.70082 -1.14598,-1.15073 -1.82613,-1.52177 -0.17291,-0.0756 -0.35505,-0.15504 -0.54769,-0.1499 z"
       id="path98"
       transform="scale(0.26458333)" class="P" />
    <path
       style="fill:#ffffff;fill-opacity:1;stroke:#000000;stroke-width:0.0064821;stroke-opacity:0"
       d="m 239.46387,356.57942 c -0.73134,0.20961 -1.65602,0.14468 -2.24873,0.6639 -0.29809,2.00557 -0.12481,4.08161 -0.76519,6.03063 -0.0383,1.14431 0.21476,2.44268 1.00928,3.30081 0.55704,0.025 0.65146,-0.82783 0.8712,-1.20168 0.92583,-2.81955 1.64171,-5.77273 1.60719,-8.75746 -0.10798,-0.19346 -0.31438,-0.0304 -0.47375,-0.0362 z"
       id="path99"
       transform="scale(0.26458333)" class="P" />
    <path
       style="fill:#ffffff;fill-opacity:1;stroke:#000000;stroke-width:0.0064821;stroke-opacity:0"
       d="m 240.65875,345.51098 c -1.44545,1.51874 -3.21588,2.92038 -4.00143,4.92285 -0.1276,0.7715 0.76127,1.23662 1.21477,1.7222 0.80931,0.59865 1.66672,1.38308 2.70918,1.46213 1.52272,-0.66459 2.62878,-2.01961 3.69581,-3.25067 0.32343,-0.5365 1.08049,-1.14227 0.82697,-1.83094 -0.40638,-0.26883 -0.98839,-0.1537 -1.37263,-0.51983 -1.16269,-0.65311 -1.99986,-1.80675 -3.07267,-2.50574 z"
       id="path100"
       transform="scale(0.26458333)" class="P" />
    <path
       style="fill:#ffffff;fill-opacity:1;stroke:#000000;stroke-width:0.0064821;stroke-opacity:0"
       d="m 241.57511,337.27998 c -1.09634,1.01465 -1.96411,2.31403 -2.64424,3.64644 -0.50201,1.23891 -0.62464,2.74197 -0.0772,3.98243 0.37926,0.63531 1.23901,0.0526 1.72535,-0.15546 0.39256,-0.1949 0.98487,-0.54255 0.63277,-1.05259 -0.46775,-1.01072 -1.14109,-2.11678 -0.61403,-3.26105 0.30794,-1.05122 0.92049,-2.02913 1.11031,-3.10204 -0.0226,-0.0495 -0.0827,-0.0727 -0.13293,-0.0577 z"
       id="path101"
       transform="scale(0.26458333)" class="P" />
    <path
       style="fill:#ffffff;fill-opacity:1;stroke:#000000;stroke-width:0.0064821;stroke-opacity:0"
       d="m 253.42215,346.58508 c -1.40469,0.49731 -2.52056,1.64119 -3.96547,2.01958 -1.04497,0.24766 -2.03428,-0.5598 -3.05317,-0.28334 -0.67245,0.47469 -0.7333,1.44095 -1.04296,2.15074 -0.24636,0.57921 0.62839,0.38626 0.93661,0.37728 1.78684,-0.11437 3.70023,-0.43047 5.00489,-1.77751 0.76261,-0.76933 1.72241,-1.45441 2.25608,-2.39534 -0.009,-0.0651 -0.0765,-0.10074 -0.13598,-0.0914 z"
       id="path102"
       transform="scale(0.26458333)" class="P" />
  </g>
</svg>
