<?xml version="1.0" encoding="UTF-8" standalone="no"?>
<!-- Created with Inkscape (http://www.inkscape.org/) -->

<svg
   width="30.169647mm"
   height="24.079428mm"
   viewBox="0 0 30.169647 24.079427"
   version="1.1"
   id="svg1"
   xmlns="http://www.w3.org/2000/svg"
   xmlns:svg="http://www.w3.org/2000/svg">
  <defs
     id="defs1" />
  <g
     id="g2943"
     transform="translate(-93.780169,-91.477921)">
    <path
       id="path1575"
       style="fill:#000000;stroke-width:0.264583"
       d="m 96.374559,115.26974 c -0.04178,-0.60455 0.04792,-0.93252 0.338825,-1.23886 0.306176,-0.32242 0.634736,-1.4279 0.516176,-1.73681 -0.09536,-0.24855 -1.681004,-0.23094 -1.933416,0.0215 -0.250058,0.25006 -0.930064,0.24331 -1.295771,-0.0129 -0.281675,-0.19728 -0.283501,-0.21116 -0.06035,-0.45773 0.126576,-0.13985 0.373194,-0.32692 0.548084,-0.41572 0.360521,-0.18304 1.772417,-0.44598 2.42488,-0.45158 0.299852,-0.003 0.56216,-0.12002 0.847249,-0.37939 0.356631,-0.32442 0.412961,-0.45906 0.412961,-0.98699 0,-0.54577 0.05448,-0.66451 0.508238,-1.1076 0.279533,-0.27296 0.508265,-0.60084 0.508265,-0.72861 0,-0.12778 0.08059,-0.26326 0.179123,-0.30107 0.0985,-0.0378 0.216323,-0.22184 0.261832,-0.40896 0.04548,-0.18712 0.197008,-0.42883 0.336761,-0.53713 0.256174,-0.19854 0.484264,-0.9149 0.489874,-1.53844 0.003,-0.32096 -0.0331,-0.34015 -0.727575,-0.38794 -0.561711,-0.0387 -0.837354,0.009 -1.192239,0.20487 -0.381053,0.21062 -0.547159,0.23398 -0.951627,0.13382 -1.443461,-0.35744 0.374808,-1.43257 2.453671,-1.45081 0.79078,-0.007 1.26055,-0.48973 1.34059,-1.37778 0.0475,-0.52724 0.14451,-0.76273 0.44479,-1.08003 0.21119,-0.22317 0.42019,-0.61055 0.4644,-0.86085 0.0442,-0.250292 0.21791,-0.574626 0.38597,-0.720739 0.37989,-0.330325 0.60291,-1.637369 0.31091,-1.82231 -0.34634,-0.219364 -1.37411,-0.128543 -1.75813,0.155361 -0.41497,0.306816 -1.12273,0.258119 -1.417929,-0.09756 -0.142928,-0.172223 -0.116575,-0.245549 0.179864,-0.500533 0.407885,-0.350838 0.935775,-0.506252 2.276245,-0.670111 1.34911,-0.164914 1.75947,-0.483785 1.80914,-1.405752 0.0316,-0.586258 0.0981,-0.728573 0.56102,-1.200266 0.28887,-0.294331 0.52522,-0.633045 0.52522,-0.752695 0,-0.273106 0.2962,-0.282445 0.51708,-0.0163 0.10906,0.131397 0.12546,0.25722 0.0473,0.362521 -0.64117,0.863912 -0.80412,1.179288 -0.73866,1.429586 0.0631,0.241253 0.1116,0.258966 0.37745,0.13784 0.67572,-0.307885 1.18798,0.345244 0.81595,1.040368 -0.21857,0.408438 0.12613,0.547206 0.77356,0.311418 0.76078,-0.277075 2.01345,-0.546595 3.18857,-0.686044 0.78742,-0.09345 1.0545,-0.183592 1.36591,-0.461052 0.33282,-0.296553 0.38709,-0.433062 0.38709,-0.973881 0,-0.567947 0.0482,-0.673801 0.49678,-1.09079 0.27323,-0.253992 0.51702,-0.576159 0.54176,-0.715928 0.0546,-0.308306 0.52842,-0.346684 0.58605,-0.04746 0.022,0.113665 -0.13875,0.471191 -0.35692,0.794501 -0.49512,0.733621 -0.46464,1.047102 0.0965,0.992667 0.81476,-0.07903 1.17219,0.45262 0.72933,1.08486 -0.17727,0.253109 -0.17288,0.287393 0.0521,0.407837 0.17962,0.09613 0.39401,0.07747 0.79711,-0.06939 0.73623,-0.268226 1.97842,-0.536995 3.21968,-0.696634 1.32393,-0.17027 1.71535,-0.493202 1.71535,-1.415222 0,-0.562332 0.0475,-0.660458 0.5389,-1.114248 0.29642,-0.273688 0.53941,-0.600168 0.54002,-0.725509 0.003,-0.297426 0.49091,-0.30563 0.548,-0.0092 0.0233,0.120291 -0.13718,0.479296 -0.35631,0.797785 -0.53314,0.774893 -0.47596,1.016498 0.24059,1.016498 0.70371,0 0.9045,0.251682 0.67849,0.85045 -0.12578,0.33319 -0.12321,0.444574 0.0132,0.581125 0.14052,0.140531 0.29094,0.123275 0.89477,-0.102645 0.3992,-0.149365 0.8132,-0.238056 0.91993,-0.19709 0.28866,0.11077 0.15539,0.517577 -0.17505,0.534344 -0.15589,0.0079 -0.51125,0.16515 -0.7897,0.349422 -0.50152,0.33188 -0.91522,0.391904 -1.52723,0.221586 -0.5529,-0.153868 -1.09196,0.310801 -1.38454,1.19348 -0.13898,0.419304 -0.37126,1.029457 -0.51612,1.355891 -0.27278,0.614628 -0.94774,1.296498 -1.19758,1.209871 -0.19931,-0.0691 -0.57005,0.523248 -0.49858,0.796558 0.0483,0.18487 0.15758,0.21426 0.60774,0.16352 0.463,-0.0522 0.57105,-0.0202 0.69133,0.20447 0.10928,0.20419 0.0994,0.36945 -0.0421,0.70821 -0.17251,0.41282 -0.16838,0.44704 0.0626,0.52035 0.25321,0.0804 1.1004,-0.13608 1.31691,-0.33646 0.17185,-0.15902 0.27773,-0.13984 0.50993,0.0923 0.15669,0.1567 0.17021,0.24484 0.0582,0.37979 -0.0802,0.0966 -0.1986,0.14313 -0.26308,0.10328 -0.0645,-0.0399 -0.40298,0.11092 -0.75226,0.33504 -0.60791,0.3901 -0.66334,0.40184 -1.29781,0.27492 -0.58734,-0.11749 -0.69268,-0.10485 -0.92511,0.11107 -0.14428,0.13401 -0.32332,0.24365 -0.39788,0.24365 -0.0746,0 -0.20048,0.25784 -0.27983,0.57297 -0.32721,1.29951 -1.1708,2.73064 -1.60959,2.73064 -0.18515,0 -0.49107,0.69809 -0.38272,0.8734 0.0429,0.0695 0.27668,0.0941 0.51941,0.0547 0.26752,-0.0434 0.51678,-0.009 0.63298,0.0875 0.2298,0.19072 0.25247,0.7787 0.0383,0.99288 -0.1198,0.11981 -0.11113,0.19566 0.0397,0.34648 0.17275,0.17276 0.27591,0.1633 0.97933,-0.0898 0.58542,-0.21063 0.82299,-0.24614 0.93012,-0.13901 0.2055,0.2055 0.038,0.54214 -0.26977,0.54214 -0.14348,0 -0.48705,0.14969 -0.76351,0.33265 -0.44905,0.29716 -0.57827,0.32321 -1.21105,0.24415 -0.64127,-0.0801 -0.74991,-0.0568 -1.14641,0.24559 -0.24093,0.18376 -0.43805,0.41985 -0.43805,0.52466 0,0.1048 -0.17743,0.6396 -0.39431,1.18843 -0.64312,1.62745 -1.63867,2.33874 -1.63867,1.17078 0,-0.35502 0.10441,-0.62616 0.36968,-0.95994 0.43643,-0.5492 0.66455,-1.68705 0.37499,-1.87051 -0.28847,-0.18277 -1.4696,-0.13273 -1.67322,0.0709 -0.27628,0.27629 -0.73398,0.334 -1.2315,0.15528 -0.4031,-0.1448 -0.48861,-0.13138 -0.91366,0.14341 -0.424,0.2741 -0.52753,0.29053 -1.08003,0.17148 -0.54499,-0.11744 -0.65566,-0.10154 -1.02335,0.14693 -0.28514,0.19271 -0.47744,0.47448 -0.62373,0.91392 -0.59195,1.77842 -1.26413,2.74886 -1.76961,2.55488 -0.3183,-0.12214 -0.22979,-1.05997 0.13163,-1.39493 0.29614,-0.27446 0.56761,-1.07789 0.57435,-1.69997 0.003,-0.26906 -0.0483,-0.28589 -0.87077,-0.28589 -0.58041,0 -0.92188,0.0579 -1.01682,0.17225 -0.0786,0.0947 -0.51546,0.20704 -0.97075,0.24956 -0.63966,0.0597 -0.95885,0.16746 -1.40444,0.47403 -0.5566,0.38295 -0.59822,0.39155 -1.198669,0.24751 -0.586819,-0.14078 -0.646192,-0.13081 -1.04865,0.17617 -0.308583,0.23536 -0.490273,0.5285 -0.656669,1.05945 -0.126524,0.40373 -0.343879,0.96276 -0.482997,1.2423 -0.513741,1.03233 -1.342602,1.58231 -1.388295,0.9212 z m 1.319318,-1.30239 c 0.548825,-1.2836 0.553508,-1.33415 0.123534,-1.33415 -0.345466,0 -0.384307,0.0491 -0.52787,0.66708 -0.08522,0.36689 -0.183833,0.92437 -0.219128,1.23885 -0.05591,0.4979 -0.04082,0.54715 0.116655,0.38119 0.09948,-0.10483 0.327554,-0.53366 0.506809,-0.95297 z m 8.236063,-1.58197 c 0.20637,-0.50714 0.37523,-0.97712 0.37523,-1.0444 0,-0.0673 -0.15714,-0.10425 -0.34917,-0.0821 -0.30007,0.0345 -0.36709,0.12062 -0.47649,0.61198 -0.07,0.31448 -0.16994,0.63738 -0.22204,0.71756 -0.13245,0.20383 0.0365,0.9798 0.18169,0.83459 0.0635,-0.0636 0.28437,-0.53047 0.49078,-1.0376 z m 7.73648,-0.76693 c 0.21424,-0.55552 0.38952,-1.06906 0.38952,-1.1412 0,-0.0721 -0.14076,-0.13116 -0.31276,-0.13116 -0.26186,0 -0.33494,0.0879 -0.44905,0.54001 -0.075,0.29701 -0.18375,0.65437 -0.24175,0.79414 -0.12525,0.30188 -0.03,1.10558 0.12001,1.01285 0.0575,-0.0355 0.2798,-0.51911 0.49403,-1.07464 z m -15.763628,0.24396 c -0.237463,-0.35764 -0.420264,-0.36674 -0.469053,-0.0233 -0.03347,0.23572 0.01931,0.28589 0.301387,0.28589 0.317209,0 0.329353,-0.0191 0.167666,-0.26255 z m -1.047776,-0.0381 c 0.0087,-0.009 0.05837,-0.15457 0.110146,-0.32267 l 0.09414,-0.30565 -0.808963,0.08 c -0.44495,0.044 -1.036161,0.14487 -1.313842,0.22416 l -0.504851,0.14415 0.366369,0.14975 c 0.278315,0.11376 1.955482,0.13843 2.057003,0.0303 z m 2.26941,-0.24595 0.485299,-0.41952 -0.337079,-0.33708 c -0.185394,-0.18539 -0.337079,-0.42544 -0.337079,-0.53344 0,-0.10801 -0.03355,-0.19637 -0.07453,-0.19637 -0.202116,0 -1.196076,0.83044 -1.196076,0.99931 0,0.22931 0.61894,0.90662 0.82849,0.90662 0.08012,0 0.36404,-0.18879 0.630978,-0.41952 z m 1.973924,-0.16915 c 0.27803,-0.18399 0.50552,-0.35206 0.50552,-0.37347 0,-0.0214 -0.25324,0.0473 -0.56272,0.15281 -0.50639,0.17253 -0.59338,0.17166 -0.8686,-0.009 -0.290728,-0.1905 -0.3129,-0.18504 -0.447414,0.11019 -0.12491,0.27415 -0.108691,0.31699 0.138007,0.36485 0.579677,0.11246 0.743087,0.08 1.235207,-0.2457 z m 0.0101,-0.44669 c 0.23755,-0.0803 0.69962,-0.33957 1.0268,-0.57625 0.59888,-0.4332 1.96141,-0.80257 2.96058,-0.80257 0.28821,0 0.54398,-0.11573 0.81473,-0.36863 0.33134,-0.30953 0.39463,-0.46279 0.39463,-0.95581 0,-0.50447 0.0692,-0.66282 0.49167,-1.12434 0.27041,-0.29545 0.53158,-0.66583 0.58034,-0.82307 0.0999,-0.32223 0.20552,-0.3552 0.4273,-0.13341 0.16899,0.16898 0.20841,0.6099 0.0545,0.6099 -0.15687,0 -0.70527,1.08449 -0.64296,1.27147 0.0349,0.10483 0.26754,0.17381 0.60658,0.17989 0.69411,0.0124 0.89617,0.26698 0.67567,0.85114 -0.0837,0.22167 -0.11841,0.4576 -0.0772,0.52428 0.0879,0.14221 0.65893,0.0455 1.22959,-0.20823 0.56478,-0.25114 1.49349,-0.45635 2.67507,-0.59111 1.30624,-0.14899 1.67338,-0.45143 1.7559,-1.44648 0.0468,-0.56389 0.12296,-0.73093 0.47829,-1.04842 0.2504,-0.22372 0.43823,-0.52341 0.4608,-0.73521 0.0209,-0.19666 0.17801,-0.50681 0.34899,-0.68924 0.30675,-0.3273 0.66643,-1.56987 0.52202,-1.80351 -0.11872,-0.19211 -1.61634,-0.13021 -1.89188,0.0782 -0.31914,0.2414 -1.09712,0.23957 -1.41264,-0.003 -0.23973,-0.18454 -0.23542,-0.2002 0.15344,-0.55849 0.41973,-0.38672 1.01528,-0.56203 2.45882,-0.72379 0.60436,-0.0677 0.93665,-0.18092 1.23883,-0.422 0.36783,-0.29344 0.41297,-0.39951 0.41297,-0.97073 0,-0.58074 0.048,-0.68814 0.50823,-1.137574 0.27956,-0.27296 0.50827,-0.577818 0.50827,-0.677463 0,-0.09964 0.19381,-0.395708 0.43071,-0.657918 0.49647,-0.549537 0.76409,-1.71363 0.44101,-1.918327 -0.30162,-0.191114 -1.4288,-0.12863 -1.75101,0.09707 -0.3642,0.25509 -1.11204,0.247766 -1.401,-0.01373 -0.18907,-0.171101 -0.26053,-0.156975 -0.6931,0.136956 -0.42786,0.290732 -0.56054,0.317955 -1.17533,0.241144 -0.97703,-0.122073 -1.40314,0.212847 -1.79343,1.409631 -0.35253,1.080992 -0.75205,1.790158 -1.19239,2.116631 -0.44551,0.33026 -0.61624,0.19664 -0.61624,-0.482231 0,-0.43234 0.0716,-0.625567 0.31591,-0.852069 0.40762,-0.377971 0.71443,-1.710275 0.43463,-1.887405 -0.32512,-0.205822 -1.35755,-0.127733 -1.87465,0.14179 -0.46265,0.241149 -0.53395,0.245986 -1.04267,0.07073 -0.51334,-0.176866 -0.56822,-0.172334 -0.91654,0.07569 -0.31424,0.223771 -0.48551,0.251801 -1.1281,0.184634 -1.03346,-0.108016 -1.39811,0.159692 -1.76519,1.295961 -0.3819,1.182145 -0.72642,1.81013 -1.21891,2.22184 -0.52708,0.44061 -0.7203,0.78196 -0.62056,1.09625 0.0611,0.19245 0.14304,0.21967 0.42117,0.13991 0.75692,-0.21708 1.15771,0.31784 0.77456,1.03374 -0.27588,0.51554 0.31864,0.58317 1.25095,0.1423 0.48665,-0.23011 0.79518,-0.14848 0.79518,0.21039 0,0.17987 -0.0833,0.25811 -0.27477,0.25811 -0.15113,0 -0.54477,0.17326 -0.87476,0.38501 -0.56449,0.36224 -0.63572,0.37701 -1.20386,0.24969 -0.54498,-0.12214 -0.64547,-0.10702 -1.03039,0.155 -0.32856,0.22365 -0.48911,0.48002 -0.69908,1.11623 -0.45003,1.36365 -0.82357,1.99721 -1.35935,2.30557 -0.569176,0.32757 -1.069794,1.02815 -1.013756,1.41869 0.034,0.237 0.109379,0.26897 0.557054,0.23627 0.701992,-0.0513 0.923612,0.20433 0.703902,0.81192 -0.24763,0.68479 -0.0569,0.82151 0.76065,0.54529 z m 4.99386,-0.39409 c -0.24022,-0.42012 -0.34304,-0.49391 -0.45104,-0.32367 -0.19217,0.30291 -0.1115,0.4825 0.21669,0.4825 0.22384,0 0.29687,-0.0495 0.23435,-0.15883 z m -1.03794,-0.27237 c 0.26609,-0.40072 0.10742,-0.49438 -0.69688,-0.41139 -0.43678,0.0451 -1.02132,0.14494 -1.299,0.22194 l -0.50485,0.14001 0.37779,0.15721 c 0.44249,0.18413 1.98099,0.10603 2.12294,-0.10777 z m 2.16869,-0.0453 c 0.49831,-0.37808 0.5821,-0.59679 0.27389,-0.71506 -0.10774,-0.0414 -0.26995,-0.25131 -0.36047,-0.46657 l -0.16457,-0.3914 -0.55075,0.42121 c -0.3029,0.23167 -0.5719,0.48549 -0.59775,0.56405 -0.0598,0.18172 0.56917,0.93719 0.78026,0.93719 0.0874,0 0.36607,-0.15724 0.61939,-0.34942 z m 1.95447,-0.17332 c 0.52382,-0.32374 0.48781,-0.42096 -0.0823,-0.22222 -0.34036,0.11865 -0.47985,0.10892 -0.75311,-0.0525 -0.31941,-0.18868 -0.34214,-0.18381 -0.47713,0.10223 -0.1238,0.2623 -0.10747,0.30707 0.12896,0.35342 0.56301,0.11039 0.76126,0.0801 1.18359,-0.18093 z m -10.353064,-0.57568 c -0.02222,-0.23184 0.0775,-0.59372 0.244079,-0.88566 l 0.281675,-0.49363 -0.466434,0.43788 c -0.381714,0.35834 -0.466434,0.52736 -0.466434,0.93052 0,0.40156 0.04109,0.48434 0.222356,0.44778 0.164703,-0.0332 0.212593,-0.1465 0.184758,-0.43689 z m 13.361954,0.17978 c 0.5171,0.0636 0.71033,-0.0776 0.71403,-0.52197 0.003,-0.20304 -0.0686,-0.22285 -0.53805,-0.1517 -1.13115,0.17139 -1.87418,0.34315 -1.87418,0.43323 0,0.16354 0.68884,0.35605 0.95298,0.26634 0.13975,-0.0475 0.47511,-0.0591 0.74522,-0.0259 z m 1.52011,-0.17678 c -0.20034,-0.30575 -0.2259,-0.31356 -0.31165,-0.0953 -0.15057,0.38317 -0.12851,0.42835 0.20929,0.42835 0.3167,0 0.31795,-0.004 0.10236,-0.33306 z m 1.30101,-0.11194 0.54306,-0.44499 -0.35036,-0.35037 c -0.1927,-0.1927 -0.37838,-0.43438 -0.41259,-0.53705 -0.0662,-0.19859 -0.22493,-0.12019 -0.9891,0.48855 l -0.31093,0.2477 0.34451,0.52057 c 0.18947,0.28632 0.40926,0.52058 0.48842,0.52058 0.0792,0 0.38833,-0.20024 0.68699,-0.44499 z m 2.02438,-0.23874 c 0.23942,-0.18288 0.22757,-0.18996 -0.20494,-0.12257 -0.25877,0.0403 -0.5846,0.004 -0.74676,-0.0824 -0.23109,-0.12367 -0.30914,-0.12014 -0.39656,0.018 -0.16822,0.26576 -0.0629,0.41931 0.34224,0.49884 0.38504,0.0756 0.57652,0.0162 1.00602,-0.31178 z m -10.02645,-1.01749 c -0.0517,-0.27734 0.006,-0.52546 0.192,-0.83147 l 0.26577,-0.43617 -0.4478,0.37264 c -0.37608,0.31297 -0.44926,0.4572 -0.45696,0.90075 -0.008,0.47465 0.0177,0.52111 0.25577,0.45883 0.21929,-0.0573 0.25226,-0.13742 0.19122,-0.46458 z m 7.81012,-0.45883 c 0.0633,0 0.0574,-0.14752 -0.0132,-0.33341 -0.10401,-0.2736 -0.0662,-0.43884 0.21066,-0.9212 l 0.3374,-0.58779 -0.52518,0.50227 c -0.44002,0.42087 -0.52514,0.58266 -0.52514,0.99832 0,0.40014 0.0389,0.48114 0.201,0.41893 0.11052,-0.0424 0.25207,-0.0771 0.31451,-0.0771 z m -13.98428,-1.04826 c 0.20216,-0.43678 0.4055,-0.95138 0.4518,-1.14356 0.0753,-0.31238 0.0496,-0.34942 -0.24233,-0.34942 -0.27829,0 -0.34645,0.0798 -0.46141,0.54001 -0.0742,0.29701 -0.18283,0.62661 -0.24141,0.73244 -0.10228,0.18477 -0.0451,1.01466 0.0699,1.01466 0.0307,0 0.22122,-0.35736 0.42342,-0.79413 z m 15.49928,-1.74711 c 0.1605,-0.38436 0.33708,-0.85608 0.3924,-1.04826 0.0931,-0.32336 0.0734,-0.34942 -0.26394,-0.34942 -0.33409,0 -0.37161,0.0473 -0.44943,0.56605 -0.0467,0.31133 -0.15255,0.65862 -0.23529,0.77176 -0.0827,0.11313 -0.12692,0.40697 -0.0982,0.65297 0.0656,0.56217 0.23681,0.40705 0.65445,-0.5931 z M 101.2227,104.5209 c 0,-0.059 -0.11435,-0.21086 -0.25413,-0.33735 -0.13975,-0.12648 -0.25411,-0.16861 -0.25411,-0.0936 0,0.075 -0.0347,0.22681 -0.0771,0.33735 -0.0582,0.1516 0.004,0.20099 0.25411,0.20099 0.18219,0 0.33126,-0.0483 0.33126,-0.10737 z m -1.17533,-0.21542 c 0.0874,-0.0277 0.15883,-0.17484 0.15883,-0.3269 0,-0.26284 -0.0392,-0.27261 -0.794122,-0.19787 -0.436774,0.0432 -1.022852,0.14516 -1.302385,0.2265 l -0.508264,0.14789 0.436351,0.1498 c 0.389149,0.13361 1.589431,0.13395 2.00959,5.3e-4 z m 2.34895,-0.24154 0.47477,-0.43606 -0.3587,-0.35869 c -0.1973,-0.19729 -0.38727,-0.44392 -0.42217,-0.54807 -0.0488,-0.14574 -0.2,-0.0776 -0.65603,0.29557 -0.63138,0.51673 -0.64347,0.6528 -0.11192,1.26216 0.28403,0.32564 0.54163,0.2741 1.07405,-0.21491 z m 1.83578,-0.0855 c 0.50432,-0.31169 0.48924,-0.43455 -0.0292,-0.23745 -0.26204,0.0996 -0.45632,0.0959 -0.72144,-0.0139 -0.3135,-0.12985 -0.38682,-0.11768 -0.53967,0.0896 -0.1602,0.21727 -0.1448,0.24739 0.16381,0.3201 0.57171,0.1347 0.67619,0.12002 1.12649,-0.15829 z m 12.27573,-1.30657 c -0.254,-0.33884 -0.41888,-0.31603 -0.41888,0.0579 0,0.17957 0.088,0.24663 0.32358,0.24663 0.32023,0 0.32123,-0.003 0.0953,-0.30457 z m 1.53744,-0.44292 c 0.23797,-0.26331 0.23675,-0.26998 -0.0953,-0.53118 -0.18494,-0.14549 -0.33628,-0.37473 -0.33628,-0.50943 0,-0.13469 -0.0373,-0.2449 -0.0829,-0.2449 -0.20934,0 -1.18033,0.84876 -1.18383,1.03483 -0.003,0.1149 0.1664,0.39125 0.37457,0.6141 l 0.37852,0.40519 0.3521,-0.25097 c 0.19365,-0.13804 0.46054,-0.37097 0.59309,-0.51764 z m -3.03527,0.49336 c 0.47625,0 0.54835,-0.0381 0.6018,-0.31766 0.0544,-0.28443 0.0193,-0.31718 -0.33462,-0.31319 -0.45765,0.005 -1.96149,0.31226 -2.07243,0.42321 -0.13404,0.13402 0.52319,0.32992 0.89884,0.26793 0.20093,-0.0332 0.60881,-0.0603 0.90641,-0.0603 z m -12.91131,-0.73421 c -0.099,-0.26045 -0.0585,-0.41858 0.21582,-0.8415 l 0.33777,-0.52079 -0.5242,0.50227 c -0.43296,0.41486 -0.52419,0.58575 -0.52419,0.982 0,0.46175 0.0116,0.47447 0.30837,0.33924 0.26535,-0.1209 0.29136,-0.18524 0.18643,-0.46122 z m 17.65003,0.27439 c 0.25836,-0.18303 0.36438,-0.29714 0.23558,-0.25358 -0.58904,0.19921 -0.84262,0.21585 -1.10987,0.0728 -0.24358,-0.13037 -0.31404,-0.11787 -0.45993,0.0816 -0.14917,0.204 -0.142,0.24755 0.0535,0.32481 0.43408,0.17155 0.81468,0.10447 1.28075,-0.2257 z m -2.25968,-1.44609 c 0.0598,0 0.0782,-0.18762 0.041,-0.41692 -0.0476,-0.29337 0.0169,-0.566366 0.21812,-0.921198 l 0.28581,-0.50428 -0.47366,0.456208 c -0.35661,0.343498 -0.49183,0.59199 -0.54734,1.00583 -0.0651,0.48509 -0.0478,0.53968 0.14681,0.46499 0.12132,-0.0466 0.26946,-0.0846 0.32925,-0.0846 z M 103.5471,99.577548 c 0.17936,-0.401833 0.36491,-0.887846 0.4123,-1.080026 0.0767,-0.311026 0.0512,-0.349422 -0.23167,-0.349422 -0.31456,0 -0.47136,0.203559 -0.47286,0.613936 0,0.116581 -0.0795,0.362813 -0.17569,0.547182 -0.17155,0.328782 -0.14009,0.998932 0.0469,0.998932 0.0522,0 0.24167,-0.328769 0.42106,-0.730602 z m 7.77295,-0.698841 c 0.60663,-1.305158 0.63846,-1.455965 0.32813,-1.554464 -0.37774,-0.119891 -0.49016,0.0016 -0.5847,0.632132 -0.0466,0.310597 -0.16304,0.629748 -0.25879,0.70922 -0.1288,0.106884 -0.13991,0.208429 -0.0427,0.390081 0.0723,0.13507 0.0958,0.357777 0.0523,0.494906 -0.18026,0.567948 0.10666,0.186811 0.50576,-0.671875 z m 8.06413,-1.110044 c 0.21423,-0.555527 0.38951,-1.06907 0.38951,-1.141208 0,-0.07214 -0.14073,-0.13116 -0.31276,-0.13116 -0.26186,0 -0.33494,0.08788 -0.44905,0.540012 -0.075,0.297008 -0.18375,0.65437 -0.24175,0.794139 -0.12525,0.301876 -0.03,1.10558 0.12004,1.012846 0.0575,-0.03552 0.27977,-0.519104 0.49401,-1.074629 z m -16.66853,-0.451604 c 0.0873,-0.02773 0.15883,-0.191561 0.15883,-0.364072 0,-0.289348 -0.0369,-0.308591 -0.47649,-0.24833 -0.78468,0.107575 -1.86632,0.323398 -1.98843,0.396751 -0.38806,0.233108 1.65053,0.423743 2.30609,0.215651 z m 1.04825,-0.05839 c -0.0748,-0.139766 -0.1845,-0.254122 -0.24379,-0.254122 -0.0593,0 -0.13766,0.114356 -0.17423,0.254122 -0.053,0.202882 -0.004,0.254124 0.24379,0.254124 0.27085,0 0.29297,-0.03225 0.17423,-0.254124 z m 1.16557,-0.09325 c 0.60491,-0.497109 0.61187,-0.523933 0.23415,-0.901655 -0.18793,-0.187928 -0.36959,-0.425365 -0.40367,-0.527642 -0.0818,-0.245481 -1.1231,0.558771 -1.1231,0.867452 0,0.226396 0.56906,0.909222 0.75776,0.909222 0.0617,0 0.30237,-0.156318 0.53486,-0.347377 z m 2.01369,-0.241286 c 0.27805,-0.183997 0.50553,-0.352994 0.50553,-0.37555 0,-0.02254 -0.23253,0.04103 -0.51675,0.141309 -0.45625,0.160972 -0.55187,0.1593 -0.8168,-0.01429 -0.27828,-0.182345 -0.30993,-0.178152 -0.43621,0.05782 -0.18984,0.354716 -0.18005,0.374663 0.21325,0.434242 0.19219,0.02912 0.39354,0.0615 0.44744,0.07197 0.0539,0.01048 0.32551,-0.131506 0.60354,-0.315501 z m 3.04164,-0.329976 c 0.57356,0.05511 0.61021,0.03983 0.69273,-0.288948 0.0479,-0.190929 0.0636,-0.370713 0.0347,-0.399521 -0.0749,-0.07493 -1.86359,0.214241 -2.24482,0.362921 l -0.31991,0.124764 0.4447,0.155961 c 0.24459,0.08578 0.52174,0.117862 0.61585,0.0713 0.0941,-0.04657 0.44363,-0.05848 0.77671,-0.02647 z m 1.56758,-0.147624 c -0.15328,-0.204033 -0.25898,-0.256225 -0.32166,-0.158829 -0.18158,0.282183 -0.0933,0.462722 0.22635,0.462722 0.32018,0 0.32118,-0.0032 0.0953,-0.303893 z m 1.29643,-0.13186 0.50826,-0.431972 -0.34943,-0.367229 c -0.19217,-0.201975 -0.34941,-0.43557 -0.34941,-0.519102 0,-0.08353 -0.0605,-0.151873 -0.13452,-0.151873 -0.18732,0 -1.13612,0.777063 -1.13612,0.930471 0,0.203695 0.63479,0.975624 0.80061,0.973566 0.0838,-0.0011 0.38108,-0.196276 0.66061,-0.433861 z m 2.0715,-0.278212 c 0.25837,-0.183028 0.35539,-0.292521 0.21561,-0.243314 -0.55666,0.195974 -1.0836,0.223052 -1.27349,0.06544 -0.1623,-0.134692 -0.22561,-0.121389 -0.37145,0.07804 -0.38738,0.529797 0.71384,0.606714 1.42933,0.09983 z m 2.96257,-0.212326 c 0.55417,0.06246 0.58996,0.04749 0.67249,-0.281231 0.0479,-0.190965 0.0602,-0.374144 0.0273,-0.407064 -0.0844,-0.08435 -1.76755,0.188 -2.19901,0.355812 l -0.35827,0.139348 0.44471,0.155575 c 0.24461,0.08556 0.53083,0.114176 0.63609,0.06358 0.10525,-0.0506 0.45476,-0.06231 0.77671,-0.02601 z M 119.43426,95.655 c -0.20032,-0.305744 -0.22587,-0.313557 -0.31165,-0.0953 -0.15058,0.383173 -0.12851,0.428348 0.20928,0.428348 0.31671,0 0.31795,-0.004 0.10237,-0.333053 z m 1.28678,-0.09592 0.5026,-0.425193 -0.33163,-0.394123 c -0.1824,-0.216768 -0.35621,-0.46771 -0.38621,-0.557647 -0.0386,-0.11558 -0.21141,-0.05488 -0.58949,0.207034 -0.29422,0.203809 -0.56505,0.419267 -0.60183,0.478801 -0.0819,0.132469 0.4095,0.950999 0.62286,1.037555 0.24977,0.101336 0.25945,0.09706 0.7837,-0.346427 z M 104.7645,94.993301 c -0.0877,-0.230709 -0.0488,-0.413317 0.16319,-0.765887 l 0.27835,-0.46295 -0.37055,0.317654 c -0.52271,0.448106 -0.55923,0.515477 -0.5614,1.036307 -0.003,0.445299 0.0106,0.458594 0.30181,0.321169 0.25451,-0.120105 0.28509,-0.192484 0.1886,-0.446293 z m 18.03365,0.284607 c 0.35718,-0.250132 0.39364,-0.30411 0.15208,-0.225275 -0.38989,0.127257 -1.00939,0.126937 -1.28598,-7.93e-4 -0.21696,-0.100092 -0.43135,0.218982 -0.2952,0.439298 0.14616,0.236463 0.96033,0.114908 1.4291,-0.213357 z m -10.29139,-0.669775 c 0.10863,-0.06889 0.13657,-0.223464 0.0807,-0.44618 -0.0639,-0.254381 0.003,-0.476816 0.2627,-0.877379 l 0.34822,-0.536607 -0.52419,0.502269 c -0.43397,0.415843 -0.5242,0.58529 -0.5242,0.984732 0,0.492641 0.0636,0.559128 0.3568,0.373165 z m 8.03309,-0.780139 c 0.0605,0 0.052,-0.166558 -0.019,-0.370126 -0.1093,-0.313552 -0.0768,-0.454364 0.21254,-0.9212 l 0.3416,-0.551071 -0.52361,0.502269 c -0.43823,0.420388 -0.52358,0.583133 -0.52358,0.998323 0,0.400135 0.0388,0.481142 0.20098,0.418931 0.11054,-0.04242 0.2505,-0.07713 0.31104,-0.07713 z" />
    <path
       style="fill:#ff0000;stroke:#000000;stroke-width:0.0115809"
       d="m 394.80908,362.08977 c -1.15776,0.77057 -2.55777,1.71849 -2.93142,3.12188 0.51147,1.20171 1.30649,2.51327 2.48854,3.13816 1.43675,-0.15275 2.395,-1.57412 3.47474,-2.40893 0.58654,-0.34968 0.7493,-0.9352 0.12893,-1.36799 -0.79587,-0.95745 -1.64724,-1.89353 -2.3275,-2.92374 -0.27776,0.14687 -0.55552,0.29375 -0.83329,0.44062 z"
       id="path2305"
       transform="scale(0.26458333)"
       class="OC" />
    <path
       style="fill:#ff0000;stroke:#000000;stroke-width:0.0035029"
       d="m 397.26294,354.7746 c -0.89327,0.67245 -1.75277,1.41422 -2.51634,2.23364 -0.79742,0.91319 -0.60666,2.20448 -0.60918,3.31981 -0.0179,0.26107 0.0418,0.72259 0.41337,0.63039 0.5363,-0.17672 1.13005,-0.39675 1.49749,-0.84316 0.23624,-0.54884 -0.19149,-1.11928 -0.23521,-1.67126 -0.12696,-0.91007 0.46761,-1.72184 0.86262,-2.49022 0.20113,-0.38788 0.49671,-0.7493 0.62693,-1.16456 -0.008,-0.0155 -0.0253,-0.019 -0.0397,-0.0146 z"
       id="path2357"
       transform="scale(0.26458333)"
       class="OC" />
    <path
       style="fill:#ff0000;stroke:#000000;stroke-width:0.0035029"
       d="m 388.03144,365.40301 c -2.50267,0.25687 -4.98251,0.73264 -7.43695,1.28116 -0.40806,0.15225 -0.96407,0.12748 -1.2516,0.49287 0.0277,0.30766 0.47503,0.33931 0.70414,0.44374 2.35566,0.64047 4.82756,0.48586 7.23829,0.3709 0.61462,-0.0126 1.38712,-0.27829 1.44355,-0.99458 0.0278,-0.44446 0.15889,-0.96381 -0.0784,-1.36585 -0.14373,-0.19693 -0.3887,-0.24488 -0.61903,-0.22824 z"
       id="path2358"
       transform="scale(0.26458333)"
       class="OC" />
    <path
       style="fill:#ff0000;stroke:#000000;stroke-width:0.0035029"
       d="m 392.01461,370.97918 c -0.67259,-0.0363 -1.35752,0.36061 -1.53922,1.0324 -0.26807,0.87455 -0.20965,1.82084 -0.58208,2.67055 -0.33095,0.73774 -0.6594,1.4907 -0.70369,2.31207 -0.0401,0.68458 -0.0265,1.46264 0.38829,2.03726 0.27582,0.22241 0.46517,-0.25497 0.61,-0.42171 1.06585,-1.86916 1.89001,-3.87308 2.58489,-5.90689 0.10025,-0.48343 0.39803,-1.02484 0.19321,-1.51378 -0.2207,-0.26221 -0.64796,-0.19153 -0.9514,-0.2099 z"
       id="path2359"
       transform="scale(0.26458333)"
       class="OC" />
    <path
       style="fill:#ff0000;stroke:#000000;stroke-width:0.0016561"
       d="m 391.25648,366.63502 c -0.30158,0.067 -0.43921,0.40141 -0.55905,0.65356 -0.10621,0.31265 -0.26435,0.68027 -0.1164,1.0037 0.20767,0.30042 0.63605,0.25414 0.95569,0.26653 0.28275,-0.0278 0.62118,0.0315 0.85794,-0.15681 0.14022,-0.20845 -0.0509,-0.45789 -0.12836,-0.65373 -0.22621,-0.41269 -0.48003,-0.86504 -0.90813,-1.09507 -0.0323,-0.0122 -0.0669,-0.0203 -0.10169,-0.0182 z"
       id="path2360"
       transform="scale(0.26458333)"
       class="OC" />
    <path
       style="fill:#ff0000;stroke:#000000;stroke-width:0.0016561"
       d="m 405.93964,364.89566 c -1.08562,0.22662 -2.09519,0.72182 -3.18224,0.93699 -0.44755,0.0905 -0.9245,0.0164 -1.31399,-0.2312 -0.43548,-0.22237 -0.81443,-0.5702 -1.2914,-0.70217 -0.35382,-0.0468 -0.53117,0.33852 -0.67661,0.59157 -0.18557,0.38914 -0.45167,0.76047 -0.51669,1.19411 -0.0119,0.31155 0.35559,0.3905 0.59387,0.4465 0.75171,0.14239 1.5073,0.26839 2.26453,0.37612 0.43238,0.0233 0.79388,-0.27174 1.17001,-0.44068 1.06282,-0.59838 2.07691,-1.28707 3.02996,-2.04768 0.13743,-0.12079 0.1382,-0.18081 -0.0774,-0.12356 z"
       id="path2361"
       transform="scale(0.26458333)"
       class="OC" />
    <path
       style="fill:#ff00ff;stroke:#000000;stroke-width:0.00669238"
       d="m 444.11011,381.60853 c -1.43306,0.66564 -2.57698,1.85351 -3.71139,2.93472 -0.42356,0.3527 -0.76904,0.91551 -0.40573,1.44095 0.63904,1.21427 1.60486,2.26801 2.64846,3.13653 1.43471,-0.92487 2.87348,-1.97195 3.93073,-3.33286 0.60987,-0.59535 -0.49595,-0.92263 -0.79289,-1.37533 -0.80487,-0.61623 -1.25384,-1.53226 -1.42187,-2.51226 -0.0546,-0.10155 -0.0961,-0.30203 -0.24731,-0.29175 z"
       id="path2718"
       transform="scale(0.26458333)"
       class="IF" />
    <path
       style="fill:#ff00ff;stroke:#000000;stroke-width:0.00669238"
       d="m 445.52571,374.79616 c -1.65019,1.40098 -3.3404,3.21983 -3.31325,5.53481 -0.0126,0.36703 -0.14615,1.22103 0.49591,0.99392 0.50862,-0.10448 1.02081,-0.26602 1.49115,-0.46297 -0.13713,-1.69897 -0.12924,-3.50931 0.84864,-4.98525 0.12375,-0.32534 0.53498,-0.7675 0.47755,-1.08051 z"
       id="path2719"
       transform="scale(0.26458333)"
       class="IF" />
    <path
       style="fill:#ff00ff;stroke:#000000;stroke-width:0.00669238"
       d="m 448.34906,385.63468 c -0.60128,0.0842 -1.06492,0.7851 -1.05327,1.35704 0.53644,0.58939 1.49711,0.62677 2.25162,0.63133 1.40326,-0.11956 2.77489,-0.82187 3.75296,-1.80956 -0.44557,-0.16718 -1.0693,0.22084 -1.55781,0.23763 -1.05832,0.38573 -2.10415,-0.067 -3.09914,-0.3971 -0.097,-0.0172 -0.1959,-0.026 -0.29436,-0.0193 z"
       id="path2720"
       transform="scale(0.26458333)"
       class="IF" />
    <path
       style="fill:#ff00ff;stroke:#000000;stroke-width:0.00669238"
       d="m 439.19461,387.22699 c -0.51202,0.20683 -0.30429,0.99321 -0.29357,1.43442 0.20795,0.64739 1.12044,0.37734 1.63519,0.45148 0.25156,0.0577 0.53889,-0.10802 0.27371,-0.3456 -0.45703,-0.52918 -0.87879,-1.39718 -1.61533,-1.5403 z"
       id="path2721"
       transform="scale(0.26458333)"
       class="IF" />
    <path
       style="fill:#ff00ff;stroke:#000000;stroke-width:0.00669238"
       d="m 435.92842,385.89139 c -2.62951,0.219 -5.27252,0.66583 -7.77597,1.50866 -0.5365,0.16327 0.0398,0.5972 0.31554,0.65826 1.59647,0.68155 3.39279,0.15504 5.06297,0.20767 0.97474,-0.14872 2.09422,0.1105 2.9888,-0.36949 0.31894,-0.48031 0.63722,-1.22817 0.36154,-1.77818 -0.26449,-0.2182 -0.62531,-0.23883 -0.95288,-0.22692 z"
       id="path2722"
       transform="scale(0.26458333)"
       class="IF" />
    <path
       style="fill:#ff00ff;stroke:#000000;stroke-width:0.00669238"
       d="m 439.79458,391.2283 c -0.91195,-0.12815 -0.98018,0.98509 -1.15673,1.60343 -0.23759,1.43003 -0.75595,2.77906 -1.24626,4.13006 -0.071,0.86527 -0.20409,1.81872 0.12156,2.64035 0.37985,0.49308 0.78628,-0.43768 0.95158,-0.69459 1.13986,-2.29762 2.21316,-4.66973 2.8291,-7.16529 0.091,-0.75833 -1.09521,-0.40299 -1.49925,-0.51396 z"
       id="path2723"
       transform="scale(0.26458333)"
       class="IF" />
    <path
       style="fill:#808080;stroke:#000000;stroke-width:0.00669238"
       d="m 425.11396,358.58885 c -1.42544,0.60255 -2.56221,1.75883 -3.65598,2.82988 -0.42877,0.30859 -0.50682,0.83058 -0.14691,1.22606 0.72906,1.0731 1.48091,2.30616 2.6576,2.91903 1.33111,-0.40882 2.32648,-1.52332 3.42336,-2.33643 0.85613,-0.46679 1.17273,-1.00943 0.22422,-1.61095 -0.71921,-0.86246 -1.63837,-1.68964 -1.91906,-2.8033 -0.13104,-0.17904 -0.36808,-0.2573 -0.58323,-0.22429 z"
       id="path2724"
       transform="scale(0.26458333)"
       class="OF" />
    <path
       style="fill:#808080;stroke:#000000;stroke-width:0.00669238"
       d="m 427.1831,351.23769 c -1.11741,0.94542 -2.1373,2.06992 -2.9666,3.28057 -0.38524,0.96958 -0.34757,2.10467 -0.13829,3.10986 0.33333,0.68 1.0219,-0.13318 1.38265,-0.33435 0.0289,-1.44553 -0.23496,-3.06345 0.744,-4.28277 0.29571,-0.58662 0.87236,-1.15043 1.00203,-1.77174 l -0.0133,-0.002 z"
       id="path2725"
       transform="scale(0.26458333)"
       class="OF" />
    <path
       style="fill:#808080;stroke:#000000;stroke-width:0.00669238"
       d="m 429.61118,362.10574 c -0.56146,0.1776 -1.0735,0.95044 -0.80831,1.52722 0.82146,0.8992 2.25053,0.5573 3.29155,0.31658 1.08898,-0.33941 2.30875,-0.8345 3.00373,-1.7408 -1.59491,0.25763 -3.42476,0.95896 -4.95315,0.0267 -0.16678,-0.0738 -0.34736,-0.1473 -0.53382,-0.12967 z"
       id="path2726"
       transform="scale(0.26458333)"
       class="OF" />
    <path
       style="fill:#808080;stroke:#000000;stroke-width:0.00669238"
       d="m 420.60993,363.77387 c -0.34189,0.38258 -0.77169,1.23875 -0.24259,1.6331 0.54328,0.23187 1.28569,0.33716 1.80171,0.0418 -0.36212,-0.60368 -0.83638,-1.47005 -1.55912,-1.67492 z"
       id="path2727"
       transform="scale(0.26458333)"
       class="OF" />
    <path
       style="fill:#808080;stroke:#000000;stroke-width:0.00669238"
       d="m 418.03703,362.45578 c -2.94631,0.32958 -5.92861,0.73448 -8.74349,1.6948 -0.45381,0.1503 0.0335,0.39978 0.28338,0.40781 2.0417,0.88686 4.31635,0.43158 6.46803,0.50973 0.58748,-0.10543 1.35762,0.13163 1.85013,-0.26294 0.34171,-0.67886 0.66437,-1.5303 0.47552,-2.28273 -0.0915,-0.0759 -0.2226,-0.0648 -0.33357,-0.0667 z"
       id="path2728"
       transform="scale(0.26458333)"
       class="OF" />
    <path
       style="fill:#808080;stroke:#000000;stroke-width:0.00669238"
       d="m 421.2993,367.79086 c -0.76791,-0.0475 -1.17735,0.67229 -1.2509,1.34502 -0.34609,1.53935 -0.59564,3.2201 -1.70499,4.42429 0.56732,1.14341 0.72485,2.46906 0.28338,3.68237 0.94332,-0.92124 1.4242,-2.39618 2.07447,-3.58875 0.70304,-1.64947 1.66346,-3.25375 1.96789,-5.03631 -0.0957,-0.62372 -0.81692,-0.86426 -1.36985,-0.82662 z"
       id="path2729"
       transform="scale(0.26458333)"
       class="OF" />
    <path
       style="fill:#ff6600;stroke:#000000;stroke-width:0.00669238"
       d="m 385.50266,388.00028 c -1.35597,0.62358 -2.5108,1.67139 -3.52056,2.76008 -0.80635,0.81169 -0.19263,1.97702 0.4574,2.65932 0.59205,0.68658 1.34345,1.78852 2.40595,1.36212 1.48037,-0.72928 2.62682,-2.02176 3.84027,-3.08268 -1.1485,-1.14361 -2.19482,-2.39296 -3.13888,-3.69963 l -0.0118,-0.002 z"
       id="path2730"
       transform="scale(0.26458333)"
       class="OR" />
    <path
       style="fill:#ff6600;stroke:#000000;stroke-width:0.00669238"
       d="m 387.17053,381.22268 c -1.06786,1.01782 -2.3474,1.99671 -2.89655,3.41363 -0.19974,0.90059 -0.23289,1.90241 -0.0463,2.79041 0.61887,-0.0707 1.34466,-0.35381 1.73008,-0.86949 0.18662,-0.9255 -0.60206,-1.87664 -0.10744,-2.78779 0.32421,-0.88838 1.08876,-1.67539 1.33351,-2.54755 z"
       id="path2731"
       transform="scale(0.26458333)"
       class="OR" />
    <path
       style="fill:#ff6600;stroke:#000000;stroke-width:0.00669238"
       d="m 395.13446,391.78408 c -1.24192,0.26748 -2.51951,0.95991 -3.78224,0.36443 -0.64666,-0.12899 -1.57689,-0.71685 -2.05739,0.0376 -0.26718,0.28662 -0.79128,0.98311 -0.15267,1.17561 1.43094,0.50262 3.16329,0.73732 4.46351,-0.23214 0.53833,-0.40133 1.32849,-0.71516 1.62368,-1.32671 -0.0211,-0.0308 -0.064,-0.0201 -0.0949,-0.0188 z"
       id="path2732"
       transform="scale(0.26458333)"
       class="OR" />
    <path
       style="fill:#ff6600;stroke:#000000;stroke-width:0.00669238"
       d="m 380.84074,393.35287 c -0.42424,0.23047 -0.15171,0.91996 -0.4007,1.29118 -0.22027,0.38792 0.0578,0.80541 0.5037,0.74503 0.49229,-0.005 1.23049,0.10457 1.55545,-0.33044 -0.24149,-0.70979 -0.96602,-1.4428 -1.65845,-1.70577 z"
       id="path2733"
       transform="scale(0.26458333)"
       class="OR" />
    <path
       style="fill:#ff6600;stroke:#000000;stroke-width:0.00669238"
       d="m 381.87335,397.37588 c -1.06356,-0.0829 -1.36754,1.08821 -1.59878,1.88119 -0.27099,1.16833 -0.79639,2.26612 -1.04993,3.43036 -0.0505,1.05742 -0.21503,2.26687 0.2724,3.22803 0.71674,-0.7632 1.03648,-1.88303 1.52552,-2.81371 0.69599,-1.72477 1.62755,-3.41476 1.91321,-5.26812 -0.0904,-0.44264 -0.70844,-0.46597 -1.06242,-0.45775 z"
       id="path2734"
       transform="scale(0.26458333)"
       class="OR" />
    <path
       style="fill:#ff6600;stroke:#000000;stroke-width:0.00669238"
       d="m 377.49873,392.16053 c -2.75182,0.1462 -5.53477,0.55259 -8.1396,1.45612 0.24188,0.40902 0.97083,0.39588 1.39494,0.57878 2.37331,0.52955 4.88645,0.49168 7.26489,0.0254 0.61335,-0.35863 0.99325,-1.50561 0.35475,-1.98628 -0.28199,-0.0842 -0.58386,-0.0705 -0.87498,-0.074 z"
       id="path2735"
       transform="scale(0.26458333)"
       class="OR" />
    <path
       style="fill:#ffff00;stroke:#000000;stroke-width:0.00669238"
       d="m 373.57925,416.14277 c -1.45863,0.68542 -2.67773,1.83023 -3.84524,2.92922 -0.45543,0.36608 -0.75674,1.01829 -0.27972,1.50239 0.74927,1.02928 1.56681,2.22146 2.79929,2.67512 1.59046,-0.70713 2.80771,-2.04733 4.15607,-3.11614 -0.97811,-1.15067 -2.41748,-2.18043 -2.63773,-3.80367 -0.0379,-0.0746 -0.0869,-0.19979 -0.19267,-0.18692 z"
       id="path2736"
       transform="scale(0.26458333)"
       class="T" />
    <path
       style="fill:#ffff00;stroke:#000000;stroke-width:0.00669238"
       d="m 374.84191,409.45484 c -0.94673,0.70362 -1.79605,1.60564 -2.47043,2.57682 -0.27391,1.02478 -0.47391,2.20133 -0.13306,3.22411 0.45975,0.57154 1.33006,-0.059 1.2441,-0.69512 0.003,-1.59616 0.32707,-3.1988 1.21483,-4.54872 0.0256,-0.14083 0.31231,-0.45634 0.14456,-0.55709 z"
       id="path2737"
       transform="scale(0.26458333)"
       class="T" />
    <path
       style="fill:#ffff00;stroke:#000000;stroke-width:0.00669238"
       d="m 377.50422,419.72163 c -0.32648,0.5603 -0.83087,1.20771 -0.77145,1.88589 0.61617,0.52914 1.58197,0.47501 2.35512,0.52889 1.74966,0.0527 3.09104,-1.24366 4.46117,-2.13872 0.34259,-0.17553 0.0882,-0.3157 -0.16992,-0.15843 -1.2013,0.26296 -2.36154,0.84569 -3.58591,0.92779 -0.81038,-0.23558 -1.50877,-0.75047 -2.28901,-1.04542 z"
       id="path2738"
       transform="scale(0.26458333)"
       class="T" />
    <path
       style="fill:#ffff00;stroke:#000000;stroke-width:0.00669238"
       d="m 377.56618,419.8539 c -0.43534,0.4124 -0.71735,1.09014 -0.76884,1.68957 0.64502,0.67915 1.75431,0.40472 2.5967,0.48807 1.54906,-0.0369 2.78381,-1.16827 3.99634,-2.00013 0.22427,-0.30117 -0.48197,0.0105 -0.59395,0.009 -1.29598,0.31133 -2.74595,1.1521 -4.02402,0.33203 -0.39711,-0.17842 -0.78664,-0.40118 -1.20623,-0.51895 z"
       id="path2739"
       transform="scale(0.26458333)"
       class="T" />
    <path
       style="fill:#ffff00;stroke:#000000;stroke-width:0.00669238"
       d="m 368.80884,421.81038 c -0.55235,0.29788 -0.60821,1.20413 -0.35658,1.72172 0.52359,0.29985 1.33982,0.37577 1.85635,0.0473 -0.0664,-0.65276 -0.66895,-1.20185 -1.13143,-1.64408 -0.10848,-0.0679 -0.23753,-0.129 -0.36834,-0.12496 z"
       id="path2740"
       transform="scale(0.26458333)"
       class="T" />
    <path
       style="fill:#ffff00;stroke:#000000;stroke-width:0.00669238"
       d="m 366.44664,420.33649 c -3.06093,0.37623 -6.23602,0.50975 -9.13248,1.64303 0.3325,0.40806 1.07932,0.46525 1.59231,0.62479 2.19171,0.31749 4.43249,0.22316 6.63957,0.14065 0.82128,-0.14881 0.74465,-1.27121 1.06752,-1.86049 0.0786,-0.29983 0.33746,-0.64325 -0.16692,-0.54798 z"
       id="path2741"
       transform="scale(0.26458333)"
       class="T" />
    <path
       style="fill:#ffff00;stroke:#000000;stroke-width:0.00669238"
       d="m 369.46317,425.74764 c -1.02337,-0.099 -1.39101,1.0229 -1.54815,1.82256 -0.53424,2.32826 -1.06234,4.76716 -1.05795,7.11935 1.16635,-1.04862 1.60591,-2.65312 2.32586,-4.00157 0.57813,-1.47311 1.43606,-2.91403 1.58683,-4.5103 -0.071,-0.58659 -0.92777,-0.38064 -1.30659,-0.43004 z"
       id="path2742"
       transform="scale(0.26458333)"
       class="T" />
    <path
       style="fill:#00ff00;stroke:#000000;stroke-width:0.00669238"
       d="m 395.71063,415.30126 c -2.6685,0.11758 -5.31922,0.60216 -7.87479,1.3735 1.51966,0.92025 3.45818,0.99779 5.2282,0.88409 1.29534,-0.11828 2.72556,-0.006 3.8886,-0.67077 0.28136,-0.37798 0.93411,-1.10384 0.27031,-1.442 -0.47695,-0.18071 -1.01216,-0.13996 -1.51232,-0.14482 z"
       id="path2743"
       transform="scale(0.26458333)"
       class="IR" />
    <path
       style="fill:#00ff00;stroke:#000000;stroke-width:0.00669238"
       d="m 399.71717,416.39766 c -0.48596,0.2644 -0.77735,0.96623 -0.69721,1.50787 0.34902,0.63244 1.34736,0.65705 1.92641,0.36939 0.0857,-0.59264 -0.51677,-1.12721 -0.82557,-1.59937 -0.11217,-0.10776 -0.22814,-0.28776 -0.40363,-0.27789 z"
       id="path2744"
       transform="scale(0.26458333)"
       class="IR" />
    <path
       style="fill:#00ff00;stroke:#000000;stroke-width:0.00669238"
       d="m 400.78716,420.53151 c -0.88196,-0.0601 -1.6858,0.52506 -1.82794,1.40851 -0.37081,1.46769 -0.85951,2.90247 -1.27878,4.35164 0.0579,0.82211 0.0834,1.84159 0.71315,2.44794 0.80414,-1.12188 1.2233,-2.53857 1.82136,-3.79335 0.49742,-1.36591 1.24819,-2.69658 1.46026,-4.13947 -0.13834,-0.31331 -0.61599,-0.2629 -0.88805,-0.27527 z"
       id="path2745"
       transform="scale(0.26458333)"
       class="IR" />
    <path
       style="fill:#00ff00;stroke:#000000;stroke-width:0.00669238"
       d="m 402.99878,411.82723 c -1.03442,0.86118 -2.21364,1.65824 -2.95039,2.80139 0.29452,1.07869 1.18761,1.91219 1.93582,2.71355 0.39036,0.41643 1.00118,0.84356 1.54866,0.41775 1.21911,-0.74582 2.57772,-1.51285 3.32998,-2.77106 0.28383,-0.78359 -0.80013,-0.99348 -1.14293,-1.50448 -0.6773,-0.75152 -0.96628,-1.78029 -1.44984,-2.62101 -0.42377,0.32129 -0.84753,0.64258 -1.2713,0.96386 z"
       id="path2746"
       transform="scale(0.26458333)"
       class="IR" />
    <path
       style="fill:#00ff00;stroke:#000000;stroke-width:0.00669238"
       d="m 405.61927,404.50562 c -0.93527,0.63117 -1.7988,1.45558 -2.44847,2.38154 -0.30802,1.09488 -0.47564,2.32467 -0.17907,3.43403 0.42701,0.39205 1.23928,0.004 1.47389,-0.44337 0.0393,-1.34865 -0.29993,-2.82061 0.51484,-4.02429 0.16629,-0.44282 0.67405,-0.88735 0.66835,-1.34739 -0.01,-0.002 -0.0198,-0.002 -0.0295,-5.2e-4 z"
       id="path2747"
       transform="scale(0.26458333)"
       class="IR" />
    <path
       style="fill:#00ff00;stroke:#000000;stroke-width:0.00669238"
       d="m 408.43373,414.6213 c -0.57445,0.1945 -0.72503,0.95433 -0.90713,1.47049 0.017,0.65749 0.95518,0.57692 1.40043,0.72127 1.70128,0.39107 3.34042,-0.51143 4.67917,-1.46449 0.21846,-0.0912 0.56614,-0.53683 0.0839,-0.4384 -1.30266,0.26279 -2.70529,0.98079 -3.99164,0.23789 -0.41638,-0.17212 -0.80013,-0.5047 -1.26475,-0.52676 z"
       id="path2748"
       transform="scale(0.26458333)"
       class="IR" />
    <path
       style="fill:#0000ff;stroke:#000000;stroke-width:0.00669238"
       d="m 429.04651,413.0763 c -0.52489,0.33539 -0.72362,1.12453 -0.66192,1.72329 0.40195,0.42845 1.17701,0.27868 1.71676,0.24626 0.45217,-0.17611 -0.20364,-0.74007 -0.27397,-1.01667 -0.24514,-0.30065 -0.40774,-0.79851 -0.78087,-0.95288 z"
       id="path2749"
       transform="scale(0.26458333)"
       class="IC" />
    <path
       style="fill:#0000ff;stroke:#000000;stroke-width:0.00669238"
       d="m 425.39185,411.99611 c -2.5028,0.2871 -5.0284,0.67752 -7.42514,1.46579 -0.51992,0.23017 0.051,0.67492 0.37674,0.70803 0.97751,0.50437 2.06953,0.53318 3.13506,0.38228 1.4992,-0.16692 3.08445,0.22986 4.53212,-0.2718 0.73839,-0.4788 0.8355,-1.61101 0.5448,-2.36272 -0.38786,0.0261 -0.77572,0.0523 -1.16358,0.0784 z"
       id="path2750"
       transform="scale(0.26458333)"
       class="IC" />
    <path
       style="fill:#0000ff;stroke:#000000;stroke-width:0.00669238"
       d="m 429.75653,417.09095 c -1.0825,-0.0381 -1.19385,1.20993 -1.48505,1.96409 -0.59056,2.1195 -1.70036,4.39171 -0.84264,6.59901 0.0649,0.38065 0.37604,0.28642 0.44468,-0.0319 1.2018,-2.51091 2.29278,-5.09764 3.07797,-7.77048 0.31629,-0.76088 -0.74288,-0.70454 -1.19496,-0.76073 z"
       id="path2751"
       transform="scale(0.26458333)"
       class="IC" />
    <path
       style="fill:#0000ff;stroke:#000000;stroke-width:0.00669238"
       d="m 433.45433,408.07872 c -1.58843,0.70284 -2.89454,1.93677 -4.23188,3.0249 -0.0746,0.64448 0.60975,1.1683 0.87132,1.71832 0.62837,0.78191 1.15494,1.81058 2.07489,2.26182 1.64084,-0.84087 3.06131,-2.11951 4.45671,-3.28188 -1.12527,-1.12627 -2.13792,-2.35345 -3.03039,-3.66434 -0.0381,-0.0343 -0.0853,-0.0731 -0.14065,-0.0588 z"
       id="path2752"
       transform="scale(0.26458333)"
       class="IC" />
    <path
       style="fill:#0000ff;stroke:#000000;stroke-width:0.00669238"
       d="m 435.36114,400.77017 c -1.11347,1.01823 -2.31345,2.05304 -3.06987,3.37782 -0.18539,0.97828 -0.32827,2.06027 -0.0413,3.02543 0.41107,0.37374 1.01855,-0.20761 1.48853,-0.21803 0.67278,-0.16679 0.14583,-1.00388 0.11685,-1.43572 -0.5678,-1.74859 1.03387,-3.19194 1.54317,-4.73277 -0.007,-0.015 -0.0232,-0.0198 -0.0374,-0.0167 z"
       id="path2753"
       transform="scale(0.26458333)"
       class="IC" />
    <path
       style="fill:#0000ff;stroke:#000000;stroke-width:0.00669238"
       d="m 437.80229,411.53287 c -0.49039,0.13813 -0.82957,0.78659 -0.79394,1.27417 0.71147,1.01549 2.19011,1.02685 3.30227,0.84361 1.03185,-0.27389 1.93918,-1.04229 2.65342,-1.72015 -1.64267,0.36457 -3.39154,0.30316 -4.94242,-0.37619 -0.0721,-0.0147 -0.14561,-0.0247 -0.21933,-0.0214 z"
       id="path2754"
       transform="scale(0.26458333)"
       class="IC" />
  </g>
  <path
     style="fill:#ffffff;fill-opacity:1;stroke:#000000;stroke-width:0.00171506;stroke-opacity:0"
     d="m 24.548838,3.6479354 c -0.724461,0.062709 -1.449739,0.1947439 -2.140066,0.4250108 -0.08017,0.00974 -0.127751,0.1160171 -0.02545,0.1350592 0.313709,0.1276773 0.654346,0.23622 0.992386,0.170905 0.425119,-0.034578 0.86134,0.032234 1.280263,-0.046093 0.149479,-0.1464813 0.153382,-0.3948113 0.168691,-0.5933678 7.93e-4,-0.139835 -0.196488,-0.076824 -0.275815,-0.091514 z"
     id="path91"
     class="P" />
  <path
     style="fill:#ffffff;fill-opacity:1;stroke:#000000;stroke-width:0.00171506;stroke-opacity:0"
     d="m 25.438389,3.9301135 c -0.125032,0.1112732 -0.177983,0.3120231 -0.18075,0.4773348 0.03027,0.1729079 0.263951,0.093774 0.385685,0.1096037 0.07956,0.013123 0.211286,-0.026432 0.136335,-0.1255475 -0.09647,-0.1535774 -0.179732,-0.3729646 -0.34127,-0.461391 z"
     id="path92"
     class="P" />
  <path
     style="fill:#ffffff;fill-opacity:1;stroke:#000000;stroke-width:0.00171506;stroke-opacity:0"
     d="m 25.654111,5.0191729 c -0.300455,-0.012753 -0.3762,0.3398679 -0.436671,0.5640255 -0.140962,0.4836927 -0.364408,0.9731137 -0.264694,1.4898207 0.02275,0.08831 0.02252,0.308695 0.150336,0.287206 0.236876,-0.269121 0.311425,-0.644245 0.463127,-0.963499 C 25.710293,5.9884528 25.909172,5.5889108 25.98982,5.1634793 25.961446,5.0199931 25.766252,5.0207181 25.654111,5.0191729 Z"
     id="path93"
     class="P" />
  <path
     style="fill:#ffffff;fill-opacity:1;stroke:#000000;stroke-width:0.00171506;stroke-opacity:0"
     d="m 26.618293,2.6597669 c -0.350975,0.085103 -0.623814,0.3588015 -0.911625,0.5636869 -0.130074,0.082878 -0.242295,0.2373154 -0.139181,0.3885036 0.152064,0.3093561 0.32458,0.6456177 0.621641,0.8365595 0.276466,0.1396021 0.492019,-0.1797605 0.693994,-0.3127983 0.18215,-0.1558502 0.375177,-0.3014292 0.545132,-0.4702995 C 27.327426,3.4467595 27.11237,3.2752777 26.977179,3.0687255 26.845181,2.9530232 26.80194,2.699592 26.618293,2.6597669 Z"
     id="path94"
     class="P" />
  <path
     style="fill:#ffffff;fill-opacity:1;stroke:#000000;stroke-width:0.00171506;stroke-opacity:0"
     d="m 27.101991,0.69623041 c -0.289256,0.2125742 -0.520981,0.50767999 -0.74598,0.78785259 -0.120568,0.2705047 -0.133924,0.5947992 -0.07832,0.8834543 0.06797,0.1754611 0.26621,0.013282 0.386892,0.0118 0.16402,-0.0041 0.173609,-0.1862984 0.111612,-0.3001354 -0.147823,-0.3393413 -0.02003,-0.7064586 0.171376,-0.9967171 0.05414,-0.12240169 0.179993,-0.23639479 0.182689,-0.37345159 -0.0061,-0.00929 -0.01754,-0.013811 -0.02827,-0.012806 z"
     id="path95"
     class="P" />
  <path
     style="fill:#ffffff;fill-opacity:1;stroke:#000000;stroke-width:0.00171506;stroke-opacity:0"
     d="m 27.763695,3.5537411 c -0.255767,0.055086 -0.292378,0.4922599 -0.02331,0.5663009 0.3995,0.076737 0.81906,-0.060743 1.168517,-0.2522987 0.119599,-0.090808 0.298722,-0.1490133 0.368535,-0.2850621 -0.105484,-0.065376 -0.262321,0.04686 -0.384273,0.038238 -0.376732,0.050721 -0.751848,0.02069 -1.119616,-0.067448 z"
     id="path96"
     class="P" />
</svg>
