<?xml version="1.0" encoding="UTF-8" standalone="no"?>
<!-- Created with Inkscape (http://www.inkscape.org/) -->

<svg
   width="28.890421mm"
   height="35.847378mm"
   viewBox="0 0 28.890421 35.847378"
   version="1.1"
   id="svg1"
   xmlns="http://www.w3.org/2000/svg"
   xmlns:svg="http://www.w3.org/2000/svg">
  <defs
     id="defs1" />
  <g
     id="layer1"
     transform="translate(-128.28681,-87.713061)">
    <g
       id="g2944">
      <path
         id="path1656"
         style="fill:#000000;stroke-width:0.264583"
         d="m 147.37331,122.33849 0.0363,-1.222 0.53192,-0.0477 c 0.69215,-0.062 0.9293,0.1701 0.9293,0.90952 0,0.4539 -0.0589,0.59837 -0.31144,0.76383 -0.18333,0.12014 -0.4185,0.17008 -0.57177,0.12143 -0.22381,-0.071 -0.26035,-0.0279 -0.26035,0.30712 0,0.26582 -0.0621,0.38975 -0.19518,0.38975 -0.16455,0 -0.1895,-0.1919 -0.15883,-1.222 z m 1.09236,-0.33659 c 0.0284,-0.34225 -0.0169,-0.49805 -0.16045,-0.55317 -0.44677,-0.17144 -0.78361,0.58459 -0.42172,0.9465 0.28374,0.28374 0.54042,0.11032 0.58217,-0.39333 z M 136.8,122.67105 c -0.54858,-0.54856 -0.16668,-1.6518 0.57177,-1.6518 0.45894,0 0.82589,0.42342 0.82589,0.95297 0,0.52954 -0.36695,0.95296 -0.82589,0.95296 -0.17471,0 -0.43201,-0.11436 -0.57177,-0.25413 z m 0.96179,-0.43466 c 0.12814,-0.51059 0.0172,-0.76916 -0.34843,-0.81158 -0.38515,-0.0447 -0.56282,0.28882 -0.43183,0.8107 0.10859,0.43268 0.67173,0.43332 0.78026,7.9e-4 z m 1.03942,0.55499 c -0.1755,-0.10494 -0.22236,-0.30784 -0.22236,-0.96313 0,-0.60738 0.0426,-0.81611 0.15883,-0.77778 0.096,0.0317 0.17399,0.34041 0.19717,0.78093 0.0352,0.66843 0.0614,0.72526 0.31765,0.6888 0.23964,-0.0341 0.28835,-0.13906 0.34285,-0.73858 0.0885,-0.97325 0.30999,-0.87422 0.35523,0.15883 0.033,0.75387 0.0101,0.85788 -0.1906,0.8594 -0.12547,10e-4 -0.34251,0.0294 -0.48229,0.0631 -0.13975,0.0338 -0.35417,0.002 -0.47648,-0.0716 z m 1.96947,0.0441 c -0.27238,-0.0525 -0.28588,-0.1117 -0.28588,-1.25331 0,-0.9804 0.0346,-1.19825 0.19058,-1.19825 0.12446,0 0.19061,0.12461 0.19061,0.35918 0,0.32438 0.0358,0.35392 0.36988,0.30489 0.50864,-0.0746 0.83794,0.41533 0.72925,1.08507 -0.11176,0.68879 -0.39635,0.85614 -1.19444,0.70242 z m 0.8032,-0.59999 c 0.12123,-0.48306 -0.0489,-0.85638 -0.36941,-0.81072 -0.28131,0.0401 -0.43786,0.54991 -0.28842,0.93934 0.11628,0.30308 0.57181,0.21401 0.65783,-0.12862 z m 1.76403,0.37779 c -0.34414,-0.34414 -0.38801,-0.65264 -0.16304,-1.1464 0.2829,-0.6209 1.27961,-0.54229 1.40444,0.11076 0.0799,0.41809 0.0304,0.45808 -0.56727,0.45808 -0.4041,0 -0.48855,0.0413 -0.45426,0.22236 0.0295,0.1554 0.18531,0.23424 0.51758,0.2618 0.53051,0.044 0.62619,0.20817 0.18952,0.32519 -0.47207,0.12651 -0.60087,0.0943 -0.92697,-0.23179 z m 0.83166,-1.02227 c 0,-0.11859 -0.11998,-0.1906 -0.31763,-0.1906 -0.19767,0 -0.31766,0.072 -0.31766,0.1906 0,0.11859 0.11999,0.19059 0.31766,0.19059 0.19765,0 0.31763,-0.072 0.31763,-0.19059 z m 1.62005,1.19691 c -0.36595,-0.21315 -0.25297,-0.36523 0.24924,-0.33545 0.66476,0.0394 0.72241,-0.32057 0.1093,-0.68233 -0.78111,-0.46086 -0.5565,-1.32242 0.32223,-1.23606 0.56893,0.0559 0.65876,0.37339 0.0929,0.32833 -0.57856,-0.0461 -0.56843,0.29649 0.0206,0.69245 0.52874,0.35551 0.62166,0.74863 0.26193,1.10836 -0.28249,0.28248 -0.70045,0.33183 -1.05608,0.1247 z m 4.44426,-0.085 c -0.13121,-0.14498 -0.21945,-0.44768 -0.21945,-0.7528 0,-0.62039 0.33962,-0.99274 0.82145,-0.90063 0.28406,0.0543 0.32211,0.0186 0.32211,-0.30199 0,-0.23847 0.0656,-0.36357 0.1906,-0.36357 0.15603,0 0.19058,0.21883 0.19058,1.20709 0,0.93949 -0.0387,1.20709 -0.1747,1.20709 -0.0961,0 -0.34041,0.0331 -0.54293,0.0736 -0.2672,0.0534 -0.42844,0.007 -0.58766,-0.16884 z m 0.79068,-0.34185 c 0.0835,-0.1006 0.13337,-0.3436 0.11086,-0.54001 -0.0327,-0.28528 -0.10486,-0.3571 -0.35862,-0.3571 -0.25442,0 -0.32586,0.0717 -0.35888,0.36015 -0.0761,0.66498 0.25622,0.95918 0.60664,0.53696 z m 1.17819,0.3663 c -0.21884,-0.15328 -0.28239,-0.32324 -0.28239,-0.75517 0,-0.60928 0.30546,-0.95296 0.84698,-0.95296 0.30779,0 0.67776,0.43158 0.67776,0.79064 0,0.18351 -0.10896,0.22585 -0.58108,0.22585 -0.48551,0 -0.57385,0.0366 -0.53708,0.22236 0.0325,0.16413 0.16807,0.22236 0.51766,0.22236 0.48125,0 0.64714,0.22381 0.27247,0.36759 -0.32975,0.12653 -0.61516,0.0889 -0.91432,-0.12067 z m 0.82941,-1.10459 c -0.0291,-0.0874 -0.18637,-0.15882 -0.34943,-0.15882 -0.16306,0 -0.32031,0.0715 -0.34941,0.15882 -0.0349,0.10477 0.084,0.15883 0.34941,0.15883 0.26543,0 0.38436,-0.0541 0.34943,-0.15883 z m 1.96946,1.21824 c -0.0874,-0.0353 -0.15883,-0.14366 -0.15883,-0.24092 0,-0.12705 0.10295,-0.15623 0.36578,-0.10367 0.50525,0.10105 0.61214,-0.15429 0.16201,-0.38706 -0.20347,-0.10521 -0.40683,-0.28745 -0.45194,-0.40497 -0.11745,-0.30609 0.28821,-0.70529 0.67009,-0.65941 0.43407,0.0521 0.51133,0.35543 0.0905,0.35543 -0.41662,0 -0.4236,0.21613 -0.013,0.4032 0.84873,0.38671 0.20664,1.38896 -0.66463,1.0374 z m -20.48876,-1.18647 v -1.14356 h 0.57756 c 0.79188,0 1.20132,0.4019 1.20132,1.17917 0,0.76187 -0.36968,1.10795 -1.18351,1.10795 h -0.59537 z m 1.32464,0.34942 c 0.19701,-0.56369 -0.0362,-1.03993 -0.53279,-1.08808 l -0.41066,-0.0398 v 0.77848 0.77847 l 0.41066,-0.0398 c 0.3162,-0.0306 0.43876,-0.1202 0.53279,-0.38924 z m 6.55323,-0.41295 c 0,-0.98826 0.0345,-1.20709 0.19058,-1.20709 0.15605,0 0.1906,0.21883 0.1906,1.20709 0,0.98826 -0.0345,1.20709 -0.1906,1.20709 -0.15603,0 -0.19058,-0.21883 -0.19058,-1.20709 z m 6.88729,0.34942 c 0.0479,-1.09239 0.27924,-1.07088 0.32927,0.0306 0.0312,0.68729 0.003,0.82705 -0.16462,0.82705 -0.16865,0 -0.19598,-0.14237 -0.16465,-0.85766 z m 4.44717,0.0166 0.0376,-0.84103 0.47649,-0.0423 c 0.51779,-0.046 0.69299,0.24045 0.22235,0.36352 -0.21217,0.0555 -0.25413,0.17332 -0.25413,0.71366 0,0.56732 -0.0321,0.64721 -0.25993,0.64721 -0.23947,0 -0.25696,-0.0662 -0.22235,-0.84103 z m -4.47313,-1.25549 c 0,-0.10483 0.0858,-0.1906 0.19061,-0.1906 0.1048,0 0.19058,0.0858 0.19058,0.1906 0,0.10482 -0.0858,0.19059 -0.19058,0.19059 -0.10483,0 -0.19061,-0.0858 -0.19061,-0.19059 z m -5.43189,-6.24666 c -0.24699,-0.0997 -0.18754,-0.9622 0.11316,-1.642 0.14959,-0.33819 0.48135,-0.96012 0.73723,-1.38206 0.40053,-0.6605 0.4581,-0.8511 0.41405,-1.37072 -0.0282,-0.33195 -0.0914,-0.60355 -0.14063,-0.60355 -0.0492,0 -0.30072,-0.19354 -0.55898,-0.43008 -0.3723,-0.34102 -0.46953,-0.52345 -0.46953,-0.88088 0,-0.33581 -0.0634,-0.4709 -0.24855,-0.52966 -0.38391,-0.12185 -0.89501,-0.80752 -0.89501,-1.20072 0,-0.38348 -0.90511,-1.53289 -1.20708,-1.53289 -0.24638,0 -1.07995,1.18942 -1.0805,1.54177 0,0.40739 -0.4304,1.08485 -0.75314,1.18728 -0.1969,0.0625 -0.26289,0.1903 -0.26289,0.50906 0,0.33898 -0.10181,0.51182 -0.5002,0.8491 -0.41468,0.35108 -0.50604,0.51374 -0.53435,0.95129 -0.0276,0.42703 0.0532,0.65938 0.42344,1.21699 0.81579,1.22868 1.13662,1.97411 1.09445,2.54297 -0.0212,0.28647 -0.10472,0.54256 -0.1855,0.56909 -0.0808,0.0265 -0.3524,-0.13218 -0.60357,-0.3527 -0.33406,-0.29333 -0.45664,-0.50354 -0.45664,-0.78311 0,-0.41078 -0.89927,-1.62452 -1.20362,-1.62452 -0.27789,0 -1.11551,1.13088 -1.11249,1.50198 0.006,0.71172 -0.79095,1.5084 -1.23441,1.23432 -0.35351,-0.21848 -0.0681,-1.21205 0.76599,-2.66676 0.81201,-1.41617 0.81357,-1.87106 0.009,-2.55999 -0.45159,-0.38655 -0.52014,-0.52014 -0.59767,-1.1649 -0.0482,-0.40055 -0.17208,-0.82474 -0.2754,-0.94263 -0.22199,-0.25328 -0.11782,-0.48449 0.21823,-0.48449 0.26297,0 0.41651,0.18359 0.47654,0.56974 0.0696,0.44765 0.47061,1.14453 0.68093,1.18324 0.12756,0.0235 0.26506,-0.10856 0.3655,-0.35104 0.22915,-0.55326 0.71958,-0.65341 1.09013,-0.22262 0.15534,0.1806 0.30388,0.39265 0.33007,0.47123 0.10589,0.31769 0.48697,-0.0605 0.68204,-0.67691 0.27369,-0.86477 0.81831,-2.0304 1.31255,-2.80915 0.28337,-0.4465 0.39883,-0.78231 0.39883,-1.16002 0,-0.47592 -0.0599,-0.58067 -0.57179,-1.00013 -0.44199,-0.36218 -0.57176,-0.5534 -0.57176,-0.84245 0,-0.23146 -0.10531,-0.45816 -0.27636,-0.59504 -0.67522,-0.54026 -0.8672,-0.79625 -0.8672,-1.156278 0,-0.456453 -0.93165,-1.659368 -1.29159,-1.667655 -0.0465,-0.0011 -0.31806,0.291412 -0.60354,0.649959 -0.36833,0.462606 -0.51906,0.772407 -0.51906,1.066867 0,0.317127 -0.10753,0.509367 -0.45609,0.815417 -0.54044,0.47451 -0.81452,0.36381 -0.81452,-0.32898 0,-0.410349 0.69228,-1.939487 1.24714,-2.754673 0.32462,-0.476941 0.23704,-1.45895 -0.1547,-1.734638 -0.62402,-0.43915 -0.83833,-0.791284 -0.83833,-1.377479 0,-0.351906 -0.0799,-0.6633 -0.20598,-0.802616 -0.26361,-0.291264 -0.1342,-0.649163 0.21529,-0.595429 0.19759,0.03038 0.32946,0.233648 0.52102,0.80305 0.35285,1.048766 0.67839,1.239743 0.97419,0.571495 0.2422,-0.547172 0.7411,-0.645316 1.10861,-0.21808 0.15533,0.180602 0.30387,0.392655 0.33007,0.471231 0.11572,0.347186 0.50196,-0.07595 0.7212,-0.790088 0.24362,-0.793658 0.47654,-1.049722 0.78271,-0.860505 0.14746,0.09114 0.15074,0.163248 0.0185,0.410186 -0.0882,0.164783 -0.20613,0.636956 -0.26207,1.049269 -0.0874,0.644266 -0.16605,0.804275 -0.55911,1.138105 -0.38746,0.329084 -0.4613,0.475811 -0.48313,0.960218 -0.0222,0.495485 0.0608,0.704003 0.62344,1.562711 0.35705,0.545013 0.68749,1.116791 0.73432,1.270619 0.0469,0.153829 0.15547,0.365456 0.24141,0.470281 0.0859,0.104823 0.23018,0.464503 0.32056,0.799273 0.16034,0.59381 0.62744,1.0709 0.73438,0.75007 0.0254,-0.0764 0.16349,-0.28788 0.30671,-0.46996 0.36414,-0.46295 0.86497,-0.3929 1.12035,0.15672 0.10483,0.22561 0.22254,0.41144 0.26159,0.41295 0.23323,0.009 0.51112,-0.39868 0.64765,-0.95021 0.0865,-0.34942 0.26035,-0.753352 0.38637,-0.897624 0.12602,-0.144272 0.22913,-0.308565 0.22913,-0.365096 0,-0.05653 0.2512,-0.516514 0.55819,-1.022189 0.49911,-0.822126 0.55126,-0.980873 0.49271,-1.500288 -0.0543,-0.481959 -0.1478,-0.64703 -0.54885,-0.969335 -0.42781,-0.343784 -0.4935,-0.472646 -0.57142,-1.120574 -0.0485,-0.402664 -0.17709,-0.83353 -0.28589,-0.957477 -0.14052,-0.160088 -0.15843,-0.264744 -0.0618,-0.361336 0.28218,-0.282175 0.57428,-0.04487 0.84765,0.688623 0.35988,0.965716 0.74406,1.250889 0.89183,0.662051 0.0436,-0.173826 0.21754,-0.406601 0.38645,-0.517276 0.38573,-0.252746 0.73292,-0.09478 0.95149,0.432914 0.22262,0.537435 0.57841,0.393668 0.8263,-0.333904 0.109,-0.319866 0.19817,-0.681892 0.19817,-0.8045 0,-0.271127 0.4786,-0.447591 0.67667,-0.249502 0.10578,0.105764 0.10287,0.206888 -0.0111,0.389493 -0.0847,0.135652 -0.19164,0.566653 -0.2376,0.957778 -0.0708,0.602234 -0.15748,0.782884 -0.5661,1.179637 -0.66482,0.645493 -0.71514,1.303845 -0.15915,2.081652 0.215,0.300794 0.54793,0.861377 0.7398,1.245737 0.19188,0.384363 0.41826,0.784609 0.50306,0.889436 0.0848,0.10483 0.22714,0.44789 0.31631,0.76237 0.26006,0.91727 0.66352,1.18909 0.88812,0.59832 0.27297,-0.71794 1.00079,-0.76849 1.30096,-0.0904 0.0929,0.20981 0.20116,0.38147 0.24061,0.38147 0.24419,0 0.51774,-0.40873 0.66593,-0.9949 0.0941,-0.3725 0.22431,-0.715562 0.28927,-0.762377 0.065,-0.04682 0.22225,-0.31383 0.34954,-0.593365 0.12729,-0.279538 0.46143,-0.892215 0.74253,-1.361507 0.45482,-0.759322 0.5013,-0.911053 0.42238,-1.378214 -0.0648,-0.383641 -0.21974,-0.64334 -0.57547,-0.964729 -0.42085,-0.380209 -0.49855,-0.537737 -0.57372,-1.163026 -0.0478,-0.397788 -0.17148,-0.819709 -0.2748,-0.937602 -0.22196,-0.253272 -0.11782,-0.484489 0.21823,-0.484489 0.26297,0 0.41653,0.183589 0.47654,0.569746 0.0682,0.438621 0.46895,1.144445 0.66702,1.174761 0.10482,0.01603 0.30585,-0.155488 0.44672,-0.381186 0.33059,-0.529666 0.71646,-0.587015 1.05489,-0.156773 0.14319,0.182023 0.27953,0.388527 0.30298,0.458904 0.0683,0.204933 0.43582,-5.29e-4 0.58449,-0.326975 0.075,-0.16464 0.17518,-0.506111 0.22259,-0.758825 0.0942,-0.502031 0.40487,-0.757529 0.69879,-0.574664 0.1469,0.0914 0.15349,0.163152 0.0329,0.357878 -0.083,0.133955 -0.19066,0.595188 -0.23929,1.024964 -0.0789,0.69765 -0.1398,0.825394 -0.56784,1.191799 -0.69284,0.593024 -0.72099,1.212517 -0.0978,2.151111 0.74747,1.125794 1.11934,1.95635 1.11934,2.500069 0,0.61962 -0.16065,0.73704 -0.60912,0.44517 -0.48826,-0.31774 -0.65262,-0.56856 -0.65881,-1.005227 -0.007,-0.475427 -1.01106,-1.632175 -1.31565,-1.515298 -0.27768,0.106558 -1.14559,1.404263 -1.04645,1.564674 0.13552,0.219241 -0.28509,0.884751 -0.69223,1.095291 -0.29723,0.15371 -0.37904,0.28117 -0.37904,0.59065 0,0.29831 -0.13957,0.53421 -0.57177,0.96642 -0.80724,0.80724 -0.78859,1.18211 0.13193,2.64829 0.38703,0.61648 0.77859,1.20872 0.8701,1.31609 0.0915,0.10738 0.24041,0.46927 0.33084,0.8042 0.0904,0.33493 0.28361,0.69246 0.42931,0.79451 0.24757,0.17341 0.27954,0.15703 0.48858,-0.25047 0.29737,-0.57958 0.66688,-0.6897 1.06365,-0.31695 0.16878,0.15854 0.30684,0.36406 0.30684,0.45671 0,0.18331 0.23461,0.21977 0.45807,0.0712 0.1265,-0.0841 0.42077,-0.82904 0.47906,-1.21272 0.0433,-0.28502 0.22153,-0.46891 0.45447,-0.46891 0.30459,0 0.42252,0.32082 0.18913,0.51452 -0.11795,0.0979 -0.18304,0.39564 -0.18304,0.83733 0,0.64647 -0.0325,0.71655 -0.57177,1.23328 -0.49207,0.47146 -0.57179,0.61911 -0.57179,1.05882 0,0.36375 0.10761,0.65951 0.37346,1.02651 0.77547,1.07051 1.17274,1.91499 1.19407,2.53835 0.018,0.52647 -0.014,0.61048 -0.24638,0.64365 -0.35936,0.0513 -1.06675,-0.75548 -1.06783,-1.21789 0,-0.3323 -0.89816,-1.55209 -1.14181,-1.55209 -0.0585,0 -0.33997,0.29336 -0.62543,0.65191 -0.36835,0.4626 -0.51906,0.7724 -0.51906,1.06686 0,0.31722 -0.10758,0.50939 -0.45667,0.81591 -0.25117,0.22053 -0.52276,0.37924 -0.60354,0.35271 -0.0808,-0.0265 -0.16441,-0.28557 -0.18581,-0.57562 -0.0436,-0.59049 0.21595,-1.26608 0.95181,-2.47744 0.65733,-1.08207 0.62008,-1.61588 -0.15978,-2.29016 -0.36836,-0.3185 -0.56251,-0.58964 -0.56251,-0.78557 0,-0.18538 -0.0946,-0.32922 -0.24855,-0.3781 -0.38671,-0.12274 -0.895,-0.80781 -0.895,-1.20631 0,-0.24995 -0.17415,-0.54638 -0.57277,-0.97498 l -0.57275,-0.61584 -0.57081,0.63183 c -0.42585,0.4714 -0.57079,0.7351 -0.57079,1.03851 0,0.43959 -0.52757,1.18855 -0.83719,1.18855 -0.11647,0 -0.17931,0.14046 -0.17931,0.40071 0,0.30261 -0.12102,0.51257 -0.4944,0.85767 -0.4083,0.3774 -0.50231,0.55651 -0.53993,1.02874 -0.0379,0.47567 0.0209,0.66789 0.35025,1.14356 1.05349,1.52187 1.5108,2.93525 1.01166,3.12679 -0.43103,0.1654 -1.25531,-0.72931 -1.12633,-1.22257 0.0415,-0.15873 -0.13557,-0.44713 -0.54009,-0.8796 -0.33102,-0.35389 -0.64635,-0.64344 -0.70072,-0.64344 -0.0544,0 -0.33245,0.29336 -0.61794,0.65191 -0.36833,0.4626 -0.51906,0.7724 -0.51906,1.06686 0,0.31594 -0.10718,0.50907 -0.44913,0.80931 -0.24701,0.21689 -0.46143,0.38983 -0.47649,0.38432 -0.0151,-0.005 -0.0988,-0.0389 -0.18616,-0.0741 z m 0.70884,-1.18647 c 0.0819,0 0.14883,-0.0775 0.14883,-0.17232 0,-0.0948 0.20203,-0.43693 0.44897,-0.76033 0.44,-0.57625 0.44466,-0.59463 0.23225,-0.91878 l -0.21672,-0.33076 -0.30594,0.48755 c -0.41785,0.66589 -0.91818,1.71951 -0.91969,1.93669 0,0.14159 0.0468,0.13502 0.23112,-0.0318 0.12779,-0.11565 0.29932,-0.21028 0.38118,-0.21028 z m -8.36454,-0.50825 c 0.006,-0.10482 0.17976,-0.38855 0.38656,-0.63051 0.43802,-0.51244 0.4595,-0.65222 0.14417,-0.9376 -0.22042,-0.19949 -0.26112,-0.15434 -0.8259,0.91685 -0.32673,0.61968 -0.59404,1.18862 -0.59404,1.26431 0,0.20979 0.87715,-0.39494 0.88921,-0.61305 z m 11.76952,-0.29736 c -0.24757,-0.44266 -0.55579,-0.93536 -0.68498,-1.09489 l -0.23485,-0.29004 -0.20838,0.318 c -0.20177,0.30797 -0.19452,0.33417 0.22952,0.82959 0.24085,0.28136 0.43918,0.58825 0.44077,0.68197 0.003,0.19853 0.80248,0.63223 0.86551,0.46973 0.0233,-0.0602 -0.16005,-0.4717 -0.40759,-0.91436 z m -8.26477,0.61094 c -0.0919,-0.36621 -1.09958,-2.09244 -1.22145,-2.09244 -0.044,0 -0.15517,0.1403 -0.24696,0.31177 -0.15171,0.28349 -0.13163,0.3519 0.22146,0.75403 0.21354,0.24323 0.42577,0.56036 0.47159,0.70472 0.0458,0.14436 0.15822,0.26247 0.2498,0.26247 0.0915,0 0.23764,0.0858 0.32464,0.19059 0.22931,0.27632 0.29279,0.23489 0.20092,-0.13114 z m 13.5,-0.0594 c 0.0819,0 0.14883,-0.0775 0.14883,-0.17232 0,-0.0948 0.2056,-0.44158 0.45688,-0.77069 0.44564,-0.58362 0.45119,-0.60467 0.22532,-0.85423 -0.23151,-0.25583 -0.23159,-0.25582 -0.47088,0.0397 -0.33163,0.40953 -0.97369,1.70477 -0.97369,1.96421 0,0.19918 0.0159,0.19943 0.23235,0.004 0.1278,-0.11566 0.29935,-0.21029 0.38119,-0.21029 z m 3.53004,-0.46643 c -0.17494,-0.33747 -0.48437,-0.85925 -0.68762,-1.15949 l -0.36955,-0.54589 -0.21698,0.33114 c -0.21339,0.32569 -0.20953,0.33939 0.23566,0.83215 0.24895,0.27555 0.45485,0.57231 0.45752,0.65947 0.006,0.18222 0.80116,0.72587 0.86003,0.58774 0.0214,-0.0503 -0.10414,-0.36763 -0.27906,-0.70512 z m -10.36963,-1.4395 c 0.12229,-0.22847 0.0966,-0.25412 -0.2541,-0.25412 -0.35076,0 -0.37643,0.0256 -0.25414,0.25412 0.0748,0.13977 0.18916,0.25413 0.25414,0.25413 0.065,0 0.17931,-0.11436 0.2541,-0.25413 z m -8.51315,-0.26968 c 0,-0.0613 -0.18039,-0.1115 -0.40087,-0.1115 -0.39259,0 -0.39614,0.005 -0.17132,0.25367 0.17516,0.19354 0.27019,0.21998 0.4009,0.1115 0.0942,-0.0782 0.17129,-0.19234 0.17129,-0.25367 z m 17.15336,0.0156 c 0.12213,-0.22818 0.0966,-0.25412 -0.24963,-0.25412 -0.41024,0 -0.48102,0.10796 -0.23321,0.35577 0.21439,0.21439 0.32631,0.19083 0.48284,-0.10165 z m -8.15536,-0.87924 c 0.022,-0.30887 0.006,-0.69608 -0.0349,-0.86047 -0.0648,-0.25818 -0.11099,-0.27961 -0.33938,-0.15739 -0.14703,0.0787 -0.45585,0.10557 -0.69572,0.0606 l -0.43135,-0.0809 v 0.74696 c 0,0.41082 0.0407,0.78763 0.0904,0.83736 0.0497,0.0497 0.37849,0.0735 0.7306,0.0529 l 0.64018,-0.0375 z m -8.68034,-0.39138 c 0,-0.67403 -0.035,-0.81572 -0.19058,-0.77055 -0.10483,0.0305 -0.33354,0.0554 -0.50827,0.0554 -0.1747,0 -0.40341,-0.0249 -0.50823,-0.0554 -0.14523,-0.0422 -0.20016,0.0783 -0.23072,0.50623 -0.022,0.30888 -0.006,0.69775 0.0358,0.86417 0.0695,0.27709 0.13179,0.29936 0.73896,0.26432 l 0.66302,-0.0383 z m 17.25112,0.60234 c 0.0338,-0.088 0.0337,-0.44829 -1.3e-4,-0.8006 l -0.0616,-0.64056 -0.68498,0.006 -0.68498,0.007 -1.3e-4,0.79413 -1.1e-4,0.79414 h 0.68525 c 0.43373,0 0.70778,-0.0587 0.74665,-0.16003 z m -10.22622,-1.29255 c 0.12853,-0.28214 0.10945,-0.3159 -0.21937,-0.38812 -0.28943,-0.0636 -0.41098,-0.20869 -0.61915,-0.73924 l -0.25903,-0.66014 0.0704,0.69884 c 0.0514,0.50992 0.15828,0.79331 0.39547,1.04827 0.3977,0.42746 0.45369,0.43104 0.6317,0.0404 z m 2.33756,-0.0404 c 0.23805,-0.25587 0.34346,-0.53653 0.3937,-1.04826 l 0.0686,-0.69884 -0.19164,0.54514 c -0.15462,0.43995 -0.46887,0.78441 -0.89257,0.97846 -0.0672,0.0308 0.12996,0.57292 0.20836,0.57292 0.0487,0 0.23476,-0.15724 0.41354,-0.34942 z m -10.91927,-0.0972 c 0.0494,-0.2585 0,-0.33464 -0.25326,-0.39846 -0.20492,-0.0514 -0.40076,-0.26084 -0.56261,-0.60163 l -0.24828,-0.52274 0.0591,0.63093 c 0.047,0.50181 0.13319,0.69021 0.42106,0.92057 0.45678,0.36553 0.50914,0.36296 0.58399,-0.0287 z m 2.69227,-1.07811 0.0685,-0.69885 -0.20913,0.59646 c -0.15036,0.4289 -0.30824,0.63752 -0.562,0.74263 -0.31763,0.13157 -0.33869,0.17729 -0.21082,0.45793 l 0.14206,0.31177 0.35147,-0.35555 c 0.27027,-0.2734 0.36729,-0.51701 0.41995,-1.05439 z m 14.54777,0.81866 c 0.005,-0.0739 -0.14129,-0.18822 -0.32488,-0.25412 -0.22593,-0.0811 -0.4099,-0.30463 -0.56918,-0.6916 l -0.23537,-0.57179 0.0744,0.69885 c 0.0616,0.57873 0.14306,0.75744 0.47387,1.03982 0.35216,0.30058 0.40973,0.31563 0.48585,0.12706 0.0475,-0.11765 0.0904,-0.27435 0.0953,-0.34822 z m 2.32084,0.11053 c 0.29427,-0.28194 0.35412,-0.44245 0.34341,-0.9212 l -0.013,-0.57977 -0.13568,0.42417 c -0.0746,0.2333 -0.28321,0.51618 -0.46352,0.62862 -0.18031,0.11244 -0.34735,0.21744 -0.37118,0.23333 -0.0702,0.0467 0.11649,0.55628 0.2038,0.55628 0.0439,0 0.24014,-0.15365 0.43614,-0.34143 z m -10.73906,-0.66934 c 0.0929,-0.24617 0.26302,-0.40589 0.494,-0.46387 0.35467,-0.089 0.51824,0.0302 0.88119,0.64227 0.21239,0.35808 0.54351,0.0956 0.7674,-0.60817 0.2168,-0.68152 0.90064,-2.08847 1.41383,-2.90881 0.19386,-0.30991 0.29649,-0.66745 0.29649,-1.03296 0,-0.50839 -0.0517,-0.60141 -0.57179,-1.02752 -0.47747,-0.39126 -0.57176,-0.54114 -0.57176,-0.90873 0,-0.30475 -0.0684,-0.46425 -0.22236,-0.51837 -0.4626,-0.16262 -0.9212,-0.71619 -0.92202,-1.112949 0,-0.425775 -0.89051,-1.596268 -1.21319,-1.596268 -0.0978,0 -0.41154,0.295738 -0.69726,0.657196 -0.39706,0.502346 -0.50139,0.729247 -0.44273,0.962981 0.0608,0.24217 -0.0304,0.41291 -0.4382,0.82074 -0.28324,0.28323 -0.54967,0.65324 -0.59209,0.82225 -0.0424,0.16902 -0.29892,0.48554 -0.57001,0.70338 -0.43217,0.34731 -0.49287,0.46219 -0.49287,0.9329 0,0.43141 0.13801,0.75661 0.70292,1.65641 0.38661,0.61579 0.73586,1.25092 0.77613,1.41139 0.0403,0.16048 0.11708,0.29178 0.17065,0.29178 0.0536,0 0.13111,0.16849 0.17227,0.37443 0.23932,1.19653 0.77579,1.65327 1.0594,0.90192 z m -1.61076,-1.50886 c 0,-0.0497 -0.26159,-0.53736 -0.58134,-1.08357 -0.56335,-0.96239 -0.58891,-0.98626 -0.8259,-0.77179 -0.32382,0.29305 -0.31697,0.32535 0.20016,0.94431 0.2446,0.29276 0.44471,0.59909 0.44471,0.68074 0,0.0816 0.12867,0.20839 0.28591,0.28167 0.28892,0.13466 0.47646,0.11444 0.47646,-0.0514 z m 5.04563,0.0102 c 0.0452,-0.1223 0.27411,-0.47614 0.50858,-0.7863 l 0.42635,-0.56393 -0.25678,-0.25677 c -0.25458,-0.25459 -0.25834,-0.25466 -0.44182,-0.008 -0.10179,0.1369 -0.34066,0.55421 -0.53081,0.92735 -0.287,0.56309 -0.3152,0.69777 -0.16603,0.79219 0.26435,0.16734 0.36867,0.14362 0.46051,-0.1047 z m 2.95825,-1.06481 c -0.5117,-0.86134 -0.53811,-0.88431 -0.77263,-0.67207 -0.32192,0.29132 -0.31486,0.32423 0.20187,0.94274 0.24461,0.29276 0.44474,0.60845 0.44474,0.70154 0,0.2328 0.42048,0.30266 0.55028,0.0914 0.0689,-0.11214 -0.0784,-0.48152 -0.42426,-1.06363 z m -11.5616,0.84712 c 0,-0.0873 0.19767,-0.4176 0.43926,-0.73401 l 0.43926,-0.57529 -0.26014,-0.23544 c -0.25363,-0.22952 -0.2649,-0.22909 -0.44939,0.017 -0.10411,0.13884 -0.33089,0.52856 -0.50401,0.86603 -0.24053,0.4689 -0.2809,0.65437 -0.17118,0.78658 0.16393,0.19753 0.5062,0.1131 0.5062,-0.12487 z m 10.26253,-1.72001 c 0.14549,-0.23298 0.12689,-0.25412 -0.22358,-0.25412 -0.40703,0 -0.47709,0.10845 -0.22976,0.35577 0.20743,0.20744 0.26892,0.19366 0.45334,-0.10165 z m -8.61074,-0.26968 c 0,-0.0613 -0.14292,-0.11151 -0.31766,-0.11151 -0.34541,0 -0.40208,0.11885 -0.16819,0.35275 0.15581,0.15581 0.48585,-0.008 0.48585,-0.24124 z m 8.9961,-1.11159 0.0382,-0.80949 -0.44939,0.0843 c -0.2521,0.0473 -0.56176,0.0242 -0.7053,-0.0526 -0.24405,-0.13061 -0.25591,-0.0995 -0.25591,0.67224 0,0.44506 0.0408,0.84995 0.0906,0.89976 0.0498,0.0498 0.34999,0.0736 0.66707,0.0529 l 0.5765,-0.0376 z m -8.63946,-10e-4 c 0.0526,-0.92175 -0.0108,-1.06018 -0.41564,-0.90631 -0.1991,0.0757 -0.43939,0.0779 -0.62902,0.006 -0.38592,-0.14672 -0.48461,0.0604 -0.38129,0.80013 0.12065,0.86393 0.12181,0.86516 0.78213,0.82282 l 0.60484,-0.0388 z m 7.05797,-0.79708 c 0.0693,-0.28941 0.0289,-0.3553 -0.2853,-0.46483 -0.27086,-0.0944 -0.4168,-0.27109 -0.56111,-0.67928 -0.10726,-0.30341 -0.19817,-0.43731 -0.20203,-0.29754 -0.0156,0.56578 0.23053,1.21022 0.57557,1.50721 0.2004,0.17246 0.37058,0.30414 0.37823,0.29261 0.008,-0.0115 0.0502,-0.1727 0.0946,-0.35817 z m 2.62845,-0.37127 c 0.067,-0.12527 0.11739,-0.47454 0.11186,-0.77614 l -0.01,-0.54837 -0.19503,0.55167 c -0.14303,0.40458 -0.29088,0.58509 -0.55451,0.67698 -0.32128,0.112 -0.34496,0.15717 -0.22291,0.42503 0.12946,0.28415 0.15245,0.2893 0.44262,0.0992 0.16836,-0.1103 0.36095,-0.30305 0.42799,-0.42833 z m -11.28369,0.20613 c 0.048,-0.25103 -0.008,-0.33539 -0.28837,-0.43306 -0.24754,-0.0863 -0.40727,-0.28052 -0.55345,-0.67297 l -0.2055,-0.55167 0.0495,0.6132 c 0.0368,0.4564 0.14044,0.70821 0.40536,0.98473 0.43329,0.45226 0.51589,0.4606 0.59251,0.0598 z m 2.75535,-1.07908 -0.0101,-0.57862 -0.18687,0.52722 c -0.13087,0.36918 -0.29681,0.57274 -0.55356,0.67909 -0.3306,0.13694 -0.3528,0.1823 -0.22577,0.46109 l 0.14089,0.30922 0.4227,-0.40969 c 0.36187,-0.35075 0.42124,-0.49293 0.41264,-0.98831 z m -7.89813,-1.277457 c 0.0771,0 0.18084,-0.127823 0.23042,-0.284049 0.0496,-0.156226 0.26146,-0.497242 0.47088,-0.757811 0.37423,-0.465699 0.37693,-0.479552 0.15801,-0.813673 l -0.22273,-0.339908 -0.38065,0.611571 c -0.40357,0.648391 -0.86093,1.640859 -0.86093,1.868217 0,0.0749 0.10459,0.0416 0.23238,-0.0741 0.1278,-0.115655 0.29546,-0.210283 0.37262,-0.210283 z m 8.72368,0.176998 c 0.11054,-0.04242 0.20098,-0.16284 0.20098,-0.267605 0,-0.104764 0.17153,-0.407058 0.38118,-0.671766 0.44318,-0.559557 0.45098,-0.60171 0.16907,-0.913231 -0.20465,-0.226134 -0.22056,-0.222006 -0.45101,0.117057 -0.48588,0.714873 -0.7457,1.323229 -0.66873,1.565773 0.0877,0.276271 0.0892,0.276951 0.36851,0.169772 z m 3.67379,-0.0074 c 0.12737,-0.127357 -1.01687,-2.072888 -1.22018,-2.074687 -0.0539,-5.3e-4 -0.1638,0.143504 -0.24421,0.319963 -0.12964,0.284554 -0.10218,0.367175 0.24284,0.730607 0.21394,0.225375 0.42658,0.534747 0.47252,0.687496 0.0716,0.237945 0.20489,0.32971 0.59041,0.40638 0.0408,0.008 0.11216,-0.0233 0.15862,-0.06976 z m 8.48474,-0.889783 c -0.20992,-0.407582 -0.48932,-0.899213 -0.6209,-1.092515 l -0.23918,-0.351456 -0.23855,0.263599 c -0.16515,0.18247 -0.20111,0.316174 -0.11684,0.434425 0.0669,0.09396 0.29324,0.426397 0.50289,0.738759 0.36783,0.548018 0.97536,1.0322 1.05537,0.841089 0.0214,-0.05106 -0.13287,-0.426321 -0.34279,-0.833901 z m -3.51621,0.7233 c 0.17926,-0.06815 0.32594,-0.199835 0.32594,-0.292624 0,-0.09279 0.18135,-0.415309 0.40299,-0.716714 0.31168,-0.423789 0.37333,-0.595074 0.27204,-0.755637 -0.072,-0.114197 -0.20624,-0.207629 -0.29826,-0.207629 -0.16896,0 -1.13353,1.643589 -1.13718,1.937695 -0.003,0.191124 0.019,0.192846 0.43447,0.03491 z m -13.79273,-0.543034 c -0.15076,-0.297008 -0.44164,-0.784608 -0.64643,-1.083561 l -0.37232,-0.543547 -0.2346,0.289422 c -0.23183,0.285967 -0.22945,0.295752 0.19912,0.819058 0.23855,0.291296 0.43373,0.58864 0.43373,0.66076 0,0.167108 0.37711,0.388993 0.66966,0.394017 0.2073,0.0036 0.20344,-0.03848 -0.0492,-0.536149 z m 6.9355,-1.724366 c -0.10089,-0.02244 -0.30014,-0.02244 -0.44281,0 -0.24759,0.03895 -0.24968,0.0545 -0.0463,0.343194 l 0.21313,0.302395 0.22968,-0.302395 c 0.18942,-0.249357 0.19751,-0.309555 0.0462,-0.343194 z m -8.72495,0.205975 c 0.2473,-0.247319 0.17727,-0.355772 -0.22979,-0.355772 -0.35047,0 -0.36907,0.02114 -0.22358,0.254125 0.18442,0.295306 0.24591,0.309091 0.45337,0.101647 z m 17.40746,0 c 0.24734,-0.247319 0.17727,-0.355772 -0.22979,-0.355772 -0.35044,0 -0.36904,0.02114 -0.22354,0.254125 0.18441,0.295306 0.2459,0.309091 0.45333,0.101647 z m -8.38549,-0.464801 c 0.11319,-0.07179 0.15349,-0.338646 0.12705,-0.841396 l -0.0387,-0.736262 -0.69885,-4.7e-5 -0.69882,-4.8e-5 -0.0388,0.663112 c -0.0222,0.379442 0.0251,0.740233 0.11084,0.843391 0.16205,0.195255 0.9685,0.241697 1.23724,0.07125 z m -8.51172,-0.770217 c 0.022,-0.308872 0.006,-0.696084 -0.0349,-0.860467 -0.0648,-0.258186 -0.11102,-0.279614 -0.33938,-0.157387 -0.14703,0.07868 -0.45588,0.105568 -0.69573,0.06057 l -0.43135,-0.08092 v 0.746954 c 0,0.410823 0.0407,0.78764 0.0904,0.837369 0.0497,0.04973 0.37849,0.07355 0.73059,0.05294 l 0.64019,-0.03747 z m 17.36735,-0.264316 c 0,-0.674031 -0.0351,-0.815724 -0.1906,-0.770546 -0.10483,0.03045 -0.33354,0.05536 -0.50824,0.05536 -0.17471,0 -0.40341,-0.02492 -0.50824,-0.05536 -0.14957,-0.04344 -0.19899,0.09183 -0.22958,0.628338 -0.0567,0.994299 -0.013,1.051504 0.76817,1.006565 l 0.66849,-0.03845 z m -10.32174,-0.623866 c 0.0474,-0.181367 -0.029,-0.285372 -0.28879,-0.392988 -0.21775,-0.0902 -0.42688,-0.325393 -0.54507,-0.613008 l -0.19174,-0.466659 -0.0124,0.547174 c -0.0103,0.460611 0.0514,0.605406 0.39063,0.915233 0.43249,0.395034 0.54626,0.396833 0.64733,0.01024 z m 2.34995,-0.04321 c 0.17674,-0.18854 0.29266,-0.523857 0.34041,-0.984729 l 0.0724,-0.698841 -0.20267,0.542686 c -0.13219,0.353857 -0.33208,0.609592 -0.57454,0.734973 -0.31509,0.162939 -0.35145,0.230402 -0.23818,0.442042 0.17156,0.320559 0.27395,0.314418 0.60256,-0.03613 z M 135.90232,95.01371 c -0.21063,-0.08857 -0.44397,-0.332412 -0.54969,-0.574435 l -0.18368,-0.420542 -0.0103,0.52872 c -0.009,0.444325 0.054,0.582848 0.39267,0.867846 l 0.40304,0.33913 0.15703,-0.293412 c 0.14301,-0.267227 0.12436,-0.307144 -0.20899,-0.447307 z m 2.97411,-0.677321 0.0724,-0.698841 -0.19725,0.545142 c -0.11147,0.308076 -0.34385,0.636702 -0.53438,0.755682 -0.18542,0.115795 -0.35605,0.222946 -0.37917,0.238112 -0.023,0.01516 0.0257,0.154112 0.10843,0.308769 l 0.15049,0.281193 0.35359,-0.365609 c 0.26913,-0.278283 0.37087,-0.532521 0.42593,-1.064448 z m 14.7294,1.0286 c 0.0477,-0.18215 -0.0164,-0.266256 -0.24699,-0.324117 -0.20658,-0.05185 -0.39314,-0.258324 -0.55446,-0.61367 l -0.2431,-0.535529 -0.003,0.552566 c -0.003,0.456073 0.066,0.616852 0.39132,0.920713 0.42024,0.392554 0.55341,0.392562 0.65604,3.7e-5 z m 2.69997,-1.033894 0.0596,-0.693547 -0.2096,0.596458 c -0.15245,0.433756 -0.30811,0.637257 -0.5707,0.746022 -0.41053,0.170048 -0.41056,0.170072 -0.22088,0.52446 0.13756,0.257037 0.14716,0.254989 0.5111,-0.108945 0.29477,-0.294786 0.38314,-0.513233 0.4305,-1.064448 z m -28.01892,-4.89464 v -1.723387 l 0.40475,0.03982 c 0.38299,0.03767 0.43083,0.104185 0.88845,1.235324 0.26601,0.657529 0.50435,1.216189 0.52962,1.241462 0.0254,0.02527 0.27619,-0.512704 0.5576,-1.195509 0.48104,-1.167181 0.53539,-1.243844 0.90803,-1.281277 l 0.39634,-0.03982 v 1.723387 c 0,1.638679 -0.0124,1.723388 -0.25413,1.723388 -0.23799,0 -0.2545,-0.08669 -0.26006,-1.365917 l -0.006,-1.365917 -0.54055,1.334151 c -0.74549,1.839942 -0.89656,1.849811 -1.55749,0.101727 l -0.49485,-1.308814 -0.0362,1.302385 c -0.0333,1.197663 -0.0563,1.302385 -0.28591,1.302385 -0.2359,0 -0.24966,-0.09493 -0.24966,-1.723388 z" />
      <path
         style="fill:#ff0000;stroke:#000000;stroke-width:0.0115809"
         d="m 569.636,386.92771 c -1.44953,0.25736 -2.96095,0.10174 -4.39668,-0.009 0.14514,1.86472 -0.26808,3.89082 0.28228,5.68371 1.35249,0.4712 2.94928,0.26107 4.3519,0.0719 0.31912,-1.93726 0.34712,-3.98437 0.43202,-5.92301 -0.22317,0.0587 -0.44634,0.11732 -0.66952,0.17597 z"
         id="path2307"
         transform="scale(0.26458333)" class="OC" />
      <path
         style="fill:#ff0000;stroke:#000000;stroke-width:0.00226771"
         d="m 574.56323,380.40015 c -0.42732,1.12301 -0.73428,2.30304 -1.3306,3.35312 -0.37138,0.60243 -0.95503,1.05719 -1.63295,1.26391 -0.32738,0.16257 -0.8371,0.25213 -0.92097,0.67179 0.006,0.51413 0.2829,0.98484 0.5229,1.42547 0.11474,0.21407 0.37072,0.41791 0.61707,0.27523 0.90713,-0.45601 1.74402,-1.1105 2.31493,-1.95803 0.44817,-0.84996 0.44697,-1.84898 0.47896,-2.78637 0.003,-0.75181 0.0164,-1.51098 -0.009,-2.25805 l -0.0244,-0.003 z"
         id="path2362"
         transform="scale(0.26458333)" class="OC" />
      <path
         style="fill:#ff0000;stroke:#000000;stroke-width:0.00226771"
         d="m 560.38834,381.08622 c -0.11543,0.17387 -0.0371,0.43661 -0.0596,0.64053 0.0328,1.54506 0.52684,3.08309 1.38333,4.36784 0.54143,0.76505 1.2943,1.35458 2.05078,1.89354 0.0953,0.0961 0.21124,0.0465 0.21322,-0.0904 0.16591,-0.65138 0.38289,-1.31 0.38338,-1.98771 -0.0182,-0.54809 -0.62968,-0.72291 -1.04563,-0.89796 -0.62784,-0.21728 -1.22243,-0.58253 -1.56056,-1.17239 -0.55292,-0.82801 -0.72318,-1.84465 -1.24945,-2.68343 -0.0294,-0.0335 -0.0668,-0.0737 -0.11551,-0.0701 z"
         id="path2363"
         transform="scale(0.26458333)" class="OC" />
      <path
         style="fill:#ff0000;stroke:#000000;stroke-width:0.00226771"
         d="m 567.85744,394.03451 c -0.42937,0.0288 -1.01578,-0.077 -1.29322,0.34113 -0.0947,0.36135 0.25014,0.64935 0.45753,0.90053 0.27288,0.24338 0.56332,0.65484 0.97795,0.57987 0.44509,-0.21622 0.65425,-0.71551 0.91666,-1.10847 0.091,-0.17873 0.33319,-0.46564 0.0946,-0.63422 -0.34731,-0.14926 -0.75428,-0.0462 -1.12358,-0.0789 z"
         id="path2364"
         transform="scale(0.26458333)" class="OC" />
      <path
         style="fill:#ff0000;stroke:#000000;stroke-width:0.00226771"
         d="m 564.12014,395.50454 c -0.32382,0.0662 -0.47841,0.42608 -0.67996,0.65285 -0.95294,1.40775 -1.73477,2.9249 -2.48527,4.44774 -0.21928,0.53776 -0.55764,1.0997 -0.47215,1.70131 0.10852,0.36303 0.53055,0.50088 0.831,0.66818 0.31821,0.17499 0.79273,0.15291 0.96679,-0.2126 0.43463,-0.89354 0.94069,-1.75029 1.52751,-2.55262 0.72183,-1.01788 1.48318,-2.00637 2.23362,-3.00301 -0.42985,-0.49543 -0.92731,-0.97331 -1.41706,-1.42824 -0.14634,-0.11602 -0.30471,-0.27261 -0.50448,-0.27361 z"
         id="path2365"
         transform="scale(0.26458333)" class="OC" />
      <path
         style="fill:#ff0000;stroke:#000000;stroke-width:0.00226771"
         d="m 571.49943,395.3 c -0.4586,0.0857 -0.76751,0.4997 -1.09931,0.79397 -0.28892,0.28301 -0.59002,0.70396 -0.36957,1.11747 0.41176,0.86796 1.12226,1.54679 1.69388,2.3075 0.52968,0.69981 1.10895,1.39089 1.44097,2.21092 0.0558,0.37158 0.20525,0.78008 0.59226,0.91833 0.53182,0.22687 1.31728,0.12462 1.57987,-0.44946 0.10151,-0.54806 -0.19385,-1.07504 -0.38507,-1.57119 -0.73603,-1.56862 -1.62663,-3.06293 -2.5797,-4.50832 -0.24356,-0.29745 -0.44899,-0.72476 -0.85208,-0.81922 l -0.0197,-8e-5 z"
         id="path2366"
         transform="scale(0.26458333)" class="OC" />
      <path
         style="fill:#0000ff;stroke:#000000;stroke-width:0.00669238"
         d="m 536.15253,386.32143 c -1.14659,0.40519 -2.34818,-0.0353 -3.5067,-0.016 -0.84179,0.59671 -0.36518,1.8273 -0.41377,2.68231 0.17461,1.11345 0.0486,2.55398 1.01112,3.33874 1.02837,0.33584 2.17121,-0.0113 3.23639,0.0207 0.35567,-0.0899 1.12328,0.15423 0.96053,-0.47819 0.0119,-1.74118 0.2668,-3.5164 0.0174,-5.24197 -0.30872,-0.73903 -0.63249,-0.50655 -1.30501,-0.3056 z"
         id="path2755"
         transform="scale(0.26458333)" class="IC" />
      <path
         style="fill:#0000ff;stroke:#000000;stroke-width:0.00669238"
         d="m 527.73033,380.59736 c 0.0497,1.90381 0.28796,4.00785 1.76356,5.38439 0.47846,0.38117 0.91792,1.16105 1.60433,1.09074 0.48521,-0.47951 0.52459,-1.37126 0.30089,-1.98889 -0.71386,-0.6805 -1.89476,-0.78815 -2.36926,-1.75779 -0.55707,-0.83914 -0.83474,-1.92138 -1.29952,-2.72845 z"
         id="path2756"
         transform="scale(0.26458333)" class="IC" />
      <path
         style="fill:#0000ff;stroke:#000000;stroke-width:0.00669238"
         d="m 541.86118,380.4243 c -0.70775,1.29422 -0.9225,3.05689 -2.37449,3.81491 -0.42813,0.34808 -1.21065,0.47154 -1.40461,1.02922 0.1146,0.64266 0.37615,1.37362 0.79969,1.84171 1.05848,-0.88964 2.04813,-1.94087 2.80164,-3.10333 0.22108,-1.16135 0.40388,-2.40657 0.21986,-3.5731 -0.0115,-0.01 -0.0276,-0.0141 -0.0421,-0.009 z"
         id="path2757"
         transform="scale(0.26458333)" class="IC" />
      <path
         style="fill:#0000ff;stroke:#000000;stroke-width:0.00427522"
         d="m 534.96182,393.56295 c -0.36736,0.007 -0.99817,0.0114 -1.06513,0.48331 0.20825,0.6052 0.86301,1.26997 1.54593,0.91934 0.36345,-0.19483 0.93631,-0.63184 0.71042,-1.09904 -0.28199,-0.32392 -0.7997,-0.29744 -1.19122,-0.30361 z"
         id="path2758"
         transform="scale(0.26458333)" class="IC" />
      <path
         style="fill:#0000ff;stroke:#000000;stroke-width:0.00427522"
         d="m 531.36396,395.01436 c -0.59046,0.31484 -0.86973,1.02052 -1.24767,1.54843 -0.80462,1.4107 -1.68793,2.81567 -2.16884,4.37593 -0.27247,0.76137 0.53089,1.59976 1.30528,1.34987 0.4911,-0.0504 0.71982,-0.54067 0.77522,-0.97145 0.7683,-1.79889 2.19251,-3.22656 3.26136,-4.82248 -0.61788,-0.4837 -1.13869,-1.14839 -1.86106,-1.47663 -0.0212,-0.004 -0.0428,-0.005 -0.0643,-0.004 z"
         id="path2759"
         transform="scale(0.26458333)" class="IC" />
      <path
         style="fill:#0000ff;stroke:#000000;stroke-width:0.00427522"
         d="m 538.79516,394.86573 c -0.58789,0.19311 -1.04273,0.72176 -1.3846,1.22295 -0.28086,0.5822 0.3346,1.11677 0.60373,1.57691 0.94508,1.28277 2.09086,2.46311 2.69804,3.9565 0.51189,0.67163 1.37568,1.13266 2.22596,1.11824 0.40701,0.0103 0.60668,-0.4511 0.36239,-0.76604 -1.03968,-2.18722 -2.30334,-4.26589 -3.60187,-6.30746 -0.24194,-0.29413 -0.47566,-0.77141 -0.90365,-0.8011 z"
         id="path2760"
         transform="scale(0.26458333)" class="IC" />
      <path
         style="fill:#ff6600;stroke:#000000;stroke-width:0.00427522"
         d="m 517.26473,411.2704 c -0.43526,0.12711 -0.40296,0.74749 -0.50826,1.1098 -0.17767,1.4577 -0.22398,2.98086 0.16892,4.40657 0.17392,0.60319 0.85595,0.73063 1.39963,0.66016 1.23262,-0.0494 2.49812,-0.0255 3.70625,-0.20975 -0.0498,-1.8227 0.10189,-3.66026 -0.11038,-5.47396 -0.0169,-0.40258 -0.43944,-0.58203 -0.78658,-0.43487 -1.27927,0.2087 -2.59575,0.13545 -3.86958,-0.058 z"
         id="path2761"
         transform="scale(0.26458333)" class="OR" />
      <path
         style="fill:#ff6600;stroke:#000000;stroke-width:0.00427522"
         d="m 512.25637,405.65583 c 0.0201,1.06064 0.18392,2.16681 0.33634,3.23414 0.15736,1.04071 0.86538,1.87102 1.69501,2.4689 0.44026,0.28491 0.8647,0.78282 1.42157,0.77776 0.41711,-0.25704 0.38565,-0.86968 0.48797,-1.29759 0.0989,-0.44743 -0.0335,-0.99954 -0.53039,-1.13277 -0.89297,-0.22628 -1.65571,-0.81791 -2.09849,-1.62681 -0.51027,-0.76375 -0.80327,-1.67719 -1.31201,-2.42363 z"
         id="path2762"
         transform="scale(0.26458333)" class="OR" />
      <path
         style="fill:#ff6600;stroke:#000000;stroke-width:0.00427522"
         d="m 518.6946,418.52308 c -0.18624,-0.025 -0.67222,0.0473 -0.45057,0.32983 0.40802,0.48764 0.82414,1.13711 1.49232,1.25418 0.50487,-0.1792 0.99446,-0.64112 1.09619,-1.17803 -0.21411,-0.40264 -0.81767,-0.30575 -1.20023,-0.38176 -0.31215,-0.0176 -0.62501,-0.032 -0.93771,-0.0242 z"
         id="path2763"
         transform="scale(0.26458333)" class="OR" />
      <path
         style="fill:#ff6600;stroke:#000000;stroke-width:0.00427522"
         d="m 515.96764,419.93324 c -0.54823,0.22428 -0.75896,0.89317 -1.09063,1.34357 -1.24122,2.22476 -2.43418,4.4854 -3.45046,6.82244 -0.13167,0.17897 -0.17622,0.66096 0.17685,0.53307 1.14497,-0.47469 2.22363,-1.23476 2.93705,-2.25986 0.49715,-1.69471 1.99745,-2.8161 2.769,-4.36318 0.3679,-0.69434 -0.23896,-1.35753 -0.73593,-1.77911 -0.17163,-0.13981 -0.36961,-0.30948 -0.60588,-0.29693 z"
         id="path2764"
         transform="scale(0.26458333)" class="OR" />
      <path
         style="fill:#ff6600;stroke:#000000;stroke-width:0.00427522"
         d="m 523.20345,419.45829 c -0.55601,0.64879 -1.17654,1.42998 -1.15715,2.32549 0.2835,0.9089 1.10097,1.52973 1.62485,2.29843 0.70582,0.81513 1.12725,1.8174 1.711,2.70942 0.41068,0.46552 1.15407,0.36514 1.54342,0.87977 0.32964,0.2546 0.59426,0.68743 0.99399,0.81028 0.23483,-0.29072 -0.01,-0.74468 -0.0524,-1.07565 -0.8469,-2.15459 -2.06486,-4.14381 -3.25217,-6.12442 -0.43353,-0.62191 -0.79331,-1.38319 -1.4115,-1.82332 z"
         id="path2765"
         transform="scale(0.26458333)" class="OR" />
      <path
         style="fill:#ff6600;stroke:#000000;stroke-width:0.00427522"
         d="m 526.48886,404.8771 c -0.58333,1.33785 -0.86553,2.8896 -1.90514,3.97229 -0.54705,0.51435 -1.39337,0.64205 -1.87158,1.22962 -0.0919,0.67952 0.39771,1.28913 0.62242,1.90113 0.12636,0.58571 0.51189,-0.13816 0.74868,-0.30489 1.01231,-1.00134 1.96718,-2.19723 2.12983,-3.6627 0.13433,-1.03866 0.29646,-2.08406 0.32122,-3.12977 -0.01,-0.0174 -0.0326,-0.0191 -0.0454,-0.006 z"
         id="path2766"
         transform="scale(0.26458333)" class="OR" />
      <path
         style="fill:#ffff00;stroke:#000000;stroke-width:0.00427522"
         d="m 548.55136,419.97432 c -1.77569,2.67619 -3.38457,5.50469 -4.47563,8.53709 -0.0414,0.2272 -0.28117,0.68848 0.0175,0.81714 0.64063,-0.26006 1.10088,-0.86215 1.75885,-1.11674 0.30037,-0.17237 0.74977,-0.10351 0.86774,-0.52221 0.55431,-1.92082 2.14015,-3.29564 3.05962,-5.02623 0.34661,-0.65681 -0.31712,-1.24439 -0.57702,-1.79802 -0.2131,-0.2806 -0.36237,-0.69559 -0.6511,-0.89103 z"
         id="path2767"
         transform="scale(0.26458333)" class="T" />
      <path
         style="fill:#ffff00;stroke:#000000;stroke-width:0.00427522"
         d="m 551.90858,419.02325 c -0.29612,0.066 -0.77919,-0.0796 -0.96911,0.21243 0.0219,0.6634 0.55739,1.22773 1.06046,1.60989 0.38307,0.11376 0.62748,-0.41521 0.84486,-0.64797 0.16377,-0.3057 0.5298,-0.68747 0.37124,-1.0481 -0.40409,-0.16638 -0.87854,-0.11138 -1.30745,-0.12625 z"
         id="path2768"
         transform="scale(0.26458333)" class="T" />
      <path
         style="fill:#ffff00;stroke:#000000;stroke-width:0.00427522"
         d="m 554.18965,411.61275 c -0.78481,0.15864 -1.52988,0.55339 -2.35405,0.49149 -0.86668,0.0261 -1.73962,-0.24459 -2.57014,-0.3148 0.0158,1.84387 -0.0522,3.70289 0.17,5.53625 0.004,0.42942 0.42965,0.53524 0.78021,0.526 1.42481,0.14426 2.86126,-0.006 4.2846,-0.0953 0.41635,-0.0388 0.21349,-0.60522 0.30163,-0.87157 0.0455,-1.61963 0.23691,-3.28869 -0.17789,-4.87476 -0.0646,-0.19661 -0.1882,-0.43251 -0.43436,-0.3973 z"
         id="path2769"
         transform="scale(0.26458333)" class="T" />
      <path
         style="fill:#ffff00;stroke:#000000;stroke-width:0.00427522"
         d="m 544.59895,405.29911 c -0.04,0.73566 0.13066,1.52722 0.1964,2.27883 0.15272,1.27284 0.3959,2.62016 1.30059,3.5941 0.49455,0.5361 0.95984,1.2467 1.69456,1.44873 0.50298,-0.16411 0.62851,-0.81342 0.87358,-1.22245 0.1592,-0.31516 0.39228,-0.93509 -0.13209,-1.04258 -0.8237,-0.27055 -1.79918,-0.45785 -2.2308,-1.30579 -0.74373,-1.16078 -1.07385,-2.54578 -1.6999,-3.751 z"
         id="path2770"
         transform="scale(0.26458333)" class="T" />
      <path
         style="fill:#ffff00;stroke:#000000;stroke-width:0.00427522"
         d="m 559.07476,405.38512 c -0.49977,1.17654 -0.86374,2.45806 -1.69997,3.46135 -0.57077,0.79837 -1.42849,1.28838 -2.24209,1.792 -0.1781,0.26797 0.13603,0.63423 0.16428,0.92309 0.18038,0.36025 0.21073,0.9878 0.66638,1.10797 0.79048,-0.47166 1.42557,-1.19786 1.98748,-1.92201 1.00416,-1.5388 0.96929,-3.45086 1.16917,-5.2111 -0.0103,-0.0393 0.0321,-0.16158 -0.0453,-0.1513 z"
         id="path2771"
         transform="scale(0.26458333)" class="T" />
      <path
         style="fill:#ffff00;stroke:#000000;stroke-width:0.00427522"
         d="m 555.63237,419.88848 c -0.47457,0.63878 -0.90364,1.34518 -1.21794,2.07833 -0.0292,0.77173 0.69345,1.30929 1.08901,1.89563 0.75253,0.94132 1.55605,1.88977 1.9798,3.0309 0.68955,0.91632 1.77974,1.51943 2.88978,1.75484 0.45761,-0.021 0.18693,-0.56843 0.0927,-0.80778 -0.99651,-2.21236 -2.18895,-4.34531 -3.55713,-6.34931 -0.41926,-0.52777 -0.79372,-1.14852 -1.27621,-1.60261 z"
         id="path2772"
         transform="scale(0.26458333)" class="T" />
      <path
         style="fill:#00ff00;stroke:#000000;stroke-width:0.00427522"
         d="m 581.15412,419.63197 c -0.7242,0.52827 -1.18146,1.36061 -1.68046,2.09328 -1.05248,1.84605 -2.12704,3.71785 -2.76026,5.75627 -0.0403,0.2878 -0.23257,0.75383 0.0299,0.97111 0.76355,-0.44392 1.37552,-1.26905 2.3148,-1.35789 0.51183,-0.28484 0.38726,-0.99531 0.72963,-1.42084 0.75694,-1.44745 1.95253,-2.61583 2.7004,-4.0628 0.27025,-0.69115 -0.4569,-1.20956 -0.86172,-1.65849 -0.14475,-0.10851 -0.28165,-0.30488 -0.47228,-0.32064 z"
         id="path2773"
         transform="scale(0.26458333)" class="IR" />
      <path
         style="fill:#00ff00;stroke:#000000;stroke-width:0.00427522"
         d="m 577.28504,405.0942 c -0.16073,0.3638 0.0384,0.84343 0.03,1.23963 0.16753,1.45395 0.2688,3.11596 1.45565,4.14883 0.56772,0.4883 1.09488,1.15092 1.84954,1.33149 0.45739,-0.2894 0.49118,-0.9521 0.66065,-1.42301 0.25748,-0.61337 -0.50613,-0.91841 -0.92017,-1.14746 -0.73921,-0.31724 -1.39688,-0.81918 -1.76821,-1.54777 -0.54002,-0.80518 -0.77633,-1.77607 -1.27138,-2.59503 -0.0107,-0.006 -0.0237,-0.009 -0.0361,-0.007 z"
         id="path2774"
         transform="scale(0.26458333)" class="IR" />
      <path
         style="fill:#00ff00;stroke:#000000;stroke-width:0.00427522"
         d="m 585.83065,411.02007 c -1.30161,0.0311 -2.63099,0.024 -3.9135,0.11189 0.0181,1.96854 -0.036,3.9674 0.0269,5.91717 1.5159,-0.0775 3.05527,0.0588 4.55646,-0.19054 0.45967,-0.071 0.87864,-0.41499 0.83367,-0.91717 0.0371,-1.6316 -0.0906,-3.27624 -0.33384,-4.88712 -0.3649,-0.0844 -0.79037,-0.0128 -1.16967,-0.0342 z"
         id="path2775"
         transform="scale(0.26458333)" class="IR" />
      <path
         style="fill:#00ff00;stroke:#000000;stroke-width:0.00427522"
         d="m 584.60069,418.04947 c -0.39364,0.0488 -1.10606,-0.0547 -1.2288,0.45625 0.1389,0.54088 0.63125,0.9566 1.0805,1.26152 0.56676,0.31143 0.99922,-0.38072 1.22879,-0.79743 0.12637,-0.23841 0.45611,-0.76812 0.008,-0.86807 -0.35658,-0.0734 -0.72638,-0.0477 -1.08817,-0.0523 z"
         id="path2776"
         transform="scale(0.26458333)" class="IR" />
      <path
         style="fill:#00ff00;stroke:#000000;stroke-width:0.00427522"
         d="m 588.2727,419.08571 c -0.52031,0.58343 -0.98917,1.2658 -1.27522,2.00034 -0.15372,0.78939 0.63951,1.34357 1.04968,1.9061 0.81587,0.94822 1.69418,1.90247 2.14772,3.08405 0.65441,0.85935 1.619,1.44793 2.56664,1.93621 0.19119,0.12237 0.61069,0.21839 0.49182,-0.16583 -0.3999,-1.49035 -1.25025,-2.81775 -1.97605,-4.16711 -0.93311,-1.56792 -1.89072,-3.14033 -2.98622,-4.59476 l -0.0122,-3.4e-4 z"
         id="path2777"
         transform="scale(0.26458333)" class="IR" />
      <path
         style="fill:#00ff00;stroke:#000000;stroke-width:0.00427522"
         d="m 591.02822,405.98866 c -0.37849,1.27503 -1.18862,2.41948 -2.35004,3.09369 -0.32858,0.26332 -0.817,0.43544 -1.0314,0.80061 0.1611,0.63741 0.3178,1.3588 0.79509,1.83734 0.5009,-0.11762 0.87256,-0.60592 1.28291,-0.90882 0.78465,-0.71881 1.70753,-1.58421 1.60515,-2.74962 0.0241,-0.96598 0.0264,-1.93237 0.0406,-2.89852 -0.17417,0.13476 -0.2238,0.59033 -0.34235,0.82532 z"
         id="path2778"
         transform="scale(0.26458333)" class="IR" />
      <path
         style="fill:#ff00ff;stroke:#000000;stroke-width:0.00427522"
         d="m 576.61587,355.06055 c 0.0779,1.34849 -0.21205,2.81116 0.39228,4.07399 0.68519,0.92248 1.50919,1.80591 2.53758,2.34536 0.49106,0.22971 0.8061,-0.44369 0.92051,-0.82014 0.17737,-0.41695 0.22124,-1.0348 -0.30444,-1.2141 -0.78359,-0.29326 -1.60659,-0.66675 -2.02004,-1.44489 -0.58288,-0.93539 -0.99732,-1.9615 -1.47546,-2.95141 z"
         id="path2779"
         transform="scale(0.26458333)" class="IF" />
      <path
         style="fill:#ff00ff;stroke:#000000;stroke-width:0.00427522"
         d="m 590.83817,354.536 c -0.64521,1.2999 -0.84659,2.92878 -1.98698,3.93454 -0.58316,0.53637 -1.44553,0.66654 -2.00267,1.21494 -0.12988,0.54386 0.29435,1.05891 0.51486,1.52789 0.1226,0.25543 0.44643,0.58695 0.70408,0.27304 1.19559,-0.95549 2.36511,-2.18896 2.51823,-3.78909 0.13181,-1.04322 0.28962,-2.10247 0.29623,-3.14946 -0.01,-0.0134 -0.0287,-0.019 -0.0438,-0.0119 z"
         id="path2780"
         transform="scale(0.26458333)" class="IF" />
      <path
         style="fill:#ff00ff;stroke:#000000;stroke-width:0.00427522"
         d="m 581.68919,360.84079 c -0.50907,0.10488 -0.47109,0.80913 -0.55878,1.20909 -0.12038,1.38652 -0.27657,2.81345 -0.003,4.18921 0.21008,0.7401 1.09513,0.82118 1.73798,0.75936 1.18036,-0.0529 2.37683,0.008 3.54527,-0.18287 -0.009,-1.78525 0.0317,-3.60978 -0.1242,-5.40207 0.0116,-0.33901 -0.26526,-0.70312 -0.63198,-0.53498 -1.16242,0.19623 -2.3761,0.15449 -3.5426,0.0389 -0.1385,-0.0352 -0.27806,-0.0836 -0.42301,-0.0766 z"
         id="path2781"
         transform="scale(0.26458333)" class="IF" />
      <path
         style="fill:#ff00ff;stroke:#000000;stroke-width:0.00427522"
         d="m 583.60469,368.08796 c -0.29503,0.0544 -0.75444,-0.0624 -0.95124,0.20408 0.13343,0.61267 0.54115,1.19172 1.03791,1.57265 0.42899,0.18198 0.77469,-0.35529 1.06881,-0.58635 0.24479,-0.22869 0.64308,-0.80113 0.17101,-1.00885 -0.41697,-0.17367 -0.88173,-0.18195 -1.32649,-0.18153 z"
         id="path2782"
         transform="scale(0.26458333)" class="IF" />
      <path
         style="fill:#ff00ff;stroke:#000000;stroke-width:0.00427522"
         d="m 580.5125,369.80974 c -0.63771,0.18116 -0.91607,0.90952 -1.31254,1.37988 -1.15859,1.79484 -2.30335,3.63855 -3.02163,5.65971 -0.11432,0.26917 -0.10438,0.85551 0.32966,0.74833 0.87629,-0.24152 1.87003,-0.5486 2.41316,-1.32916 0.24516,-1.06742 0.98598,-1.94905 1.56541,-2.85879 0.46152,-0.76094 1.2025,-1.50947 1.17508,-2.45501 -0.12273,-0.51964 -0.57557,-0.99187 -1.08384,-1.14446 -0.0217,-0.002 -0.0435,-0.002 -0.0653,-5e-4 z"
         id="path2783"
         transform="scale(0.26458333)" class="IF" />
      <path
         style="fill:#ff00ff;stroke:#000000;stroke-width:0.00427522"
         d="m 587.20523,369.70704 c -0.36822,0.46742 -0.9871,0.98174 -0.86907,1.64128 0.93753,1.55411 1.98449,3.05291 3.12141,4.46828 0.76773,0.78139 1.58073,1.68752 2.67619,1.9661 0.3301,-0.10714 0.0727,-0.57885 0.02,-0.79826 -1.16477,-2.77174 -2.62229,-5.42416 -4.3295,-7.89965 -0.22915,0.13514 -0.41151,0.43031 -0.61907,0.62225 z"
         id="path2784"
         transform="scale(0.26458333)" class="IF" />
      <path
         style="fill:#808080;stroke:#000000;stroke-width:0.00427522"
         d="m 520.08722,360.64339 c -0.84417,0.3496 -1.73577,0.66111 -2.66968,0.55929 -0.74021,-0.0207 -1.47828,-0.27608 -2.20324,-0.29142 -0.16959,0.95262 -0.0162,1.9533 -0.0424,2.92202 0.0727,0.96035 -0.0514,1.97835 0.27538,2.8973 0.52446,0.41216 1.2824,0.1673 1.89914,0.24134 1.09543,-0.0464 2.23372,0.0545 3.30077,-0.17554 0.0961,-1.86746 0.33877,-3.79006 -0.12057,-5.62777 -0.0765,-0.19945 -0.1918,-0.5004 -0.43938,-0.52522 z"
         id="path2785"
         transform="scale(0.26458333)" class="OF" />
      <path
         style="fill:#808080;stroke:#000000;stroke-width:0.00427522"
         d="m 525.02877,354.51579 c -0.49038,0.95686 -0.74357,2.06085 -1.37777,2.95792 -0.61727,1.04675 -1.71524,1.61058 -2.65463,2.30929 -0.12496,0.23726 0.21152,0.52039 0.24883,0.76086 0.23478,0.44673 0.42132,0.96649 0.70107,1.35738 1.12577,-1.11547 2.41446,-2.28919 2.68287,-3.93467 0.22663,-1.13194 0.35495,-2.30372 0.42686,-3.44426 -0.007,-0.006 -0.018,-0.009 -0.0272,-0.007 z"
         id="path2786"
         transform="scale(0.26458333)" class="OF" />
      <path
         style="fill:#808080;stroke:#000000;stroke-width:0.00427522"
         d="m 510.89198,355.60097 c -0.0242,1.09357 -0.0712,2.21187 0.10638,3.29576 0.40772,1.14296 1.53043,1.8098 2.38239,2.59789 0.47476,0.71115 0.68248,-0.0138 0.90019,-0.48252 0.13085,-0.38252 0.47423,-0.75246 0.46258,-1.16113 -0.54397,-0.65803 -1.50107,-0.77162 -2.08484,-1.40163 -0.86376,-0.75726 -1.22206,-1.89078 -1.74332,-2.86257 z"
         id="path2787"
         transform="scale(0.26458333)" class="OF" />
      <path
         style="fill:#808080;stroke:#000000;stroke-width:0.00427522"
         d="m 517.7128,368.08379 c -0.26704,0.0366 -0.80969,-0.0419 -0.86123,0.32465 0.24654,0.52158 0.56154,1.03919 0.96777,1.44957 0.55688,0.20079 0.93469,-0.46632 1.28365,-0.78247 0.2635,-0.20692 0.41304,-0.73445 -0.0206,-0.83828 -0.43853,-0.14573 -0.91235,-0.1453 -1.36957,-0.15347 z"
         id="path2788"
         transform="scale(0.26458333)" class="OF" />
      <path
         style="fill:#808080;stroke:#000000;stroke-width:0.00427522"
         d="m 514.51456,368.9547 c -1.79087,2.84223 -3.53827,5.76308 -4.6129,8.96194 -0.0822,0.17443 -0.10721,0.5768 0.19773,0.44789 0.72817,-0.39068 1.32221,-1.07193 2.15765,-1.23113 0.73136,-0.55792 0.83278,-1.56708 1.38408,-2.26829 0.62197,-1.1109 1.56928,-2.00883 2.15751,-3.13436 0.27578,-0.793 -0.49242,-1.46141 -0.81286,-2.10634 -0.16517,-0.20116 -0.27104,-0.53565 -0.47121,-0.66971 z"
         id="path2789"
         transform="scale(0.26458333)" class="OF" />
      <path
         style="fill:#808080;stroke:#000000;stroke-width:0.00427522"
         d="m 521.44493,369.4567 c -0.3764,0.54168 -1.03107,1.01191 -1.08116,1.7131 0.23056,0.94342 1.04889,1.60161 1.57833,2.38243 0.62688,0.77531 1.16566,1.62077 1.54225,2.54192 0.46784,0.56867 1.21977,0.85916 1.91767,1.03541 0.28736,0.0275 0.91366,0.18649 0.94389,-0.25184 -0.37546,-1.30173 -1.16917,-2.44428 -1.81918,-3.62246 -0.86175,-1.41906 -1.77148,-2.86013 -2.75364,-4.1683 -0.10938,0.12325 -0.21877,0.2465 -0.32816,0.36974 z"
         id="path2790"
         transform="scale(0.26458333)" class="OF" />
    </g>
    <path
       style="fill:#ffffff;fill-opacity:1;stroke:#000000;stroke-width:0.0064821;stroke-opacity:0"
       d="m 543.66718,356.3252 c -0.33915,0.4277 -0.0786,1.15263 -0.16641,1.68129 -0.0637,1.00091 0.10748,2.0742 0.91058,2.76375 0.68935,0.63088 1.34957,1.60792 2.35002,1.69573 0.62854,-0.23765 0.78012,-1.1622 0.60136,-1.74232 -0.51711,-0.92029 -1.80348,-0.99976 -2.32089,-1.94893 -0.5701,-0.73736 -0.84041,-1.67506 -1.32073,-2.44395 l -0.0468,-0.006 z"
       id="path85"
       transform="scale(0.26458333)" class="P" />
    <path
       style="fill:#ffffff;fill-opacity:1;stroke:#000000;stroke-width:0.0064821;stroke-opacity:0"
       d="m 549.86315,361.60203 c -0.58263,0.11357 -1.39479,-0.19919 -1.86588,0.24839 -0.18442,1.50696 -0.1868,3.06205 -0.0841,4.58077 0.10372,0.95824 1.0058,1.55003 1.91754,1.55672 1.09132,0.0842 2.46303,0.27932 3.31802,-0.55959 0.59905,-1.18813 0.24607,-2.60477 0.28675,-3.88372 -0.12963,-0.5727 0.12983,-1.33549 -0.24395,-1.81572 -1.06937,-0.2482 -2.2356,-0.0706 -3.32841,-0.12685 z"
       id="path86"
       transform="scale(0.26458333)" class="P" />
    <path
       style="fill:#ffffff;fill-opacity:1;stroke:#000000;stroke-width:0.0064821;stroke-opacity:0"
       d="m 557.62344,355.50531 c -0.66276,1.6593 -1.32632,3.64333 -3.11723,4.39871 -0.47703,0.23029 -1.00163,0.76348 -0.58896,1.29769 0.25669,0.39344 0.57473,1.1899 1.14702,1.07663 1.71739,-0.9781 2.40668,-2.97912 2.57183,-4.84435 0.0547,-0.65142 0.18652,-1.32406 0.14508,-1.96691 l -0.0889,-0.0213 z"
       id="path87"
       transform="scale(0.26458333)" class="P" />
    <path
       style="fill:#ffffff;fill-opacity:1;stroke:#000000;stroke-width:0.0064821;stroke-opacity:0"
       d="m 550.79394,368.60244 c -0.40114,0.0672 -1.30454,-0.14386 -1.33415,0.45527 0.37284,0.66294 0.74127,1.47109 1.39669,1.87854 0.61109,-0.50293 1.05549,-1.27382 1.34352,-2.01148 -0.15571,-0.49835 -1.03672,-0.24694 -1.40606,-0.32233 z"
       id="path88"
       transform="scale(0.26458333)" class="P" />
    <path
       style="fill:#ffffff;fill-opacity:1;stroke:#000000;stroke-width:0.0064821;stroke-opacity:0"
       d="m 547.20448,370.30956 c -0.77799,0.36004 -1.12691,1.30163 -1.62562,1.9587 -0.80519,1.46804 -1.88612,2.96109 -1.94055,4.69001 0.0745,0.4633 0.24322,1.36898 0.91231,1.125 1.1161,-0.1313 1.35702,-1.3494 1.73776,-2.19784 0.65812,-1.30006 1.89638,-2.27616 2.35887,-3.66846 -0.015,-0.77198 -0.65549,-1.43528 -1.24654,-1.86892 -0.0617,-0.0263 -0.129,-0.041 -0.19623,-0.0385 z"
       id="path89"
       transform="scale(0.26458333)" class="P" />
    <path
       style="fill:#ffffff;fill-opacity:1;stroke:#000000;stroke-width:0.0064821;stroke-opacity:0"
       d="m 554.39201,370.03053 c -0.74683,0.3706 -1.08188,1.32396 -1.23286,2.09655 0.20636,1.15607 1.34258,1.86649 1.94589,2.80882 0.74175,0.76516 0.94755,1.88988 1.70079,2.62652 0.56684,0.32505 1.36991,0.74345 2.01502,0.42868 0.41742,-0.61251 -0.20961,-1.37575 -0.41298,-1.9659 -1.09275,-2.05557 -2.20407,-4.16033 -3.76873,-5.89871 -0.0692,-0.0558 -0.15339,-0.11264 -0.24713,-0.096 z"
       id="path90"
       transform="scale(0.26458333)" class="P" />
  </g>
</svg>
