<?xml version="1.0" encoding="UTF-8" standalone="no"?>
<!-- Created with Inkscape (http://www.inkscape.org/) -->

<svg
   width="22.62886mm"
   height="21.523016mm"
   viewBox="0 0 22.628861 21.523016"
   version="1.1"
   id="svg1"
   xmlns="http://www.w3.org/2000/svg"
   xmlns:svg="http://www.w3.org/2000/svg">
  <defs
     id="defs1" />
  <g
     id="layer1"
     transform="translate(-134.54839,-93.006081)">
    <path
       id="path1656"
       style="fill:#000000;stroke-width:0.264583"
       d="m 143.82017,114.45489 c -0.24699,-0.0997 -0.18754,-0.9622 0.11316,-1.642 0.14959,-0.33819 0.48135,-0.96012 0.73723,-1.38206 0.40053,-0.6605 0.4581,-0.8511 0.41405,-1.37072 -0.0282,-0.33195 -0.0914,-0.60355 -0.14063,-0.60355 -0.0492,0 -0.30072,-0.19354 -0.55898,-0.43008 -0.3723,-0.34102 -0.46953,-0.52345 -0.46953,-0.88088 0,-0.33581 -0.0634,-0.4709 -0.24855,-0.52966 -0.38391,-0.12185 -0.89501,-0.80752 -0.89501,-1.20072 0,-0.38348 -0.90511,-1.53289 -1.20708,-1.53289 -0.24638,0 -1.07995,1.18942 -1.0805,1.54177 0,0.40739 -0.4304,1.08485 -0.75314,1.18728 -0.1969,0.0625 -0.26289,0.1903 -0.26289,0.50906 0,0.33898 -0.10181,0.51182 -0.5002,0.8491 -0.41468,0.35108 -0.50604,0.51374 -0.53435,0.95129 -0.0276,0.42703 0.0532,0.65938 0.42344,1.21699 0.81579,1.22868 1.13662,1.97411 1.09445,2.54297 -0.0212,0.28647 -0.10472,0.54256 -0.1855,0.56909 -0.0808,0.0265 -0.3524,-0.13218 -0.60357,-0.3527 -0.33406,-0.29333 -0.45664,-0.50354 -0.45664,-0.78311 0,-0.41078 -0.89927,-1.62452 -1.20362,-1.62452 -0.27789,0 -1.11551,1.13088 -1.11249,1.50198 0.006,0.71172 -0.79095,1.5084 -1.23441,1.23432 -0.35351,-0.21848 -0.0681,-1.21205 0.76599,-2.66676 0.81201,-1.41617 0.81357,-1.87106 0.009,-2.55999 -0.45159,-0.38655 -0.52014,-0.52014 -0.59767,-1.1649 -0.0482,-0.40055 -0.17208,-0.82474 -0.2754,-0.94263 -0.22199,-0.25328 -0.11782,-0.48449 0.21823,-0.48449 0.26297,0 0.41651,0.18359 0.47654,0.56974 0.0696,0.44765 0.47061,1.14453 0.68093,1.18324 0.12756,0.0235 0.26506,-0.10856 0.3655,-0.35104 0.22915,-0.55326 0.71958,-0.65341 1.09013,-0.22262 0.15534,0.1806 0.30388,0.39265 0.33007,0.47123 0.10589,0.31769 0.48697,-0.0605 0.68204,-0.67691 0.27369,-0.86477 0.81831,-2.0304 1.31255,-2.80915 0.28337,-0.4465 0.39883,-0.78231 0.39883,-1.16002 0,-0.47592 -0.0599,-0.58067 -0.57179,-1.00013 -0.44199,-0.36218 -0.57176,-0.5534 -0.57176,-0.84245 0,-0.23146 -0.10531,-0.45816 -0.27636,-0.59504 -0.67522,-0.54026 -0.8672,-0.79625 -0.8672,-1.156278 0,-0.456453 -0.93165,-1.659368 -1.29159,-1.667655 -0.0465,-0.0011 -0.31806,0.291412 -0.60354,0.649959 -0.36833,0.462606 -0.51906,0.772407 -0.51906,1.066867 0,0.317127 -0.10753,0.509367 -0.45609,0.815417 -0.54044,0.47451 -0.81452,0.36381 -0.81452,-0.32898 0,-0.410349 0.69228,-1.939487 1.24714,-2.754673 0.32462,-0.476941 0.23704,-1.45895 -0.1547,-1.734638 -0.62402,-0.43915 -0.83833,-0.791284 -0.83833,-1.377479 0,-0.351906 -0.0799,-0.6633 -0.20598,-0.802616 -0.26361,-0.291264 -0.1342,-0.649163 0.21529,-0.595429 0.19759,0.03038 0.32946,0.233648 0.52102,0.80305 0.35285,1.048766 0.67839,1.239743 0.97419,0.571495 0.2422,-0.547172 0.7411,-0.645316 1.10861,-0.21808 0.15533,0.180602 0.30387,0.392655 0.33007,0.471231 0.11572,0.347186 0.50196,-0.07595 0.7212,-0.790088 0.24362,-0.793658 0.47654,-1.049722 0.78271,-0.860505 0.14746,0.09114 0.15074,0.163248 0.0185,0.410186 -0.0882,0.164783 -0.20613,0.636956 -0.26207,1.049269 -0.0874,0.644266 -0.16605,0.804275 -0.55911,1.138105 -0.38746,0.329084 -0.4613,0.475811 -0.48313,0.960218 -0.0222,0.495485 0.0608,0.704003 0.62344,1.562711 0.35705,0.545013 0.68749,1.116791 0.73432,1.270619 0.0469,0.153829 0.15547,0.365456 0.24141,0.470281 0.0859,0.104823 0.23018,0.464503 0.32056,0.799273 0.16034,0.59381 0.62744,1.0709 0.73438,0.75007 0.0254,-0.0764 0.16349,-0.28788 0.30671,-0.46996 0.36414,-0.46295 0.86497,-0.3929 1.12035,0.15672 0.10483,0.22561 0.22254,0.41144 0.26159,0.41295 0.23323,0.009 0.51112,-0.39868 0.64765,-0.95021 0.0865,-0.34942 0.26035,-0.753352 0.38637,-0.897624 0.12602,-0.144272 0.22913,-0.308565 0.22913,-0.365096 0,-0.05653 0.2512,-0.516514 0.55819,-1.022189 0.49911,-0.822126 0.55126,-0.980873 0.49271,-1.500288 -0.0543,-0.481959 -0.1478,-0.64703 -0.54885,-0.969335 -0.42781,-0.343784 -0.4935,-0.472646 -0.57142,-1.120574 -0.0485,-0.402664 -0.17709,-0.83353 -0.28589,-0.957477 -0.14052,-0.160088 -0.15843,-0.264744 -0.0618,-0.361336 0.28218,-0.282175 0.57428,-0.04487 0.84765,0.688623 0.35988,0.965716 0.74406,1.250889 0.89183,0.662051 0.0436,-0.173826 0.21754,-0.406601 0.38645,-0.517276 0.38573,-0.252746 0.73292,-0.09478 0.95149,0.432914 0.22262,0.537435 0.57841,0.393668 0.8263,-0.333904 0.109,-0.319866 0.19817,-0.681892 0.19817,-0.8045 0,-0.271127 0.4786,-0.447591 0.67667,-0.249502 0.10578,0.105764 0.10287,0.206888 -0.0111,0.389493 -0.0847,0.135652 -0.19164,0.566653 -0.2376,0.957778 -0.0708,0.602234 -0.15748,0.782884 -0.5661,1.179637 -0.66482,0.645493 -0.71514,1.303845 -0.15915,2.081652 0.215,0.300794 0.54793,0.861377 0.7398,1.245737 0.19188,0.384363 0.41826,0.784609 0.50306,0.889436 0.0848,0.10483 0.22714,0.44789 0.31631,0.76237 0.26006,0.91727 0.66352,1.18909 0.88812,0.59832 0.27297,-0.71794 1.00079,-0.76849 1.30096,-0.0904 0.0929,0.20981 0.20116,0.38147 0.24061,0.38147 0.24419,0 0.51774,-0.40873 0.66593,-0.9949 0.0941,-0.3725 0.22431,-0.715562 0.28927,-0.762377 0.065,-0.04682 0.22225,-0.31383 0.34954,-0.593365 0.12729,-0.279538 0.46143,-0.892215 0.74253,-1.361507 0.45482,-0.759322 0.5013,-0.911053 0.42238,-1.378214 -0.0648,-0.383641 -0.21974,-0.64334 -0.57547,-0.964729 -0.42085,-0.380209 -0.49855,-0.537737 -0.57372,-1.163026 -0.0478,-0.397788 -0.17148,-0.819709 -0.2748,-0.937602 -0.22196,-0.253272 -0.11782,-0.484489 0.21823,-0.484489 0.26297,0 0.41653,0.183589 0.47654,0.569746 0.0682,0.438621 0.46895,1.144445 0.66702,1.174761 0.10482,0.01603 0.30585,-0.155488 0.44672,-0.381186 0.33059,-0.529666 0.71646,-0.587015 1.05489,-0.156773 0.14319,0.182023 0.27953,0.388527 0.30298,0.458904 0.0683,0.204933 0.43582,-5.29e-4 0.58449,-0.326975 0.075,-0.16464 0.17518,-0.506111 0.22259,-0.758825 0.0942,-0.502031 0.40487,-0.757529 0.69879,-0.574664 0.1469,0.0914 0.15349,0.163152 0.0329,0.357878 -0.083,0.133955 -0.19066,0.595188 -0.23929,1.024964 -0.0789,0.69765 -0.1398,0.825394 -0.56784,1.191799 -0.69284,0.593024 -0.72099,1.212517 -0.0978,2.151111 0.74747,1.125794 1.11934,1.95635 1.11934,2.500069 0,0.61962 -0.16065,0.73704 -0.60912,0.44517 -0.48826,-0.31774 -0.65262,-0.56856 -0.65881,-1.005227 -0.007,-0.475427 -1.01106,-1.632175 -1.31565,-1.515298 -0.27768,0.106558 -1.14559,1.404263 -1.04645,1.564674 0.13552,0.219241 -0.28509,0.884751 -0.69223,1.095291 -0.29723,0.15371 -0.37904,0.28117 -0.37904,0.59065 0,0.29831 -0.13957,0.53421 -0.57177,0.96642 -0.80724,0.80724 -0.78859,1.18211 0.13193,2.64829 0.38703,0.61648 0.77859,1.20872 0.8701,1.31609 0.0915,0.10738 0.24041,0.46927 0.33084,0.8042 0.0904,0.33493 0.28361,0.69246 0.42931,0.79451 0.24757,0.17341 0.27954,0.15703 0.48858,-0.25047 0.29737,-0.57958 0.66688,-0.6897 1.06365,-0.31695 0.16878,0.15854 0.30684,0.36406 0.30684,0.45671 0,0.18331 0.23461,0.21977 0.45807,0.0712 0.1265,-0.0841 0.42077,-0.82904 0.47906,-1.21272 0.0433,-0.28502 0.22153,-0.46891 0.45447,-0.46891 0.30459,0 0.42252,0.32082 0.18913,0.51452 -0.11795,0.0979 -0.18304,0.39564 -0.18304,0.83733 0,0.64647 -0.0325,0.71655 -0.57177,1.23328 -0.49207,0.47146 -0.57179,0.61911 -0.57179,1.05882 0,0.36375 0.10761,0.65951 0.37346,1.02651 0.77547,1.07051 1.17274,1.91499 1.19407,2.53835 0.018,0.52647 -0.014,0.61048 -0.24638,0.64365 -0.35936,0.0513 -1.06675,-0.75548 -1.06783,-1.21789 0,-0.3323 -0.89816,-1.55209 -1.14181,-1.55209 -0.0585,0 -0.33997,0.29336 -0.62543,0.65191 -0.36835,0.4626 -0.51906,0.7724 -0.51906,1.06686 0,0.31722 -0.10758,0.50939 -0.45667,0.81591 -0.25117,0.22053 -0.52276,0.37924 -0.60354,0.35271 -0.0808,-0.0265 -0.16441,-0.28557 -0.18581,-0.57562 -0.0436,-0.59049 0.21595,-1.26608 0.95181,-2.47744 0.65733,-1.08207 0.62008,-1.61588 -0.15978,-2.29016 -0.36836,-0.3185 -0.56251,-0.58964 -0.56251,-0.78557 0,-0.18538 -0.0946,-0.32922 -0.24855,-0.3781 -0.38671,-0.12274 -0.895,-0.80781 -0.895,-1.20631 0,-0.24995 -0.17415,-0.54638 -0.57277,-0.97498 l -0.57275,-0.61584 -0.57081,0.63183 c -0.42585,0.4714 -0.57079,0.7351 -0.57079,1.03851 0,0.43959 -0.52757,1.18855 -0.83719,1.18855 -0.11647,0 -0.17931,0.14046 -0.17931,0.40071 0,0.30261 -0.12102,0.51257 -0.4944,0.85767 -0.4083,0.3774 -0.50231,0.55651 -0.53993,1.02874 -0.0379,0.47567 0.0209,0.66789 0.35025,1.14356 1.05349,1.52187 1.5108,2.93525 1.01166,3.12679 -0.43103,0.1654 -1.25531,-0.72931 -1.12633,-1.22257 0.0415,-0.15873 -0.13557,-0.44713 -0.54009,-0.8796 -0.33102,-0.35389 -0.64635,-0.64344 -0.70072,-0.64344 -0.0544,0 -0.33245,0.29336 -0.61794,0.65191 -0.36833,0.4626 -0.51906,0.7724 -0.51906,1.06686 0,0.31594 -0.10718,0.50907 -0.44913,0.80931 -0.24701,0.21689 -0.46143,0.38983 -0.47649,0.38432 -0.0151,-0.005 -0.0988,-0.0389 -0.18616,-0.0741 z m 0.70884,-1.18647 c 0.0819,0 0.14883,-0.0775 0.14883,-0.17232 0,-0.0948 0.20203,-0.43693 0.44897,-0.76033 0.44,-0.57625 0.44466,-0.59463 0.23225,-0.91878 l -0.21672,-0.33076 -0.30594,0.48755 c -0.41785,0.66589 -0.91818,1.71951 -0.91969,1.93669 0,0.14159 0.0468,0.13502 0.23112,-0.0318 0.12779,-0.11565 0.29932,-0.21028 0.38118,-0.21028 z m -8.36454,-0.50825 c 0.006,-0.10482 0.17976,-0.38855 0.38656,-0.63051 0.43802,-0.51244 0.4595,-0.65222 0.14417,-0.9376 -0.22042,-0.19949 -0.26112,-0.15434 -0.8259,0.91685 -0.32673,0.61968 -0.59404,1.18862 -0.59404,1.26431 0,0.20979 0.87715,-0.39494 0.88921,-0.61305 z m 11.76952,-0.29736 c -0.24757,-0.44266 -0.55579,-0.93536 -0.68498,-1.09489 l -0.23485,-0.29004 -0.20838,0.318 c -0.20177,0.30797 -0.19452,0.33417 0.22952,0.82959 0.24085,0.28136 0.43918,0.58825 0.44077,0.68197 0.003,0.19853 0.80248,0.63223 0.86551,0.46973 0.0233,-0.0602 -0.16005,-0.4717 -0.40759,-0.91436 z m -8.26477,0.61094 c -0.0919,-0.36621 -1.09958,-2.09244 -1.22145,-2.09244 -0.044,0 -0.15517,0.1403 -0.24696,0.31177 -0.15171,0.28349 -0.13163,0.3519 0.22146,0.75403 0.21354,0.24323 0.42577,0.56036 0.47159,0.70472 0.0458,0.14436 0.15822,0.26247 0.2498,0.26247 0.0915,0 0.23764,0.0858 0.32464,0.19059 0.22931,0.27632 0.29279,0.23489 0.20092,-0.13114 z m 13.5,-0.0594 c 0.0819,0 0.14883,-0.0775 0.14883,-0.17232 0,-0.0948 0.2056,-0.44158 0.45688,-0.77069 0.44564,-0.58362 0.45119,-0.60467 0.22532,-0.85423 -0.23151,-0.25583 -0.23159,-0.25582 -0.47088,0.0397 -0.33163,0.40953 -0.97369,1.70477 -0.97369,1.96421 0,0.19918 0.0159,0.19943 0.23235,0.004 0.1278,-0.11566 0.29935,-0.21029 0.38119,-0.21029 z m 3.53004,-0.46643 c -0.17494,-0.33747 -0.48437,-0.85925 -0.68762,-1.15949 l -0.36955,-0.54589 -0.21698,0.33114 c -0.21339,0.32569 -0.20953,0.33939 0.23566,0.83215 0.24895,0.27555 0.45485,0.57231 0.45752,0.65947 0.006,0.18222 0.80116,0.72587 0.86003,0.58774 0.0214,-0.0503 -0.10414,-0.36763 -0.27906,-0.70512 z m -10.36963,-1.4395 c 0.12229,-0.22847 0.0966,-0.25412 -0.2541,-0.25412 -0.35076,0 -0.37643,0.0256 -0.25414,0.25412 0.0748,0.13977 0.18916,0.25413 0.25414,0.25413 0.065,0 0.17931,-0.11436 0.2541,-0.25413 z m -8.51315,-0.26968 c 0,-0.0613 -0.18039,-0.1115 -0.40087,-0.1115 -0.39259,0 -0.39614,0.005 -0.17132,0.25367 0.17516,0.19354 0.27019,0.21998 0.4009,0.1115 0.0942,-0.0782 0.17129,-0.19234 0.17129,-0.25367 z m 17.15336,0.0156 c 0.12213,-0.22818 0.0966,-0.25412 -0.24963,-0.25412 -0.41024,0 -0.48102,0.10796 -0.23321,0.35577 0.21439,0.21439 0.32631,0.19083 0.48284,-0.10165 z m -8.15536,-0.87924 c 0.022,-0.30887 0.006,-0.69608 -0.0349,-0.86047 -0.0648,-0.25818 -0.11099,-0.27961 -0.33938,-0.15739 -0.14703,0.0787 -0.45585,0.10557 -0.69572,0.0606 l -0.43135,-0.0809 v 0.74696 c 0,0.41082 0.0407,0.78763 0.0904,0.83736 0.0497,0.0497 0.37849,0.0735 0.7306,0.0529 l 0.64018,-0.0375 z m -8.68034,-0.39138 c 0,-0.67403 -0.035,-0.81572 -0.19058,-0.77055 -0.10483,0.0305 -0.33354,0.0554 -0.50827,0.0554 -0.1747,0 -0.40341,-0.0249 -0.50823,-0.0554 -0.14523,-0.0422 -0.20016,0.0783 -0.23072,0.50623 -0.022,0.30888 -0.006,0.69775 0.0358,0.86417 0.0695,0.27709 0.13179,0.29936 0.73896,0.26432 l 0.66302,-0.0383 z m 17.25112,0.60234 c 0.0338,-0.088 0.0337,-0.44829 -1.3e-4,-0.8006 l -0.0616,-0.64056 -0.68498,0.006 -0.68498,0.007 -1.3e-4,0.79413 -1.1e-4,0.79414 h 0.68525 c 0.43373,0 0.70778,-0.0587 0.74665,-0.16003 z m -10.22622,-1.29255 c 0.12853,-0.28214 0.10945,-0.3159 -0.21937,-0.38812 -0.28943,-0.0636 -0.41098,-0.20869 -0.61915,-0.73924 l -0.25903,-0.66014 0.0704,0.69884 c 0.0514,0.50992 0.15828,0.79331 0.39547,1.04827 0.3977,0.42746 0.45369,0.43104 0.6317,0.0404 z m 2.33756,-0.0404 c 0.23805,-0.25587 0.34346,-0.53653 0.3937,-1.04826 l 0.0686,-0.69884 -0.19164,0.54514 c -0.15462,0.43995 -0.46887,0.78441 -0.89257,0.97846 -0.0672,0.0308 0.12996,0.57292 0.20836,0.57292 0.0487,0 0.23476,-0.15724 0.41354,-0.34942 z m -10.91927,-0.0972 c 0.0494,-0.2585 0,-0.33464 -0.25326,-0.39846 -0.20492,-0.0514 -0.40076,-0.26084 -0.56261,-0.60163 l -0.24828,-0.52274 0.0591,0.63093 c 0.047,0.50181 0.13319,0.69021 0.42106,0.92057 0.45678,0.36553 0.50914,0.36296 0.58399,-0.0287 z m 2.69227,-1.07811 0.0685,-0.69885 -0.20913,0.59646 c -0.15036,0.4289 -0.30824,0.63752 -0.562,0.74263 -0.31763,0.13157 -0.33869,0.17729 -0.21082,0.45793 l 0.14206,0.31177 0.35147,-0.35555 c 0.27027,-0.2734 0.36729,-0.51701 0.41995,-1.05439 z m 14.54777,0.81866 c 0.005,-0.0739 -0.14129,-0.18822 -0.32488,-0.25412 -0.22593,-0.0811 -0.4099,-0.30463 -0.56918,-0.6916 l -0.23537,-0.57179 0.0744,0.69885 c 0.0616,0.57873 0.14306,0.75744 0.47387,1.03982 0.35216,0.30058 0.40973,0.31563 0.48585,0.12706 0.0475,-0.11765 0.0904,-0.27435 0.0953,-0.34822 z m 2.32084,0.11053 c 0.29427,-0.28194 0.35412,-0.44245 0.34341,-0.9212 l -0.013,-0.57977 -0.13568,0.42417 c -0.0746,0.2333 -0.28321,0.51618 -0.46352,0.62862 -0.18031,0.11244 -0.34735,0.21744 -0.37118,0.23333 -0.0702,0.0467 0.11649,0.55628 0.2038,0.55628 0.0439,0 0.24014,-0.15365 0.43614,-0.34143 z m -10.73906,-0.66934 c 0.0929,-0.24617 0.26302,-0.40589 0.494,-0.46387 0.35467,-0.089 0.51824,0.0302 0.88119,0.64227 0.21239,0.35808 0.54351,0.0956 0.7674,-0.60817 0.2168,-0.68152 0.90064,-2.08847 1.41383,-2.90881 0.19386,-0.30991 0.29649,-0.66745 0.29649,-1.03296 0,-0.50839 -0.0517,-0.60141 -0.57179,-1.02752 -0.47747,-0.39126 -0.57176,-0.54114 -0.57176,-0.90873 0,-0.30475 -0.0684,-0.46425 -0.22236,-0.51837 -0.4626,-0.16262 -0.9212,-0.71619 -0.92202,-1.112949 0,-0.425775 -0.89051,-1.596268 -1.21319,-1.596268 -0.0978,0 -0.41154,0.295738 -0.69726,0.657196 -0.39706,0.502346 -0.50139,0.729247 -0.44273,0.962981 0.0608,0.24217 -0.0304,0.41291 -0.4382,0.82074 -0.28324,0.28323 -0.54967,0.65324 -0.59209,0.82225 -0.0424,0.16902 -0.29892,0.48554 -0.57001,0.70338 -0.43217,0.34731 -0.49287,0.46219 -0.49287,0.9329 0,0.43141 0.13801,0.75661 0.70292,1.65641 0.38661,0.61579 0.73586,1.25092 0.77613,1.41139 0.0403,0.16048 0.11708,0.29178 0.17065,0.29178 0.0536,0 0.13111,0.16849 0.17227,0.37443 0.23932,1.19653 0.77579,1.65327 1.0594,0.90192 z m -1.61076,-1.50886 c 0,-0.0497 -0.26159,-0.53736 -0.58134,-1.08357 -0.56335,-0.96239 -0.58891,-0.98626 -0.8259,-0.77179 -0.32382,0.29305 -0.31697,0.32535 0.20016,0.94431 0.2446,0.29276 0.44471,0.59909 0.44471,0.68074 0,0.0816 0.12867,0.20839 0.28591,0.28167 0.28892,0.13466 0.47646,0.11444 0.47646,-0.0514 z m 5.04563,0.0102 c 0.0452,-0.1223 0.27411,-0.47614 0.50858,-0.7863 l 0.42635,-0.56393 -0.25678,-0.25677 c -0.25458,-0.25459 -0.25834,-0.25466 -0.44182,-0.008 -0.10179,0.1369 -0.34066,0.55421 -0.53081,0.92735 -0.287,0.56309 -0.3152,0.69777 -0.16603,0.79219 0.26435,0.16734 0.36867,0.14362 0.46051,-0.1047 z m 2.95825,-1.06481 c -0.5117,-0.86134 -0.53811,-0.88431 -0.77263,-0.67207 -0.32192,0.29132 -0.31486,0.32423 0.20187,0.94274 0.24461,0.29276 0.44474,0.60845 0.44474,0.70154 0,0.2328 0.42048,0.30266 0.55028,0.0914 0.0689,-0.11214 -0.0784,-0.48152 -0.42426,-1.06363 z m -11.5616,0.84712 c 0,-0.0873 0.19767,-0.4176 0.43926,-0.73401 l 0.43926,-0.57529 -0.26014,-0.23544 c -0.25363,-0.22952 -0.2649,-0.22909 -0.44939,0.017 -0.10411,0.13884 -0.33089,0.52856 -0.50401,0.86603 -0.24053,0.4689 -0.2809,0.65437 -0.17118,0.78658 0.16393,0.19753 0.5062,0.1131 0.5062,-0.12487 z m 10.26253,-1.72001 c 0.14549,-0.23298 0.12689,-0.25412 -0.22358,-0.25412 -0.40703,0 -0.47709,0.10845 -0.22976,0.35577 0.20743,0.20744 0.26892,0.19366 0.45334,-0.10165 z m -8.61074,-0.26968 c 0,-0.0613 -0.14292,-0.11151 -0.31766,-0.11151 -0.34541,0 -0.40208,0.11885 -0.16819,0.35275 0.15581,0.15581 0.48585,-0.008 0.48585,-0.24124 z m 8.9961,-1.11159 0.0382,-0.80949 -0.44939,0.0843 c -0.2521,0.0473 -0.56176,0.0242 -0.7053,-0.0526 -0.24405,-0.13061 -0.25591,-0.0995 -0.25591,0.67224 0,0.44506 0.0408,0.84995 0.0906,0.89976 0.0498,0.0498 0.34999,0.0736 0.66707,0.0529 l 0.5765,-0.0376 z m -8.63946,-10e-4 c 0.0526,-0.92175 -0.0108,-1.06018 -0.41564,-0.90631 -0.1991,0.0757 -0.43939,0.0779 -0.62902,0.006 -0.38592,-0.14672 -0.48461,0.0604 -0.38129,0.80013 0.12065,0.86393 0.12181,0.86516 0.78213,0.82282 l 0.60484,-0.0388 z m 7.05797,-0.79708 c 0.0693,-0.28941 0.0289,-0.3553 -0.2853,-0.46483 -0.27086,-0.0944 -0.4168,-0.27109 -0.56111,-0.67928 -0.10726,-0.30341 -0.19817,-0.43731 -0.20203,-0.29754 -0.0156,0.56578 0.23053,1.21022 0.57557,1.50721 0.2004,0.17246 0.37058,0.30414 0.37823,0.29261 0.008,-0.0115 0.0502,-0.1727 0.0946,-0.35817 z m 2.62845,-0.37127 c 0.067,-0.12527 0.11739,-0.47454 0.11186,-0.77614 l -0.01,-0.54837 -0.19503,0.55167 c -0.14303,0.40458 -0.29088,0.58509 -0.55451,0.67698 -0.32128,0.112 -0.34496,0.15717 -0.22291,0.42503 0.12946,0.28415 0.15245,0.2893 0.44262,0.0992 0.16836,-0.1103 0.36095,-0.30305 0.42799,-0.42833 z m -11.28369,0.20613 c 0.048,-0.25103 -0.008,-0.33539 -0.28837,-0.43306 -0.24754,-0.0863 -0.40727,-0.28052 -0.55345,-0.67297 l -0.2055,-0.55167 0.0495,0.6132 c 0.0368,0.4564 0.14044,0.70821 0.40536,0.98473 0.43329,0.45226 0.51589,0.4606 0.59251,0.0598 z m 2.75535,-1.07908 -0.0101,-0.57862 -0.18687,0.52722 c -0.13087,0.36918 -0.29681,0.57274 -0.55356,0.67909 -0.3306,0.13694 -0.3528,0.1823 -0.22577,0.46109 l 0.14089,0.30922 0.4227,-0.40969 c 0.36187,-0.35075 0.42124,-0.49293 0.41264,-0.98831 z m -7.89813,-1.277457 c 0.0771,0 0.18084,-0.127823 0.23042,-0.284049 0.0496,-0.156226 0.26146,-0.497242 0.47088,-0.757811 0.37423,-0.465699 0.37693,-0.479552 0.15801,-0.813673 l -0.22273,-0.339908 -0.38065,0.611571 c -0.40357,0.648391 -0.86093,1.640859 -0.86093,1.868217 0,0.0749 0.10459,0.0416 0.23238,-0.0741 0.1278,-0.115655 0.29546,-0.210283 0.37262,-0.210283 z m 8.72368,0.176998 c 0.11054,-0.04242 0.20098,-0.16284 0.20098,-0.267605 0,-0.104764 0.17153,-0.407058 0.38118,-0.671766 0.44318,-0.559557 0.45098,-0.60171 0.16907,-0.913231 -0.20465,-0.226134 -0.22056,-0.222006 -0.45101,0.117057 -0.48588,0.714873 -0.7457,1.323229 -0.66873,1.565773 0.0877,0.276271 0.0892,0.276951 0.36851,0.169772 z m 3.67379,-0.0074 c 0.12737,-0.127357 -1.01687,-2.072888 -1.22018,-2.074687 -0.0539,-5.3e-4 -0.1638,0.143504 -0.24421,0.319963 -0.12964,0.284554 -0.10218,0.367175 0.24284,0.730607 0.21394,0.225375 0.42658,0.534747 0.47252,0.687496 0.0716,0.237945 0.20489,0.32971 0.59041,0.40638 0.0408,0.008 0.11216,-0.0233 0.15862,-0.06976 z m 8.48474,-0.889783 c -0.20992,-0.407582 -0.48932,-0.899213 -0.6209,-1.092515 l -0.23918,-0.351456 -0.23855,0.263599 c -0.16515,0.18247 -0.20111,0.316174 -0.11684,0.434425 0.0669,0.09396 0.29324,0.426397 0.50289,0.738759 0.36783,0.548018 0.97536,1.0322 1.05537,0.841089 0.0214,-0.05106 -0.13287,-0.426321 -0.34279,-0.833901 z m -3.51621,0.7233 c 0.17926,-0.06815 0.32594,-0.199835 0.32594,-0.292624 0,-0.09279 0.18135,-0.415309 0.40299,-0.716714 0.31168,-0.423789 0.37333,-0.595074 0.27204,-0.755637 -0.072,-0.114197 -0.20624,-0.207629 -0.29826,-0.207629 -0.16896,0 -1.13353,1.643589 -1.13718,1.937695 -0.003,0.191124 0.019,0.192846 0.43447,0.03491 z m -13.79273,-0.543034 c -0.15076,-0.297008 -0.44164,-0.784608 -0.64643,-1.083561 l -0.37232,-0.543547 -0.2346,0.289422 c -0.23183,0.285967 -0.22945,0.295752 0.19912,0.819058 0.23855,0.291296 0.43373,0.58864 0.43373,0.66076 0,0.167108 0.37711,0.388993 0.66966,0.394017 0.2073,0.0036 0.20344,-0.03848 -0.0492,-0.536149 z m 6.9355,-1.724366 c -0.10089,-0.02244 -0.30014,-0.02244 -0.44281,0 -0.24759,0.03895 -0.24968,0.0545 -0.0463,0.343194 l 0.21313,0.302395 0.22968,-0.302395 c 0.18942,-0.249357 0.19751,-0.309555 0.0462,-0.343194 z m -8.72495,0.205975 c 0.2473,-0.247319 0.17727,-0.355772 -0.22979,-0.355772 -0.35047,0 -0.36907,0.02114 -0.22358,0.254125 0.18442,0.295306 0.24591,0.309091 0.45337,0.101647 z m 17.40746,0 c 0.24734,-0.247319 0.17727,-0.355772 -0.22979,-0.355772 -0.35044,0 -0.36904,0.02114 -0.22354,0.254125 0.18441,0.295306 0.2459,0.309091 0.45333,0.101647 z m -8.38549,-0.464801 c 0.11319,-0.07179 0.15349,-0.338646 0.12705,-0.841396 l -0.0387,-0.736262 -0.69885,-4.7e-5 -0.69882,-4.8e-5 -0.0388,0.663112 c -0.0222,0.379442 0.0251,0.740233 0.11084,0.843391 0.16205,0.195255 0.9685,0.241697 1.23724,0.07125 z m -8.51172,-0.770217 c 0.022,-0.308872 0.006,-0.696084 -0.0349,-0.860467 -0.0648,-0.258186 -0.11102,-0.279614 -0.33938,-0.157387 -0.14703,0.07868 -0.45588,0.105568 -0.69573,0.06057 l -0.43135,-0.08092 v 0.746954 c 0,0.410823 0.0407,0.78764 0.0904,0.837369 0.0497,0.04973 0.37849,0.07355 0.73059,0.05294 l 0.64019,-0.03747 z m 17.36735,-0.264316 c 0,-0.674031 -0.0351,-0.815724 -0.1906,-0.770546 -0.10483,0.03045 -0.33354,0.05536 -0.50824,0.05536 -0.17471,0 -0.40341,-0.02492 -0.50824,-0.05536 -0.14957,-0.04344 -0.19899,0.09183 -0.22958,0.628338 -0.0567,0.994299 -0.013,1.051504 0.76817,1.006565 l 0.66849,-0.03845 z m -10.32174,-0.623866 c 0.0474,-0.181367 -0.029,-0.285372 -0.28879,-0.392988 -0.21775,-0.0902 -0.42688,-0.325393 -0.54507,-0.613008 l -0.19174,-0.466659 -0.0124,0.547174 c -0.0103,0.460611 0.0514,0.605406 0.39063,0.915233 0.43249,0.395034 0.54626,0.396833 0.64733,0.01024 z m 2.34995,-0.04321 c 0.17674,-0.18854 0.29266,-0.523857 0.34041,-0.984729 l 0.0724,-0.698841 -0.20267,0.542686 c -0.13219,0.353857 -0.33208,0.609592 -0.57454,0.734973 -0.31509,0.162939 -0.35145,0.230402 -0.23818,0.442042 0.17156,0.320559 0.27395,0.314418 0.60256,-0.03613 z M 135.90232,95.01371 c -0.21063,-0.08857 -0.44397,-0.332412 -0.54969,-0.574435 l -0.18368,-0.420542 -0.0103,0.52872 c -0.009,0.444325 0.054,0.582848 0.39267,0.867846 l 0.40304,0.33913 0.15703,-0.293412 c 0.14301,-0.267227 0.12436,-0.307144 -0.20899,-0.447307 z m 2.97411,-0.677321 0.0724,-0.698841 -0.19725,0.545142 c -0.11147,0.308076 -0.34385,0.636702 -0.53438,0.755682 -0.18542,0.115795 -0.35605,0.222946 -0.37917,0.238112 -0.023,0.01516 0.0257,0.154112 0.10843,0.308769 l 0.15049,0.281193 0.35359,-0.365609 c 0.26913,-0.278283 0.37087,-0.532521 0.42593,-1.064448 z m 14.7294,1.0286 c 0.0477,-0.18215 -0.0164,-0.266256 -0.24699,-0.324117 -0.20658,-0.05185 -0.39314,-0.258324 -0.55446,-0.61367 l -0.2431,-0.535529 -0.003,0.552566 c -0.003,0.456073 0.066,0.616852 0.39132,0.920713 0.42024,0.392554 0.55341,0.392562 0.65604,3.7e-5 z m 2.69997,-1.033894 0.0596,-0.693547 -0.2096,0.596458 c -0.15245,0.433756 -0.30811,0.637257 -0.5707,0.746022 -0.41053,0.170048 -0.41056,0.170072 -0.22088,0.52446 0.13756,0.257037 0.14716,0.254989 0.5111,-0.108945 0.29477,-0.294786 0.38314,-0.513233 0.4305,-1.064448 z" />
    <path
       style="fill:#ff0000;stroke:#000000;stroke-width:0.00306411"
       d="m 150.71619,102.37462 c -0.38352,0.0681 -0.78342,0.0269 -1.16329,-0.002 0.0384,0.49337 -0.0709,1.02945 0.0747,1.50382 0.35784,0.12467 0.78033,0.0691 1.15144,0.019 0.0844,-0.51257 0.0918,-1.0542 0.1143,-1.56713 -0.059,0.0155 -0.11809,0.031 -0.17714,0.0466 z"
       id="path2307"
       class="OC" />
    <path
       style="fill:#ff0000;stroke:#000000;stroke-width:0.000599998"
       d="m 152.01985,100.64754 c -0.11306,0.29713 -0.19428,0.60934 -0.35205,0.88718 -0.0983,0.15939 -0.25269,0.27971 -0.43205,0.33441 -0.0866,0.043 -0.22149,0.0667 -0.24368,0.17774 0.002,0.13603 0.0748,0.26057 0.13835,0.37716 0.0304,0.0566 0.0981,0.11057 0.16327,0.0728 0.24001,-0.12065 0.46144,-0.29382 0.61249,-0.51806 0.11858,-0.22489 0.11826,-0.48921 0.12673,-0.73723 7.9e-4,-0.19892 0.004,-0.39978 -0.002,-0.59744 l -0.006,-8e-4 z"
       id="path2362"
       class="OC" />
    <path
       style="fill:#ff0000;stroke:#000000;stroke-width:0.000599998"
       d="m 148.26941,100.82906 c -0.0305,0.046 -0.01,0.11552 -0.0158,0.16947 0.009,0.4088 0.1394,0.81574 0.36601,1.15566 0.14325,0.20242 0.34245,0.3584 0.5426,0.501 0.0252,0.0254 0.0559,0.0123 0.0564,-0.0239 0.0439,-0.17234 0.1013,-0.3466 0.10143,-0.52591 -0.005,-0.14502 -0.1666,-0.19127 -0.27665,-0.23759 -0.16612,-0.0575 -0.32344,-0.15412 -0.4129,-0.31019 -0.1463,-0.21908 -0.19134,-0.48807 -0.33059,-0.70999 -0.008,-0.009 -0.0177,-0.0195 -0.0306,-0.0185 z"
       id="path2363"
       class="OC" />
    <path
       style="fill:#ff0000;stroke:#000000;stroke-width:0.000599998"
       d="m 150.24561,104.25496 c -0.1136,0.008 -0.26876,-0.0204 -0.34216,0.0903 -0.0251,0.0956 0.0662,0.17181 0.12105,0.23827 0.0722,0.0644 0.14905,0.17326 0.25875,0.15342 0.11777,-0.0572 0.17311,-0.18931 0.24254,-0.29328 0.0241,-0.0473 0.0882,-0.1232 0.025,-0.16781 -0.0919,-0.0395 -0.19957,-0.0122 -0.29728,-0.0209 z"
       id="path2364"
       class="OC" />
    <path
       style="fill:#ff0000;stroke:#000000;stroke-width:0.000599998"
       d="m 149.25679,104.64391 c -0.0857,0.0175 -0.12658,0.11273 -0.17991,0.17273 -0.25213,0.37247 -0.45899,0.77388 -0.65756,1.1768 -0.058,0.14228 -0.14754,0.29096 -0.12492,0.45014 0.0287,0.0961 0.14037,0.13252 0.21986,0.17679 0.0842,0.0463 0.20975,0.0405 0.2558,-0.0562 0.115,-0.23642 0.24889,-0.4631 0.40415,-0.67538 0.19099,-0.26932 0.39243,-0.53086 0.59098,-0.79455 -0.11373,-0.13108 -0.24535,-0.25752 -0.37493,-0.37789 -0.0387,-0.0307 -0.0806,-0.0721 -0.13347,-0.0724 z"
       id="path2365"
       class="OC" />
    <path
       style="fill:#ff0000;stroke:#000000;stroke-width:0.000599998"
       d="m 151.20922,104.58979 c -0.12134,0.0227 -0.20307,0.13221 -0.29086,0.21007 -0.0764,0.0749 -0.15611,0.18626 -0.0978,0.29567 0.10895,0.22964 0.29693,0.40925 0.44817,0.61052 0.14015,0.18516 0.29341,0.36801 0.38126,0.58497 0.0148,0.0983 0.0543,0.2064 0.1567,0.24298 0.14071,0.06 0.34853,0.033 0.41801,-0.11892 0.0269,-0.14501 -0.0513,-0.28444 -0.10188,-0.41571 -0.19474,-0.41503 -0.43038,-0.8104 -0.68255,-1.19283 -0.0644,-0.0787 -0.11879,-0.19176 -0.22545,-0.21675 l -0.005,-2e-5 z"
       id="path2366"
       class="OC" />
    <path
       style="fill:#0000ff;stroke:#000000;stroke-width:0.00177069"
       d="m 141.85702,102.21421 c -0.30337,0.10721 -0.62129,-0.009 -0.92781,-0.004 -0.22273,0.15788 -0.0966,0.48347 -0.10948,0.70969 0.0462,0.2946 0.0129,0.67574 0.26753,0.88338 0.27209,0.0889 0.57446,-0.003 0.85629,0.005 0.0941,-0.0238 0.2972,0.0408 0.25414,-0.12652 0.003,-0.46068 0.0706,-0.93038 0.005,-1.38694 -0.0817,-0.19553 -0.16735,-0.13402 -0.34529,-0.0809 z"
       id="path2755"
       class="IC" />
    <path
       style="fill:#0000ff;stroke:#000000;stroke-width:0.00177069"
       d="m 139.62865,100.69972 c 0.0131,0.50371 0.0762,1.06041 0.46661,1.42462 0.12659,0.10085 0.24286,0.30719 0.42448,0.28859 0.12837,-0.12687 0.13879,-0.36281 0.0796,-0.52623 -0.18888,-0.18005 -0.50133,-0.20853 -0.62687,-0.46508 -0.14739,-0.22202 -0.22086,-0.50837 -0.34383,-0.7219 z"
       id="path2756"
       class="IC" />
    <path
       style="fill:#0000ff;stroke:#000000;stroke-width:0.00177069"
       d="m 143.36744,100.65393 c -0.18726,0.34243 -0.24408,0.8088 -0.62826,1.00936 -0.11327,0.0921 -0.32031,0.12476 -0.37163,0.27231 0.0303,0.17004 0.0995,0.36344 0.21158,0.48729 0.28006,-0.23538 0.5419,-0.51352 0.74127,-0.82109 0.0585,-0.30727 0.10686,-0.63674 0.0582,-0.94538 -0.003,-0.003 -0.007,-0.004 -0.0111,-0.002 z"
       id="path2757"
       class="IC" />
    <path
       style="fill:#0000ff;stroke:#000000;stroke-width:0.00113115"
       d="m 141.54198,104.1302 c -0.0972,0.002 -0.2641,0.003 -0.28182,0.12787 0.0551,0.16013 0.22834,0.33601 0.40903,0.24324 0.0962,-0.0516 0.24773,-0.16717 0.18797,-0.29078 -0.0746,-0.0857 -0.21159,-0.0787 -0.31518,-0.0803 z"
       id="path2758"
       class="IC" />
    <path
       style="fill:#0000ff;stroke:#000000;stroke-width:0.00113115"
       d="m 140.59005,104.51421 c -0.15623,0.0833 -0.23012,0.27002 -0.33012,0.40969 -0.21289,0.37325 -0.44659,0.74498 -0.57384,1.1578 -0.0721,0.20145 0.14047,0.42327 0.34536,0.35715 0.12994,-0.0133 0.19045,-0.14305 0.20511,-0.25702 0.20328,-0.47596 0.5801,-0.8537 0.8629,-1.27595 -0.16348,-0.12798 -0.30128,-0.30385 -0.4924,-0.39069 -0.006,-0.001 -0.0113,-0.001 -0.017,-0.001 z"
       id="path2759"
       class="IC" />
    <path
       style="fill:#0000ff;stroke:#000000;stroke-width:0.00113115"
       d="m 142.55622,104.47489 c -0.15555,0.0511 -0.27589,0.19097 -0.36634,0.32357 -0.0743,0.15404 0.0885,0.29548 0.15973,0.41723 0.25005,0.3394 0.55321,0.65169 0.71386,1.04682 0.13544,0.1777 0.36398,0.29968 0.58895,0.29587 0.10769,0.003 0.16052,-0.11936 0.0959,-0.20268 -0.27508,-0.57871 -0.60942,-1.12869 -0.95299,-1.66885 -0.064,-0.0778 -0.12585,-0.2041 -0.23909,-0.21196 z"
       id="path2760"
       class="IC" />
    <path
       style="fill:#ff6600;stroke:#000000;stroke-width:0.00113115"
       d="m 136.85962,108.81529 c -0.11516,0.0336 -0.10661,0.19778 -0.13447,0.29364 -0.047,0.38568 -0.0593,0.78868 0.0447,1.1659 0.046,0.1596 0.22647,0.19331 0.37032,0.17467 0.32613,-0.0131 0.66096,-0.007 0.98061,-0.0555 -0.0132,-0.48225 0.027,-0.96844 -0.0292,-1.44832 -0.004,-0.10651 -0.11627,-0.15399 -0.20812,-0.11506 -0.33847,0.0552 -0.68679,0.0358 -1.02383,-0.0153 z"
       id="path2761"
       class="OR" />
    <path
       style="fill:#ff6600;stroke:#000000;stroke-width:0.00113115"
       d="m 135.5345,107.32977 c 0.005,0.28063 0.0487,0.5733 0.089,0.8557 0.0416,0.27535 0.22896,0.49504 0.44847,0.65323 0.11648,0.0754 0.22878,0.20712 0.37612,0.20578 0.11036,-0.068 0.10204,-0.2301 0.12911,-0.34332 0.0262,-0.11838 -0.009,-0.26446 -0.14033,-0.29971 -0.23627,-0.0599 -0.43808,-0.21641 -0.55523,-0.43043 -0.13501,-0.20207 -0.21253,-0.44375 -0.34713,-0.64125 z"
       id="path2762"
       class="OR" />
    <path
       style="fill:#ff6600;stroke:#000000;stroke-width:0.00113115"
       d="m 137.23794,110.73423 c -0.0493,-0.007 -0.17785,0.0125 -0.11921,0.0873 0.10796,0.12902 0.21805,0.30086 0.39484,0.33183 0.13358,-0.0474 0.26312,-0.16963 0.29004,-0.31168 -0.0566,-0.10654 -0.21634,-0.0809 -0.31756,-0.10101 -0.0826,-0.005 -0.16537,-0.008 -0.24811,-0.006 z"
       id="path2763"
       class="OR" />
    <path
       style="fill:#ff6600;stroke:#000000;stroke-width:0.00113115"
       d="m 136.51644,111.10734 c -0.14506,0.0593 -0.20081,0.23631 -0.28857,0.35548 -0.3284,0.58864 -0.64404,1.18676 -0.91293,1.80511 -0.0348,0.0473 -0.0466,0.17487 0.0468,0.14104 0.30294,-0.1256 0.58834,-0.3267 0.7771,-0.59792 0.13153,-0.4484 0.52849,-0.7451 0.73263,-1.15443 0.0973,-0.18371 -0.0632,-0.35918 -0.19472,-0.47072 -0.0454,-0.037 -0.0978,-0.0819 -0.1603,-0.0786 z"
       id="path2764"
       class="OR" />
    <path
       style="fill:#ff6600;stroke:#000000;stroke-width:0.00113115"
       d="m 138.43091,110.98167 c -0.14711,0.17166 -0.31129,0.37835 -0.30616,0.61529 0.075,0.24048 0.2913,0.40474 0.42991,0.60812 0.18674,0.21567 0.29825,0.48086 0.4527,0.71687 0.10866,0.12317 0.30535,0.0966 0.40836,0.23277 0.0872,0.0674 0.15723,0.18189 0.263,0.21439 0.0621,-0.0769 -0.003,-0.19703 -0.0139,-0.2846 -0.22407,-0.57007 -0.54633,-1.09638 -0.86047,-1.62042 -0.1147,-0.16455 -0.2099,-0.36597 -0.37346,-0.48242 z"
       id="path2765"
       class="OR" />
    <path
       style="fill:#ff6600;stroke:#000000;stroke-width:0.00113115"
       d="m 139.30018,107.12373 c -0.15434,0.35397 -0.22901,0.76454 -0.50407,1.051 -0.14474,0.13609 -0.36866,0.16988 -0.49519,0.32534 -0.0243,0.17979 0.10523,0.34108 0.16468,0.50301 0.0334,0.15497 0.13544,-0.0366 0.19809,-0.0807 0.26784,-0.26494 0.52048,-0.58135 0.56352,-0.96909 0.0355,-0.27481 0.0784,-0.55141 0.085,-0.82809 -0.003,-0.005 -0.009,-0.005 -0.012,-0.002 z"
       id="path2766"
       class="OR" />
    <path
       style="fill:#ffff00;stroke:#000000;stroke-width:0.00113115"
       d="m 145.13755,111.1182 c -0.46982,0.70808 -0.89551,1.45645 -1.18418,2.25878 -0.011,0.0601 -0.0744,0.18216 0.005,0.2162 0.1695,-0.0688 0.29127,-0.22811 0.46536,-0.29547 0.0795,-0.0456 0.19838,-0.0274 0.22959,-0.13817 0.14666,-0.50822 0.56625,-0.87197 0.80953,-1.32986 0.0917,-0.17378 -0.0839,-0.32924 -0.15267,-0.47572 -0.0564,-0.0743 -0.0959,-0.18405 -0.17228,-0.23576 z"
       id="path2767"
       class="T" />
    <path
       style="fill:#ffff00;stroke:#000000;stroke-width:0.00113115"
       d="m 146.02581,110.86657 c -0.0784,0.0175 -0.20616,-0.0211 -0.25641,0.0562 0.006,0.17553 0.14748,0.32484 0.28058,0.42595 0.10135,0.0301 0.16602,-0.10986 0.22354,-0.17144 0.0433,-0.0809 0.14017,-0.18189 0.0982,-0.27731 -0.10692,-0.044 -0.23245,-0.0295 -0.34593,-0.0334 z"
       id="path2768"
       class="T" />
    <path
       style="fill:#ffff00;stroke:#000000;stroke-width:0.00113115"
       d="m 146.62934,108.90587 c -0.20764,0.042 -0.40478,0.14642 -0.62284,0.13004 -0.22931,0.007 -0.46027,-0.0647 -0.68002,-0.0833 0.004,0.48786 -0.0138,0.97972 0.045,1.4648 0.001,0.11362 0.11368,0.14162 0.20643,0.13917 0.37699,0.0382 0.75705,-0.002 1.13364,-0.0252 0.11016,-0.0103 0.0565,-0.16013 0.0798,-0.23061 0.012,-0.42852 0.0627,-0.87013 -0.0471,-1.28978 -0.0171,-0.052 -0.0498,-0.11443 -0.11493,-0.10512 z"
       id="path2769"
       class="T" />
    <path
       style="fill:#ffff00;stroke:#000000;stroke-width:0.00113115"
       d="m 144.0918,107.23539 c -0.0106,0.19464 0.0346,0.40408 0.052,0.60294 0.0404,0.33677 0.10475,0.69325 0.34411,0.95094 0.13085,0.14184 0.25396,0.32985 0.44835,0.38331 0.13308,-0.0434 0.1663,-0.21522 0.23114,-0.32344 0.0421,-0.0834 0.10379,-0.24741 -0.035,-0.27585 -0.21794,-0.0716 -0.47603,-0.12114 -0.59023,-0.34549 -0.19678,-0.30713 -0.28412,-0.67357 -0.44977,-0.99245 z"
       id="path2770"
       class="T" />
    <path
       style="fill:#ffff00;stroke:#000000;stroke-width:0.00113115"
       d="m 147.92186,107.25814 c -0.13223,0.3113 -0.22853,0.65037 -0.44978,0.91582 -0.15102,0.21124 -0.37796,0.34088 -0.59322,0.47413 -0.0471,0.0709 0.036,0.16781 0.0435,0.24424 0.0477,0.0953 0.0558,0.26135 0.17632,0.29315 0.20914,-0.12479 0.37718,-0.31694 0.52585,-0.50853 0.26569,-0.40714 0.25646,-0.91304 0.30934,-1.37877 -0.003,-0.0104 0.008,-0.0427 -0.012,-0.04 z"
       id="path2771"
       class="T" />
    <path
       style="fill:#ffff00;stroke:#000000;stroke-width:0.00113115"
       d="m 147.01106,111.09549 c -0.12556,0.16901 -0.23909,0.35591 -0.32224,0.54989 -0.008,0.20419 0.18347,0.34642 0.28813,0.50156 0.19911,0.24905 0.4117,0.5 0.52382,0.80192 0.18245,0.24244 0.47089,0.40202 0.76459,0.4643 0.12108,-0.006 0.0495,-0.15039 0.0245,-0.21372 -0.26366,-0.58536 -0.57916,-1.1497 -0.94116,-1.67992 -0.11093,-0.13964 -0.21001,-0.30388 -0.33766,-0.42403 z"
       id="path2772"
       class="T" />
    <path
       style="fill:#00ff00;stroke:#000000;stroke-width:0.00113115"
       d="m 153.76369,111.02762 c -0.19161,0.13978 -0.31259,0.36 -0.44462,0.55385 -0.27847,0.48844 -0.56278,0.98368 -0.73032,1.52301 -0.0107,0.0761 -0.0615,0.19945 0.008,0.25694 0.20203,-0.11745 0.36394,-0.33577 0.61246,-0.35927 0.13542,-0.0754 0.10246,-0.26334 0.19305,-0.37593 0.20027,-0.38297 0.51661,-0.69211 0.71448,-1.07495 0.0715,-0.18287 -0.12089,-0.32003 -0.228,-0.43881 -0.0383,-0.0287 -0.0745,-0.0807 -0.12496,-0.0848 z"
       id="path2773"
       class="IR" />
    <path
       style="fill:#00ff00;stroke:#000000;stroke-width:0.00113115"
       d="m 152.74,107.18117 c -0.0425,0.0963 0.0102,0.22316 0.008,0.32799 0.0443,0.38469 0.0711,0.82443 0.38514,1.09771 0.15021,0.1292 0.28968,0.30451 0.48935,0.35229 0.12102,-0.0766 0.12996,-0.25191 0.1748,-0.37651 0.0681,-0.16228 -0.13391,-0.24299 -0.24346,-0.30359 -0.19558,-0.0839 -0.36959,-0.21675 -0.46784,-0.40952 -0.14288,-0.21304 -0.2054,-0.46992 -0.33639,-0.6866 -0.003,-0.002 -0.006,-0.002 -0.01,-0.002 z"
       id="path2774"
       class="IR" />
    <path
       style="fill:#00ff00;stroke:#000000;stroke-width:0.00113115"
       d="m 155.00102,108.74906 c -0.34438,0.008 -0.69611,0.006 -1.03544,0.0296 0.005,0.52085 -0.01,1.04971 0.007,1.56559 0.40109,-0.0205 0.80838,0.0156 1.20557,-0.0504 0.12162,-0.0188 0.23247,-0.1098 0.22057,-0.24266 0.01,-0.4317 -0.024,-0.86684 -0.0883,-1.29305 -0.0965,-0.0223 -0.20911,-0.003 -0.30947,-0.009 z"
       id="path2775"
       class="IR" />
    <path
       style="fill:#00ff00;stroke:#000000;stroke-width:0.00113115"
       d="m 154.6756,110.60892 c -0.10415,0.0129 -0.29265,-0.0145 -0.32512,0.12072 0.0367,0.1431 0.16702,0.2531 0.28588,0.33377 0.14995,0.0824 0.26438,-0.10073 0.32512,-0.21098 0.0334,-0.0631 0.12068,-0.20323 0.002,-0.22968 -0.0943,-0.0194 -0.19218,-0.0126 -0.28791,-0.0138 z"
       id="path2776"
       class="IR" />
    <path
       style="fill:#00ff00;stroke:#000000;stroke-width:0.00113115"
       d="m 155.64715,110.88309 c -0.13767,0.15437 -0.26172,0.33491 -0.3374,0.52926 -0.0407,0.20886 0.1692,0.35549 0.27773,0.50432 0.21586,0.25088 0.44825,0.50336 0.56825,0.81599 0.17314,0.22737 0.42836,0.3831 0.67909,0.51229 0.0506,0.0324 0.16158,0.0578 0.13012,-0.0439 -0.1058,-0.39432 -0.33079,-0.74553 -0.52283,-1.10254 -0.24688,-0.41485 -0.50025,-0.83088 -0.7901,-1.2157 l -0.003,-9e-5 z"
       id="path2777"
       class="IR" />
    <path
       style="fill:#00ff00;stroke:#000000;stroke-width:0.00113115"
       d="m 156.37621,107.41783 c -0.10014,0.33735 -0.31448,0.64016 -0.62178,0.81854 -0.0869,0.0697 -0.21616,0.11521 -0.27289,0.21183 0.0426,0.16865 0.0841,0.35951 0.21037,0.48613 0.13253,-0.0311 0.23086,-0.16032 0.33944,-0.24046 0.2076,-0.19019 0.45178,-0.41916 0.42469,-0.7275 0.006,-0.25559 0.007,-0.51128 0.0107,-0.7669 -0.0461,0.0356 -0.0592,0.15619 -0.0906,0.21836 z"
       id="path2778"
       class="IR" />
    <path
       style="fill:#ff00ff;stroke:#000000;stroke-width:0.00113115"
       d="m 152.56295,93.943103 c 0.0206,0.356788 -0.0561,0.743786 0.10379,1.07791 0.18129,0.244072 0.3993,0.477813 0.6714,0.620543 0.12993,0.06078 0.21328,-0.117393 0.24355,-0.216996 0.0469,-0.110318 0.0585,-0.273791 -0.0806,-0.32123 -0.20732,-0.07759 -0.42508,-0.176411 -0.53447,-0.382294 -0.15422,-0.247489 -0.26387,-0.51898 -0.39038,-0.780894 z"
       id="path2779"
       class="IF" />
    <path
       style="fill:#ff00ff;stroke:#000000;stroke-width:0.00113115"
       d="m 156.32593,93.804315 c -0.17071,0.343932 -0.22399,0.774907 -0.52572,1.041014 -0.1543,0.141915 -0.38246,0.176356 -0.52987,0.321453 -0.0344,0.143896 0.0779,0.28017 0.13622,0.404254 0.0324,0.06758 0.11812,0.155297 0.18629,0.07224 0.31633,-0.252807 0.62577,-0.579162 0.66628,-1.00253 0.0349,-0.276019 0.0766,-0.556278 0.0784,-0.833295 -0.003,-0.0035 -0.008,-0.005 -0.0116,-0.0031 z"
       id="path2780"
       class="IF" />
    <path
       style="fill:#ff00ff;stroke:#000000;stroke-width:0.00113115"
       d="m 153.90526,95.472458 c -0.13469,0.02775 -0.12464,0.214082 -0.14784,0.319905 -0.0318,0.36685 -0.0732,0.744392 -7.9e-4,1.108395 0.0556,0.195818 0.28975,0.217271 0.45984,0.200914 0.3123,-0.014 0.62887,0.0021 0.93802,-0.04838 -0.002,-0.472348 0.008,-0.955088 -0.0329,-1.429298 0.003,-0.0897 -0.0702,-0.186034 -0.16721,-0.141547 -0.30755,0.05192 -0.62867,0.04088 -0.93731,0.01029 -0.0367,-0.0093 -0.0736,-0.02212 -0.11192,-0.02027 z"
       id="path2781"
       class="IF" />
    <path
       style="fill:#ff00ff;stroke:#000000;stroke-width:0.00113115"
       d="m 154.41207,97.389938 c -0.0781,0.01439 -0.19961,-0.01651 -0.25168,0.054 0.0353,0.162103 0.14318,0.31531 0.27461,0.416097 0.11351,0.04815 0.20497,-0.094 0.28279,-0.155138 0.0648,-0.06051 0.17015,-0.211966 0.0452,-0.266925 -0.11032,-0.04595 -0.23329,-0.04814 -0.35097,-0.04803 z"
       id="path2782"
       class="IF" />
    <path
       style="fill:#ff00ff;stroke:#000000;stroke-width:0.00113115"
       d="m 153.59393,97.845492 c -0.16873,0.04793 -0.24238,0.240644 -0.34728,0.365094 -0.30654,0.474884 -0.60942,0.962699 -0.79947,1.497465 -0.0302,0.07122 -0.0276,0.226353 0.0872,0.197995 0.23186,-0.0639 0.49478,-0.14515 0.63849,-0.351673 0.0649,-0.282422 0.26087,-0.515686 0.41418,-0.756388 0.12211,-0.201333 0.31816,-0.399381 0.3109,-0.649555 -0.0325,-0.137488 -0.15228,-0.262432 -0.28676,-0.302805 -0.006,-5.29e-4 -0.0115,-5.29e-4 -0.0173,-1.33e-4 z"
       id="path2783"
       class="IF" />
    <path
       style="fill:#ff00ff;stroke:#000000;stroke-width:0.00113115"
       d="m 155.36472,97.81832 c -0.0974,0.123671 -0.26118,0.259752 -0.22995,0.434255 0.24806,0.411192 0.52507,0.807749 0.82588,1.182232 0.20313,0.206743 0.41823,0.44649 0.70807,0.520198 0.0873,-0.02835 0.0192,-0.153154 0.005,-0.211207 -0.30818,-0.733356 -0.69381,-1.435142 -1.14551,-2.090115 -0.0606,0.03576 -0.10888,0.113853 -0.1638,0.164637 z"
       id="path2784"
       class="IF" />
    <path
       style="fill:#808080;stroke:#000000;stroke-width:0.00113115"
       d="m 137.60641,95.420229 c -0.22335,0.0925 -0.45926,0.174919 -0.70635,0.147979 -0.19585,-0.0055 -0.39113,-0.07305 -0.58294,-0.07711 -0.0449,0.252047 -0.004,0.516811 -0.0112,0.773118 0.0192,0.254092 -0.0136,0.523438 0.0729,0.766577 0.13876,0.109051 0.3393,0.04426 0.50248,0.06385 0.28983,-0.01228 0.591,0.01442 0.87333,-0.04644 0.0254,-0.494099 0.0896,-1.002787 -0.0319,-1.489014 -0.0202,-0.05277 -0.0507,-0.132398 -0.11626,-0.138965 z"
       id="path2785"
       class="OF" />
    <path
       style="fill:#808080;stroke:#000000;stroke-width:0.00113115"
       d="m 138.91386,93.798968 c -0.12975,0.253169 -0.19674,0.545267 -0.36453,0.782617 -0.16332,0.276952 -0.45383,0.426132 -0.70238,0.610999 -0.0331,0.06278 0.056,0.137687 0.0658,0.201311 0.0621,0.118197 0.11148,0.255717 0.18549,0.35914 0.29786,-0.295135 0.63883,-0.605681 0.70984,-1.041048 0.06,-0.299492 0.0939,-0.609526 0.11294,-0.911294 -0.002,-0.0016 -0.005,-0.0024 -0.007,-0.0019 z"
       id="path2786"
       class="OF" />
    <path
       style="fill:#808080;stroke:#000000;stroke-width:0.00113115"
       d="m 135.1735,94.086089 c -0.006,0.28934 -0.0188,0.585224 0.0282,0.872003 0.10787,0.302408 0.40492,0.478843 0.63034,0.687358 0.12561,0.188159 0.18057,-0.0037 0.23817,-0.127666 0.0346,-0.101209 0.12548,-0.199089 0.12239,-0.307216 -0.14392,-0.174104 -0.39715,-0.204158 -0.55161,-0.370848 -0.22854,-0.200358 -0.32334,-0.500269 -0.46125,-0.757388 z"
       id="path2787"
       class="OF" />
    <path
       style="fill:#808080;stroke:#000000;stroke-width:0.00113115"
       d="m 136.97818,97.388835 c -0.0707,0.0097 -0.21423,-0.01109 -0.22787,0.0859 0.0652,0.138001 0.14857,0.274952 0.25606,0.383532 0.14734,0.05313 0.2473,-0.123381 0.33963,-0.207029 0.0697,-0.05475 0.10928,-0.194323 -0.005,-0.221795 -0.11603,-0.03856 -0.2414,-0.03844 -0.36237,-0.0406 z"
       id="path2788"
       class="OF" />
    <path
       style="fill:#808080;stroke:#000000;stroke-width:0.00113115"
       d="m 136.13198,97.619263 c -0.47384,0.752007 -0.93617,1.524815 -1.2205,2.37118 -0.0218,0.04615 -0.0284,0.152607 0.0523,0.118507 0.19266,-0.10337 0.34983,-0.283618 0.57087,-0.325739 0.19351,-0.147617 0.22034,-0.414623 0.36621,-0.600152 0.16456,-0.293926 0.4152,-0.531503 0.57084,-0.829299 0.073,-0.209815 -0.13029,-0.386665 -0.21507,-0.557303 -0.0437,-0.05322 -0.0717,-0.141724 -0.12467,-0.177194 z"
       id="path2789"
       class="OF" />
    <path
       style="fill:#808080;stroke:#000000;stroke-width:0.00113115"
       d="m 137.96564,97.752084 c -0.0996,0.143319 -0.27281,0.267734 -0.28606,0.453258 0.061,0.249613 0.27752,0.423759 0.4176,0.630351 0.16586,0.205134 0.30841,0.428829 0.40805,0.67255 0.12379,0.15046 0.32273,0.227319 0.50739,0.273952 0.076,0.0073 0.24174,0.04934 0.24973,-0.06663 -0.0993,-0.344416 -0.30934,-0.646716 -0.48132,-0.958442 -0.22801,-0.37546 -0.46871,-0.756743 -0.72857,-1.102863 -0.0289,0.03261 -0.0579,0.06522 -0.0868,0.09783 z"
       id="path2790"
       class="OF" />
    <path
       style="fill:#ffffff;fill-opacity:1;stroke:#000000;stroke-width:0.0064821;stroke-opacity:0"
       d="m 543.66718,356.3252 c -0.33915,0.4277 -0.0786,1.15263 -0.16641,1.68129 -0.0637,1.00091 0.10748,2.0742 0.91058,2.76375 0.68935,0.63088 1.34957,1.60792 2.35002,1.69573 0.62854,-0.23765 0.78012,-1.1622 0.60136,-1.74232 -0.51711,-0.92029 -1.80348,-0.99976 -2.32089,-1.94893 -0.5701,-0.73736 -0.84041,-1.67506 -1.32073,-2.44395 l -0.0468,-0.006 z"
       id="path85"
       transform="scale(0.26458333)"
       class="P" />
    <path
       style="fill:#ffffff;fill-opacity:1;stroke:#000000;stroke-width:0.0064821;stroke-opacity:0"
       d="m 549.86315,361.60203 c -0.58263,0.11357 -1.39479,-0.19919 -1.86588,0.24839 -0.18442,1.50696 -0.1868,3.06205 -0.0841,4.58077 0.10372,0.95824 1.0058,1.55003 1.91754,1.55672 1.09132,0.0842 2.46303,0.27932 3.31802,-0.55959 0.59905,-1.18813 0.24607,-2.60477 0.28675,-3.88372 -0.12963,-0.5727 0.12983,-1.33549 -0.24395,-1.81572 -1.06937,-0.2482 -2.2356,-0.0706 -3.32841,-0.12685 z"
       id="path86"
       transform="scale(0.26458333)"
       class="P" />
    <path
       style="fill:#ffffff;fill-opacity:1;stroke:#000000;stroke-width:0.0064821;stroke-opacity:0"
       d="m 557.62344,355.50531 c -0.66276,1.6593 -1.32632,3.64333 -3.11723,4.39871 -0.47703,0.23029 -1.00163,0.76348 -0.58896,1.29769 0.25669,0.39344 0.57473,1.1899 1.14702,1.07663 1.71739,-0.9781 2.40668,-2.97912 2.57183,-4.84435 0.0547,-0.65142 0.18652,-1.32406 0.14508,-1.96691 l -0.0889,-0.0213 z"
       id="path87"
       transform="scale(0.26458333)"
       class="P" />
    <path
       style="fill:#ffffff;fill-opacity:1;stroke:#000000;stroke-width:0.0064821;stroke-opacity:0"
       d="m 550.79394,368.60244 c -0.40114,0.0672 -1.30454,-0.14386 -1.33415,0.45527 0.37284,0.66294 0.74127,1.47109 1.39669,1.87854 0.61109,-0.50293 1.05549,-1.27382 1.34352,-2.01148 -0.15571,-0.49835 -1.03672,-0.24694 -1.40606,-0.32233 z"
       id="path88"
       transform="scale(0.26458333)"
       class="P" />
    <path
       style="fill:#ffffff;fill-opacity:1;stroke:#000000;stroke-width:0.0064821;stroke-opacity:0"
       d="m 547.20448,370.30956 c -0.77799,0.36004 -1.12691,1.30163 -1.62562,1.9587 -0.80519,1.46804 -1.88612,2.96109 -1.94055,4.69001 0.0745,0.4633 0.24322,1.36898 0.91231,1.125 1.1161,-0.1313 1.35702,-1.3494 1.73776,-2.19784 0.65812,-1.30006 1.89638,-2.27616 2.35887,-3.66846 -0.015,-0.77198 -0.65549,-1.43528 -1.24654,-1.86892 -0.0617,-0.0263 -0.129,-0.041 -0.19623,-0.0385 z"
       id="path89"
       transform="scale(0.26458333)"
       class="P" />
    <path
       style="fill:#ffffff;fill-opacity:1;stroke:#000000;stroke-width:0.0064821;stroke-opacity:0"
       d="m 554.39201,370.03053 c -0.74683,0.3706 -1.08188,1.32396 -1.23286,2.09655 0.20636,1.15607 1.34258,1.86649 1.94589,2.80882 0.74175,0.76516 0.94755,1.88988 1.70079,2.62652 0.56684,0.32505 1.36991,0.74345 2.01502,0.42868 0.41742,-0.61251 -0.20961,-1.37575 -0.41298,-1.9659 -1.09275,-2.05557 -2.20407,-4.16033 -3.76873,-5.89871 -0.0692,-0.0558 -0.15339,-0.11264 -0.24713,-0.096 z"
       id="path90"
       transform="scale(0.26458333)"
       class="P" />
  </g>
</svg>
