<?xml version="1.0" encoding="UTF-8" standalone="no"?>
<!-- Created with Inkscape (http://www.inkscape.org/) -->

<svg
   width="29.547716mm"
   height="26.401535mm"
   viewBox="0 0 29.547717 26.401535"
   version="1.1"
   id="svg1"
   xmlns="http://www.w3.org/2000/svg"
   xmlns:svg="http://www.w3.org/2000/svg">
  <defs
     id="defs1" />
  <g
     id="layer1"
     transform="translate(-20.138977,-128.14114)">
    <path
       id="path1144"
       style="fill:#000000;stroke-width:0.264583"
       d="m 30.076564,154.32556 c -0.192325,-0.35935 -0.168036,-0.86495 0.05813,-1.2101 0.14613,-0.22302 0.172958,-0.47269 0.109141,-1.0156 -0.04654,-0.39594 -0.126656,-0.74588 -0.178065,-0.77766 -0.214762,-0.13272 -1.463066,0.36455 -1.787816,0.7122 -0.272229,0.29143 -0.454633,0.36921 -0.865716,0.36921 -0.426376,0 -0.52078,-0.0436 -0.52078,-0.24069 0,-0.4227 0.681593,-0.98993 1.868858,-1.55527 1.418114,-0.67525 1.683888,-1.03413 1.467221,-1.98106 -0.122317,-0.53454 -0.104617,-0.6599 0.169598,-1.20105 0.16838,-0.33231 0.306175,-0.69636 0.306175,-0.80899 0,-0.36725 0.948214,-1.12703 2.054331,-1.64607 0.845159,-0.39658 1.139534,-0.60595 1.339877,-0.95296 0.173804,-0.30105 0.224049,-0.52681 0.155548,-0.69884 -0.181372,-0.45533 -0.12446,-1.07961 0.14687,-1.61147 0.181663,-0.3561 0.211879,-0.50113 0.0953,-0.45761 -1.111832,0.41505 -1.121251,0.41612 -1.728496,0.19776 -0.553006,-0.19885 -0.620051,-0.19862 -1.059683,0.004 -0.3175,0.14605 -0.730462,0.56449 -1.276535,1.29346 -0.872014,1.16402 -1.632188,1.73173 -2.032212,1.51764 -0.154596,-0.0827 -0.431641,-0.0408 -0.907891,0.13737 -0.644472,0.24113 -0.718873,0.24451 -1.245738,0.0566 -0.915035,-0.32637 -1.372579,-0.10088 -2.204587,1.08648 -0.742315,1.05937 -1.313392,1.60772 -1.80213,1.73038 -0.426191,0.10697 -0.493713,0.002 -0.355865,-0.55562 0.08342,-0.3372 0.250666,-0.56087 0.577083,-0.77176 0.570045,-0.3683 1.15996,-1.49746 0.874501,-1.67389 -0.3379,-0.20883 -1.372553,-0.27963 -1.804406,-0.12348 -0.346445,0.12529 -0.506227,0.11707 -0.896831,-0.0461 -1.150091,-0.48054 -0.195316,-0.97392 1.884733,-0.97392 1.861581,0 2.318358,-0.18818 2.576168,-1.06135 0.148643,-0.50345 0.262281,-0.63166 0.857673,-0.96767 0.377455,-0.21303 0.686303,-0.46081 0.686303,-0.55063 0,-0.28143 1.420521,-0.51105 2.706396,-0.43748 0.980493,0.0561 1.244336,0.0285 1.636237,-0.1712 0.256989,-0.13094 0.503819,-0.36769 0.548534,-0.5261 0.223493,-0.79191 0.37838,-1.00366 0.969354,-1.3253 0.385895,-0.21004 0.619628,-0.42325 0.619628,-0.56521 0,-0.40543 0.294878,-0.88976 0.655108,-1.07605 0.396028,-0.20478 1.057063,-1.23746 0.957791,-1.4962 -0.09639,-0.25115 -1.442931,-0.49492 -1.769242,-0.32029 -0.448548,0.24007 -1.495451,-0.0537 -1.495451,-0.41956 0,-0.0653 0.267361,-0.23692 0.594148,-0.38147 0.528479,-0.23377 0.739272,-0.2531 1.907302,-0.17485 1.726962,0.11568 2.205778,-0.064 2.474304,-0.92871 0.154728,-0.49823 0.279003,-0.64008 0.842539,-0.96173 0.36359,-0.20751 0.692494,-0.47633 0.730911,-0.59738 0.08229,-0.25927 0.02593,-0.25161 2.22168,-0.3018 2.158312,-0.0493 2.513701,-0.18601 2.834878,-1.09035 0.189971,-0.53489 0.310171,-0.66946 0.835898,-0.93586 0.337688,-0.17113 0.647939,-0.39956 0.689399,-0.50763 0.09639,-0.25117 0.450109,-0.25493 0.545729,-0.006 0.04728,0.12325 -0.156368,0.39705 -0.575786,0.77414 -0.793512,0.71345 -0.831294,0.9411 -0.156236,0.9411 0.76663,0 0.946282,0.43616 0.428492,1.04025 -0.101044,0.11789 -0.146155,0.27513 -0.100224,0.34942 0.106733,0.17272 0.838174,0.1743 1.289288,0.003 0.270457,-0.10282 0.389626,-0.0906 0.535094,0.0549 0.164862,0.16485 0.163909,0.23744 -0.0079,0.60877 -0.299879,0.64821 -0.374756,0.97053 -0.288528,1.24217 0.07586,0.23901 0.09644,0.24045 0.523637,0.0367 0.610103,-0.29094 0.875718,-0.11273 0.875718,0.58753 0,0.44622 0.03945,0.52493 0.263022,0.52479 0.144674,-9e-5 0.496835,-0.20029 0.782585,-0.44488 0.563139,-0.48204 0.671724,-0.51897 0.888523,-0.30218 0.170366,0.17036 0.07268,0.49277 -0.149304,0.49277 -0.0866,0 -0.39161,0.2573 -0.677836,0.57178 -0.46273,0.50846 -0.580972,0.57182 -1.067779,0.57214 -0.466566,2.7e-4 -0.584994,0.0566 -0.801582,0.38082 -0.139753,0.20925 -0.296994,0.38062 -0.349408,0.38082 -0.05241,2e-4 -0.09779,0.41491 -0.100833,0.92157 -0.0098,1.63987 -0.357875,2.63376 -0.960887,2.7441 -0.132371,0.0242 -0.474583,0.29582 -0.760466,0.60354 -0.45167,0.48616 -0.588248,0.55951 -1.041797,0.55951 -0.791898,0 -1.11199,0.4992 -1.22211,1.90593 -0.101679,1.2992 -0.246486,1.86439 -0.585946,2.28712 l -0.255085,0.31765 -0.252386,-0.29996 c -0.298053,-0.35425 -0.332105,-1.06398 -0.06181,-1.28831 0.200396,-0.16631 0.244555,-0.71502 0.111178,-1.3818 -0.06038,-0.302 -0.147108,-0.39707 -0.362214,-0.39707 -0.499666,0 -1.137259,0.27965 -1.48889,0.65306 -0.195157,0.20722 -0.475642,0.36343 -0.652542,0.36343 -0.452517,0 -0.957633,0.29913 -1.491615,0.88332 -0.387959,0.4244 -0.552741,0.51437 -0.942128,0.51437 -0.357691,0 -0.555863,0.0898 -0.818595,0.37107 -0.310224,0.3321 -0.360971,0.51875 -0.483102,1.77735 -0.148643,1.53158 -0.414338,2.20543 -0.897282,2.27563 -0.152903,0.0222 -0.481594,0.28884 -0.730409,0.59248 -0.389228,0.47501 -0.540146,0.56413 -1.081246,0.63856 -0.929428,0.12782 -1.135962,0.48112 -1.271534,2.17485 -0.110993,1.38662 -0.368777,2.10318 -0.785469,2.18343 -0.113797,0.0219 -0.267943,-0.0742 -0.342556,-0.21359 z m 0.950807,-1.90758 0.0903,-1.03495 -0.302498,0.11121 c -0.264821,0.0974 -0.310382,0.21226 -0.365998,0.92324 -0.04339,0.55464 -0.0066,0.92996 0.115888,1.18408 0.167904,0.34813 0.185605,0.35531 0.275722,0.1117 0.05297,-0.14319 0.136948,-0.72607 0.186584,-1.29528 z m -2.547646,-0.86084 c 0.139753,-0.0751 0.46855,-0.20572 0.730594,-0.29022 0.325172,-0.10485 0.476488,-0.22883 0.476488,-0.39041 0,-0.40999 -0.218414,-0.40001 -1.113843,0.0509 -1.089581,0.54869 -1.313762,0.77956 -0.749459,0.77181 0.221139,-0.003 0.51644,-0.067 0.65622,-0.14211 z m 2.025835,-0.50252 c 0.158088,-0.0607 0.171265,-0.11809 0.05837,-0.25412 -0.208412,-0.25112 -0.368882,-0.21703 -0.368882,0.0784 0,0.2803 0.01535,0.289 0.310515,0.17575 z m 1.118949,-0.85638 c 0.403887,-0.63933 0.420476,-0.71705 0.153035,-0.71705 -0.108003,0 -0.337582,-0.14123 -0.510196,-0.31385 l -0.313849,-0.31384 -0.379227,0.5235 c -0.464688,0.64149 -0.470085,0.77663 -0.04442,1.11146 0.489267,0.38485 0.704188,0.32787 1.09466,-0.29022 z m 1.413431,-0.36283 c 0.0087,-0.0208 0.187536,-0.233 0.397192,-0.47153 l 0.381185,-0.43369 -0.481965,0.28926 c -0.286067,0.17168 -0.606292,0.2655 -0.78777,0.2308 -0.290618,-0.0555 -0.445585,0.0972 -0.445585,0.43914 0,0.11484 0.887069,0.0637 0.936943,-0.054 z m 0.194601,-0.82399 c 0.570971,-0.42843 0.642937,-0.53232 0.645371,-0.93141 0,-0.17663 0.09168,-0.44929 0.201375,-0.6059 0.153167,-0.21867 0.179202,-0.44673 0.11221,-0.98291 -0.04797,-0.38399 -0.138457,-0.72984 -0.20111,-0.76856 -0.236829,-0.14637 -1.476613,0.32423 -1.682671,0.63872 -0.124089,0.18941 -0.379571,0.34537 -0.648308,0.39578 -0.375418,0.0704 -0.463233,0.15423 -0.572029,0.54596 -0.25662,0.92385 -0.132636,1.14317 0.474874,0.8401 0.209841,-0.10469 0.474583,-0.15464 0.588301,-0.11101 0.237225,0.091 0.390287,0.5756 0.295857,0.93669 -0.05448,0.20832 0.03397,0.32774 0.277892,0.37521 0.02834,0.006 0.257069,-0.14418 0.508238,-0.33267 z m -2.392072,-0.71844 c -0.0935,-0.17472 -0.12655,-0.43555 -0.07691,-0.60729 0.208201,-0.72055 0.182139,-0.77406 -0.115676,-0.2375 -0.226457,0.40795 -0.296095,0.681 -0.243099,0.95297 0.107421,0.55115 0.177271,0.62042 0.400579,0.39713 0.168011,-0.16802 0.173487,-0.24677 0.03511,-0.50531 z m 4.136814,-1.5053 c 0.07916,-0.94937 0.06816,-1.02693 -0.134806,-0.94905 -0.121576,0.0466 -0.275034,0.0848 -0.341047,0.0848 -0.155893,0 -0.121629,1.45931 0.04762,2.02853 0.122766,0.41287 0.137451,0.4225 0.236458,0.15491 0.05805,-0.15693 0.14433,-0.75058 0.19177,-1.3192 z m -11.43045,-0.92794 c 0.671089,-0.8801 0.726334,-1.07985 0.298529,-1.07985 -0.264054,0 -1.029784,1.11266 -1.162499,1.68919 -0.12446,0.54068 0.116813,0.37052 0.86397,-0.60934 z m 9.538891,-0.19799 c 0.436086,-0.12898 0.540014,-0.21697 0.540014,-0.45725 0,-0.16365 -0.05903,-0.29755 -0.131154,-0.29755 -0.223864,0 -0.940938,0.33265 -1.52953,0.70954 l -0.562901,0.36047 0.381186,0.0776 c 0.224737,0.0457 0.459396,0.0138 0.571764,-0.0778 0.104828,-0.0854 0.433599,-0.22717 0.730621,-0.31501 z m 1.355513,-0.19661 c 0.272732,-0.10466 0.252677,-0.26747 -0.05313,-0.43112 -0.22307,-0.11938 -0.254132,-0.0966 -0.254132,0.18612 0,0.35052 0.01058,0.35888 0.307262,0.245 z m 1.122177,-0.85763 c 0.403913,-0.63933 0.420502,-0.71705 0.153062,-0.71705 -0.108003,0 -0.337609,-0.14123 -0.510223,-0.31385 l -0.313822,-0.31384 -0.379228,0.5235 c -0.467465,0.64532 -0.471011,0.77688 -0.02979,1.10606 0.509217,0.37993 0.690219,0.3322 1.080003,-0.28482 z m 6.660965,-1.43592 c 0.06355,-0.75203 0.04445,-0.93256 -0.09861,-0.93099 -0.389441,0.004 -0.510302,0.214 -0.481833,0.83615 0.01561,0.34271 0.0093,0.68029 -0.01455,0.75018 -0.02381,0.0699 0.03538,0.28897 0.13126,0.48685 0.172561,0.35609 0.175445,0.35687 0.279611,0.0753 0.05789,-0.15648 0.140732,-0.70434 0.184124,-1.21746 z m -16.762386,0.90961 c 0.51517,-0.20829 0.684768,-0.46748 0.414972,-0.63422 -0.06879,-0.0425 -0.16883,-0.24487 -0.222355,-0.4497 l -0.09731,-0.37242 -0.667068,0.3093 c -0.396795,0.18398 -0.667094,0.39144 -0.667094,0.51204 0,0.33347 0.38698,0.97764 0.548614,0.91321 0.08263,-0.0329 0.39325,-0.15813 0.690245,-0.27821 z m 1.937702,0.12691 0.444712,-0.17126 -0.511731,-0.01 c -0.281463,-0.005 -0.624522,-0.0855 -0.76237,-0.17807 -0.214365,-0.14404 -0.281675,-0.13599 -0.465058,0.0556 -0.202168,0.21121 -0.194919,0.23113 0.127053,0.34897 0.452464,0.16558 0.63791,0.15835 1.167394,-0.0456 z m 9.865069,-0.30411 c 0.405421,-0.46005 0.371369,-0.58225 -0.07109,-0.25513 -0.262202,0.19387 -0.467069,0.25014 -0.698818,0.19198 -0.18034,-0.0453 -0.327871,-0.0287 -0.327871,0.0368 0,0.0655 -0.03627,0.21356 -0.08057,0.32902 -0.132027,0.34404 0.825077,0.0982 1.178348,-0.30267 z m -13.043561,0.27235 c 0,-0.0524 -0.05826,-0.18107 -0.127053,-0.28589 -0.111231,-0.16942 -0.139038,-0.16942 -0.250243,0 -0.187536,0.28567 -0.156183,0.38118 0.125122,0.38118 0.139753,0 0.253232,-0.0429 0.252174,-0.0953 z m -0.760439,-0.67548 c 0,-0.21936 -1.627849,-0.31602 -2.274332,-0.13505 l -0.304879,0.0854 0.368406,0.16925 c 0.202618,0.0931 0.677836,0.19162 1.056005,0.21898 0.378169,0.0274 0.719666,0.0818 0.758878,0.12103 0.07284,0.0728 0.395922,-0.3022 0.395922,-0.45956 z m 4.358349,0.26426 c 0.238337,-0.001 0.490193,-0.1439 0.76237,-0.43205 0.223573,-0.23668 0.484241,-0.45319 0.579279,-0.48114 0.09501,-0.028 0.338323,-0.3632 0.540676,-0.745 0.321919,-0.60743 0.34372,-0.71203 0.174308,-0.83696 -0.305673,-0.22544 -1.453118,-0.3384 -1.663542,-0.16377 -0.116681,0.0968 -0.39153,0.12111 -0.775467,0.0685 -0.54864,-0.0752 -0.6273,-0.05 -1.01473,0.32555 -0.507762,0.49214 -0.562927,0.85755 -0.116575,0.77222 0.722286,-0.13807 1.116965,0.56571 0.586475,1.0458 -0.200237,0.18121 -0.222197,0.26753 -0.104193,0.40972 0.08525,0.10269 0.262573,0.14977 0.412512,0.10951 0.144648,-0.0388 0.423148,-0.0714 0.618887,-0.0724 z m 2.009325,-0.54656 c 0.242835,-0.29436 0.567161,-0.71494 0.720752,-0.93463 l 0.279214,-0.39942 -0.331655,-0.0832 c -0.18243,-0.0458 -0.346498,-0.0662 -0.364596,-0.0453 -0.01799,0.0209 -0.153908,0.27789 -0.301757,0.57115 -0.147876,0.29326 -0.368856,0.58915 -0.491067,0.65754 -0.122184,0.0684 -0.183435,0.16311 -0.136048,0.21048 0.04736,0.0474 0.03506,0.22045 -0.02738,0.38463 -0.168381,0.44293 0.121576,0.28242 0.652542,-0.36122 z m 7.574703,-0.0269 c 0.28575,-0.24459 0.557054,-0.44472 0.602853,-0.44472 0.04583,0 0.236088,-0.18157 0.422831,-0.40348 0.202697,-0.24092 0.810657,-0.62668 1.508945,-0.95745 1.473544,-0.69803 1.782551,-1.09548 1.544267,-1.98637 -0.143721,-0.5373 -0.130968,-0.6191 0.187802,-1.20477 0.188092,-0.34558 0.341974,-0.71805 0.341974,-0.82771 0,-0.43181 1.043596,-1.21376 2.316929,-1.73607 0.907257,-0.37214 1.442006,-1.05873 1.239467,-1.59141 -0.199575,-0.52493 -0.14597,-0.97219 0.186108,-1.55299 0.16981,-0.29701 0.281649,-0.54001 0.248497,-0.54001 -0.03313,0 -0.265509,0.0858 -0.516387,0.19059 -0.572744,0.23931 -0.910723,0.24018 -1.476455,0.004 -0.712258,-0.2976 -1.256294,0.015 -2.196041,1.26202 -0.842751,1.11825 -1.701721,1.7401 -2.075736,1.50273 -0.147876,-0.0939 -0.392377,-0.0577 -0.887677,0.13142 -0.654235,0.24974 -0.709083,0.25191 -1.276535,0.0504 -0.884449,-0.31412 -1.386602,-0.11964 -2.030069,0.7862 -0.575918,0.81072 -1.188349,1.45836 -2.217499,2.34499 -0.855133,0.7367 -0.929137,1.06411 -0.253577,1.12157 0.660903,0.0562 0.816425,0.36419 0.440637,0.87249 -0.427355,0.57804 -0.229367,0.71291 0.772981,0.52651 0.497099,-0.0924 0.837538,-0.10271 0.912733,-0.0275 0.07519,0.0752 0.04109,0.36406 -0.09144,0.77444 -0.238469,0.73835 -0.251116,0.87426 -0.103003,1.10774 0.08332,0.13134 0.1855,0.11846 0.503873,-0.0635 0.55962,-0.31987 0.848942,-0.12177 0.848942,0.58125 0,0.44622 0.03945,0.52493 0.263022,0.52479 0.144648,-9e-5 0.496808,-0.20029 0.782558,-0.44488 z m -2.576168,-0.45117 c -0.184521,-0.2039 -0.196744,-0.3222 -0.08057,-0.77993 0.07533,-0.29676 0.120994,-0.55554 0.101468,-0.57506 -0.01958,-0.0195 -0.163142,0.23704 -0.319167,0.57014 -0.23114,0.4935 -0.258868,0.67083 -0.149807,0.95771 0.117131,0.30806 0.167084,0.33428 0.399732,0.20978 0.252148,-0.13495 0.254635,-0.15468 0.04834,-0.38264 z m -9.079071,-0.58209 c 0,-0.22096 0.161634,-0.48856 0.476461,-0.78875 l 0.476489,-0.45433 -0.508239,0.3001 c -0.683021,0.40328 -0.79457,0.51896 -0.894847,0.92798 -0.07302,0.29779 -0.04609,0.34942 0.182219,0.34942 0.204628,0 0.267917,-0.079 0.267917,-0.33442 z m 13.976799,0.10952 c 0.174705,-0.077 0.489188,-0.19088 0.698844,-0.25319 0.282231,-0.0839 0.39161,-0.20145 0.421402,-0.45291 0.02223,-0.18679 -0.0026,-0.33962 -0.05405,-0.33962 -0.175472,0 -1.944529,0.91357 -2.076159,1.07215 -0.165815,0.19981 0.538136,0.18139 1.009967,-0.0264 z m 2.089865,-0.48897 c 0.183938,-0.0706 0.181768,-0.096 -0.02143,-0.25008 -0.314721,-0.23877 -0.416665,-0.22054 -0.416665,0.0745 0,0.2665 0.09835,0.30592 0.438044,0.17557 z m 1.338924,-1.28736 c 0,-0.0874 -0.05789,-0.15882 -0.130943,-0.15882 -0.07308,0 -0.276886,-0.14404 -0.45294,-0.32009 -0.372745,-0.37274 -0.402669,-0.36214 -0.866404,0.30706 -0.386768,0.55808 -0.360257,0.67967 0.227171,1.04246 l 0.399097,0.24647 0.411057,-0.47912 c 0.226086,-0.26352 0.41193,-0.5506 0.412962,-0.63796 z m -12.323128,0.7549 c 0,-0.0565 -0.07824,-0.20978 -0.173857,-0.34056 -0.168461,-0.23037 -0.17833,-0.22947 -0.316654,0.029 -0.108743,0.20319 -0.105145,0.28197 0.01508,0.33053 0.251354,0.10153 0.475456,0.0926 0.475456,-0.019 z m 1.14001,-0.14954 c 0.603621,-0.30794 0.692283,-0.4346 0.446882,-0.63828 -0.104061,-0.0864 -0.189204,-0.29296 -0.189204,-0.45912 0,-0.16615 -0.05244,-0.30209 -0.116522,-0.30209 -0.205978,0 -1.250421,0.48278 -1.332812,0.61606 -0.113321,0.18339 0.31869,1.03574 0.524959,1.03574 0.09467,0 0.394679,-0.11354 0.666697,-0.25231 z m 2.053723,0.0561 0.42754,-0.19622 -0.489241,0.0773 c -0.366713,0.0579 -0.550677,0.0217 -0.734563,-0.1447 -0.23196,-0.20994 -0.257201,-0.21013 -0.463735,-0.004 -0.191347,0.1914 -0.194786,0.23338 -0.02781,0.33898 0.282866,0.17886 0.805074,0.14974 1.287807,-0.0718 z m -4.132977,-0.40732 c 0.09284,-0.1223 0.170603,-0.26524 0.172826,-0.31766 0.0026,-0.0524 -0.582031,-0.094 -1.298337,-0.0925 l -1.302385,0.003 0.317659,0.25224 c 0.174704,0.13873 0.409125,0.23082 0.520885,0.20466 0.111786,-0.0262 0.42627,-0.005 0.698844,0.048 0.2726,0.0525 0.54647,0.10213 0.608674,0.11017 0.06218,0.008 0.188992,-0.0855 0.281834,-0.20775 z m 14.79849,-0.59397 0.435239,-0.49868 -0.524166,0.34625 c -0.386768,0.25547 -0.611611,0.3243 -0.857673,0.26254 -0.19775,-0.0496 -0.333508,-0.0306 -0.333508,0.0467 0,0.0717 -0.0308,0.21073 -0.06847,0.30886 -0.05421,0.14127 0.03376,0.16327 0.42246,0.10569 0.362374,-0.0537 0.604838,-0.20328 0.926122,-0.5714 z m -0.137319,-0.39019 c 0.519509,-0.38328 0.631587,-0.547 0.634127,-0.92624 0,-0.1597 0.07842,-0.417 0.171899,-0.57178 0.22188,-0.36741 0.132001,-1.6052 -0.123692,-1.70331 -0.324221,-0.12442 -1.332019,0.24481 -1.678464,0.61496 -0.185499,0.19817 -0.493342,0.37311 -0.684107,0.38876 -0.28702,0.0236 -0.379624,0.12471 -0.537024,0.58664 -0.136869,0.40168 -0.153723,0.62637 -0.06006,0.80137 0.119116,0.22254 0.153591,0.22675 0.40648,0.0496 0.639683,-0.44805 1.170887,-0.065 1.018116,0.73407 -0.08649,0.4525 0.260244,0.46303 0.852726,0.0259 z m -2.286344,-0.44226 c 0,-0.0633 -0.06392,-0.1546 -0.142028,-0.20288 -0.09112,-0.0563 -0.113665,-0.29817 -0.06292,-0.67457 l 0.07914,-0.58679 -0.254767,0.41602 c -0.256169,0.41836 -0.319855,0.85471 -0.178514,1.22306 0.05842,0.1522 0.132715,0.16844 0.317659,0.0695 0.132794,-0.0711 0.241432,-0.181 0.241432,-0.2443 z m -9.910842,-0.23201 c 0,-0.17953 0.128667,-0.46603 0.285909,-0.63667 l 0.285882,-0.31024 -0.422963,0.2152 c -0.252571,0.12851 -0.495697,0.3893 -0.603541,0.64739 -0.231907,0.55501 -0.235479,0.54268 0.137054,0.47146 0.240639,-0.046 0.317659,-0.13986 0.317659,-0.38714 z m 13.768996,-0.56516 c 0.23667,-1.70041 0.242729,-1.87419 0.06538,-1.87222 -0.363617,0.004 -0.473155,0.21333 -0.498396,0.95219 -0.04432,1.29747 0.283527,1.99406 0.433016,0.92003 z m -11.026431,-2.39949 c 0.238707,-0.32385 0.433996,-0.62403 0.433996,-0.66708 0,-0.043 -0.1456,-0.0783 -0.323559,-0.0783 -0.232674,0 -0.384387,0.11268 -0.540014,0.40109 -0.119063,0.22059 -0.307579,0.49755 -0.418968,0.61545 -0.111363,0.11791 -0.240903,0.40638 -0.28784,0.64106 l -0.08533,0.42668 0.393858,-0.37507 c 0.216641,-0.20628 0.589174,-0.64002 0.827855,-0.96386 z m 8.502465,0.65226 c 0.04321,-0.0699 0.337343,-0.19229 0.653626,-0.27193 0.602589,-0.15173 0.774489,-0.34497 0.593937,-0.6676 -0.09192,-0.16425 -0.240691,-0.12839 -1.008909,0.24321 -0.495618,0.23972 -0.973482,0.52307 -1.061932,0.62966 -0.139038,0.16751 -0.09946,0.19379 0.291942,0.19379 0.249025,0 0.488129,-0.0572 0.531336,-0.12713 z m 2.350611,-0.69877 c 0,-0.03 -0.114353,-0.11579 -0.254132,-0.19059 -0.223494,-0.11961 -0.254133,-0.0966 -0.254133,0.19059 0,0.28722 0.03064,0.3102 0.254133,0.19059 0.139779,-0.0748 0.254132,-0.16057 0.254132,-0.19059 z m 0.906066,-0.65949 c 0.269636,-0.3919 0.357134,-0.6136 0.255534,-0.64747 -0.08498,-0.0283 -0.326337,-0.19609 -0.536363,-0.37281 -0.210026,-0.17672 -0.398198,-0.2999 -0.418201,-0.27374 -0.517816,0.67776 -0.715301,0.9977 -0.715301,1.15889 0,0.17628 0.686938,0.72347 0.915115,0.72895 0.04905,0.001 0.273711,-0.26605 0.499216,-0.59382 z m 1.551649,-0.52989 c 0.128772,-0.113 0.292629,-0.31477 0.364119,-0.44836 0.115993,-0.21676 0.08681,-0.21215 -0.271224,0.0428 -0.267044,0.19016 -0.5012,0.26058 -0.700299,0.21062 -0.276834,-0.0695 -0.452623,0.0935 -0.452623,0.41975 0,0.16331 0.814625,-0.009 1.060027,-0.2248 z m -11.596556,-0.21318 0.636456,-0.32252 -0.259504,-0.32992 c -0.142742,-0.18146 -0.259503,-0.40797 -0.259503,-0.50337 0,-0.23118 -0.125836,-0.21943 -0.815393,0.0761 -0.631851,0.27084 -0.694267,0.43592 -0.388435,1.02732 0.235718,0.45587 0.285353,0.45826 1.086379,0.0524 z m 2.023375,0.1217 0.444712,-0.1815 -0.486992,0.0718 c -0.335862,0.0495 -0.584941,0.008 -0.80264,-0.13499 -0.257202,-0.16853 -0.351499,-0.17708 -0.509217,-0.0462 -0.172033,0.14278 -0.168381,0.17905 0.03278,0.32615 0.286332,0.20938 0.752317,0.19692 1.321356,-0.0353 z m -3.305572,-0.0851 c 0,-0.0874 -0.0521,-0.23803 -0.1134,-0.33482 -0.0894,-0.14116 -0.139303,-0.12395 -0.252175,0.0869 -0.192643,0.35994 -0.179599,0.40671 0.113401,0.40671 0.139779,0 0.253259,-0.0715 0.252174,-0.15883 z m -0.837141,-0.42441 c 0.139858,-0.36446 -0.05091,-0.43326 -1.201394,-0.43326 -1.475502,0 -1.504262,0.26179 -0.05604,0.51003 0.891355,0.15278 1.17602,0.1354 1.257433,-0.0768 z m 4.559247,0.0845 c 0.26498,-0.0615 0.593804,-0.25605 0.733927,-0.43418 0.139621,-0.17749 0.367877,-0.35891 0.507259,-0.40315 0.230135,-0.073 0.883524,-1.14553 0.883524,-1.45021 0,-0.20564 -1.033966,-0.4226 -1.58586,-0.33277 -0.720275,0.11725 -0.722921,0.1173 -1.148821,0.0214 -0.323294,-0.0728 -0.459158,-0.0176 -0.85889,0.34849 -0.543851,0.49816 -0.525965,0.80082 0.04733,0.80082 0.209973,0 0.469953,0.0882 0.577744,0.19597 0.176609,0.17659 0.175683,0.23524 -0.0093,0.59296 -0.112897,0.21834 -0.267996,0.39698 -0.344646,0.39698 -0.09274,0 -0.08644,0.0638 0.01879,0.19059 0.178964,0.21566 0.483473,0.23453 1.178904,0.0731 z m 2.244486,-0.87749 c 0.643176,-0.80142 0.705194,-1.03798 0.272124,-1.03798 -0.251565,0 -1.066509,1.15774 -1.205918,1.71315 -0.124512,0.49614 0.157242,0.29241 0.933794,-0.67517 z m 4.622351,0.0253 c -0.103929,-0.15865 -0.155655,-0.40561 -0.114909,-0.5488 0.209682,-0.73707 0.190976,-0.78589 -0.107394,-0.28015 -0.231405,0.39224 -0.30234,0.64961 -0.24511,0.88943 0.119142,0.49939 0.161395,0.53712 0.420317,0.37541 0.214153,-0.13374 0.218519,-0.17427 0.0471,-0.43589 z m -8.935191,-0.77042 c 0,-0.19976 0.144356,-0.49314 0.346392,-0.70403 l 0.346419,-0.36156 -0.534776,0.29108 c -0.336814,0.18333 -0.582612,0.42743 -0.664051,0.65945 -0.16846,0.48003 -0.177747,0.45752 0.188357,0.45752 0.260271,0 0.317659,-0.0619 0.317659,-0.34246 z m 8.195495,-0.7968 0.508265,-0.23099 -0.542873,0.0669 c -0.409363,0.0505 -0.60407,0.0115 -0.791765,-0.15831 -0.203571,-0.18425 -0.284004,-0.19609 -0.441854,-0.0651 -0.283872,0.23558 -0.239872,0.33136 0.219974,0.47887 0.530199,0.17008 0.459264,0.17627 1.048253,-0.0914 z m -3.262736,-0.19389 c -0.111972,-0.24574 -0.182509,-0.28494 -0.314933,-0.17504 -0.23241,0.19288 -0.21426,0.33461 0.0517,0.40411 0.396161,0.10353 0.409496,0.0919 0.263233,-0.22907 z m 1.186286,0.0687 c 0.748374,-0.33105 0.774118,-0.37034 0.484029,-0.73913 -0.137478,-0.17477 -0.249979,-0.39583 -0.249979,-0.49123 0,-0.2386 -0.154093,-0.21875 -0.822483,0.10599 -0.625819,0.30403 -0.674317,0.43091 -0.381344,0.99748 0.229552,0.44386 0.247808,0.44625 0.969777,0.12689 z m -2.154211,-0.78524 c -0.521732,-0.12189 -1.972971,-0.12064 -2.166276,0.002 -0.126259,0.08 -0.08477,0.12992 0.158829,0.19107 0.181346,0.0455 0.329724,0.13091 0.329724,0.18977 0,0.0589 0.128667,0.0833 0.285909,0.0544 0.157242,-0.0289 0.514588,-0.001 0.79412,0.062 0.442304,0.0998 0.536337,0.08 0.724747,-0.15214 0.208915,-0.25743 0.20447,-0.26958 -0.127053,-0.34703 z m 2.642394,-1.25949 c 0,-0.24937 0.124645,-0.45852 0.412961,-0.69296 l 0.412936,-0.3358 -0.537396,0.26431 c -0.473577,0.23291 -0.923819,0.78233 -0.923819,1.12731 0,0.0637 0.142955,0.0884 0.317659,0.055 0.249105,-0.0476 0.317659,-0.13782 0.317659,-0.41789 z" />
    <path
       style="fill:#ff0000;stroke:#000000;stroke-width:0.00228396"
       d="m 32.066029,139.74156 c -0.447649,0.10787 -0.901222,0.296 -1.255911,0.59258 -0.05737,0.32703 0.17527,0.64137 0.3566,0.8953 0.189529,0.21957 0.48052,-0.0441 0.681085,-0.11001 0.215064,-0.13988 0.558501,-0.19625 0.658333,-0.45849 -0.06485,-0.24879 -0.324104,-0.44138 -0.296825,-0.72444 0.0059,-0.0888 -0.02747,-0.21716 -0.143282,-0.19494 z"
       id="path2308"
       class="OC" />
    <path
       style="fill:#ff0000;stroke:#000000;stroke-width:0.000717883"
       d="m 32.867504,138.17219 c -0.193915,0.0985 -0.397163,0.18791 -0.569793,0.32185 -0.208394,0.1682 -0.362723,0.39434 -0.453049,0.64578 -0.03594,0.11193 -0.110217,0.22364 -0.101182,0.34403 0.05,0.0466 0.13439,0.01 0.195175,0.008 0.146942,-0.0266 0.348483,-0.0563 0.390155,-0.22927 0.03731,-0.17729 0.03659,-0.36511 0.125632,-0.52916 0.09415,-0.21803 0.286763,-0.36873 0.424728,-0.55522 -3.7e-5,-0.007 -0.007,-0.008 -0.01167,-0.006 z"
       id="path2377"
       class="OC" />
    <path
       style="fill:#ff0000;stroke:#000000;stroke-width:0.000717883"
       d="m 30.492398,140.74399 c -0.09429,0.0374 -0.123772,0.15533 -0.173056,0.23517 -0.04018,0.0786 -0.100306,0.20984 0.0033,0.26648 0.139903,0.0684 0.311359,0.1141 0.463738,0.0644 0.08688,-0.0493 0.01307,-0.15367 -0.0164,-0.21576 -0.07543,-0.12333 -0.144954,-0.26376 -0.264747,-0.34907 -0.0042,-10e-4 -0.0085,-0.002 -0.01286,-10e-4 z"
       id="path2378"
       class="OC" />
    <path
       style="fill:#ff0000;stroke:#000000;stroke-width:0.000717883"
       d="m 28.546176,140.34166 c -0.35088,0.001 -0.701752,0.003 -1.052629,0.005 0.03561,0.0642 0.131427,0.11089 0.192035,0.16764 0.17853,0.13835 0.379404,0.29507 0.619119,0.27574 0.316323,-0.01 0.629209,0.0334 0.938215,0.0983 0.136168,0.0141 0.272357,0.0747 0.409922,0.0578 0.19059,-0.0978 0.318117,-0.2896 0.399325,-0.48249 0.0258,-0.0739 -0.08374,-0.0674 -0.126976,-0.0786 -0.457094,-0.0512 -0.919819,-0.0392 -1.379011,-0.0433 z"
       id="path2379"
       class="OC" />
    <path
       style="fill:#ff0000;stroke:#000000;stroke-width:0.000717883"
       d="m 30.165622,141.74861 c -0.0671,0.002 -0.06895,0.10038 -0.107082,0.14142 -0.208439,0.37043 -0.362985,0.79233 -0.694061,1.07494 -0.06327,0.0562 -0.177125,0.10584 -0.172741,0.20443 0.0798,0.15335 0.0024,0.33313 -0.03858,0.48719 -0.01122,0.0483 -0.05738,0.15479 0.01913,0.16968 0.157512,-0.0456 0.264044,-0.18845 0.378931,-0.29731 0.462526,-0.50553 0.873252,-1.057 1.256977,-1.62393 0.02365,-0.0437 -0.0687,-0.0317 -0.0904,-0.0487 -0.181816,-0.0439 -0.36468,-0.0967 -0.552167,-0.10777 z"
       id="path2380"
       class="OC" />
    <path
       style="fill:#ff0000;stroke:#000000;stroke-width:0.000717883"
       d="m 32.975745,140.73308 c -0.09746,0.0216 -0.158202,0.1202 -0.231851,0.18076 -0.04127,0.0611 -0.153414,0.12054 -0.116909,0.20751 0.07765,0.10907 0.21686,0.15836 0.341275,0.19369 0.297493,0.059 0.608981,0.002 0.891008,-0.0989 0.172784,-0.0719 0.349978,-0.13846 0.513689,-0.22875 -0.02307,-0.0309 -0.09448,0.008 -0.133564,0.004 -0.268917,0.0287 -0.55141,0.11814 -0.815753,0.0227 -0.163513,-0.0566 -0.261091,-0.22553 -0.425095,-0.27911 -0.0075,-0.001 -0.01516,-0.002 -0.02281,-0.002 z"
       id="path2381"
       class="OC" />
    <path
       style="fill:#808080;stroke:#000000;stroke-width:0.00181385"
       d="m 36.760046,133.38464 c -0.395761,0.0889 -0.786389,0.2547 -1.111694,0.49825 -0.197141,0.23414 0.02135,0.54663 0.115472,0.77698 0.06178,0.16853 0.244459,0.38084 0.440296,0.26113 0.4036,-0.17772 0.830392,-0.34039 1.19956,-0.57438 -0.173411,-0.29608 -0.446641,-0.54279 -0.501997,-0.89715 -0.01881,-0.0631 -0.0856,-0.0708 -0.141637,-0.0648 z"
       id="path2791"
       class="OF" />
    <path
       style="fill:#808080;stroke:#000000;stroke-width:0.00181385"
       d="m 37.666474,131.82544 c -0.424426,0.19195 -0.890537,0.46783 -1.023479,0.94781 -0.01593,0.0835 -0.145587,0.29499 0.02233,0.29199 0.154797,-0.0107 0.434382,0.0667 0.481377,-0.14363 0.03037,-0.38204 0.205002,-0.73528 0.477343,-1.00229 0.0016,-0.0147 0.09679,-0.0941 0.04244,-0.0939 z"
       id="path2792"
       class="OF" />
    <path
       style="fill:#808080;stroke:#000000;stroke-width:0.00181385"
       d="m 33.418377,133.8629 c -0.333975,0.028 -0.69906,-0.0121 -1.010017,0.12761 -0.02952,0.10661 0.161739,0.13078 0.229282,0.16991 0.589516,0.16998 1.207527,0.31015 1.824339,0.27215 0.245568,0.001 0.373163,-0.41374 0.101248,-0.48131 -0.37148,-0.0958 -0.763907,-0.0885 -1.144852,-0.0884 z"
       id="path2793"
       class="OF" />
    <path
       style="fill:#808080;stroke:#000000;stroke-width:0.00181385"
       d="m 35.201055,135.39788 c -0.381037,-8e-4 -0.511082,0.43395 -0.71292,0.67776 -0.287258,0.38738 -0.567062,0.84351 -0.572365,1.32867 0.586828,-0.56683 1.157473,-1.17413 1.56055,-1.88776 0.07379,-0.15518 -0.198028,-0.10506 -0.275265,-0.11867 z"
       id="path2794"
       class="OF" />
    <path
       style="fill:#808080;stroke:#000000;stroke-width:0.00181385"
       d="m 35.304359,134.28292 c -0.0997,0.15745 -0.267856,0.33843 -0.242319,0.53424 0.136631,0.051 0.366324,0.0601 0.453888,-0.0803 -0.0027,-0.16547 -0.09217,-0.34911 -0.211569,-0.45396 z"
       id="path2795"
       class="OF" />
    <path
       style="fill:#808080;stroke:#000000;stroke-width:0.00181385"
       d="m 37.663429,134.44199 c -0.121208,0.0182 -0.276836,0.114 -0.295177,0.23594 0.28807,0.37552 0.824629,0.29837 1.22591,0.18755 0.158393,-0.0556 0.339145,-0.099 0.474649,-0.19109 -0.315058,0.006 -0.658804,0.0983 -0.961059,-0.0563 -0.147193,-0.0574 -0.278852,-0.17821 -0.444323,-0.17614 z"
       id="path2796"
       class="OF" />
    <path
       style="fill:#ff00ff;stroke:#000000;stroke-width:0.00181385"
       d="m 46.19413,134.14589 c -0.286988,0.29837 -0.532876,0.65085 -0.71959,1.02164 -0.06331,0.22814 0.204682,0.36373 0.334854,0.50625 0.159642,0.13781 0.338535,0.25911 0.534874,0.33365 0.331195,-0.31143 0.602123,-0.69736 0.781304,-1.11467 0.02492,-0.18 -0.237503,-0.19899 -0.324133,-0.31069 -0.20591,-0.1379 -0.387112,-0.32427 -0.607309,-0.43618 z"
       id="path2797"
       class="IF" />
    <path
       style="fill:#ff00ff;stroke:#000000;stroke-width:0.00181385"
       d="m 46.095716,132.41884 c -0.208505,0.26021 -0.364628,0.58255 -0.440852,0.9094 -0.01172,0.22779 0.02603,0.49416 0.180888,0.66843 0.140105,0.0419 0.312785,-0.0747 0.371274,-0.2003 -0.01003,-0.25662 -0.25835,-0.4577 -0.218017,-0.72922 -0.0019,-0.21793 0.148392,-0.43533 0.113223,-0.64768 l -0.003,-7.9e-4 z"
       id="path2798"
       class="IF" />
    <path
       style="fill:#ff00ff;stroke:#000000;stroke-width:0.00181385"
       d="m 48.772421,134.33734 c -0.29073,0.13935 -0.554324,0.40725 -0.904799,0.36156 -0.161718,-0.001 -0.394022,-0.0397 -0.451056,0.16354 -0.05554,0.0986 -0.09555,0.34721 0.09119,0.30538 0.422957,-0.0366 0.868127,-0.17959 1.116512,-0.54863 0.03317,-0.0708 0.206571,-0.20884 0.148153,-0.28185 z"
       id="path2799"
       class="IF" />
    <path
       style="fill:#ff00ff;stroke:#000000;stroke-width:0.00181385"
       d="m 45.520099,135.83108 c -0.11503,0.082 -0.05991,0.27877 -0.0603,0.4023 5.29e-4,0.1196 0.119782,0.12031 0.18918,0.0473 0.08575,-0.0677 0.240628,-0.11548 0.27229,-0.22227 -0.113305,-0.0968 -0.25309,-0.19832 -0.401174,-0.22729 z"
       id="path2800"
       class="IF" />
    <path
       style="fill:#ff00ff;stroke:#000000;stroke-width:0.00181385"
       d="m 44.682965,135.7661 c -0.489259,0.0964 -0.916308,0.387 -1.359326,0.60318 -0.201872,0.13421 -0.495305,0.22839 -0.592619,0.46777 0.07003,0.10091 0.254712,0.0132 0.35859,0.0374 0.238641,0.0143 0.466108,-0.0538 0.654687,-0.20031 0.356288,-0.19233 0.820153,-0.18731 1.114386,-0.48421 0.09497,-0.12881 0.01595,-0.44013 -0.175718,-0.42385 z"
       id="path2801"
       class="IF" />
    <path
       style="fill:#ff00ff;stroke:#000000;stroke-width:0.00181385"
       d="m 46.125331,136.65701 c -0.324552,0.0533 -0.412541,0.42491 -0.407702,0.70464 -0.01238,0.52002 -0.03507,1.06142 0.124571,1.56219 0.01087,0.086 0.126328,0.14286 0.15276,0.0324 0.180287,-0.58155 0.213997,-1.19986 0.285379,-1.8022 -0.0145,-0.15178 0.08033,-0.38662 -0.07417,-0.48693 -0.02548,-0.0103 -0.05364,-0.0128 -0.08084,-0.0101 z"
       id="path2802"
       class="IF" />
    <path
       style="fill:#0000ff;stroke:#000000;stroke-width:0.00181385"
       d="m 42.20238,139.79059 c -0.222578,0.092 -0.334066,0.34953 -0.48046,0.52845 -0.09968,0.19478 -0.336859,0.42086 -0.223469,0.65438 0.20947,0.27657 0.539199,0.4367 0.823955,0.61564 0.278905,-0.33604 0.616756,-0.64936 0.789805,-1.05586 0.03657,-0.0856 -0.004,-0.19873 -0.107059,-0.19201 -0.309922,-0.11015 -0.465317,-0.46169 -0.781373,-0.55018 -0.007,-0.001 -0.01431,-2.6e-4 -0.0214,-5.3e-4 z"
       id="path2803"
       class="IC" />
    <path
       style="fill:#0000ff;stroke:#000000;stroke-width:0.00181385"
       d="m 42.008525,138.10073 c -0.278908,0.40598 -0.493906,0.96117 -0.263715,1.43691 0.143935,0.15425 0.364302,-0.036 0.473937,-0.14724 0.08742,-0.17917 -0.207806,-0.27359 -0.179895,-0.45757 -0.02217,-0.3067 0.03689,-0.63033 0.04102,-0.92124 -0.02379,0.0297 -0.04757,0.0594 -0.07135,0.0891 z"
       id="path2804"
       class="IC" />
    <path
       style="fill:#0000ff;stroke:#000000;stroke-width:0.00181385"
       d="m 44.923159,139.81361 c -0.356658,0.19423 -0.694976,0.51157 -1.133856,0.45816 -0.170598,0.002 -0.414343,-0.0903 -0.393676,0.17308 -0.01085,0.0883 -0.123455,0.27983 0.04166,0.27576 0.440005,0.0379 0.881743,-0.15355 1.156912,-0.49937 0.106119,-0.13214 0.288187,-0.25207 0.339656,-0.40742 -0.0034,-0.001 -0.0072,-0.001 -0.01069,-2.1e-4 z"
       id="path2805"
       class="IC" />
    <path
       style="fill:#0000ff;stroke:#000000;stroke-width:0.00181385"
       d="m 41.493561,141.38479 c -0.157842,0.0431 -0.122536,0.29146 -0.05371,0.40139 0.15376,0.13353 0.376611,-0.0434 0.519076,-0.0989 -0.143918,-0.10733 -0.276625,-0.27874 -0.465368,-0.30248 z"
       id="path2806"
       class="IC" />
    <path
       style="fill:#0000ff;stroke:#000000;stroke-width:0.00181385"
       d="m 40.755196,141.24195 c -0.664927,0.27582 -1.311174,0.60708 -1.92488,0.98373 -0.08994,0.0303 -0.196697,0.18293 -0.03302,0.18762 0.633378,0.0294 1.218002,-0.27305 1.79628,-0.48946 0.233561,-0.10107 0.286055,-0.42177 0.224465,-0.64278 -0.01125,-0.0235 -0.03522,-0.0439 -0.06285,-0.0391 z"
       id="path2807"
       class="IC" />
    <path
       style="fill:#0000ff;stroke:#000000;stroke-width:0.00181385"
       d="m 42.06613,142.24835 c -0.262803,0.0204 -0.433036,0.28491 -0.401669,0.53672 1.82e-4,0.44049 -0.02421,0.89041 0.01161,1.32502 0.092,0.13293 0.110683,0.34789 0.243525,0.4432 0.172559,-0.17728 0.159951,-0.46956 0.215773,-0.69924 0.05815,-0.50557 0.125392,-1.02182 0.07919,-1.52946 -0.01974,-0.0614 -0.09043,-0.0818 -0.148437,-0.0762 z"
       id="path2808"
       class="IC" />
    <path
       style="fill:#00ff00;stroke:#000000;stroke-width:0.00123689"
       d="m 33.474432,144.91214 c -0.400111,0.0846 -0.765572,0.29056 -1.122119,0.48463 -0.30425,0.18662 -0.627973,0.3574 -0.908166,0.5745 0.23985,0.0769 0.511627,0.11231 0.762812,0.0646 0.309017,-0.15922 0.623805,-0.30772 0.958162,-0.40817 0.180189,-0.069 0.459158,-0.13861 0.4474,-0.38276 2.64e-4,-0.10793 0.0061,-0.31457 -0.138089,-0.3328 z"
       id="path2809"
       class="IR" />
    <path
       style="fill:#00ff00;stroke:#000000;stroke-width:0.00123689"
       d="m 34.886082,143.30519 c -0.119769,0.0966 -0.185822,0.2604 -0.288764,0.37712 -0.160033,0.24972 -0.388196,0.48571 -0.433366,0.78894 0.03328,0.2294 0.259932,0.36581 0.432959,0.49191 0.175236,0.1294 0.437869,0.23834 0.623276,0.0637 0.267407,-0.24932 0.434208,-0.58577 0.61545,-0.89853 0.04071,-0.0654 0.09353,-0.18488 -0.0131,-0.21815 -0.146976,-0.0193 -0.293269,-0.0585 -0.4103,-0.16007 -0.191603,-0.126 -0.326567,-0.32754 -0.52075,-0.44485 l -0.0043,-1.4e-4 z"
       id="path2810"
       class="IR" />
    <path
       style="fill:#00ff00;stroke:#000000;stroke-width:0.00123689"
       d="m 34.81356,141.46527 c -0.148413,0.17962 -0.224216,0.41598 -0.333026,0.6224 -0.140917,0.26587 -0.205499,0.58827 -0.07455,0.87166 0.04299,0.0882 0.08882,0.26545 0.222385,0.21846 0.11295,-0.0533 0.275867,-0.0908 0.328162,-0.21433 -0.07246,-0.21501 -0.325644,-0.35858 -0.282601,-0.61439 0.01495,-0.29678 0.14433,-0.58203 0.153741,-0.87742 -0.0028,-0.005 -0.0085,-0.008 -0.0141,-0.006 z"
       id="path2811"
       class="IR" />
    <path
       style="fill:#00ff00;stroke:#000000;stroke-width:0.00123689"
       d="m 37.510074,143.47246 c -0.303615,0.12561 -0.56184,0.4388 -0.918099,0.38455 -0.124351,0.007 -0.276169,-0.0798 -0.387495,-0.007 -0.06216,0.14471 -0.122264,0.31559 -0.09228,0.47287 0.121083,0.0822 0.287975,0.01 0.419674,-0.0107 0.425667,-0.11023 0.805767,-0.40725 1.002024,-0.80069 0.0066,-0.0174 -0.0011,-0.0429 -0.02381,-0.0387 z"
       id="path2812"
       class="IR" />
    <path
       style="fill:#00ff00;stroke:#000000;stroke-width:0.00123689"
       d="m 34.21386,144.98311 c -0.110632,0.0387 -0.06899,0.19972 -0.0818,0.29082 0.014,0.0759 -0.02061,0.25902 0.105571,0.23704 0.131146,-0.0267 0.305488,-0.0595 0.369665,-0.19042 0.03146,-0.17722 -0.189745,-0.25224 -0.312121,-0.32057 -0.02574,-0.01 -0.05328,-0.0193 -0.08132,-0.0169 z"
       id="path2813"
       class="IR" />
    <path
       style="fill:#00ff00;stroke:#000000;stroke-width:0.00123689"
       d="m 34.93,145.82985 c -0.143568,0.0334 -0.288478,0.0741 -0.430784,0.10417 -0.115234,0.14275 -0.05968,0.35224 -0.0816,0.52147 -7.94e-4,0.60441 0.01236,1.23224 0.246306,1.79838 0.04428,0.0854 0.07966,-0.0524 0.09025,-0.0878 0.17948,-0.63285 0.209712,-1.29691 0.251018,-1.95007 -0.01209,-0.12166 0.03872,-0.27386 -0.03249,-0.37959 -0.01281,-0.008 -0.02834,-0.008 -0.04271,-0.007 z"
       id="path2814"
       class="IR" />
    <path
       style="fill:#ffff00;stroke:#000000;stroke-width:0.00123689"
       d="m 29.441304,150.59304 c -0.391353,0.0637 -0.732565,0.29194 -1.087014,0.45702 -0.278591,0.16185 -0.594749,0.28926 -0.816925,0.52901 -0.04318,0.091 0.118668,0.11034 0.178236,0.10987 0.414645,0.0296 0.79461,-0.15211 1.165527,-0.30835 0.258347,-0.12016 0.594283,-0.15325 0.769625,-0.40141 0.07225,-0.14934 0.0085,-0.43449 -0.209449,-0.38614 z"
       id="path2815"
       class="T" />
    <path
       style="fill:#ffff00;stroke:#000000;stroke-width:0.00123689"
       d="m 31.071148,151.41818 c -0.194038,0.0531 -0.444643,0.11178 -0.512149,0.33053 -0.125622,0.40822 -0.09624,0.84521 -0.109485,1.26728 0.0063,0.29405 0.09218,0.59864 0.265544,0.83649 0.08746,0.0314 0.102865,-0.1195 0.125042,-0.17297 0.151702,-0.70546 0.193368,-1.42977 0.254431,-2.14736 -0.0099,-0.0267 0.02869,-0.11768 -0.02339,-0.11397 z"
       id="path2816"
       class="T" />
    <path
       style="fill:#ffff00;stroke:#000000;stroke-width:0.00123689"
       d="m 30.319882,150.64932 c -0.144838,0.0437 -0.119716,0.24352 -0.117166,0.36266 -0.0057,0.13077 0.152959,0.0901 0.228389,0.0632 0.07342,-0.0281 0.251304,-0.0831 0.174519,-0.18969 -0.07099,-0.0931 -0.157552,-0.22588 -0.285742,-0.23612 z"
       id="path2817"
       class="T" />
    <path
       style="fill:#ffff00;stroke:#000000;stroke-width:0.00123689"
       d="m 30.948667,148.86748 c -0.236736,0.35894 -0.538949,0.68433 -0.705993,1.08435 -0.08357,0.25735 0.175527,0.43812 0.34971,0.57612 0.171447,0.13069 0.42041,0.28238 0.625404,0.12978 0.302776,-0.23622 0.481123,-0.59286 0.667871,-0.92023 0.04569,-0.0737 0.102638,-0.2426 -0.03629,-0.25051 -0.313063,-0.008 -0.529931,-0.28861 -0.746808,-0.48129 -0.05233,-0.0409 -0.09665,-0.11221 -0.153897,-0.13822 z"
       id="path2818"
       class="T" />
    <path
       style="fill:#ffff00;stroke:#000000;stroke-width:0.00123689"
       d="m 30.874067,147.10626 c -0.159911,0.19697 -0.272589,0.43841 -0.376864,0.67097 -0.143844,0.30866 -0.118568,0.66272 0.0038,0.97361 0.01027,0.0853 0.08524,0.20006 0.17993,0.13239 0.14029,-0.0924 0.313301,-0.25958 0.221141,-0.4432 -0.127151,-0.26397 -0.226121,-0.56887 -0.114863,-0.85774 0.02379,-0.15621 0.107098,-0.31766 0.09481,-0.47429 -0.0024,-0.002 -0.0052,-0.002 -0.008,-0.002 z"
       id="path2819"
       class="T" />
    <path
       style="fill:#ffff00;stroke:#000000;stroke-width:0.00123689"
       d="m 33.698473,149.01426 c -0.369064,0.20608 -0.750768,0.48064 -1.197065,0.43852 -0.186436,-0.0415 -0.36268,0.10419 -0.380934,0.28927 -0.02058,0.0726 -0.04149,0.20616 0.07663,0.19046 0.261342,0.003 0.545589,0.0347 0.789001,-0.0779 0.262453,-0.25568 0.493715,-0.54598 0.723484,-0.83132 0.0028,-0.007 -0.0058,-0.0115 -0.01111,-0.009 z"
       id="path2820"
       class="T" />
    <path
       style="fill:#ff6600;stroke:#000000;stroke-width:0.00123689"
       d="m 25.369038,142.71825 c -0.376165,0.1939 -0.814074,0.32151 -1.101411,0.6486 -0.08751,0.17897 0.03252,0.3814 0.102672,0.54732 0.09269,0.16305 0.190672,0.35387 0.36609,0.43779 0.365224,-0.12383 0.735252,-0.2581 1.065657,-0.46026 0.123196,-0.0705 0.268265,-0.24342 0.144852,-0.37754 -0.274189,-0.20416 -0.288448,-0.58748 -0.401313,-0.87708 -0.05885,0.0271 -0.117698,0.0541 -0.176547,0.0812 z"
       id="path2821"
       class="OR" />
    <path
       style="fill:#ff6600;stroke:#000000;stroke-width:0.00123689"
       d="m 26.501275,141.04908 c -0.318565,0.17659 -0.642838,0.35673 -0.921482,0.59327 -0.211875,0.20134 -0.337692,0.51804 -0.273614,0.80611 0.142693,0.0936 0.413505,0.0465 0.420543,-0.15974 0.0123,-0.24795 0.09884,-0.48594 0.271152,-0.66762 0.162377,-0.19704 0.359259,-0.3646 0.517268,-0.56443 0.0013,-0.008 -0.0084,-0.0101 -0.01386,-0.008 z"
       id="path2822"
       class="OR" />
    <path
       style="fill:#ff6600;stroke:#000000;stroke-width:0.00123689"
       d="m 26.333377,143.75637 c -0.154129,0.0603 -0.273643,0.20069 -0.364979,0.3344 0.04794,0.0966 0.192919,0.11178 0.282649,0.15978 0.268955,0.11138 0.571623,0.15014 0.850266,0.0499 0.220011,-0.0719 0.468471,-0.14804 0.657725,-0.25149 -0.452819,-0.0134 -0.930921,-0.024 -1.329753,-0.26767 -0.03002,-0.0133 -0.06207,-0.0291 -0.09591,-0.0249 z"
       id="path2823"
       class="OR" />
    <path
       style="fill:#ff6600;stroke:#000000;stroke-width:0.00123689"
       d="m 23.961207,143.78135 c -0.120482,0.0715 -0.182124,0.22619 -0.218002,0.35725 -0.01656,0.1363 0.170667,0.12539 0.263032,0.12461 0.07443,-0.009 0.24725,-0.0185 0.200754,-0.13616 -0.06158,-0.11934 -0.10647,-0.27752 -0.229019,-0.3458 -0.0056,-7.9e-4 -0.01122,-7.9e-4 -0.01677,1e-4 z"
       id="path2824"
       class="OR" />
    <path
       style="fill:#ff6600;stroke:#000000;stroke-width:0.00123689"
       d="m 23.857521,144.78734 c -0.219832,0.0458 -0.348639,0.26725 -0.487992,0.4245 -0.317443,0.43898 -0.629872,0.91724 -0.714159,1.46229 -0.02056,0.0781 0.0567,0.1241 0.113157,0.0603 0.354449,-0.28478 0.603453,-0.67771 0.884037,-1.03082 0.16163,-0.24195 0.381087,-0.46783 0.449581,-0.75764 0.01736,-0.13579 -0.145976,-0.15883 -0.244624,-0.15862 z"
       id="path2825"
       class="OR" />
    <path
       style="fill:#ff6600;stroke:#000000;stroke-width:0.00123689"
       d="m 22.073163,143.27601 c -0.378436,0.007 -0.768404,0.0382 -1.123879,0.17162 0.02364,0.067 0.148706,0.0797 0.206279,0.12146 0.613848,0.28461 1.309523,0.23655 1.955282,0.38383 0.153413,-0.0958 0.286614,-0.25474 0.337005,-0.43083 -0.0128,-0.13014 -0.200196,-0.11668 -0.291346,-0.15606 -0.355363,-0.0741 -0.721174,-0.0908 -1.083341,-0.09 z"
       id="path2826"
       class="OR" />
    <path
       style="fill:#ffffff;fill-opacity:1;stroke:#000000;stroke-width:0.0064821;stroke-opacity:0"
       d="m 150.688,494.88433 c -1.16704,0.0869 -2.47113,-0.062 -3.52439,0.5168 -0.25886,0.49588 0.62456,0.53821 0.9118,0.68112 0.60784,0.0978 0.9507,0.65121 1.46252,0.8923 1.22537,-0.0267 2.44592,-0.0823 3.65077,0.22877 0.90614,0.17705 2.08777,0.42234 2.71055,-0.47666 0.19587,-0.32341 0.88923,-0.76627 0.56769,-1.15943 -1.81933,-0.68497 -3.85902,-0.64666 -5.77894,-0.6829 z"
       id="path109"
       transform="scale(0.26458333)"
       class="P" />
    <path
       style="fill:#ffffff;fill-opacity:1;stroke:#000000;stroke-width:0.0064821;stroke-opacity:0"
       d="m 167.65362,487.12101 c -1.90465,0.73041 -3.60745,2.19462 -4.44808,4.06954 -0.21721,0.42247 -0.0489,1.16412 0.56364,0.98345 0.71546,-0.0473 1.75121,-0.26995 1.70737,-1.19437 -0.008,-1.2971 0.71875,-2.44936 1.76637,-3.18155 0.096,-0.14218 0.84858,-0.55467 0.4107,-0.67707 z"
       id="path110"
       transform="scale(0.26458333)"
       class="P" />
    <path
       style="fill:#ffffff;fill-opacity:1;stroke:#000000;stroke-width:0.0064821;stroke-opacity:0"
       d="m 163.99504,492.97794 c -1.4175,0.30774 -2.73401,1.03368 -3.95408,1.80106 -0.82029,0.48073 -0.80345,1.54787 -0.38538,2.29304 0.38171,0.70936 0.64067,1.78934 1.52177,2.01426 1.43934,-0.18159 2.7429,-0.96762 4.03966,-1.58128 0.51917,-0.21043 1.20741,-0.74777 0.77659,-1.36099 -0.53519,-0.92666 -1.39331,-1.74848 -1.4367,-2.87617 -0.0818,-0.22913 -0.338,-0.31388 -0.56186,-0.28992 z"
       id="path111"
       transform="scale(0.26458333)"
       class="P" />
    <path
       style="fill:#ffffff;fill-opacity:1;stroke:#000000;stroke-width:0.0064821;stroke-opacity:0"
       d="m 158.3784,497.09533 c -0.50015,0.16547 -1.11119,0.74278 -0.9437,1.31162 0.45756,0.52007 1.2855,0.65923 1.9426,0.64669 0.39876,-0.40524 -0.27651,-1.02384 -0.37373,-1.44404 -0.13288,-0.23106 -0.31621,-0.53746 -0.62517,-0.51427 z"
       id="path112"
       transform="scale(0.26458333)"
       class="P" />
    <path
       style="fill:#ffffff;fill-opacity:1;stroke:#000000;stroke-width:0.0064821;stroke-opacity:0"
       d="m 158.02923,500.58073 c -1.22144,0.26573 -1.83892,1.56293 -2.58094,2.44446 -0.93052,1.44919 -1.99935,2.94041 -2.29102,4.67065 -0.0683,0.43603 0.45036,0.52919 0.67683,0.21396 1.78324,-1.71336 3.36007,-3.65794 4.71851,-5.72349 0.31975,-0.45414 0.62163,-1.39268 -0.16281,-1.55671 -0.11592,-0.0378 -0.23871,-0.0554 -0.36057,-0.0489 z"
       id="path113"
       transform="scale(0.26458333)"
       class="P" />
    <path
       style="fill:#ffffff;fill-opacity:1;stroke:#000000;stroke-width:0.0064821;stroke-opacity:0"
       d="m 167.31179,496.96949 c -0.60785,0.11286 -1.11027,0.71537 -1.3663,1.18805 0.82063,0.82534 2.04714,1.17766 3.178,1.29794 1.28656,-0.0523 2.49426,-0.71064 3.54718,-1.38986 -0.0982,-0.35993 -0.70093,0.0419 -0.98903,-0.0446 -1.09239,0.069 -2.35273,0.30259 -3.23978,-0.5406 -0.33338,-0.23481 -0.69674,-0.53334 -1.13007,-0.51097 z"
       id="path114"
       transform="scale(0.26458333)"
       class="P" />
  </g>
</svg>
