<?xml version="1.0" encoding="UTF-8" standalone="no"?>
<!-- Created with Inkscape (http://www.inkscape.org/) -->

<svg
   width="32.945927mm"
   height="35.323235mm"
   viewBox="0 0 32.945927 35.323235"
   version="1.1"
   id="svg1"
   xmlns="http://www.w3.org/2000/svg"
   xmlns:svg="http://www.w3.org/2000/svg">
  <defs
     id="defs1" />
  <g
     id="layer1"
     transform="translate(-16.740764,-125.33941)">
    <g
       id="g2945">
      <path
         id="path1144"
         style="fill:#000000;stroke-width:0.264583"
         d="m 27.01851,159.46542 v -1.19721 l 0.66556,0.0219 c 0.59301,0.0195 0.684053,0.0605 0.834998,0.37584 0.190712,0.39833 0.105331,1.0088 -0.173408,1.24014 -0.0997,0.0827 -0.353324,0.12518 -0.563615,0.0943 -0.348165,-0.0511 -0.38235,-0.024 -0.38235,0.30306 0,0.23456 -0.06612,0.35918 -0.190605,0.35918 -0.155919,0 -0.19058,-0.21773 -0.19058,-1.19721 z m 1.143556,-0.01 c 0.129302,-0.34007 -0.02619,-0.95296 -0.241909,-0.95296 -0.204311,0 -0.520462,0.38592 -0.520462,0.63531 0,0.24939 0.316151,0.63531 0.520462,0.63531 0.06662,0 0.175472,-0.14295 0.241909,-0.31766 z m 0.76237,0.01 v -1.19721 l 0.66556,0.0219 c 0.59301,0.0195 0.684053,0.0605 0.834998,0.37584 0.190712,0.39833 0.105331,1.0088 -0.173408,1.24014 -0.09969,0.0827 -0.353324,0.12518 -0.563615,0.0943 -0.348139,-0.0511 -0.38235,-0.024 -0.38235,0.30306 0,0.23456 -0.06612,0.35918 -0.190579,0.35918 -0.155945,0 -0.190606,-0.21773 -0.190606,-1.19721 z m 1.080029,-0.32753 c 0,-0.30283 -0.06482,-0.57221 -0.144092,-0.59862 -0.201083,-0.067 -0.554752,0.31461 -0.554752,0.59862 0,0.28402 0.353669,0.66566 0.554752,0.59863 0.07927,-0.0264 0.144092,-0.2958 0.144092,-0.59863 z m -5.595064,0.75537 c -0.04556,-0.0737 0.150416,-0.48828 0.435531,-0.9212 l 0.518398,-0.78713 -0.443045,-0.0394 c -0.282575,-0.0252 -0.443018,-0.10568 -0.443018,-0.22235 0,-0.13678 0.174413,-0.18293 0.691356,-0.18293 0.380233,0 0.720646,0.0474 0.75647,0.10542 0.03585,0.058 -0.190685,0.48681 -0.503423,0.95296 l -0.568563,0.84755 h 0.574464 c 0.425899,0 0.574437,0.0493 0.574437,0.19059 0,0.14803 -0.168566,0.1906 -0.754857,0.1906 -0.415184,0 -0.792162,-0.0603 -0.83775,-0.13407 z m 1.846739,-0.75537 c 0,-0.7059 0.03932,-0.88943 0.190579,-0.88943 0.151289,0 0.190606,0.18353 0.190606,0.88943 0,0.7059 -0.03932,0.88944 -0.190606,0.88944 -0.151262,0 -0.190579,-0.18354 -0.190579,-0.88944 z m 4.693179,0.68909 c -0.225584,-0.27183 -0.228732,-1.10254 -0.0053,-1.37188 0.273897,-0.33002 0.984727,-0.26651 1.23145,0.11003 0.305356,0.46604 0.154438,0.69983 -0.451776,0.69983 -0.353112,0 -0.512233,0.055 -0.512233,0.177 0,0.23681 0.327581,0.34954 0.725514,0.24967 0.24339,-0.0611 0.309615,-0.0373 0.265906,0.0954 -0.08919,0.27088 -1.036902,0.30107 -1.253648,0.0399 z m 0.86577,-1.10204 c -0.0291,-0.0874 -0.157772,-0.15882 -0.285883,-0.15882 -0.128111,0 -0.256778,0.0715 -0.285882,0.15882 -0.03352,0.10059 0.07128,0.15883 0.285882,0.15883 0.214604,0 0.319432,-0.0582 0.285883,-0.15883 z m 0.794146,0.42793 v -0.87445 l 0.508239,-0.007 c 0.360468,-0.005 0.508264,0.0461 0.508264,0.17561 0,0.10044 -0.108241,0.18263 -0.240533,0.18263 -0.290353,0 -0.394784,0.23805 -0.394784,0.89982 0,0.35783 -0.05361,0.49786 -0.190606,0.49786 -0.150945,0 -0.19058,-0.18187 -0.19058,-0.87446 z m 2.032979,-0.2691 v -1.14356 h 0.635318 c 0.480007,0 0.635317,0.0466 0.635317,0.1906 0,0.13311 -0.134117,0.19059 -0.444711,0.19059 -0.355177,0 -0.444738,0.0495 -0.444738,0.24607 0,0.18332 0.102817,0.25623 0.403172,0.28589 0.582506,0.0575 0.626242,0.35747 0.05215,0.35747 -0.446484,0 -0.455321,0.01 -0.455321,0.50825 0,0.36707 -0.05294,0.50825 -0.19058,0.50825 -0.15531,0 -0.190606,-0.21177 -0.190607,-1.14356 z m 1.651821,-0.12706 c 0,-1.04473 0.03387,-1.27062 0.190579,-1.27062 0.156713,0 0.190606,0.22589 0.190606,1.27062 0,1.04473 -0.03389,1.27062 -0.190606,1.27062 -0.156713,0 -0.190579,-0.22589 -0.190579,-1.27062 z m 0.814202,1.09533 c -0.160549,-0.41833 0.0069,-0.76778 0.424656,-0.88712 0.597747,-0.17068 0.559012,-0.51802 -0.04511,-0.40469 -0.349118,0.0655 -0.444977,0.0462 -0.403093,-0.0811 0.03048,-0.0926 0.287734,-0.18433 0.576977,-0.20576 0.642699,-0.0476 0.824124,0.21035 0.76745,1.09126 l -0.03858,0.59922 -0.605182,0.0378 c -0.442065,0.0276 -0.624601,-0.0127 -0.677121,-0.14959 z m 0.813699,-0.36619 c 0.02937,-0.15247 -0.03908,-0.22089 -0.2209,-0.22089 -0.181848,0 -0.263446,0.0816 -0.263446,0.26344 0,0.32561 0.420555,0.28867 0.484346,-0.0425 z m 0.913342,-0.72914 c 0,-1.04473 0.03387,-1.27062 0.190579,-1.27062 0.14486,0 0.190606,0.15776 0.190606,0.65746 v 0.65745 l 0.294058,-0.27627 c 0.521415,-0.48982 0.804783,-0.32498 0.323003,0.18787 l -0.272388,0.28993 0.335915,0.44039 c 0.385075,0.50486 0.406109,0.58441 0.154517,0.58441 -0.09977,0 -0.327846,-0.18583 -0.506836,-0.41295 l -0.325464,-0.41295 -0.0026,0.41295 c 0,0.28173 -0.06197,0.41295 -0.192008,0.41295 -0.156713,0 -0.19058,-0.22589 -0.19058,-1.27062 z m 1.740509,1.04433 c -0.288873,-0.31921 -0.279559,-1.0743 0.01667,-1.3423 0.533771,-0.48306 1.292384,-0.1639 1.292384,0.54374 0,0.22637 -0.07863,0.26248 -0.571791,0.26248 -0.314457,0 -0.571765,0.0502 -0.571765,0.1115 0,0.20747 0.357717,0.40999 0.656167,0.37149 0.163248,-0.0211 0.325385,0.0189 0.360336,0.0888 0.0358,0.0716 -0.161105,0.14358 -0.4513,0.16491 -0.376237,0.0276 -0.572902,-0.0264 -0.73062,-0.2006 z m 0.927787,-1.04832 c 0,-0.23832 -0.397271,-0.28851 -0.608859,-0.0769 -0.19259,0.19258 -0.177747,0.20797 0.200449,0.20797 0.224631,0 0.40841,-0.059 0.40841,-0.13105 z M 26.25614,157.87786 c 0,-0.15607 0.08205,-0.26471 0.199919,-0.26471 0.118322,0 0.183145,0.0864 0.158803,0.21183 -0.06181,0.31877 -0.358722,0.36254 -0.358722,0.0529 z m 3.820424,-3.5523 c -0.192325,-0.35935 -0.168036,-0.86495 0.05813,-1.2101 0.14613,-0.22302 0.172958,-0.47269 0.109141,-1.0156 -0.04654,-0.39594 -0.126656,-0.74588 -0.178065,-0.77766 -0.214762,-0.13272 -1.463066,0.36455 -1.787816,0.7122 -0.272229,0.29143 -0.454633,0.36921 -0.865716,0.36921 -0.426376,0 -0.52078,-0.0436 -0.52078,-0.24069 0,-0.4227 0.681593,-0.98993 1.868858,-1.55527 1.418114,-0.67525 1.683888,-1.03413 1.467221,-1.98106 -0.122317,-0.53454 -0.104617,-0.6599 0.169598,-1.20105 0.16838,-0.33231 0.306175,-0.69636 0.306175,-0.80899 0,-0.36725 0.948214,-1.12703 2.054331,-1.64607 0.845159,-0.39658 1.139534,-0.60595 1.339877,-0.95296 0.173804,-0.30105 0.224049,-0.52681 0.155548,-0.69884 -0.181372,-0.45533 -0.12446,-1.07961 0.14687,-1.61147 0.181663,-0.3561 0.211879,-0.50113 0.0953,-0.45761 -1.111832,0.41505 -1.121251,0.41612 -1.728496,0.19776 -0.553006,-0.19885 -0.620051,-0.19862 -1.059683,0.004 -0.3175,0.14605 -0.730462,0.56449 -1.276535,1.29346 -0.872014,1.16402 -1.632188,1.73173 -2.032212,1.51764 -0.154596,-0.0827 -0.431641,-0.0408 -0.907891,0.13737 -0.644472,0.24113 -0.718873,0.24451 -1.245738,0.0566 -0.915035,-0.32637 -1.372579,-0.10088 -2.204587,1.08648 -0.742315,1.05937 -1.313392,1.60772 -1.80213,1.73038 -0.426191,0.10697 -0.493713,0.002 -0.355865,-0.55562 0.08342,-0.3372 0.250666,-0.56087 0.577083,-0.77176 0.570045,-0.3683 1.15996,-1.49746 0.874501,-1.67389 -0.3379,-0.20883 -1.372553,-0.27963 -1.804406,-0.12348 -0.346445,0.12529 -0.506227,0.11707 -0.896831,-0.0461 -1.150091,-0.48054 -0.195316,-0.97392 1.884733,-0.97392 1.861581,0 2.318358,-0.18818 2.576168,-1.06135 0.148643,-0.50345 0.262281,-0.63166 0.857673,-0.96767 0.377455,-0.21303 0.686303,-0.46081 0.686303,-0.55063 0,-0.28143 1.420521,-0.51105 2.706396,-0.43748 0.980493,0.0561 1.244336,0.0285 1.636237,-0.1712 0.256989,-0.13094 0.503819,-0.36769 0.548534,-0.5261 0.223493,-0.79191 0.37838,-1.00366 0.969354,-1.3253 0.385895,-0.21004 0.619628,-0.42325 0.619628,-0.56521 0,-0.40543 0.294878,-0.88976 0.655108,-1.07605 0.396028,-0.20478 1.057063,-1.23746 0.957791,-1.4962 -0.09639,-0.25115 -1.442931,-0.49492 -1.769242,-0.32029 -0.448548,0.24007 -1.495451,-0.0537 -1.495451,-0.41956 0,-0.0653 0.267361,-0.23692 0.594148,-0.38147 0.528479,-0.23377 0.739272,-0.2531 1.907302,-0.17485 1.726962,0.11568 2.205778,-0.064 2.474304,-0.92871 0.154728,-0.49823 0.279003,-0.64008 0.842539,-0.96173 0.36359,-0.20751 0.692494,-0.47633 0.730911,-0.59738 0.08229,-0.25927 0.02593,-0.25161 2.22168,-0.3018 2.158312,-0.0493 2.513701,-0.18601 2.834878,-1.09035 0.189971,-0.53489 0.310171,-0.66946 0.835898,-0.93586 0.337688,-0.17113 0.647939,-0.39956 0.689399,-0.50763 0.09639,-0.25117 0.450109,-0.25493 0.545729,-0.006 0.04728,0.12325 -0.156368,0.39705 -0.575786,0.77414 -0.793512,0.71345 -0.831294,0.9411 -0.156236,0.9411 0.76663,0 0.946282,0.43616 0.428492,1.04025 -0.101044,0.11789 -0.146155,0.27513 -0.100224,0.34942 0.106733,0.17272 0.838174,0.1743 1.289288,0.003 0.270457,-0.10282 0.389626,-0.0906 0.535094,0.0549 0.164862,0.16485 0.163909,0.23744 -0.0079,0.60877 -0.299879,0.64821 -0.374756,0.97053 -0.288528,1.24217 0.07586,0.23901 0.09644,0.24045 0.523637,0.0367 0.610103,-0.29094 0.875718,-0.11273 0.875718,0.58753 0,0.44622 0.03945,0.52493 0.263022,0.52479 0.144674,-9e-5 0.496835,-0.20029 0.782585,-0.44488 0.563139,-0.48204 0.671724,-0.51897 0.888523,-0.30218 0.170366,0.17036 0.07268,0.49277 -0.149304,0.49277 -0.0866,0 -0.39161,0.2573 -0.677836,0.57178 -0.46273,0.50846 -0.580972,0.57182 -1.067779,0.57214 -0.466566,2.7e-4 -0.584994,0.0566 -0.801582,0.38082 -0.139753,0.20925 -0.296994,0.38062 -0.349408,0.38082 -0.05241,2e-4 -0.09779,0.41491 -0.100833,0.92157 -0.0098,1.63987 -0.357875,2.63376 -0.960887,2.7441 -0.132371,0.0242 -0.474583,0.29582 -0.760466,0.60354 -0.45167,0.48616 -0.588248,0.55951 -1.041797,0.55951 -0.791898,0 -1.11199,0.4992 -1.22211,1.90593 -0.101679,1.2992 -0.246486,1.86439 -0.585946,2.28712 l -0.255085,0.31765 -0.252386,-0.29996 c -0.298053,-0.35425 -0.332105,-1.06398 -0.06181,-1.28831 0.200396,-0.16631 0.244555,-0.71502 0.111178,-1.3818 -0.06038,-0.302 -0.147108,-0.39707 -0.362214,-0.39707 -0.499666,0 -1.137259,0.27965 -1.48889,0.65306 -0.195157,0.20722 -0.475642,0.36343 -0.652542,0.36343 -0.452517,0 -0.957633,0.29913 -1.491615,0.88332 -0.387959,0.4244 -0.552741,0.51437 -0.942128,0.51437 -0.357691,0 -0.555863,0.0898 -0.818595,0.37107 -0.310224,0.3321 -0.360971,0.51875 -0.483102,1.77735 -0.148643,1.53158 -0.414338,2.20543 -0.897282,2.27563 -0.152903,0.0222 -0.481594,0.28884 -0.730409,0.59248 -0.389228,0.47501 -0.540146,0.56413 -1.081246,0.63856 -0.929428,0.12782 -1.135962,0.48112 -1.271534,2.17485 -0.110993,1.38662 -0.368777,2.10318 -0.785469,2.18343 -0.113797,0.0219 -0.267943,-0.0742 -0.342556,-0.21359 z m 0.950807,-1.90758 0.0903,-1.03495 -0.302498,0.11121 c -0.264821,0.0974 -0.310382,0.21226 -0.365998,0.92324 -0.04339,0.55464 -0.0066,0.92996 0.115888,1.18408 0.167904,0.34813 0.185605,0.35531 0.275722,0.1117 0.05297,-0.14319 0.136948,-0.72607 0.186584,-1.29528 z m -2.547646,-0.86084 c 0.139753,-0.0751 0.46855,-0.20572 0.730594,-0.29022 0.325172,-0.10485 0.476488,-0.22883 0.476488,-0.39041 0,-0.40999 -0.218414,-0.40001 -1.113843,0.0509 -1.089581,0.54869 -1.313762,0.77956 -0.749459,0.77181 0.221139,-0.003 0.51644,-0.067 0.65622,-0.14211 z m 2.025835,-0.50252 c 0.158088,-0.0607 0.171265,-0.11809 0.05837,-0.25412 -0.208412,-0.25112 -0.368882,-0.21703 -0.368882,0.0784 0,0.2803 0.01535,0.289 0.310515,0.17575 z m 1.118949,-0.85638 c 0.403887,-0.63933 0.420476,-0.71705 0.153035,-0.71705 -0.108003,0 -0.337582,-0.14123 -0.510196,-0.31385 l -0.313849,-0.31384 -0.379227,0.5235 c -0.464688,0.64149 -0.470085,0.77663 -0.04442,1.11146 0.489267,0.38485 0.704188,0.32787 1.09466,-0.29022 z m 1.413431,-0.36283 c 0.0087,-0.0208 0.187536,-0.233 0.397192,-0.47153 l 0.381185,-0.43369 -0.481965,0.28926 c -0.286067,0.17168 -0.606292,0.2655 -0.78777,0.2308 -0.290618,-0.0555 -0.445585,0.0972 -0.445585,0.43914 0,0.11484 0.887069,0.0637 0.936943,-0.054 z m 0.194601,-0.82399 c 0.570971,-0.42843 0.642937,-0.53232 0.645371,-0.93141 0,-0.17663 0.09168,-0.44929 0.201375,-0.6059 0.153167,-0.21867 0.179202,-0.44673 0.11221,-0.98291 -0.04797,-0.38399 -0.138457,-0.72984 -0.20111,-0.76856 -0.236829,-0.14637 -1.476613,0.32423 -1.682671,0.63872 -0.124089,0.18941 -0.379571,0.34537 -0.648308,0.39578 -0.375418,0.0704 -0.463233,0.15423 -0.572029,0.54596 -0.25662,0.92385 -0.132636,1.14317 0.474874,0.8401 0.209841,-0.10469 0.474583,-0.15464 0.588301,-0.11101 0.237225,0.091 0.390287,0.5756 0.295857,0.93669 -0.05448,0.20832 0.03397,0.32774 0.277892,0.37521 0.02834,0.006 0.257069,-0.14418 0.508238,-0.33267 z m -2.392072,-0.71844 c -0.0935,-0.17472 -0.12655,-0.43555 -0.07691,-0.60729 0.208201,-0.72055 0.182139,-0.77406 -0.115676,-0.2375 -0.226457,0.40795 -0.296095,0.681 -0.243099,0.95297 0.107421,0.55115 0.177271,0.62042 0.400579,0.39713 0.168011,-0.16802 0.173487,-0.24677 0.03511,-0.50531 z m 4.136814,-1.5053 c 0.07916,-0.94937 0.06816,-1.02693 -0.134806,-0.94905 -0.121576,0.0466 -0.275034,0.0848 -0.341047,0.0848 -0.155893,0 -0.121629,1.45931 0.04762,2.02853 0.122766,0.41287 0.137451,0.4225 0.236458,0.15491 0.05805,-0.15693 0.14433,-0.75058 0.19177,-1.3192 z m -11.43045,-0.92794 c 0.671089,-0.8801 0.726334,-1.07985 0.298529,-1.07985 -0.264054,0 -1.029784,1.11266 -1.162499,1.68919 -0.12446,0.54068 0.116813,0.37052 0.86397,-0.60934 z m 9.538891,-0.19799 c 0.436086,-0.12898 0.540014,-0.21697 0.540014,-0.45725 0,-0.16365 -0.05903,-0.29755 -0.131154,-0.29755 -0.223864,0 -0.940938,0.33265 -1.52953,0.70954 l -0.562901,0.36047 0.381186,0.0776 c 0.224737,0.0457 0.459396,0.0138 0.571764,-0.0778 0.104828,-0.0854 0.433599,-0.22717 0.730621,-0.31501 z m 1.355513,-0.19661 c 0.272732,-0.10466 0.252677,-0.26747 -0.05313,-0.43112 -0.22307,-0.11938 -0.254132,-0.0966 -0.254132,0.18612 0,0.35052 0.01058,0.35888 0.307262,0.245 z m 1.122177,-0.85763 c 0.403913,-0.63933 0.420502,-0.71705 0.153062,-0.71705 -0.108003,0 -0.337609,-0.14123 -0.510223,-0.31385 l -0.313822,-0.31384 -0.379228,0.5235 c -0.467465,0.64532 -0.471011,0.77688 -0.02979,1.10606 0.509217,0.37993 0.690219,0.3322 1.080003,-0.28482 z m 6.660965,-1.43592 c 0.06355,-0.75203 0.04445,-0.93256 -0.09861,-0.93099 -0.389441,0.004 -0.510302,0.214 -0.481833,0.83615 0.01561,0.34271 0.0093,0.68029 -0.01455,0.75018 -0.02381,0.0699 0.03538,0.28897 0.13126,0.48685 0.172561,0.35609 0.175445,0.35687 0.279611,0.0753 0.05789,-0.15648 0.140732,-0.70434 0.184124,-1.21746 z m -16.762386,0.90961 c 0.51517,-0.20829 0.684768,-0.46748 0.414972,-0.63422 -0.06879,-0.0425 -0.16883,-0.24487 -0.222355,-0.4497 l -0.09731,-0.37242 -0.667068,0.3093 c -0.396795,0.18398 -0.667094,0.39144 -0.667094,0.51204 0,0.33347 0.38698,0.97764 0.548614,0.91321 0.08263,-0.0329 0.39325,-0.15813 0.690245,-0.27821 z m 1.937702,0.12691 0.444712,-0.17126 -0.511731,-0.01 c -0.281463,-0.005 -0.624522,-0.0855 -0.76237,-0.17807 -0.214365,-0.14404 -0.281675,-0.13599 -0.465058,0.0556 -0.202168,0.21121 -0.194919,0.23113 0.127053,0.34897 0.452464,0.16558 0.63791,0.15835 1.167394,-0.0456 z m 9.865069,-0.30411 c 0.405421,-0.46005 0.371369,-0.58225 -0.07109,-0.25513 -0.262202,0.19387 -0.467069,0.25014 -0.698818,0.19198 -0.18034,-0.0453 -0.327871,-0.0287 -0.327871,0.0368 0,0.0655 -0.03627,0.21356 -0.08057,0.32902 -0.132027,0.34404 0.825077,0.0982 1.178348,-0.30267 z m -13.043561,0.27235 c 0,-0.0524 -0.05826,-0.18107 -0.127053,-0.28589 -0.111231,-0.16942 -0.139038,-0.16942 -0.250243,0 -0.187536,0.28567 -0.156183,0.38118 0.125122,0.38118 0.139753,0 0.253232,-0.0429 0.252174,-0.0953 z m -0.760439,-0.67548 c 0,-0.21936 -1.627849,-0.31602 -2.274332,-0.13505 l -0.304879,0.0854 0.368406,0.16925 c 0.202618,0.0931 0.677836,0.19162 1.056005,0.21898 0.378169,0.0274 0.719666,0.0818 0.758878,0.12103 0.07284,0.0728 0.395922,-0.3022 0.395922,-0.45956 z m 4.358349,0.26426 c 0.238337,-0.001 0.490193,-0.1439 0.76237,-0.43205 0.223573,-0.23668 0.484241,-0.45319 0.579279,-0.48114 0.09501,-0.028 0.338323,-0.3632 0.540676,-0.745 0.321919,-0.60743 0.34372,-0.71203 0.174308,-0.83696 -0.305673,-0.22544 -1.453118,-0.3384 -1.663542,-0.16377 -0.116681,0.0968 -0.39153,0.12111 -0.775467,0.0685 -0.54864,-0.0752 -0.6273,-0.05 -1.01473,0.32555 -0.507762,0.49214 -0.562927,0.85755 -0.116575,0.77222 0.722286,-0.13807 1.116965,0.56571 0.586475,1.0458 -0.200237,0.18121 -0.222197,0.26753 -0.104193,0.40972 0.08525,0.10269 0.262573,0.14977 0.412512,0.10951 0.144648,-0.0388 0.423148,-0.0714 0.618887,-0.0724 z m 2.009325,-0.54656 c 0.242835,-0.29436 0.567161,-0.71494 0.720752,-0.93463 l 0.279214,-0.39942 -0.331655,-0.0832 c -0.18243,-0.0458 -0.346498,-0.0662 -0.364596,-0.0453 -0.01799,0.0209 -0.153908,0.27789 -0.301757,0.57115 -0.147876,0.29326 -0.368856,0.58915 -0.491067,0.65754 -0.122184,0.0684 -0.183435,0.16311 -0.136048,0.21048 0.04736,0.0474 0.03506,0.22045 -0.02738,0.38463 -0.168381,0.44293 0.121576,0.28242 0.652542,-0.36122 z m 7.574703,-0.0269 c 0.28575,-0.24459 0.557054,-0.44472 0.602853,-0.44472 0.04583,0 0.236088,-0.18157 0.422831,-0.40348 0.202697,-0.24092 0.810657,-0.62668 1.508945,-0.95745 1.473544,-0.69803 1.782551,-1.09548 1.544267,-1.98637 -0.143721,-0.5373 -0.130968,-0.6191 0.187802,-1.20477 0.188092,-0.34558 0.341974,-0.71805 0.341974,-0.82771 0,-0.43181 1.043596,-1.21376 2.316929,-1.73607 0.907257,-0.37214 1.442006,-1.05873 1.239467,-1.59141 -0.199575,-0.52493 -0.14597,-0.97219 0.186108,-1.55299 0.16981,-0.29701 0.281649,-0.54001 0.248497,-0.54001 -0.03313,0 -0.265509,0.0858 -0.516387,0.19059 -0.572744,0.23931 -0.910723,0.24018 -1.476455,0.004 -0.712258,-0.2976 -1.256294,0.015 -2.196041,1.26202 -0.842751,1.11825 -1.701721,1.7401 -2.075736,1.50273 -0.147876,-0.0939 -0.392377,-0.0577 -0.887677,0.13142 -0.654235,0.24974 -0.709083,0.25191 -1.276535,0.0504 -0.884449,-0.31412 -1.386602,-0.11964 -2.030069,0.7862 -0.575918,0.81072 -1.188349,1.45836 -2.217499,2.34499 -0.855133,0.7367 -0.929137,1.06411 -0.253577,1.12157 0.660903,0.0562 0.816425,0.36419 0.440637,0.87249 -0.427355,0.57804 -0.229367,0.71291 0.772981,0.52651 0.497099,-0.0924 0.837538,-0.10271 0.912733,-0.0275 0.07519,0.0752 0.04109,0.36406 -0.09144,0.77444 -0.238469,0.73835 -0.251116,0.87426 -0.103003,1.10774 0.08332,0.13134 0.1855,0.11846 0.503873,-0.0635 0.55962,-0.31987 0.848942,-0.12177 0.848942,0.58125 0,0.44622 0.03945,0.52493 0.263022,0.52479 0.144648,-9e-5 0.496808,-0.20029 0.782558,-0.44488 z m -2.576168,-0.45117 c -0.184521,-0.2039 -0.196744,-0.3222 -0.08057,-0.77993 0.07533,-0.29676 0.120994,-0.55554 0.101468,-0.57506 -0.01958,-0.0195 -0.163142,0.23704 -0.319167,0.57014 -0.23114,0.4935 -0.258868,0.67083 -0.149807,0.95771 0.117131,0.30806 0.167084,0.33428 0.399732,0.20978 0.252148,-0.13495 0.254635,-0.15468 0.04834,-0.38264 z m -9.079071,-0.58209 c 0,-0.22096 0.161634,-0.48856 0.476461,-0.78875 l 0.476489,-0.45433 -0.508239,0.3001 c -0.683021,0.40328 -0.79457,0.51896 -0.894847,0.92798 -0.07302,0.29779 -0.04609,0.34942 0.182219,0.34942 0.204628,0 0.267917,-0.079 0.267917,-0.33442 z m 13.976799,0.10952 c 0.174705,-0.077 0.489188,-0.19088 0.698844,-0.25319 0.282231,-0.0839 0.39161,-0.20145 0.421402,-0.45291 0.02223,-0.18679 -0.0026,-0.33962 -0.05405,-0.33962 -0.175472,0 -1.944529,0.91357 -2.076159,1.07215 -0.165815,0.19981 0.538136,0.18139 1.009967,-0.0264 z m 2.089865,-0.48897 c 0.183938,-0.0706 0.181768,-0.096 -0.02143,-0.25008 -0.314721,-0.23877 -0.416665,-0.22054 -0.416665,0.0745 0,0.2665 0.09835,0.30592 0.438044,0.17557 z m 1.338924,-1.28736 c 0,-0.0874 -0.05789,-0.15882 -0.130943,-0.15882 -0.07308,0 -0.276886,-0.14404 -0.45294,-0.32009 -0.372745,-0.37274 -0.402669,-0.36214 -0.866404,0.30706 -0.386768,0.55808 -0.360257,0.67967 0.227171,1.04246 l 0.399097,0.24647 0.411057,-0.47912 c 0.226086,-0.26352 0.41193,-0.5506 0.412962,-0.63796 z m -12.323128,0.7549 c 0,-0.0565 -0.07824,-0.20978 -0.173857,-0.34056 -0.168461,-0.23037 -0.17833,-0.22947 -0.316654,0.029 -0.108743,0.20319 -0.105145,0.28197 0.01508,0.33053 0.251354,0.10153 0.475456,0.0926 0.475456,-0.019 z m 1.14001,-0.14954 c 0.603621,-0.30794 0.692283,-0.4346 0.446882,-0.63828 -0.104061,-0.0864 -0.189204,-0.29296 -0.189204,-0.45912 0,-0.16615 -0.05244,-0.30209 -0.116522,-0.30209 -0.205978,0 -1.250421,0.48278 -1.332812,0.61606 -0.113321,0.18339 0.31869,1.03574 0.524959,1.03574 0.09467,0 0.394679,-0.11354 0.666697,-0.25231 z m 2.053723,0.0561 0.42754,-0.19622 -0.489241,0.0773 c -0.366713,0.0579 -0.550677,0.0217 -0.734563,-0.1447 -0.23196,-0.20994 -0.257201,-0.21013 -0.463735,-0.004 -0.191347,0.1914 -0.194786,0.23338 -0.02781,0.33898 0.282866,0.17886 0.805074,0.14974 1.287807,-0.0718 z m -4.132977,-0.40732 c 0.09284,-0.1223 0.170603,-0.26524 0.172826,-0.31766 0.0026,-0.0524 -0.582031,-0.094 -1.298337,-0.0925 l -1.302385,0.003 0.317659,0.25224 c 0.174704,0.13873 0.409125,0.23082 0.520885,0.20466 0.111786,-0.0262 0.42627,-0.005 0.698844,0.048 0.2726,0.0525 0.54647,0.10213 0.608674,0.11017 0.06218,0.008 0.188992,-0.0855 0.281834,-0.20775 z m 14.79849,-0.59397 0.435239,-0.49868 -0.524166,0.34625 c -0.386768,0.25547 -0.611611,0.3243 -0.857673,0.26254 -0.19775,-0.0496 -0.333508,-0.0306 -0.333508,0.0467 0,0.0717 -0.0308,0.21073 -0.06847,0.30886 -0.05421,0.14127 0.03376,0.16327 0.42246,0.10569 0.362374,-0.0537 0.604838,-0.20328 0.926122,-0.5714 z m -0.137319,-0.39019 c 0.519509,-0.38328 0.631587,-0.547 0.634127,-0.92624 0,-0.1597 0.07842,-0.417 0.171899,-0.57178 0.22188,-0.36741 0.132001,-1.6052 -0.123692,-1.70331 -0.324221,-0.12442 -1.332019,0.24481 -1.678464,0.61496 -0.185499,0.19817 -0.493342,0.37311 -0.684107,0.38876 -0.28702,0.0236 -0.379624,0.12471 -0.537024,0.58664 -0.136869,0.40168 -0.153723,0.62637 -0.06006,0.80137 0.119116,0.22254 0.153591,0.22675 0.40648,0.0496 0.639683,-0.44805 1.170887,-0.065 1.018116,0.73407 -0.08649,0.4525 0.260244,0.46303 0.852726,0.0259 z m -2.286344,-0.44226 c 0,-0.0633 -0.06392,-0.1546 -0.142028,-0.20288 -0.09112,-0.0563 -0.113665,-0.29817 -0.06292,-0.67457 l 0.07914,-0.58679 -0.254767,0.41602 c -0.256169,0.41836 -0.319855,0.85471 -0.178514,1.22306 0.05842,0.1522 0.132715,0.16844 0.317659,0.0695 0.132794,-0.0711 0.241432,-0.181 0.241432,-0.2443 z m -9.910842,-0.23201 c 0,-0.17953 0.128667,-0.46603 0.285909,-0.63667 l 0.285882,-0.31024 -0.422963,0.2152 c -0.252571,0.12851 -0.495697,0.3893 -0.603541,0.64739 -0.231907,0.55501 -0.235479,0.54268 0.137054,0.47146 0.240639,-0.046 0.317659,-0.13986 0.317659,-0.38714 z m 13.768996,-0.56516 c 0.23667,-1.70041 0.242729,-1.87419 0.06538,-1.87222 -0.363617,0.004 -0.473155,0.21333 -0.498396,0.95219 -0.04432,1.29747 0.283527,1.99406 0.433016,0.92003 z m -11.026431,-2.39949 c 0.238707,-0.32385 0.433996,-0.62403 0.433996,-0.66708 0,-0.043 -0.1456,-0.0783 -0.323559,-0.0783 -0.232674,0 -0.384387,0.11268 -0.540014,0.40109 -0.119063,0.22059 -0.307579,0.49755 -0.418968,0.61545 -0.111363,0.11791 -0.240903,0.40638 -0.28784,0.64106 l -0.08533,0.42668 0.393858,-0.37507 c 0.216641,-0.20628 0.589174,-0.64002 0.827855,-0.96386 z m 8.502465,0.65226 c 0.04321,-0.0699 0.337343,-0.19229 0.653626,-0.27193 0.602589,-0.15173 0.774489,-0.34497 0.593937,-0.6676 -0.09192,-0.16425 -0.240691,-0.12839 -1.008909,0.24321 -0.495618,0.23972 -0.973482,0.52307 -1.061932,0.62966 -0.139038,0.16751 -0.09946,0.19379 0.291942,0.19379 0.249025,0 0.488129,-0.0572 0.531336,-0.12713 z m 2.350611,-0.69877 c 0,-0.03 -0.114353,-0.11579 -0.254132,-0.19059 -0.223494,-0.11961 -0.254133,-0.0966 -0.254133,0.19059 0,0.28722 0.03064,0.3102 0.254133,0.19059 0.139779,-0.0748 0.254132,-0.16057 0.254132,-0.19059 z m 0.906066,-0.65949 c 0.269636,-0.3919 0.357134,-0.6136 0.255534,-0.64747 -0.08498,-0.0283 -0.326337,-0.19609 -0.536363,-0.37281 -0.210026,-0.17672 -0.398198,-0.2999 -0.418201,-0.27374 -0.517816,0.67776 -0.715301,0.9977 -0.715301,1.15889 0,0.17628 0.686938,0.72347 0.915115,0.72895 0.04905,0.001 0.273711,-0.26605 0.499216,-0.59382 z m 1.551649,-0.52989 c 0.128772,-0.113 0.292629,-0.31477 0.364119,-0.44836 0.115993,-0.21676 0.08681,-0.21215 -0.271224,0.0428 -0.267044,0.19016 -0.5012,0.26058 -0.700299,0.21062 -0.276834,-0.0695 -0.452623,0.0935 -0.452623,0.41975 0,0.16331 0.814625,-0.009 1.060027,-0.2248 z m -11.596556,-0.21318 0.636456,-0.32252 -0.259504,-0.32992 c -0.142742,-0.18146 -0.259503,-0.40797 -0.259503,-0.50337 0,-0.23118 -0.125836,-0.21943 -0.815393,0.0761 -0.631851,0.27084 -0.694267,0.43592 -0.388435,1.02732 0.235718,0.45587 0.285353,0.45826 1.086379,0.0524 z m 2.023375,0.1217 0.444712,-0.1815 -0.486992,0.0718 c -0.335862,0.0495 -0.584941,0.008 -0.80264,-0.13499 -0.257202,-0.16853 -0.351499,-0.17708 -0.509217,-0.0462 -0.172033,0.14278 -0.168381,0.17905 0.03278,0.32615 0.286332,0.20938 0.752317,0.19692 1.321356,-0.0353 z m -3.305572,-0.0851 c 0,-0.0874 -0.0521,-0.23803 -0.1134,-0.33482 -0.0894,-0.14116 -0.139303,-0.12395 -0.252175,0.0869 -0.192643,0.35994 -0.179599,0.40671 0.113401,0.40671 0.139779,0 0.253259,-0.0715 0.252174,-0.15883 z m -0.837141,-0.42441 c 0.139858,-0.36446 -0.05091,-0.43326 -1.201394,-0.43326 -1.475502,0 -1.504262,0.26179 -0.05604,0.51003 0.891355,0.15278 1.17602,0.1354 1.257433,-0.0768 z m 4.559247,0.0845 c 0.26498,-0.0615 0.593804,-0.25605 0.733927,-0.43418 0.139621,-0.17749 0.367877,-0.35891 0.507259,-0.40315 0.230135,-0.073 0.883524,-1.14553 0.883524,-1.45021 0,-0.20564 -1.033966,-0.4226 -1.58586,-0.33277 -0.720275,0.11725 -0.722921,0.1173 -1.148821,0.0214 -0.323294,-0.0728 -0.459158,-0.0176 -0.85889,0.34849 -0.543851,0.49816 -0.525965,0.80082 0.04733,0.80082 0.209973,0 0.469953,0.0882 0.577744,0.19597 0.176609,0.17659 0.175683,0.23524 -0.0093,0.59296 -0.112897,0.21834 -0.267996,0.39698 -0.344646,0.39698 -0.09274,0 -0.08644,0.0638 0.01879,0.19059 0.178964,0.21566 0.483473,0.23453 1.178904,0.0731 z m 2.244486,-0.87749 c 0.643176,-0.80142 0.705194,-1.03798 0.272124,-1.03798 -0.251565,0 -1.066509,1.15774 -1.205918,1.71315 -0.124512,0.49614 0.157242,0.29241 0.933794,-0.67517 z m 4.622351,0.0253 c -0.103929,-0.15865 -0.155655,-0.40561 -0.114909,-0.5488 0.209682,-0.73707 0.190976,-0.78589 -0.107394,-0.28015 -0.231405,0.39224 -0.30234,0.64961 -0.24511,0.88943 0.119142,0.49939 0.161395,0.53712 0.420317,0.37541 0.214153,-0.13374 0.218519,-0.17427 0.0471,-0.43589 z m -8.935191,-0.77042 c 0,-0.19976 0.144356,-0.49314 0.346392,-0.70403 l 0.346419,-0.36156 -0.534776,0.29108 c -0.336814,0.18333 -0.582612,0.42743 -0.664051,0.65945 -0.16846,0.48003 -0.177747,0.45752 0.188357,0.45752 0.260271,0 0.317659,-0.0619 0.317659,-0.34246 z m 8.195495,-0.7968 0.508265,-0.23099 -0.542873,0.0669 c -0.409363,0.0505 -0.60407,0.0115 -0.791765,-0.15831 -0.203571,-0.18425 -0.284004,-0.19609 -0.441854,-0.0651 -0.283872,0.23558 -0.239872,0.33136 0.219974,0.47887 0.530199,0.17008 0.459264,0.17627 1.048253,-0.0914 z m -3.262736,-0.19389 c -0.111972,-0.24574 -0.182509,-0.28494 -0.314933,-0.17504 -0.23241,0.19288 -0.21426,0.33461 0.0517,0.40411 0.396161,0.10353 0.409496,0.0919 0.263233,-0.22907 z m 1.186286,0.0687 c 0.748374,-0.33105 0.774118,-0.37034 0.484029,-0.73913 -0.137478,-0.17477 -0.249979,-0.39583 -0.249979,-0.49123 0,-0.2386 -0.154093,-0.21875 -0.822483,0.10599 -0.625819,0.30403 -0.674317,0.43091 -0.381344,0.99748 0.229552,0.44386 0.247808,0.44625 0.969777,0.12689 z m -2.154211,-0.78524 c -0.521732,-0.12189 -1.972971,-0.12064 -2.166276,0.002 -0.126259,0.08 -0.08477,0.12992 0.158829,0.19107 0.181346,0.0455 0.329724,0.13091 0.329724,0.18977 0,0.0589 0.128667,0.0833 0.285909,0.0544 0.157242,-0.0289 0.514588,-0.001 0.79412,0.062 0.442304,0.0998 0.536337,0.08 0.724747,-0.15214 0.208915,-0.25743 0.20447,-0.26958 -0.127053,-0.34703 z m 2.642394,-1.25949 c 0,-0.24937 0.124645,-0.45852 0.412961,-0.69296 l 0.412936,-0.3358 -0.537396,0.26431 c -0.473577,0.23291 -0.923819,0.78233 -0.923819,1.12731 0,0.0637 0.142955,0.0884 0.317659,0.055 0.249105,-0.0476 0.317659,-0.13782 0.317659,-0.41789 z m -27.036104,-2.69446 0.03545,-1.68357 h 0.367189 c 0.331496,0 0.433281,0.11744 1.046294,1.20709 l 0.67908,1.20708 0.0026,-1.23885 c 0.0026,-1.15348 0.01958,-1.23885 0.256117,-1.23885 0.241644,0 0.254132,0.0847 0.254132,1.72377 v 1.72378 l -0.330967,-0.0402 c -0.270993,-0.0329 -0.444983,-0.24728 -0.960789,-1.18376 -0.346445,-0.62895 -0.683524,-1.19787 -0.749062,-1.26426 -0.07432,-0.0753 -0.119194,0.36729 -0.119194,1.17532 0,1.2175 -0.01561,1.29603 -0.25781,1.29603 -0.247862,0 -0.256461,-0.065 -0.222356,-1.68357 z" />
      <path
         style="fill:#ff0000;stroke:#000000;stroke-width:0.0086323"
         d="m 121.19444,528.15708 c -1.6919,0.40772 -3.40619,1.11876 -4.74675,2.23968 -0.21683,1.236 0.66244,2.42406 1.34778,3.38379 0.71633,0.82987 1.81614,-0.1667 2.57418,-0.41577 0.81284,-0.52868 2.11087,-0.74173 2.48819,-1.73286 -0.2451,-0.94034 -1.22496,-1.66822 -1.12186,-2.73806 0.0223,-0.33577 -0.10382,-0.82076 -0.54154,-0.73678 z"
         id="path2308"
         transform="scale(0.26458333)" class="OC" />
      <path
         style="fill:#ff0000;stroke:#000000;stroke-width:0.00271326"
         d="m 124.22364,522.22562 c -0.73291,0.37235 -1.50109,0.71019 -2.15355,1.21641 -0.78763,0.63572 -1.37092,1.49042 -1.71231,2.44076 -0.13583,0.42304 -0.41657,0.84524 -0.38242,1.30026 0.18896,0.17623 0.50793,0.0366 0.73767,0.0318 0.55537,-0.10067 1.3171,-0.21295 1.4746,-0.86655 0.14102,-0.67007 0.13829,-1.37993 0.47483,-1.99995 0.35584,-0.82405 1.08383,-1.39362 1.60527,-2.09846 -1.4e-4,-0.0253 -0.0264,-0.0308 -0.0441,-0.0243 z"
         id="path2377"
         transform="scale(0.26458333)" class="OC" />
      <path
         style="fill:#ff0000;stroke:#000000;stroke-width:0.00271326"
         d="m 115.24686,531.94579 c -0.35636,0.14134 -0.4678,0.58709 -0.65407,0.88883 -0.15188,0.29719 -0.37911,0.79309 0.0126,1.00717 0.52877,0.25839 1.17679,0.43126 1.75271,0.24324 0.32836,-0.18633 0.0494,-0.58077 -0.062,-0.81547 -0.28508,-0.46612 -0.54786,-0.99687 -1.00062,-1.31932 -0.0157,-0.005 -0.0323,-0.006 -0.0486,-0.004 z"
         id="path2378"
         transform="scale(0.26458333)" class="OC" />
      <path
         style="fill:#ff0000;stroke:#000000;stroke-width:0.00271326"
         d="m 107.89106,530.42519 c -1.32616,0.004 -2.65229,0.0126 -3.97844,0.0187 0.13457,0.24257 0.49673,0.41911 0.7258,0.63359 0.67476,0.52289 1.43397,1.11522 2.33998,1.04216 1.19555,-0.036 2.37811,0.1264 3.54601,0.37163 0.51465,0.0534 1.02938,0.28227 1.54931,0.2183 0.72034,-0.36968 1.20233,-1.09456 1.50926,-1.82361 0.0975,-0.27932 -0.31651,-0.25473 -0.47991,-0.29719 -1.7276,-0.19366 -3.47648,-0.14811 -5.21201,-0.16354 z"
         id="path2379"
         transform="scale(0.26458333)" class="OC" />
      <path
         style="fill:#ff0000;stroke:#000000;stroke-width:0.00271326"
         d="m 114.0118,535.74277 c -0.25359,0.009 -0.26059,0.37942 -0.40472,0.5345 -0.7878,1.40008 -1.37191,2.99463 -2.62322,4.06278 -0.23914,0.21229 -0.66945,0.40002 -0.65288,0.77265 0.30159,0.57958 0.009,1.25907 -0.14582,1.84135 -0.0424,0.18239 -0.21688,0.58503 0.0723,0.64129 0.59532,-0.17227 0.99796,-0.71224 1.43218,-1.12367 1.74813,-1.91066 3.30048,-3.99498 4.75078,-6.13771 0.0894,-0.16508 -0.25964,-0.11965 -0.34165,-0.18386 -0.68718,-0.16605 -1.37832,-0.36546 -2.08693,-0.40733 z"
         id="path2380"
         transform="scale(0.26458333)" class="OC" />
      <path
         style="fill:#ff0000;stroke:#000000;stroke-width:0.00271326"
         d="m 124.63274,531.90456 c -0.36837,0.0817 -0.59793,0.45429 -0.87629,0.68319 -0.15598,0.23077 -0.57983,0.45557 -0.44186,0.7843 0.29348,0.41224 0.81963,0.59851 1.28986,0.73205 1.12438,0.22317 2.30166,0.009 3.36759,-0.37381 0.65304,-0.27178 1.32275,-0.52329 1.9415,-0.86454 -0.0872,-0.11695 -0.3571,0.0316 -0.50481,0.0139 -1.01638,0.1085 -2.08407,0.44651 -3.08316,0.0859 -0.618,-0.21375 -0.9868,-0.8524 -1.60666,-1.05489 -0.0284,-0.005 -0.0573,-0.007 -0.0862,-0.006 z"
         id="path2381"
         transform="scale(0.26458333)" class="OC" />
      <path
         style="fill:#808080;stroke:#000000;stroke-width:0.0068555"
         d="m 138.93561,504.13094 c -1.49579,0.33614 -2.97218,0.96264 -4.20168,1.88312 -0.7451,0.88497 0.0807,2.06604 0.43643,2.93662 0.23349,0.63699 0.92394,1.43943 1.66411,0.98698 1.52542,-0.67173 3.13849,-1.28652 4.53377,-2.1709 -0.65541,-1.11904 -1.68809,-2.05149 -1.89731,-3.39079 -0.0711,-0.2384 -0.32352,-0.26746 -0.53532,-0.24503 z"
         id="path2791"
         transform="scale(0.26458333)" class="OF" />
      <path
         style="fill:#808080;stroke:#000000;stroke-width:0.0068555"
         d="m 142.36148,498.23788 c -1.60413,0.72548 -3.36581,1.76817 -3.86827,3.58227 -0.0602,0.31576 -0.55025,1.11493 0.0844,1.10358 0.58506,-0.0404 1.64176,0.25196 1.81938,-0.54282 0.11477,-1.44393 0.77481,-2.77902 1.80413,-3.7882 0.006,-0.0555 0.36583,-0.35546 0.1604,-0.35483 z"
         id="path2792"
         transform="scale(0.26458333)" class="OF" />
      <path
         style="fill:#808080;stroke:#000000;stroke-width:0.0068555"
         d="m 126.30568,505.93854 c -1.26227,0.10578 -2.64212,-0.0456 -3.81739,0.4823 -0.11155,0.40293 0.6113,0.49426 0.86658,0.64216 2.22809,0.64245 4.56388,1.17224 6.89514,1.0286 0.92813,0.004 1.41038,-1.56373 0.38267,-1.81912 -1.40402,-0.36197 -2.88721,-0.33447 -4.327,-0.33394 z"
         id="path2793"
         transform="scale(0.26458333)" class="OF" />
      <path
         style="fill:#808080;stroke:#000000;stroke-width:0.0068555"
         d="m 133.04336,511.74001 c -1.44014,-0.003 -1.93165,1.64013 -2.6945,2.56162 -1.0857,1.46412 -2.14323,3.18809 -2.16327,5.02174 2.21793,-2.14234 4.3747,-4.43763 5.89814,-7.13481 0.27891,-0.58653 -0.74845,-0.3971 -1.04037,-0.44855 z"
         id="path2794"
         transform="scale(0.26458333)" class="OF" />
      <path
         style="fill:#808080;stroke:#000000;stroke-width:0.0068555"
         d="m 133.4338,507.52602 c -0.37682,0.59506 -1.01237,1.27909 -0.91585,2.01916 0.5164,0.19282 1.38453,0.22706 1.71548,-0.30341 -0.0102,-0.6254 -0.34835,-1.31948 -0.79963,-1.71575 z"
         id="path2795"
         transform="scale(0.26458333)" class="OF" />
      <path
         style="fill:#808080;stroke:#000000;stroke-width:0.0068555"
         d="m 142.34997,508.12721 c -0.45811,0.0687 -1.04631,0.43086 -1.11563,0.89175 1.08877,1.41929 3.11671,1.12768 4.63336,0.70885 0.59865,-0.21019 1.28181,-0.37429 1.79395,-0.72224 -1.19077,0.0209 -2.48997,0.37138 -3.63235,-0.21262 -0.55632,-0.2168 -1.05393,-0.67357 -1.67933,-0.66574 z"
         id="path2796"
         transform="scale(0.26458333)" class="OF" />
      <path
         style="fill:#ff00ff;stroke:#000000;stroke-width:0.0068555"
         d="m 174.59199,507.00811 c -1.08468,1.12768 -2.01402,2.45989 -2.71971,3.8613 -0.23928,0.86228 0.7736,1.37472 1.26559,1.91339 0.60337,0.52085 1.2795,0.97931 2.02157,1.26103 1.25176,-1.17706 2.27574,-2.63569 2.95296,-4.21292 0.0942,-0.68031 -0.89765,-0.7521 -1.22507,-1.17425 -0.77824,-0.52122 -1.4631,-1.22559 -2.29534,-1.64855 z"
         id="path2797"
         transform="scale(0.26458333)" class="IF" />
      <path
         style="fill:#ff00ff;stroke:#000000;stroke-width:0.0068555"
         d="m 174.22003,500.48065 c -0.78805,0.9835 -1.37812,2.20177 -1.66621,3.43712 -0.0443,0.86093 0.0984,1.8677 0.68367,2.52636 0.52953,0.15818 1.18218,-0.28241 1.40324,-0.75705 -0.0379,-0.96992 -0.97644,-1.72991 -0.824,-2.75612 -0.007,-0.82367 0.56085,-1.64532 0.42793,-2.4479 l -0.0115,-0.003 z"
         id="path2798"
         transform="scale(0.26458333)" class="IF" />
      <path
         style="fill:#ff00ff;stroke:#000000;stroke-width:0.0068555"
         d="m 184.33671,507.73168 c -1.09882,0.52668 -2.09508,1.5392 -3.41971,1.36655 -0.61122,-0.004 -1.48922,-0.14998 -1.70478,0.61807 -0.20993,0.37263 -0.36115,1.31232 0.34465,1.15419 1.59858,-0.13819 3.28111,-0.67876 4.21989,-2.07353 0.12537,-0.26766 0.78074,-0.78934 0.55995,-1.06528 z"
         id="path2799"
         transform="scale(0.26458333)" class="IF" />
      <path
         style="fill:#ff00ff;stroke:#000000;stroke-width:0.0068555"
         d="m 172.04447,513.3773 c -0.43476,0.31003 -0.22644,1.05364 -0.22789,1.52053 0.002,0.45201 0.45272,0.45469 0.71501,0.17861 0.32408,-0.25599 0.90946,-0.43646 1.02913,-0.84006 -0.42824,-0.36583 -0.95656,-0.74956 -1.51625,-0.85908 z"
         id="path2800"
         transform="scale(0.26458333)" class="IF" />
      <path
         style="fill:#ff00ff;stroke:#000000;stroke-width:0.0068555"
         d="m 168.8805,513.13173 c -1.84917,0.36436 -3.46321,1.46266 -5.13761,2.27972 -0.76298,0.50725 -1.87202,0.8632 -2.23982,1.76797 0.26469,0.38138 0.96269,0.0498 1.3553,0.1414 0.90195,0.0542 1.76167,-0.20329 2.47441,-0.75705 1.3466,-0.72691 3.09979,-0.70796 4.21185,-1.8301 0.35896,-0.48684 0.0603,-1.66348 -0.66413,-1.60194 z"
         id="path2801"
         transform="scale(0.26458333)" class="IF" />
      <path
         style="fill:#ff00ff;stroke:#000000;stroke-width:0.0068555"
         d="m 174.33196,516.49896 c -1.22665,0.20154 -1.55921,1.60593 -1.54092,2.66318 -0.0468,1.96543 -0.13255,4.01166 0.47082,5.90433 0.0411,0.32501 0.47746,0.53998 0.57736,0.12238 0.6814,-2.19801 0.80881,-4.53492 1.0786,-6.81148 -0.0548,-0.57365 0.3036,-1.46123 -0.28031,-1.84038 -0.0963,-0.0391 -0.20274,-0.0482 -0.30555,-0.038 z"
         id="path2802"
         transform="scale(0.26458333)" class="IF" />
      <path
         style="fill:#0000ff;stroke:#000000;stroke-width:0.0068555"
         d="m 159.50506,528.34238 c -0.84124,0.34783 -1.26261,1.32107 -1.81591,1.99729 -0.37673,0.73619 -1.27317,1.59067 -0.84461,2.47325 0.7917,1.0453 2.03792,1.65052 3.11416,2.32685 1.05413,-1.27007 2.33105,-2.45427 2.98509,-3.99065 0.13823,-0.32363 -0.0151,-0.75111 -0.40463,-0.72572 -1.17136,-0.41632 -1.75868,-1.74498 -2.95322,-2.07942 -0.0266,-0.004 -0.0541,-10e-4 -0.0809,-0.002 z"
         id="path2803"
         transform="scale(0.26458333)" class="IC" />
      <path
         style="fill:#0000ff;stroke:#000000;stroke-width:0.0068555"
         d="m 158.77238,521.95551 c -1.05414,1.53443 -1.86673,3.63278 -0.99672,5.43085 0.54401,0.58299 1.37689,-0.13604 1.79126,-0.55648 0.33042,-0.67718 -0.78541,-1.03407 -0.67992,-1.72941 -0.0838,-1.15919 0.13944,-2.38234 0.15505,-3.48184 -0.0899,0.11229 -0.17978,0.22459 -0.26967,0.33688 z"
         id="path2804"
         transform="scale(0.26458333)" class="IC" />
      <path
         style="fill:#0000ff;stroke:#000000;stroke-width:0.0068555"
         d="m 169.78832,528.42941 c -1.348,0.7341 -2.62668,1.93348 -4.28544,1.73163 -0.64478,0.007 -1.56602,-0.34133 -1.48791,0.65414 -0.041,0.33369 -0.4666,1.05762 0.15746,1.04225 1.66301,0.14334 3.33257,-0.58033 4.37258,-1.88739 0.40108,-0.49943 1.08921,-0.95269 1.28374,-1.53983 -0.0128,-0.005 -0.0274,-0.005 -0.0404,-8e-4 z"
         id="path2805"
         transform="scale(0.26458333)" class="IC" />
      <path
         style="fill:#0000ff;stroke:#000000;stroke-width:0.0068555"
         d="m 156.82606,534.36772 c -0.59657,0.16303 -0.46313,1.10159 -0.20299,1.51705 0.58114,0.50471 1.42341,-0.16419 1.96186,-0.37384 -0.54394,-0.40562 -1.04551,-1.0535 -1.75887,-1.14321 z"
         id="path2806"
         transform="scale(0.26458333)" class="IC" />
      <path
         style="fill:#0000ff;stroke:#000000;stroke-width:0.0068555"
         d="m 154.03539,533.82785 c -2.51311,1.04247 -4.95562,2.29448 -7.27514,3.71804 -0.33994,0.11442 -0.74342,0.69137 -0.12479,0.70912 2.39387,0.11107 4.60347,-1.03203 6.78909,-1.84992 0.88275,-0.38202 1.08115,-1.5941 0.84837,-2.42942 -0.0425,-0.0888 -0.1331,-0.16608 -0.23753,-0.14782 z"
         id="path2807"
         transform="scale(0.26458333)" class="IC" />
      <path
         style="fill:#0000ff;stroke:#000000;stroke-width:0.0068555"
         d="m 158.9901,537.63158 c -0.99327,0.077 -1.63667,1.07681 -1.51812,2.02854 6.9e-4,1.66484 -0.0915,3.36534 0.0439,5.00793 0.34771,0.50243 0.41833,1.31486 0.92041,1.67511 0.65219,-0.67004 0.60454,-1.77474 0.81552,-2.64282 0.21978,-1.9108 0.47392,-3.86199 0.2993,-5.78061 -0.0746,-0.23189 -0.34177,-0.30924 -0.56102,-0.28815 z"
         id="path2808"
         transform="scale(0.26458333)" class="IC" />
      <path
         style="fill:#00ff00;stroke:#000000;stroke-width:0.00467486"
         d="m 126.51754,547.69942 c -1.51223,0.31985 -2.8935,1.09819 -4.24108,1.83167 -1.14992,0.70535 -2.37344,1.35083 -3.43244,2.17136 0.90652,0.29082 1.93371,0.42447 2.88307,0.24416 1.16794,-0.60178 2.35769,-1.16306 3.6214,-1.54271 0.68103,-0.26082 1.7354,-0.52385 1.69096,-1.44665 0.001,-0.40792 0.0229,-1.18892 -0.52191,-1.25783 z"
         id="path2809"
         transform="scale(0.26458333)" class="IR" />
      <path
         style="fill:#00ff00;stroke:#000000;stroke-width:0.00467486"
         d="m 131.85291,541.62594 c -0.45267,0.36525 -0.70232,0.98417 -1.09139,1.42532 -0.60485,0.94383 -1.4672,1.83575 -1.63792,2.98183 0.12578,0.86701 0.98242,1.38257 1.63638,1.85917 0.66231,0.48909 1.65494,0.90081 2.35569,0.24087 1.01067,-0.94232 1.6411,-2.21394 2.32611,-3.39603 0.15386,-0.24731 0.35351,-0.69875 -0.0495,-0.82449 -0.5555,-0.0729 -1.10842,-0.22117 -1.55074,-0.605 -0.72417,-0.4762 -1.23427,-1.23793 -1.96819,-1.6813 l -0.0161,-5.5e-4 z"
         id="path2810"
         transform="scale(0.26458333)" class="IR" />
      <path
         style="fill:#00ff00;stroke:#000000;stroke-width:0.00467486"
         d="m 131.57881,534.67191 c -0.56093,0.67887 -0.84743,1.57219 -1.25868,2.35236 -0.5326,1.00485 -0.77669,2.2234 -0.28178,3.29448 0.16247,0.33326 0.33568,1.00326 0.84051,0.82565 0.4269,-0.20154 1.04265,-0.34337 1.2403,-0.81007 -0.27386,-0.81261 -1.23078,-1.35524 -1.0681,-2.32209 0.0565,-1.12169 0.5455,-2.19981 0.58107,-3.31623 -0.0105,-0.0183 -0.0323,-0.0295 -0.0533,-0.0241 z"
         id="path2811"
         transform="scale(0.26458333)" class="IR" />
      <path
         style="fill:#00ff00;stroke:#000000;stroke-width:0.00467486"
         d="m 141.77036,542.25814 c -1.14752,0.47474 -2.12349,1.65844 -3.46998,1.45341 -0.46999,0.0271 -1.04379,-0.30175 -1.46455,-0.0276 -0.23492,0.54692 -0.4621,1.19278 -0.34879,1.78722 0.45764,0.31067 1.08841,0.0373 1.58617,-0.0405 1.60882,-0.41662 3.04542,-1.53924 3.78718,-3.02624 0.0248,-0.0659 -0.004,-0.16211 -0.09,-0.14628 z"
         id="path2812"
         transform="scale(0.26458333)" class="IR" />
      <path
         style="fill:#00ff00;stroke:#000000;stroke-width:0.00467486"
         d="m 129.31223,547.96768 c -0.41814,0.14646 -0.26076,0.75484 -0.30916,1.09914 0.0529,0.28676 -0.0779,0.97899 0.39901,0.89589 0.49567,-0.10091 1.1546,-0.22507 1.39716,-0.71967 0.11891,-0.66983 -0.71715,-0.95335 -1.17967,-1.21163 -0.0973,-0.0378 -0.20137,-0.0729 -0.30734,-0.0637 z"
         id="path2813"
         transform="scale(0.26458333)" class="IR" />
      <path
         style="fill:#00ff00;stroke:#000000;stroke-width:0.00467486"
         d="m 132.0189,551.16795 c -0.54262,0.12623 -1.09031,0.28021 -1.62816,0.39371 -0.43553,0.53952 -0.22555,1.3313 -0.3084,1.97092 -0.003,2.28439 0.0467,4.65727 0.93092,6.797 0.16735,0.32265 0.30108,-0.19801 0.34112,-0.33199 0.67835,-2.39188 0.79261,-4.90169 0.94873,-7.37034 -0.0457,-0.45981 0.14635,-1.03507 -0.12278,-1.43465 -0.0484,-0.0288 -0.1071,-0.029 -0.16143,-0.0246 z"
         id="path2814"
         transform="scale(0.26458333)" class="IR" />
      <path
         style="fill:#ffff00;stroke:#000000;stroke-width:0.00467486"
         d="m 111.27422,569.17054 c -1.47913,0.24092 -2.76875,1.1034 -4.1084,1.72732 -1.05294,0.61171 -2.24787,1.09327 -3.08759,1.99941 -0.16319,0.34405 0.44851,0.41703 0.67365,0.41526 1.56716,0.11186 3.00325,-0.57488 4.40514,-1.16542 0.97643,-0.45415 2.24611,-0.5792 2.90882,-1.51714 0.27307,-0.56442 0.0322,-1.64217 -0.79162,-1.45943 z"
         id="path2815"
         transform="scale(0.26458333)" class="T" />
      <path
         style="fill:#ffff00;stroke:#000000;stroke-width:0.00467486"
         d="m 117.43426,572.28918 c -0.73337,0.20069 -1.68054,0.42248 -1.93568,1.24924 -0.47479,1.5429 -0.36376,3.19453 -0.4138,4.78972 0.0239,1.11137 0.34838,2.26261 1.00363,3.16156 0.33056,0.11871 0.38878,-0.45166 0.4726,-0.65375 0.57336,-2.66632 0.73084,-5.40386 0.96163,-8.11599 -0.0376,-0.10109 0.10843,-0.44479 -0.0884,-0.43078 z"
         id="path2816"
         transform="scale(0.26458333)" class="T" />
      <path
         style="fill:#ffff00;stroke:#000000;stroke-width:0.00467486"
         d="m 114.59483,569.38328 c -0.54742,0.16513 -0.45247,0.92037 -0.44283,1.37068 -0.0216,0.49425 0.57811,0.34034 0.8632,0.23867 0.27748,-0.10614 0.94981,-0.31418 0.6596,-0.71693 -0.26832,-0.35205 -0.59547,-0.85374 -1.07997,-0.89242 z"
         id="path2817"
         transform="scale(0.26458333)" class="T" />
      <path
         style="fill:#ffff00;stroke:#000000;stroke-width:0.00467486"
         d="m 116.97134,562.64874 c -0.89475,1.35664 -2.03697,2.58647 -2.66832,4.09836 -0.31586,0.97265 0.66341,1.65588 1.32174,2.17746 0.64799,0.49392 1.58895,1.06726 2.36373,0.49049 1.14435,-0.8928 1.81842,-2.24074 2.52424,-3.47802 0.17267,-0.27854 0.38792,-0.91692 -0.13715,-0.94684 -1.18323,-0.0314 -2.00289,-1.09079 -2.82258,-1.81904 -0.19777,-0.15444 -0.3653,-0.42408 -0.58166,-0.52241 z"
         id="path2818"
         transform="scale(0.26458333)" class="T" />
      <path
         style="fill:#ffff00;stroke:#000000;stroke-width:0.00467486"
         d="m 116.68939,555.99218 c -0.60439,0.74443 -1.03026,1.65696 -1.42437,2.53593 -0.54366,1.16661 -0.44813,2.50477 0.0144,3.67981 0.0388,0.32252 0.32215,0.75613 0.68005,0.50035 0.53023,-0.34912 1.18413,-0.98109 0.83581,-1.67509 -0.48057,-0.99768 -0.85463,-2.15005 -0.43413,-3.24183 0.0899,-0.59041 0.40478,-1.20063 0.35835,-1.79259 -0.009,-0.006 -0.0198,-0.008 -0.0301,-0.007 z"
         id="path2819"
         transform="scale(0.26458333)" class="T" />
      <path
         style="fill:#ffff00;stroke:#000000;stroke-width:0.00467486"
         d="m 127.36431,563.20352 c -1.39489,0.77886 -2.83755,1.81657 -4.52434,1.6574 -0.70464,-0.15682 -1.37076,0.39378 -1.43975,1.09328 -0.0778,0.27433 -0.15682,0.7792 0.28962,0.71985 0.98775,0.012 2.06207,0.13108 2.98205,-0.29437 0.99195,-0.96634 1.86601,-2.06357 2.73443,-3.14201 0.0105,-0.0254 -0.0219,-0.0433 -0.042,-0.0341 z"
         id="path2820"
         transform="scale(0.26458333)" class="T" />
      <path
         style="fill:#ff6600;stroke:#000000;stroke-width:0.00467486"
         d="m 95.882981,539.40758 c -1.421726,0.73282 -3.076816,1.21514 -4.162815,2.45138 -0.330732,0.67642 0.122904,1.44151 0.38805,2.06862 0.350336,0.61624 0.720653,1.33746 1.383648,1.65464 1.380375,-0.46803 2.778906,-0.9755 4.027683,-1.73955 0.465622,-0.26648 1.013914,-0.92003 0.547469,-1.42693 -1.036305,-0.77163 -1.090196,-2.22039 -1.516772,-3.31495 -0.222421,0.10226 -0.444842,0.20452 -0.667263,0.30679 z"
         id="path2821"
         transform="scale(0.26458333)" class="OR" />
      <path
         style="fill:#ff6600;stroke:#000000;stroke-width:0.00467486"
         d="m 100.1623,533.09889 c -1.204026,0.66744 -2.429625,1.34828 -3.482767,2.24229 -0.800786,0.76096 -1.276314,1.95794 -1.03413,3.04669 0.53931,0.35373 1.562851,0.17577 1.589452,-0.60371 0.04648,-0.93713 0.37358,-1.83665 1.024826,-2.52332 0.61371,-0.74469 1.357832,-1.37801 1.955029,-2.13328 0.005,-0.032 -0.0318,-0.0381 -0.0524,-0.0287 z"
         id="path2822"
         transform="scale(0.26458333)" class="OR" />
      <path
         style="fill:#ff6600;stroke:#000000;stroke-width:0.00467486"
         d="m 99.527727,543.33117 c -0.582537,0.22779 -1.034244,0.7585 -1.379449,1.26386 0.181186,0.36492 0.72914,0.4225 1.068279,0.60389 1.016523,0.42097 2.160463,0.56747 3.213603,0.18864 0.83154,-0.27166 1.7706,-0.5595 2.48589,-0.95049 -1.71144,-0.0508 -3.51844,-0.0907 -5.025839,-1.01167 -0.113464,-0.0503 -0.234587,-0.10992 -0.362484,-0.0942 z"
         id="path2823"
         transform="scale(0.26458333)" class="OR" />
      <path
         style="fill:#ff6600;stroke:#000000;stroke-width:0.00467486"
         d="m 90.562043,543.42558 c -0.455365,0.27019 -0.688343,0.85488 -0.823944,1.35023 -0.0626,0.51515 0.64504,0.47392 0.994138,0.47096 0.281316,-0.0358 0.934486,-0.0699 0.758752,-0.5146 -0.232762,-0.45106 -0.402403,-1.04891 -0.86558,-1.30695 -0.02099,-0.003 -0.04241,-0.003 -0.06337,3.6e-4 z"
         id="path2824"
         transform="scale(0.26458333)" class="OR" />
      <path
         style="fill:#ff6600;stroke:#000000;stroke-width:0.00467486"
         d="m 90.170159,547.22774 c -0.830861,0.17316 -1.31769,1.01009 -1.844378,1.60442 -1.199784,1.65912 -2.38062,3.46674 -2.699183,5.52675 -0.07772,0.29527 0.214316,0.46904 0.427677,0.22789 1.339652,-1.07636 2.28077,-2.56144 3.341245,-3.89601 0.610882,-0.91445 1.440326,-1.7682 1.699201,-2.86354 0.06561,-0.51322 -0.551719,-0.60029 -0.924562,-0.59951 z"
         id="path2825"
         transform="scale(0.26458333)" class="OR" />
      <path
         style="fill:#ff6600;stroke:#000000;stroke-width:0.00467486"
         d="m 83.426128,541.51565 c -1.43031,0.0247 -2.904204,0.14439 -4.247729,0.64863 0.08933,0.25316 0.562035,0.30114 0.779634,0.45906 2.320057,1.07569 4.949379,0.89403 7.390045,1.4507 0.579828,-0.36195 1.083264,-0.9628 1.273717,-1.62835 -0.04839,-0.49184 -0.756645,-0.44097 -1.101149,-0.58984 -1.343104,-0.27999 -2.725698,-0.34315 -4.094518,-0.3402 z"
         id="path2826"
         transform="scale(0.26458333)" class="OR" />
    </g>
    <path
       style="fill:#ffffff;fill-opacity:1;stroke:#000000;stroke-width:0.0064821;stroke-opacity:0"
       d="m 150.688,494.88433 c -1.16704,0.0869 -2.47113,-0.062 -3.52439,0.5168 -0.25886,0.49588 0.62456,0.53821 0.9118,0.68112 0.60784,0.0978 0.9507,0.65121 1.46252,0.8923 1.22537,-0.0267 2.44592,-0.0823 3.65077,0.22877 0.90614,0.17705 2.08777,0.42234 2.71055,-0.47666 0.19587,-0.32341 0.88923,-0.76627 0.56769,-1.15943 -1.81933,-0.68497 -3.85902,-0.64666 -5.77894,-0.6829 z"
       id="path109"
       transform="scale(0.26458333)" class="P" />
    <path
       style="fill:#ffffff;fill-opacity:1;stroke:#000000;stroke-width:0.0064821;stroke-opacity:0"
       d="m 167.65362,487.12101 c -1.90465,0.73041 -3.60745,2.19462 -4.44808,4.06954 -0.21721,0.42247 -0.0489,1.16412 0.56364,0.98345 0.71546,-0.0473 1.75121,-0.26995 1.70737,-1.19437 -0.008,-1.2971 0.71875,-2.44936 1.76637,-3.18155 0.096,-0.14218 0.84858,-0.55467 0.4107,-0.67707 z"
       id="path110"
       transform="scale(0.26458333)" class="P" />
    <path
       style="fill:#ffffff;fill-opacity:1;stroke:#000000;stroke-width:0.0064821;stroke-opacity:0"
       d="m 163.99504,492.97794 c -1.4175,0.30774 -2.73401,1.03368 -3.95408,1.80106 -0.82029,0.48073 -0.80345,1.54787 -0.38538,2.29304 0.38171,0.70936 0.64067,1.78934 1.52177,2.01426 1.43934,-0.18159 2.7429,-0.96762 4.03966,-1.58128 0.51917,-0.21043 1.20741,-0.74777 0.77659,-1.36099 -0.53519,-0.92666 -1.39331,-1.74848 -1.4367,-2.87617 -0.0818,-0.22913 -0.338,-0.31388 -0.56186,-0.28992 z"
       id="path111"
       transform="scale(0.26458333)" class="P" />
    <path
       style="fill:#ffffff;fill-opacity:1;stroke:#000000;stroke-width:0.0064821;stroke-opacity:0"
       d="m 158.3784,497.09533 c -0.50015,0.16547 -1.11119,0.74278 -0.9437,1.31162 0.45756,0.52007 1.2855,0.65923 1.9426,0.64669 0.39876,-0.40524 -0.27651,-1.02384 -0.37373,-1.44404 -0.13288,-0.23106 -0.31621,-0.53746 -0.62517,-0.51427 z"
       id="path112"
       transform="scale(0.26458333)" class="P" />
    <path
       style="fill:#ffffff;fill-opacity:1;stroke:#000000;stroke-width:0.0064821;stroke-opacity:0"
       d="m 158.02923,500.58073 c -1.22144,0.26573 -1.83892,1.56293 -2.58094,2.44446 -0.93052,1.44919 -1.99935,2.94041 -2.29102,4.67065 -0.0683,0.43603 0.45036,0.52919 0.67683,0.21396 1.78324,-1.71336 3.36007,-3.65794 4.71851,-5.72349 0.31975,-0.45414 0.62163,-1.39268 -0.16281,-1.55671 -0.11592,-0.0378 -0.23871,-0.0554 -0.36057,-0.0489 z"
       id="path113"
       transform="scale(0.26458333)" class="P" />
    <path
       style="fill:#ffffff;fill-opacity:1;stroke:#000000;stroke-width:0.0064821;stroke-opacity:0"
       d="m 167.31179,496.96949 c -0.60785,0.11286 -1.11027,0.71537 -1.3663,1.18805 0.82063,0.82534 2.04714,1.17766 3.178,1.29794 1.28656,-0.0523 2.49426,-0.71064 3.54718,-1.38986 -0.0982,-0.35993 -0.70093,0.0419 -0.98903,-0.0446 -1.09239,0.069 -2.35273,0.30259 -3.23978,-0.5406 -0.33338,-0.23481 -0.69674,-0.53334 -1.13007,-0.51097 z"
       id="path114"
       transform="scale(0.26458333)" class="P" />
  </g>
</svg>
