<?xml version="1.0" encoding="UTF-8" standalone="no"?>
<!-- Created with Inkscape (http://www.inkscape.org/) -->

<svg
   width="33.536366mm"
   height="35.32819mm"
   viewBox="0 0 33.536366 35.32819"
   version="1.1"
   id="svg1"
   xmlns="http://www.w3.org/2000/svg"
   xmlns:svg="http://www.w3.org/2000/svg">
  <defs
     id="defs1" />
  <g
     id="layer1"
     transform="translate(-54.090697,-124.95326)">
    <g
       id="g2946">
      <path
         id="path1217"
         style="fill:#000000;stroke-width:0.264583"
         d="m 62.214655,159.13791 c 0,-1.00374 0.0272,-1.14377 0.222382,-1.14529 0.122291,-10e-4 0.345705,-0.0348 0.496491,-0.0753 0.181557,-0.0487 0.363934,0.0162 0.540014,0.19232 0.531919,0.53194 0.202592,1.5365 -0.503713,1.5365 -0.314193,0 -0.373989,0.0508 -0.373989,0.31765 0,0.19765 -0.07199,0.31765 -0.190579,0.31765 -0.155311,0 -0.190606,-0.21177 -0.190606,-1.14355 z m 1.010126,0.0712 c 0.226589,-0.27303 0.116417,-0.88611 -0.168989,-0.9403 -0.410528,-0.0779 -0.63799,0.64021 -0.307473,0.97074 0.198253,0.19823 0.291651,0.19227 0.476462,-0.0304 z m -7.295012,0.18807 c -0.123931,-0.13693 -0.253392,-0.49813 -0.287735,-0.80266 -0.0513,-0.45531 -0.0085,-0.6165 0.241777,-0.90729 0.400605,-0.46576 1.183428,-0.49966 1.534239,-0.0664 0.33065,0.40834 0.06715,0.65467 -0.290116,0.2712 -0.142875,-0.15336 -0.343296,-0.27884 -0.445399,-0.27884 -0.314061,0 -0.693896,0.48687 -0.693896,0.88944 0,0.4003 0.379306,0.88943 0.689768,0.88943 0.197829,0 0.528215,-0.28681 0.608754,-0.52848 0.05567,-0.16697 0.353271,-0.0366 0.353271,0.15479 0,0.0658 -0.114353,0.23392 -0.254132,0.37369 -0.341392,0.34141 -1.149641,0.34427 -1.456531,0.005 z m 2.117619,0.0894 c -0.55372,-0.66722 -0.0164,-1.79482 0.740648,-1.55452 0.945886,0.30021 0.792216,1.71406 -0.186293,1.71406 -0.232066,0 -0.481515,-0.0718 -0.554355,-0.15954 z m 0.900536,-0.36081 c 0.07019,-0.11148 0.08951,-0.35449 0.04294,-0.54001 -0.108559,-0.4326 -0.540465,-0.45372 -0.730912,-0.0357 -0.274346,0.6021 0.34499,1.12042 0.68797,0.57575 z m 0.725514,-0.28968 c 0,-0.80315 0.0034,-0.81068 0.391583,-0.88833 0.215371,-0.0431 0.490035,-0.0256 0.610394,0.0388 0.132477,0.0709 0.29128,0.0712 0.402537,7.9e-4 0.523478,-0.33119 0.882597,0.063 0.882597,0.96896 0,0.52842 -0.04458,0.68977 -0.190606,0.68977 -0.144145,0 -0.190579,-0.15574 -0.190579,-0.6393 0,-0.46896 -0.05421,-0.66009 -0.203412,-0.71735 -0.279135,-0.10711 -0.427646,0.17499 -0.429948,0.81664 -0.0026,0.39444 -0.05334,0.54001 -0.192537,0.54001 -0.146632,0 -0.190606,-0.16339 -0.190606,-0.70816 0,-0.60583 -0.03212,-0.70205 -0.222356,-0.66588 -0.171847,0.0327 -0.231087,0.19351 -0.260773,0.70815 -0.02762,0.47883 -0.09006,0.66589 -0.222356,0.66589 -0.141314,0 -0.183938,-0.18771 -0.183938,-0.81002 z m 4.32009,-0.001 c 0,-0.78351 0.01191,-0.81335 0.348694,-0.87774 0.399971,-0.0765 0.540756,-0.0189 0.540756,0.221 0,0.0929 -0.100066,0.16104 -0.222383,0.15133 -0.181398,-0.0144 -0.22942,0.10516 -0.260746,0.64943 -0.02762,0.47986 -0.09004,0.66708 -0.222356,0.66708 -0.141367,0 -0.183965,-0.18785 -0.183965,-0.8111 z m 1.133713,0.60863 c -0.278527,-0.3356 -0.20992,-1.06698 0.125571,-1.33865 0.389784,-0.31563 0.59608,-0.29987 0.970069,0.0741 0.490802,0.49079 0.411929,0.70461 -0.259901,0.70461 -0.42873,0 -0.571764,0.0487 -0.571764,0.19459 0,0.29811 0.362109,0.37032 0.632036,0.12603 0.330174,-0.29881 0.602007,-0.12295 0.30951,0.20025 -0.268552,0.29675 -0.972714,0.31955 -1.205521,0.039 z m 0.942658,-1.01134 c -0.08739,-0.22773 -0.569304,-0.19909 -0.647542,0.0385 -0.03418,0.1038 0.08205,0.15883 0.335465,0.15883 0.298371,0 0.370338,-0.0455 0.312077,-0.19731 z m 0.750226,1.06714 c -0.198068,-0.19805 -0.206058,-0.48864 -0.01349,-0.48864 0.07964,0 0.214312,0.0951 0.29927,0.21123 0.09149,0.12513 0.23966,0.17855 0.363432,0.13105 0.323955,-0.12431 0.247332,-0.31367 -0.163433,-0.40389 -0.719006,-0.15792 -0.832591,-0.68949 -0.208148,-0.97401 0.256143,-0.11671 0.379756,-0.10222 0.652462,0.0765 0.245957,0.16115 0.298609,0.25827 0.195792,0.36109 -0.102817,0.10282 -0.181636,0.0996 -0.293105,-0.0118 -0.182775,-0.18276 -0.609918,-0.2031 -0.609918,-0.029 0,0.0679 0.181134,0.17036 0.402511,0.22772 0.505089,0.13088 0.730964,0.45088 0.536945,0.76064 -0.168143,0.26846 -0.940594,0.36098 -1.162341,0.13922 z m 1.497647,-0.0998 c -0.167296,-0.31257 0.100462,-0.52452 0.273024,-0.21614 0.140493,0.25105 0.612272,0.27895 0.612272,0.0362 0,-0.0947 -0.185817,-0.22519 -0.412935,-0.28993 -0.314669,-0.0897 -0.422328,-0.19789 -0.452332,-0.45456 -0.04688,-0.40102 0.342186,-0.66939 0.774779,-0.53442 0.435822,0.13596 0.648865,0.56169 0.281094,0.56169 -0.104828,0 -0.190606,-0.0572 -0.190606,-0.12706 0,-0.0699 -0.114353,-0.12707 -0.254106,-0.12707 -0.405077,0 -0.294561,0.22108 0.190579,0.38119 0.368195,0.12151 0.444712,0.20833 0.444712,0.50451 0,0.38867 -0.18505,0.51199 -0.768297,0.51199 -0.232463,0 -0.414496,-0.0901 -0.498184,-0.24642 z m 1.720268,0.0468 c -0.310277,-0.31028 -0.260535,-1.14098 0.08273,-1.3814 0.155311,-0.10879 0.384043,-0.1978 0.508238,-0.1978 0.303292,0 0.734113,0.44741 0.734113,0.76237 0,0.21648 -0.08472,0.25412 -0.571791,0.25412 -0.404019,0 -0.571764,0.0519 -0.571764,0.177 0,0.0973 0.09043,0.21171 0.200977,0.25413 0.26961,0.10346 0.26035,0.1059 0.49694,-0.13072 0.138563,-0.13855 0.250217,-0.16548 0.33491,-0.0808 0.193463,0.19345 -0.225928,0.54274 -0.651642,0.54274 -0.199681,0 -0.452888,-0.0899 -0.562716,-0.19967 z m 0.912124,-0.97566 c -0.0291,-0.0874 -0.186346,-0.15883 -0.349408,-0.15883 -0.163063,0 -0.320305,0.0715 -0.349409,0.15883 -0.03493,0.10477 0.08398,0.15883 0.349409,0.15883 0.265403,0 0.384333,-0.0541 0.349408,-0.15883 z m 0.737818,0.89293 c -0.28628,-0.40871 -0.243496,-0.82702 0.121972,-1.19248 0.219287,-0.21929 0.398966,-0.29464 0.571792,-0.23979 0.206613,0.0656 0.251989,0.0212 0.251989,-0.24623 0,-0.20527 0.07067,-0.32622 0.190606,-0.32622 0.155283,0 0.190579,0.21177 0.190579,1.14356 v 1.14356 h -0.564568 c -0.439367,0 -0.608436,-0.0626 -0.76237,-0.2824 z m 0.796369,-0.0823 c 0.26035,-0.16506 0.140679,-0.95698 -0.153035,-1.01268 -0.410554,-0.0779 -0.63799,0.64025 -0.307472,0.97078 0.179255,0.17925 0.23577,0.18439 0.460507,0.0419 z m 1.420019,0.24849 c 0,-0.0639 0.17653,-0.57852 0.392297,-1.14356 0.529299,-1.38605 0.696701,-1.37095 1.288865,0.11621 0.416084,1.04496 0.434658,1.14356 0.215424,1.14356 -0.149966,0 -0.269849,-0.11912 -0.31967,-0.31766 -0.06747,-0.26881 -0.153643,-0.31765 -0.560414,-0.31765 -0.406797,0 -0.492971,0.0488 -0.56044,0.31765 -0.07384,0.29423 -0.456062,0.46306 -0.456062,0.20145 z m 1.199859,-1.18618 c -0.121497,-0.39527 -0.178647,-0.43489 -0.315384,-0.21868 -0.193966,0.30667 -0.138827,0.50457 0.140573,0.50457 0.213757,0 0.246327,-0.0533 0.174811,-0.28589 z m 1.170463,1.07002 c -0.289322,-0.3197 -0.266858,-0.98167 0.04384,-1.29238 0.283739,-0.28374 0.533082,-0.31778 0.897784,-0.12259 0.290407,0.15542 0.32856,0.50378 0.05519,0.50378 -0.104828,0 -0.190606,-0.0612 -0.190606,-0.1359 0,-0.0748 -0.12864,-0.11763 -0.285882,-0.0953 -0.215371,0.0306 -0.295328,0.13731 -0.324141,0.43261 -0.05191,0.5319 0.265827,0.80892 0.590656,0.51497 0.126497,-0.11448 0.289798,-0.20813 0.362929,-0.20813 0.0731,0 0.166714,-0.16894 0.208015,-0.37542 0.144568,-0.72292 1.041003,-0.97249 1.358979,-0.37835 0.102262,0.19111 0.08983,0.24552 -0.05617,0.24552 -0.103161,0 -0.222911,-0.0572 -0.266091,-0.12706 -0.156422,-0.25306 -0.565547,-0.13264 -0.646615,0.1903 -0.151236,0.60262 0.329776,1.09036 0.647223,0.65624 0.166397,-0.22758 0.444104,-0.28589 0.444104,-0.0932 0,0.2397 -0.410157,0.51733 -0.764249,0.51733 -0.233045,0 -0.436378,-0.10205 -0.56269,-0.2824 l -0.197802,-0.2824 -0.197803,0.2824 c -0.24421,0.34866 -0.822933,0.37459 -1.116674,0.05 z m 3.109648,0.0614 c -0.07802,-0.094 -0.177191,-0.34753 -0.220345,-0.56336 -0.06281,-0.31408 -0.01349,-0.45751 0.247597,-0.71849 0.394891,-0.39489 0.582401,-0.40643 1.019334,-0.0627 0.636138,0.50039 0.312764,1.51553 -0.482759,1.51553 -0.232092,0 -0.485801,-0.0769 -0.563827,-0.17094 z m 0.909982,-0.34941 c 0.07019,-0.11148 0.08953,-0.35449 0.04297,-0.54001 -0.108585,-0.4326 -0.540491,-0.45372 -0.730938,-0.0357 -0.27432,0.6021 0.345017,1.12042 0.68797,0.57575 z m 0.725514,-0.29075 c 0,-0.78351 0.01191,-0.81335 0.348694,-0.87774 0.399971,-0.0765 0.540729,-0.0189 0.540729,0.221 0,0.0929 -0.100065,0.16104 -0.222356,0.15133 -0.181425,-0.0144 -0.22942,0.10516 -0.260747,0.64943 -0.02765,0.47986 -0.09004,0.66708 -0.222382,0.66708 -0.14134,0 -0.183938,-0.18785 -0.183938,-0.8111 z m 1.087225,0.5287 c -0.271356,-0.38741 -0.247914,-0.76319 0.07308,-1.17125 0.205714,-0.26152 0.343271,-0.3262 0.571791,-0.26884 0.256831,0.0645 0.300885,0.0287 0.300885,-0.24455 0,-0.19981 0.07162,-0.32008 0.190605,-0.32008 0.155284,0 0.19058,0.21177 0.19058,1.14356 v 1.14356 h -0.564568 c -0.439367,0 -0.608436,-0.0626 -0.762371,-0.2824 z m 0.79637,-0.0823 c 0.26035,-0.16506 0.140679,-0.95698 -0.153035,-1.01268 -0.410554,-0.0779 -0.63799,0.64025 -0.307472,0.97078 0.179255,0.17925 0.23577,0.18439 0.460507,0.0419 z m 0.911754,-0.46121 c 0,-0.64942 0.04075,-0.8259 0.190606,-0.8259 0.14986,0 0.190579,0.17648 0.190579,0.8259 0,0.64943 -0.04072,0.82591 -0.190579,0.82591 -0.14986,0 -0.190606,-0.17648 -0.190606,-0.82591 z m 0.706067,0.54351 c -0.284506,-0.40619 -0.244052,-0.82648 0.114062,-1.18459 0.380524,-0.38051 0.571394,-0.38973 1.005152,-0.0485 0.640318,0.50367 0.31242,1.51553 -0.49112,1.51553 -0.300619,0 -0.489929,-0.0851 -0.628094,-0.2824 z m 0.98261,-0.23795 c 0.07019,-0.11148 0.08858,-0.3582 0.04088,-0.54826 -0.06519,-0.25978 -0.153353,-0.33564 -0.35515,-0.30556 -0.404654,0.0603 -0.565283,0.39795 -0.381397,0.80157 0.166502,0.36543 0.483473,0.38924 0.695669,0.0523 z m 0.725514,-0.31113 c 0,-0.59672 0.04485,-0.82287 0.158829,-0.80099 0.08734,0.0168 0.291571,-0.0145 0.453813,-0.0694 0.491728,-0.16652 0.785045,0.21559 0.785045,1.02273 0,0.50808 -0.04636,0.67915 -0.183964,0.67915 -0.132318,0 -0.194734,-0.18722 -0.222356,-0.66708 -0.03278,-0.56957 -0.07557,-0.66708 -0.292524,-0.66708 -0.216984,0 -0.259741,0.0975 -0.292523,0.66708 -0.02765,0.47986 -0.09004,0.66708 -0.222382,0.66708 -0.141817,0 -0.183938,-0.19044 -0.183938,-0.83148 z m -2.414191,-1.26505 c 0,-0.10482 0.08578,-0.19059 0.190606,-0.19059 0.104828,0 0.190579,0.0858 0.190579,0.19059 0,0.10483 -0.08575,0.1906 -0.190579,0.1906 -0.104828,0 -0.190606,-0.0858 -0.190606,-0.1906 z m -2.873693,-2.15284 c -0.04268,-0.1112 0.08543,-0.51353 0.284666,-0.89407 0.415501,-0.79358 0.333772,-1.05798 -0.257493,-0.83318 -0.244051,0.0928 -0.423995,0.0904 -0.607986,-0.008 -0.223679,-0.11971 -0.250296,-0.22035 -0.184705,-0.69886 0.06884,-0.50225 0.05043,-0.559 -0.181372,-0.559 -0.293423,0 -1.027959,0.34936 -1.157499,0.55052 -0.05969,0.0927 -0.186638,0.0881 -0.412936,-0.015 -0.27559,-0.12557 -0.32676,-0.23258 -0.32676,-0.68343 0,-0.34379 0.08475,-0.62816 0.23749,-0.79686 0.254714,-0.28135 0.446087,-1.43985 0.281755,-1.70572 -0.15248,-0.24674 -1.326409,-0.0421 -1.811497,0.31581 -0.48969,0.36128 -1.127495,0.39242 -1.419886,0.0693 -0.278104,-0.3073 -0.267282,-0.42597 0.106019,-1.16266 0.334274,-0.65964 0.312261,-1.10213 -0.04681,-0.9418 -0.113295,0.0506 -0.377508,0.0968 -0.587164,0.1026 -0.373274,0.0104 -0.381185,-0.002 -0.381185,-0.61409 0,-0.38035 -0.06093,-0.64503 -0.155786,-0.67665 -0.0857,-0.0286 -0.439844,0.10267 -0.78703,0.29162 -0.347186,0.18896 -0.721042,0.30909 -0.830845,0.26696 -0.484055,-0.18575 -0.518715,-1.26414 -0.05413,-1.68458 0.183806,-0.16636 0.239527,-0.39358 0.239527,-0.97695 v -0.76018 l -0.727128,0.0855 c -0.440902,0.0518 -0.828543,0.18004 -0.984726,0.32573 -0.552265,0.51511 -1.290479,0.48038 -1.656265,-0.0779 -0.205714,-0.31393 -0.201057,-0.35148 0.115675,-0.93344 0.493528,-0.90674 0.410898,-1.29092 -0.216164,-1.00521 -0.624073,0.28435 -1.061852,-0.27044 -0.718952,-0.91113 0.227806,-0.42568 -0.222277,-0.45581 -0.968957,-0.0649 -0.527209,0.27602 -0.719852,0.3213 -0.917337,0.2156 -0.486357,-0.26029 -0.489929,-1.03303 -0.0077,-1.65061 0.16547,-0.21187 0.236643,-0.51342 0.236643,-1.00238 v -0.69935 l -0.774488,0.0702 c -0.559065,0.0507 -0.843174,0.14395 -1.021451,0.3353 -0.177165,0.19018 -0.40296,0.26507 -0.799147,0.26507 -0.453628,0 -0.59063,-0.0586 -0.767398,-0.32838 -0.207142,-0.31617 -0.202168,-0.35321 0.134118,-0.99549 0.429127,-0.81962 0.365416,-1.14211 -0.187537,-0.94935 -0.702601,0.24493 -1.1244,-0.25443 -0.771657,-0.91356 0.229023,-0.42793 -0.223176,-0.45534 -0.979435,-0.0594 -0.554037,0.29007 -0.712629,0.32599 -0.868415,0.19669 -0.279903,-0.2323 -0.246327,-1.13103 0.05427,-1.45304 0.171979,-0.18422 0.257095,-0.48926 0.285882,-1.02468 l 0.04101,-0.76237 -0.757978,0.0353 c -0.532553,0.0248 -0.834893,0.10706 -1.016503,0.27647 -0.515196,0.48057 -1.46558,0.483 -1.46558,0.004 0,-0.37074 0.723689,-0.82945 1.880712,-1.19206 0.580152,-0.18182 1.112731,-0.33059 1.183534,-0.33059 0.07078,0 0.278527,-0.17807 0.461671,-0.39572 0.27522,-0.32707 0.327263,-0.50369 0.299958,-1.01798 -0.0286,-0.53876 0.02328,-0.69347 0.387271,-1.15293 0.231167,-0.29187 0.42127,-0.61904 0.42246,-0.72704 0.0029,-0.26997 0.429075,-0.3312 0.527103,-0.0757 0.04461,0.11623 -0.06747,0.47707 -0.255455,0.82245 -0.184203,0.33844 -0.299799,0.7069 -0.256858,0.81879 0.09239,0.24076 0.07128,0.2377 0.504111,0.0731 0.188489,-0.0717 0.45675,-0.0941 0.596133,-0.0499 0.222091,0.0705 0.244316,0.15731 0.179784,0.70207 -0.06556,0.55377 -0.04699,0.62165 0.170207,0.62165 0.30226,0 1.141888,-0.39101 1.141888,-0.53178 0,-0.20933 0.503423,-0.0958 0.630846,0.14224 0.219949,0.411 0.157295,1.11801 -0.122184,1.37837 -0.17743,0.16532 -0.27895,0.47817 -0.337767,1.04092 l -0.08411,0.80456 0.794411,-0.072 c 0.559223,-0.0507 0.877941,-0.15052 1.07659,-0.33713 0.426508,-0.40068 1.25005,-0.36665 1.531752,0.0633 0.207169,0.31616 0.202195,0.3532 -0.134091,0.99548 -0.427037,0.81563 -0.366024,1.13886 0.176371,0.93414 0.675746,-0.25507 1.074606,0.13596 0.821823,0.8057 -0.19902,0.52722 0.189468,0.60416 0.938053,0.18577 0.69596,-0.38898 0.828622,-0.40034 1.105244,-0.0947 0.295408,0.32642 0.267415,1.02458 -0.05482,1.36759 -0.186532,0.19857 -0.286412,0.51734 -0.337053,1.07586 l -0.07197,0.79367 0.793671,-0.072 c 0.558535,-0.0506 0.877279,-0.15051 1.075875,-0.33706 0.426482,-0.40067 1.250051,-0.36665 1.531752,0.0633 0.207169,0.31617 0.202169,0.35321 -0.13409,0.99549 -0.37682,0.71968 -0.356103,1.19456 0.04453,1.02056 0.729774,-0.31698 1.210442,0.0389 0.957527,0.70901 -0.212302,0.56243 0.09543,0.63311 0.906806,0.20829 0.762635,-0.39928 0.78957,-0.40254 1.063414,-0.1287 0.292761,0.29275 0.253497,1.12431 -0.06982,1.47938 -0.315171,0.34615 -0.45765,1.42383 -0.219657,1.6618 0.25109,0.25109 1.398138,0.0644 1.718733,-0.27968 0.330518,-0.35478 1.131994,-0.37956 1.435312,-0.0444 0.277627,0.30676 0.268155,0.39445 -0.116761,1.08316 -0.383196,0.68563 -0.337184,1.19108 0.08774,0.96366 0.138536,-0.0741 0.406294,-0.11698 0.595022,-0.0952 0.31869,0.0368 0.34208,0.0803 0.328454,0.61138 -0.0082,0.31447 0.04535,0.61027 0.118771,0.65732 0.0734,0.047 0.423069,-0.067 0.777055,-0.2534 0.353986,-0.18642 0.682916,-0.35713 0.730938,-0.37937 0.184838,-0.0856 0.611505,0.50068 0.611505,0.84019 0,0.19608 -0.142955,0.55026 -0.317659,0.78706 -0.24728,0.33517 -0.317659,0.58393 -0.317659,1.12282 v 0.69225 l 0.785098,-0.0821 c 0.544724,-0.0569 0.857435,-0.15972 1.021451,-0.33575 0.261408,-0.2806 1.287462,-0.36299 1.440312,-0.11566 0.04694,0.0759 -0.09618,0.3253 -0.318003,0.55416 -0.299058,0.30854 -0.688684,0.50321 -1.507252,0.753 -0.607165,0.18528 -1.178163,0.33616 -1.268862,0.33528 -0.09072,-8e-4 -0.303318,0.15563 -0.472466,0.34781 -0.241962,0.2749 -0.308425,0.49456 -0.311574,1.02997 -0.0034,0.57209 -0.06948,0.76323 -0.414813,1.19923 -0.225928,0.28527 -0.411771,0.60705 -0.412962,0.71505 -0.0029,0.2671 -0.428572,0.33248 -0.525198,0.0807 z m 1.151785,-1.46842 c 0.03635,-0.10483 0.02408,-0.34355 -0.0272,-0.5305 -0.08316,-0.30307 -0.118453,-0.32141 -0.325675,-0.16924 -0.188331,0.13829 -0.20574,0.2205 -0.09181,0.43339 0.111893,0.20905 0.08543,0.37346 -0.129487,0.80455 l -0.270113,0.54182 0.389096,-0.44471 c 0.214022,-0.2446 0.418862,-0.53048 0.45519,-0.63531 z m 0.112262,-1.37579 c 0.532395,-0.54522 0.52332,-0.7273 -0.05776,-1.15689 l -0.38444,-0.28423 -0.512048,0.53828 -0.512048,0.53827 0.331867,0.20135 c 0.182509,0.11075 0.363855,0.3022 0.40296,0.42547 0.101362,0.31938 0.196983,0.2851 0.731467,-0.26225 z m -2.011733,-0.34795 c 0.344144,0.0646 0.425027,0.0344 0.480907,-0.17935 0.05855,-0.22391 0.0074,-0.2563 -0.397378,-0.2518 -0.331972,0.004 -0.591555,0.11621 -0.90932,0.39417 l -0.444711,0.38901 0.428387,-0.21483 c 0.280193,-0.1405 0.571526,-0.18797 0.842115,-0.1372 z m -0.952261,-0.92618 c 0.341312,-1.08708 0.331284,-1.289 -0.06411,-1.289 -0.286755,0 -0.317659,0.0503 -0.317659,0.5166 0,0.28413 -0.05487,0.61916 -0.121973,0.74451 -0.15359,0.28701 -0.01879,1.24967 0.140759,1.00403 0.06019,-0.0927 0.22352,-0.532 0.362983,-0.97614 z m 1.17729,0.2557 c 0.823145,0.0651 1.271825,-0.35795 1.474999,-1.39073 0.08533,-0.43366 0.244025,-1.00307 0.352689,-1.26536 l 0.197591,-0.47689 -0.307393,0.28589 c -0.236617,0.22008 -0.458787,0.28589 -0.965147,0.28589 -0.566896,0 -0.708686,0.0533 -1.026319,0.38563 -0.244713,0.25608 -0.397642,0.5798 -0.455189,0.96356 -0.04765,0.31786 -0.165523,0.80143 -0.261884,1.07459 l -0.175234,0.49666 0.307367,-0.20141 c 0.197114,-0.12914 0.505116,-0.18577 0.85852,-0.15783 z m 4.020026,-0.0874 c 0.559911,-0.17686 1.048279,-0.37058 1.085294,-0.43048 0.09562,-0.15469 -0.712946,-0.25651 -0.969989,-0.12216 -0.117713,0.0615 -0.35605,0.11185 -0.529643,0.11185 -0.508344,0 -0.717576,0.13364 -0.717576,0.45831 0,0.16724 0.02566,0.30406 0.05697,0.30406 0.03135,0 0.515064,-0.14471 1.074949,-0.32158 z m -1.640152,-0.18666 c 0,-0.16942 -0.08472,-0.25413 -0.254133,-0.25413 -0.288025,0 -0.325649,0.13177 -0.101652,0.35578 0.224022,0.22401 0.355785,0.18636 0.355785,-0.10165 z m -0.255217,-0.76237 c 0.177985,0 0.40841,-1.68632 0.278183,-2.03584 -0.10467,-0.28094 -0.153221,-0.20133 -0.451327,0.74001 -0.391107,1.23508 -0.414946,1.48113 -0.133032,1.37295 0.110543,-0.0424 0.248311,-0.0771 0.306176,-0.0771 z m -4.919531,-0.96873 c 0.481886,-0.066 0.594519,-0.13364 0.660453,-0.39635 0.04371,-0.17419 0.06242,-0.3334 0.04154,-0.35379 -0.03744,-0.0366 -1.668383,0.46016 -2.101956,0.64017 -0.188463,0.0782 -0.163909,0.11806 0.158062,0.25626 0.23286,0.0999 0.435637,0.1188 0.521071,0.0485 0.07694,-0.0633 0.40132,-0.15097 0.72083,-0.19476 z m 1.55075,-0.3049 c -0.177747,-0.19641 -0.256937,-0.21891 -0.335386,-0.0953 -0.173011,0.27261 -0.120756,0.35242 0.230743,0.35242 0.330623,0 0.332687,-0.005 0.104643,-0.25713 z m -2.861337,-1.23693 c 0.0048,-0.50102 -0.0127,-0.52988 -0.237199,-0.38973 -0.183356,0.11451 -0.226483,0.24919 -0.177165,0.55319 0.03974,0.2449 -0.01958,0.57079 -0.151791,0.83445 l -0.217011,0.43262 0.38899,-0.44472 c 0.300276,-0.34325 0.390181,-0.56816 0.394176,-0.98581 z m 1.513629,0.67931 c 1.082833,-0.29903 1.40454,-0.66211 1.409938,-1.59124 0.0032,-0.53059 0.06805,-0.75881 0.280299,-0.98473 0.320914,-0.34159 0.192617,-0.37085 -0.449553,-0.10253 -0.252148,0.10535 -0.759434,0.25429 -1.12731,0.33098 -0.434711,0.0906 -0.806715,0.2704 -1.062567,0.51355 -0.358299,0.34048 -0.388355,0.42969 -0.334354,0.99188 0.05091,0.52979 0.0095,0.6831 -0.290645,1.07666 l -0.350043,0.45891 0.557318,-0.23495 c 0.30652,-0.12922 0.921623,-0.33556 1.366917,-0.45853 z m 2.499069,0.17425 c 0.413676,-0.42366 0.46818,-0.53442 0.311679,-0.63337 -0.104325,-0.066 -0.233812,-0.1208 -0.287708,-0.12187 -0.05392,-10e-4 -0.161105,-0.14037 -0.238178,-0.30954 -0.175048,-0.38418 -0.351975,-0.31912 -0.863626,0.31755 l -0.403808,0.5025 0.379095,0.37908 c 0.208492,0.2085 0.429049,0.37909 0.490115,0.37909 0.06109,0 0.336682,-0.23105 0.612431,-0.51344 z m 1.842108,-0.50838 0.439923,-0.3865 -0.430557,0.20827 c -0.255772,0.12373 -0.577109,0.17896 -0.791633,0.13606 -0.275722,-0.0551 -0.392774,-0.013 -0.495115,0.17823 -0.122502,0.22892 -0.09229,0.25045 0.351711,0.25045 0.360098,0 0.599572,-0.1 0.925671,-0.38651 z m -5.760402,-1.29022 c 0.491357,-0.47624 0.518186,-0.67903 0.142742,-1.07868 -0.385074,-0.40988 -0.612827,-0.36642 -1.08966,0.20791 -0.464158,0.55912 -0.493103,0.64157 -0.225266,0.64157 0.103214,0 0.281305,0.14294 0.39579,0.31765 0.114486,0.17471 0.241724,0.31765 0.282761,0.31765 0.04106,0 0.263181,-0.18275 0.493633,-0.4061 z m 3.477604,-0.14172 c -0.0717,-0.18861 -0.05038,-0.43064 0.06144,-0.69652 0.218546,-0.5198 0.151474,-0.51499 -0.255297,0.0183 -0.252253,0.33075 -0.307022,0.51424 -0.245427,0.82227 0.06763,0.33814 0.113877,0.378 0.314246,0.27077 0.181821,-0.0973 0.210079,-0.19112 0.125042,-0.41481 z m -5.40348,-0.23504 c 0.324829,0.148 0.43897,0.0818 0.43897,-0.25481 0,-0.42039 -0.750173,-0.29005 -1.334161,0.23181 l -0.508238,0.45419 0.558456,-0.28087 c 0.437647,-0.22011 0.620421,-0.25263 0.844973,-0.15032 z m -0.906039,-1.3353 c 0.260112,-1.00388 0.257043,-1.03377 -0.09935,-0.96564 -0.259424,0.0496 -0.318796,0.16619 -0.431721,0.84763 -0.07202,0.43457 -0.09991,0.95238 -0.06199,1.1507 l 0.06892,0.36059 0.161343,-0.30794 c 0.08874,-0.16937 0.25199,-0.65777 0.362798,-1.08534 z m 0.386953,0.79737 c 0.197512,-0.10247 0.538639,-0.15138 0.808673,-0.11594 0.725408,0.0952 1.1294,-0.41349 1.503415,-1.89313 0.163777,-0.64784 0.297762,-1.19456 0.297762,-1.21493 0,-0.0204 -0.167693,0.087 -0.372666,0.23849 -0.290195,0.21455 -0.480007,0.25891 -0.857673,0.20046 -0.756523,-0.1171 -1.195943,0.35442 -1.462564,1.56938 -0.114432,0.52151 -0.247597,1.04825 -0.29591,1.17055 -0.106124,0.26858 -0.06191,0.27385 0.378963,0.0451 z m 4.524481,-0.15422 c 0.379571,-0.11242 0.861668,-0.29632 1.071324,-0.40868 l 0.381185,-0.20427 -0.444711,-0.0745 c -0.244607,-0.0409 -0.501888,-0.0358 -0.571791,0.0115 -0.06988,0.0473 -0.393594,0.12445 -0.719349,0.17156 -0.543455,0.0786 -0.741866,0.23694 -0.741866,0.59211 0,0.16594 0.237226,0.14564 1.025208,-0.0877 z m -1.440392,-0.50727 c -0.04064,-0.0406 -0.196744,-0.0349 -0.346868,0.0127 -0.264028,0.0838 -0.265483,0.0949 -0.04445,0.33916 0.227779,0.25172 0.228917,0.25167 0.346895,-0.0127 0.06509,-0.14589 0.08509,-0.29851 0.04442,-0.33916 z m -0.02223,-1.2578 c 0.163169,-0.8109 0.10541,-1.74041 -0.0894,-1.43924 -0.14912,0.23049 -0.616876,1.79655 -0.616876,2.06532 0,0.15108 0.08443,0.2051 0.276436,0.17689 0.227436,-0.0334 0.303636,-0.17576 0.429842,-0.80297 z m -5.407554,-0.27818 c 0.854551,-0.14769 0.889423,-0.16731 0.889423,-0.50021 0,-0.24861 -0.04937,-0.30988 -0.202406,-0.25116 -0.11131,0.0427 -0.354303,0.11332 -0.540014,0.15691 -0.185685,0.0436 -0.623491,0.19977 -0.972926,0.34707 l -0.635291,0.26783 0.381185,0.0817 c 0.209656,0.0449 0.466937,0.0527 0.571765,0.0172 0.104827,-0.0355 0.333533,-0.0892 0.508264,-0.11936 z m 0.381185,-0.86425 c 0.499772,-0.12801 0.963877,-0.34244 1.175306,-0.54306 0.302048,-0.28657 0.349435,-0.43033 0.349435,-1.06037 0,-0.59873 0.05871,-0.79864 0.328957,-1.11978 0.386397,-0.45923 0.374041,-0.4637 -0.41955,-0.15216 -0.334539,0.13133 -0.932207,0.31088 -1.328129,0.39901 -0.941441,0.20953 -1.312783,0.66096 -1.313868,1.59723 0,0.54765 -0.0639,0.71865 -0.412935,1.11621 -0.226722,0.25821 -0.412221,0.48773 -0.412221,0.51004 0,0.0223 0.271595,-0.0891 0.603541,-0.24751 0.331946,-0.15844 0.975201,-0.38326 1.429464,-0.49961 z m 1.524741,0.72312 c 0,-0.1315 -0.275087,-0.4066 -0.406611,-0.4066 -0.05591,0 -0.101653,0.11436 -0.101653,0.25413 0,0.16941 0.08472,0.25412 0.254132,0.25412 0.139779,0 0.254132,-0.0457 0.254132,-0.10165 z m 1.068811,-0.61556 0.369967,-0.44474 -0.325358,-0.30169 c -0.178964,-0.16593 -0.352584,-0.37621 -0.385869,-0.46728 -0.04035,-0.11051 -0.234844,0.002 -0.584623,0.33667 -0.288263,0.27625 -0.524113,0.55044 -0.524113,0.60932 0,0.20228 0.623914,0.7308 0.851879,0.72163 0.125492,-0.005 0.394626,-0.2093 0.598117,-0.45391 z m -3.994653,-0.90283 c 0.0034,-0.41627 -0.0694,-0.47455 -0.423333,-0.33874 -0.156422,0.06 -0.16637,0.13352 -0.05199,0.38455 0.111813,0.24541 0.09618,0.40934 -0.0748,0.78346 l -0.216191,0.47312 0.381449,-0.44472 c 0.251222,-0.2929 0.382614,-0.58569 0.384863,-0.85767 z m 5.792735,0.46108 0.373168,-0.39659 -0.423518,0.21473 c -0.329724,0.16717 -0.505646,0.18612 -0.794147,0.0855 -0.203835,-0.0711 -0.370602,-0.0797 -0.370602,-0.0191 0,0.0605 -0.03471,0.20051 -0.07713,0.31105 -0.06223,0.16221 0.01905,0.20098 0.420952,0.20098 0.393303,0 0.57658,-0.0834 0.871273,-0.39659 z m -2.255203,-1.44688 c -0.08988,-0.19726 -0.06842,-0.41295 0.0767,-0.77167 l 0.201454,-0.49788 -0.377984,0.44472 c -0.368247,0.43327 -0.462174,0.79409 -0.309986,1.19071 0.05916,0.15414 0.123005,0.16492 0.304694,0.0515 0.180658,-0.11281 0.203174,-0.20217 0.105119,-0.41733 z m -3.507713,-0.0247 c 0.560361,-0.54718 0.575283,-0.62075 0.205581,-1.01428 -0.37928,-0.40372 -0.616982,-0.37012 -1.128263,0.15949 l -0.437885,0.45357 0.349435,0.25587 c 0.192167,0.14072 0.349409,0.33686 0.349409,0.43586 0,0.27992 0.140891,0.21807 0.661723,-0.29051 z m -1.899761,-0.32909 c 0.251804,0.11473 0.31369,0.0908 0.436139,-0.16866 0.138377,-0.29321 0.126471,-0.30236 -0.393356,-0.30236 -0.433811,0 -0.607245,0.0749 -0.909267,0.39252 l -0.373169,0.39252 0.473102,-0.22386 c 0.364543,-0.17249 0.540464,-0.19318 0.766551,-0.0902 z m -0.975016,-1.45758 c 0.237013,-0.86237 0.20992,-0.9863 -0.188146,-0.85996 -0.19886,0.0631 -0.280088,0.23156 -0.343984,0.7133 -0.04601,0.34687 -0.125281,0.65639 -0.176134,0.68782 -0.05085,0.0314 -0.02902,0.26166 0.04853,0.51162 l 0.14097,0.45448 0.149992,-0.35565 c 0.08252,-0.19561 0.248471,-0.71383 0.368777,-1.15161 z m 1.097624,0.75187 c 0.860186,0.0681 1.301247,-0.36776 1.570566,-1.5519 0.115173,-0.50633 0.294243,-1.12627 0.39796,-1.37764 l 0.188595,-0.45704 -0.368961,0.34942 c -0.297842,0.28205 -0.490115,0.35042 -0.997321,0.35458 -0.847513,0.007 -1.384591,0.45377 -1.519132,1.26378 -0.0521,0.31356 -0.173169,0.79246 -0.269054,1.06424 -0.271039,0.76824 -0.232437,0.94227 0.132873,0.59906 0.244105,-0.22932 0.421667,-0.27954 0.864474,-0.2445 z m 3.921574,-0.0325 c 0.44831,-0.14694 0.929482,-0.3294 1.069261,-0.40547 0.232251,-0.1264 0.215847,-0.14643 -0.190606,-0.23263 -0.246565,-0.0523 -0.498501,-0.0415 -0.565414,0.0243 -0.06641,0.0652 -0.266515,0.11938 -0.444712,0.12034 -0.628359,0.003 -0.8958,0.14004 -0.8958,0.4578 0,0.36826 0.01138,0.36866 1.027271,0.0357 z m -1.583293,-0.45829 c -0.0376,-0.0376 -0.164333,-0.0315 -0.281702,0.0136 -0.19595,0.0752 -0.193807,0.10361 0.02619,0.34822 l 0.239633,0.26635 0.04204,-0.27991 c 0.02302,-0.15395 0.01138,-0.31065 -0.02619,-0.34822 z m -0.04948,-0.72113 c 0.05136,-0.0779 0.09425,-0.3027 0.0953,-0.49947 0,-0.19678 0.05445,-0.45589 0.118639,-0.57581 0.06416,-0.11992 0.07509,-0.41634 0.02434,-0.65872 -0.08411,-0.40102 -0.104511,-0.41781 -0.226801,-0.18657 -0.1465,0.27702 -0.479716,1.31186 -0.606716,1.88431 -0.07305,0.32926 -0.05527,0.3519 0.211085,0.26876 0.159967,-0.0499 0.332872,-0.15456 0.384201,-0.2325 z m -5.811123,-0.71348 c 0.04318,-0.0699 0.232384,-0.12784 0.420449,-0.12879 0.646139,-0.003 0.913686,-0.13734 0.913686,-0.45781 0,-0.16656 -0.04773,-0.30283 -0.106071,-0.30283 -0.173488,0 -1.715479,0.52279 -1.990434,0.67484 -0.237887,0.13154 -0.229765,0.14599 0.127053,0.22605 0.209655,0.047 0.420687,0.0923 0.468974,0.10057 0.04831,0.008 0.123137,-0.0421 0.166343,-0.11203 z m 0,-0.73454 c 0.419312,-0.14248 0.965941,-0.29712 1.214755,-0.34365 0.694425,-0.12987 1.134454,-0.75705 1.099688,-1.56747 -0.02196,-0.5097 0.02992,-0.69832 0.258551,-0.94173 0.395022,-0.42055 0.358325,-0.49589 -0.140071,-0.28765 -0.234288,0.0979 -0.82034,0.27536 -1.302385,0.39438 -1.175491,0.29024 -1.597898,0.73679 -1.493864,1.57922 0.0648,0.52473 0.03027,0.62522 -0.386291,1.12381 -0.4903,0.58684 -0.596742,0.8114 -0.235109,0.49604 0.12229,-0.10665 0.565414,-0.31048 0.984726,-0.45295 z m 2.276607,0.4974 c 0.03741,-0.0605 -0.04498,-0.21235 -0.183091,-0.33735 -0.244131,-0.22094 -0.251116,-0.21788 -0.251116,0.11008 0,0.32641 0.281781,0.4739 0.434207,0.22727 z m 1.052724,-0.55015 c 0.230453,-0.22337 0.418995,-0.44768 0.418995,-0.49848 0,-0.0508 -0.180473,-0.27282 -0.401029,-0.49338 l -0.401029,-0.40103 -0.51517,0.51519 -0.515171,0.51518 0.368194,0.38431 c 0.202486,0.21137 0.426244,0.38432 0.497205,0.38432 0.07094,0 0.317553,-0.18275 0.548005,-0.40611 z m -3.901122,-1.01582 c 0,-0.46022 -0.01164,-0.47318 -0.30771,-0.33836 -0.269108,0.12263 -0.290248,0.17846 -0.168646,0.44536 0.108744,0.23868 0.09237,0.40823 -0.07525,0.77828 l -0.21426,0.47312 0.382932,-0.43992 c 0.28022,-0.32192 0.382931,-0.56828 0.382931,-0.91848 z m 5.81496,0.47304 0.474609,-0.44065 -0.531468,0.2591 c -0.412645,0.20117 -0.588301,0.22867 -0.785786,0.12299 -0.338297,-0.18106 -0.358008,-0.17602 -0.432965,0.11065 -0.08321,0.31817 -0.0037,0.38855 0.439103,0.38855 0.236987,0 0.525674,-0.15207 0.836507,-0.44064 z m -5.306695,-2.0229 c 0,-0.2077 -0.538348,-0.71301 -0.759593,-0.71301 -0.113903,0 -0.396293,0.19524 -0.627565,0.43386 l -0.420529,0.43386 0.427355,0.43997 0.427355,0.43996 0.476488,-0.4549 c 0.26207,-0.25019 0.476489,-0.51107 0.476489,-0.57974 z m 2.967963,0.99165 c 0.156422,-0.06 0.16637,-0.13352 0.05199,-0.38456 -0.111628,-0.24503 -0.09631,-0.4099 0.07287,-0.78345 l 0.214286,-0.47312 -0.382931,0.43992 c -0.259028,0.29756 -0.382958,0.57509 -0.382958,0.85766 0,0.42102 0.0726,0.47945 0.426746,0.34355 z m -5.349557,-0.72539 c 0.251777,0.11473 0.313663,0.0908 0.436112,-0.16866 0.138377,-0.29321 0.126471,-0.30236 -0.393356,-0.30236 -0.43381,0 -0.607245,0.0749 -0.90924,0.39252 l -0.373195,0.39252 0.473101,-0.22386 c 0.36457,-0.17248 0.540465,-0.19317 0.766578,-0.0902 z m -1.104953,-0.40624 c 0.101917,-0.24391 0.266515,-0.79168 0.365813,-1.21727 0.160284,-0.68705 0.158988,-0.76554 -0.01164,-0.70009 -0.105648,0.0405 -0.273182,0.0737 -0.372295,0.0737 -0.125995,0 -0.180181,0.15535 -0.180181,0.5166 0,0.28413 -0.05035,0.6129 -0.111866,0.7306 -0.105701,0.20225 -0.04993,1.03991 0.06924,1.03991 0.03056,0 0.138959,-0.19956 0.240877,-0.44347 z m 1.299898,-0.28776 c 0.737817,0.099 1.22383,-0.37414 1.468808,-1.4298 0.105304,-0.45371 0.251486,-0.98269 0.324881,-1.17551 l 0.133403,-0.35057 -0.318293,0.20856 c -0.231299,0.15155 -0.470985,0.18763 -0.876882,0.13199 -0.517314,-0.0709 -0.586238,-0.0451 -0.933001,0.34989 -0.244713,0.27869 -0.405447,0.63327 -0.463947,1.02332 -0.04924,0.32827 -0.168354,0.82035 -0.264742,1.09351 l -0.175233,0.49666 0.314351,-0.20597 c 0.208995,-0.13693 0.474001,-0.18455 0.790655,-0.14208 z m 3.720094,0.0186 c 0.379571,-0.11242 0.861669,-0.29451 1.071325,-0.40465 l 0.381185,-0.20024 -0.444738,-0.0952 c -0.247571,-0.053 -0.498211,-0.0426 -0.565415,0.0235 -0.06638,0.0652 -0.266515,0.11939 -0.444712,0.12034 -0.628359,0.003 -0.895799,0.14004 -0.895799,0.4578 0,0.35927 0.0127,0.36067 0.898154,0.0984 z m -1.434147,-0.5382 c -0.05921,-0.0241 -0.199364,-0.009 -0.311388,0.0344 -0.181769,0.0697 -0.178012,0.10656 0.03487,0.34177 l 0.238548,0.26361 0.07284,-0.29802 c 0.04006,-0.16391 0.02434,-0.31771 -0.03487,-0.34177 z m -0.298186,-0.52488 c 0.266356,-0.10126 0.325941,-0.20733 0.325941,-0.58013 0,-0.25092 0.05252,-0.55433 0.116681,-0.67425 0.06419,-0.11991 0.07512,-0.41634 0.02434,-0.65872 -0.08691,-0.4145 -0.10107,-0.42483 -0.238019,-0.17385 -0.113162,0.20732 -0.665321,2.01374 -0.665321,2.17655 0,0.0589 0.09954,0.0385 0.43643,-0.0896 z m -4.756547,-0.98442 c 0.539777,-0.0793 0.762371,-0.24253 0.762371,-0.55903 0,-0.13121 -0.02249,-0.23856 -0.05014,-0.23856 -0.140732,0 -1.827027,0.55466 -2.046366,0.67311 -0.244793,0.13217 -0.242438,0.14065 0.06353,0.23044 0.174704,0.0513 0.432012,0.0631 0.571765,0.0263 0.139779,-0.0368 0.454263,-0.0963 0.698843,-0.13226 z m 1.711405,-0.15591 c 0.04104,-0.0664 -0.04138,-0.18274 -0.183092,-0.25859 -0.141737,-0.0759 -0.257678,-0.11198 -0.257678,-0.0803 0,0.0317 -0.03471,0.14805 -0.07713,0.25859 -0.05487,0.14295 -0.0026,0.20099 0.183092,0.20099 0.143113,0 0.293793,-0.0543 0.334804,-0.12069 z m 1.018408,-1.46126 -0.486278,-0.45864 -0.422937,0.40991 c -0.527076,0.51088 -0.531415,0.75442 -0.0209,1.18388 l 0.401876,0.33815 0.507338,-0.50733 0.507339,-0.50734 z m 1.907963,0.36428 0.508238,-0.44576 -0.49231,0.28182 c -0.404919,0.2318 -0.554831,0.25822 -0.84455,0.14886 -0.311918,-0.11774 -0.367983,-0.0984 -0.489691,0.16871 -0.131445,0.28849 -0.116761,0.30146 0.336312,0.2969 0.356288,-0.004 0.599757,-0.1153 0.982001,-0.45053 z m -2.223585,-1.1458 c 0,-0.0371 -0.0531,-0.16664 -0.118004,-0.28792 -0.08213,-0.15345 -0.04157,-0.39241 0.133403,-0.78578 l 0.251433,-0.56528 -0.382375,0.44472 c -0.293265,0.34107 -0.383593,0.57161 -0.387536,0.9892 -0.0048,0.50571 0.01296,0.5348 0.248947,0.40848 0.139779,-0.0748 0.254132,-0.16634 0.254132,-0.20342 z m -7.845266,-1.69927 c -0.972555,-0.41456 -1.069658,-2.5789 -0.14478,-3.22672 0.436139,-0.30549 1.515824,-0.2755 1.934395,0.0537 0.687943,0.54114 0.738135,2.09759 0.09099,2.82188 -0.27342,0.306 -0.462915,0.38953 -0.967766,0.42657 -0.345281,0.0253 -0.756047,-0.009 -0.912839,-0.0755 z m 1.42748,-0.63726 c 0.319537,-0.3531 0.400209,-1.38127 0.146791,-1.87129 -0.455428,-0.88071 -1.647614,-0.55616 -1.735032,0.47232 -0.06218,0.7315 0.01588,1.15817 0.255244,1.39768 0.335174,0.33517 1.030208,0.33584 1.332997,0.001 z" />
      <path
         style="fill:#ff0000;stroke:#000000;stroke-width:0.00594138"
         d="m 280.29487,536.49882 c -1.1382,0.41197 -1.88867,1.48261 -2.75903,2.27699 -0.32444,0.47589 -1.10974,0.89634 -0.97267,1.55126 0.55901,1.03803 1.59188,1.78543 2.60956,2.34429 0.71844,0.46842 1.3721,-0.37745 1.89266,-0.77702 0.79035,-0.74424 1.52383,-1.57898 2.15607,-2.44432 -0.93193,-0.94228 -1.88342,-1.8924 -2.7154,-2.9136 -0.0642,-0.0348 -0.13916,-0.0453 -0.21119,-0.0376 z"
         id="path2310"
         transform="scale(0.26458333)" class="OC" />
      <path
         style="fill:#ff0000;stroke:#000000;stroke-width:0.00356274"
         d="m 280.99429,529.56489 c -0.73413,0.77438 -1.45905,1.58882 -2.01715,2.50451 -0.64905,1.08416 -0.8194,2.52478 -0.12703,3.6305 0.28012,0.35324 0.72048,-0.0345 1.00146,-0.19066 0.39017,-0.22856 0.68907,-0.68698 0.47123,-1.14022 -0.26457,-0.64778 -0.45122,-1.36154 -0.24007,-2.05122 0.21089,-0.94504 0.68158,-1.80946 0.949,-2.73481 -0.006,-0.0166 -0.0229,-0.0227 -0.0374,-0.0181 z"
         id="path2372"
         transform="scale(0.26458333)" class="OC" />
      <path
         style="fill:#ff0000;stroke:#000000;stroke-width:0.00356274"
         d="m 289.76377,538.22666 c -1.12305,0.38396 -2.17522,1.2668 -3.42885,1.04447 -0.689,-0.0455 -1.34301,-0.4421 -2.03717,-0.36018 -0.29779,0.23376 -0.23177,0.71573 -0.38192,1.0413 -0.0824,0.26961 -0.27993,0.76772 0.13031,0.87034 0.90203,0.12903 1.84775,0.15233 2.74428,-0.0374 1.19213,-0.37194 1.95086,-1.45818 2.81605,-2.2872 0.0161,-0.056 0.29356,-0.23399 0.1573,-0.27129 z"
         id="path2373"
         transform="scale(0.26458333)" class="OC" />
      <path
         style="fill:#ff0000;stroke:#000000;stroke-width:0.00356274"
         d="m 273.60899,541.08534 c -2.82513,0.72975 -5.6,1.69001 -8.23841,2.93592 -0.0526,0.17158 0.34032,0.10535 0.44214,0.17834 1.2205,0.29477 2.52452,0.42782 3.73769,0.0317 1.31091,-0.33338 2.68862,-0.43841 3.95406,-0.92983 0.63527,-0.27631 0.48434,-1.0813 0.48751,-1.63427 -0.002,-0.22445 -0.10248,-0.58989 -0.38299,-0.58186 z"
         id="path2374"
         transform="scale(0.26458333)" class="OC" />
      <path
         style="fill:#ff0000;stroke:#000000;stroke-width:0.00356274"
         d="m 276.37456,541.95139 c -0.39033,0.10833 -0.37466,0.64854 -0.40108,0.97822 -0.0254,0.58868 0.57903,1.01224 1.1327,0.87788 0.28643,-0.003 0.85322,-0.14673 0.71268,-0.54206 -0.28867,-0.57411 -0.78115,-1.12794 -1.41062,-1.31418 h -0.0308 z"
         id="path2375"
         transform="scale(0.26458333)" class="OC" />
      <path
         style="fill:#ff0000;stroke:#000000;stroke-width:0.00356274"
         d="m 278.38417,545.57258 c -0.65669,0.01 -1.45159,0.17656 -1.71109,0.86939 -0.51087,1.2623 -0.62201,2.64673 -0.78598,3.98723 -0.0889,1.28607 -0.18534,2.63502 0.20676,3.87667 0.23816,-0.0484 0.29832,-0.42093 0.43977,-0.60009 1.01839,-2.1561 1.57155,-4.49694 2.10925,-6.80942 0.0333,-0.40738 0.29169,-0.97889 -0.064,-1.305 -0.0618,-0.0234 -0.12981,-0.0202 -0.1947,-0.0188 z"
         id="path2376"
         transform="scale(0.26458333)" class="OC" />
      <path
         style="fill:#ff6600;stroke:#000000;stroke-width:0.00760723"
         d="m 301.76482,557.73442 c -1.09981,0.44249 -1.71893,1.62304 -2.535,2.43648 -0.27256,0.49594 -1.13527,1.03704 -0.98926,1.53917 0.96658,0.9715 1.9017,2.0239 3.05862,2.7621 1.36107,-0.99216 2.60895,-2.20168 3.58134,-3.5751 0.37064,-0.75119 -0.78908,-0.92512 -1.20646,-1.26292 -0.8391,-0.42361 -0.9635,-1.72026 -1.90924,-1.89973 z"
         id="path2827"
         transform="scale(0.26458333)" class="OR" />
      <path
         style="fill:#ff6600;stroke:#000000;stroke-width:0.00494164"
         d="m 302.45434,551.29017 c -0.70871,0.5515 -1.20546,1.36577 -1.71394,2.10367 -0.69724,0.9837 -0.62644,2.33125 -0.11504,3.37325 0.32801,0.41547 0.87573,-0.0639 1.18464,-0.28164 0.55536,-0.58988 -0.0817,-1.40944 -0.0353,-2.09035 -0.0862,-1.08167 0.58685,-2.03407 0.74685,-3.06382 -0.009,-0.0278 -0.0378,-0.0461 -0.0672,-0.0411 z"
         id="path2828"
         transform="scale(0.26458333)" class="OR" />
      <path
         style="fill:#ff6600;stroke:#000000;stroke-width:0.00494164"
         d="m 311.65506,559.49811 c -1.24097,0.55164 -2.5364,1.18131 -3.93691,0.99547 -0.64979,-0.0667 -1.57196,-0.18852 -1.8921,0.55285 -0.20774,0.27506 -0.42324,0.89918 0.0971,0.96999 1.3269,0.10374 2.79892,0.0407 3.87637,-0.84673 0.64758,-0.5267 1.38795,-1.01637 1.90863,-1.65633 -0.0107,-0.0212 -0.0346,-0.02 -0.0531,-0.0153 z"
         id="path2829"
         transform="scale(0.26458333)" class="OR" />
      <path
         style="fill:#ff6600;stroke:#000000;stroke-width:0.00494164"
         d="m 298.37653,563.42054 c -0.48211,0.16034 -0.7874,0.81137 -0.665,1.28753 0.56867,0.34619 1.32731,0.22793 1.95696,0.12779 0.26898,-0.14177 -0.1697,-0.45083 -0.24457,-0.59126 -0.31515,-0.28843 -0.61796,-0.71738 -1.04739,-0.82406 z"
         id="path2830"
         transform="scale(0.26458333)" class="OR" />
      <path
         style="fill:#ff6600;stroke:#000000;stroke-width:0.00494164"
         d="m 295.89509,562.36967 c -2.58068,0.59278 -5.1107,1.41767 -7.59951,2.31948 -0.14898,0.1182 -0.63281,0.17411 -0.56848,0.42294 0.88785,0.61047 2.07347,1.20531 3.13902,0.66478 1.38139,-0.64694 2.9965,-0.51358 4.36918,-1.15818 0.66078,-0.48253 0.71711,-1.42034 0.79105,-2.16717 0.001,-0.0767 -0.0678,-0.0967 -0.13126,-0.0818 z"
         id="path2831"
         transform="scale(0.26458333)" class="OR" />
      <path
         style="fill:#ff6600;stroke:#000000;stroke-width:0.00494164"
         d="m 299.10542,566.9071 c -0.50965,-0.053 -0.96996,0.30908 -0.9559,0.84008 -0.16643,1.39213 -0.0465,2.83733 -0.60921,4.15657 -0.25488,1.15407 -0.29809,2.46338 0.25075,3.53597 0.27745,0.29307 0.42341,-0.36678 0.5319,-0.5189 0.84777,-2.12909 1.61383,-4.317 2.01439,-6.57852 0.0756,-0.48407 0.12856,-1.24068 -0.51153,-1.34062 -0.23265,-0.071 -0.47742,-0.10152 -0.7204,-0.0946 z"
         id="path2832"
         transform="scale(0.26458333)" class="OR" />
      <path
         style="fill:#ffff00;stroke:#000000;stroke-width:0.00494164"
         d="m 309.03985,571.22833 c -1.31144,1.24162 -2.5558,2.57672 -3.7209,3.95852 0.64573,0.57024 1.54365,0.92102 2.11429,1.62051 0.46865,0.38457 0.52009,1.06814 0.95377,1.45759 0.61365,0.0856 1.03134,-0.57846 1.46724,-0.91246 0.80151,-0.88327 1.86569,-1.66241 2.25405,-2.83295 0.16569,-0.97033 -0.84633,-1.58588 -1.46667,-2.13938 -0.52428,-0.38829 -1.02125,-0.85799 -1.60178,-1.15183 z"
         id="path2833"
         transform="scale(0.26458333)" class="T" />
      <path
         style="fill:#ffff00;stroke:#000000;stroke-width:0.00494164"
         d="m 303.72681,573.70513 c -0.9791,-0.0566 -1.97426,0.13228 -2.76519,0.74279 -0.73826,0.52854 -1.52769,1.06444 -2.11834,1.74251 0.46843,-0.014 0.92098,-0.42777 1.38713,-0.57331 1.12817,-0.55407 2.40807,-0.45567 3.61551,-0.30055 0.47636,0.0932 0.97177,-0.18373 1.02037,-0.69473 0.12701,-0.34408 0.0804,-0.95768 -0.42294,-0.90223 -0.23824,-0.0203 -0.4777,-0.0169 -0.71654,-0.0145 z"
         id="path2834"
         transform="scale(0.26458333)" class="T" />
      <path
         style="fill:#ffff00;stroke:#000000;stroke-width:0.00494164"
         d="m 309.53652,578.86084 c -0.4957,0.14316 -1.00757,0.53991 -1.18175,1.03756 0.0567,0.74061 0.65813,1.40397 0.42487,2.18571 -0.22725,1.13626 -0.93694,2.11565 -1.33058,3.19121 0.32628,-0.0829 0.54249,-0.57168 0.80822,-0.8 0.68807,-0.92085 1.58967,-1.74548 2.00389,-2.83519 0.0765,-0.90767 0.0275,-1.94367 -0.49938,-2.71636 -0.0619,-0.0521 -0.14613,-0.0693 -0.22527,-0.0629 z"
         id="path2835"
         transform="scale(0.26458333)" class="T" />
      <path
         style="fill:#ffff00;stroke:#000000;stroke-width:0.00494164"
         d="m 311.88631,570.74362 c -0.35106,-0.005 -1.00161,0.22035 -0.73295,0.68102 0.33597,0.48483 0.79036,1.10165 1.42729,1.12905 0.49224,-0.24724 0.41433,-1.02969 0.17566,-1.44292 -0.1868,-0.28385 -0.54353,-0.39698 -0.87,-0.36715 z"
         id="path2836"
         transform="scale(0.26458333)" class="T" />
      <path
         style="fill:#ffff00;stroke:#000000;stroke-width:0.00494164"
         d="m 312.64454,560.65264 c -0.50096,0.50925 -0.59654,1.3228 -0.87813,1.96688 -0.61057,1.96278 -1.3128,3.91791 -1.65542,5.94843 -0.0167,0.2813 0.17717,0.77208 0.53122,0.54551 0.64236,-0.20221 1.60484,-0.23192 1.74579,-1.06998 0.55264,-2.20186 0.90459,-4.51356 0.62929,-6.78143 -0.0593,-0.21073 -0.0949,-0.58414 -0.37275,-0.60941 z"
         id="path2837"
         transform="scale(0.26458333)" class="T" />
      <path
         style="fill:#ffff00;stroke:#000000;stroke-width:0.00494164"
         d="m 321.11656,570.1319 c -1.2599,-0.0308 -2.40442,0.62485 -3.66434,0.61134 -0.8577,0.0981 -2.11909,0.10129 -2.45808,1.08484 -0.10149,0.52732 -0.18235,1.16432 0.0612,1.65603 0.5247,0.12767 1.06935,-0.2602 1.58799,-0.33917 2.12432,-0.7072 4.3252,-1.25542 6.33928,-2.24824 0.33042,-0.11189 0.2038,-0.4729 -0.0967,-0.50073 -0.56092,-0.22196 -1.1713,-0.2721 -1.76933,-0.26407 z"
         id="path2838"
         transform="scale(0.26458333)" class="T" />
      <path
         style="fill:#00ff00;stroke:#000000;stroke-width:0.00494164"
         d="m 281.79945,552.45647 c -1.9989,0.2401 -3.60527,1.65655 -4.95901,3.03737 0.0306,0.19301 0.43177,-0.1659 0.56539,-0.16967 1.25127,-0.53399 2.57858,-1.56319 4.00196,-1.0669 0.46892,0.1828 1.24602,0.60658 1.56877,-0.0193 0.31226,-0.58223 0.24365,-1.54395 -0.51616,-1.7205 -0.2137,-0.0636 -0.43952,-0.0747 -0.66095,-0.061 z"
         id="path2839"
         transform="scale(0.26458333)" class="IR" />
      <path
         style="fill:#00ff00;stroke:#000000;stroke-width:0.00494164"
         d="m 287.5885,550.67169 c -1.16807,0.20871 -1.88026,1.31406 -2.62651,2.13287 -0.40248,0.59699 -1.06109,1.11558 -1.20847,1.84322 0.20313,0.37219 0.77735,0.10831 1.06805,0.40363 0.90299,0.51866 1.26411,1.64264 2.12105,2.1915 1.10408,-0.74525 2.09009,-1.70354 2.89915,-2.76481 0.3943,-0.49291 0.6424,-1.2048 0.22141,-1.76374 -0.55296,-0.86245 -1.30266,-1.75651 -2.32546,-2.03919 -0.0495,-0.006 -0.0995,-0.007 -0.14922,-0.003 z"
         id="path2840"
         transform="scale(0.26458333)" class="IR" />
      <path
         style="fill:#00ff00;stroke:#000000;stroke-width:0.00494164"
         d="m 290.66197,549.73703 c -0.50482,0.0654 -1.17244,0.1097 -1.48944,0.55458 0.2739,0.57672 0.76785,1.07908 1.26996,1.47477 0.33483,-0.0129 0.42426,-0.52668 0.57756,-0.77271 0.0856,-0.35959 0.49226,-0.96912 0.0328,-1.21437 -0.1245,-0.0453 -0.26017,-0.0455 -0.39089,-0.0423 z"
         id="path2841"
         transform="scale(0.26458333)" class="IR" />
      <path
         style="fill:#00ff00;stroke:#000000;stroke-width:0.00494164"
         d="m 291.04089,539.42387 c -0.48559,0.43274 -0.59179,1.18713 -0.8658,1.76434 -0.70257,2.07451 -1.44394,4.17492 -1.69844,6.35886 0.11123,0.6558 0.94218,0.55057 1.40373,0.3658 0.83166,-0.46834 0.85752,-1.58789 1.09677,-2.40656 0.35672,-1.92144 0.73332,-3.94614 0.26276,-5.8786 -0.0366,-0.0822 -0.0887,-0.20926 -0.19902,-0.20384 z"
         id="path2842"
         transform="scale(0.26458333)" class="IR" />
      <path
         style="fill:#00ff00;stroke:#000000;stroke-width:0.00494164"
         d="m 299.25733,549.05311 c -1.1116,0.0298 -2.12915,0.57223 -3.23134,0.69336 -1.01222,0.2562 -2.33753,0.27208 -2.96964,1.2416 -0.15751,0.38967 -0.4148,0.96382 -0.12354,1.33811 0.90603,0.22945 1.8472,-0.20289 2.73315,-0.37603 2.13249,-0.616 4.30238,-1.29863 6.1923,-2.47816 -0.0957,-0.25282 -0.60824,-0.12612 -0.83024,-0.24399 -0.58494,-0.0983 -1.17612,-0.18183 -1.77069,-0.17489 z"
         id="path2843"
         transform="scale(0.26458333)" class="IR" />
      <path
         style="fill:#00ff00;stroke:#000000;stroke-width:0.00494164"
         d="m 288.079,557.64481 c -0.63757,0.17045 -1.28788,0.68141 -1.21418,1.41377 0.0105,1.40993 0.10876,2.89378 -0.62272,4.16391 -0.0494,0.25902 -0.40513,0.59652 -0.30364,0.8339 0.77142,-0.61467 1.32207,-1.50377 1.88303,-2.31466 0.64294,-1.18815 0.70354,-2.63124 0.47892,-3.93767 -0.0329,-0.0936 -0.11645,-0.17191 -0.22141,-0.15925 z"
         id="path2844"
         transform="scale(0.26458333)" class="IR" />
      <path
         style="fill:#0000ff;stroke:#000000;stroke-width:0.00494164"
         d="m 265.96594,529.06515 c -1.27115,0.16168 -2.13359,1.27518 -2.99733,2.11407 -0.35579,0.40798 -0.77874,0.80024 -1.07721,1.23041 0.87572,0.7434 2.07942,1.32055 2.5129,2.44882 0.0291,0.25108 0.10476,0.96416 0.5266,0.67175 1.28603,-0.86567 2.39533,-1.99811 3.37537,-3.1943 0.31997,-0.37247 0.50588,-0.93773 0.11061,-1.33811 -0.578,-0.76111 -1.23214,-1.6132 -2.17626,-1.9116 -0.0905,-0.0169 -0.18269,-0.024 -0.27468,-0.021 z"
         id="path2845"
         transform="scale(0.26458333)" class="IC" />
      <path
         style="fill:#0000ff;stroke:#000000;stroke-width:0.00494164"
         d="m 259.90394,530.90514 c -1.10972,-0.0676 -2.23832,0.28696 -3.00823,1.11308 -0.49759,0.50974 -1.10537,0.99772 -1.4794,1.58513 1.33595,-0.45499 2.73694,-1.56887 4.22472,-1.0084 0.46572,0.22274 1.1943,0.4269 1.48481,-0.16563 0.20153,-0.39823 0.62873,-0.89282 0.45613,-1.35528 -0.48521,-0.2737 -1.14432,-0.11941 -1.67803,-0.1689 z"
         id="path2846"
         transform="scale(0.26458333)" class="IC" />
      <path
         style="fill:#0000ff;stroke:#000000;stroke-width:0.00494164"
         d="m 266.11129,536.25601 c -0.476,0.0672 -1.1724,0.17416 -1.34737,0.69298 0.14666,0.87896 0.77651,1.71595 0.45653,2.64127 -0.20182,0.8775 -0.72073,1.66142 -0.95957,2.51329 0.3369,-0.11172 0.54439,-0.61133 0.82597,-0.85471 1.00397,-1.10453 1.83566,-2.51423 1.68398,-4.06235 0.004,-0.42187 -0.0955,-1.01616 -0.65954,-0.93048 z"
         id="path2847"
         transform="scale(0.26458333)" class="IC" />
      <path
         style="fill:#0000ff;stroke:#000000;stroke-width:0.00494164"
         d="m 268.63578,528.06775 c -0.3839,0.0612 -1.00189,0.12805 -1.11786,0.56269 0.37164,0.62531 0.8727,1.20915 1.38849,1.70815 0.27365,-0.1924 0.13727,-0.6945 0.22372,-0.99374 -0.0335,-0.38834 0.17246,-1.029 -0.24766,-1.25567 -0.0802,-0.022 -0.16409,-0.0252 -0.24669,-0.0214 z"
         id="path2848"
         transform="scale(0.26458333)" class="IC" />
      <path
         style="fill:#0000ff;stroke:#000000;stroke-width:0.00494164"
         d="m 269.29807,517.66116 c -0.54744,0.63043 -0.71682,1.53243 -1.04883,2.29201 -0.66581,2.00185 -1.42981,4.00523 -1.7237,6.10221 -0.18155,0.58384 0.44545,0.30103 0.76094,0.23569 0.78642,-0.26407 1.73206,-0.71949 1.78611,-1.66957 0.18182,-1.23474 0.23717,-2.49743 0.69223,-3.67376 0.14242,-1.06262 0.0527,-2.20362 -0.34186,-3.20416 -0.0274,-0.0413 -0.0688,-0.0921 -0.12489,-0.0824 z"
         id="path2849"
         transform="scale(0.26458333)" class="IC" />
      <path
         style="fill:#0000ff;stroke:#000000;stroke-width:0.00494164"
         d="m 277.23712,527.35102 c -0.92561,0.006 -1.67917,0.71455 -2.62067,0.64991 -1.0525,0.13911 -2.36476,-0.008 -3.14792,0.85323 -0.33056,0.51535 -0.43618,1.29081 -0.10482,1.82494 0.63142,0.22403 1.32107,-0.17582 1.94523,-0.2998 2.04801,-0.67276 4.14154,-1.28358 6.07297,-2.25036 0.26777,-0.0947 0.18064,-0.39445 -0.0774,-0.4129 -0.66977,-0.19457 -1.36659,-0.35976 -2.06738,-0.36502 z"
         id="path2850"
         transform="scale(0.26458333)" class="IC" />
      <path
         style="fill:#808080;stroke:#000000;stroke-width:0.00494164"
         d="m 256.15544,516.43231 c -0.61967,0.6573 -1.33464,1.2691 -1.88169,1.97183 0.81051,0.95602 1.72433,1.855 2.72254,2.61618 0.24641,0.17262 0.55992,0.38901 0.80745,0.0739 1.13249,-0.90094 2.2537,-1.86565 3.12848,-3.02405 0.26002,-0.4992 -0.4167,-0.88322 -0.64669,-1.25393 -0.72228,-0.77641 -1.47359,-1.5648 -2.25266,-2.25946 -0.62581,0.62517 -1.25162,1.25033 -1.87743,1.8755 z"
         id="path2851"
         transform="scale(0.26458333)" class="OF" />
      <path
         style="fill:#808080;stroke:#000000;stroke-width:0.00494164"
         d="m 258.78589,508.09426 c -0.80652,0.78424 -1.49667,1.72693 -2.06043,2.70516 -0.46946,0.90898 -0.54517,2.04785 -0.19573,3.00437 0.29899,0.41377 0.91401,0.0547 1.29756,-0.0338 0.48888,-0.0978 0.60844,-0.64516 0.37835,-1.03601 -0.45778,-0.89078 -0.49682,-1.94022 -0.0733,-2.84927 0.19565,-0.59485 0.57885,-1.18821 0.67516,-1.78815 l -0.0143,-0.003 z"
         id="path2852"
         transform="scale(0.26458333)" class="OF" />
      <path
         style="fill:#808080;stroke:#000000;stroke-width:0.00494164"
         d="m 267.87175,516.40355 c -1.33385,0.46719 -2.66913,1.60833 -4.15599,1.13079 -0.47627,-0.10567 -0.93671,-0.56376 -1.42632,-0.4683 -0.33668,0.49545 -0.56413,1.17655 -0.4268,1.77185 0.42211,0.59415 1.2972,0.4069 1.92415,0.44359 1.57202,-0.23834 2.75437,-1.46296 3.86027,-2.51059 0.0185,-0.0648 0.41093,-0.32922 0.22469,-0.36734 z"
         id="path2853"
         transform="scale(0.26458333)" class="OF" />
      <path
         style="fill:#808080;stroke:#000000;stroke-width:0.00494164"
         d="m 254.08844,520.05187 c -0.32502,0.31461 -0.18174,0.91044 -0.14265,1.32324 0.0799,0.56819 0.82411,1.21028 1.31706,0.64685 0.53814,-0.36436 -0.0333,-0.98346 -0.33201,-1.2883 -0.25615,-0.23694 -0.49652,-0.5789 -0.8424,-0.68179 z"
         id="path2854"
         transform="scale(0.26458333)" class="OF" />
      <path
         style="fill:#808080;stroke:#000000;stroke-width:0.00494164"
         d="m 251.48964,519.37529 c -2.32981,0.5229 -4.56561,1.41442 -6.7878,2.27779 -0.37378,0.22744 -0.96877,0.28317 -1.19777,0.67928 0.31882,0.37105 0.95705,0.31283 1.39059,0.48731 0.49262,0.0609 1.00553,0.32244 1.491,0.2881 0.57955,-0.51916 1.27783,-0.92187 2.0786,-0.92168 1.09021,-0.0531 2.42539,0.0238 3.2188,-0.86657 0.32539,-0.5712 0.35345,-1.42725 -0.0822,-1.93747 -0.0357,-0.0118 -0.0744,-0.009 -0.11119,-0.007 z"
         id="path2855"
         transform="scale(0.26458333)" class="OF" />
      <path
         style="fill:#808080;stroke:#000000;stroke-width:0.00494164"
         d="m 255.98769,523.79497 c -0.84426,0.0127 -1.52806,0.68836 -1.6514,1.50604 -0.35782,1.37343 -0.34592,2.86875 -1.02732,4.13959 0.0397,1.06944 0.42146,2.11931 0.76171,3.12153 0.3279,-0.15186 0.36188,-0.693 0.53964,-0.99167 0.78785,-2.27527 1.65671,-4.56739 1.93621,-6.97232 0.0487,-0.39393 -0.0365,-0.90421 -0.55884,-0.80317 z"
         id="path2856"
         transform="scale(0.26458333)" class="OF" />
      <path
         style="fill:#ff00ff;stroke:#000000;stroke-width:0.00494164"
         d="m 247.22535,496.07122 c -0.52809,0.40024 -0.61016,1.18548 -0.87443,1.76527 -0.74323,2.29178 -1.55995,4.57849 -2.06159,6.93568 0.29797,0.22455 0.77173,-0.0814 1.1011,-0.13229 0.71476,-0.2166 1.56589,-0.588 1.65386,-1.43726 0.11089,-1.2429 0.10393,-2.52315 0.58759,-3.69986 0.27751,-1.11012 0.11797,-2.32861 -0.29823,-3.37807 -0.0265,-0.0317 -0.0655,-0.057 -0.1083,-0.0535 z"
         id="path2857"
         transform="scale(0.26458333)" class="IF" />
      <path
         style="fill:#ff00ff;stroke:#000000;stroke-width:0.00494164"
         d="m 246.61247,506.45348 c -0.46127,0.0481 -0.98305,0.17469 -1.27343,0.55092 0.47649,0.57299 0.91431,1.26492 1.52727,1.67591 0.24438,-0.62891 0.43851,-1.37874 0.27218,-2.05097 -0.1,-0.18917 -0.34192,-0.18813 -0.52602,-0.17586 z"
         id="path2858"
         transform="scale(0.26458333)" class="IF" />
      <path
         style="fill:#ff00ff;stroke:#000000;stroke-width:0.00494164"
         d="m 254.92234,505.73868 c -0.80862,0.13005 -1.51142,0.67426 -2.36118,0.63503 -1.03547,0.13706 -2.28372,0.009 -3.1057,0.77025 -0.39792,0.51222 -0.417,1.29214 -0.19554,1.87339 0.47651,0.38022 1.12582,-0.0624 1.64941,-0.11651 2.3792,-0.65697 4.73459,-1.44721 6.90792,-2.63402 -0.85286,-0.34769 -1.93544,-0.4776 -2.89491,-0.52814 z"
         id="path2859"
         transform="scale(0.26458333)" class="IF" />
      <path
         style="fill:#ff00ff;stroke:#000000;stroke-width:0.00494164"
         d="m 243.79748,507.38255 c -1.07034,0.22122 -1.7807,1.18621 -2.57354,1.86198 -0.45145,0.46585 -0.97095,0.9048 -1.37591,1.39101 1.08167,1.06031 2.13536,2.18419 3.23445,3.20492 1.24994,-1.05005 2.41166,-2.22688 3.40723,-3.51937 0.34426,-0.59899 -0.32965,-1.16321 -0.67639,-1.58654 -0.57614,-0.52689 -1.21103,-1.23236 -2.01584,-1.352 z"
         id="path2860"
         transform="scale(0.26458333)" class="IF" />
      <path
         style="fill:#ff00ff;stroke:#000000;stroke-width:0.00494164"
         d="m 237.84898,509.26153 c -1.11647,-0.02 -2.25498,0.31956 -3.03409,1.15472 -0.48708,0.50432 -1.1087,0.98727 -1.47168,1.55913 1.16204,-0.37885 2.26844,-1.23105 3.54119,-1.16013 0.58796,0.0954 1.13951,0.35284 1.70312,0.5127 0.5148,-0.45067 0.89121,-1.12538 0.97443,-1.79849 -0.45435,-0.35587 -1.16756,-0.22681 -1.71297,-0.26793 z"
         id="path2861"
         transform="scale(0.26458333)" class="IF" />
      <path
         style="fill:#ff00ff;stroke:#000000;stroke-width:0.00494164"
         d="m 244.34164,514.3991 c -0.57826,0.14271 -1.27246,0.36625 -1.60063,0.8976 -0.0325,0.77142 0.57572,1.44726 0.44648,2.24439 -0.0841,1.08378 -0.74706,2.02071 -1.06187,3.02425 0.5467,-0.37269 0.93901,-1.02949 1.38829,-1.53886 0.73362,-0.86058 1.20675,-1.93133 1.20275,-3.07577 -0.0172,-0.49078 0.11603,-1.10462 -0.19087,-1.52285 -0.0561,-0.0302 -0.1221,-0.0313 -0.18415,-0.0288 z"
         id="path2862"
         transform="scale(0.26458333)" class="IF" />
    </g>
    <path
       style="fill:#ffffff;fill-opacity:1;stroke:#000000;stroke-width:0.0064821;stroke-opacity:0"
       d="m 237.56608,486.11096 c -0.89156,0.76265 -1.54088,1.83174 -2.11174,2.85517 -0.28434,1.13669 -0.46536,2.38536 -0.19472,3.53755 0.25252,0.56441 0.87973,-0.1168 1.21311,-0.25549 0.49754,-0.21685 0.73004,-0.77063 0.37823,-1.22658 -0.8087,-1.63658 0.41841,-3.28126 0.8516,-4.82354 -0.0115,-0.0649 -0.0785,-0.0983 -0.13648,-0.0871 z"
       id="path115"
       transform="scale(0.26458333)" class="P" />
    <path
       style="fill:#ffffff;fill-opacity:1;stroke:#000000;stroke-width:0.0064821;stroke-opacity:0"
       d="m 236.35955,492.93413 c -1.0186,1.18153 -2.52261,2.10766 -3.03874,3.64466 -0.17599,1.28986 1.16483,2.0801 1.96435,2.85591 0.54699,0.62348 1.20248,1.118 1.70082,0.14394 1.00954,-1.06514 2.16333,-2.03006 3.04887,-3.19583 -1.05685,-1.24064 -2.37492,-2.2908 -3.53603,-3.45045 l -0.12964,0.002 z"
       id="path116"
       transform="scale(0.26458333)" class="P" />
    <path
       style="fill:#ffffff;fill-opacity:1;stroke:#000000;stroke-width:0.0064821;stroke-opacity:0"
       d="m 246.23209,495.05043 c -1.18019,0.45231 -2.37362,1.47084 -3.70315,0.9275 -0.56489,-0.14731 -1.47416,-0.57501 -1.81955,0.16155 -0.14843,0.42465 -0.8272,1.11472 -0.29473,1.49215 1.50171,0.35369 3.1712,-0.0336 4.34912,-1.05083 0.5342,-0.46153 1.26843,-0.81384 1.61745,-1.43339 -0.003,-0.0708 -0.0846,-0.11813 -0.14914,-0.097 z"
       id="path117"
       transform="scale(0.26458333)" class="P" />
    <path
       style="fill:#ffffff;fill-opacity:1;stroke:#000000;stroke-width:0.0064821;stroke-opacity:0"
       d="m 232.93695,498.84651 c -0.44603,0.23411 -0.43301,0.91631 -0.56946,1.35542 0.11125,0.62797 1.01033,0.40946 1.4529,0.31398 0.36005,-0.0441 0.92747,-0.41916 0.52769,-0.79001 -0.3697,-0.39836 -0.84789,-0.82595 -1.41113,-0.87939 z"
       id="path118"
       transform="scale(0.26458333)" class="P" />
    <path
       style="fill:#ffffff;fill-opacity:1;stroke:#000000;stroke-width:0.0064821;stroke-opacity:0"
       d="m 230.24587,497.82609 c -2.48553,0.66777 -4.9476,1.47351 -7.33718,2.43129 -0.27704,0.0899 -0.94053,0.46676 -0.4145,0.70822 1.93263,0.84488 4.0138,-0.003 5.96731,-0.30489 0.97156,-0.15974 2.36159,-0.61663 2.32952,-1.82559 -0.051,-0.45611 0.26647,-1.31087 -0.54515,-1.00903 z"
       id="path119"
       transform="scale(0.26458333)" class="P" />
    <path
       style="fill:#ffffff;fill-opacity:1;stroke:#000000;stroke-width:0.0064821;stroke-opacity:0"
       d="m 235.03908,502.21898 c -0.6873,0.14575 -1.5244,0.15935 -2.06769,0.63073 -0.37349,1.41585 -0.24751,2.92905 -0.67227,4.34326 -0.11503,1.24852 -0.34646,2.59393 0.0701,3.80368 0.33288,0.45255 0.65237,-0.37582 0.77507,-0.62315 1.02189,-2.46 1.7768,-5.05689 2.1596,-7.69293 0.008,-0.17904 -0.0188,-0.47604 -0.26485,-0.46159 z"
       id="path120"
       transform="scale(0.26458333)" class="P" />
  </g>
</svg>
