<?xml version="1.0" encoding="UTF-8" standalone="no"?>
<!-- Created with Inkscape (http://www.inkscape.org/) -->

<svg
   width="24.263821mm"
   height="25.778229mm"
   viewBox="0 0 24.263821 25.778229"
   version="1.1"
   id="svg1"
   xmlns="http://www.w3.org/2000/svg"
   xmlns:svg="http://www.w3.org/2000/svg">
  <defs
     id="defs1" />
  <g
     id="g2947"
     transform="translate(-97.029447,-129.28598)">
    <path
       id="path1304"
       style="fill:#000000;stroke-width:0.264583"
       d="m 109.43164,154.87091 c -0.14944,-0.3894 -0.0743,-0.91185 0.177,-1.23136 0.19222,-0.24439 0.25411,-0.51546 0.25411,-1.11305 v -0.78998 l -0.39706,0.0794 c -0.21839,0.0437 -0.52848,0.0794 -0.68908,0.0794 -0.16063,0 -0.46191,0.14295 -0.66955,0.31766 -0.39056,0.32862 -1.32352,0.45085 -1.48217,0.19418 -0.25252,-0.40858 0.86016,-1.14527 2.39241,-1.58397 0.45503,-0.13029 0.86217,-0.3453 1.05092,-0.555 0.26715,-0.29678 0.29861,-0.42711 0.23654,-0.97952 -0.064,-0.56945 -0.0309,-0.69101 0.31141,-1.14356 0.21069,-0.2785 0.38466,-0.59915 0.38661,-0.71256 0.003,-0.11341 -0.19997,-0.82813 -0.4487,-1.58828 -0.57333,-1.75216 -0.85506,-2.08092 -1.78311,-2.08092 -0.57245,0 -0.73622,-0.0611 -1.19866,-0.44751 -0.42399,-0.35422 -0.57269,-0.41679 -0.71326,-0.30012 -0.13737,0.11401 -0.22969,0.10026 -0.40759,-0.0607 -0.13843,-0.12528 -0.44876,-0.20813 -0.77965,-0.20813 -0.47297,0 -0.615,-0.0687 -1.01767,-0.49194 -0.6604,-0.69422 -1.23835,-0.75028 -2.09732,-0.20343 -1.36248,0.8674 -2.40171,1.15682 -2.730666,0.76046 -0.237172,-0.28579 0.622246,-1.12127 1.044416,-1.01531 0.23164,0.0581 0.43993,-0.0481 0.91639,-0.46751 l 0.61658,-0.54275 -0.61878,-0.5445 c -0.41682,-0.36679 -0.73594,-0.54451 -0.97774,-0.54451 -0.22498,0 -0.4753,-0.1255 -0.67056,-0.33621 -0.383622,-0.41391 -0.411615,-0.80734 -0.0575,-0.80734 0.30329,0 0.32771,-0.23959 0.059,-0.57926 -0.189867,-0.24006 -0.199207,-0.24031 -0.349411,-0.009 -0.435425,0.66985 -0.578062,0.78212 -0.813462,0.64029 -0.126656,-0.0763 -0.304906,-0.29075 -0.396054,-0.47648 -0.269399,-0.54882 -0.501545,-0.41066 -0.766922,0.45643 -0.18833,0.61534 -0.303794,0.80328 -0.512868,0.83474 -0.201189,0.0303 -0.269796,-0.0263 -0.269796,-0.22236 0,-0.14462 0.0503,-0.26296 0.111787,-0.26296 0.06149,0 0.137345,-0.3534 0.168592,-0.78534 0.05146,-0.7114 0.09964,-0.82238 0.511757,-1.17862 0.678498,-0.58651 0.663866,-1.08767 -0.0766,-2.62497 -0.429815,-0.89235 -0.588486,-1.37485 -0.588486,-1.78945 0,-0.31222 0.03612,-0.60378 0.08025,-0.64791 0.250164,-0.25017 1.086565,0.74748 0.977212,1.16563 -0.05826,0.22278 0.686965,1.42319 0.934826,1.50581 0.217197,0.0724 1.057195,-1.1938 1.057195,-1.59358 0,-0.22933 0.1337,-0.4852 0.37362,-0.71505 0.45924,-0.43999 0.76994,-0.36417 0.76994,0.1879 0,0.34958 0.0321,0.38391 0.28591,0.30609 0.6336,-0.19425 0.78695,-0.54809 0.32803,-0.75702 -0.62307,-0.28367 -0.62307,-0.85661 0,-1.14029 0.53054,-0.24153 0.29882,-0.57301 -0.58367,-0.83498 -0.64845,-0.19249 -0.90398,-0.44029 -0.68242,-0.66183 0.11562,-0.11564 0.20767,-0.1144 0.39947,0.005 0.13708,0.0856 0.5025,0.15564 0.81204,0.15564 0.48871,0 0.62428,0.0649 1.03004,0.49311 0.6812,0.71888 1.26514,0.772 2.16416,0.1969 1.39454,-0.89207 2.72661,-1.17298 2.72661,-0.575 0,0.33256 -0.58856,0.82016 -1.02658,0.85048 -0.41442,0.0287 -1.37139,0.62327 -1.48667,0.92368 -0.11178,0.29133 0.96999,1.15196 1.4537,1.15653 0.29115,0.003 0.49361,0.11307 0.73586,0.40097 0.39074,0.46436 0.36677,0.66778 -0.085,0.72169 -0.30845,0.0368 -0.31861,0.0615 -0.19314,0.47035 0.0728,0.23732 0.21764,0.46419 0.32178,0.50416 0.10414,0.04 0.19545,0.057 0.20291,0.0379 0.36356,-0.93049 0.85325,-1.10687 1.17863,-0.42452 0.11891,0.24931 0.25951,0.45329 0.3125,0.45329 0.18333,0 0.49848,-0.57376 0.57441,-1.04586 0.0811,-0.5041 0.3284,-0.80818 0.54724,-0.67292 0.16888,0.10437 0.17264,0.53551 0.006,0.63875 -0.0699,0.0432 -0.12708,0.36983 -0.12708,0.72586 0,0.59231 -0.0432,0.68721 -0.50824,1.11654 -0.67696,0.62496 -0.69578,1.20789 -0.0752,2.33 0.81229,1.46885 1.03973,2.75248 0.48768,2.75248 -0.15825,0 -0.13518,0.0718 0.10541,0.3279 0.24706,0.26302 0.30832,0.46389 0.30945,1.01503 0.003,0.9222 0.34481,1.26446 1.67437,1.6712 1.62636,0.49755 1.50688,0.50184 2.13447,-0.0767 0.50183,-0.46259 0.63897,-0.52329 1.18208,-0.52329 0.80735,0 1.23621,-0.41857 1.36692,-1.33415 0.15319,-1.0732 0.54178,-2.1569 0.89106,-2.48503 0.32353,-0.30392 0.33406,-0.30524 0.5107,-0.0637 0.25807,0.35294 0.22249,1.00003 -0.0738,1.34163 -0.19322,0.22279 -0.25413,0.47539 -0.25413,1.05404 v 0.76103 l 0.79415,-0.0828 c 0.56536,-0.059 0.84904,-0.15347 0.98472,-0.32805 0.22879,-0.29435 0.77081,-0.44502 1.20708,-0.33552 0.93853,0.23556 -0.36795,1.26648 -2.19583,1.73269 -0.93067,0.23737 -1.34919,0.77548 -1.22859,1.57964 0.0764,0.50926 0.0412,0.62742 -0.34882,1.17388 -0.50724,0.71055 -0.50906,0.89375 -0.0222,2.19391 0.46747,1.248 0.77557,1.51749 1.74096,1.52272 0.64857,0.004 0.80706,0.0574 1.27063,0.43173 0.29131,0.23524 0.59251,0.40487 0.6694,0.37695 0.0769,-0.0279 0.20622,0.0293 0.28744,0.12721 0.11441,0.13784 0.10303,0.21504 -0.0504,0.3424 -0.16555,0.13741 -0.32266,0.1049 -0.95591,-0.19776 -0.86715,-0.41446 -1.09344,-0.34186 -0.86024,0.27597 0.0807,0.2139 0.11065,0.48311 0.0665,0.59824 -0.0896,0.23336 -0.61005,0.27904 -0.97205,0.0853 -0.42958,-0.2299 -0.39399,0.30962 0.0666,1.00891 0.41839,0.63531 0.45678,1.02105 0.1016,1.02105 -0.0991,0 -0.23177,-0.12865 -0.29488,-0.28589 -0.0631,-0.15724 -0.31898,-0.5107 -0.56864,-0.78545 -0.38322,-0.4218 -0.45389,-0.59117 -0.45389,-1.08802 0,-0.85479 -0.46604,-1.26691 -1.73961,-1.53832 -1.08474,-0.23116 -1.29125,-0.17915 -2.04833,0.51596 -0.35245,0.3236 -0.52474,0.38636 -1.06082,0.38636 -0.54795,0 -0.69146,0.0551 -0.99777,0.38299 -0.21857,0.23396 -0.39092,0.59242 -0.44294,0.9212 -0.16846,1.06487 -0.4646,2.03648 -0.73025,2.39577 -0.29718,0.40195 -0.66061,0.47875 -0.78099,0.16503 z m 0.98512,-1.10139 c 0.10496,-0.3669 0.22974,-0.8815 0.27726,-1.14356 0.0818,-0.45103 0.0687,-0.47648 -0.24535,-0.47648 -0.27332,0 -0.33465,0.0616 -0.34801,0.34942 -0.009,0.19218 -0.041,0.49236 -0.0712,0.66707 -0.10908,0.63011 -0.0396,1.27062 0.13799,1.27062 0.0322,0 0.14438,-0.30018 0.24934,-0.66707 z m 7.64744,-1.18407 c -0.11761,-0.17952 -0.19603,-0.49631 -0.17426,-0.70398 0.0368,-0.35115 -0.15401,-0.61423 -0.44937,-0.61948 -0.21971,-0.004 0.075,0.9607 0.39727,1.30044 0.41543,0.43789 0.50412,0.44691 0.22636,0.023 z m -9.92412,-0.67819 c 0.0391,-0.0633 0.35697,-0.15447 0.70632,-0.20252 0.57084,-0.0785 0.63516,-0.11975 0.63516,-0.40723 0,-0.29891 -0.0302,-0.31421 -0.46103,-0.23338 -0.25355,0.0476 -0.78245,0.23431 -1.17531,0.41498 -0.71378,0.32827 -0.71402,0.32856 -0.33311,0.42087 0.55031,0.13335 0.55005,0.13334 0.62797,0.007 z m 2.35798,-0.38862 c 0,-0.0674 -0.11435,-0.1838 -0.25413,-0.2586 -0.21542,-0.11529 -0.2541,-0.0966 -0.2541,0.12259 0,0.17389 0.0832,0.2586 0.2541,0.2586 0.13978,0 0.25413,-0.0552 0.25413,-0.12259 z m 0.9283,-1.48073 -0.48274,-0.45529 -0.48794,0.54983 -0.48792,0.54982 0.47577,0.43601 0.47578,0.43602 0.4949,-0.53055 0.49488,-0.53055 z m 6.69541,0.70902 c 0,-0.0459 0.11647,-0.13532 0.25879,-0.19883 0.24222,-0.10809 0.22204,-0.1515 -0.31629,-0.67982 l -0.57504,-0.56436 -0.38256,0.36652 c -0.21042,0.20159 -0.38256,0.43714 -0.38256,0.52345 0,0.0863 0.24193,0.364 0.53763,0.61712 0.49504,0.42373 0.55041,0.44273 0.69884,0.23973 0.0887,-0.12125 0.16119,-0.25797 0.16119,-0.30381 z m -4.8215,-0.32433 0.43788,-0.45625 -0.46032,0.26867 c -0.36473,0.21288 -0.52866,0.24267 -0.78962,0.14345 -0.33594,-0.12773 -0.36703,-0.11063 -0.50536,0.27803 -0.0663,0.18646 -0.003,0.22235 0.40021,0.22235 0.38412,0 0.56632,-0.0906 0.91721,-0.45625 z m 7.23569,0.2872 c 0,-0.0231 -0.25837,-0.22753 -0.57412,-0.4543 -0.45929,-0.32984 -0.64974,-0.3957 -0.95213,-0.32928 -0.32329,0.071 -0.35941,0.1178 -0.24948,0.32321 0.10497,0.19609 0.18773,0.21769 0.4508,0.11767 0.24752,-0.0941 0.43119,-0.065 0.79185,0.12547 0.5122,0.27052 0.53308,0.27903 0.53308,0.21723 z m -7.19233,-0.76713 0.49491,-0.29958 -0.39963,-0.29544 c -0.43154,-0.31905 -0.52102,-0.68213 -0.19862,-0.80585 0.39068,-0.14991 0.77112,-0.0734 1.19671,0.24053 0.34279,0.25292 0.58089,0.31766 1.16824,0.31766 0.43368,0 0.73768,-0.0554 0.73768,-0.13433 0,-0.43056 -0.32964,-1.37232 -0.57563,-1.64454 -0.38322,-0.42412 -0.49987,-1.01429 -0.26418,-1.33662 0.1823,-0.24931 0.18685,-0.249 0.48834,0.0342 0.16738,0.15724 0.34121,0.28589 0.38632,0.28589 0.13438,0 0.38698,-0.98145 0.30654,-1.19105 -0.0663,-0.1728 -0.11549,-0.17308 -0.4573,-0.003 -0.30115,0.15024 -0.44162,0.15969 -0.65731,0.0443 -0.2382,-0.12748 -0.26424,-0.22041 -0.19769,-0.70581 0.068,-0.49628 0.0487,-0.55901 -0.17201,-0.55901 -0.13674,0 -0.41539,0.10142 -0.61923,0.22537 -0.37031,0.22521 -0.37039,0.2256 -0.12822,0.52469 0.51629,0.63757 -0.55509,0.92565 -1.25433,0.33728 -0.43024,-0.36204 -1.64777,-0.58862 -1.80406,-0.33573 -0.14079,0.22781 0.12321,1.43481 0.37756,1.7261 0.48574,0.55634 0.47783,1.55015 -0.0114,1.42223 -0.1833,-0.0479 -0.30155,0.0324 -0.43894,0.29803 -0.19148,0.3703 -0.24488,0.78534 -0.11743,0.9128 0.0389,0.0388 0.2653,0.0109 0.50319,-0.0621 0.606,-0.18598 0.87259,0.0471 0.78668,0.68763 -0.097,0.72313 0.0728,0.78626 0.84977,0.31595 z m 2.69523,-0.15423 c -0.0424,-0.11054 -0.0771,-0.24812 -0.0771,-0.30573 0,-0.0576 -0.3002,-0.14511 -0.6671,-0.19443 -0.36687,-0.0493 -0.72424,-0.13252 -0.79412,-0.18488 -0.0699,-0.0524 -0.29279,-0.0253 -0.49532,0.0601 l -0.36825,0.15524 0.55883,0.20463 c 1.30966,0.47955 1.96133,0.57328 1.84308,0.26511 z m 0.85707,-0.46469 c -0.0844,-0.13659 -0.42595,-0.12057 -0.42595,0.02 0,0.0642 0.0353,0.2088 0.0785,0.32139 0.0706,0.18409 0.0951,0.18208 0.24286,-0.02 0.0904,-0.12358 0.1374,-0.26821 0.10454,-0.32139 z m -5.92238,-0.30844 c -0.10089,-0.22142 -0.0845,-0.41949 0.0663,-0.80344 0.11009,-0.28026 0.18396,-0.50957 0.16414,-0.50957 -0.15912,0 -0.70591,1.04693 -0.70591,1.35158 0,0.48184 0.0925,0.57809 0.38193,0.39735 0.18447,-0.1152 0.20214,-0.1976 0.0936,-0.43592 z m 6.13174,-0.41886 c 0,-0.24894 -0.5285,-1.45303 -0.69535,-1.58426 -0.095,-0.0747 -0.20291,-0.25014 -0.2399,-0.38991 -0.037,-0.13977 -0.0472,0.003 -0.0227,0.31765 0.0246,0.31448 0.11673,0.84338 0.20497,1.17532 0.13335,0.50157 0.21053,0.60355 0.45673,0.60355 0.16293,0 0.29625,-0.0551 0.29625,-0.12235 z m -5.70751,-2.41201 c -0.0699,-0.17849 -0.1633,-0.53369 -0.20767,-0.78932 -0.0568,-0.32746 -0.15994,-0.48553 -0.34901,-0.53498 -0.14764,-0.0386 -0.29541,-0.0432 -0.32843,-0.0102 -0.0764,0.0764 0.33499,1.39816 0.59036,1.89656 l 0.19389,0.37839 0.11393,-0.30798 c 0.07,-0.18928 0.065,-0.43305 -0.013,-0.63251 z m 5.95707,-1.09749 c 0.006,-0.48931 -0.0887,-0.58823 -0.40153,-0.4208 -0.19532,0.10453 -0.21487,0.16851 -0.0954,0.31245 0.14602,0.17593 0.12485,0.48778 -0.0684,1.00837 -0.0649,0.17479 0.008,0.13513 0.23321,-0.12706 0.19452,-0.22637 0.3294,-0.54031 0.33213,-0.77296 z m -3.80924,-0.52943 c -0.006,-0.31278 -0.51183,-0.58612 -1.55455,-0.84072 -0.31002,-0.0757 -0.34944,-0.0499 -0.34944,0.229 0,0.2647 0.0752,0.32658 0.47649,0.39196 0.26207,0.0427 0.59084,0.1272 0.73059,0.18776 0.32147,0.13928 0.69945,0.15664 0.69691,0.032 z m 3.9346,-0.69898 0.41402,-0.47662 -0.40791,-0.38105 c -0.22434,-0.20957 -0.47334,-0.38001 -0.5533,-0.37875 -0.14353,0.002 -1.04089,1.00053 -0.95308,1.06027 0.0249,0.017 0.20257,0.12921 0.39473,0.24944 0.1922,0.12023 0.34944,0.30589 0.34944,0.41258 0,0.26221 0.2405,0.10766 0.7561,-0.48587 z m -6.31677,0.21714 c -0.059,-0.30867 -0.0724,-0.31332 -0.30303,-0.10465 -0.18555,0.16792 -0.20391,0.24209 -0.0794,0.32107 0.30382,0.19282 0.4454,0.11271 0.38248,-0.21642 z m -0.36526,-0.34697 0.2621,-0.35234 -0.54182,-0.5371 -0.54181,-0.5371 -0.25813,0.34942 c -0.14197,0.19218 -0.33914,0.34942 -0.43815,0.34942 -0.2804,0 -0.21793,0.14102 0.29525,0.66656 0.54658,0.55977 0.84072,0.57447 1.22256,0.0611 z m 4.53716,-0.0269 c 0.27646,0.0607 0.38552,0.0201 0.49495,-0.1844 0.13052,-0.24384 0.10655,-0.26191 -0.34057,-0.25699 -0.37058,0.004 -0.59759,0.1111 -0.9892,0.46637 l -0.50826,0.46108 0.49424,-0.28197 c 0.34068,-0.19435 0.60444,-0.25777 0.84884,-0.20409 z m -6.36006,-0.443 c -0.10234,-0.19124 -0.21939,-0.23338 -0.49511,-0.17823 -0.2145,0.0429 -0.53586,-0.0123 -0.79163,-0.13606 l -0.43055,-0.20827 0.43991,0.3865 c 0.32613,0.28651 0.56558,0.3865 0.92567,0.3865 0.444,0 0.47424,-0.0215 0.35171,-0.25044 z m 10.30192,-0.37146 c 0.37786,-0.1324 0.85852,-0.31113 1.06815,-0.39719 l 0.38119,-0.15647 -0.38119,-0.11084 c -0.2232,-0.0649 -0.51281,-0.0623 -0.69881,0.006 -0.17473,0.0645 -0.53208,0.15273 -0.79415,0.19613 -0.39976,0.0662 -0.47649,0.12912 -0.47649,0.3908 0,0.37476 0.0285,0.37701 0.9013,0.0712 z m -10.68506,-0.0823 c 0,-0.0229 -0.0586,-0.19589 -0.1303,-0.38438 -0.20969,-0.55153 -0.0456,-0.85254 0.4287,-0.78663 0.22024,0.0306 0.48281,0.0791 0.58348,0.10774 0.34161,0.0972 0.28713,-0.4128 -0.11282,-1.05615 -0.36134,-0.58127 -0.37981,-0.65952 -0.20219,-0.85579 0.10753,-0.11882 0.1955,-0.33573 0.1955,-0.48203 0,-0.28197 -0.72115,-1.31134 -0.9779,-1.3959 -0.21053,-0.0693 -1.08224,1.2727 -0.98734,1.52002 0.0878,0.22885 -0.63285,1.11486 -0.9068,1.11486 -0.19154,0 -0.21532,-0.0962 -0.18058,-0.73061 0.0257,-0.46961 0.0449,-0.45857 -0.47871,-0.27605 -0.5315,0.18528 -0.57124,0.51175 -0.0915,0.75169 0.56718,0.28368 0.57203,0.69759 0.0119,1.02802 -0.3624,0.21383 -0.42842,0.31007 -0.33385,0.48675 0.13192,0.24652 1.02629,0.55831 1.30008,0.45324 0.0975,-0.0374 0.48421,0.0998 0.85928,0.30485 0.56356,0.30819 1.02296,0.39817 1.02296,0.20037 z m 9.24044,-0.38977 c -0.0306,-0.0306 -0.15203,-0.0186 -0.26988,0.0266 -0.19888,0.0763 -0.19793,0.10039 0.0135,0.33552 0.2269,0.25225 0.22802,0.25214 0.26987,-0.0266 0.023,-0.15395 0.0169,-0.30493 -0.0135,-0.33551 z m -16.10179,-0.11944 c 0.31448,-0.16008 0.67564,-0.3691 0.80256,-0.46448 0.22249,-0.16718 0.22214,-0.18123 -0.009,-0.39096 -0.22863,-0.20691 -0.26477,-0.1991 -0.73904,0.15974 -0.27424,0.20751 -0.56864,0.37889 -0.65418,0.38083 -0.0856,0.002 -0.24694,0.18024 -0.35862,0.39621 -0.20124,0.38912 -0.20042,0.39184 0.092,0.30119 0.1623,-0.0503 0.5524,-0.22244 0.86686,-0.38253 z m 3.84363,-0.0558 c -0.22712,-0.13848 -0.41294,-0.33839 -0.41294,-0.44424 0,-0.2067 -0.11575,-0.23758 -0.43352,-0.11564 -0.17531,0.0673 -0.16764,0.12252 0.0618,0.44471 0.20794,0.29201 0.35848,0.3678 0.7298,0.36743 l 0.46784,-5.3e-4 z m 4.7918,-0.35081 c -0.004,-0.35955 -0.11422,-0.60121 -0.45085,-0.98473 l -0.44606,-0.50825 0.26318,0.52102 c 0.19323,0.38253 0.23347,0.60137 0.1514,0.82326 -0.10308,0.27859 0.0177,0.44107 0.45535,0.61272 0.0175,0.007 0.0296,-0.20196 0.027,-0.46402 z m 7.30716,-0.0635 c 0.22156,-0.67844 0.27239,-1.84687 0.0883,-2.03093 -0.13324,-0.13323 -0.42008,0.68457 -0.60094,1.71328 -0.0753,0.42841 -0.0563,0.47648 0.18848,0.47648 0.14973,0 0.2956,-0.0715 0.32412,-0.15883 z m -12.955,-0.72315 c -0.0451,-0.20556 -0.0175,-0.49427 0.0613,-0.64158 0.1396,-0.26084 0.12237,-0.26685 -0.65863,-0.22981 l -0.80195,0.038 -0.0407,0.42505 c -0.0668,0.69749 0.0206,0.78204 0.8092,0.78204 h 0.71292 z m -1.71696,-0.32619 c 0,-0.28415 -0.0269,-0.30195 -0.24767,-0.16406 -0.18392,0.11485 -0.2126,0.1969 -0.1115,0.31873 0.21299,0.25662 0.35917,0.19367 0.35917,-0.15467 z m -0.25413,-0.82854 c 0,-0.085 -1.23539,-0.83705 -1.58827,-0.96687 -0.22326,-0.0821 -0.23352,-0.0681 -0.0844,0.11533 0.0934,0.11485 0.13287,0.2685 0.0878,0.34144 -0.0451,0.0729 -0.0293,0.13263 0.0351,0.13263 0.0644,0 0.32983,0.16906 0.58984,0.37568 0.4,0.31788 0.51019,0.35228 0.7163,0.22356 0.13396,-0.0837 0.24358,-0.18346 0.24358,-0.22177 z m 2.50809,-0.16483 c 0.0743,-0.16307 0.32557,-0.35666 0.56039,-0.43175 l 0.42574,-0.13613 -0.51626,-0.013 c -0.41296,-0.0104 -0.5866,0.0605 -0.86799,0.35418 -0.25479,0.26595 -0.30511,0.38577 -0.18259,0.43469 0.32438,0.1295 0.44691,0.0856 0.58071,-0.20802 z m -0.57526,-0.3331 c 0.41569,-0.44181 0.55013,-0.5058 1.13382,-0.5398 l 0.66223,-0.0386 0.54975,-0.93201 c 0.7172,-1.21597 0.74004,-1.74896 0.10501,-2.45187 -0.38441,-0.42548 -0.44471,-0.57916 -0.44471,-1.1331 0,-0.58607 -0.0338,-0.65935 -0.39534,-0.8573 -0.21743,-0.11905 -0.73395,-0.43086 -1.14784,-0.69293 -1.03971,-0.65833 -1.53831,-0.65115 -2.20514,0.0318 -0.44839,0.45919 -0.5582,0.50847 -1.13758,0.51055 l -0.6413,0.002 -0.60354,1.13443 c -0.767214,1.44206 -0.797456,1.92677 -0.15883,2.54576 0.27755,0.26901 0.44537,0.55301 0.44646,0.75553 0.003,0.58249 0.14359,0.87301 0.49191,1.0173 0.18833,0.078 0.68318,0.36839 1.09972,0.6453 1.0464,0.69571 1.59266,0.69635 2.24538,0.003 z m 2.51434,-0.32552 c 0,-0.0792 0.16655,-0.36744 0.37012,-0.64045 0.28072,-0.37651 0.34102,-0.55075 0.24966,-0.72147 -0.18365,-0.34314 -0.33568,-0.27371 -0.61967,0.28295 -0.1655,0.3244 -0.23046,0.6225 -0.17968,0.82471 0.0597,0.23811 0.0209,0.33833 -0.15637,0.4039 -0.24183,0.0894 -0.42103,0.28318 -0.42447,0.45897 0,0.0545 0.16957,-0.0277 0.37922,-0.18272 0.20966,-0.155 0.38119,-0.34665 0.38119,-0.42589 z m 2.5923,-0.56405 c -0.46495,-1.01713 -0.60804,-1.14043 -0.85998,-0.74102 -0.097,0.15372 -0.045,0.31249 0.21328,0.65104 0.18783,0.24626 0.3415,0.50642 0.3415,0.57814 0,0.18466 0.68998,0.8026 0.7374,0.6604 0.0214,-0.0646 -0.17296,-0.58144 -0.4322,-1.14856 z m -9.07245,-0.3779 c 0,-0.35554 -0.0979,-0.6148 -0.34124,-0.90402 l -0.3412,-0.40552 -0.10999,0.29731 c -0.0893,0.24138 -0.05075,0.34046 0.20492,0.52669 0.17317,0.12616 0.35219,0.39918 0.39775,0.60671 0.1143,0.52034 0.18976,0.47215 0.18976,-0.12117 z m -2.552491,-0.57796 c 0.282046,-0.0895 0.31332,-0.17551 0.185235,-0.50928 -0.06871,-0.17905 -0.132159,-0.15901 -0.444738,0.14044 -0.271013,0.25965 -0.3633,0.46546 -0.359595,0.80199 l 0.005,0.45271 0.174387,-0.40082 c 0.09591,-0.22045 0.293793,-0.43872 0.439737,-0.48504 z m 10.430321,-0.19416 c 0.11959,-0.22349 0.0966,-0.25413 -0.1906,-0.25413 -0.28721,0 -0.3102,0.0306 -0.19058,0.25413 0.0748,0.13977 0.16057,0.25412 0.19058,0.25412 0.03,0 0.11581,-0.11435 0.1906,-0.25412 z m -8.825358,-1.60414 c -0.05353,-0.15675 -0.800391,-0.30409 -1.053703,-0.20787 -0.102606,0.039 -0.15883,0.32899 -0.15883,0.8192 v 0.75888 l 0.349409,-0.0734 c 0.192193,-0.0404 0.435187,-0.0181 0.540014,0.0496 0.157719,0.10173 0.206243,0.008 0.281253,-0.54024 0.04985,-0.36476 0.06868,-0.72751 0.04186,-0.80612 z m 9.248528,0.44244 c 0.0426,-0.3594 0.0363,-0.71676 -0.014,-0.79414 -0.0503,-0.0774 -0.33454,-0.14068 -0.63161,-0.14068 h -0.5402 l 1.9e-4,0.79413 1.6e-4,0.79414 h 0.55406 0.55409 z m 1.01375,-1.95132 0.0696,-0.63531 -0.19502,0.54891 c -0.12131,0.34145 -0.31181,0.60213 -0.50403,0.68971 -0.18574,0.0846 -0.2817,0.21194 -0.24056,0.31915 0.0376,0.0981 0.0684,0.24405 0.0684,0.32434 0,0.0803 0.1647,-0.0245 0.36602,-0.23275 0.27006,-0.27944 0.38428,-0.54531 0.43558,-1.01405 z m -2.32634,0.88641 c 0,-0.0982 -0.10938,-0.23716 -0.24307,-0.3087 -0.13367,-0.0715 -0.33372,-0.37374 -0.44455,-0.67155 l -0.20151,-0.54147 0.0742,0.63531 c 0.0447,0.38312 0.17812,0.74724 0.33597,0.91728 0.2713,0.29227 0.47894,0.27888 0.47894,-0.0309 z m -8.259048,0.14048 c 0,-0.16192 -0.169571,-0.45511 -0.263233,-0.45511 -0.05996,0 -0.170207,0.11435 -0.245005,0.25412 -0.11938,0.22307 -0.09663,0.25413 0.186135,0.25413 0.177165,0 0.322103,-0.0239 0.322103,-0.0531 z m -0.76237,-0.75883 c 0,-0.08 -0.142928,-0.3559 -0.317659,-0.61301 -0.174704,-0.25711 -0.318002,-0.54198 -0.318452,-0.63304 0,-0.0911 -0.171979,-0.26297 -0.381185,-0.38202 -0.209206,-0.11904 -0.380365,-0.18879 -0.380365,-0.155 0,0.13411 0.666855,1.63565 0.85172,1.91779 0.153961,0.23496 0.234976,0.26891 0.371422,0.15566 0.09599,-0.0797 0.174519,-0.21033 0.174519,-0.29038 z m 1.707438,-0.13896 c 0.27815,-0.47466 0.31475,-0.63899 0.21923,-0.98473 l -0.11464,-0.41499 -0.14722,0.36709 c -0.081,0.2019 -0.28725,0.53352 -0.458414,0.73694 -0.263049,0.31261 -0.287258,0.40819 -0.156448,0.61764 0.218678,0.35016 0.281672,0.31931 0.657492,-0.32195 z m 6.40141,-1.27266 c -0.0796,-0.17471 -0.18449,-0.31765 -0.23312,-0.31765 -0.0486,0 -0.34682,-0.19732 -0.66268,-0.43849 -0.51181,-0.3908 -0.60018,-0.41929 -0.8124,-0.26189 -0.2118,0.15708 -0.21707,0.19791 -0.0475,0.36937 0.2423,0.24507 1.53773,0.96097 1.74439,0.96401 0.12042,0.002 0.12301,-0.0703 0.0114,-0.31535 z m -3.97933,-0.44471 c 0.20087,-0.20966 0.30202,-0.38119 0.22476,-0.38119 -0.0772,0 -0.23051,-0.0346 -0.3406,-0.0768 -0.13393,-0.0514 -0.2359,0.0198 -0.30813,0.21501 -0.0613,0.16564 -0.29512,0.35949 -0.54084,0.44833 l -0.43286,0.15651 0.51623,0.01 c 0.41479,0.008 0.58801,-0.0652 0.88144,-0.37152 z m 1.58829,-1.22099 c 0,-0.58654 -0.11885,-0.68494 -0.82725,-0.68494 h -0.67296 l -0.0441,0.62987 -0.044,0.62988 0.63531,0.0372 c 0.69525,0.0407 0.95298,-0.1248 0.95298,-0.61201 z m 0.48966,0.16335 c 0.10195,-0.12283 0.0993,-0.20852 -0.01,-0.31766 -0.23389,-0.2339 -0.35274,-0.17723 -0.35274,0.16821 0,0.34931 0.14658,0.40973 0.36261,0.14945 z m 1.60013,-1.35735 c 0.0736,-5.2e-4 0.2333,-0.17565 0.35493,-0.38936 0.22003,-0.38661 0.21971,-0.38811 -0.0635,-0.30039 -0.3815,0.11815 -1.36686,0.6237 -1.68235,0.86316 -0.25358,0.19244 -0.25358,0.19329 -0.003,0.38002 0.22982,0.17023 0.29813,0.15371 0.75562,-0.18274 0.27665,-0.20343 0.56317,-0.37024 0.63678,-0.37069 z m -3.48748,0.16336 c 0,-0.0455 -0.12433,-0.21498 -0.27628,-0.37672 -0.19441,-0.20696 -0.41087,-0.29101 -0.73059,-0.28371 l -0.45434,0.0104 0.41037,0.17953 c 0.25035,0.10953 0.44124,0.30267 0.48961,0.49533 0.0662,0.26392 0.11882,0.2946 0.32025,0.18681 0.13253,-0.0709 0.24098,-0.16616 0.24098,-0.21161 z" />
    <path
       style="fill:#ff0000;stroke:#000000;stroke-width:0.00820752"
       d="m 407.5588,511.4926 c 0.0177,1.975 -0.0355,3.9794 0.0266,5.93603 1.35912,-0.0163 2.74275,0.0318 4.08709,-0.0234 0.1662,-1.77931 0.61447,-3.65413 0.21288,-5.41696 -1.26236,-0.7059 -2.9566,-0.4686 -4.32658,-0.49566 z"
       id="path2311"
       transform="scale(0.26458333)"
       class="OC" />
    <path
       style="fill:#ff0000;stroke:#000000;stroke-width:0.00220852"
       d="m 416.01627,505.5876 c -0.34169,0.69693 -0.53059,1.46762 -0.85175,2.17781 -0.38494,0.90622 -0.9886,1.78138 -1.90269,2.20792 -0.36778,0.22328 -0.84742,0.5976 -0.69094,1.08951 0.14181,0.42986 0.18382,0.88427 0.3154,1.31372 0.13909,0.0778 0.29763,-0.11766 0.41864,-0.17772 0.98233,-0.75708 1.86571,-1.72485 2.22302,-2.93849 0.32541,-1.06226 0.37055,-2.18351 0.5085,-3.27966 -0.0248,-0.0948 0.0933,-0.35802 -0.0202,-0.39309 z"
       id="path2367"
       transform="scale(0.26458333)"
       class="OC" />
    <path
       style="fill:#ff0000;stroke:#000000;stroke-width:0.00220852"
       d="m 403.74396,505.4487 c 0.0747,1.03372 0.23937,2.06725 0.40392,3.09254 0.26836,1.14892 0.70327,2.383 1.73895,3.0588 0.26197,0.23259 0.76892,0.35892 1.00505,0.0321 0.28944,-0.45959 0.19097,-1.10603 -0.2262,-1.45746 -0.36911,-0.3636 -0.86133,-0.59175 -1.15214,-1.03766 -0.84387,-1.08968 -1.19984,-2.44124 -1.72791,-3.69039 z"
       id="path2368"
       transform="scale(0.26458333)"
       class="OC" />
    <path
       style="fill:#ff0000;stroke:#000000;stroke-width:0.00220852"
       d="m 409.52874,518.40057 c -0.25119,0.0331 -0.6234,-0.0526 -0.78205,0.19929 -0.0491,0.33321 0.20511,0.62923 0.33964,0.91517 0.19106,0.26265 0.3124,0.62461 0.60986,0.78444 0.16778,0.0215 0.235,-0.22643 0.33844,-0.32136 0.2506,-0.40366 0.54934,-0.81203 0.6409,-1.28577 -0.0106,-0.29716 -0.40698,-0.27016 -0.61606,-0.28789 -0.17684,-0.006 -0.35383,-0.005 -0.53073,-0.004 z"
       id="path2369"
       transform="scale(0.26458333)"
       class="OC" />
    <path
       style="fill:#ff0000;stroke:#000000;stroke-width:0.00220852"
       d="m 406.60952,519.88925 c -0.38283,0.0674 -0.59133,0.46521 -0.81415,0.74425 -0.65721,1.02691 -1.25135,2.15446 -1.37919,3.38466 -0.10261,0.63192 0.26711,1.26407 0.0621,1.88052 -0.25432,0.48702 -0.88584,0.51778 -1.27863,0.84749 -0.44762,0.31921 -0.93229,0.7936 -0.91057,1.38407 0.15503,0.12472 0.37002,-0.0654 0.52418,-0.12302 0.81974,-0.48512 1.63728,-1.05258 2.18221,-1.84921 0.19707,-0.33784 0.2384,-0.74347 0.46043,-1.0726 0.62499,-1.17409 1.57566,-2.15306 2.10758,-3.37878 0.11767,-0.4502 0.0441,-0.94843 -0.24569,-1.32055 -0.16539,-0.2351 -0.39659,-0.49769 -0.70828,-0.49683 z"
       id="path2370"
       transform="scale(0.26458333)"
       class="OC" />
    <path
       style="fill:#ff0000;stroke:#000000;stroke-width:0.00220852"
       d="m 412.56494,520.09389 c -0.39991,0.0608 -0.62775,0.46438 -0.84666,0.76547 -0.26301,0.33788 -0.24903,0.80016 -0.0548,1.16673 0.58644,1.23585 1.6768,2.18661 2.11595,3.49464 0.18266,0.67617 0.76276,1.14242 1.23166,1.62584 0.42853,0.38625 0.88404,0.80946 1.44687,0.97366 0.22866,-0.10452 0.0417,-0.41526 0.0217,-0.58957 -0.57927,-1.79698 -1.37173,-3.51802 -2.18757,-5.21798 -0.38632,-0.71845 -0.72244,-1.50704 -1.33909,-2.06333 -0.1106,-0.0865 -0.24381,-0.15916 -0.38813,-0.15546 z"
       id="path2371"
       transform="scale(0.26458333)"
       class="OC" />
    <path
       style="fill:#0000ff;stroke:#000000;stroke-width:0.00557617"
       d="m 415.65807,537.99522 c -0.89214,0.83981 -1.45715,2.25005 -2.76565,2.53019 -0.31326,-0.0943 -0.60091,0.20734 -0.37095,0.48465 0.81446,1.26037 1.98604,2.26457 3.1366,3.21195 0.75394,0.5914 1.84858,0.39196 2.44676,-0.32302 0.60067,-0.608 1.11707,-1.32064 1.59378,-2.01091 -1.34922,-1.29191 -2.64766,-2.65617 -4.04054,-3.89286 z"
       id="path2863"
       transform="scale(0.26458333)"
       class="IC" />
    <path
       style="fill:#0000ff;stroke:#000000;stroke-width:0.00557617"
       d="m 414.22046,531.3145 c 0.37091,1.31689 1.49592,2.58093 1.1869,4.05971 -0.17722,0.62126 -0.35977,1.4157 0.28273,1.85037 0.34653,0.26879 0.79944,0.73548 1.26487,0.63146 0.32003,-0.69942 0.11452,-1.5409 0.0684,-2.28667 -0.28061,-1.71061 -1.60985,-2.98398 -2.7186,-4.2161 -0.0243,-0.0162 -0.0512,-0.0499 -0.0843,-0.0388 z"
       id="path2864"
       transform="scale(0.26458333)"
       class="IC" />
    <path
       style="fill:#0000ff;stroke:#000000;stroke-width:0.00557617"
       d="m 406.21518,540.00177 c -0.0644,0.24797 0.43503,0.46337 0.57613,0.66522 1.02983,0.94606 2.30469,1.78033 3.76587,1.68635 0.47358,-0.0652 1.21331,0.15255 1.51058,-0.32542 -0.13997,-0.663 -0.6631,-1.37761 -1.42868,-1.25616 -1.33541,0.15712 -2.70105,0.0174 -3.90811,-0.61033 -0.16868,-0.0575 -0.33643,-0.14394 -0.51579,-0.15966 z"
       id="path2865"
       transform="scale(0.26458333)"
       class="IC" />
    <path
       style="fill:#0000ff;stroke:#000000;stroke-width:0.00557617"
       d="m 419.73368,543.65002 c -0.5357,0.28617 -1.04929,0.77848 -1.30408,1.33218 0.30119,0.41434 0.91428,0.78695 1.44087,0.67677 0.46207,-0.36972 0.20974,-1.11074 0.1357,-1.61012 -0.0525,-0.1353 -0.095,-0.37826 -0.27249,-0.39883 z"
       id="path2866"
       transform="scale(0.26458333)"
       class="IC" />
    <path
       style="fill:#0000ff;stroke:#000000;stroke-width:0.00557617"
       d="m 418.00877,547.44138 c -0.55473,0.0481 -0.18896,0.78585 -0.16412,1.10798 0.63734,2.45689 1.42864,4.9195 2.71151,7.12122 0.21496,0.31887 0.27947,-0.33019 0.36921,-0.45219 0.54896,-1.16681 0.22842,-2.46193 -0.19882,-3.6066 -0.4456,-1.2471 -0.39854,-2.74995 -1.29695,-3.79337 -0.38458,-0.33744 -0.93421,-0.36702 -1.42083,-0.37704 z"
       id="path2867"
       transform="scale(0.26458333)"
       class="IC" />
    <path
       style="fill:#0000ff;stroke:#000000;stroke-width:0.00557617"
       d="m 422.48735,543.11092 c -0.6659,0.0593 -0.50943,0.99257 -0.4522,1.44893 0.15722,0.82517 1.21469,0.75929 1.83779,0.96264 1.5186,0.2154 2.91541,0.97034 4.44825,1.07484 0.28276,0.0263 0.93174,0.0136 0.75866,-0.44021 -0.51649,-1.26705 -1.99262,-1.68852 -3.15046,-2.16269 -1.1239,-0.35035 -2.26175,-0.79345 -3.44204,-0.88351 z"
       id="path2868"
       transform="scale(0.26458333)"
       class="IC" />
    <path
       style="fill:#808080;stroke:#000000;stroke-width:0.00557617"
       d="m 441.91353,539.12113 c -0.86354,0.44238 -1.44763,1.31754 -2.13905,1.98304 -0.46105,0.59554 -1.13938,1.12974 -1.39179,1.84012 0.89072,0.82772 2.27719,1.25945 2.76325,2.45286 -0.0569,0.29604 0.15569,0.68719 0.49096,0.48769 1.36769,-0.90419 2.36675,-2.26546 3.46131,-3.46782 0.19048,-0.21661 0.553,-0.53913 0.1486,-0.75808 -0.9838,-0.89282 -1.91836,-1.91773 -3.12025,-2.51429 -0.0687,-0.0207 -0.14134,-0.0324 -0.21303,-0.0235 z"
       id="path2869"
       transform="scale(0.26458333)"
       class="OF" />
    <path
       style="fill:#808080;stroke:#000000;stroke-width:0.00557617"
       d="m 436.12412,541.58815 c -1.49366,-0.13841 -2.56893,1.10605 -3.65365,1.92707 -0.20436,0.25751 -0.77239,0.50763 -0.73388,0.84293 1.12607,-0.50099 2.18916,-1.36658 3.50231,-1.26161 0.66507,-0.016 1.33587,0.009 1.99697,-0.0176 0.21143,-0.40375 0.89947,-0.87932 0.64888,-1.39535 -0.54914,-0.19709 -1.18681,-0.0446 -1.76063,-0.0954 z"
       id="path2870"
       transform="scale(0.26458333)"
       class="OF" />
    <path
       style="fill:#808080;stroke:#000000;stroke-width:0.00557617"
       d="m 444.97824,528.3942 c -0.60007,0.31039 -0.70395,1.1362 -0.96935,1.70078 -0.60907,1.9881 -1.18395,4.03027 -1.28246,6.11565 -0.002,0.5684 0.77566,0.31218 1.12743,0.31039 0.95497,-0.0236 1.0565,-1.17794 1.22654,-1.87934 0.36554,-1.9571 0.50481,-4.00582 0.15008,-5.97281 -0.0384,-0.11855 -0.0971,-0.28734 -0.25224,-0.27467 z"
       id="path2871"
       transform="scale(0.26458333)"
       class="OF" />
    <path
       style="fill:#808080;stroke:#000000;stroke-width:0.00557617"
       d="m 444.99589,538.22415 c -0.39024,0.0855 -1.02417,0.17227 -1.1551,0.60837 0.33398,0.52001 0.7511,1.10237 1.27969,1.4082 0.34984,-0.42094 0.27622,-1.10106 0.29863,-1.63147 -0.009,-0.22934 -0.18242,-0.42077 -0.42322,-0.3851 z"
       id="path2872"
       transform="scale(0.26458333)"
       class="OF" />
    <path
       style="fill:#808080;stroke:#000000;stroke-width:0.00557617"
       d="m 453.22291,537.42127 c -1.51679,0.1832 -2.95632,0.77057 -4.46638,1.01395 -0.63438,0.0859 -1.3821,0.44047 -1.33305,1.19822 -0.0699,0.45133 -0.0207,1.27074 0.63734,1.15553 2.05899,-0.37086 3.98163,-1.27921 5.95249,-1.9571 0.63599,-0.29884 1.41047,-0.43248 1.96566,-0.85037 -0.48185,-0.38857 -1.24193,-0.39074 -1.84331,-0.51233 -0.30273,-0.0336 -0.60798,-0.0553 -0.91275,-0.0479 z"
       id="path2873"
       transform="scale(0.26458333)"
       class="OF" />
    <path
       style="fill:#808080;stroke:#000000;stroke-width:0.00557617"
       d="m 442.74625,546.54985 c -0.47376,0.0874 -1.09587,0.31738 -1.25943,0.8081 0.10841,0.66054 0.7257,1.20407 0.53487,1.92874 -0.0236,0.95768 -0.44815,1.88844 -0.60849,2.79097 0.65271,-0.51862 1.19624,-1.25182 1.60685,-1.99 0.45577,-1.03479 0.77818,-2.35573 0.18471,-3.39209 -0.11961,-0.11789 -0.29549,-0.15599 -0.45851,-0.14572 z"
       id="path2874"
       transform="scale(0.26458333)"
       class="OF" />
    <path
       style="fill:#ff00ff;stroke:#000000;stroke-width:0.00557617"
       d="m 419.31394,565.51033 c -1.21863,1.2503 -2.43166,2.55082 -3.5071,3.91661 0.9332,1.20679 2.17404,2.1656 3.31542,3.17558 0.28747,0.20695 0.47664,-0.42836 0.71423,-0.52124 1.02503,-1.09627 2.10143,-2.18414 3.06994,-3.30802 -1.19941,-1.07786 -2.32374,-2.28006 -3.59249,-3.26293 z"
       id="path2875"
       transform="scale(0.26458333)"
       class="IF" />
    <path
       style="fill:#ff00ff;stroke:#000000;stroke-width:0.00557617"
       d="m 420.14732,558.39571 c -0.77655,0.68279 -1.17786,1.72653 -1.68505,2.61797 -0.5987,1.07457 -0.95154,2.30455 -0.70269,3.53564 -0.0193,0.58515 0.69803,0.69616 1.08104,0.3986 0.47711,-0.21683 0.97674,-0.69203 0.71249,-1.26073 -0.3523,-0.86305 -0.54157,-1.82817 -0.16352,-2.71724 0.22407,-0.85773 0.68361,-1.70604 0.79672,-2.5664 -0.0118,-0.007 -0.0256,-0.009 -0.039,-0.008 z"
       id="path2876"
       transform="scale(0.26458333)"
       class="IF" />
    <path
       style="fill:#ff00ff;stroke:#000000;stroke-width:0.00557617"
       d="m 429.17874,567.31322 c -1.16783,0.49049 -2.31244,1.53415 -3.6685,1.16315 -0.56804,-0.0361 -1.34926,-0.66972 -1.78307,-0.0272 -0.21557,0.46009 -0.73673,1.11624 -0.35526,1.60837 0.67414,0.29911 1.48185,0.10626 2.19997,0.0808 1.50737,-0.21905 2.44871,-1.58519 3.48401,-2.5585 0.003,-0.0501 0.28373,-0.23537 0.12285,-0.26661 z"
       id="path2877"
       transform="scale(0.26458333)"
       class="IF" />
    <path
       style="fill:#ff00ff;stroke:#000000;stroke-width:0.00557617"
       d="m 415.97456,571.47944 c -0.40038,0.17739 -0.23427,0.81517 -0.14507,1.14878 0.27801,0.67099 1.42918,0.61435 1.73776,0.0192 -0.20901,-0.55855 -0.85319,-0.90674 -1.37988,-1.13963 -0.0684,-0.0207 -0.14092,-0.037 -0.21281,-0.0283 z"
       id="path2878"
       transform="scale(0.26458333)"
       class="IF" />
    <path
       style="fill:#ff00ff;stroke:#000000;stroke-width:0.00557617"
       d="m 412.92727,570.86019 c -2.33095,0.31934 -4.50485,1.33153 -6.62366,2.30779 -0.22199,0.18175 -0.76479,0.27195 -0.77848,0.59072 0.85436,0.35396 1.78699,0.63289 2.71381,0.68744 0.43333,-0.1428 0.6879,-0.62747 1.18736,-0.6723 1.3055,-0.45247 2.78848,-0.33362 4.02243,-0.98574 0.44359,-0.42765 0.43989,-1.25278 0.13418,-1.75453 -0.16942,-0.17039 -0.43037,-0.18215 -0.65564,-0.17338 z"
       id="path2879"
       transform="scale(0.26458333)"
       class="IF" />
    <path
       style="fill:#ff00ff;stroke:#000000;stroke-width:0.00557617"
       d="m 417.27123,575.1033 c -0.57384,-0.0819 -1.07436,0.35138 -1.06992,0.9327 -0.16481,2.37354 -0.81327,4.80578 -0.22806,7.16668 0.0555,0.22045 0.40427,0.61156 0.52233,0.21085 0.88726,-2.2857 1.49341,-4.68664 1.91398,-7.10068 0.0427,-0.40403 0.21674,-1.20854 -0.42889,-1.19561 -0.23581,-0.0199 -0.47303,-0.0165 -0.70944,-0.0139 z"
       id="path2880"
       transform="scale(0.26458333)"
       class="IF" />
    <path
       style="fill:#ff6600;stroke:#000000;stroke-width:0.00557617"
       d="m 394.8104,530.00802 c -1.41795,0.0295 -2.85482,0.0787 -4.25684,0.19168 -0.12839,1.21081 -0.426,2.49362 -0.0588,3.68463 0.51513,0.96427 1.8032,0.67041 2.69636,0.75922 0.93911,-0.0228 1.95387,0.10988 2.85432,-0.0535 -0.37421,-1.3816 -0.52997,-2.92986 0.15814,-4.23963 0.0352,-0.49439 -0.72748,-0.26785 -1.01591,-0.34183 -0.12574,-0.002 -0.25151,-4.3e-4 -0.37726,-5.8e-4 z"
       id="path2881"
       transform="scale(0.26458333)"
       class="OR" />
    <path
       style="fill:#ff6600;stroke:#000000;stroke-width:0.00557617"
       d="m 399.39331,526.15284 c -1.33016,-0.0909 -2.5647,0.61408 -3.34683,1.65963 -0.18986,0.31965 -0.87045,0.84867 -0.42209,1.21885 0.58775,0.35533 1.58942,0.47622 1.9033,-0.3019 0.58845,-1.19203 1.74634,-1.93596 2.9984,-2.28235 1.26266,-0.31508 0.10194,-0.32307 -0.54748,-0.29751 -0.19511,-10e-4 -0.39023,-10e-4 -0.5853,0.003 z"
       id="path2882"
       transform="scale(0.26458333)"
       class="OR" />
    <path
       style="fill:#ff6600;stroke:#000000;stroke-width:0.00557617"
       d="m 396.73896,535.34698 c -0.44973,0.0201 -1.27129,0.10092 -1.2714,0.68961 0.4702,1.12155 1.3414,2.34752 2.66762,2.44045 0.75512,0.0629 1.60495,0.14173 2.30322,0.0425 -1.00612,-0.72074 -2.33737,-1.22002 -2.93228,-2.3703 -0.20149,-0.46383 0.0109,-1.04074 -0.76716,-0.80223 z"
       id="path2883"
       transform="scale(0.26458333)"
       class="OR" />
    <path
       style="fill:#ff6600;stroke:#000000;stroke-width:0.00557617"
       d="m 386.52021,534.10193 c -1.0288,0.40174 -1.8633,1.22235 -2.81625,1.78155 -0.50428,0.37192 -1.07741,0.63379 -1.6534,0.83837 -0.76786,0.68123 -1.32461,1.63236 -1.65847,2.57724 0.68709,0.16991 1.3698,-0.35732 2.01134,-0.55457 1.91068,-0.90112 3.8718,-1.78918 5.5448,-3.09499 0.43539,-0.40025 -0.28647,-0.82028 -0.52255,-1.09715 -0.2563,-0.2141 -0.55374,-0.45458 -0.90547,-0.45045 z"
       id="path2884"
       transform="scale(0.26458333)"
       class="OR" />
    <path
       style="fill:#ff6600;stroke:#000000;stroke-width:0.00557617"
       d="m 388.99136,531.18925 c -0.474,0.18018 -1.01431,0.50033 -1.22872,0.973 0.14252,0.46409 0.56522,0.98669 1.07233,1.03464 0.54778,-0.30946 0.35901,-1.12548 0.35156,-1.64911 -0.0345,-0.11078 -0.0227,-0.36603 -0.19517,-0.35853 z"
       id="path2885"
       transform="scale(0.26458333)"
       class="OR" />
    <path
       style="fill:#ff6600;stroke:#000000;stroke-width:0.00557617"
       d="m 381.80682,525.1659 c -0.17419,0.1998 0.28764,0.52923 0.35962,0.73754 0.36915,0.42879 0.11783,1.02393 0.14115,1.51123 1.50829,0.55904 2.58877,1.86568 4.0364,2.51798 0.70862,0.16961 1.42769,-0.36812 1.83251,-0.90743 0.11026,-0.40592 -0.56468,-0.52272 -0.76163,-0.7775 -1.76933,-1.15173 -3.56014,-2.35352 -5.55142,-3.08007 -0.0188,-0.002 -0.0378,-0.004 -0.0566,-0.002 z"
       id="path2886"
       transform="scale(0.26458333)"
       class="OR" />
    <path
       style="fill:#00ff00;stroke:#000000;stroke-width:0.00557617"
       d="m 388.98374,494.34495 c -0.20511,1.55714 -0.32243,3.15473 -0.29297,4.71535 1.52905,0.18687 3.14631,0.38823 4.65392,-0.0381 1.10315,-0.32718 1.25229,-1.64256 1.16359,-2.61339 0.0401,-0.73465 -0.22326,-1.65414 -1.06165,-1.79222 -1.45532,-0.3025 -2.99839,-0.2306 -4.46289,-0.27162 z"
       id="path2887"
       transform="scale(0.26458333)"
       class="IR" />
    <path
       style="fill:#00ff00;stroke:#000000;stroke-width:0.00557617"
       d="m 384.85846,490.5695 c -0.1287,0.0196 -0.74791,-0.002 -0.54476,0.23067 1.23022,0.51591 2.64713,1.19293 2.97824,2.62276 0.10283,0.36356 0.43326,0.88301 0.8499,0.53024 0.37662,-0.25256 0.97893,-0.47024 1.09195,-0.94149 -0.69324,-1.16954 -1.76066,-2.36562 -3.23308,-2.37967 -0.37882,-0.0446 -0.76061,-0.0729 -1.14225,-0.0625 z"
       id="path2888"
       transform="scale(0.26458333)"
       class="IR" />
    <path
       style="fill:#00ff00;stroke:#000000;stroke-width:0.00557617"
       d="m 387.72191,499.86514 c -0.67203,0.13694 -0.67762,1.04015 -1.16576,1.4265 -0.67586,0.80206 -1.74119,1.07911 -2.63518,1.50425 0.47199,0.28964 1.16744,0.10225 1.7134,0.13491 1.30736,0.0455 2.42699,-0.74824 3.21163,-1.72888 0.18541,-0.29658 0.64581,-0.61292 0.58361,-0.98304 -0.55936,-0.13709 -1.12781,-0.3384 -1.7077,-0.35374 z"
       id="path2889"
       transform="scale(0.26458333)"
       class="IR" />
    <path
       style="fill:#00ff00;stroke:#000000;stroke-width:0.00557617"
       d="m 395.56492,495.91891 c -0.64788,0.16634 -0.43777,1.0508 -0.42889,1.54347 -0.0201,0.34825 0.37327,1.01541 0.7297,0.57918 0.28829,-0.33195 0.84665,-0.65671 0.8264,-1.13614 -0.24773,-0.4101 -0.64027,-0.88159 -1.12721,-0.98651 z"
       id="path2890"
       transform="scale(0.26458333)"
       class="IR" />
    <path
       style="fill:#00ff00;stroke:#000000;stroke-width:0.00557617"
       d="m 404.22671,489.69691 c -2.25002,0.68432 -4.34066,1.83423 -6.3602,3.02455 -0.49029,0.31412 -0.9912,0.67161 -1.36453,1.1016 0.52451,0.59628 1.40759,1.42276 2.23569,0.84971 1.34911,-0.83641 2.63203,-1.78356 4.05949,-2.48662 0.7483,-0.61882 1.2128,-1.54657 1.57897,-2.42737 0.004,-0.0799 -0.0984,-0.0677 -0.14942,-0.0619 z"
       id="path2891"
       transform="scale(0.26458333)"
       class="IR" />
    <path
       style="fill:#00ff00;stroke:#000000;stroke-width:0.00557617"
       d="m 397.88578,499.15353 c -0.50587,0.11164 -1.10398,0.44122 -1.29166,0.9462 0.18276,0.79483 1.11027,1.11532 1.68395,1.58943 1.65534,1.02158 3.32963,2.09141 5.18606,2.70269 0.51103,0.0818 0.37031,-0.63042 0.19603,-0.88565 -0.30397,-0.71703 -0.71232,-1.44061 -1.47754,-1.73124 -1.3634,-0.77452 -2.48868,-1.94903 -3.93265,-2.57504 -0.11767,-0.0352 -0.24121,-0.0546 -0.36419,-0.0464 z"
       id="path2892"
       transform="scale(0.26458333)"
       class="IR" />
    <path
       style="fill:#ffff00;stroke:#000000;stroke-width:0.00557617"
       d="m 367.8492,501.93094 c -0.22593,0.17787 0.17701,0.59531 0.17729,0.8271 0.95532,2.28976 1.83967,4.65129 3.22003,6.72555 0.19953,0.309 0.59644,0.62165 0.90046,0.23198 0.53872,-0.36726 1.01474,-1.07779 0.58812,-1.70814 -0.74559,-1.47624 -1.86291,-2.80155 -2.31607,-4.40495 -0.64978,-0.78537 -1.6065,-1.36932 -2.56983,-1.67154 z"
       id="path2893"
       transform="scale(0.26458333)"
       class="T" />
    <path
       style="fill:#ffff00;stroke:#000000;stroke-width:0.00557617"
       d="m 379.41364,503.85297 c -0.57885,1.58878 -1.74801,2.8357 -2.62188,4.24987 -0.27591,0.68446 0.2699,1.43774 0.75997,1.87651 0.5887,0.33012 0.93002,-0.56487 1.21456,-0.91659 0.68728,-1.2256 1.69352,-2.48667 1.61251,-3.96495 -0.17231,-0.71066 -0.31462,-1.51982 -0.59181,-2.1453 -0.12445,0.30015 -0.2489,0.60031 -0.37335,0.90046 z"
       id="path2894"
       transform="scale(0.26458333)"
       class="T" />
    <path
       style="fill:#ffff00;stroke:#000000;stroke-width:0.00557617"
       d="m 374.81178,509.77699 c -0.5469,0.35602 -1.01039,1.00675 -1.07297,1.66305 0.52508,0.26697 1.22068,0.0718 1.80245,0.0806 0.47564,-0.041 0.10391,-0.66591 0.0155,-0.90307 -0.1787,-0.29825 -0.3755,-0.75698 -0.74494,-0.84057 z"
       id="path2895"
       transform="scale(0.26458333)"
       class="T" />
    <path
       style="fill:#ffff00;stroke:#000000;stroke-width:0.00557617"
       d="m 373.73772,512.4333 c -0.6029,-0.0877 -1.0434,0.42544 -1.05969,0.99521 -0.1529,1.63731 -0.27758,3.30589 -0.15248,4.94318 1.16093,-0.13564 2.49714,-0.58528 3.58596,0.10064 0.47511,-0.004 0.4679,-0.71851 0.5855,-1.05686 0.18789,-1.31773 0.5098,-2.67035 0.32193,-4.00199 -0.27486,-0.68834 -1.20899,-0.68361 -1.8183,-0.85947 -0.48285,-0.081 -0.97314,-0.12491 -1.46292,-0.12071 z"
       id="path2896"
       transform="scale(0.26458333)"
       class="T" />
    <path
       style="fill:#ffff00;stroke:#000000;stroke-width:0.00557617"
       d="m 371.28878,517.8156 c -0.81978,0.31 -1.38257,1.08763 -1.95471,1.72644 -0.74184,0.9904 -0.65475,2.33505 -0.61338,3.49708 0.30847,-0.18338 0.3585,-0.78227 0.59295,-1.09037 0.41834,-1.04221 1.30171,-1.79379 2.31995,-2.21482 0.57118,-0.38167 0.16245,-1.17266 0.003,-1.67306 -0.0645,-0.13246 -0.1891,-0.26049 -0.34829,-0.24527 z"
       id="path2897"
       transform="scale(0.26458333)"
       class="T" />
    <path
       style="fill:#ffff00;stroke:#000000;stroke-width:0.00557617"
       d="m 378.0636,517.56685 c -0.26982,0.52586 -0.5479,1.17789 -0.50076,1.79701 0.42932,0.92149 1.48678,1.38328 1.92878,2.31672 0.47502,0.68541 0.50935,1.57758 0.90765,2.28057 0.2752,-0.42763 0.19106,-1.09039 0.23072,-1.60095 0.0597,-1.86495 -1.09929,-3.45405 -2.37493,-4.69097 -0.0572,-0.0408 -0.11633,-0.10163 -0.19146,-0.10238 z"
       id="path2898"
       transform="scale(0.26458333)"
       class="T" />
  </g>
  <path
     style="fill:#ffffff;fill-opacity:1;stroke:#000000;stroke-width:0.00171506;stroke-opacity:0"
     d="m 19.117219,17.358177 c -0.07279,0.129345 0.01942,0.313995 0.01042,0.459005 0.07912,0.51009 0.136065,1.048234 0.385242,1.508215 0.131093,0.165663 0.510923,0.170468 0.553775,-0.07048 -0.107767,-0.504767 -0.355512,-0.973349 -0.605361,-1.421821 -0.118832,-0.150281 -0.224081,-0.314904 -0.323649,-0.474318 -0.0064,-0.0024 -0.01389,-0.0027 -0.02043,-5.3e-4 z"
     id="path121"
     class="P" />
  <path
     style="fill:#ffffff;fill-opacity:1;stroke:#000000;stroke-width:0.00171506;stroke-opacity:0"
     d="m 19.629659,19.934309 c -0.140571,-0.0046 -0.241491,0.126489 -0.175525,0.257662 0.04486,0.102071 0.03964,0.294235 0.163131,0.327467 0.151773,-0.09577 0.237551,-0.296281 0.279366,-0.455494 -0.07582,-0.06425 -0.159422,-0.140147 -0.266972,-0.129635 z"
     id="path122"
     class="P" />
  <path
     style="fill:#ffffff;fill-opacity:1;stroke:#000000;stroke-width:0.00171506;stroke-opacity:0"
     d="m 17.294438,19.803001 c -0.216045,0.01805 -0.452805,0.08496 -0.617151,0.225301 0.03265,0.119049 0.237583,0.094 0.326329,0.161592 0.573664,0.190352 1.144913,0.426728 1.748684,0.496964 0.102045,0.0045 0.311648,-0.0028 0.26262,-0.158644 -0.0479,-0.159904 -0.02262,-0.423236 -0.243072,-0.428699 -0.455465,-0.115488 -0.92296,-0.16655 -1.374841,-0.29196 -0.03403,-0.0038 -0.06833,-0.0055 -0.102569,-0.0046 z"
     id="path123"
     class="P" />
  <path
     style="fill:#ffffff;fill-opacity:1;stroke:#000000;stroke-width:0.00171506;stroke-opacity:0"
     d="m 20.427629,20.032189 c -0.251399,0.273505 -0.575551,0.508976 -0.734124,0.852503 0.0505,0.247904 0.310486,0.393089 0.467932,0.57513 0.193333,0.158742 0.377758,0.385977 0.627893,0.441709 0.260559,-0.167339 0.284258,-0.551368 0.598596,-0.658421 0.107799,-0.03292 0.160284,-0.147045 0.05969,-0.224295 -0.291034,-0.363556 -0.645671,-0.668711 -0.983346,-0.987163 l -0.0343,5.29e-4 z"
     id="path124"
     class="P" />
  <path
     style="fill:#ffffff;fill-opacity:1;stroke:#000000;stroke-width:0.00171506;stroke-opacity:0"
     d="m 20.425149,21.967185 c -0.176651,0.04478 -0.0776,0.288591 -0.059,0.409733 0.11448,0.482849 0.391644,0.938811 0.795742,1.228212 0.08486,-0.0669 -0.06638,-0.190254 -0.09319,-0.267978 -0.239067,-0.323046 -0.148635,-0.73882 -0.260006,-1.099444 -0.05942,-0.152919 -0.224197,-0.25721 -0.383543,-0.270523 z"
     id="path125"
     class="P" />
  <path
     style="fill:#ffffff;fill-opacity:1;stroke:#000000;stroke-width:0.00171506;stroke-opacity:0"
     d="m 22.079909,20.618791 c -0.13762,0.0217 -0.425675,0.03414 -0.396674,0.237093 0.03028,0.161666 0.169532,0.331473 0.350716,0.271727 0.278612,-0.09523 0.587677,-0.10057 0.84949,0.04991 0.189823,0.07188 0.364937,0.217141 0.565631,0.244732 0.04413,-0.09757 -0.142729,-0.15168 -0.190531,-0.219072 -0.351872,-0.24914 -0.717654,-0.597993 -1.178632,-0.584391 z"
     id="path126"
     class="P" />
</svg>
