<?xml version="1.0" encoding="UTF-8" standalone="no"?>
<!-- Created with Inkscape (http://www.inkscape.org/) -->

<svg
   width="30.872791mm"
   height="35.79364mm"
   viewBox="0 0 30.872791 35.79364"
   version="1.1"
   id="svg1"
   xmlns="http://www.w3.org/2000/svg"
   xmlns:svg="http://www.w3.org/2000/svg">
  <defs
     id="defs1" />
  <g
     id="layer1"
     transform="translate(-128.41712,-124.86901)">
    <g
       id="g2948">
      <path
         id="path1365"
         style="fill:#000000;stroke-width:0.264583"
         d="m 146.32953,159.47572 v -1.18694 l 0.62971,-0.0223 c 0.50826,-0.018 0.65526,0.0255 0.76237,0.22562 0.35697,0.66703 -0.003,1.53523 -0.63691,1.53523 -0.31422,0 -0.37399,0.0508 -0.37399,0.31766 0,0.19765 -0.072,0.31765 -0.19058,0.31765 -0.15581,0 -0.1906,-0.21659 -0.1906,-1.18693 z m 1.01203,0.0517 c 0.1773,-0.33131 0.16555,-0.54857 -0.0453,-0.83694 -0.15023,-0.20548 -0.20756,-0.21635 -0.38118,-0.0723 -0.23995,0.19916 -0.27022,0.78413 -0.0519,1.0025 0.21307,0.21306 0.32623,0.19098 0.47837,-0.0933 z m -7.48522,0.25274 c -0.31893,-0.31893 -0.35978,-1.33425 -0.0703,-1.7475 0.35441,-0.506 1.46106,-0.48353 1.46106,0.0297 0,0.22702 -0.0582,0.2313 -0.38336,0.0282 -0.51281,-0.32027 -1.05942,0.44977 -0.81108,1.14263 0.11099,0.30969 0.18664,0.34813 0.66522,0.33805 0.42844,-0.009 0.53207,0.0304 0.50173,0.1906 -0.0624,0.32946 -1.03897,0.34259 -1.36324,0.0183 z m 1.803,0.0883 c -0.33692,-0.42114 -0.26136,-1.26775 0.13568,-1.52021 0.26765,-0.1702 0.94067,-0.10585 1.11715,0.10681 0.264,0.31809 0.21929,1.18082 -0.0723,1.39399 -0.30236,0.2211 -1.00989,0.23273 -1.18057,0.0194 z m 0.98539,-0.41295 c 0.12893,-0.3391 -0.0259,-0.95297 -0.24059,-0.95297 -0.37348,0 -0.52178,0.18143 -0.52178,0.63832 0,0.26836 0.0708,0.51262 0.15883,0.54815 0.33176,0.13387 0.48664,0.0739 0.60354,-0.2335 z m 0.76237,-0.30106 v -0.87283 l 0.63532,-0.0143 c 0.41211,-0.009 0.63531,0.0384 0.63531,0.13588 0,0.11427 0.0365,0.11372 0.15248,-0.002 0.22088,-0.22089 0.82283,-0.18894 0.91395,0.0485 0.0424,0.11054 0.0771,0.51078 0.0771,0.88943 0,0.52725 -0.0446,0.68845 -0.19061,0.68845 -0.14605,0 -0.19058,-0.16152 -0.19058,-0.69134 0,-0.38024 -0.0597,-0.72823 -0.13263,-0.77331 -0.27109,-0.16754 -0.50268,0.22173 -0.50268,0.8449 0,0.46618 -0.0472,0.61975 -0.19058,0.61975 -0.14608,0 -0.19061,-0.16152 -0.19061,-0.69134 0,-0.38024 -0.0597,-0.72823 -0.13263,-0.77331 -0.27107,-0.16754 -0.50269,0.22173 -0.50269,0.8449 0,0.46618 -0.0472,0.61975 -0.19058,0.61975 -0.15091,0 -0.1906,-0.18169 -0.1906,-0.87283 z m 4.74996,0.6893 c -0.16645,-0.43373 0.0116,-0.76141 0.48606,-0.89399 0.3465,-0.0968 0.44315,-0.17704 0.36529,-0.30304 -0.0742,-0.12008 -0.22919,-0.14426 -0.518,-0.0808 -0.31774,0.0698 -0.39916,0.0511 -0.35547,-0.0817 0.0312,-0.0949 0.27813,-0.19065 0.54999,-0.21326 0.63272,-0.0526 0.82116,0.19184 0.82116,1.06521 v 0.65798 l -0.64014,0.0144 c -0.44402,0.01 -0.66119,-0.0405 -0.70889,-0.16476 z m 0.81536,-0.22306 c 0.22228,-0.22228 0.18696,-0.35577 -0.0942,-0.35577 -0.27922,0 -0.44246,0.19136 -0.32515,0.38118 0.10398,0.16823 0.23352,0.16038 0.41931,-0.0254 z m 0.87249,0.32189 c -0.19682,-0.19682 -0.059,-0.31102 0.28438,-0.23561 0.52154,0.11455 0.61584,-0.14519 0.14938,-0.41148 -0.46249,-0.26402 -0.56293,-0.47246 -0.38648,-0.80215 0.166,-0.3102 1.01156,-0.35358 1.01156,-0.0519 0,0.14243 -0.0832,0.17212 -0.31763,0.11329 -0.39558,-0.0993 -0.45495,0.26831 -0.0634,0.39258 0.69451,0.22043 0.556,1.07999 -0.17404,1.07999 -0.23048,0 -0.45717,-0.0381 -0.50377,-0.0847 z m 1.39769,0 c -0.19682,-0.19682 -0.059,-0.31102 0.28438,-0.23561 0.52154,0.11455 0.61584,-0.14519 0.14938,-0.41148 -0.46249,-0.26402 -0.56293,-0.47246 -0.38648,-0.80215 0.166,-0.3102 1.01156,-0.35358 1.01156,-0.0519 0,0.14009 -0.0833,0.17211 -0.3038,0.11677 -0.45257,-0.11359 -0.52231,0.15898 -0.0969,0.37895 0.71123,0.36778 0.60896,1.09014 -0.15433,1.09014 -0.23048,0 -0.45718,-0.0381 -0.50377,-0.0847 z m -0.22061,-6.97788 c -0.10903,-0.13137 -0.12546,-0.25715 -0.0473,-0.36223 0.0658,-0.0885 0.30795,-0.41014 0.538,-0.71466 0.42376,-0.56086 0.50427,-1.1114 0.15044,-1.02864 -0.47598,0.11133 -1.04031,0.0555 -1.15035,-0.11375 -0.14732,-0.22662 -0.036,-0.74674 0.22087,-1.0318 0.17137,-0.19022 0.1665,-0.22547 -0.0468,-0.33964 -0.17807,-0.0953 -0.43852,-0.0468 -1.03405,0.1925 -0.92376,0.3712 -1.23386,0.33268 -1.78869,-0.22213 -0.27829,-0.27828 -0.391,-0.5116 -0.391,-0.80935 0,-0.29842 -0.14877,-0.60522 -0.51906,-1.07025 -0.28546,-0.35855 -0.59862,-0.65191 -0.69588,-0.65191 -0.31707,0 -1.19922,1.25184 -1.19922,1.70182 0,0.29514 -0.11621,0.521 -0.419,0.8145 -0.46164,0.44743 -0.65899,0.5007 -0.81594,0.22024 -0.11086,-0.19806 -1.05736,-0.5765 -1.44185,-0.5765 -0.33859,0 -0.41452,0.21497 -0.18947,0.53629 0.10888,0.15544 0.19796,0.44034 0.19796,0.63312 0,0.40148 -0.38179,0.56486 -1.02118,0.43699 -0.32306,-0.0646 -0.37651,-0.0369 -0.37651,0.19541 0,0.27397 0.54581,1.09897 0.85067,1.28575 0.34843,0.2135 0.0808,0.90828 -0.29438,0.7643 -0.0963,-0.037 -0.1751,-0.16227 -0.1751,-0.27846 0,-0.1162 -0.28557,-0.43746 -0.63455,-0.71391 -0.57108,-0.45235 -0.64905,-0.57634 -0.77946,-1.23921 -0.12068,-0.61337 -0.22175,-0.79593 -0.60431,-1.09145 -0.38984,-0.30116 -0.66135,-0.37827 -1.79353,-0.50942 -2.01012,-0.23285 -3.35913,-0.99238 -2.47669,-1.39445 0.47961,-0.21852 0.96367,-0.18234 1.39666,0.10441 0.59055,0.39112 2.0965,0.32139 2.0965,-0.0971 0,-0.41526 -0.54919,-1.67767 -0.7588,-1.74419 -0.33856,-0.10746 -0.5467,-0.68445 -0.56692,-1.57155 -0.0146,-0.63361 -0.0706,-0.84618 -0.26006,-0.98473 -0.32858,-0.24026 -0.35615,-0.22919 -0.57425,0.23066 -0.44111,0.93001 -0.8863,0.8141 -1.48211,-0.38588 -0.0114,-0.0231 -0.13206,0.0174 -0.26792,0.0902 -0.22728,0.12163 -0.56301,0.98507 -0.64828,1.66724 -0.023,0.18396 -0.61937,0.1564 -0.68755,-0.0318 -0.0316,-0.0874 0.0172,-0.24529 0.10882,-0.35096 0.0915,-0.10567 0.17865,-0.50592 0.1937,-0.88943 0.0249,-0.63699 0.0738,-0.74259 0.56455,-1.22089 0.4332,-0.42227 0.54813,-0.63126 0.59396,-1.08003 0.0476,-0.46657 -0.0108,-0.66349 -0.362,-1.21928 -0.7919,-1.25338 -1.09477,-1.97128 -1.1108,-2.6329 -0.0199,-0.81975 0.2531,-0.90834 0.87688,-0.28456 0.33628,0.33628 0.44188,0.54824 0.44188,0.887 0,0.34585 0.12044,0.57756 0.54001,1.03883 0.35539,0.39074 0.60516,0.56648 0.7306,0.51408 0.35941,-0.15014 1.0165,-1.18367 1.0165,-1.5988 0,-0.28462 0.12404,-0.52327 0.43201,-0.83125 0.47546,-0.47546 0.76385,-0.543 0.94401,-0.2211 0.10607,0.18953 0.13242,0.18402 0.25998,-0.0543 0.10935,-0.20433 0.0883,-0.66483 -0.0304,-0.66483 -0.0106,0 -0.19069,0.0492 -0.40053,0.10942 -0.56354,0.16162 -0.95094,-0.0251 -0.95094,-0.45824 0,-0.19635 0.0871,-0.48136 0.19354,-0.63335 0.17598,-0.25123 0.1731,-0.28725 -0.0317,-0.39648 -0.16136,-0.086 -0.45079,-0.0298 -1.01965,0.19806 -0.43688,0.17501 -0.88423,0.2837 -0.99412,0.24153 -0.29593,-0.11355 -0.16174,-0.51551 0.18871,-0.56525 0.167,-0.0237 0.60303,-0.24189 0.96898,-0.48486 0.64156,-0.42598 0.68958,-0.43737 1.34313,-0.31859 0.62473,0.11355 0.70615,0.0993 1.04069,-0.1822 0.19962,-0.16797 0.41132,-0.3054 0.4704,-0.3054 0.0591,0 0.17695,-0.21442 0.26188,-0.47649 0.33917,-1.04664 1.19362,-2.58686 1.61221,-2.90614 0.55918,-0.42649 0.79434,-0.32616 0.79434,0.33893 0,0.41692 -0.0812,0.60317 -0.4032,0.92518 -0.39759,0.39761 -0.74036,1.24069 -0.74036,1.82106 0,0.28394 0.0409,0.29746 0.90115,0.29746 0.70876,0 0.97012,-0.0543 1.22422,-0.25413 0.58179,-0.45763 1.9938,-0.20575 1.58795,0.28326 -0.21674,0.26116 0.14005,1.60999 0.5071,1.9171 0.27229,0.22782 0.27903,0.22496 0.5043,-0.21412 0.12557,-0.24477 0.28927,-0.4827 0.36377,-0.52875 0.26662,-0.16478 0.73634,0.0702 0.9044,0.45241 0.27189,0.61835 0.62722,0.46075 0.92753,-0.41141 l 0.24968,-0.72511 -0.28847,-0.30706 c -0.26641,-0.28357 -0.27265,-0.32287 -0.0818,-0.51375 0.26132,-0.26132 1.19507,-0.27361 1.53019,-0.0201 0.16274,0.1231 0.55999,0.18793 1.16784,0.1906 1.05696,0.005 1.05532,0.007 0.70419,-1.10674 -0.14171,-0.4496 -0.33896,-0.77523 -0.56859,-0.93875 -0.3705,-0.26381 -0.67366,-1.0729 -0.5362,-1.43107 0.26162,-0.68178 1.32294,0.32578 2.15482,2.04566 0.76297,1.57746 1.13704,1.85864 2.30962,1.73608 0.67622,-0.0707 0.81103,-0.0409 1.45267,0.32126 0.40931,0.231 0.79428,0.36578 0.91379,0.31991 0.29234,-0.11218 0.42058,0.29791 0.17116,0.54734 -0.18105,0.18105 -0.24252,0.17881 -0.67069,-0.0244 -0.60188,-0.28562 -1.39134,-0.39537 -1.50627,-0.20941 -0.048,0.0778 0.003,0.26853 0.11059,0.42397 0.10888,0.15545 0.19796,0.43758 0.19796,0.62697 0,0.40929 -0.31951,0.55224 -0.96401,0.43132 -0.39198,-0.0735 -0.43323,-0.0533 -0.4291,0.21029 0.006,0.35567 0.62913,1.17867 0.63011,0.83166 0,-0.15011 0.10017,-0.22236 0.30699,-0.22236 0.42162,0 0.96425,0.66812 0.96425,1.18726 0,0.30001 0.1514,0.57845 0.58243,1.07119 0.32036,0.36619 0.63743,0.63182 0.70466,0.59027 0.0672,-0.0415 0.34833,-0.36157 0.62466,-0.71116 0.35576,-0.45007 0.50244,-0.75829 0.50244,-1.05578 0,-0.32107 0.10483,-0.5122 0.44463,-0.81053 0.58193,-0.51095 0.82598,-0.41707 0.82598,0.31775 0,0.58998 -0.46329,1.65751 -1.16046,2.67398 -0.2698,0.39336 -0.36428,0.68108 -0.36428,1.10917 0,0.51948 0.0561,0.62973 0.55361,1.08834 0.50919,0.46935 0.56029,0.57411 0.63656,1.30501 0.0456,0.43708 0.13955,0.81375 0.20876,0.83704 0.0692,0.0233 0.12581,0.15574 0.12581,0.29433 0,0.19746 -0.0722,0.24328 -0.33345,0.21177 -0.28821,-0.0348 -0.36627,-0.14757 -0.57563,-0.83194 -0.29861,-0.97608 -0.63669,-1.23223 -0.87307,-0.66153 -0.31634,0.76369 -1.00637,0.78969 -1.35856,0.0512 -0.16589,-0.34789 -0.24537,-0.40514 -0.4273,-0.30777 -0.26951,0.14424 -0.53658,0.88961 -0.42394,1.18315 0.14557,0.37936 -0.0819,1.11979 -0.44942,1.46288 -0.3111,0.2904 -0.76817,1.42718 -0.76817,1.91049 0,0.0883 0.34131,0.13927 0.93353,0.13927 0.75115,0 0.99076,-0.0496 1.22653,-0.25412 0.46918,-0.40692 1.65179,-0.27964 1.65179,0.17778 0,0.35809 -0.97544,0.85013 -2.17672,1.098 -0.65472,0.1351 -1.33335,0.24793 -1.50808,0.25074 -0.17949,0.003 -0.51723,0.19077 -0.77658,0.43201 -0.38491,0.35807 -0.46915,0.5332 -0.52226,1.08597 -0.0548,0.56982 -0.14134,0.73952 -0.63936,1.25323 -0.31681,0.32679 -0.61455,0.72281 -0.66162,0.88005 -0.1,0.33397 -0.3488,0.36993 -0.58555,0.0846 z m 1.43828,-1.49169 c 0.2931,-0.31788 0.31027,-1.16336 0.0214,-1.05249 -0.11055,0.0424 -0.25802,0.0771 -0.32774,0.0771 -0.0753,0 -0.0921,0.15787 -0.0414,0.38889 0.0665,0.3026 0.008,0.50699 -0.2618,0.9212 l -0.34719,0.53231 0.36719,-0.31294 c 0.20193,-0.17212 0.46723,-0.42146 0.58952,-0.55409 z m -11.34928,0.13642 c -0.29295,-0.40379 -0.3797,-0.64418 -0.34396,-0.95296 0.0308,-0.26594 -0.007,-0.41295 -0.10689,-0.41295 -0.0851,0 -0.24916,-0.0363 -0.36462,-0.0806 -0.18108,-0.0695 -0.1982,-0.0128 -0.12459,0.41295 0.0637,0.36814 0.2354,0.62945 0.67603,1.02864 0.32489,0.29432 0.60534,0.53733 0.62326,0.54001 0.018,0.003 -0.14375,-0.23812 -0.35923,-0.53513 z m 11.8405,-1.82145 c 0.34131,-0.25055 0.62058,-0.53875 0.62058,-0.64046 0,-0.27256 -0.52652,-0.937 -0.74252,-0.937 -0.19974,0 -0.99992,0.55035 -1.25371,0.86229 -0.12514,0.15383 -0.0969,0.23379 0.15132,0.42907 0.16782,0.13201 0.34097,0.35288 0.38473,0.49083 0.0438,0.13794 0.11099,0.25081 0.14933,0.25081 0.0383,0 0.34896,-0.205 0.69027,-0.45554 z m -12.21269,-0.0435 c 0,-0.13469 0.14296,-0.35734 0.31766,-0.49477 0.1747,-0.13743 0.31766,-0.27916 0.31766,-0.31496 0,-0.12184 -1.27042,-0.97836 -1.45113,-0.97836 -0.18355,0 -0.70893,0.73998 -0.70893,0.99849 0,0.16882 1.13631,1.0268 1.36591,1.03135 0.0874,0.002 0.15883,-0.10705 0.15883,-0.24175 z m 9.70868,-0.64453 c 0.17282,0 0.34956,0.0572 0.39274,0.12706 0.12608,0.20399 0.27416,0.14884 0.49168,-0.1831 0.2032,-0.31016 0.2032,-0.31017 -0.35785,-0.39431 -0.4875,-0.0731 -0.62474,-0.0375 -1.0463,0.27139 -0.74586,0.54653 -0.7757,0.58859 -0.26693,0.37618 0.25982,-0.10847 0.6138,-0.19722 0.78666,-0.19722 z m -0.70642,-0.31548 c 0.67829,-0.41808 0.75547,-0.4366 1.39584,-0.33493 0.61256,0.0973 0.71223,0.0787 1.03484,-0.19277 0.19635,-0.16521 0.41116,-0.30038 0.47736,-0.30038 0.0662,0 0.19312,-0.24301 0.28205,-0.54001 0.22965,-0.76697 0.9939,-2.26049 1.35231,-2.64274 0.2237,-0.23858 0.32536,-0.53145 0.38605,-1.11234 0.0756,-0.72372 0.1279,-0.83042 0.63606,-1.29881 0.48786,-0.4497 0.55361,-0.57495 0.55361,-1.05459 0,-0.38664 -0.11054,-0.7186 -0.38166,-1.14611 -0.20992,-0.331 -0.52176,-0.87825 -0.69294,-1.21611 -0.17121,-0.33786 -0.39971,-0.64822 -0.50779,-0.68969 -0.10806,-0.0415 -0.19534,-0.14866 -0.19397,-0.23821 0.003,-0.0896 -0.29117,-0.4227 -0.65016,-0.74034 -0.57801,-0.51144 -0.665,-0.65531 -0.76017,-1.25742 -0.16243,-1.02744 -0.59436,-1.33378 -2.14937,-1.52437 -0.66418,-0.0814 -1.38525,-0.17893 -1.60234,-0.21673 -0.3628,-0.0632 -0.40135,-0.0356 -0.47649,0.3401 -0.045,0.22485 -0.0818,0.59451 -0.0818,0.82147 0,0.32628 -0.1197,0.52297 -0.57179,0.93969 -0.51342,0.47325 -0.57176,0.5849 -0.57176,1.09375 0,0.43311 0.10739,0.7346 0.45564,1.279 1.02917,1.60883 1.29389,2.64438 0.87929,3.43938 -0.10441,0.20017 -0.19016,0.60017 -0.19061,0.88888 0,0.45236 -0.0787,0.60168 -0.56425,1.08003 -0.80018,0.78826 -0.8227,1.30787 -0.10459,2.41259 0.66495,1.02298 1.04288,1.85497 1.04645,2.30378 0.004,0.45292 0.13391,0.44079 1.00015,-0.0931 z m -6.98052,0.043 c 0.71916,0.21547 0.7679,0.17311 0.20185,-0.17552 -0.48943,-0.30146 -1.09702,-0.39736 -1.51099,-0.2385 -0.17602,0.0675 -0.17383,0.1074 0.0199,0.36425 0.20153,0.26715 0.23918,0.27426 0.51067,0.0964 0.24,-0.15726 0.38103,-0.16571 0.77856,-0.0466 z m 12.90804,-0.0463 c 0.48919,-0.10303 1.0595,-0.25724 1.26735,-0.34267 l 0.37793,-0.15535 -0.44145,-0.10597 c -0.24279,-0.0583 -0.49864,-0.0998 -0.56851,-0.0923 -0.0699,0.007 -0.51301,0.0438 -0.98473,0.0805 -0.47173,0.0367 -0.85844,0.10479 -0.85942,0.15124 0,0.0464 -0.0362,0.21311 -0.0783,0.37035 -0.0933,0.34816 0.0362,0.35763 1.28717,0.0941 z m -17.28613,-0.22121 c -0.1306,-0.43221 -0.17979,-0.45304 -1.13784,-0.48172 -1.00182,-0.03 -1.79134,0.10712 -1.61756,0.2809 0.14296,0.14296 1.71117,0.45887 2.35672,0.47476 0.44593,0.011 0.47808,-0.0111 0.39868,-0.27394 z m 5.84875,-0.98474 c 0.19449,-0.38436 0.51749,-0.93785 0.71773,-1.22998 0.26662,-0.38894 0.36409,-0.6825 0.36409,-1.09649 0,-0.51334 -0.051,-0.60715 -0.55472,-1.01992 -0.51771,-0.42421 -0.56079,-0.50789 -0.64508,-1.2529 -0.0497,-0.43908 -0.15431,-0.87542 -0.23249,-0.96964 -0.0782,-0.0942 -0.12594,-0.43542 -0.1061,-0.75822 0.0368,-0.59886 0.34179,-1.31002 1.10802,-2.5838 0.62757,-1.04327 0.59838,-1.56344 -0.12578,-2.24218 -0.51538,-0.48307 -0.56269,-0.58227 -0.64527,-1.35349 -0.049,-0.45771 -0.12948,-0.85714 -0.17877,-0.88762 -0.0493,-0.0305 -0.46131,0.0476 -0.91554,0.17359 -0.45421,0.12595 -1.18311,0.27047 -1.61976,0.32115 -0.66246,0.0769 -0.87741,0.16709 -1.29809,0.54476 -0.45681,0.41007 -0.50419,0.51087 -0.50419,1.07256 0,0.5812 -0.0397,0.65652 -0.63532,1.20517 -0.34941,0.32187 -0.63529,0.69285 -0.63529,0.8244 0,0.13156 -0.0799,0.26985 -0.17756,0.30732 -0.0976,0.0375 -0.45157,0.53219 -0.7865,1.09938 -0.51541,0.87287 -0.60365,1.11733 -0.57449,1.59173 0.0293,0.47567 0.11943,0.64189 0.59592,1.09844 0.52559,0.50361 0.56144,0.58095 0.56144,1.21141 0,0.5889 0.0549,0.73417 0.43691,1.15707 0.24032,0.266 0.69093,1.00323 1.00139,1.6383 0.42754,0.87461 0.68908,1.24496 1.07826,1.52688 0.44932,0.32548 0.56674,0.35702 0.93546,0.25126 0.69638,-0.19971 1.08249,-0.14052 1.71979,0.26364 l 0.6064,0.38458 0.078,-0.28928 c 0.0429,-0.1591 0.23706,-0.60375 0.43159,-0.98812 z m 0.0653,1.08003 c 0.087,-0.10483 0.23693,-0.19059 0.33321,-0.19059 0.0963,0 0.17503,-0.0776 0.17503,-0.17233 0,-0.0948 0.20013,-0.43441 0.44471,-0.75474 0.51377,-0.67286 0.52697,-0.73799 0.20788,-1.02676 -0.22365,-0.20241 -0.24744,-0.19819 -0.42664,0.0756 -0.23717,0.36231 -0.83439,1.5369 -0.99134,1.94969 -0.13123,0.3452 0.0138,0.41237 0.25715,0.11912 z m 3.75287,-1.04494 c -0.25164,-0.47354 -0.53967,-0.96957 -0.64008,-1.10227 -0.17721,-0.23425 -0.18973,-0.23241 -0.4296,0.0635 l -0.24707,0.30481 0.43373,0.52963 c 0.23858,0.2913 0.43376,0.62149 0.43376,0.73375 0,0.11227 0.13737,0.25636 0.3053,0.32021 0.16794,0.0638 0.3524,0.19108 0.40998,0.28274 0.0806,0.12839 0.11461,0.11637 0.14808,-0.0524 0.0238,-0.12046 -0.16248,-0.60648 -0.4141,-1.08003 z m 5.77676,0.9918 c 0,-0.0642 0.0347,-0.20711 0.0771,-0.31766 0.0603,-0.15708 -0.0103,-0.20098 -0.32358,-0.20098 h -0.40071 l 0.22831,0.31367 c 0.2341,0.32167 0.41886,0.41208 0.41886,0.20497 z m -14.63067,-0.6561 c -0.42404,-0.10864 -0.50162,-0.0277 -0.33149,0.34567 l 0.14864,0.3262 0.24098,-0.29762 c 0.23921,-0.29541 0.23879,-0.29818 -0.0581,-0.37425 z m 14.4585,-0.44738 c 0.19415,-0.0521 0.31851,-0.24348 0.43228,-0.66534 0.0878,-0.32572 0.23106,-0.67799 0.31824,-0.78281 0.10695,-0.12859 0.12827,-0.35594 0.0655,-0.69884 l -0.093,-0.50825 -0.59307,1.19787 c -0.74678,1.5084 -0.75723,1.62569 -0.12991,1.45737 z m -14.64733,-1.32665 c -0.75869,-1.43894 -0.93617,-1.61088 -0.93617,-0.90693 0,0.28397 0.0549,0.55022 0.12194,0.59167 0.0671,0.0414 0.22045,0.38789 0.34084,0.76987 0.20852,0.66143 0.23942,0.69451 0.6491,0.69451 h 0.43016 z m 7.52972,-0.22583 c -0.11215,-0.0224 -0.32062,-0.0224 -0.46325,0 -0.24842,0.0391 -0.25027,0.0537 -0.044,0.34638 l 0.21534,0.30559 0.24792,-0.30559 c 0.21735,-0.26791 0.22278,-0.31061 0.044,-0.34638 z m 0.22747,-0.22692 c 0.15615,-0.0599 0.20097,-0.27094 0.20097,-0.94635 v -0.86924 l -0.3598,0.12544 c -0.23588,0.0822 -0.47289,0.0824 -0.68805,5.3e-4 -0.40018,-0.15216 -0.47689,-0.0104 -0.47689,0.88127 0,0.4551 0.0588,0.65284 0.22236,0.74812 0.25072,0.14604 0.79944,0.17599 1.10141,0.0601 z m 11.93948,-2.1323 c -0.0697,-0.59295 -0.15354,-0.77854 -0.47339,-1.04768 -0.36352,-0.30588 -0.39474,-0.31181 -0.48139,-0.0915 -0.15809,0.40186 -0.12223,0.49311 0.24874,0.63313 0.27897,0.1053 0.39648,0.26853 0.52578,0.73034 0.21561,0.77009 0.28673,0.68159 0.18026,-0.2243 z m -13.37125,0.49409 c 0.0106,-0.10483 0.0249,-0.24967 0.0317,-0.32187 0.007,-0.0722 -0.12898,-0.20192 -0.30221,-0.28828 -0.1833,-0.0914 -0.41081,-0.39497 -0.54438,-0.72639 l -0.22947,-0.56939 0.0644,0.68826 c 0.0488,0.52092 0.1483,0.77578 0.40933,1.04826 0.38685,0.40377 0.54248,0.44999 0.57055,0.16941 z m 2.41869,-0.15883 c 0.24691,-0.26526 0.34266,-0.53303 0.39756,-1.11179 l 0.0723,-0.76237 -0.22453,0.63531 c -0.16462,0.46585 -0.32766,0.68615 -0.61118,0.8259 -0.33798,0.16659 -0.37034,0.22659 -0.25691,0.47648 0.16618,0.36623 0.22862,0.35986 0.62272,-0.0635 z m 7.46733,-0.51928 c 0.003,-0.0934 0.17728,-0.23461 0.38693,-0.31375 0.39367,-0.14859 0.42995,-0.23602 0.26861,-0.6473 -0.0883,-0.22508 -0.12142,-0.21646 -0.4876,0.12707 -0.31936,0.29956 -0.40585,0.49931 -0.46228,1.06737 -0.0671,0.6754 -0.0634,0.68606 0.10959,0.31766 0.0985,-0.20966 0.18161,-0.45763 0.18475,-0.55105 z m -20.55315,-0.39164 c 0.32835,-0.11447 0.34473,-0.1502 0.2072,-0.45205 l -0.14933,-0.32775 -0.42267,0.40968 c -0.36158,0.35044 -0.42135,0.49338 -0.41336,0.98831 l 0.009,0.57862 0.20614,-0.53626 c 0.14583,-0.37943 0.31038,-0.57261 0.56266,-0.66055 z m 2.97458,0.0628 c -0.0377,-0.15011 -0.23458,-0.39571 -0.43754,-0.54577 l -0.36901,-0.27283 -0.14386,0.31575 c -0.13184,0.28934 -0.1121,0.32682 0.23601,0.44818 0.29115,0.10148 0.41738,0.25584 0.54028,0.66055 l 0.16036,0.52811 0.0411,-0.43053 c 0.0228,-0.23679 0.0103,-0.55335 -0.0274,-0.70346 z m 7.96036,-0.12577 c 0.25937,-0.54388 0.65445,-0.68965 1.00743,-0.37173 0.14279,0.1286 0.30707,0.35793 0.3651,0.50963 0.18523,0.48421 0.56173,0.23099 0.80526,-0.54158 0.21256,-0.6743 0.21148,-0.70048 -0.0433,-1.05834 -0.1437,-0.20181 -0.26128,-0.53646 -0.26128,-0.74367 0,-0.41254 -0.91001,-1.68055 -1.20605,-1.68055 -0.30575,0 -1.20811,1.2104 -1.20811,1.62054 0,0.20799 -0.11435,0.52356 -0.25413,0.70124 -0.13976,0.17769 -0.25414,0.40692 -0.25414,0.50941 0,0.31452 0.3795,1.2821 0.54378,1.38648 0.24497,0.15565 0.28609,0.12869 0.50548,-0.33143 z m -9.4906,-0.45243 c 0.17928,0.0682 0.35081,0.12392 0.38118,0.12392 0.0304,0 0.0553,-0.39765 0.0553,-0.88367 v -0.88368 l -0.45444,-0.0853 c -0.25633,-0.0481 -0.58868,-0.0241 -0.76237,0.055 -0.27483,0.12522 -0.30793,0.22028 -0.30793,0.88422 0,0.40916 0.0345,0.77839 0.0766,0.82052 0.0421,0.0421 0.21365,0.0245 0.38119,-0.0392 0.18782,-0.0714 0.42952,-0.0683 0.6305,0.008 z m 21.40167,-0.79728 v -0.85767 h -0.68511 c -0.76505,0 -0.8395,0.0789 -0.8395,0.88944 0,0.76981 0.0562,0.8259 0.8273,0.8259 h 0.69744 z m -12.31797,-1.85449 c 0.45257,-0.67772 0.49339,-0.798 0.34922,-1.02887 -0.0898,-0.14378 -0.20203,-0.26142 -0.24939,-0.26142 -0.19519,0 -1.25042,1.99097 -1.25042,2.35925 0,0.33194 0.56665,-0.19451 1.15059,-1.06896 z m 2.75473,-0.17491 c -0.3089,-0.57117 -0.62703,-1.06029 -0.70691,-1.08692 -0.0799,-0.0266 -0.21087,0.0955 -0.29101,0.27142 -0.12817,0.28128 -0.0977,0.38046 0.2523,0.82241 0.21892,0.2764 0.40024,0.58009 0.40294,0.67486 0.003,0.0948 0.18851,0.28898 0.41293,0.43158 0.60386,0.38369 0.58597,0.1 -0.0703,-1.11335 z m -11.78721,0.82232 c -0.003,-0.0524 -0.088,-0.20629 -0.19058,-0.34195 -0.18468,-0.24415 -0.18843,-0.24415 -0.37311,0 -0.27207,0.35971 -0.239,0.43724 0.18655,0.43724 0.20966,0 0.37936,-0.0429 0.37714,-0.0953 z m 20.89476,-0.22127 c -0.2222,-0.33913 -0.35463,-0.32283 -0.5646,0.0695 -0.11943,0.22317 -0.0885,0.24704 0.31991,0.24704 h 0.45212 z m -21.91669,-0.42813 c 0.091,-0.17001 0.0164,-0.35183 -0.31697,-0.77317 -0.23976,-0.30299 -0.43778,-0.64291 -0.44005,-0.75537 -0.003,-0.11246 -0.20426,-0.29822 -0.44884,-0.41279 -0.43834,-0.20534 -0.44347,-0.20443 -0.36057,0.0635 0.1221,0.39478 0.67913,1.48584 0.96662,1.89338 0.25736,0.36482 0.3982,0.36117 0.59981,-0.0156 z m 2.17099,-0.43977 c 0.45479,-0.79295 0.51816,-1.49625 0.1256,-1.39359 -0.13976,0.0366 -0.25411,0.15218 -0.25411,0.25697 0,0.10478 -0.19796,0.46016 -0.43987,0.78973 -0.41127,0.56023 -0.42722,0.61728 -0.24543,0.87682 0.24514,0.34998 0.34732,0.28343 0.81381,-0.52993 z m 18.80597,0.54494 c 0.11505,-0.21499 0.0572,-0.38273 -0.34496,-0.99996 -0.73165,-1.12297 -1.27577,-1.37117 -0.934,-0.42606 0.21431,0.59271 0.88122,1.68435 1.02901,1.68435 0.0614,0 0.17391,-0.11625 0.24995,-0.25833 z m 2.38906,-0.86321 c 0.63119,-1.19032 0.67527,-1.62915 0.10782,-1.07327 -0.19786,0.19383 -0.56192,0.62939 -0.80907,0.96792 -0.39481,0.54078 -0.43188,0.65381 -0.30552,0.93118 0.0791,0.17362 0.21426,0.29221 0.30031,0.26352 0.0861,-0.0287 0.40396,-0.51889 0.70646,-1.08935 z m -11.98867,-0.88871 c -0.10091,-0.0224 -0.30017,-0.0224 -0.4428,0 -0.24763,0.0389 -0.24972,0.0545 -0.0463,0.34319 l 0.21309,0.3024 0.22971,-0.3024 c 0.18939,-0.24935 0.19751,-0.30955 0.0463,-0.34319 z m -7.12623,-1.88576 0.0779,-0.52887 -0.36571,0.13804 c -0.32245,0.12171 -0.35388,0.17919 -0.26588,0.48603 0.0642,0.22387 0.043,0.43126 -0.0593,0.58143 -0.60354,0.88574 -0.61401,0.98799 -0.0434,0.42402 0.44191,-0.4368 0.59685,-0.69662 0.65638,-1.10065 z m 7.57515,0.75123 3e-5,-0.85767 -0.73065,0.01 -0.73062,0.01 -0.039,0.67379 c -0.0561,0.9691 -0.0151,1.02173 0.79735,1.02173 h 0.70283 z m 6.78855,-0.0961 c -0.25691,-0.33679 -0.32179,-0.5358 -0.26591,-0.81532 0.0652,-0.32596 0.0279,-0.38581 -0.31469,-0.50525 -0.33343,-0.11623 -0.37783,-0.10723 -0.31237,0.0633 0.042,0.10935 0.0763,0.33349 0.0763,0.49809 0,0.18081 0.1886,0.478 0.47649,0.75087 0.60936,0.57758 0.77751,0.58167 0.34018,0.008 z m -8.3493,-1.14237 c -0.0151,-0.007 -0.1787,-0.0772 -0.3634,-0.15632 -0.22128,-0.0948 -0.40574,-0.33117 -0.54065,-0.6928 l -0.20477,-0.54891 0.0676,0.69884 c 0.0558,0.57669 0.13811,0.76359 0.47085,1.06925 l 0.40322,0.37042 0.0974,-0.36403 c 0.0535,-0.20021 0.0849,-0.36962 0.0698,-0.37645 z m 2.64007,0.0156 c 0.0235,-0.0787 0.0726,-0.4575 0.10916,-0.84186 l 0.0664,-0.69884 -0.25114,0.65635 c -0.19238,0.50273 -0.33745,0.68643 -0.61989,0.78488 -0.33832,0.11794 -0.35647,0.15449 -0.22014,0.44337 l 0.14859,0.31484 0.36214,-0.25786 c 0.19918,-0.14183 0.38137,-0.32222 0.40487,-0.40088 z m -8.33126,-0.59229 c 0.69271,-0.54755 0.70861,-0.67343 0.16397,-1.29783 -0.29232,-0.33509 -0.53864,-0.27272 -1.21614,0.30796 l -0.61685,0.52868 0.32933,0.17255 c 0.18114,0.0949 0.36486,0.31406 0.40825,0.487 0.0434,0.17295 0.12478,0.31444 0.18082,0.31444 0.056,0 0.39381,-0.23076 0.75062,-0.5128 z m 13.73206,0.0433 c 0,-0.11848 0.14769,-0.36955 0.32817,-0.55794 l 0.32816,-0.34253 -0.60055,-0.45856 c -0.33031,-0.25221 -0.70202,-0.45856 -0.82606,-0.45856 -0.2118,0 -0.75446,0.7061 -0.75446,0.98172 0,0.13105 1.24595,1.05127 1.42338,1.05127 0.0557,0 0.10136,-0.0969 0.10136,-0.2154 z m -15.9667,-0.58821 c 0.19894,0.10287 0.37068,0.16853 0.38166,0.14591 0.0109,-0.0226 0.089,-0.16517 0.17346,-0.31676 0.14372,-0.2581 0.12166,-0.281 -0.34687,-0.36016 -0.42868,-0.0724 -0.59174,-0.0253 -1.13824,0.32879 -0.35081,0.22732 -0.63785,0.42675 -0.63785,0.44317 0,0.0164 0.27138,-0.0732 0.60309,-0.19907 0.54118,-0.20543 0.64018,-0.20973 0.96475,-0.0419 z m 4.88312,-0.4146 c 0.53713,-0.11095 1.1208,-0.28019 1.29704,-0.3761 l 0.32044,-0.17438 -0.34192,-0.005 c -0.18807,-0.003 -0.37968,-0.0662 -0.42582,-0.14081 -0.0464,-0.0751 -0.17754,-0.0936 -0.29337,-0.0414 -0.11523,0.0519 -0.54872,0.12723 -0.96332,0.16749 -0.68922,0.0669 -0.76177,0.10314 -0.84667,0.42262 -0.11184,0.42071 -0.084,0.42399 1.25362,0.1477 z m 12.79893,0.0203 c 0.20966,-0.003 0.55271,0.0382 0.76237,0.0923 0.28699,0.074 0.21992,0.004 -0.27149,-0.28182 -0.51903,-0.30225 -0.74668,-0.36481 -1.1118,-0.30557 -0.51242,0.0832 -0.51311,0.0841 -0.32229,0.44065 0.0955,0.17852 0.20092,0.22619 0.34941,0.15805 0.11694,-0.0537 0.38414,-0.10027 0.5938,-0.10357 z m -4.00418,-0.0409 c 0,-0.0524 -0.0347,-0.21796 -0.0749,-0.36787 -0.0651,-0.24263 -0.1801,-0.27807 -1.04653,-0.32258 -0.55044,-0.0283 -1.16213,0.0145 -1.40777,0.0984 -0.41674,0.14235 -0.42222,0.15224 -0.13496,0.24341 0.38677,0.12276 2.0094,0.41762 2.37998,0.43248 0.15724,0.006 0.28511,-0.0314 0.28416,-0.0838 z m -10.54637,-0.50825 c 0,-0.0874 -0.141,-0.15883 -0.3157,-0.15883 -0.37293,0 -0.39492,0.0852 -0.10464,0.40595 0.16422,0.18149 0.23651,0.19832 0.3157,0.0735 0.0565,-0.089 0.10358,-0.2333 0.10464,-0.32066 z m 11.43307,-0.0234 c 0.1878,-0.35091 0.16933,-0.38954 -0.18613,-0.38954 -0.32671,0 -0.37426,0.0859 -0.24054,0.43432 0.10377,0.27042 0.26715,0.25327 0.42667,-0.0448 z m -11.22508,-1.45795 c 0.0865,-0.33895 0.21841,-0.67749 0.29324,-0.75231 0.0748,-0.0748 0.13605,-0.36031 0.13605,-0.63443 0,-0.41288 -0.0305,-0.47305 -0.17799,-0.3507 -0.18246,0.15144 -1.00552,1.76523 -1.14779,2.25055 -0.0724,0.24701 -0.0437,0.2633 0.32996,0.18689 0.36209,-0.074 0.42744,-0.15483 0.56653,-0.7 z m 11.34549,0.21074 c -0.20944,-0.55497 -0.97726,-1.88324 -1.19134,-2.06091 -0.17007,-0.14114 -0.19523,-0.0965 -0.19523,0.34622 0,0.28096 0.0797,0.57436 0.17811,0.65608 0.098,0.0813 0.21281,0.28592 0.25514,0.45467 0.20019,0.79753 0.31525,0.95336 0.704,0.95336 0.36312,0 0.37495,-0.0166 0.24932,-0.34942 z m -20.97595,-3.88706 c -0.33968,-0.23051 -0.5075,-0.27202 -0.74488,-0.18421 -0.83027,0.30714 -1.79893,-0.30303 -1.97552,-1.24441 -0.19872,-1.0593 0.20656,-1.90371 1.05818,-2.20468 0.65823,-0.23263 1.42703,-0.0347 1.74392,0.44888 0.31438,0.47979 0.39235,1.5413 0.15497,2.10943 -0.20519,0.49111 -0.15754,0.60497 0.3252,0.77706 0.26077,0.093 0.30255,0.59549 0.0495,0.59549 -0.0951,0 -0.37018,-0.1339 -0.61134,-0.29756 z m -0.54417,-0.90375 c 0.4191,-0.41908 0.44545,-1.51705 0.0486,-2.02163 -0.34428,-0.43765 -0.9063,-0.44733 -1.33072,-0.0229 -0.25675,0.25675 -0.31187,0.43744 -0.31187,1.02227 0,0.58483 0.0551,0.76552 0.31187,1.02227 0.17155,0.17153 0.46003,0.31188 0.64108,0.31188 0.18108,0 0.46956,-0.14035 0.64109,-0.31188 z" />
      <path
         style="fill:none;stroke:#000000;stroke-width:0.00820752"
         d="m 551.91848,514.91507 c -0.57897,0.14564 -1.52801,-0.24116 -1.94223,0.30618 -0.0802,1.7691 -0.37053,3.62168 0.0869,5.35541 0.52071,0.90856 1.8052,0.43673 2.65007,0.59748 0.87445,-0.004 1.77813,0.0563 2.63417,0.003 -0.0177,-2.08443 0.0355,-4.19827 -0.0266,-6.26433 -1.13409,6.2e-4 -2.26819,-0.002 -3.40228,0.002 z"
         id="path2312"
         transform="scale(0.26458333)" />
      <path
         style="fill:#ff0000;stroke:#000000;stroke-width:0.0119226"
         d="m 552.78835,514.89691 c -0.86213,0.17925 -2.03003,-0.0663 -2.74545,0.40332 -0.13467,1.73358 -0.35269,3.61265 0.068,5.29204 1.54773,0.959 3.55946,0.55229 5.26922,0.66273 -0.0194,-2.17234 0.0382,-4.37812 -0.0284,-6.52994 -0.85445,0.0573 -1.7089,0.11457 -2.56335,0.17185 z"
         id="path2388"
         transform="scale(0.26458333)" class="OC" />
      <path
         style="fill:#ff0000;stroke:#000000;stroke-width:0.0029594"
         d="m 545.41223,508.37663 c 0.0999,1.2919 0.21456,2.59208 0.44697,3.86866 0.17425,0.92313 0.702,1.74143 1.41283,2.34596 0.53743,0.49079 1.04276,1.05015 1.64732,1.44999 0.27761,-0.76618 0.43725,-1.5958 0.62228,-2.39711 0.20475,-0.40658 -0.33583,-0.40439 -0.57514,-0.55492 -0.89969,-0.33191 -1.79029,-0.85857 -2.24299,-1.73492 -0.5444,-0.94263 -0.83722,-2.00435 -1.27335,-2.99281 z"
         id="path2389"
         transform="scale(0.26458333)" class="OC" />
      <path
         style="fill:#ff0000;stroke:#000000;stroke-width:0.0029594"
         d="m 560.11883,507.99641 c -0.29632,0.44736 -0.42222,1.01378 -0.64503,1.50718 -0.46477,1.07414 -0.80572,2.30631 -1.74504,3.07527 -0.53695,0.45668 -1.30942,0.5075 -1.8339,0.9677 -0.23287,0.42429 0.11895,0.89842 0.25409,1.29797 0.17621,0.32512 0.28751,0.73031 0.51917,1.00261 0.95226,-0.68205 1.99279,-1.30693 2.73305,-2.23203 0.29209,-0.6119 0.27384,-1.32567 0.39036,-1.98485 0.13435,-1.20486 0.2673,-2.42301 0.35134,-3.62541 l -0.0202,-0.009 z"
         id="path2390"
         transform="scale(0.26458333)" class="OC" />
      <path
         style="fill:#ff0000;stroke:#000000;stroke-width:0.0029594"
         d="m 552.9276,522.26072 c -0.49799,0.0395 -1.05908,0.002 -1.49681,0.27143 -0.15806,0.25539 0.1676,0.52007 0.26351,0.73846 0.32572,0.48769 0.66385,0.96696 0.99574,1.45045 0.46211,-0.47695 0.86591,-1.08638 1.25958,-1.65052 0.16446,-0.17731 0.3101,-0.55387 0.005,-0.67422 -0.31955,-0.14291 -0.68389,-0.13273 -1.02654,-0.1356 z"
         id="path2391"
         transform="scale(0.26458333)" class="OC" />
      <path
         style="fill:#ff0000;stroke:#000000;stroke-width:0.0029594"
         d="m 549.1294,523.66909 c -0.64585,0.44206 -0.99999,1.19386 -1.42965,1.82824 -1.18502,2.00986 -2.29118,4.08391 -3.09141,6.27982 -0.0799,0.35831 -0.26505,0.77375 -0.11607,1.13197 0.30899,0.1602 0.63105,-0.17111 0.8773,-0.32264 1.52681,-1.27456 2.62757,-2.96559 3.73527,-4.59621 0.46581,-0.77481 1.08532,-1.52143 1.23225,-2.43711 0.028,-0.66919 -0.47406,-1.20585 -0.88748,-1.67599 -0.0928,-0.0798 -0.18967,-0.19795 -0.32021,-0.20808 z"
         id="path2392"
         transform="scale(0.26458333)" class="OC" />
      <path
         style="fill:#ff0000;stroke:#000000;stroke-width:0.0029594"
         d="m 556.38836,523.78781 c -0.55999,0.12859 -0.84937,0.73225 -1.06399,1.21255 -0.20613,0.49731 -0.24611,1.09055 0.0862,1.54559 0.78585,1.31295 1.93435,2.42057 2.4674,3.87207 0.11076,0.54727 0.63191,0.89516 1.01894,1.25404 0.55703,0.43386 1.16131,0.87534 1.85514,1.03741 0.24105,-0.0136 0.37108,-0.22529 0.31605,-0.45188 -0.15309,-1.06619 -0.73753,-2.01085 -1.18303,-2.97472 -0.94376,-1.81602 -1.88653,-3.65787 -3.15098,-5.27565 -0.0944,-0.0931 -0.19887,-0.22616 -0.34577,-0.21941 z"
         id="path2393"
         transform="scale(0.26458333)" class="OC" />
      <path
         style="fill:#0000ff;stroke:#000000;stroke-width:0.00557617"
         d="m 545.46816,537.96865 c 0.039,1.41523 0.17516,2.88062 0.61577,4.24181 0.52032,1.19178 1.42415,2.28695 2.57571,2.90897 0.60964,0.17961 0.60488,-0.73327 0.66021,-1.1087 0.15385,-0.60353 -0.11874,-1.22492 -0.68439,-1.49707 -1.73746,-0.91689 -2.37903,-2.87849 -3.12875,-4.54893 -0.0117,-0.008 -0.028,-0.007 -0.0385,0.004 z"
         id="path2899"
         transform="scale(0.26458333)" class="IC" />
      <path
         style="fill:#0000ff;stroke:#000000;stroke-width:0.00557617"
         d="m 555.32882,543.99025 c -1.18694,0.40999 -2.48207,0.90149 -3.72209,0.40406 -0.52695,-0.15774 -1.38595,-0.32249 -1.60119,0.36855 -0.36544,1.52123 -0.34504,3.14277 -0.10215,4.68376 0.18397,1.22847 1.64047,1.49822 2.67041,1.47849 0.79471,-0.0575 1.83558,0.17969 2.42633,-0.48894 0.58873,-1.0015 0.2728,-2.24642 0.39124,-3.34846 -0.0229,-1.02299 0.0924,-2.11525 -0.0375,-3.1029 z"
         id="path2900"
         transform="scale(0.26458333)" class="IC" />
      <path
         style="fill:#0000ff;stroke:#000000;stroke-width:0.00557617"
         d="m 560.05462,537.63343 c -0.78278,1.54606 -1.06319,3.54931 -2.65194,4.55241 -0.46139,0.44746 -1.47795,0.55877 -1.4644,1.34351 0.12309,0.5772 0.33573,1.32056 0.90525,1.59923 0.70753,-0.0823 1.11754,-0.839 1.61121,-1.27969 1.5277,-1.668 1.3853,-4.10712 1.63234,-6.20152 -0.006,-0.0106 -0.0207,-0.017 -0.0325,-0.0139 z"
         id="path2901"
         transform="scale(0.26458333)" class="IC" />
      <path
         style="fill:#0000ff;stroke:#000000;stroke-width:0.00557617"
         d="m 552.63941,551.59018 c -0.38222,0.0624 -1.0911,-0.0593 -1.23024,0.40536 0.33757,0.72163 0.88848,1.38384 1.35788,1.99348 0.50535,-0.68666 1.18178,-1.31453 1.49642,-2.10958 -0.40925,-0.36469 -1.10709,-0.25371 -1.62406,-0.28926 z"
         id="path2902"
         transform="scale(0.26458333)" class="IC" />
      <path
         style="fill:#0000ff;stroke:#000000;stroke-width:0.00557617"
         d="m 548.96372,553.24255 c -0.7559,0.50469 -1.10371,1.4468 -1.59139,2.18952 -1.1197,2.11886 -2.30007,4.23523 -3.08366,6.50538 -0.14837,0.24052 0.0722,0.84624 0.37443,0.49292 0.6815,-0.5437 1.28822,-1.26561 2.19387,-1.41233 0.59321,-0.23311 0.36406,-0.98263 0.75344,-1.39318 0.82154,-1.5777 2.24172,-2.81095 2.87412,-4.48772 0.13742,-0.82178 -0.77704,-1.29409 -1.2786,-1.78089 -0.0742,-0.0438 -0.14957,-0.12112 -0.24221,-0.1137 z"
         id="path2903"
         transform="scale(0.26458333)" class="IC" />
      <path
         style="fill:#0000ff;stroke:#000000;stroke-width:0.00557617"
         d="m 556.40724,553.14932 c -0.67289,0.47942 -1.17803,1.22054 -1.68417,1.87782 0.23046,0.65213 0.85536,1.18043 1.25028,1.76194 0.85815,1.0572 1.67809,2.18041 2.08365,3.49294 0.65255,0.94604 2.00502,1.06971 2.65522,2.04031 0.31028,0.3625 0.40236,-0.34623 0.36049,-0.54868 -0.32624,-1.69851 -1.27861,-3.20691 -2.03095,-4.7441 -0.76117,-1.28412 -1.37579,-2.70478 -2.41038,-3.79658 -0.065,-0.0466 -0.14138,-0.0895 -0.22414,-0.0837 z"
         id="path2904"
         transform="scale(0.26458333)" class="IC" />
      <path
         style="fill:#ff00ff;stroke:#000000;stroke-width:0.00557617"
         d="m 569.21042,561.73401 c -1.40233,0.10554 -2.44629,1.21016 -3.58712,1.91195 -0.2855,0.29276 -0.85975,0.47319 -0.9666,0.87852 0.67879,-0.005 1.30977,-0.50382 1.98912,-0.62622 1.12415,-0.26617 2.5285,-0.69427 3.51342,0.12219 0.20431,0.32274 0.63278,0.59224 0.95144,0.2322 0.52759,-0.50563 1.05009,-1.13977 1.24875,-1.84537 -0.31098,-0.48704 -1.07615,-0.36511 -1.56808,-0.52145 -0.52382,-0.074 -1.05007,-0.16421 -1.58093,-0.15182 z"
         id="path2905"
         transform="scale(0.26458333)" class="IF" />
      <path
         style="fill:#ff00ff;stroke:#000000;stroke-width:0.00557617"
         d="m 576.73977,560.54036 c -1.4868,0.84331 -2.95312,1.85267 -4.00721,3.21544 -0.29176,0.48304 0.44976,0.84539 0.66391,1.1943 0.8292,0.69575 1.42207,1.59754 1.86366,2.57549 0.0959,0.34285 0.39238,0.28303 0.60336,0.073 1.60151,-1.07197 3.34296,-2.10623 4.45832,-3.71925 0.13466,-0.74254 -0.47257,-1.40552 -0.82336,-2.00808 -0.51407,-0.70484 -1.10325,-1.43459 -1.94687,-1.7432 -0.2706,0.13744 -0.5412,0.27488 -0.81181,0.41233 z"
         id="path2906"
         transform="scale(0.26458333)" class="IF" />
      <path
         style="fill:#ff00ff;stroke:#000000;stroke-width:0.00557617"
         d="m 576.44223,568.55653 c -0.50886,0.0931 -1.0301,0.22565 -1.51014,0.38685 0.0496,1.45328 0.24333,3.05547 -0.66384,4.30739 -0.34956,0.66315 -0.91268,1.28724 -1.15799,1.96819 0.9613,-0.58154 1.73498,-1.49578 2.56802,-2.26085 1.16409,-0.89769 1.51306,-2.48242 1.29761,-3.87467 -0.0427,-0.25968 -0.22046,-0.58855 -0.53366,-0.52691 z"
         id="path2907"
         transform="scale(0.26458333)" class="IF" />
      <path
         style="fill:#ff00ff;stroke:#000000;stroke-width:0.00557617"
         d="m 579.5052,559.71003 c -0.2274,-0.0456 -0.55774,0.0572 -0.27989,0.30669 0.54913,0.67379 0.98052,1.58286 1.81247,1.93707 0.48417,0.0139 0.30759,-0.6819 0.47223,-0.9669 0.0224,-0.32632 0.43177,-0.92411 0.009,-1.12613 -0.66081,-0.13103 -1.34166,-0.14896 -2.01374,-0.15073 z"
         id="path2908"
         transform="scale(0.26458333)" class="IF" />
      <path
         style="fill:#ff00ff;stroke:#000000;stroke-width:0.00557617"
         d="m 583.42181,548.01163 c -0.57013,0.45142 -0.74106,1.27866 -1.12149,1.88323 -1.0155,2.15685 -2.18994,4.25083 -3.03864,6.48015 -0.058,0.36959 -0.33783,0.95407 0.0133,1.23307 0.96145,0.0903 2.10677,-0.21003 2.50622,-1.19125 0.69283,-1.55876 1.00458,-3.28677 1.93729,-4.73931 0.43779,-1.13591 0.0447,-2.38604 -0.14856,-3.53324 -0.0245,-0.0619 -0.0698,-0.14136 -0.14811,-0.13265 z"
         id="path2909"
         transform="scale(0.26458333)" class="IF" />
      <path
         style="fill:#ff00ff;stroke:#000000;stroke-width:0.00557617"
         d="m 590.44146,559.76231 c -2.19956,0.18052 -4.43514,0.23026 -6.58924,0.74603 -0.0997,0.72181 -0.50439,1.50624 -0.31323,2.24244 0.59947,0.50404 1.49102,0.0778 2.18432,0.0545 2.95681,-0.55043 5.93728,-1.16395 8.71905,-2.33792 -1.23231,-0.34109 -2.65466,-0.74142 -4.0009,-0.70508 z"
         id="path2910"
         transform="scale(0.26458333)" class="IF" />
      <path
         style="fill:#808080;stroke:#000000;stroke-width:0.00557617"
         d="m 577.02533,504.53126 c -0.84172,0.2023 -1.33568,1.0622 -1.85908,1.68722 -0.36903,0.61311 -0.9552,1.26279 -0.8948,2.01723 1.14292,1.29082 2.62681,2.2481 4.03757,3.22608 0.39784,0.24829 0.81567,0.50376 1.24236,0.6744 0.5377,-0.4532 0.30357,-1.23671 0.7469,-1.75497 0.53825,-0.9384 1.40036,-1.65845 2.06558,-2.47028 -1.63455,-1.15613 -3.14199,-2.58752 -5.0216,-3.34004 -0.10314,-0.0271 -0.2101,-0.0431 -0.31693,-0.0396 z"
         id="path2911"
         transform="scale(0.26458333)" class="OF" />
      <path
         style="fill:#808080;stroke:#000000;stroke-width:0.00557617"
         d="m 565.1518,504.86256 c -1.55462,0.0545 -3.22191,0.14779 -4.60709,0.89633 0.32172,0.392 1.00269,0.36937 1.45846,0.55307 2.68624,0.58705 5.39255,1.16098 8.13342,1.41056 0.34487,-0.0256 1.16803,0.12265 1.07407,-0.45284 -0.10416,-0.76862 -0.16682,-1.88015 -1.1172,-2.05817 -1.60802,-0.36828 -3.30112,-0.32308 -4.94166,-0.34895 z"
         id="path2912"
         transform="scale(0.26458333)" class="OF" />
      <path
         style="fill:#808080;stroke:#000000;stroke-width:0.00557617"
         d="m 573.7831,504.06099 c -0.43416,-0.0754 -1.14718,0.16947 -0.96145,0.72795 0.17547,0.5488 0.31392,1.35845 0.93945,1.55 0.65175,-0.43477 1.15812,-1.20378 1.26095,-1.98804 -0.14185,-0.45996 -0.90163,-0.21934 -1.23895,-0.28991 z"
         id="path2913"
         transform="scale(0.26458333)" class="OF" />
      <path
         style="fill:#808080;stroke:#000000;stroke-width:0.00557617"
         d="m 570.16513,492.75575 c -0.40354,0.25513 -0.16495,0.92505 -0.24244,1.32673 -0.042,1.04127 0.15167,2.12334 0.87389,2.91856 1.01223,1.39377 0.91465,3.33055 2.05512,4.63845 0.63563,0.50582 1.54841,0.37063 2.29756,0.28077 0.42837,-0.24232 -0.0193,-0.8246 -0.0795,-1.1625 -1.14389,-2.61815 -2.5341,-5.14759 -4.21457,-7.4603 -0.18919,-0.20882 -0.39319,-0.49516 -0.69005,-0.54171 z"
         id="path2914"
         transform="scale(0.26458333)" class="OF" />
      <path
         style="fill:#808080;stroke:#000000;stroke-width:0.00557617"
         d="m 577.80774,512.44244 c -0.37193,0.0949 0.1034,0.60391 0.0501,0.8508 0.18144,1.14575 0.19898,2.44465 1.11226,3.30069 0.87591,0.94573 1.73803,2.00091 2.89735,2.60047 0.24667,-0.12826 -0.18677,-0.51994 -0.22326,-0.68744 -0.66362,-1.11702 -1.77209,-2.18165 -1.55947,-3.59999 -0.0141,-0.62989 0.33713,-1.58965 -0.46037,-1.89166 -0.56378,-0.28089 -1.1811,-0.53972 -1.81661,-0.57287 z"
         id="path2915"
         transform="scale(0.26458333)" class="OF" />
      <path
         style="fill:#808080;stroke:#000000;stroke-width:0.00557617"
         d="m 584.75704,505.748 c -0.74658,0.0831 -1.65665,0.0283 -2.26271,0.52254 0.0505,0.71331 0.50764,1.46101 1.13288,1.82162 0.72845,-0.0736 1.4205,-0.45018 2.17623,-0.42431 1.34881,-0.13239 2.68829,0.0992 4.00678,0.31715 -0.15443,-0.32546 -0.71092,-0.483 -1.01273,-0.72428 -1.25544,-0.70246 -2.52525,-1.6223 -4.04045,-1.51272 z"
         id="path2916"
         transform="scale(0.26458333)" class="OF" />
      <path
         style="fill:#ff6600;stroke:#000000;stroke-width:0.00557617"
         d="m 533.43693,493.30051 c -0.76465,0.51147 -1.08498,1.48352 -1.57268,2.23331 -1.11434,2.17571 -2.34561,4.32746 -3.08342,6.66721 -0.21574,0.4319 0.29065,0.5241 0.59573,0.45023 0.91039,-0.0953 2.06769,-0.29574 2.36726,-1.32129 0.58402,-1.68431 0.99076,-3.44544 1.92614,-4.98894 0.0771,-0.95138 0.0995,-1.96795 -0.0104,-2.93204 -0.0277,-0.0965 -0.13276,-0.12639 -0.22261,-0.10848 z"
         id="path2917"
         transform="scale(0.26458333)" class="OR" />
      <path
         style="fill:#ff6600;stroke:#000000;stroke-width:0.00557617"
         d="m 529.91087,504.98149 c -0.3251,-0.0277 -0.92769,0.14182 -0.68134,0.57831 0.35122,0.56347 0.80047,1.21824 1.44131,1.44871 0.50494,-0.3024 0.78172,-1.06191 0.63059,-1.6258 -0.33636,-0.37989 -0.91941,-0.41145 -1.39056,-0.40122 z"
         id="path2918"
         transform="scale(0.26458333)" class="OR" />
      <path
         style="fill:#ff6600;stroke:#000000;stroke-width:0.00557617"
         d="m 540.60644,504.69593 c -1.9828,0.53957 -4.04788,0.64239 -6.06516,1.01563 -0.99334,0.16507 -1.31622,1.35383 -1.33045,2.20918 0.41587,0.57599 1.27233,0.1951 1.84706,0.16781 2.98137,-0.5908 6.07647,-1.04126 8.79732,-2.47386 -0.84379,-0.24948 -2.05889,-0.0262 -2.73777,-0.80985 -0.15262,-0.092 -0.33529,-0.11987 -0.511,-0.10891 z"
         id="path2919"
         transform="scale(0.26458333)" class="OR" />
      <path
         style="fill:#ff6600;stroke:#000000;stroke-width:0.00557617"
         d="m 527.2256,505.53431 c -1.38184,0.23234 -2.37458,1.38486 -3.44873,2.18952 -0.54209,0.57158 -1.37682,0.95183 -1.72338,1.67525 0.19342,0.49655 0.91923,0.50848 1.27054,0.88303 0.89005,0.57168 1.2044,1.60166 1.62253,2.50579 0.22592,0.53281 0.75393,-0.027 1.05051,-0.17734 1.3515,-0.98933 2.84083,-1.9027 3.85303,-3.26376 0.61966,-0.92424 -0.28731,-1.90568 -0.82597,-2.61121 -0.47498,-0.5201 -1.00738,-1.24166 -1.79853,-1.20128 z"
         id="path2920"
         transform="scale(0.26458333)" class="OR" />
      <path
         style="fill:#ff6600;stroke:#000000;stroke-width:0.00557617"
         d="m 519.1957,507.07081 c -1.45911,0.023 -2.59697,1.11124 -3.81083,1.78204 -0.43194,0.34666 -1.09156,0.58271 -1.38676,1.03 1.553,-0.33648 3.0516,-1.33871 4.70402,-1.15945 0.78921,0.24426 1.52859,0.6814 2.2969,0.94272 0.27892,-0.65885 0.86056,-1.27255 0.93771,-1.99152 -0.60956,-0.57421 -1.57276,-0.52331 -2.36356,-0.60096 -0.12579,-0.003 -0.25165,-0.004 -0.37748,-0.003 z"
         id="path2921"
         transform="scale(0.26458333)" class="OR" />
      <path
         style="fill:#ff6600;stroke:#000000;stroke-width:0.00557617"
         d="m 526.92828,513.32635 c -0.83415,0.28415 -1.80434,0.53694 -2.38207,1.24222 0.24025,1.05129 0.62581,2.27545 -0.0788,3.24093 -0.49085,0.88585 -1.21133,1.69108 -1.55371,2.63779 0.34024,0.065 0.60641,-0.46018 0.87794,-0.6296 1.29359,-1.27583 2.73774,-2.65665 2.97572,-4.55994 0.0744,-0.62794 0.31271,-1.32345 0.22914,-1.93009 -0.0222,-0.006 -0.0458,-0.004 -0.0682,-0.001 z"
         id="path2922"
         transform="scale(0.26458333)" class="OR" />
      <path
         style="fill:#ffff00;stroke:#000000;stroke-width:0.00557617"
         d="m 504.8471,520.69887 c -0.28754,0.20382 0.0786,0.68528 0.10266,0.95342 1.04219,2.5653 2.31219,5.06343 3.90629,7.33154 0.26604,0.46093 0.94755,0.80829 1.34112,0.28622 0.56895,-0.51758 0.86102,-1.37667 0.38837,-2.05926 -0.89181,-1.57824 -2.24756,-2.88807 -2.83187,-4.63628 -0.59332,-1.02505 -1.80413,-1.47809 -2.8543,-1.87629 -0.0174,-9.8e-4 -0.0349,-0.002 -0.0523,6.5e-4 z"
         id="path2923"
         transform="scale(0.26458333)" class="T" />
      <path
         style="fill:#ffff00;stroke:#000000;stroke-width:0.00557617"
         d="m 519.68863,521.59433 c -0.77029,0.0628 -1.19114,0.8172 -1.35011,1.49365 -0.70205,1.62711 -2.00864,2.90246 -2.7438,4.50312 -0.17649,0.73848 0.39827,1.45683 0.92333,1.91027 0.44578,0.42276 0.80321,-0.27863 1.07058,-0.55369 1.24111,-1.72769 2.322,-3.65631 2.75716,-5.75652 0.098,-0.53979 0.0659,-1.53472 -0.65716,-1.59683 z"
         id="path2924"
         transform="scale(0.26458333)" class="T" />
      <path
         style="fill:#ffff00;stroke:#000000;stroke-width:0.00557617"
         d="m 513.21265,529.04134 c -0.6148,0.431 -1.09533,1.13269 -1.34656,1.83861 0.17338,0.59151 1.01763,0.37338 1.4742,0.41865 0.39277,-0.0769 0.97418,0.0324 1.25464,-0.29384 -0.30157,-0.72408 -0.76633,-1.45773 -1.36398,-1.96429 l -0.006,-2.2e-4 z"
         id="path2925"
         transform="scale(0.26458333)" class="T" />
      <path
         style="fill:#ffff00;stroke:#000000;stroke-width:0.00557617"
         d="m 513.03687,531.98146 c -0.99213,0.0198 -2.38018,0.32581 -2.54173,1.50317 -0.26153,1.65434 -0.23305,3.3823 0.12351,5.01855 0.22419,0.40719 0.84903,0.12182 1.20127,0.0762 1.32012,-0.5805 2.75219,0.0506 4.01876,0.41843 0.29374,-1.44506 0.17324,-2.96572 0.21386,-4.44001 -0.0586,-0.72183 0.0721,-1.52276 -0.17139,-2.20259 -0.93415,-0.1949 -1.88532,-0.38828 -2.84428,-0.37378 z"
         id="path2926"
         transform="scale(0.26458333)" class="T" />
      <path
         style="fill:#ffff00;stroke:#000000;stroke-width:0.00557617"
         d="m 507.96082,538.81531 c -0.8455,0.90249 -1.98163,1.85722 -1.84551,3.23107 0.008,0.88709 -0.10288,1.88308 5.8e-4,2.69905 0.68624,-1.5029 1.07968,-3.48166 2.75323,-4.21806 0.37715,-0.23731 1.28748,-0.32952 1.09781,-0.96037 -0.19914,-0.66894 -0.47533,-1.36723 -0.8044,-1.94969 -0.40057,0.39933 -0.80114,0.79867 -1.20171,1.198 z"
         id="path2927"
         transform="scale(0.26458333)" class="T" />
      <path
         style="fill:#ffff00;stroke:#000000;stroke-width:0.00557617"
         d="m 517.17761,537.73994 c -0.27459,0.6801 -0.77132,1.35049 -0.80963,2.09041 0.46849,0.68003 1.46692,0.62468 2.04096,1.19735 1.05958,0.80804 1.06844,2.30794 1.67612,3.38883 0.25712,-0.23192 0.10013,-0.76906 0.17229,-1.0989 -0.0596,-1.16196 0.2713,-2.5402 -0.6149,-3.47748 -0.68787,-0.83342 -1.59443,-1.51029 -2.46484,-2.10021 z"
         id="path2928"
         transform="scale(0.26458333)" class="T" />
      <path
         style="fill:#00ff00;stroke:#000000;stroke-width:0.00557617"
         d="m 517.72281,559.71722 c -1.68683,0.0823 -3.50434,-0.0769 -5.06473,0.67589 -0.30581,0.31776 0.40922,0.47278 0.59792,0.56938 2.66989,0.83143 5.45189,1.34802 8.24249,1.52604 0.48736,-0.048 1.10361,0.1071 1.52015,-0.18384 0.0694,-0.7514 -0.17909,-1.65152 -0.7885,-2.14268 -1.2516,-0.57246 -2.70352,-0.36913 -4.04185,-0.44675 -0.15516,6.5e-4 -0.31032,0.001 -0.46548,0.002 z"
         id="path2929"
         transform="scale(0.26458333)" class="IR" />
      <path
         style="fill:#00ff00;stroke:#000000;stroke-width:0.00557617"
         d="m 522.1942,547.58449 c -0.42636,0.23722 -0.22382,0.91734 -0.28796,1.3178 -0.003,0.92411 0.0486,1.88839 0.61325,2.66463 0.81478,1.48478 1.15826,3.16944 1.92783,4.66912 0.41953,0.7049 1.38591,0.40056 2.05969,0.51013 0.31891,-0.041 0.76711,0.0961 1.0231,-0.0887 -1.51258,-2.87325 -2.92331,-5.81908 -4.70859,-8.53655 -0.17434,-0.19726 -0.33886,-0.50477 -0.62732,-0.53648 z"
         id="path2930"
         transform="scale(0.26458333)" class="IR" />
      <path
         style="fill:#00ff00;stroke:#000000;stroke-width:0.00557617"
         d="m 524.90082,559.05832 c -0.51479,0.051 -0.25248,0.76014 -0.15596,1.06034 0.20868,0.46294 0.36115,1.08133 0.70617,1.418 0.52181,-0.62149 1.16892,-1.23112 1.46657,-1.98781 -0.43135,-0.39859 -1.14616,-0.37524 -1.70617,-0.48095 -0.10325,-0.008 -0.207,-0.0146 -0.31061,-0.01 z"
         id="path2931"
         transform="scale(0.26458333)" class="IR" />
      <path
         style="fill:#00ff00;stroke:#000000;stroke-width:0.00557617"
         d="m 528.84595,559.26459 c -0.9452,0.3178 -1.40709,1.35936 -1.973,2.105 -0.43258,0.62077 -0.93508,1.56677 -0.24004,2.19911 1.28726,1.21807 2.71043,2.35584 4.3163,3.12234 0.3496,0.26428 0.82825,0.11398 0.88827,-0.33731 0.0629,-1.47713 1.46441,-2.38943 2.42657,-3.32676 0.16158,-0.33043 -0.5889,-0.63888 -0.82299,-0.9316 -1.41797,-1.05473 -2.86657,-2.13921 -4.50275,-2.82599 -0.0303,-0.006 -0.0616,-0.008 -0.0924,-0.005 z"
         id="path2932"
         transform="scale(0.26458333)" class="IR" />
      <path
         style="fill:#00ff00;stroke:#000000;stroke-width:0.00557617"
         d="m 529.83376,567.53148 c -0.27702,0.26103 -0.0689,0.79393 -0.0891,1.14703 0.18135,1.6605 1.21067,3.07683 2.46113,4.12462 0.67859,0.58935 1.308,1.3166 2.06209,1.78045 -0.0127,-0.4146 -0.49644,-0.77923 -0.68142,-1.15672 -0.77441,-1.11785 -1.69098,-2.31174 -1.57069,-3.75084 -0.0907,-0.54294 0.0915,-1.247 -0.22971,-1.7113 -0.62964,-0.21577 -1.30112,-0.31476 -1.95232,-0.43324 z"
         id="path2933"
         transform="scale(0.26458333)" class="IR" />
      <path
         style="fill:#00ff00;stroke:#000000;stroke-width:0.00557617"
         d="m 536.03246,560.73683 c -0.59448,0.0829 -1.42765,-0.009 -1.82772,0.52168 0.16117,0.73767 0.73227,1.39139 1.3361,1.82815 0.78987,-0.0775 1.41948,-0.82333 2.25029,-0.85276 1.33034,-0.0779 2.58031,0.63362 3.88502,0.6772 -0.039,-0.34786 -0.6154,-0.48184 -0.85473,-0.71554 -1.40885,-0.97583 -3.06243,-1.54603 -4.78896,-1.45873 z"
         id="path2934"
         transform="scale(0.26458333)" class="IR" />
    </g>
    <path
       style="fill:#ffffff;fill-opacity:1;stroke:#000000;stroke-width:0.0064821;stroke-opacity:0"
       d="m 585.17488,521.32091 c -0.56393,0.11124 -0.27291,0.92244 -0.24687,1.31313 0.59609,2.29414 1.8966,4.34486 3.20129,6.29852 0.31698,0.31272 0.55237,0.95128 1.026,0.99485 0.76639,-0.51722 1.3697,-1.50307 0.908,-2.4237 -0.98924,-2.20969 -2.47327,-4.21717 -4.25464,-5.85389 -0.18697,-0.1356 -0.38495,-0.33882 -0.63378,-0.32891 z"
       id="path127"
       transform="scale(0.26458333)" class="P" />
    <path
       style="fill:#ffffff;fill-opacity:1;stroke:#000000;stroke-width:0.0064821;stroke-opacity:0"
       d="m 592.54979,529.23008 c -0.6846,0.30708 -1.17419,1.07877 -1.33643,1.79346 0.27315,0.51317 1.06566,0.22619 1.53465,0.34212 0.47539,-0.0595 1.09468,0.14544 1.49674,-0.13778 -0.32963,-0.70859 -0.79938,-1.47544 -1.45239,-1.94184 -0.0751,-0.0352 -0.15815,-0.0655 -0.24257,-0.056 z"
       id="path128"
       transform="scale(0.26458333)" class="P" />
    <path
       style="fill:#ffffff;fill-opacity:1;stroke:#000000;stroke-width:0.0064821;stroke-opacity:0"
       d="m 600.77623,520.68966 c -1.25299,0.47233 -1.99033,1.73476 -2.88303,2.66726 -1.05174,1.3965 -2.36241,2.7182 -2.89642,4.41747 0.044,0.76172 0.43238,1.67144 1.1569,2.01148 0.79794,-0.0677 1.05857,-1.09116 1.50741,-1.62232 1.30425,-2.18739 2.6297,-4.43111 3.31239,-6.90038 0.0118,-0.17282 0.0901,-0.58441 -0.19725,-0.57351 z"
       id="path129"
       transform="scale(0.26458333)" class="P" />
    <path
       style="fill:#ffffff;fill-opacity:1;stroke:#000000;stroke-width:0.0064821;stroke-opacity:0"
       d="m 593.14204,532.25843 c -1.05779,0.14314 -2.44402,-0.14782 -3.22409,0.75633 -0.57713,1.15728 -0.26046,2.53471 -0.31971,3.77953 -0.0569,0.69812 0.0822,1.58898 0.87981,1.79001 1.56991,0.41367 3.22997,0.21891 4.8365,0.30765 0.24315,-0.85333 0.0288,-1.89784 0.10129,-2.8225 0,-1.26663 0,-2.53325 0,-3.79988 -0.65087,-0.225 -1.55033,0.0349 -2.2738,-0.0111 z"
       id="path130"
       transform="scale(0.26458333)" class="P" />
    <path
       style="fill:#ffffff;fill-opacity:1;stroke:#000000;stroke-width:0.0064821;stroke-opacity:0"
       d="m 588.63673,537.80923 c -1.05028,0.52098 -1.84239,1.51004 -2.50321,2.46346 -0.66058,1.43458 -0.67771,3.08917 -0.73176,4.62457 0.47667,-0.3518 0.67621,-1.20296 0.96497,-1.79043 0.27196,-0.67855 0.28709,-1.59969 1.08474,-1.90817 0.59195,-0.45573 1.60545,-0.53961 1.94412,-1.27717 0.0857,-0.72323 -0.0947,-1.61268 -0.66239,-2.09858 -0.0306,-0.0119 -0.0638,-0.0163 -0.0965,-0.0137 z"
       id="path131"
       transform="scale(0.26458333)" class="P" />
    <path
       style="fill:#ffffff;fill-opacity:1;stroke:#000000;stroke-width:0.0064821;stroke-opacity:0"
       d="m 596.64642,537.80949 c -0.55942,0.23021 -0.53679,1.0502 -0.73835,1.5438 -0.24413,0.98718 0.98135,1.28172 1.61419,1.65648 1.44379,0.84342 1.47674,2.74132 2.09884,4.1212 -0.005,0.34272 0.49476,0.48421 0.43146,0.0484 -0.10819,-1.73487 -0.17072,-3.54773 -0.84419,-5.17175 -0.70335,-0.82743 -1.46152,-1.74121 -2.46775,-2.19277 -0.031,-0.005 -0.0628,-0.008 -0.0942,-0.005 z"
       id="path132"
       transform="scale(0.26458333)" class="P" />
  </g>
</svg>
