<svg xmlns="http://www.w3.org/2000/svg" xmlns:xlink="http://www.w3.org/1999/xlink" version="1.1" x="0px" y="0px" viewBox="0 0 64 80" enable-background="new 0 0 64 64" xml:space="preserve"><g><path d="M36.954,25.009v-18c0-0.553,0.447-1,1-1s1,0.447,1,1v18c0,0.552-0.447,1-1,1S36.954,25.561,36.954,25.009z M59.954,26.009   c0.553,0,1-0.448,1-1v-18c0-0.553-0.447-1-1-1s-1,0.447-1,1v18C58.954,25.561,59.401,26.009,59.954,26.009z M24.954,25.009   c0.553,0,1-0.448,1-1v-9c0-0.553-0.447-1-1-1s-1,0.447-1,1v9C23.954,24.561,24.401,25.009,24.954,25.009z M53.954,20.009   c0.553,0,1-0.448,1-1v-9c0-0.553-0.447-1-1-1s-1,0.447-1,1v9C52.954,19.561,53.401,20.009,53.954,20.009z M9.954,20.009   c0.553,0,1-0.448,1-1v-9c0-0.553-0.447-1-1-1s-1,0.447-1,1v9C8.954,19.561,9.401,20.009,9.954,20.009z M59.064,47.924   c-0.566,0.286-1.438,1.022-2.449,1.874c-2.691,2.271-6.759,5.702-12.635,7.38c-1.907,0.546-4.346,0.813-7.014,0.813   c-8.552,0-19.459-2.755-22.789-7.96c-0.149-0.229-0.3-0.493-0.448-0.772c-0.173,0.009-0.343,0.026-0.518,0.026   c-4.512,0-8.338-2.986-9.607-7.087c-0.001-0.002-0.001-0.005-0.002-0.007c-0.289-0.938-0.446-1.932-0.446-2.962   c0-5.545,4.511-10.056,10.056-10.056c3.367,0,6.346,1.67,8.171,4.219c0.19-0.29,0.378-0.578,0.551-0.845   c0.688-1.063,1.187-1.831,1.574-2.227c0.991-0.981,3.3-1.342,4.695-0.33c0.774,0.561,1.852,1.944,0.366,4.917   c-0.667,1.343-1.332,2.548-2.008,3.665c0.678-0.151,1.322-0.325,1.924-0.522c2.147-0.716,4.598-4.48,6.061-6.729   c0.685-1.051,1.179-1.81,1.571-2.203c0.973-0.973,3.271-1.337,4.673-0.327c0.777,0.561,1.858,1.944,0.37,4.922   c-0.708,1.415-2.044,4.086-3.99,6.654l3.719,2.231c0.448,0.269,0.613,0.837,0.38,1.305l-0.874,1.747   c1.139,0.188,2.111,0.322,2.944,0.417c1.159-0.823,2.81-2.412,2.81-3.621v-4.589c0-0.266,0.106-0.521,0.295-0.709   c0.188-0.187,0.44-0.291,0.705-0.291c0.002,0,0.003,0,0.005,0c0.002,0.001,2.285,0.011,3.426,0   c0.356-0.011,0.712,0.144,0.986,0.415c0.296,0.293,1.044,1.044,1.155,6.138c0.119-0.098,0.223-0.187,0.308-0.261v-5.296   c0-0.265,0.105-0.52,0.293-0.707c0.147-0.147,1.517-1.439,4.148-1.439c0.49,0,0.862-0.063,1.161-0.112   c0.493-0.083,1.054-0.176,1.549,0.243c0.583,0.494,0.583,1.112,0.583,3.163c0,0.856,0.076,1.729,0.149,2.571   C61.135,44.129,61.366,46.772,59.064,47.924z M46.18,46.265c1.02,0.005,1.541-0.097,1.793-0.183   c1.053-0.351,1.985-0.819,2.774-1.291c-0.001-0.018-0.011-0.032-0.011-0.051c0-3.58-0.295-5.294-0.51-5.88   c-0.633,0.004-1.445,0.003-2.078,0.001v3.585C48.148,43.907,47.163,45.268,46.18,46.265z M35.888,41.931   c-0.746,0.838-1.563,1.63-2.448,2.326c0.757,0.174,1.668,0.375,2.675,0.589c0.73-0.555,1.192-0.939,1.201-0.947   c0.422-0.355,1.053-0.302,1.409,0.121c0.061,0.072,0.094,0.156,0.131,0.238l0.21-0.421L35.888,41.931z M22.483,35.345   c0.483,1.149,0.754,2.409,0.774,3.728c0.198-0.016,0.414-0.036,0.654-0.062c0.976-1.449,1.917-3.081,2.867-4.994   c0.286-0.573,0.882-1.949,0.251-2.405c-0.556-0.402-1.769-0.212-2.104,0.12c-0.237,0.241-0.76,1.049-1.313,1.904   C23.272,34.159,22.888,34.746,22.483,35.345z M21.657,44.754c0.232,1.055,0.679,2.047,1.303,2.841   c0.073,0.073,0.135,0.149,0.181,0.239c0.671,0.777,1.769,1.637,3.361,1.637c1.771,0,4.402-1.107,7.388-3.062   c-0.77-0.172-1.438-0.325-1.947-0.448c-0.387-0.088-0.671-0.154-0.856-0.198c-1.396,0.695-2.923,1.119-4.584,1.119   c-0.553,0-1-0.447-1-1c0-0.552,0.447-1,1-1c4.601,0,8.811-3.945,12.869-12.063c0.285-0.571,0.882-1.949,0.25-2.404   c-0.593-0.427-1.795-0.177-2.09,0.118c-0.245,0.245-0.762,1.039-1.309,1.88c-1.71,2.628-4.295,6.599-7.109,7.537   c-1.223,0.401-2.591,0.712-4.066,0.933C23.972,42.396,22.834,43.697,21.657,44.754z M8.644,44.953   c0.989-0.945,2.068-1.593,3.021-2.164c1.031-0.618,1.922-1.151,2.007-1.688c0.046-0.291-0.075-1.009-1.404-2.535   c-1.536-1.756-2.246-1.89-2.446-1.873c-0.475,0.043-1.075,1.048-1.655,2.02c-0.627,1.05-1.338,2.24-2.383,3.239   c-0.037,0.035-0.068,0.07-0.105,0.105c0.5,1.328,1.334,2.494,2.409,3.384C8.272,45.277,8.457,45.13,8.644,44.953z M19.765,43.896   c0-0.002,0.001-0.003,0.002-0.004c0.94-1.317,1.499-2.925,1.499-4.663c0-4.441-3.613-8.056-8.054-8.056   c-4.442,0-8.056,3.614-8.056,8.056c0,0.132,0.014,0.261,0.02,0.391c0.482-0.626,0.897-1.306,1.273-1.934   c0.875-1.467,1.702-2.852,3.191-2.986c1.229-0.11,2.494,0.676,4.134,2.55c1.482,1.702,2.06,2.985,1.872,4.164   c-0.23,1.459-1.554,2.251-2.953,3.091c-0.863,0.517-1.841,1.103-2.67,1.896c-0.054,0.051-0.106,0.096-0.16,0.146   c1.021,0.47,2.153,0.738,3.349,0.738C15.913,47.285,18.303,45.943,19.765,43.896z M17.688,50.862   c1.21-0.186,2.575-1.611,3.326-2.568c-0.361-0.545-0.666-1.137-0.906-1.767c-1.187,1.122-2.644,1.955-4.264,2.396   c0.005,0.006,0.009,0.015,0.013,0.021C16.292,49.624,16.917,50.265,17.688,50.862z M38.063,47.271   c-0.467-0.087-0.964-0.185-1.474-0.286c-2.912,2.108-6.899,4.486-10.087,4.486c-1.563,0-2.98-0.562-4.169-1.619   c-0.604,0.731-1.515,1.68-2.589,2.326c4.175,2.243,10.516,3.635,16.111,3.808c0.018-0.074,0.024-0.149,0.06-0.221   C36.746,54.106,37.687,49.403,38.063,47.271z M58.92,41.746c-0.077-0.886-0.157-1.802-0.157-2.745c0-0.545,0-1.045-0.012-1.399   C58.43,37.652,58,37.707,57.47,37.707c-1.229,0-2.037,0.383-2.441,0.639v5.243c0,0.265-0.105,0.52-0.293,0.707   c-0.101,0.101-2.501,2.474-6.125,3.683c-0.56,0.189-2.122,0.708-8.578-0.361c-0.25,1.408-1.103,5.975-2.039,8.373   c2.027-0.058,3.895-0.294,5.438-0.735c5.463-1.561,9.333-4.825,11.895-6.985c1.151-0.972,2.062-1.739,2.84-2.133   C59.203,45.618,59.128,44.131,58.92,41.746z M3.954,26.009c0.553,0,1-0.448,1-1v-18c0-0.553-0.447-1-1-1s-1,0.447-1,1v18   C2.954,25.561,3.401,26.009,3.954,26.009z"/></g><text x="0" y="79" fill="#000000" font-size="5px" font-weight="bold" font-family="'Helvetica Neue', Helvetica, Arial-Unicode, Arial, Sans-serif">Created by RAHMAT DWI CAHYO</text><text x="0" y="84" fill="#000000" font-size="5px" font-weight="bold" font-family="'Helvetica Neue', Helvetica, Arial-Unicode, Arial, Sans-serif">from the Noun Project</text></svg>